<svg width="317" height="284" viewBox="0 0 317 284" fill="none" xmlns="http://www.w3.org/2000/svg">
<path fill-rule="evenodd" clip-rule="evenodd" d="M111.318 7.6778C110.592 25.8067 112.497 101.136 112.497 101.136L70.3858 156.748C59.0638 171.7 63.0344 193.164 78.9624 203.057C93.0072 211.792 111.386 208.321 121.301 195.07L161.484 141.341C161.484 141.341 191.253 131.63 184.219 94.9869L182.268 7.08788C182.2 3.7979 179.409 1.23399 176.141 1.41551C161.575 2.23233 124.704 4.29707 114.108 4.79624C112.566 4.86431 111.363 6.08954 111.295 7.63242L111.318 7.6778Z" fill="#3C3C3B" stroke="#FFBE9F" stroke-width="1.92523" stroke-miterlimit="10" stroke-linecap="round"/>
<path d="M111.248 19.6783L180.814 18.1354" stroke="#FFBE9F" stroke-width="1.92523" stroke-miterlimit="10" stroke-linecap="round"/>
<path fill-rule="evenodd" clip-rule="evenodd" d="M184.243 95.032L163.165 102.951C156.971 105.288 153.567 111.936 155.292 118.311L161.509 141.364" fill="#3C3C3B"/>
<path d="M184.243 95.032L163.165 102.951C156.971 105.288 153.567 111.936 155.292 118.311L161.509 141.364" stroke="#FFBE9F" stroke-width="1.92523" stroke-miterlimit="10" stroke-linecap="round"/>
<path d="M70.3845 156.75L109.864 165.168C114.879 166.235 118.827 170.069 120.029 175.038L123.954 191.08" fill="#3C3C3B"/>
<path d="M70.3845 156.75L109.864 165.168C114.879 166.235 118.827 170.069 120.029 175.038L123.954 191.08" stroke="#FFBE9F" stroke-width="1.92523" stroke-miterlimit="10" stroke-linecap="round"/>
<path fill-rule="evenodd" clip-rule="evenodd" d="M199.404 33.0197C198.632 51.1486 200.379 126.478 200.379 126.478L158.154 181.999C146.787 196.928 150.735 218.393 166.64 228.331C180.662 237.089 199.063 233.663 209.001 220.435L249.321 166.797C249.321 166.797 279.112 157.131 272.146 120.488L270.376 32.5886C270.308 29.2986 267.54 26.7347 264.25 26.8935C249.684 27.6877 212.813 29.6616 202.217 30.1608C200.674 30.2289 199.472 31.4541 199.404 32.997V33.0197Z" fill="#3C3C3B" stroke="#FFBFA0" stroke-width="1.92523" stroke-miterlimit="10" stroke-linecap="round"/>
<path d="M199.313 45.0024L270.58 43.5729" stroke="#FFBE9F" stroke-width="1.92523" stroke-miterlimit="10" stroke-linecap="round"/>
<path fill-rule="evenodd" clip-rule="evenodd" d="M272.122 120.512L251.043 128.385C244.849 130.7 241.423 137.348 243.124 143.746L249.296 166.821" fill="#3C3C3B"/>
<path d="M272.122 120.512L251.043 128.385C244.849 130.7 241.423 137.348 243.124 143.746L249.296 166.821" stroke="#FFBE9F" stroke-width="1.92523" stroke-miterlimit="10" stroke-linecap="round"/>
<path d="M158.154 181.999L197.633 190.484C202.625 191.551 206.573 195.408 207.775 200.377L211.655 216.441" fill="#3C3C3B"/>
<path d="M158.154 181.999L197.633 190.484C202.625 191.551 206.573 195.408 207.775 200.377L211.655 216.441" stroke="#FFBE9F" stroke-width="1.92523" stroke-miterlimit="10" stroke-linecap="round"/>
<path fill-rule="evenodd" clip-rule="evenodd" d="M63.3989 26.8275C62.6729 44.9564 64.5788 120.285 64.5788 120.285L22.4671 175.897C11.1451 190.85 15.1157 212.314 31.0437 222.207C45.0885 230.942 63.467 227.471 73.3823 214.22L113.565 160.491C113.565 160.491 143.334 150.78 136.3 114.137L134.349 26.2376C134.281 22.9476 131.49 20.3837 128.223 20.5652C113.656 21.382 76.7857 23.4468 66.1897 23.946C64.6468 24.014 63.4443 25.2393 63.3762 26.7821L63.3989 26.8275Z" fill="#3C3C3B" stroke="#FFBE9F" stroke-width="1.92523" stroke-miterlimit="10" stroke-linecap="round"/>
<path d="M63.3291 38.8275L132.895 37.2619" stroke="#FFBE9F" stroke-width="1.92523" stroke-miterlimit="10" stroke-linecap="round"/>
<path fill-rule="evenodd" clip-rule="evenodd" d="M136.325 114.159L115.246 122.077C109.052 124.414 105.649 131.062 107.373 137.438L113.59 160.49" fill="#3C3C3B"/>
<path d="M136.325 114.159L115.246 122.077C109.052 124.414 105.649 131.062 107.373 137.438L113.59 160.49" stroke="#FFBE9F" stroke-width="1.92523" stroke-miterlimit="10" stroke-linecap="round"/>
<path d="M22.4658 175.9L61.9455 184.318C66.9599 185.384 70.9078 189.219 72.1104 194.188L76.0357 210.229" fill="#3C3C3B"/>
<path d="M22.4658 175.9L61.9455 184.318C66.9599 185.384 70.9078 189.219 72.1104 194.188L76.0357 210.229" stroke="#FFBE9F" stroke-width="1.92523" stroke-miterlimit="10" stroke-linecap="round"/>
<path d="M89.3794 96.6828C89.3794 96.6828 88.8122 80.1876 85.1819 61.0831" stroke="#FFBE9F" stroke-width="1.37516" stroke-miterlimit="10" stroke-linecap="round"/>
<path d="M93.8705 94.6616L84.4316 88.1951" stroke="#FFBE9F" stroke-width="1.37516" stroke-miterlimit="10" stroke-linecap="round"/>
<path d="M94.5778 89.6066L83.7549 93.2823" stroke="#FFBE9F" stroke-width="1.37516" stroke-miterlimit="10" stroke-linecap="round"/>
<path d="M94.5522 81.3481L83.1167 80.7355" stroke="#FFBE9F" stroke-width="1.37516" stroke-miterlimit="10" stroke-linecap="round"/>
<path d="M92.7407 72.5389L81.3052 71.9263" stroke="#FFBE9F" stroke-width="1.37516" stroke-miterlimit="10" stroke-linecap="round"/>
<path d="M90.6966 63.0089L79.8511 66.2988" stroke="#FFBE9F" stroke-width="1.37516" stroke-miterlimit="10" stroke-linecap="round"/>
<path fill-rule="evenodd" clip-rule="evenodd" d="M238.291 78.8793C237.519 97.0081 239.267 172.337 239.267 172.337L197.041 227.858C185.674 242.788 189.622 264.252 205.527 274.19C219.549 282.948 237.951 279.522 247.889 266.294L288.208 212.656C288.208 212.656 317.999 202.991 311.033 166.347L309.264 78.4481C309.195 75.1582 306.427 72.5943 303.137 72.7531C288.571 73.5472 251.7 75.5212 241.104 76.0204C239.562 76.0884 238.359 77.3137 238.291 78.8566V78.8793Z" fill="#3C3C3B" stroke="#FFBFA0" stroke-width="1.92523" stroke-miterlimit="10" stroke-linecap="round"/>
<path d="M238.2 90.8581L309.468 89.4286" stroke="#FFBE9F" stroke-width="1.92523" stroke-miterlimit="10" stroke-linecap="round"/>
<path fill-rule="evenodd" clip-rule="evenodd" d="M311.034 166.372L289.956 174.245C283.761 176.559 280.335 183.207 282.037 189.606L288.209 212.681" fill="#3C3C3B"/>
<path d="M311.034 166.372L289.956 174.245C283.761 176.559 280.335 183.207 282.037 189.606L288.209 212.681" stroke="#FFBE9F" stroke-width="1.92523" stroke-miterlimit="10" stroke-linecap="round"/>
<path d="M197.041 227.858L236.52 236.344C241.512 237.41 245.46 241.268 246.663 246.237L250.543 262.301" fill="#3C3C3B"/>
<path d="M197.041 227.858L236.52 236.344C241.512 237.41 245.46 241.268 246.663 246.237L250.543 262.301" stroke="#FFBE9F" stroke-width="1.92523" stroke-miterlimit="10" stroke-linecap="round"/>
<path d="M310.375 132.444C310.012 132.557 306.223 140.113 305.905 140.34L290.431 150.891C288.48 152.207 285.825 151.367 285.008 149.166L278.337 131.332C278.224 130.992 278.042 130.697 277.838 130.402L271.576 122.143C270.146 120.26 270.872 117.537 273.073 116.607L299.098 106.17C301.685 105.058 303.681 104.649 305.224 104.649C307.834 104.649 309.944 106.76 309.989 109.369L310.375 132.421V132.444Z" stroke="#FFBFA0" stroke-width="1.71895" stroke-miterlimit="10"/>
<path d="M288.481 105.694L296.513 112.115" stroke="#FFBFA0" stroke-width="1.71895" stroke-miterlimit="10" stroke-linecap="round"/>
<path d="M293.629 103.88L291.36 113.931" stroke="#FFBFA0" stroke-width="1.71895" stroke-miterlimit="10" stroke-linecap="round"/>
<path d="M276.115 110.481L284.147 116.902" stroke="#FFBFA0" stroke-width="1.71895" stroke-miterlimit="10" stroke-linecap="round"/>
<path d="M281.262 108.663L278.993 118.715" stroke="#FFBFA0" stroke-width="1.71895" stroke-miterlimit="10" stroke-linecap="round"/>
<path d="M275.347 135.034L281.133 126.525" stroke="#FFBFA0" stroke-width="1.71895" stroke-miterlimit="10" stroke-linecap="round"/>
<path d="M273.145 130.041L283.332 131.493" stroke="#FFBFA0" stroke-width="1.71895" stroke-miterlimit="10" stroke-linecap="round"/>
<path d="M279.251 145.788L285.037 137.28" stroke="#FFBFA0" stroke-width="1.71895" stroke-miterlimit="10" stroke-linecap="round"/>
<path d="M277.048 140.799L287.236 142.274" stroke="#FFBFA0" stroke-width="1.71895" stroke-miterlimit="10" stroke-linecap="round"/>
<path d="M307.293 143.135L303.118 137.349" stroke="#FFBFA0" stroke-width="1.71895" stroke-miterlimit="10" stroke-linecap="round"/>
<path d="M303.23 147.309L298.103 140.207" stroke="#FFBFA0" stroke-width="1.71895" stroke-miterlimit="10" stroke-linecap="round"/>
<path d="M297.511 149.398L293.518 143.885" stroke="#FFBFA0" stroke-width="1.71895" stroke-miterlimit="10" stroke-linecap="round"/>
<path fill-rule="evenodd" clip-rule="evenodd" d="M151.958 41.6662C150.824 59.7724 151.051 147.694 151.051 147.694L107.714 202.353C96.0513 217.056 99.5455 238.588 115.269 248.844C129.11 257.874 147.579 254.834 157.767 241.81L199.152 188.989C199.152 188.989 229.148 179.936 222.908 143.156V42.6872C222.908 39.3972 220.185 36.7653 216.895 36.8787C202.306 37.3779 165.413 38.6258 154.817 38.8754C153.274 38.9208 152.049 40.1006 151.958 41.6435V41.6662Z" fill="#87C300" stroke="#1D1D1B" stroke-width="1.97107" stroke-miterlimit="10" stroke-linecap="round"/>
<path d="M151.641 53.6428H221.23" stroke="#1D1D1B" stroke-width="1.97107" stroke-miterlimit="10" stroke-linecap="round"/>
<path fill-rule="evenodd" clip-rule="evenodd" d="M222.93 143.158L201.693 150.623C195.453 152.823 191.891 159.381 193.479 165.802L199.174 188.99" fill="#87C300"/>
<path d="M222.93 143.158L201.693 150.623C195.453 152.823 191.891 159.381 193.479 165.802L199.174 188.99" stroke="#1D1D1B" stroke-width="1.97107" stroke-miterlimit="10" stroke-linecap="round"/>
<path d="M107.715 202.332L147.013 211.612C151.982 212.791 155.862 216.717 156.951 221.708L160.513 237.841" fill="#87C300"/>
<path d="M107.715 202.332L147.013 211.612C151.982 212.791 155.862 216.717 156.951 221.708L160.513 237.841" stroke="#1D1D1B" stroke-width="1.97107" stroke-miterlimit="10" stroke-linecap="round"/>
<path d="M206.661 111.277L197.563 113.41C197.245 113.478 196.928 113.614 196.655 113.773L182.996 122.122C181.272 123.166 179.048 122.326 178.436 120.421L173.512 104.901C173.421 104.606 173.285 104.334 173.126 104.084L168.135 96.7781C167 95.0991 167.726 92.8075 169.632 92.1268L191.369 84.2762C191.777 84.1401 192.14 83.9132 192.435 83.6183L193.411 82.7107C194.954 81.2585 197.495 81.7577 198.357 83.709L208.817 107.011C209.611 108.781 208.59 110.846 206.707 111.299L206.661 111.277Z" fill="#009026" stroke="#1D1D1B" stroke-width="1.46684" stroke-miterlimit="10"/>
<path d="M184.36 116.498L187.628 123.804" stroke="#1D1D1B" stroke-width="1.46684" stroke-miterlimit="10" stroke-linecap="round"/>
<path d="M188.628 114.974L191.895 122.28" stroke="#1D1D1B" stroke-width="1.46684" stroke-miterlimit="10" stroke-linecap="round"/>
<path d="M193.005 112.438L196.272 119.721" stroke="#1D1D1B" stroke-width="1.46684" stroke-miterlimit="10" stroke-linecap="round"/>
<path d="M180.569 84.6915L183.836 91.9749" stroke="#1D1D1B" stroke-width="1.46684" stroke-miterlimit="10"/>
<path d="M184.811 83.1718L188.078 90.4778" stroke="#1D1D1B" stroke-width="1.46684" stroke-miterlimit="10" stroke-linecap="round"/>
<path d="M189.194 80.604L192.484 87.91" stroke="#1D1D1B" stroke-width="1.46684" stroke-miterlimit="10" stroke-linecap="round"/>
<path d="M171.858 88.5972L175.125 95.9032" stroke="#1D1D1B" stroke-width="1.46684" stroke-miterlimit="10" stroke-linecap="round"/>
<path d="M176.098 87.0775L179.366 94.3835" stroke="#1D1D1B" stroke-width="1.46684" stroke-miterlimit="10" stroke-linecap="round"/>
<path d="M180.484 84.5098L183.774 91.8158" stroke="#1D1D1B" stroke-width="1.46684" stroke-miterlimit="10" stroke-linecap="round"/>
<path d="M177.188 199.812C177.188 199.812 174.103 189.828 156.632 181.229" stroke="#1D1D1B" stroke-width="0.962613" stroke-miterlimit="10" stroke-linecap="round"/>
<path d="M179.093 193.457L173.013 197.904" stroke="#1D1D1B" stroke-width="0.962613" stroke-miterlimit="10" stroke-linecap="round"/>
<path d="M175.329 189.671L169.248 194.141" stroke="#1D1D1B" stroke-width="0.962613" stroke-miterlimit="10" stroke-linecap="round"/>
<path d="M170.725 185.947L164.644 190.394" stroke="#1D1D1B" stroke-width="0.962613" stroke-miterlimit="10" stroke-linecap="round"/>
<path d="M165.707 181.929L161.554 188.146" stroke="#1D1D1B" stroke-width="0.962613" stroke-miterlimit="10" stroke-linecap="round"/>
<path d="M162.213 179.845L156.019 184.019" stroke="#1D1D1B" stroke-width="0.962613" stroke-miterlimit="10" stroke-linecap="round"/>
</svg>
