<svg width="415" height="254" viewBox="0 0 415 254" fill="none" xmlns="http://www.w3.org/2000/svg">
<path d="M117.302 111.192L117.39 111.386C123.667 127.31 139.476 138.371 155.407 137.177C157.306 137.037 158.519 135.088 157.833 133.315C157.324 131.998 155.899 131.26 154.528 131.629C130.49 138.125 111.499 97.884 139.493 86.8756L197.521 61.9617C200.546 60.6625 204.063 62.1197 205.276 65.1923L212.45 83.3465C212.837 84.3122 214.103 84.5404 214.807 83.7504L281.117 8.5699C282.524 6.97218 281.24 4.4966 279.13 4.72485L187.146 14.434C186.232 14.5394 185.652 15.4699 185.986 16.3302L190.628 28.0936C191.718 30.8501 190.575 33.9753 187.973 35.3799L131.228 65.9472C115.983 74.1641 110.532 94.0389 117.319 111.21L117.302 111.192Z" fill="#3C3C3B" stroke="#CAA7F6" stroke-width="0.96" stroke-miterlimit="10"/>
<path d="M136.855 126.836C165.483 126.836 188.676 149.994 188.676 178.578C188.676 207.161 165.483 230.337 136.855 230.337C134.868 230.337 132.899 230.214 130.982 230.003C129.048 230.214 127.079 230.337 125.092 230.337C96.4643 230.337 73.2707 207.179 73.2707 178.595C73.2707 150.012 96.4643 126.836 125.092 126.836C127.079 126.836 129.048 126.959 130.965 127.17C132.899 126.959 134.868 126.836 136.855 126.836ZM136.855 123.606C134.904 123.606 132.934 123.711 130.965 123.922C128.995 123.711 127.026 123.606 125.074 123.606C110.373 123.606 96.5347 129.329 86.1424 139.723C75.7149 150.117 70 163.917 70 178.613C70 193.291 75.7325 207.108 86.1248 217.485C96.5171 227.861 110.356 233.585 125.074 233.585C127.026 233.585 128.995 233.479 130.965 233.269C132.934 233.479 134.904 233.585 136.855 233.585C151.573 233.585 165.395 227.861 175.787 217.467C186.179 207.073 191.912 193.273 191.912 178.578C191.912 163.9 186.179 150.082 175.787 139.706C165.395 129.329 151.556 123.606 136.855 123.606Z" fill="#1D1D1B"/>
<path d="M125.073 230.336C153.693 230.336 176.894 207.17 176.894 178.594C176.894 150.018 153.693 126.853 125.073 126.853C96.4532 126.853 73.2522 150.018 73.2522 178.594C73.2522 207.17 96.4532 230.336 125.073 230.336Z" fill="#CA6F1F"/>
<path d="M136.855 230.336C165.474 230.336 188.675 207.17 188.675 178.594C188.675 150.018 165.474 126.853 136.855 126.853C108.235 126.853 85.0337 150.018 85.0337 178.594C85.0337 207.17 108.235 230.336 136.855 230.336Z" fill="#FFD500"/>
<path d="M106.399 148.078C114.206 140.318 124.968 135.525 136.837 135.525C160.189 135.525 179.215 154.048 179.972 177.188L137.523 179.137L106.399 148.078Z" fill="#1D1D1B"/>
<path d="M93.791 181.139C93.7383 180.296 93.7207 179.453 93.7207 178.593C93.7207 166.671 98.574 155.874 106.417 148.061L137.541 179.12L93.8086 181.139H93.791Z" fill="#1D1D1B"/>
<path d="M179.972 177.168C179.972 177.642 179.989 178.099 179.989 178.573C179.989 190.441 175.189 201.186 167.417 208.982L137.506 179.134L179.954 177.186L179.972 177.168Z" fill="#1D1D1B"/>
<path d="M137.523 179.137L167.434 208.984C159.626 216.815 148.812 221.661 136.872 221.678C113.907 221.678 95.1272 203.752 93.7908 181.156L137.523 179.137Z" fill="#FAEEBD"/>
<path d="M136.856 217.276C158.25 217.276 175.594 199.959 175.594 178.597C175.594 157.236 158.25 139.919 136.856 139.919C115.461 139.919 98.1174 157.236 98.1174 178.597C98.1174 199.959 115.461 217.276 136.856 217.276Z" fill="#FBBE00"/>
<path d="M246.616 85.0132C273.098 85.0132 294.551 106.433 294.569 132.874C294.569 159.316 273.116 180.753 246.634 180.753C244.788 180.753 242.976 180.648 241.2 180.437C239.407 180.648 237.596 180.753 235.749 180.753C209.267 180.753 187.815 159.333 187.797 132.892C187.797 106.451 209.25 85.0132 235.732 85.0132C237.578 85.0132 239.389 85.1185 241.165 85.3292C242.959 85.1185 244.77 85.0132 246.616 85.0132ZM246.616 82.0284C244.823 82.0284 242.976 82.1338 241.165 82.3269C239.354 82.1338 237.525 82.0284 235.714 82.0284C222.104 82.0284 209.32 87.3307 199.702 96.9346C190.083 106.538 184.79 119.32 184.79 132.91C184.79 146.499 190.1 159.263 199.719 168.867C209.338 178.471 222.139 183.756 235.749 183.756C237.543 183.756 239.389 183.65 241.2 183.457C243.012 183.65 244.84 183.756 246.652 183.756C260.262 183.756 273.046 178.453 282.664 168.849C292.283 159.246 297.576 146.464 297.576 132.874C297.576 119.285 292.265 106.521 282.647 96.9171C273.028 87.3132 260.244 82.0284 246.634 82.0284H246.616Z" fill="#1D1D1B"/>
<path d="M235.715 180.754C262.198 180.754 283.667 159.317 283.667 132.875C283.667 106.432 262.198 84.9959 235.715 84.9959C209.231 84.9959 187.762 106.432 187.762 132.875C187.762 159.317 209.231 180.754 235.715 180.754Z" fill="#CA6F1F"/>
<path d="M246.616 180.754C273.1 180.754 294.569 159.317 294.569 132.875C294.569 106.432 273.1 84.9959 246.616 84.9959C220.133 84.9959 198.664 106.432 198.664 132.875C198.664 159.317 220.133 180.754 246.616 180.754Z" fill="#FFD500"/>
<path d="M218.446 104.642C225.656 97.4607 235.608 93.0187 246.616 93.0187C268.227 93.0187 285.829 110.155 286.515 131.557L247.249 133.365L218.464 104.642H218.446Z" fill="#1D1D1B"/>
<path d="M206.77 135.243C206.717 134.471 206.699 133.681 206.699 132.891C206.699 121.865 211.183 111.874 218.446 104.658L247.231 133.382L206.77 135.243Z" fill="#1D1D1B"/>
<path d="M286.515 131.575C286.515 132.014 286.532 132.435 286.532 132.874C286.532 143.848 282.083 153.785 274.909 161.001L247.231 133.384L286.497 131.575H286.515Z" fill="#1D1D1B"/>
<path d="M247.231 133.384L274.908 161.001C267.681 168.252 257.676 172.73 246.633 172.73C225.373 172.73 208 156.155 206.787 135.245L247.248 133.384H247.231Z" fill="#FAEEBD"/>
<path d="M246.616 168.655C266.408 168.655 282.453 152.635 282.453 132.874C282.453 113.112 266.408 97.0918 246.616 97.0918C226.824 97.0918 210.779 113.112 210.779 132.874C210.779 152.635 226.824 168.655 246.616 168.655Z" fill="#FBBE00"/>
<path d="M326.589 119.494L326.502 119.301C320.224 103.377 304.416 92.3157 288.484 93.5096C286.585 93.6501 285.372 95.6165 286.058 97.3722C286.568 98.689 287.992 99.4264 289.364 99.0577C313.401 92.5615 332.392 132.803 304.398 143.811L246.37 168.725C243.346 170.024 239.829 168.567 238.615 165.495L231.441 147.34C231.054 146.375 229.788 146.146 229.102 146.937L162.774 222.117C161.368 223.715 162.651 226.19 164.761 225.962L256.745 216.253C257.659 216.148 258.239 215.217 257.905 214.357L253.263 202.593C252.173 199.837 253.316 196.712 255.918 195.325L312.663 164.757C327.908 156.54 333.359 136.666 326.572 119.494H326.589Z" fill="#3C3C3B" stroke="#CAA7F6" stroke-width="0.96" stroke-miterlimit="10"/>
<path d="M161.421 3.23055C190.048 3.23055 213.242 26.3887 213.242 54.972C213.242 83.5553 190.048 106.731 161.421 106.731C159.434 106.731 157.465 106.608 155.548 106.397C153.614 106.608 151.644 106.731 149.657 106.731C121.03 106.731 97.8363 83.5729 97.8363 54.9895C97.8363 26.4062 121.03 3.23055 149.657 3.23055C151.644 3.23055 153.614 3.35345 155.53 3.56414C157.465 3.35345 159.434 3.23055 161.421 3.23055ZM161.421 0C159.469 0 157.5 0.105344 155.53 0.316032C153.543 0.105344 151.574 0 149.622 0C134.922 0 121.083 5.72369 110.69 16.1176C100.298 26.5116 94.5657 40.3116 94.5657 55.0071C94.5657 69.685 100.298 83.5026 110.69 93.879C121.083 104.255 134.922 109.979 149.64 109.979C151.591 109.979 153.561 109.874 155.53 109.663C157.5 109.874 159.469 109.979 161.421 109.979C176.139 109.979 189.96 104.255 200.353 93.8615C210.745 83.4675 216.477 69.6675 216.477 54.972C216.477 40.2941 210.745 26.4764 200.353 16.1001C189.943 5.72369 176.122 0 161.421 0Z" fill="#1D1D1B"/>
<path d="M149.622 106.73C178.242 106.73 201.443 83.5644 201.443 54.9884C201.443 26.4124 178.242 3.24695 149.622 3.24695C121.002 3.24695 97.8013 26.4124 97.8013 54.9884C97.8013 83.5644 121.002 106.73 149.622 106.73Z" fill="#CA6F1F"/>
<path d="M161.421 106.73C190.041 106.73 213.242 83.5644 213.242 54.9884C213.242 26.4124 190.041 3.24695 161.421 3.24695C132.802 3.24695 109.601 26.4124 109.601 54.9884C109.601 83.5644 132.802 106.73 161.421 106.73Z" fill="#FFD500"/>
<path d="M130.965 24.4562C138.772 16.6959 149.534 11.9027 161.403 11.9027C184.755 11.9027 203.781 30.4257 204.537 53.5662L162.089 55.5151L130.965 24.4562Z" fill="#1D1D1B"/>
<path d="M118.339 57.5328C118.287 56.69 118.269 55.8473 118.269 54.987C118.269 43.0656 123.122 32.2678 130.965 24.4548L162.089 55.5137L118.357 57.5328H118.339Z" fill="#1D1D1B"/>
<path d="M204.538 53.5662C204.538 54.0403 204.555 54.4968 204.555 54.9708C204.555 66.8396 199.755 77.5846 191.982 85.3801L162.072 55.5326L204.52 53.5838L204.538 53.5662Z" fill="#1D1D1B"/>
<path d="M162.071 55.5145L191.982 85.3619C184.175 93.1925 173.36 98.0383 161.421 98.0559C138.456 98.0559 119.676 80.1299 118.339 57.5336L162.071 55.5145Z" fill="#FAEEBD"/>
<path d="M161.421 93.6704C182.816 93.6704 200.159 76.3533 200.159 54.9916C200.159 33.6299 182.816 16.3128 161.421 16.3128C140.027 16.3128 122.683 33.6299 122.683 54.9916C122.683 76.3533 140.027 93.6704 161.421 93.6704Z" fill="#FBBE00"/>
</svg>
