<svg width="415" height="302" viewBox="0 0 415 302" fill="none" xmlns="http://www.w3.org/2000/svg">
<path d="M243.164 197.933L230.158 226.054L282.54 244.593L286.901 213.799" stroke="#69C1ED" stroke-width="1.85729" stroke-miterlimit="10" stroke-linecap="round"/>
<path d="M366.934 132.017C367.559 131.032 367.059 129.61 365.824 128.828C364.589 128.047 363.089 128.203 362.463 129.188" stroke="#69C1ED" stroke-width="1.85729" stroke-miterlimit="10" stroke-linecap="round"/>
<path d="M305.627 102.344C283.398 99.1396 271.659 113.177 263.718 134.983C258.059 150.49 243.209 182.097 241.943 186.161C240.036 191.695 234.987 190.851 239.755 195.446C243.366 198.823 273.926 217.909 293.887 212.798C297.373 211.969 294.622 208.577 294.512 206.998C294.231 202.809 305.033 156.899 308.268 147.551" stroke="#69C1ED" stroke-width="1.85729" stroke-miterlimit="10" stroke-linecap="round"/>
<path d="M313.865 136.284C332.405 139.504 332.749 147.867 341.315 151.416C353.758 156.558 372.156 157.746 375.361 144.772C376.892 138.582 368.264 132.97 363.996 130.141C355.883 124.764 343.706 117.604 330.279 110.601C327.215 109.007 324.729 107.819 321.9 106.693" stroke="#69C1ED" stroke-width="1.85729" stroke-miterlimit="10" stroke-linecap="round"/>
<path d="M313.053 139.907C310.521 139.016 309.098 136.531 309.864 134.373C310.63 132.216 313.303 131.185 315.82 132.091" stroke="#69C1ED" stroke-width="1.85729" stroke-miterlimit="10" stroke-linecap="round"/>
<path d="M297.766 138.519C297.766 138.519 302.69 143.959 308.286 147.554C316.18 152.635 330.014 156.777 338.362 149.836" stroke="#69C1ED" stroke-width="1.85729" stroke-miterlimit="10" stroke-linecap="round"/>
<path d="M361.618 132.905C361.196 134.093 360.117 132.373 358.617 131.842C357.116 131.31 355.772 132.17 356.194 130.982C356.616 129.794 358.179 129.262 359.664 129.794C361.149 130.325 362.04 131.717 361.618 132.905V132.905Z" stroke="#69C1ED" stroke-width="1.85729" stroke-miterlimit="10" stroke-linecap="round"/>
<path d="M290.531 114.707C290.917 113.617 290.478 112.467 289.55 112.138C288.622 111.81 287.557 112.428 287.171 113.519C286.785 114.609 287.225 115.76 288.153 116.088C289.081 116.416 290.145 115.798 290.531 114.707Z" stroke="#69C1ED" stroke-width="1.85729" stroke-miterlimit="10" stroke-linecap="round"/>
<path d="M258.529 195.12C258.529 195.12 266.001 198.981 280.758 193.823" stroke="#69C1ED" stroke-width="1.85729" stroke-miterlimit="10" stroke-linecap="round"/>
<path d="M261.107 199.778L261.983 193.792" stroke="#69C1ED" stroke-width="1.85729" stroke-miterlimit="10" stroke-linecap="round"/>
<path d="M265.39 199.747L266.265 193.76" stroke="#69C1ED" stroke-width="1.85729" stroke-miterlimit="10" stroke-linecap="round"/>
<path d="M270.111 199.213L270.986 193.226" stroke="#69C1ED" stroke-width="1.85729" stroke-miterlimit="10" stroke-linecap="round"/>
<path d="M275.239 198.622L274.035 192.729" stroke="#69C1ED" stroke-width="1.85729" stroke-miterlimit="10" stroke-linecap="round"/>
<path d="M297.309 167.533L293.183 170.268C293.042 170.362 292.901 170.487 292.807 170.628L287.571 177.287C286.914 178.131 285.648 178.115 284.992 177.287L279.677 170.503C279.583 170.377 279.458 170.268 279.333 170.174L275.503 167.47C274.628 166.845 274.565 165.579 275.394 164.875L284.726 156.966C284.898 156.825 285.038 156.637 285.132 156.434L285.445 155.809C285.945 154.793 287.289 154.574 288.087 155.387L297.575 165.016C298.294 165.751 298.169 166.954 297.309 167.533Z" stroke="#69C1ED" stroke-width="1.85729" stroke-miterlimit="10" stroke-linecap="round"/>
<path d="M287.228 174.231L290.198 177.248" stroke="#69C1ED" stroke-width="1.85729" stroke-miterlimit="10" stroke-linecap="round"/>
<path d="M289.057 172.699L292.027 175.715" stroke="#69C1ED" stroke-width="1.85729" stroke-miterlimit="10" stroke-linecap="round"/>
<path d="M290.76 170.621L293.731 173.638" stroke="#69C1ED" stroke-width="1.85729" stroke-miterlimit="10" stroke-linecap="round"/>
<path d="M279.46 159.17L282.43 162.187" stroke="#69C1ED" stroke-width="1.85729" stroke-miterlimit="10" stroke-linecap="round"/>
<path d="M281.289 157.621L284.259 160.638" stroke="#69C1ED" stroke-width="1.85729" stroke-miterlimit="10" stroke-linecap="round"/>
<path d="M282.994 155.557L285.964 158.574" stroke="#69C1ED" stroke-width="1.85729" stroke-miterlimit="10" stroke-linecap="round"/>
<path d="M275.862 162.711L278.832 165.728" stroke="#69C1ED" stroke-width="1.85729" stroke-miterlimit="10" stroke-linecap="round"/>
<path d="M277.691 161.165L280.661 164.182" stroke="#69C1ED" stroke-width="1.85729" stroke-miterlimit="10" stroke-linecap="round"/>
<path d="M279.396 159.088L282.366 162.104" stroke="#69C1ED" stroke-width="1.85729" stroke-miterlimit="10" stroke-linecap="round"/>
<path d="M278.413 197.795L279.507 191.886" stroke="#69C1ED" stroke-width="1.85729" stroke-miterlimit="10" stroke-linecap="round"/>
<path d="M409.492 95.2226L260.355 42.4689L199.282 215.126L348.419 267.88L409.492 95.2226Z" stroke="#69C1ED" stroke-width="1.74804" stroke-miterlimit="10"/>
<path d="M328.901 107.396C328.276 109.178 327.416 109.506 326.603 109.209C325.791 108.912 325.337 108.115 325.962 106.348C326.588 104.582 327.76 103.363 328.573 103.66C329.386 103.957 329.542 105.614 328.917 107.396H328.901Z" fill="#69C1ED"/>
<path d="M321.314 107.47C323.914 100.121 322.537 92.9303 318.24 91.4102C313.943 89.8902 308.352 94.6158 305.752 101.965C303.152 109.315 304.528 116.505 308.826 118.025C313.123 119.545 318.714 114.82 321.314 107.47Z" stroke="#69C1ED" stroke-width="1.85729" stroke-miterlimit="10" stroke-linecap="round"/>
<path d="M317.929 102.393L310.77 107.755" stroke="#69C1ED" stroke-width="1.85729" stroke-miterlimit="10" stroke-linecap="round"/>
<path d="M311.348 102.207L317.476 108.319" stroke="#69C1ED" stroke-width="1.85729" stroke-miterlimit="10" stroke-linecap="round"/>
<path d="M321.604 106.348C321.761 105.691 321.964 105.035 322.199 104.378C324.199 98.7037 328.264 94.9678 331.265 96.0307C334.266 97.0937 335.079 102.549 333.063 108.223C332.687 109.286 332.234 110.287 331.734 111.193" stroke="#69C1ED" stroke-width="1.85729" stroke-miterlimit="10" stroke-linecap="round"/>
<path d="M157.777 45.4119L6.06787 90.2352L57.8035 265.341L209.513 220.517L157.777 45.4119Z" fill="#3C3C3B"/>
<path d="M104.588 103.612C102.822 97.6095 98.945 92.92 96.1313 93.7641C93.3175 94.5926 92.4265 100.001 93.9897 105.332" stroke="#69C1ED" stroke-width="1.85729" stroke-miterlimit="10" stroke-linecap="round"/>
<path d="M83.9707 226.105L89.942 256.508L143.23 240.752L128.693 213.255" stroke="#69C1ED" stroke-width="1.85729" stroke-miterlimit="10" stroke-linecap="round"/>
<path d="M81.4685 232.154C81.4685 232.154 75.9974 239.032 88.8779 236.515" stroke="#69C1ED" stroke-width="1.85729" stroke-miterlimit="10" stroke-linecap="round"/>
<path d="M145.481 100.082C145.403 98.9249 144.168 98.0652 142.699 98.159C141.229 98.2528 140.12 99.2688 140.198 100.426" stroke="#69C1ED" stroke-width="1.85729" stroke-miterlimit="10" stroke-linecap="round"/>
<path d="M80.235 111.097C59.4292 121.445 57.1939 140.391 63.6654 163.057C68.183 178.923 74.717 213.234 76.077 217.267C77.7808 222.863 73.1851 225.146 79.7504 226.068C84.6588 226.678 120.596 224.192 133.758 208.342C136.087 205.622 131.882 204.496 130.866 203.277C128.177 200.057 109.966 156.538 107.122 147.081" stroke="#69C1ED" stroke-width="1.85729" stroke-miterlimit="10" stroke-linecap="round"/>
<path d="M105.024 134.689C121.922 126.42 127.112 132.985 136.131 130.828C149.231 127.686 164.815 117.854 159.782 105.458C157.39 99.549 147.12 100.065 141.993 100.284C132.27 100.69 118.217 102.034 103.227 104.254C99.8032 104.754 97.0989 105.27 94.1445 106.005" stroke="#69C1ED" stroke-width="1.85729" stroke-miterlimit="10" stroke-linecap="round"/>
<path d="M106.482 138.098C103.903 138.864 101.292 137.692 100.651 135.503C100.01 133.315 101.558 130.907 104.137 130.157" stroke="#69C1ED" stroke-width="1.85729" stroke-miterlimit="10" stroke-linecap="round"/>
<path d="M93.2886 145.945C93.2886 145.945 100.464 147.461 107.107 147.086C116.486 146.57 130.117 141.802 132.79 131.282" stroke="#69C1ED" stroke-width="1.85729" stroke-miterlimit="10" stroke-linecap="round"/>
<path d="M141.698 103.909C142.058 105.112 140.166 104.362 138.65 104.815C137.118 105.269 136.54 106.754 136.18 105.55C135.821 104.346 136.774 102.986 138.29 102.549C139.807 102.111 141.339 102.721 141.698 103.924V103.909Z" stroke="#69C1ED" stroke-width="1.85729" stroke-miterlimit="10" stroke-linecap="round"/>
<path d="M72.3464 133.425C73.2903 133.146 73.7897 132.021 73.4619 130.911C73.1341 129.802 72.1033 129.128 71.1594 129.407C70.2156 129.686 69.7162 130.812 70.0439 131.921C70.3717 133.03 71.4026 133.704 72.3464 133.425Z" stroke="#69C1ED" stroke-width="1.85729" stroke-miterlimit="10" stroke-linecap="round"/>
<path d="M83.1086 158.152C83.1086 158.152 76.1056 162.811 73.4639 178.223" stroke="#69C1ED" stroke-width="1.85729" stroke-miterlimit="10" stroke-linecap="round"/>
<path d="M77.7986 158.152L82.6131 161.826" stroke="#69C1ED" stroke-width="1.85729" stroke-miterlimit="10" stroke-linecap="round"/>
<path d="M75.7502 161.904L80.5648 165.577" stroke="#69C1ED" stroke-width="1.85729" stroke-miterlimit="10" stroke-linecap="round"/>
<path d="M73.9211 166.311L78.7357 169.968" stroke="#69C1ED" stroke-width="1.85729" stroke-miterlimit="10" stroke-linecap="round"/>
<path d="M71.968 171.08L77.6892 172.878" stroke="#69C1ED" stroke-width="1.85729" stroke-miterlimit="10" stroke-linecap="round"/>
<path d="M104.79 197.967L99.8661 198.436C99.6941 198.452 99.5222 198.499 99.3658 198.561L91.6125 201.969C90.6434 202.391 89.5179 201.797 89.3303 200.75L87.8453 192.262C87.814 192.105 87.7671 191.949 87.689 191.808L85.5943 187.619C85.1097 186.665 85.6725 185.509 86.7198 185.29L98.678 182.711C98.8969 182.664 99.1001 182.57 99.2877 182.445L99.8661 182.038C100.788 181.382 102.07 181.82 102.398 182.914L106.228 195.872C106.525 196.857 105.837 197.873 104.806 197.967H104.79Z" stroke="#69C1ED" stroke-width="1.85729" stroke-miterlimit="10" stroke-linecap="round"/>
<path d="M92.74 199.12L93.9436 203.184" stroke="#69C1ED" stroke-width="1.85729" stroke-miterlimit="10" stroke-linecap="round"/>
<path d="M95.0676 198.623L96.2713 202.687" stroke="#69C1ED" stroke-width="1.85729" stroke-miterlimit="10" stroke-linecap="round"/>
<path d="M97.5542 197.588L98.7578 201.652" stroke="#69C1ED" stroke-width="1.85729" stroke-miterlimit="10" stroke-linecap="round"/>
<path d="M92.9883 182.158L94.1919 186.222" stroke="#69C1ED" stroke-width="1.85729" stroke-miterlimit="10" stroke-linecap="round"/>
<path d="M95.3333 181.678L96.5369 185.727" stroke="#69C1ED" stroke-width="1.85729" stroke-miterlimit="10" stroke-linecap="round"/>
<path d="M97.8181 180.643L99.0061 184.707" stroke="#69C1ED" stroke-width="1.85729" stroke-miterlimit="10" stroke-linecap="round"/>
<path d="M88.1448 183.604L89.3484 187.668" stroke="#69C1ED" stroke-width="1.85729" stroke-miterlimit="10" stroke-linecap="round"/>
<path d="M90.488 183.107L91.6917 187.171" stroke="#69C1ED" stroke-width="1.85729" stroke-miterlimit="10" stroke-linecap="round"/>
<path d="M92.9729 182.072L94.1609 186.136" stroke="#69C1ED" stroke-width="1.85729" stroke-miterlimit="10" stroke-linecap="round"/>
<path d="M71.1379 174.252L75.7806 178.081" stroke="#69C1ED" stroke-width="1.85729" stroke-miterlimit="10" stroke-linecap="round"/>
<path d="M91.1008 121.692C95.0335 120.53 96.6133 114.145 94.6295 107.431C92.6456 100.716 87.8493 96.2148 83.9167 97.3767C79.984 98.5387 78.4041 104.924 80.388 111.638C82.3718 118.353 87.1681 122.854 91.1008 121.692Z" stroke="#69C1ED" stroke-width="1.85729" stroke-miterlimit="10" stroke-linecap="round"/>
<path d="M94.1948 118.965C94.1948 118.965 94.3355 127.25 88.0515 129.11" stroke="#69C1ED" stroke-width="1.85729" stroke-miterlimit="10" stroke-linecap="round"/>
<path d="M91.0848 121.699C91.0848 121.699 88.4274 126.873 83.4409 127.06" stroke="#69C1ED" stroke-width="1.85729" stroke-miterlimit="10" stroke-linecap="round"/>
<path d="M87.3487 121.419C87.3487 121.419 83.8941 124.702 79.2515 122.279" stroke="#69C1ED" stroke-width="1.85729" stroke-miterlimit="10" stroke-linecap="round"/>
<path d="M158.338 45.3256L6.62866 90.1489L58.5209 265.784L210.23 220.961L158.338 45.3256Z" stroke="#69C1ED" stroke-width="1.74804" stroke-miterlimit="10"/>
<path d="M282.038 62.3678L123.846 62.0917L123.526 245.232L281.719 245.508L282.038 62.3678Z" fill="#69C1ED"/>
<path d="M282.038 62.3678L123.846 62.0917L123.526 245.232L281.719 245.508L282.038 62.3678Z" stroke="white" stroke-width="8.86765" stroke-miterlimit="10" stroke-linecap="round"/>
<path d="M164.493 159.883L158.928 244.654H214.061L201.134 150.332L164.493 159.883Z" fill="#F6E085"/>
<path d="M164.493 159.883L158.928 244.654H214.061L201.134 150.332L164.493 159.883Z" stroke="#1D1D1B" stroke-width="1.69341" stroke-miterlimit="10" stroke-linecap="round"/>
<path d="M169.155 225.598C170.265 225.598 171.469 225.598 172.766 225.583" stroke="#1D1D1B" stroke-width="1.69341" stroke-miterlimit="10" stroke-linecap="round"/>
<path d="M157.709 219.095C157.709 219.095 150.565 224.112 163.524 225.332" stroke="#1D1D1B" stroke-width="1.69341" stroke-miterlimit="10" stroke-linecap="round"/>
<path d="M157.709 228.558C157.709 228.558 150.909 233.325 162.633 234.701C164.321 234.888 166.369 235.014 168.87 235.045C170.058 235.045 171.355 235.045 172.747 235.029" stroke="#1D1D1B" stroke-width="1.69341" stroke-miterlimit="10" stroke-linecap="round"/>
<path d="M203.466 224.082L203.669 227.114" stroke="#1D1D1B" stroke-width="1.69341" stroke-miterlimit="10" stroke-linecap="round"/>
<path d="M224.865 100.842C224.865 106.329 222.521 110.768 219.613 110.768C216.706 110.768 214.361 107.314 214.361 101.827C214.361 98.8259 217.894 96.2779 220.332 94.7304C224.256 92.2606 224.881 95.3244 224.881 100.842H224.865Z" fill="white" stroke="#1D1D1B" stroke-width="1.69341" stroke-miterlimit="10" stroke-linecap="round"/>
<path d="M267.837 120.565C267.337 115.5 260.818 112.952 255.722 111.514C255.722 111.483 255.738 111.452 255.738 111.42C256.004 110.295 255.05 109.122 253.643 108.81C252.236 108.497 250.908 109.122 250.626 110.217C241.341 107.981 228.336 105.496 214.345 103.511C173.515 97.727 160.463 118.189 160.166 148.342C160.01 164.709 156.571 199.192 156.743 203.413C156.805 209.212 151.772 210.087 157.774 212.823C162.261 214.777 197.166 222.53 214.142 211.135C217.128 209.212 213.439 206.946 212.813 205.507C211.172 201.693 206.076 155.173 206.014 145.357C208.515 145.951 211.391 146.31 214.392 146.357H214.533H214.674C217.378 146.373 220.129 146.123 222.771 145.497H222.911L223.005 145.45C225.835 144.763 228.508 143.668 230.759 142.027L231.681 141.621C231.681 141.621 231.947 141.277 232.431 140.636C233.385 139.729 234.198 138.713 234.901 137.525C235.933 137.775 237.011 137.963 238.215 138.025C251.549 138.729 269.15 133.742 267.853 120.549L267.837 120.565ZM253.784 111.014C253.643 110.983 253.487 110.936 253.362 110.904C253.393 110.904 253.425 110.904 253.456 110.904C253.581 110.92 253.675 110.967 253.784 110.998V111.014Z" fill="#C164A3"/>
<path d="M214.344 103.421C214.344 110.346 211.077 115.942 207.028 115.942C202.98 115.942 199.713 110.33 199.713 103.421C199.713 96.5121 201.714 97.2311 205.762 97.2311C209.811 97.2311 214.094 97.5281 214.36 103.421H214.344Z" fill="white"/>
<path d="M165.685 121.25L157.228 123.704C156.072 124.048 155.618 125.424 156.353 126.377L161.636 133.318" fill="#FF8B00"/>
<path d="M161.558 133.004L153.742 137.037C152.679 137.584 152.491 139.038 153.398 139.835L159.916 145.619" fill="#FF8B00"/>
<path d="M160.165 145.732L152.787 150.515C151.787 151.172 151.74 152.625 152.709 153.329L159.759 158.456" fill="#FF8B00"/>
<path d="M198.557 102.073L192.367 95.8362C191.523 94.9921 190.085 95.2422 189.585 96.3364L186.021 104.293" fill="#FF8B00"/>
<path d="M185.38 104.465L177.564 100.417C176.501 99.8696 175.203 100.557 175.078 101.745L174.109 110.405" fill="#FF8B00"/>
<path d="M173.92 110.889L165.135 110.264C163.932 110.17 163.025 111.327 163.369 112.468L165.901 120.815" fill="#FF8B00"/>
<path d="M207.201 200.009L211.015 200.775C211.015 200.775 212.375 204.104 212.812 205.511C213.25 206.918 215.814 208.856 215.282 209.513C209.108 217.938 184.503 217.485 172.42 216.062C160.274 214.968 157.117 212.123 156.116 211.654C155.116 211.185 153.381 210.951 155.257 208.762C157.132 206.574 156.804 201.197 156.804 201.197L170.169 202.838L170.779 203.338L173.718 201.228L180.064 200.321C180.064 200.321 184.519 203.854 184.582 203.854C184.644 203.854 188.192 200.243 188.192 200.243C188.192 200.243 197.994 203.244 198.197 203.182C198.4 203.119 203.668 198.68 203.762 198.696C203.824 198.711 207.185 199.993 207.185 199.993L207.201 200.009Z" fill="#FF8B00"/>
<path d="M255.736 111.426C256.002 110.3 255.049 109.128 253.642 108.815C252.235 108.503 250.875 109.144 250.625 110.269" fill="#C164A3"/>
<path d="M255.736 111.426C256.002 110.3 255.049 109.128 253.642 108.815C252.235 108.503 250.875 109.144 250.625 110.269" stroke="#1D1D1B" stroke-width="1.69341" stroke-miterlimit="10" stroke-linecap="round"/>
<path d="M230.724 120.539C229.036 120.539 191.239 128.417 191.239 128.417L193.177 150.333L206.01 145.362L214.53 146.363L222.908 145.487L231.678 141.611C231.678 141.611 235.742 136.233 241.635 129.48C249.451 120.539 230.74 120.539 230.74 120.539H230.724Z" fill="#C164A3"/>
<path d="M215.391 126.543C215.391 126.543 204.449 123.354 201.589 129.997C201.01 133.577 199.853 140.971 218.658 139.158C226.802 137.36 231.898 135.781 227.865 133.061" fill="white"/>
<path d="M230.116 134.621L227.333 136.106C221.831 139.045 215.531 140.264 209.388 139.232C201.916 137.997 200.572 134.668 201.072 131.698C201.666 128.196 204.855 125.758 208.403 125.711C223.457 125.445 229.819 137.622 238.197 138.06C251.547 138.763 269.132 133.777 267.835 120.584C267.21 114.284 257.299 111.892 252.36 110.658C242.996 108.313 229.24 105.64 214.359 103.545C173.529 97.7614 160.477 118.223 160.18 148.377C160.117 153.864 159.711 161.367 159.179 169.089C158.96 172.403 158.71 175.732 158.46 178.984C157.553 190.801 156.662 201.243 156.756 203.447C156.819 209.247 151.785 210.122 157.788 212.858C162.274 214.811 197.18 222.565 214.156 211.169C217.141 209.247 213.452 206.98 212.827 205.542C211.186 201.728 206.09 155.208 206.027 145.391" stroke="#1D1D1B" stroke-width="1.69341" stroke-miterlimit="10" stroke-linecap="round"/>
<path d="M219.612 104.844C220.941 104.844 222.019 103.402 222.019 101.624C222.019 99.8456 220.941 98.4039 219.612 98.4039C218.282 98.4039 217.205 99.8456 217.205 101.624C217.205 103.402 218.282 104.844 219.612 104.844Z" fill="#1D1D1B"/>
<path d="M234.913 137.56C229.395 146.829 215.092 147.517 206.025 145.376C199.601 143.859 193.192 140.405 193.192 140.405" stroke="#1D1D1B" stroke-width="1.69341" stroke-miterlimit="10" stroke-linecap="round"/>
<path d="M251.062 114.019C251.062 115.27 249.483 114.019 247.905 114.019C246.326 114.019 245.357 115.27 245.357 114.019C245.357 112.769 246.638 111.753 248.217 111.753C249.796 111.753 251.078 112.769 251.078 114.019H251.062Z" fill="#C164A3" stroke="#1D1D1B" stroke-width="1.69341" stroke-miterlimit="10" stroke-linecap="round"/>
<path d="M201.338 132.217C201.338 132.217 221.284 133.609 230.116 134.625L201.338 132.217Z" fill="#88C400"/>
<path d="M201.338 132.217C201.338 132.217 221.284 133.609 230.116 134.625" stroke="#1D1D1B" stroke-width="1.69341" stroke-miterlimit="10" stroke-linecap="round"/>
<path d="M212.828 125.992C212.828 125.992 211.327 136.121 211.687 139.513L212.828 125.992Z" fill="#88C400"/>
<path d="M212.828 125.992C212.828 125.992 211.327 136.121 211.687 139.513" stroke="#1D1D1B" stroke-width="1.69341" stroke-miterlimit="10" stroke-linecap="round"/>
<path d="M206.622 126.371C206.622 126.371 205.387 134.828 205.747 138.236L206.622 126.371Z" fill="#88C400"/>
<path d="M206.622 126.371C206.622 126.371 205.387 134.828 205.747 138.236" stroke="#1D1D1B" stroke-width="1.69341" stroke-miterlimit="10" stroke-linecap="round"/>
<path d="M218.08 127.417C218.08 127.417 217.032 135.874 217.392 139.266L218.08 127.417Z" fill="#88C400"/>
<path d="M218.08 127.417C218.08 127.417 217.032 135.874 217.392 139.266" stroke="#1D1D1B" stroke-width="1.69341" stroke-miterlimit="10" stroke-linecap="round"/>
<path d="M223.097 129.885C223.097 129.885 222.222 134.762 222.597 138.154L223.097 129.885Z" fill="#88C400"/>
<path d="M223.097 129.885C223.097 129.885 222.222 134.762 222.597 138.154" stroke="#1D1D1B" stroke-width="1.69341" stroke-miterlimit="10" stroke-linecap="round"/>
<path d="M165.685 121.25L157.228 123.704C156.072 124.048 155.618 125.424 156.353 126.377L161.636 133.318" stroke="#1D1D1B" stroke-width="1.69341" stroke-miterlimit="10" stroke-linecap="round"/>
<path d="M161.558 133.004L153.742 137.037C152.679 137.584 152.491 139.038 153.398 139.835L159.916 145.619" stroke="#1D1D1B" stroke-width="1.69341" stroke-miterlimit="10" stroke-linecap="round"/>
<path d="M160.165 145.732L152.787 150.515C151.787 151.172 151.74 152.625 152.709 153.329L159.759 158.456" stroke="#1D1D1B" stroke-width="1.69341" stroke-miterlimit="10" stroke-linecap="round"/>
<path d="M198.557 102.073L192.367 95.8362C191.523 94.9921 190.085 95.2422 189.585 96.3364L186.021 104.293" stroke="#1D1D1B" stroke-width="1.69341" stroke-miterlimit="10" stroke-linecap="round"/>
<path d="M185.38 104.465L177.564 100.417C176.501 99.8696 175.203 100.557 175.078 101.745L174.109 110.405" stroke="#1D1D1B" stroke-width="1.69341" stroke-miterlimit="10" stroke-linecap="round"/>
<path d="M173.92 110.889L165.135 110.264C163.932 110.17 163.025 111.327 163.369 112.468L165.901 120.815" stroke="#1D1D1B" stroke-width="1.69341" stroke-miterlimit="10" stroke-linecap="round"/>
<path d="M170.763 203.341C168.747 199.59 167.778 197.698 165.918 193.9C165.292 192.602 163.792 192.43 162.979 193.571C160.665 196.885 159.477 198.527 156.992 201.747" fill="#FF8B00"/>
<path d="M184.585 203.86C182.35 200.296 181.271 198.482 179.192 194.84C178.489 193.605 176.988 193.558 176.254 194.778C174.143 198.279 173.049 200.03 170.767 203.453" fill="#FF8B00"/>
<path d="M198.4 203.198C195.946 199.822 194.773 198.118 192.491 194.664C191.71 193.491 190.193 193.585 189.552 194.851C187.661 198.525 186.661 200.353 184.597 203.98" fill="#FF8B00"/>
<path d="M211.95 201.247C209.308 198.089 208.042 196.479 205.541 193.228C204.697 192.118 203.196 192.337 202.618 193.65C200.93 197.48 200.039 199.387 198.194 203.17" fill="#FF8B00"/>
<path d="M170.623 203.357C168.622 199.605 167.653 197.714 165.808 193.9C165.183 192.602 163.698 192.43 162.901 193.571C160.603 196.885 159.43 198.527 156.976 201.747" stroke="#1D1D1B" stroke-width="1.72983" stroke-miterlimit="10" stroke-linecap="round"/>
<path d="M184.3 203.873C182.08 200.294 181.017 198.496 178.954 194.854C178.25 193.619 176.749 193.572 176.046 194.791C173.951 198.293 172.873 200.044 170.622 203.467" stroke="#1D1D1B" stroke-width="1.72983" stroke-miterlimit="10" stroke-linecap="round"/>
<path d="M197.993 203.198C195.57 199.821 194.398 198.102 192.132 194.663C191.366 193.475 189.865 193.584 189.224 194.85C187.333 198.54 186.363 200.368 184.316 203.979" stroke="#1D1D1B" stroke-width="1.72983" stroke-miterlimit="10" stroke-linecap="round"/>
<path d="M211.42 201.263C208.809 198.105 207.543 196.495 205.073 193.228C204.245 192.118 202.744 192.337 202.166 193.65C200.493 197.48 199.633 199.387 197.789 203.185" stroke="#1D1D1B" stroke-width="1.72983" stroke-miterlimit="10" stroke-linecap="round"/>
<path d="M198.822 86.4923C201.557 87.1332 204.746 88.1962 205.371 88.5244C208.795 90.3221 214.844 94.8396 212.75 94.2613C208.873 93.1827 208.748 91.4944 202.792 90.3846C199.728 89.8062 198.025 89.478 196.93 88.7745C194.789 87.3833 195.914 85.8358 198.822 86.5079V86.4923Z" fill="#1D1D1B" stroke="#1D1D1B" stroke-width="1.63879" stroke-miterlimit="10" stroke-linecap="round"/>
<path d="M219.816 86.4923C215.329 88.6651 212.422 94.824 213.391 94.2613C214.001 93.8079 215.595 91.0411 218.346 89.9313C219.769 89.3529 220.191 89.478 220.691 88.7745C221.676 87.3833 221.16 85.8358 219.816 86.5079V86.4923Z" fill="#1D1D1B" stroke="#1D1D1B" stroke-width="1.63879" stroke-miterlimit="10" stroke-linecap="round"/>
<path d="M214.344 103.423C214.344 110.348 211.077 115.944 207.028 115.944C202.98 115.944 199.713 110.332 199.713 103.423C199.713 96.5139 200.135 93.372 204.011 94.5443C210.123 96.3732 214.36 100.359 214.36 103.423H214.344Z" fill="white" stroke="#1D1D1B" stroke-width="1.69341" stroke-miterlimit="10" stroke-linecap="round"/>
<path d="M207.872 109.612C209.564 109.612 210.936 107.499 210.936 104.892C210.936 102.284 209.564 100.171 207.872 100.171C206.18 100.171 204.808 102.284 204.808 104.892C204.808 107.499 206.18 109.612 207.872 109.612Z" fill="#1D1D1B"/>
<path d="M235.837 131.434L239.542 131.122C239.683 131.122 239.808 131.122 239.933 131.153L246.123 132.638C246.905 132.826 247.639 132.232 247.639 131.434L247.608 124.963C247.608 124.838 247.608 124.728 247.655 124.619L248.655 121.243C248.874 120.477 248.311 119.695 247.514 119.664L238.338 119.367C238.167 119.367 237.995 119.32 237.854 119.257L237.385 119.038C236.619 118.679 235.728 119.179 235.634 120.023L234.54 130.106C234.477 130.887 235.103 131.544 235.869 131.466L235.837 131.434Z" fill="#A00083" stroke="#1D1D1B" stroke-width="0.673723" stroke-miterlimit="10"/>
<path d="M244.903 130.671L244.559 133.829" stroke="#1D1D1B" stroke-width="0.673723" stroke-miterlimit="10" stroke-linecap="round"/>
<path d="M243.105 130.616L242.777 133.774" stroke="#1D1D1B" stroke-width="0.673723" stroke-miterlimit="10" stroke-linecap="round"/>
<path d="M241.136 130.199L240.792 133.356" stroke="#1D1D1B" stroke-width="0.673723" stroke-miterlimit="10" stroke-linecap="round"/>
<path d="M242.434 118.21L242.09 121.352" stroke="#1D1D1B" stroke-width="0.673723" stroke-miterlimit="10"/>
<path d="M240.653 118.144L240.309 121.302" stroke="#1D1D1B" stroke-width="0.673723" stroke-miterlimit="10" stroke-linecap="round"/>
<path d="M238.684 117.709L238.34 120.882" stroke="#1D1D1B" stroke-width="0.673723" stroke-miterlimit="10" stroke-linecap="round"/>
<path d="M246.199 118.6L245.855 121.757" stroke="#1D1D1B" stroke-width="0.673723" stroke-miterlimit="10" stroke-linecap="round"/>
<path d="M244.416 118.551L244.073 121.709" stroke="#1D1D1B" stroke-width="0.673723" stroke-miterlimit="10" stroke-linecap="round"/>
<path d="M242.448 118.116L242.104 121.29" stroke="#1D1D1B" stroke-width="0.673723" stroke-miterlimit="10" stroke-linecap="round"/>
<path d="M194.43 152.334L197.071 157.133C197.165 157.305 197.29 157.461 197.415 157.586L204.277 163.98C205.137 164.777 205.028 166.184 204.043 166.825L196.071 172.046C195.93 172.14 195.789 172.265 195.68 172.39L192.335 176.36C191.569 177.267 190.162 177.204 189.474 176.251L181.627 165.23C181.486 165.027 181.299 164.855 181.08 164.73L180.408 164.324C179.329 163.683 179.22 162.182 180.189 161.385L191.678 151.818C192.554 151.084 193.882 151.349 194.43 152.334Z" fill="#C164A3" stroke="#1D1D1B" stroke-width="0.983271" stroke-miterlimit="10"/>
<path d="M200.888 164.075L204.483 161.089" stroke="#1D1D1B" stroke-width="0.983271" stroke-miterlimit="10" stroke-linecap="round"/>
<path d="M199.369 161.914L202.965 158.929" stroke="#1D1D1B" stroke-width="0.983271" stroke-miterlimit="10" stroke-linecap="round"/>
<path d="M197.228 159.853L200.823 156.851" stroke="#1D1D1B" stroke-width="0.983271" stroke-miterlimit="10" stroke-linecap="round"/>
<path d="M183.553 171.232L187.164 168.247" stroke="#1D1D1B" stroke-width="0.983271" stroke-miterlimit="10"/>
<path d="M182.036 169.074L185.632 166.073" stroke="#1D1D1B" stroke-width="0.983271" stroke-miterlimit="10" stroke-linecap="round"/>
<path d="M179.895 167.01L183.506 164.009" stroke="#1D1D1B" stroke-width="0.983271" stroke-miterlimit="10" stroke-linecap="round"/>
<path d="M187.128 175.531L190.724 172.529" stroke="#1D1D1B" stroke-width="0.983271" stroke-miterlimit="10" stroke-linecap="round"/>
<path d="M185.612 173.374L189.207 170.373" stroke="#1D1D1B" stroke-width="0.983271" stroke-miterlimit="10" stroke-linecap="round"/>
<path d="M183.47 171.31L187.081 168.309" stroke="#1D1D1B" stroke-width="0.983271" stroke-miterlimit="10" stroke-linecap="round"/>
</svg>
