<svg width="415" height="254" viewBox="0 0 415 254" fill="none" xmlns="http://www.w3.org/2000/svg">
<g clip-path="url(#clip0_87_35342)">
<path d="M264.361 189.038L266.956 217.662L317.637 208.26L306.857 181.498" stroke="#949597" stroke-width="1.85729" stroke-miterlimit="10" stroke-linecap="round"/>
<path d="M333.22 78.6763C333.265 77.5952 332.204 76.6844 330.849 76.6293C329.495 76.5742 328.362 77.3958 328.316 78.4769" stroke="#949597" stroke-width="1.85729" stroke-miterlimit="10" stroke-linecap="round"/>
<path d="M270.205 83.276C250.862 91.0115 247.942 107.733 251.676 128.935C254.323 144.017 257.053 176.297 257.921 180.149C258.955 185.479 254.508 187.143 260.469 188.623C264.936 189.661 298.339 190.82 312.005 177.455C314.421 175.172 310.638 173.723 309.817 172.506C307.648 169.271 295.032 127.378 293.295 118.368" stroke="#949597" stroke-width="1.85729" stroke-miterlimit="10" stroke-linecap="round"/>
<path d="M292.567 106.721C308.954 100.709 313.109 107.268 321.637 106.146C334.018 104.506 349.35 96.9269 345.906 85.0176C344.266 79.3341 334.731 78.828 329.99 78.5343C320.979 77.9773 307.875 77.8738 293.84 78.4759C290.639 78.616 288.092 78.8144 285.297 79.2226" stroke="#949597" stroke-width="1.85729" stroke-miterlimit="10" stroke-linecap="round"/>
<path d="M293.593 110.007C291.145 110.466 288.85 109.129 288.465 107.041C288.079 104.953 289.748 102.884 292.191 102.445" stroke="#949597" stroke-width="1.85729" stroke-miterlimit="10" stroke-linecap="round"/>
<path d="M280.669 115.98C280.669 115.98 287.148 118.067 293.311 118.359C302.009 118.779 315.044 115.691 318.531 106.243" stroke="#949597" stroke-width="1.85729" stroke-miterlimit="10" stroke-linecap="round"/>
<path d="M329.362 81.8545C329.573 83.0047 327.909 82.1236 326.457 82.3926C325.005 82.6617 324.324 83.9759 324.112 82.8257C323.9 81.6756 324.909 80.5236 326.349 80.2618C327.788 80 329.15 80.7043 329.362 81.8545V81.8545Z" stroke="#949597" stroke-width="1.85729" stroke-miterlimit="10" stroke-linecap="round"/>
<path d="M263.813 100.209C263.617 99.1535 262.73 98.4333 261.833 98.6C260.935 98.7667 260.366 99.7572 260.562 100.812C260.758 101.867 261.645 102.588 262.542 102.421C263.44 102.254 264.009 101.264 263.813 100.209Z" stroke="#949597" stroke-width="1.85729" stroke-miterlimit="10" stroke-linecap="round"/>
<path d="M275.4 179.652C275.4 179.652 283.193 179.288 292.655 168.299" stroke="#949597" stroke-width="1.85729" stroke-miterlimit="10" stroke-linecap="round"/>
<path d="M279.63 182.196L277.557 176.981" stroke="#949597" stroke-width="1.85729" stroke-miterlimit="10" stroke-linecap="round"/>
<path d="M283.058 180.189L280.984 174.973" stroke="#949597" stroke-width="1.85729" stroke-miterlimit="10" stroke-linecap="round"/>
<path d="M286.603 177.571L284.529 172.356" stroke="#949597" stroke-width="1.85729" stroke-miterlimit="10" stroke-linecap="round"/>
<path d="M290.447 174.715L286.747 170.539" stroke="#949597" stroke-width="1.85729" stroke-miterlimit="10" stroke-linecap="round"/>
<path d="M293.76 139.504L291.713 143.616C291.644 143.757 291.589 143.922 291.578 144.079L290.46 151.857C290.324 152.84 289.3 153.415 288.388 153.054L280.972 150.069C280.838 150.012 280.687 149.982 280.543 149.964L276.212 149.568C275.219 149.472 274.582 148.484 274.921 147.534L278.749 136.852C278.822 136.659 278.848 136.443 278.829 136.236L278.79 135.589C278.721 134.541 279.699 133.741 280.717 134.024L292.806 137.359C293.724 137.616 294.182 138.641 293.76 139.504Z" stroke="#949597" stroke-width="1.85729" stroke-miterlimit="10" stroke-linecap="round"/>
<path d="M288.771 149.57L292.556 150.616" stroke="#949597" stroke-width="1.85729" stroke-miterlimit="10" stroke-linecap="round"/>
<path d="M289.529 147.492L293.315 148.538" stroke="#949597" stroke-width="1.85729" stroke-miterlimit="10" stroke-linecap="round"/>
<path d="M289.934 145.031L293.719 146.077" stroke="#949597" stroke-width="1.85729" stroke-miterlimit="10" stroke-linecap="round"/>
<path d="M275.54 141.062L279.325 142.108" stroke="#949597" stroke-width="1.85729" stroke-miterlimit="10" stroke-linecap="round"/>
<path d="M276.292 138.969L280.077 140.015" stroke="#949597" stroke-width="1.85729" stroke-miterlimit="10" stroke-linecap="round"/>
<path d="M276.705 136.519L280.49 137.566" stroke="#949597" stroke-width="1.85729" stroke-miterlimit="10" stroke-linecap="round"/>
<path d="M274.297 145.586L278.082 146.632" stroke="#949597" stroke-width="1.85729" stroke-miterlimit="10" stroke-linecap="round"/>
<path d="M275.049 143.496L278.834 144.542" stroke="#949597" stroke-width="1.85729" stroke-miterlimit="10" stroke-linecap="round"/>
<path d="M275.453 141.035L279.238 142.081" stroke="#949597" stroke-width="1.85729" stroke-miterlimit="10" stroke-linecap="round"/>
<path d="M292.615 172.579L290.753 167.325" stroke="#949597" stroke-width="1.85729" stroke-miterlimit="10" stroke-linecap="round"/>
<path d="M350.343 29.3792L206.063 56.1719L237.082 223.205L381.361 196.412L350.343 29.3792Z" stroke="#949597" stroke-width="1.74804" stroke-miterlimit="10"/>
<path d="M291.246 76.5384C291.57 78.26 291.032 78.9225 290.241 79.0609C289.45 79.1993 288.716 78.7691 288.399 77.0601C288.082 75.351 288.459 73.8277 289.249 73.6893C290.04 73.5509 290.934 74.8095 291.258 76.5312L291.246 76.5384Z" fill="#949597"/>
<path d="M285.186 80.1194C283.866 73.0093 279.425 67.8713 275.268 68.6433C271.11 69.4154 268.81 75.8051 270.131 82.9151C271.451 90.0252 275.892 95.1632 280.049 94.3912C284.206 93.6192 286.506 87.2295 285.186 80.1194Z" stroke="#949597" stroke-width="1.85729" stroke-miterlimit="10" stroke-linecap="round"/>
<path d="M280.112 77.6091L276.847 85.237" stroke="#949597" stroke-width="1.85729" stroke-miterlimit="10" stroke-linecap="round"/>
<path d="M274.736 80.5117L282.494 82.5797" stroke="#949597" stroke-width="1.85729" stroke-miterlimit="10" stroke-linecap="round"/>
<path d="M284.898 79.0818C284.719 78.4818 284.578 77.8602 284.462 77.224C283.438 71.7374 284.97 66.851 287.874 66.3129C290.778 65.7748 293.961 69.7805 294.973 75.2743C295.165 76.3022 295.265 77.3162 295.283 78.2765" stroke="#949597" stroke-width="1.85729" stroke-miterlimit="10" stroke-linecap="round"/>
<path d="M67.8848 117.679L67.9683 117.862C73.9251 132.997 88.9257 143.51 104.043 142.375C105.845 142.242 106.996 140.389 106.346 138.704C105.862 137.453 104.51 136.752 103.209 137.102C80.3992 143.276 62.3785 105.03 88.9423 94.5677L144.005 70.8892C146.875 69.6544 150.213 71.0394 151.364 73.9596L158.172 91.2137C158.539 92.1314 159.74 92.3484 160.408 91.5975L223.33 20.145C224.665 18.6265 223.447 16.2736 221.444 16.4906L134.161 25.7183C133.293 25.8184 132.743 26.7028 133.06 27.5205L137.465 38.7006C138.499 41.3204 137.415 44.2906 134.945 45.6256L81.1 74.6771C66.6334 82.4865 61.4608 101.376 67.9015 117.695L67.8848 117.679Z" fill="#3C3C3B" stroke="#949597" stroke-width="0.96" stroke-miterlimit="10"/>
<path d="M86.4394 132.547C113.604 132.547 135.613 154.557 135.613 181.723C135.613 208.889 113.604 230.915 86.4394 230.915C84.5539 230.915 82.6851 230.798 80.8664 230.598C79.0309 230.798 77.1621 230.915 75.2766 230.915C48.1121 230.915 26.1036 208.905 26.1036 181.739C26.1036 154.573 48.1121 132.547 75.2766 132.547C77.1621 132.547 79.0309 132.664 80.8497 132.864C82.6851 132.664 84.5539 132.547 86.4394 132.547ZM86.4394 129.477C84.5873 129.477 82.7185 129.577 80.8497 129.777C78.9809 129.577 77.1121 129.477 75.2599 129.477C61.3106 129.477 48.1789 134.916 38.3176 144.795C28.4229 154.673 23 167.789 23 181.756C23 195.706 28.4396 208.839 38.3009 218.7C48.1622 228.562 61.2939 234.002 75.2599 234.002C77.1121 234.002 78.9809 233.902 80.8497 233.702C82.7185 233.902 84.5873 234.002 86.4394 234.002C100.405 234.002 113.521 228.562 123.382 218.684C133.243 208.805 138.683 195.689 138.683 181.723C138.683 167.773 133.243 154.64 123.382 144.778C113.521 134.916 100.389 129.477 86.4394 129.477Z" fill="#1D1D1B"/>
<path d="M75.259 230.914C102.417 230.914 124.432 208.897 124.432 181.738C124.432 154.579 102.417 132.562 75.259 132.562C48.1015 132.562 26.0859 154.579 26.0859 181.738C26.0859 208.897 48.1015 230.914 75.259 230.914Z" fill="#686766"/>
<path d="M86.4387 230.914C113.596 230.914 135.612 208.897 135.612 181.738C135.612 154.579 113.596 132.562 86.4387 132.562C59.2812 132.562 37.2656 154.579 37.2656 181.738C37.2656 208.897 59.2812 230.914 86.4387 230.914Z" fill="#E3E3E3"/>
<path d="M57.5393 152.736C64.9478 145.36 75.1595 140.805 86.4224 140.805C108.581 140.805 126.635 158.409 127.353 180.402L87.0732 182.254L57.5393 152.736Z" fill="#1D1D1B"/>
<path d="M45.5755 184.157C45.5255 183.356 45.5088 182.555 45.5088 181.737C45.5088 170.407 50.1141 160.144 57.5559 152.719L87.0898 182.238L45.5922 184.157H45.5755Z" fill="#1D1D1B"/>
<path d="M127.353 180.383C127.353 180.833 127.37 181.267 127.37 181.718C127.37 192.998 122.814 203.21 115.439 210.619L87.0566 182.252L127.336 180.399L127.353 180.383Z" fill="#1D1D1B"/>
<path d="M87.0728 182.254L115.455 210.621C108.047 218.064 97.7851 222.669 86.4554 222.686C64.6638 222.686 46.8433 205.649 45.5752 184.173L87.0728 182.254Z" fill="#FAEEBD"/>
<path d="M86.4395 218.502C106.741 218.502 123.198 202.044 123.198 181.741C123.198 161.439 106.741 144.98 86.4395 144.98C66.1382 144.98 49.6807 161.439 49.6807 181.741C49.6807 202.044 66.1382 218.502 86.4395 218.502Z" fill="#ACACAC"/>
<path d="M190.592 92.7977C215.721 92.7977 236.078 113.155 236.094 138.286C236.094 163.416 215.738 183.79 190.609 183.79C188.857 183.79 187.138 183.69 185.453 183.49C183.751 183.69 182.032 183.79 180.28 183.79C155.151 183.79 134.795 163.433 134.778 138.302C134.778 113.172 155.135 92.7977 180.264 92.7977C182.016 92.7977 183.734 92.8978 185.419 93.098C187.121 92.8978 188.84 92.7977 190.592 92.7977ZM190.592 89.9609C188.89 89.9609 187.138 90.0611 185.419 90.2446C183.701 90.0611 181.966 89.9609 180.247 89.9609C167.332 89.9609 155.202 95.0003 146.074 104.128C136.947 113.256 131.925 125.404 131.925 138.319C131.925 151.235 136.964 163.366 146.091 172.493C155.218 181.621 167.365 186.644 180.28 186.644C181.982 186.644 183.734 186.544 185.453 186.36C187.172 186.544 188.907 186.644 190.625 186.644C203.54 186.644 215.671 181.604 224.798 172.477C233.925 163.349 238.948 151.201 238.948 138.286C238.948 125.37 233.908 113.239 224.781 104.111C215.654 94.9836 203.524 89.9609 190.609 89.9609H190.592Z" fill="#1D1D1B"/>
<path d="M180.247 183.791C205.377 183.791 225.75 163.417 225.75 138.286C225.75 113.154 205.377 92.7812 180.247 92.7812C155.117 92.7812 134.745 113.154 134.745 138.286C134.745 163.417 155.117 183.791 180.247 183.791Z" fill="#686766"/>
<path d="M190.592 183.791C215.722 183.791 236.094 163.417 236.094 138.286C236.094 113.154 215.722 92.7812 190.592 92.7812C165.462 92.7812 145.09 113.154 145.09 138.286C145.09 163.417 165.462 183.791 190.592 183.791Z" fill="#E3E3E3"/>
<path d="M163.861 111.453C170.703 104.628 180.147 100.406 190.592 100.406C211.099 100.406 227.801 116.692 228.452 137.034L191.193 138.752L163.878 111.453H163.861Z" fill="#1D1D1B"/>
<path d="M152.782 140.537C152.732 139.803 152.715 139.052 152.715 138.301C152.715 127.822 156.97 118.327 163.861 111.469L191.176 138.768L152.782 140.537Z" fill="#1D1D1B"/>
<path d="M228.452 137.051C228.452 137.468 228.469 137.868 228.469 138.286C228.469 148.715 224.247 158.159 217.439 165.018L191.176 138.77L228.435 137.051H228.452Z" fill="#1D1D1B"/>
<path d="M191.175 138.77L217.439 165.018C210.581 171.909 201.087 176.164 190.608 176.164C170.435 176.164 153.949 160.412 152.798 140.538L191.192 138.77H191.175Z" fill="#FAEEBD"/>
<path d="M190.592 172.292C209.372 172.292 224.597 157.067 224.597 138.285C224.597 119.503 209.372 104.277 190.592 104.277C171.811 104.277 156.586 119.503 156.586 138.285C156.586 157.067 171.811 172.292 190.592 172.292Z" fill="#ACACAC"/>
<path d="M266.479 125.569L266.396 125.386C260.439 110.251 245.438 99.7381 230.321 100.873C228.519 101.006 227.367 102.875 228.018 104.544C228.502 105.795 229.854 106.496 231.155 106.146C253.965 99.9717 271.985 138.218 245.422 148.68L190.358 172.359C187.488 173.593 184.151 172.208 183 169.288L176.192 152.034C175.825 151.116 174.624 150.9 173.973 151.65L111.034 223.103C109.699 224.621 110.917 226.974 112.919 226.757L200.203 217.53C201.071 217.429 201.621 216.545 201.304 215.727L196.899 204.547C195.865 201.928 196.949 198.957 199.419 197.639L253.264 168.587C267.73 160.778 272.903 141.889 266.462 125.569H266.479Z" fill="#3C3C3B" stroke="#949597" stroke-width="0.96" stroke-miterlimit="10"/>
<path d="M109.75 15.0704C136.914 15.0704 158.923 37.0801 158.923 64.2461C158.923 91.4121 136.914 113.439 109.75 113.439C107.864 113.439 105.996 113.322 104.177 113.121C102.341 113.322 100.473 113.439 98.5872 113.439C71.4227 113.439 49.4141 91.4287 49.4141 64.2628C49.4141 37.0968 71.4227 15.0704 98.5872 15.0704C100.473 15.0704 102.341 15.1872 104.16 15.3874C105.996 15.1872 107.864 15.0704 109.75 15.0704ZM109.75 12C107.898 12 106.029 12.1001 104.16 12.3004C102.275 12.1001 100.406 12 98.5538 12C84.6045 12 71.4727 17.4399 61.6114 27.3184C51.7501 37.1969 46.3105 50.3127 46.3105 64.2795C46.3105 78.2296 51.7501 91.362 61.6114 101.224C71.4727 111.086 84.6045 116.526 98.5705 116.526C100.423 116.526 102.291 116.425 104.16 116.225C106.029 116.425 107.898 116.526 109.75 116.526C123.716 116.526 136.831 111.086 146.692 101.207C156.554 91.3286 161.993 78.2129 161.993 64.2461C161.993 50.296 156.554 37.1636 146.692 27.3017C136.814 17.4399 123.699 12 109.75 12Z" fill="#1D1D1B"/>
<path d="M98.5539 113.437C125.711 113.437 147.727 91.4207 147.727 64.2617C147.727 37.1027 125.711 15.0859 98.5539 15.0859C71.3964 15.0859 49.3809 37.1027 49.3809 64.2617C49.3809 91.4207 71.3964 113.437 98.5539 113.437Z" fill="#686766"/>
<path d="M109.75 113.437C136.908 113.437 158.923 91.4207 158.923 64.2617C158.923 37.1027 136.908 15.0859 109.75 15.0859C82.5927 15.0859 60.5771 37.1027 60.5771 64.2617C60.5771 91.4207 82.5927 113.437 109.75 113.437Z" fill="#E3E3E3"/>
<path d="M80.8496 35.2435C88.2581 27.868 98.4698 23.3125 109.733 23.3125C131.891 23.3125 149.946 40.917 150.663 62.9101L110.383 64.7623L80.8496 35.2435Z" fill="#1D1D1B"/>
<path d="M68.8695 66.68C68.8194 65.879 68.8027 65.078 68.8027 64.2604C68.8027 52.9301 73.408 42.6678 80.8499 35.2422L110.384 64.761L68.8862 66.68H68.8695Z" fill="#1D1D1B"/>
<path d="M150.663 62.91C150.663 63.3606 150.68 63.7944 150.68 64.245C150.68 75.5252 146.125 85.7375 138.75 93.1464L110.367 64.7789L150.647 62.9267L150.663 62.91Z" fill="#1D1D1B"/>
<path d="M110.367 64.7617L138.749 93.1291C131.341 100.571 121.079 105.177 109.749 105.194C87.9577 105.194 70.1373 88.1565 68.8691 66.6807L110.367 64.7617Z" fill="#FAEEBD"/>
<path d="M109.75 101.026C130.051 101.026 146.509 84.5672 146.509 64.2647C146.509 43.9623 130.051 27.5039 109.75 27.5039C89.4487 27.5039 72.9912 43.9623 72.9912 64.2647C72.9912 84.5672 89.4487 101.026 109.75 101.026Z" fill="#ACACAC"/>
</g>
<defs>
<clipPath id="clip0_87_35342">
<rect width="368" height="230" fill="white" transform="translate(23 12)"/>
</clipPath>
</defs>
</svg>
