<svg width="415" height="254" viewBox="0 0 415 254" fill="none" xmlns="http://www.w3.org/2000/svg">
<g clip-path="url(#clip0_87_35419)">
<g clip-path="url(#clip1_87_35419)">
<path d="M151.64 188.038L149.045 216.662L98.3643 207.26L109.144 180.498" stroke="#A1A93C" stroke-width="1.85729" stroke-miterlimit="10" stroke-linecap="round"/>
<path d="M82.781 77.6763C82.7355 76.5952 83.7971 75.6844 85.1517 75.6293C86.5063 75.5742 87.6393 76.3958 87.6849 77.4769" stroke="#A1A93C" stroke-width="1.85729" stroke-miterlimit="10" stroke-linecap="round"/>
<path d="M145.795 82.276C165.138 90.0115 168.058 106.733 164.324 127.935C161.677 143.017 158.947 175.297 158.079 179.149C157.045 184.479 161.492 186.143 155.531 187.623C151.064 188.661 117.661 189.82 103.995 176.455C101.579 174.172 105.362 172.723 106.183 171.506C108.352 168.271 120.968 126.378 122.705 117.368" stroke="#A1A93C" stroke-width="1.85729" stroke-miterlimit="10" stroke-linecap="round"/>
<path d="M123.433 105.721C107.046 99.7093 102.891 106.268 94.3635 105.146C81.9821 103.506 66.6505 95.9269 70.0938 84.0176C71.7343 78.3341 81.2691 77.828 86.0097 77.5343C95.0213 76.9773 108.125 76.8738 122.16 77.4759C125.361 77.616 127.908 77.8144 130.703 78.2226" stroke="#A1A93C" stroke-width="1.85729" stroke-miterlimit="10" stroke-linecap="round"/>
<path d="M122.406 109.007C124.854 109.466 127.149 108.129 127.534 106.041C127.92 103.953 126.251 101.884 123.808 101.445" stroke="#A1A93C" stroke-width="1.85729" stroke-miterlimit="10" stroke-linecap="round"/>
<path d="M135.33 114.98C135.33 114.98 128.851 117.067 122.688 117.359C113.99 117.779 100.955 114.691 97.4681 105.243" stroke="#A1A93C" stroke-width="1.85729" stroke-miterlimit="10" stroke-linecap="round"/>
<path d="M86.6385 80.8545C86.4265 82.0047 88.0905 81.1236 89.5426 81.3926C90.9947 81.6617 91.6759 82.9759 91.8878 81.8257C92.0998 80.6756 91.0905 79.5236 89.651 79.2618C88.2115 79 86.8504 79.7043 86.6385 80.8545V80.8545Z" stroke="#A1A93C" stroke-width="1.85729" stroke-miterlimit="10" stroke-linecap="round"/>
<path d="M152.188 99.2086C152.384 98.1535 153.271 97.4333 154.168 97.6C155.066 97.7667 155.635 98.7572 155.439 99.8122C155.243 100.867 154.356 101.588 153.459 101.421C152.561 101.254 151.992 100.264 152.188 99.2086Z" stroke="#A1A93C" stroke-width="1.85729" stroke-miterlimit="10" stroke-linecap="round"/>
<path d="M140.599 178.652C140.599 178.652 132.806 178.288 123.344 167.299" stroke="#A1A93C" stroke-width="1.85729" stroke-miterlimit="10" stroke-linecap="round"/>
<path d="M136.37 181.196L138.443 175.981" stroke="#A1A93C" stroke-width="1.85729" stroke-miterlimit="10" stroke-linecap="round"/>
<path d="M132.942 179.189L135.016 173.973" stroke="#A1A93C" stroke-width="1.85729" stroke-miterlimit="10" stroke-linecap="round"/>
<path d="M129.397 176.571L131.471 171.356" stroke="#A1A93C" stroke-width="1.85729" stroke-miterlimit="10" stroke-linecap="round"/>
<path d="M125.552 173.715L129.252 169.539" stroke="#A1A93C" stroke-width="1.85729" stroke-miterlimit="10" stroke-linecap="round"/>
<path d="M122.241 138.504L124.288 142.616C124.357 142.757 124.412 142.922 124.423 143.079L125.541 150.857C125.677 151.84 126.701 152.415 127.613 152.054L135.029 149.069C135.163 149.012 135.314 148.982 135.458 148.964L139.789 148.568C140.782 148.472 141.419 147.484 141.08 146.534L137.252 135.852C137.179 135.659 137.153 135.443 137.172 135.236L137.211 134.589C137.28 133.541 136.302 132.741 135.284 133.024L123.195 136.359C122.277 136.616 121.819 137.641 122.241 138.504Z" stroke="#A1A93C" stroke-width="1.85729" stroke-miterlimit="10" stroke-linecap="round"/>
<path d="M127.236 148.562L123.451 149.609" stroke="#A1A93C" stroke-width="1.85729" stroke-miterlimit="10" stroke-linecap="round"/>
<path d="M126.477 146.484L122.691 147.53" stroke="#A1A93C" stroke-width="1.85729" stroke-miterlimit="10" stroke-linecap="round"/>
<path d="M126.072 144.023L122.287 145.07" stroke="#A1A93C" stroke-width="1.85729" stroke-miterlimit="10" stroke-linecap="round"/>
<path d="M140.459 140.062L136.674 141.109" stroke="#A1A93C" stroke-width="1.85729" stroke-miterlimit="10" stroke-linecap="round"/>
<path d="M139.709 137.969L135.924 139.015" stroke="#A1A93C" stroke-width="1.85729" stroke-miterlimit="10" stroke-linecap="round"/>
<path d="M139.295 135.52L135.51 136.566" stroke="#A1A93C" stroke-width="1.85729" stroke-miterlimit="10" stroke-linecap="round"/>
<path d="M141.705 144.586L137.92 145.632" stroke="#A1A93C" stroke-width="1.85729" stroke-miterlimit="10" stroke-linecap="round"/>
<path d="M140.953 142.496L137.168 143.542" stroke="#A1A93C" stroke-width="1.85729" stroke-miterlimit="10" stroke-linecap="round"/>
<path d="M140.549 140.035L136.764 141.081" stroke="#A1A93C" stroke-width="1.85729" stroke-miterlimit="10" stroke-linecap="round"/>
<path d="M123.386 171.579L125.248 166.325" stroke="#A1A93C" stroke-width="1.85729" stroke-miterlimit="10" stroke-linecap="round"/>
<path d="M65.6563 28.3792L209.936 55.1719L178.917 222.205L34.6382 195.412L65.6563 28.3792Z" stroke="#A1A93C" stroke-width="1.74804" stroke-miterlimit="10"/>
<path d="M124.754 75.5384C124.43 77.26 124.968 77.9225 125.759 78.0609C126.55 78.1993 127.284 77.7691 127.601 76.0601C127.918 74.351 127.541 72.8277 126.751 72.6893C125.96 72.5509 125.066 73.8095 124.742 75.5312L124.754 75.5384Z" fill="#A1A93C"/>
<path d="M130.814 79.1194C132.134 72.0093 136.575 66.8713 140.732 67.6433C144.89 68.4154 147.19 74.8051 145.869 81.9151C144.549 89.0252 140.108 94.1632 135.951 93.3912C131.794 92.6192 129.494 86.2295 130.814 79.1194Z" stroke="#A1A93C" stroke-width="1.85729" stroke-miterlimit="10" stroke-linecap="round"/>
<path d="M135.889 76.6091L139.154 84.237" stroke="#A1A93C" stroke-width="1.85729" stroke-miterlimit="10" stroke-linecap="round"/>
<path d="M141.264 79.5117L133.506 81.5797" stroke="#A1A93C" stroke-width="1.85729" stroke-miterlimit="10" stroke-linecap="round"/>
<path d="M131.102 78.0818C131.281 77.4818 131.422 76.8602 131.538 76.224C132.562 70.7374 131.03 65.851 128.126 65.3129C125.222 64.7748 122.039 68.7805 121.027 74.2743C120.835 75.3022 120.735 76.3162 120.717 77.2765" stroke="#A1A93C" stroke-width="1.85729" stroke-miterlimit="10" stroke-linecap="round"/>
<path d="M348.116 116.679L348.033 116.862C342.076 131.997 327.075 142.51 311.958 141.375C310.156 141.242 309.005 139.389 309.655 137.704C310.139 136.453 311.491 135.752 312.792 136.102C335.602 142.276 353.622 104.03 327.059 93.5677L271.995 69.8892C269.126 68.6544 265.788 70.0394 264.637 72.9596L257.829 90.2137C257.462 91.1314 256.261 91.3484 255.593 90.5975L192.671 19.145C191.336 17.6265 192.554 15.2736 194.557 15.4906L281.84 24.7183C282.708 24.8184 283.258 25.7028 282.941 26.5205L278.536 37.7006C277.502 40.3204 278.586 43.2906 281.056 44.6256L334.901 73.6771C349.368 81.4865 354.54 100.376 348.099 116.695L348.116 116.679Z" fill="#3C3C3B" stroke="#A1A93C" stroke-width="0.96" stroke-miterlimit="10"/>
<path d="M329.561 131.547C302.396 131.547 280.387 153.557 280.387 180.723C280.387 207.889 302.396 229.915 329.561 229.915C331.446 229.915 333.315 229.798 335.134 229.598C336.969 229.798 338.838 229.915 340.723 229.915C367.888 229.915 389.896 207.905 389.896 180.739C389.896 153.573 367.888 131.547 340.723 131.547C338.838 131.547 336.969 131.664 335.15 131.864C333.315 131.664 331.446 131.547 329.561 131.547ZM329.561 128.477C331.413 128.477 333.282 128.577 335.15 128.777C337.019 128.577 338.888 128.477 340.74 128.477C354.689 128.477 367.821 133.916 377.682 143.795C387.577 153.673 393 166.789 393 180.756C393 194.706 387.56 207.839 377.699 217.7C367.838 227.562 354.706 233.002 340.74 233.002C338.888 233.002 337.019 232.902 335.15 232.702C333.282 232.902 331.413 233.002 329.561 233.002C315.595 233.002 302.479 227.562 292.618 217.684C282.757 207.805 277.317 194.689 277.317 180.723C277.317 166.773 282.757 153.64 292.618 143.778C302.479 133.916 315.611 128.477 329.561 128.477Z" fill="#1D1D1B"/>
<path d="M340.741 229.914C313.583 229.914 291.568 207.897 291.568 180.738C291.568 153.579 313.583 131.562 340.741 131.562C367.899 131.562 389.914 153.579 389.914 180.738C389.914 207.897 367.899 229.914 340.741 229.914Z" fill="#686766"/>
<path d="M329.561 229.914C302.404 229.914 280.388 207.897 280.388 180.738C280.388 153.579 302.404 131.562 329.561 131.562C356.719 131.562 378.734 153.579 378.734 180.738C378.734 207.897 356.719 229.914 329.561 229.914Z" fill="#E3E3E3"/>
<path d="M358.461 151.736C351.052 144.36 340.841 139.805 329.578 139.805C307.419 139.805 289.365 157.409 288.648 179.402L328.927 181.254L358.461 151.736Z" fill="#1D1D1B"/>
<path d="M370.425 183.157C370.476 182.356 370.492 181.555 370.492 180.737C370.492 169.407 365.887 159.144 358.445 151.719L328.911 181.238L370.409 183.157H370.425Z" fill="#1D1D1B"/>
<path d="M288.649 179.383C288.649 179.833 288.632 180.267 288.632 180.718C288.632 191.998 293.188 202.21 300.563 209.619L328.945 181.252L288.666 179.399L288.649 179.383Z" fill="#1D1D1B"/>
<path d="M328.928 181.254L300.546 209.621C307.954 217.064 318.216 221.669 329.546 221.686C351.337 221.686 369.158 204.649 370.426 183.173L328.928 181.254Z" fill="#FAEEBD"/>
<path d="M329.561 217.502C309.26 217.502 292.803 201.044 292.803 180.741C292.803 160.439 309.26 143.98 329.561 143.98C349.863 143.98 366.32 160.439 366.32 180.741C366.32 201.044 349.863 217.502 329.561 217.502Z" fill="#ACACAC"/>
<path d="M225.407 91.7977C200.278 91.7977 179.921 112.155 179.905 137.286C179.905 162.416 200.261 182.79 225.39 182.79C227.142 182.79 228.861 182.69 230.546 182.49C232.248 182.69 233.967 182.79 235.719 182.79C260.848 182.79 281.204 162.433 281.221 137.302C281.221 112.172 260.864 91.7977 235.735 91.7977C233.983 91.7977 232.265 91.8978 230.58 92.098C228.878 91.8978 227.159 91.7977 225.407 91.7977ZM225.407 88.9609C227.109 88.9609 228.861 89.0611 230.58 89.2446C232.298 89.0611 234.033 88.9609 235.752 88.9609C248.667 88.9609 260.798 94.0003 269.925 103.128C279.052 112.256 284.074 124.404 284.074 137.319C284.074 150.235 279.035 162.366 269.908 171.493C260.781 180.621 248.634 185.644 235.719 185.644C234.017 185.644 232.265 185.544 230.546 185.36C228.828 185.544 227.092 185.644 225.374 185.644C212.459 185.644 200.328 180.604 191.201 171.477C182.074 162.349 177.051 150.201 177.051 137.286C177.051 124.37 182.091 112.239 191.218 103.111C200.345 93.9836 212.475 88.9609 225.39 88.9609H225.407Z" fill="#1D1D1B"/>
<path d="M235.752 182.791C210.622 182.791 190.25 162.417 190.25 137.286C190.25 112.154 210.622 91.7812 235.752 91.7812C260.882 91.7812 281.254 112.154 281.254 137.286C281.254 162.417 260.882 182.791 235.752 182.791Z" fill="#686766"/>
<path d="M225.408 182.791C200.278 182.791 179.906 162.417 179.906 137.286C179.906 112.154 200.278 91.7812 225.408 91.7812C250.538 91.7812 270.91 112.154 270.91 137.286C270.91 162.417 250.538 182.791 225.408 182.791Z" fill="#E3E3E3"/>
<path d="M252.139 110.453C245.297 103.628 235.853 99.4062 225.408 99.4062C204.901 99.4062 188.199 115.692 187.548 136.034L224.807 137.752L252.122 110.453H252.139Z" fill="#1D1D1B"/>
<path d="M263.218 139.537C263.268 138.803 263.285 138.052 263.285 137.301C263.285 126.822 259.03 117.327 252.139 110.469L224.824 137.768L263.218 139.537Z" fill="#1D1D1B"/>
<path d="M187.548 136.051C187.548 136.468 187.531 136.868 187.531 137.286C187.531 147.715 191.753 157.159 198.561 164.018L224.824 137.77L187.565 136.051H187.548Z" fill="#1D1D1B"/>
<path d="M224.826 137.77L198.562 164.018C205.42 170.909 214.914 175.164 225.393 175.164C245.566 175.164 262.052 159.412 263.203 139.538L224.809 137.77H224.826Z" fill="#FAEEBD"/>
<path d="M225.408 171.292C206.628 171.292 191.403 156.067 191.403 137.285C191.403 118.503 206.628 103.277 225.408 103.277C244.189 103.277 259.414 118.503 259.414 137.285C259.414 156.067 244.189 171.292 225.408 171.292Z" fill="#ACACAC"/>
<path d="M149.522 124.569L149.605 124.386C155.562 109.251 170.563 98.7381 185.68 99.8728C187.482 100.006 188.634 101.875 187.983 103.544C187.499 104.795 186.147 105.496 184.846 105.146C162.036 98.9717 144.016 137.218 170.579 147.68L225.643 171.359C228.513 172.593 231.85 171.208 233.001 168.288L239.809 151.034C240.176 150.116 241.377 149.9 242.028 150.65L304.967 222.103C306.302 223.621 305.084 225.974 303.081 225.757L215.798 216.53C214.93 216.429 214.38 215.545 214.697 214.727L219.102 203.547C220.136 200.928 219.052 197.957 216.582 196.639L162.737 167.587C148.271 159.778 143.098 140.889 149.539 124.569H149.522Z" fill="#3C3C3B" stroke="#A1A93C" stroke-width="0.96" stroke-miterlimit="10"/>
<path d="M306.25 14.0704C279.086 14.0704 257.077 36.0801 257.077 63.2461C257.077 90.4121 279.086 112.439 306.25 112.439C308.136 112.439 310.004 112.322 311.823 112.121C313.659 112.322 315.527 112.439 317.413 112.439C344.577 112.439 366.586 90.4287 366.586 63.2628C366.586 36.0968 344.577 14.0704 317.413 14.0704C315.527 14.0704 313.659 14.1872 311.84 14.3874C310.004 14.1872 308.136 14.0704 306.25 14.0704ZM306.25 11C308.102 11 309.971 11.1001 311.84 11.3004C313.725 11.1001 315.594 11 317.446 11C331.396 11 344.527 16.4399 354.389 26.3184C364.25 36.1969 369.689 49.3127 369.689 63.2795C369.689 77.2296 364.25 90.362 354.389 100.224C344.527 110.086 331.396 115.526 317.43 115.526C315.577 115.526 313.709 115.425 311.84 115.225C309.971 115.425 308.102 115.526 306.25 115.526C292.284 115.526 279.169 110.086 269.308 100.207C259.446 90.3286 254.007 77.2129 254.007 63.2461C254.007 49.296 259.446 36.1636 269.308 26.3017C279.186 16.4399 292.301 11 306.25 11Z" fill="#1D1D1B"/>
<path d="M317.446 112.437C290.289 112.437 268.273 90.4207 268.273 63.2617C268.273 36.1027 290.289 14.0859 317.446 14.0859C344.604 14.0859 366.619 36.1027 366.619 63.2617C366.619 90.4207 344.604 112.437 317.446 112.437Z" fill="#686766"/>
<path d="M306.249 112.437C279.091 112.437 257.076 90.4207 257.076 63.2617C257.076 36.1027 279.091 14.0859 306.249 14.0859C333.406 14.0859 355.422 36.1027 355.422 63.2617C355.422 90.4207 333.406 112.437 306.249 112.437Z" fill="#E3E3E3"/>
<path d="M335.15 34.2435C327.742 26.868 317.53 22.3125 306.267 22.3125C284.109 22.3125 266.054 39.917 265.337 61.9101L305.617 63.7623L335.15 34.2435Z" fill="#1D1D1B"/>
<path d="M347.131 65.68C347.181 64.879 347.197 64.078 347.197 63.2604C347.197 51.9301 342.592 41.6678 335.15 34.2422L305.616 63.761L347.114 65.68H347.131Z" fill="#1D1D1B"/>
<path d="M265.337 61.9102C265.337 62.3607 265.32 62.7946 265.32 63.2451C265.32 74.5253 269.875 84.7376 277.25 92.1465L305.633 63.7791L265.353 61.9268L265.337 61.9102Z" fill="#1D1D1B"/>
<path d="M305.633 63.7617L277.251 92.1291C284.659 99.5714 294.921 104.177 306.251 104.194C328.042 104.194 345.863 87.1565 347.131 65.6807L305.633 63.7617Z" fill="#FAEEBD"/>
<path d="M306.251 100.026C285.95 100.026 269.492 83.5672 269.492 63.2647C269.492 42.9623 285.95 26.5039 306.251 26.5039C326.552 26.5039 343.01 42.9623 343.01 63.2647C343.01 83.5672 326.552 100.026 306.251 100.026Z" fill="#ACACAC"/>
</g>
</g>
<defs>
<clipPath id="clip0_87_35419">
<rect width="371" height="231" fill="white" transform="translate(22 11)"/>
</clipPath>
<clipPath id="clip1_87_35419">
<rect width="472" height="352" fill="white" transform="matrix(-1 0 0 1 393 11)"/>
</clipPath>
</defs>
</svg>
