<svg width="387" height="251" viewBox="0 0 387 251" fill="none" xmlns="http://www.w3.org/2000/svg">
<g clip-path="url(#clip0_87_35502)">
<path d="M33.8137 181.826C47.8639 182.358 58.8089 194.195 58.2771 208.245C57.7453 222.295 45.9082 233.257 31.858 232.708C30.8801 232.674 29.9195 232.571 28.9759 232.434C28.0152 232.502 27.0545 232.52 26.0767 232.485C12.0265 231.953 1.08145 220.116 1.61326 206.066C2.14507 192.016 13.9822 181.054 28.0324 181.603C29.0102 181.637 29.9709 181.74 30.9145 181.877C31.8752 181.809 32.8358 181.791 33.8137 181.826ZM33.8823 180.23C32.9216 180.196 31.9609 180.213 30.9831 180.282C30.0224 180.144 29.0617 180.059 28.101 180.024C20.8786 179.75 13.9822 182.306 8.68123 187.212C3.3631 192.119 0.292305 198.792 0.0178203 206.015C-0.256664 213.237 2.29947 220.133 7.20588 225.434C12.1123 230.735 18.8028 233.806 26.0252 234.081C26.9859 234.115 27.9466 234.098 28.9245 234.029C29.8851 234.166 30.8458 234.252 31.8065 234.287C39.0289 234.561 45.9253 232.005 51.2263 227.098C56.5273 222.192 59.5981 215.502 59.8726 208.279C60.147 201.057 57.5909 194.16 52.6845 188.859C47.7781 183.558 41.1047 180.488 33.8823 180.213V180.23Z" fill="#1D1D1B"/>
<path d="M27.0544 232.5C41.1147 232.5 52.5128 221.102 52.5128 207.042C52.5128 192.982 41.1147 181.583 27.0544 181.583C12.9941 181.583 1.59595 192.982 1.59595 207.042C1.59595 221.102 12.9941 232.5 27.0544 232.5Z" fill="#CA6F1F"/>
<path d="M32.8354 232.724C46.8957 232.724 58.2938 221.326 58.2938 207.266C58.2938 193.206 46.8957 181.808 32.8354 181.808C18.7751 181.808 7.37695 193.206 7.37695 207.266C7.37695 221.326 18.7751 232.724 32.8354 232.724Z" fill="#FFD500"/>
<path d="M18.4595 191.689C22.4395 188.018 27.8091 185.857 33.6419 186.08C45.1016 186.526 54.091 195.978 54.0223 207.387L33.1444 207.541L18.4595 191.689Z" fill="#1D1D1B"/>
<path d="M11.6485 207.716C11.6485 207.304 11.6485 206.875 11.6485 206.464C11.8715 200.596 14.462 195.381 18.4591 191.693L33.1441 207.544L11.6313 207.716H11.6485Z" fill="#1D1D1B"/>
<path d="M54.0405 207.384C54.0405 207.607 54.0405 207.847 54.0405 208.07C53.8175 213.903 51.2613 219.101 47.2985 222.773L33.1797 207.539L54.0576 207.384H54.0405Z" fill="#1D1D1B"/>
<path d="M33.1609 207.562L47.2797 222.795C43.2997 226.501 37.8958 228.68 32.0287 228.457C20.7576 228.028 11.8712 218.867 11.6482 207.716L33.1609 207.544V207.562Z" fill="#FAEEBD"/>
<path d="M32.8333 226.289C43.3406 226.289 51.8585 217.771 51.8585 207.264C51.8585 196.757 43.3406 188.239 32.8333 188.239C22.326 188.239 13.8081 196.757 13.8081 207.264C13.8081 217.771 22.326 226.289 32.8333 226.289Z" fill="#FBBE00"/>
<path d="M82.0387 141.737C96.6549 134 114.771 139.593 122.508 154.209C130.245 168.825 124.652 186.941 110.036 194.678C109.024 195.21 107.995 195.69 106.948 196.102C106.022 196.737 105.044 197.32 104.032 197.869C89.4154 205.606 71.2995 200.014 63.5624 185.397C55.8254 170.781 61.418 152.665 76.0343 144.928C77.0465 144.379 78.0758 143.916 79.1223 143.504C80.0486 142.869 81.0265 142.286 82.0387 141.737ZM81.1637 140.073C80.1687 140.605 79.1909 141.188 78.2473 141.823C77.1837 142.252 76.1544 142.732 75.1594 143.247C67.6454 147.227 62.1385 153.883 59.6339 161.997C57.1292 170.112 57.9355 178.724 61.9155 186.238C65.8956 193.752 72.5518 199.259 80.6662 201.763C88.7807 204.268 97.3926 203.462 104.907 199.482C105.902 198.95 106.879 198.367 107.823 197.732C108.887 197.303 109.916 196.823 110.911 196.308C118.425 192.328 123.932 185.672 126.436 177.557C128.941 169.443 128.135 160.831 124.155 153.317C120.175 145.803 113.519 140.296 105.404 137.791C97.2897 135.287 88.6778 136.093 81.1637 140.073Z" fill="#1D1D1B"/>
<path d="M90.0141 201.336C106.547 201.336 119.95 187.933 119.95 171.4C119.95 154.867 106.547 141.464 90.0141 141.464C73.4809 141.464 60.0781 154.867 60.0781 171.4C60.0781 187.933 73.4809 201.336 90.0141 201.336Z" fill="#CA6F1F"/>
<path d="M96.0375 198.148C112.571 198.148 125.973 184.745 125.973 168.212C125.973 151.679 112.571 138.276 96.0375 138.276C79.5043 138.276 66.1016 151.679 66.1016 168.212C66.1016 184.745 79.5043 198.148 96.0375 198.148Z" fill="#FFD500"/>
<path d="M72.2224 160.817C74.1095 154.744 78.3125 149.375 84.3683 146.167C96.2913 139.854 111.028 144.194 117.667 155.842L96.5143 168.314L72.2224 160.834V160.817Z" fill="#1D1D1B"/>
<path d="M74.7275 181.145C74.4701 180.734 74.23 180.305 74.0069 179.859C70.7818 173.751 70.3357 166.924 72.24 160.816L96.5318 168.296L74.7446 181.128L74.7275 181.145Z" fill="#1D1D1B"/>
<path d="M117.685 155.842C117.822 156.082 117.942 156.305 118.079 156.563C121.288 162.636 121.751 169.429 119.881 175.502L96.5325 168.314L117.685 155.842Z" fill="#1D1D1B"/>
<path d="M96.5159 168.312L119.864 175.5C117.994 181.624 113.791 187.011 107.684 190.236C95.9498 196.446 81.5051 192.346 74.7288 181.144L96.5159 168.312Z" fill="#FAEEBD"/>
<path d="M96.0351 190.597C108.399 190.597 118.423 180.574 118.423 168.209C118.423 155.845 108.399 145.822 96.0351 145.822C83.6707 145.822 73.6475 155.845 73.6475 168.209C73.6475 180.574 83.6707 190.597 96.0351 190.597Z" fill="#FBBE00"/>
<path d="M80.6824 91.2527C97.2201 90.9611 110.859 104.119 111.15 120.657C111.442 137.195 98.2837 150.833 81.7461 151.125C80.5967 151.142 79.4644 151.09 78.3493 150.987C77.2342 151.142 76.102 151.228 74.9526 151.245C58.4149 151.536 44.7765 138.378 44.4848 121.841C44.1932 105.303 57.3513 91.6645 73.8889 91.3728C75.0383 91.3557 76.1706 91.4071 77.2857 91.5101C78.4008 91.3557 79.533 91.2699 80.6824 91.2527ZM80.6481 89.3828C79.5159 89.4 78.3836 89.4858 77.2514 89.623C76.1191 89.5201 74.9697 89.4858 73.8375 89.5029C65.3456 89.6573 57.4027 93.1055 51.5013 99.2128C45.5999 105.32 42.4262 113.383 42.5806 121.875C42.735 130.367 46.1832 138.292 52.2905 144.194C58.3977 150.095 66.4436 153.269 74.9526 153.115C76.0677 153.097 77.2171 153.012 78.3493 152.874C79.4816 152.977 80.631 153.012 81.7632 152.995C90.2551 152.84 98.198 149.392 104.099 143.285C110.001 137.177 113.174 129.114 113.02 120.623C112.866 112.131 109.418 104.205 103.31 98.3036C97.2029 92.4021 89.1571 89.2284 80.6653 89.3828H80.6481Z" fill="#1D1D1B"/>
<path d="M74.4027 151.246C90.9359 151.246 104.339 137.844 104.339 121.31C104.339 104.777 90.9359 91.3745 74.4027 91.3745C57.8696 91.3745 44.4668 104.777 44.4668 121.31C44.4668 137.844 57.8696 151.246 74.4027 151.246Z" fill="#CA6F1F"/>
<path d="M81.1972 151.124C97.7303 151.124 111.133 137.721 111.133 121.188C111.133 104.655 97.7303 91.252 81.1972 91.252C64.664 91.252 51.2612 104.655 51.2612 121.188C51.2612 137.721 64.664 151.124 81.1972 151.124Z" fill="#FFD500"/>
<path d="M63.3022 103.847C67.7283 99.2836 73.9042 96.3844 80.7663 96.2643C94.2675 96.0241 105.436 106.557 106.105 119.939L81.6069 121.5L63.3194 103.847H63.3022Z" fill="#1D1D1B"/>
<path d="M56.3567 123.11C56.3223 122.629 56.288 122.132 56.288 121.634C56.1679 114.738 58.8613 108.442 63.3045 103.844L81.5921 121.497L56.3567 123.11Z" fill="#1D1D1B"/>
<path d="M106.105 119.941C106.105 120.215 106.123 120.49 106.14 120.747C106.26 127.609 103.601 133.871 99.1918 138.469L81.6077 121.502L106.105 119.941Z" fill="#1D1D1B"/>
<path d="M81.5939 121.503L99.178 138.47C94.752 143.085 88.5417 146.001 81.6453 146.121C68.3672 146.361 57.3363 136.171 56.3413 123.116L81.5767 121.503H81.5939Z" fill="#FAEEBD"/>
<path d="M81.197 143.573C93.5613 143.573 103.585 133.55 103.585 121.185C103.585 108.821 93.5613 98.7979 81.197 98.7979C68.8326 98.7979 58.8093 108.821 58.8093 121.185C58.8093 133.55 68.8326 143.573 81.197 143.573Z" fill="#FBBE00"/>
<path d="M109.311 24.5814C125.386 20.7043 141.563 30.5858 145.44 46.6603C149.317 62.7347 139.436 78.9122 123.362 82.7892C122.246 83.0637 121.131 83.2524 120.016 83.4068C118.953 83.7843 117.872 84.1274 116.757 84.4018C100.682 88.2789 84.5048 78.3975 80.6277 62.323C76.7507 46.2485 86.6321 30.0711 102.707 26.194C103.822 25.9195 104.937 25.7308 106.052 25.5764C107.115 25.199 108.196 24.8559 109.311 24.5814ZM108.882 22.763C107.785 23.0203 106.687 23.3634 105.623 23.7408C104.491 23.8952 103.358 24.1011 102.278 24.3584C94.0089 26.3484 87.0267 31.4435 82.6006 38.7002C78.1745 45.9569 76.8364 54.5002 78.8264 62.7519C80.8165 71.0207 85.9116 78.0029 93.1682 82.429C100.425 86.855 108.968 88.2103 117.22 86.2031C118.318 85.9458 119.416 85.6027 120.479 85.2253C121.612 85.0709 122.727 84.865 123.825 84.6077C132.094 82.6177 139.076 77.5226 143.502 70.2659C147.928 63.0092 149.266 54.4659 147.276 46.2142C145.286 37.9454 140.191 30.9632 132.934 26.5371C125.677 22.1111 117.151 20.7558 108.882 22.763Z" fill="#1D1D1B"/>
<path d="M109.704 85.2249C126.238 85.2249 139.64 71.8221 139.64 55.289C139.64 38.7558 126.238 25.353 109.704 25.353C93.1713 25.353 79.7686 38.7558 79.7686 55.289C79.7686 71.8221 93.1713 85.2249 109.704 85.2249Z" fill="#CA6F1F"/>
<path d="M116.328 83.6287C132.861 83.6287 146.264 70.2259 146.264 53.6928C146.264 37.1596 132.861 23.7568 116.328 23.7568C99.7946 23.7568 86.3918 37.1596 86.3918 53.6928C86.3918 70.2259 99.7946 83.6287 116.328 83.6287Z" fill="#FFD500"/>
<path d="M95.0906 40.6536C98.4187 35.2326 103.805 31.081 110.479 29.4684C123.603 26.2947 136.795 34.1518 140.363 47.0697L116.792 53.9146L95.1077 40.6536H95.0906Z" fill="#1D1D1B"/>
<path d="M92.4808 60.9637C92.3436 60.5005 92.2063 60.0202 92.0862 59.5398C90.4736 52.8321 91.726 46.1072 95.0713 40.6519L116.756 53.9129L92.4637 60.9637H92.4808Z" fill="#1D1D1B"/>
<path d="M140.358 47.0493C140.427 47.3066 140.495 47.564 140.564 47.8385C142.176 54.5119 140.941 61.2024 137.63 66.6406L116.787 53.8943L140.358 47.0493Z" fill="#1D1D1B"/>
<path d="M116.773 53.8984L137.616 66.6448C134.288 72.1173 128.884 76.3032 122.177 77.9158C109.276 81.0381 96.2894 73.4898 92.481 60.9493L116.773 53.8984Z" fill="#FAEEBD"/>
<path d="M116.33 76.0824C128.694 76.0824 138.717 66.0591 138.717 53.6948C138.717 41.3304 128.694 31.3071 116.33 31.3071C103.965 31.3071 93.9421 41.3304 93.9421 53.6948C93.9421 66.0591 103.965 76.0824 116.33 76.0824Z" fill="#FBBE00"/>
<path d="M312.828 180.334C312.673 184.126 310.58 187.557 307.098 189.066C265.977 206.959 211.938 222.914 188.075 230.273C164.829 237.427 139.062 246.725 127.019 231.817C126.607 231.08 125.921 229.261 125.029 226.585C117.052 202.688 92.4683 110.444 96.2939 103.856C101.235 91.1955 195.434 31.2379 235.955 9.70801L114.444 92.8939C106.004 100.013 104.151 105.091 106.81 108.025C109.572 111.078 117.275 111.765 127.534 109.946C134.705 108.66 143.454 106.601 153.438 103.942C189.927 94.232 242.971 76.4592 295.93 58.6005C298.28 57.8114 300.63 57.0051 302.981 56.2159C305.228 55.444 307.544 57.0222 307.801 59.3897C309.946 78.5006 311.507 97.2685 312.416 115.659C313.531 137.824 313.703 159.422 312.828 180.334Z" fill="#3C3C3B" stroke="#E9C983" stroke-width="1.64691" stroke-miterlimit="10"/>
<path d="M125.028 226.565L127.378 228.435C132.748 232.741 139.644 235.194 146.438 234.114C182.035 228.418 267.828 198.722 300.114 184.003C304.009 182.219 306.753 178.651 306.53 174.379C307.714 142.47 306.239 107.834 303.031 71.3787C302.842 67.7933 299.325 65.3572 295.894 66.4208C226.707 90.4039 176.271 108.434 129.711 117.509C112.007 119.774 94.9202 117.046 96.3098 103.819" fill="#3C3C3B"/>
<path d="M125.027 226.563L126.674 227.884" stroke="#E9C983" stroke-width="1.64691" stroke-miterlimit="10"/>
<path d="M128.939 229.618C134.051 233.187 140.278 235.108 146.437 234.13C182.034 228.435 267.828 198.739 300.114 184.02C304.008 182.235 306.753 178.667 306.53 174.396C307.714 142.487 306.239 107.85 303.03 71.3953C302.842 67.8099 299.325 65.3738 295.894 66.4374C226.707 90.4205 176.27 108.451 129.711 117.526C113.705 119.584 98.2137 117.526 96.3953 107.37" stroke="#E9C983" stroke-width="1.64691" stroke-miterlimit="10"/>
<path d="M96.2249 105.963C96.1906 105.294 96.2249 104.59 96.2935 103.835" stroke="#E9C983" stroke-width="1.64691" stroke-miterlimit="10"/>
<path d="M153.438 103.941C143.454 106.6 134.704 108.658 127.533 109.945C117.275 111.763 109.572 111.077 106.81 108.024C104.151 105.09 106.004 100.012 114.444 92.8926L235.955 9.70673C238.168 8.19707 241.187 9.70673 241.29 12.4173L242.319 43.1424C210.719 56.5749 180.183 73.0783 150.642 92.4638C151.448 99.1715 152.357 103.426 153.438 103.941Z" fill="#3C3C3B" stroke="#E9C983" stroke-width="1.64691" stroke-miterlimit="10"/>
<path d="M106.792 108.021C106.792 108.021 106.776 108.037 106.76 108.037L106.792 108.021Z" fill="#3C3C3B"/>
<path d="M106.792 108.021C106.792 108.021 106.776 108.037 106.76 108.037" stroke="#E9C983" stroke-width="1.64691" stroke-miterlimit="10"/>
<path d="M295.929 58.6704L295.912 58.6025" stroke="#E9C983" stroke-width="1.64691" stroke-miterlimit="10"/>
<path d="M242.903 61.0009V60.9502" stroke="#E9C983" stroke-width="1.64691" stroke-miterlimit="10"/>
<path d="M361.101 108.03C345.421 108.681 329.587 109.865 312.414 115.664C311.505 97.2732 309.944 78.5054 307.799 59.3944C307.542 57.027 305.226 55.4487 302.979 56.2207C300.628 57.0098 298.278 57.8161 295.928 58.6053C291.467 60.1149 287.024 61.6074 282.581 63.0999C263.539 69.516 244.668 75.8291 226.758 81.6619C199.104 90.6684 173.714 98.5427 153.436 103.947C152.355 103.432 151.446 99.1775 150.64 92.4697C180.181 73.0843 210.718 56.5809 242.318 43.1484C278.464 27.7429 316 16.3347 354.993 9.1123C353.278 45.876 355.216 78.9514 361.101 108.03Z" fill="#3C3C3B" stroke="#E9C983" stroke-width="1.64691" stroke-miterlimit="10"/>
<path d="M203.427 1.88269C220.05 1.88269 233.534 15.3496 233.534 31.9902C233.534 48.6136 220.068 62.0977 203.427 62.0977C202.278 62.0977 201.128 62.0291 200.013 61.909C198.881 62.0291 197.749 62.0977 196.582 62.0977C179.959 62.0977 166.474 48.6308 166.474 31.9902C166.474 15.3667 179.941 1.88269 196.582 1.88269C197.731 1.88269 198.881 1.95131 199.996 2.07139C201.128 1.95131 202.26 1.88269 203.427 1.88269ZM203.427 -0.00439453C202.295 -0.00439453 201.145 0.0642265 199.996 0.184313C198.846 0.0642265 197.714 -0.00439453 196.565 -0.00439453C188.022 -0.00439453 179.993 3.32373 173.954 9.36238C167.916 15.401 164.587 23.4469 164.587 31.9902C164.587 40.5335 167.916 48.5622 173.954 54.6008C179.993 60.6395 188.021 63.9676 196.582 63.9676C197.714 63.9676 198.864 63.899 200.013 63.7789C201.145 63.899 202.295 63.9676 203.444 63.9676C211.987 63.9676 220.016 60.6395 226.055 54.6008C232.093 48.5622 235.422 40.5163 235.422 31.973C235.422 23.4297 232.093 15.401 226.055 9.36238C219.999 3.32373 211.97 -0.00439453 203.427 -0.00439453Z" fill="#1D1D1B"/>
<path d="M196.58 62.0983C213.208 62.0983 226.688 48.6187 226.688 31.9908C226.688 15.3629 213.208 1.8833 196.58 1.8833C179.952 1.8833 166.473 15.3629 166.473 31.9908C166.473 48.6187 179.952 62.0983 196.58 62.0983Z" fill="#CA6F1F"/>
<path d="M203.427 62.0983C220.055 62.0983 233.535 48.6187 233.535 31.9908C233.535 15.3629 220.055 1.8833 203.427 1.8833C186.799 1.8833 173.32 15.3629 173.32 31.9908C173.32 48.6187 186.799 62.0983 203.427 62.0983Z" fill="#FFD500"/>
<path d="M185.741 14.2334C190.27 9.7216 196.515 6.92529 203.428 6.92529C216.998 6.92529 228.046 17.6988 228.475 31.1657L203.806 32.2979L185.724 14.2334H185.741Z" fill="#1D1D1B"/>
<path d="M178.396 33.4615C178.362 32.964 178.345 32.4837 178.345 31.9862C178.345 25.0383 181.158 18.7595 185.722 14.2305L203.803 32.295L178.396 33.4615Z" fill="#1D1D1B"/>
<path d="M228.473 31.1675C228.473 31.442 228.473 31.7164 228.473 31.9909C228.473 38.8874 225.677 45.149 221.165 49.678L203.787 32.3169L228.456 31.1846L228.473 31.1675Z" fill="#1D1D1B"/>
<path d="M203.802 32.2949L221.181 49.6561C216.652 54.2194 210.356 57.0328 203.425 57.0328C190.078 57.0328 179.167 46.6024 178.396 33.4615L203.802 32.2949Z" fill="#FAEEBD"/>
<path d="M203.426 54.4954C215.857 54.4954 225.934 44.4184 225.934 31.9877C225.934 19.557 215.857 9.47998 203.426 9.47998C190.996 9.47998 180.919 19.557 180.919 31.9877C180.919 44.4184 190.996 54.4954 203.426 54.4954Z" fill="#FBBE00"/>
<path d="M354.443 26.3662H364.857C361.649 65.789 364.582 97.4576 370.998 124.735C350.961 120.789 331.507 120.497 312.808 124.735" stroke="#E9C983" stroke-width="1.64691" stroke-miterlimit="10"/>
<path d="M363.674 48.3579L375.94 49.2157C371.96 87.4548 374.465 119.518 380.864 147.893C356.727 138.406 334.356 134.941 313.392 136.364" stroke="#E9C983" stroke-width="1.64691" stroke-miterlimit="10"/>
<path d="M282.581 63.0988C263.539 69.5149 244.668 75.828 226.758 81.6608C227.787 65.0545 241.563 51.9136 258.409 51.9136C268.102 51.9136 276.765 56.2539 282.581 63.0988Z" fill="#3C3C3B" stroke="#E9C983" stroke-width="1.64691" stroke-miterlimit="10"/>
<path d="M313.375 147.91C334.202 149.128 354.445 153.777 375.272 161.892C376.387 156.78 376.884 149.815 375.272 145.817" stroke="#E9C983" stroke-width="1.64691" stroke-miterlimit="10"/>
<path d="M365.836 158.446C366.025 160.608 365.287 163.902 363.571 167.315C346.502 160.505 329.724 156.165 313.392 155.787" stroke="#E9C983" stroke-width="1.64691" stroke-miterlimit="10"/>
</g>
<defs>
<clipPath id="clip0_87_35502">
<rect width="381.996" height="240.603" fill="white"/>
</clipPath>
</defs>
</svg>
