<svg width="302" height="233" viewBox="0 0 302 233" fill="none" xmlns="http://www.w3.org/2000/svg">
<path d="M245.181 60.5343C245.181 93.3877 210.244 120.03 167.188 120.03C147.122 120.03 128.809 114.251 114.977 104.75L92.789 115.571L99.3046 89.9249C92.8323 81.2462 89.1523 71.2257 89.1523 60.5343C89.1523 27.681 124.09 1.03906 167.167 1.03906C210.244 1.03906 245.16 27.681 245.16 60.5343H245.181Z" fill="#3C3C3B" stroke="#67C7BD" stroke-width="1.96638" stroke-linecap="round" stroke-linejoin="round"/>
<path d="M112.768 177.702C112.768 202.743 139.393 223.043 172.209 223.043C187.513 223.043 201.454 218.65 211.996 211.4L228.902 219.645L223.923 200.102C228.837 193.501 231.651 185.861 231.651 177.724C231.651 152.683 205.026 132.383 172.209 132.383C139.393 132.383 112.768 152.683 112.768 177.724V177.702Z" fill="#3C3C3B" stroke="#67C7BD" stroke-width="1.78203" stroke-linecap="round" stroke-linejoin="round"/>
<path d="M270.224 146.021C270.224 170.218 244.508 189.826 212.796 189.826C198.011 189.826 184.525 185.562 174.351 178.572L158.03 186.536L162.835 167.642C158.073 161.258 155.367 153.878 155.367 146C155.367 121.803 181.083 102.195 212.817 102.195C244.551 102.195 270.246 121.825 270.246 146L270.224 146.021Z" fill="#3C3C3B" stroke="#67C7BD" stroke-width="1.96638" stroke-linecap="round" stroke-linejoin="round"/>
<path d="M300.96 113.234C300.96 129.271 283.902 142.3 262.862 142.3C253.056 142.3 244.116 139.486 237.362 134.833L226.539 140.114L229.721 127.583C226.56 123.341 224.764 118.45 224.764 113.234C224.764 97.1968 241.821 84.168 262.862 84.168C283.902 84.168 300.96 97.1751 300.96 113.234Z" fill="#3C3C3B" stroke="#67C7BD" stroke-width="1.96638" stroke-linecap="round" stroke-linejoin="round"/>
<path d="M282.368 89.9869C282.368 114.248 256.586 133.921 224.766 133.921C209.938 133.921 196.43 129.658 186.213 122.645L169.827 130.632L174.632 111.694C169.87 105.288 167.143 97.8864 167.143 90.0085C167.143 65.7473 192.924 46.0742 224.744 46.0742C256.565 46.0742 282.346 65.7473 282.346 90.0085L282.368 89.9869Z" fill="#3C3C3B" stroke="#67C7BD" stroke-width="1.96638" stroke-linecap="round" stroke-linejoin="round"/>
<path d="M287.414 142.164C287.414 159.262 269.23 173.134 246.804 173.134C236.349 173.134 226.825 170.126 219.616 165.17L208.079 170.797L211.477 157.444C208.122 152.942 206.195 147.704 206.195 142.142C206.195 125.045 224.378 111.172 246.804 111.172C269.23 111.172 287.414 125.045 287.414 142.142V142.164Z" fill="white" stroke="#1D1D1B" stroke-width="1.96638" stroke-linecap="round" stroke-linejoin="round"/>
<path d="M13.041 127.122C13.041 146.384 33.5187 162.01 58.7804 162.01C70.5561 162.01 81.2929 158.612 89.3887 153.05L102.398 159.391L98.5669 144.35C102.355 139.264 104.52 133.377 104.52 127.122C104.52 107.86 84.042 92.2344 58.7587 92.2344C33.4754 92.2344 13.041 107.86 13.041 127.122Z" fill="#3C3C3B" stroke="#67C7BD" stroke-width="1.96638" stroke-linecap="round" stroke-linejoin="round"/>
<path d="M37.09 108.989C37.09 127.385 56.6369 142.297 80.7513 142.297C91.9859 142.297 102.225 139.072 109.974 133.748L122.378 139.808L118.719 125.459C122.334 120.611 124.391 114.984 124.391 109.011C124.391 90.6148 104.844 75.7031 80.7296 75.7031C56.6153 75.7031 37.0684 90.6148 37.0684 109.011L37.09 108.989Z" fill="#3C3C3B" stroke="#67C7BD" stroke-width="1.96638" stroke-linecap="round" stroke-linejoin="round"/>
<path d="M45.166 152.704C45.166 174.498 68.3279 192.18 96.9015 192.18C110.214 192.18 122.358 188.35 131.536 182.052L146.256 189.215L141.926 172.204C146.213 166.447 148.659 159.803 148.659 152.726C148.659 130.932 125.497 113.25 96.9015 113.25C68.3279 113.25 45.166 130.932 45.166 152.726V152.704Z" fill="#3C3C3B" stroke="#67C7BD" stroke-width="1.96638" stroke-linecap="round" stroke-linejoin="round"/>
<path d="M258.255 134.465C255.225 131.435 250.311 131.976 247.28 135.006L246.804 135.482L246.328 135.006C243.297 131.976 238.384 131.435 235.353 134.465C232.322 137.495 232.322 142.408 235.353 145.438L235.829 145.914L245.354 155.437C246.155 156.238 247.453 156.238 248.254 155.437L257.779 145.914L258.255 145.438C261.286 142.408 261.286 137.495 258.255 134.465Z" fill="#67C7BD"/>
<path d="M29.3184 54.9655C29.3184 75.5475 51.2031 92.2339 78.1748 92.2339C90.7515 92.2339 102.224 88.6196 110.883 82.6679L124.78 89.442L120.689 73.3833C124.737 67.951 127.053 61.6747 127.053 54.9872C127.053 34.4051 105.168 17.7188 78.1965 17.7188C51.2248 17.7188 29.34 34.4051 29.34 54.9872L29.3184 54.9655Z" fill="#3C3C3B" stroke="#67C7BD" stroke-width="1.96638" stroke-linecap="round" stroke-linejoin="round"/>
<path d="M73.8477 110.934C73.8477 138.42 103.071 160.712 139.112 160.712C155.91 160.712 171.214 155.886 182.795 147.921L201.346 156.968L195.891 135.52C201.303 128.27 204.377 119.872 204.377 110.934C204.377 83.448 175.154 61.1562 139.112 61.1562C103.071 61.1562 73.8477 83.448 73.8477 110.934Z" fill="#3C3C3B" stroke="#67C7BD" stroke-width="1.96638" stroke-linecap="round" stroke-linejoin="round"/>
<path d="M116.969 103.747H109.588V83.793H116.948C118.983 83.793 120.736 84.1825 122.208 84.9833C123.68 85.7841 124.805 86.9311 125.606 88.4028C126.407 89.8962 126.797 91.6708 126.797 93.7485C126.797 95.8262 126.407 97.6225 125.606 99.1159C124.805 100.609 123.68 101.756 122.208 102.557C120.736 103.358 118.983 103.747 116.948 103.747H116.969ZM114.415 99.6353H116.775C117.9 99.6353 118.831 99.4405 119.61 99.0726C120.39 98.683 120.974 98.077 121.364 97.2113C121.753 96.3456 121.97 95.1986 121.97 93.7702C121.97 92.3418 121.775 91.1947 121.364 90.329C120.952 89.485 120.368 88.8573 119.589 88.4678C118.809 88.0782 117.835 87.905 116.71 87.905H114.415V99.6353Z" fill="#67C7BD"/>
<path d="M132.036 87.041C131.365 87.041 130.78 86.8246 130.304 86.3701C129.828 85.9156 129.59 85.3962 129.59 84.7686C129.59 84.1409 129.828 83.5999 130.304 83.167C130.78 82.7125 131.365 82.4961 132.036 82.4961C132.707 82.4961 133.291 82.7125 133.768 83.167C134.244 83.6215 134.482 84.1409 134.482 84.7686C134.482 85.3962 134.244 85.9373 133.768 86.3701C133.291 86.8246 132.707 87.041 132.058 87.041H132.036ZM129.633 103.749V88.7941H134.395V103.749H129.633Z" fill="#67C7BD"/>
<path d="M137.404 103.75V88.7945H142.037V91.5215H142.188C142.47 90.526 142.903 89.7901 143.53 89.314C144.136 88.8378 144.872 88.5781 145.673 88.5781C145.89 88.5781 146.128 88.5781 146.366 88.6214C146.604 88.6431 146.821 88.6863 147.015 88.7513V92.885C146.799 92.7984 146.496 92.7551 146.128 92.6902C145.76 92.6469 145.435 92.6253 145.154 92.6253C144.591 92.6253 144.071 92.7551 143.617 92.9932C143.162 93.2529 142.816 93.5992 142.556 94.032C142.296 94.4865 142.167 95.0059 142.167 95.5903V103.706H137.404V103.75Z" fill="#67C7BD"/>
<path d="M158.1 88.7723V92.2784H148.662V88.7723H158.1ZM150.632 85.1797H155.394V99.0309C155.394 99.3122 155.437 99.5503 155.546 99.7451C155.632 99.9182 155.784 100.048 155.957 100.135C156.13 100.221 156.347 100.243 156.606 100.243C156.78 100.243 156.974 100.243 157.191 100.2C157.386 100.156 157.559 100.135 157.645 100.113L158.36 103.554C158.143 103.619 157.819 103.706 157.407 103.792C156.996 103.879 156.498 103.944 155.935 103.965C154.81 104.009 153.857 103.879 153.056 103.576C152.255 103.251 151.649 102.775 151.238 102.104C150.827 101.433 150.61 100.589 150.632 99.572V85.2013V85.1797Z" fill="#67C7BD"/>
<path d="M163.447 109.355C162.884 109.355 162.343 109.312 161.823 109.226C161.325 109.139 160.893 109.031 160.525 108.879L161.585 105.417C162.061 105.568 162.473 105.655 162.862 105.698C163.252 105.72 163.577 105.655 163.836 105.525C164.118 105.373 164.334 105.114 164.464 104.746L164.659 104.291L159.334 88.7734H164.313L167.062 99.4432H167.213L170.006 88.7734H175.028L169.378 105.157C169.097 105.979 168.729 106.693 168.231 107.321C167.733 107.949 167.083 108.446 166.304 108.793C165.525 109.139 164.551 109.334 163.425 109.334L163.447 109.355Z" fill="#67C7BD"/>
<path d="M120.258 136.65H112.877V116.695H120.237C122.272 116.695 124.025 117.085 125.497 117.886C126.969 118.686 128.095 119.833 128.895 121.305C129.696 122.799 130.086 124.573 130.086 126.651C130.086 128.729 129.696 130.525 128.895 132.018C128.095 133.512 126.969 134.659 125.497 135.459C124.025 136.26 122.272 136.65 120.237 136.65H120.258ZM117.704 132.538H120.064C121.189 132.538 122.12 132.343 122.899 131.975C123.679 131.585 124.263 130.979 124.653 130.114C125.042 129.248 125.259 128.101 125.259 126.673C125.259 125.244 125.064 124.097 124.653 123.231C124.241 122.387 123.657 121.76 122.878 121.37C122.098 120.981 121.124 120.807 119.999 120.807H117.704V132.538Z" fill="#67C7BD"/>
<path d="M136.041 136.65H130.867L137.599 116.695H144.028L150.76 136.65H145.587L140.89 121.738H140.738L136.062 136.65H136.041ZM135.348 128.793H146.171V132.451H135.348V128.793Z" fill="#67C7BD"/>
<path d="M170.783 126.69C170.783 128.876 170.35 130.737 169.528 132.274C168.684 133.81 167.536 134.957 166.108 135.758C164.657 136.559 163.055 136.949 161.28 136.949C159.505 136.949 157.882 136.559 156.432 135.758C154.981 134.957 153.856 133.789 153.011 132.274C152.167 130.759 151.756 128.898 151.756 126.712C151.756 124.526 152.167 122.665 153.011 121.128C153.856 119.591 154.981 118.444 156.432 117.643C157.882 116.843 159.484 116.453 161.28 116.453C163.077 116.453 164.679 116.843 166.108 117.643C167.536 118.444 168.684 119.591 169.528 121.128C170.372 122.665 170.783 124.504 170.783 126.712V126.69ZM165.848 126.69C165.848 125.391 165.675 124.288 165.307 123.4C164.939 122.513 164.419 121.82 163.726 121.366C163.034 120.911 162.211 120.673 161.259 120.673C160.306 120.673 159.484 120.911 158.791 121.366C158.098 121.82 157.579 122.513 157.211 123.4C156.843 124.288 156.67 125.391 156.67 126.69C156.67 127.989 156.843 129.092 157.211 129.98C157.579 130.867 158.098 131.56 158.791 132.014C159.484 132.469 160.306 132.707 161.259 132.707C162.211 132.707 163.034 132.469 163.726 132.014C164.419 131.56 164.939 130.867 165.307 129.98C165.675 129.092 165.848 127.989 165.848 126.69Z" fill="#67C7BD"/>
</svg>
