<svg width="415" height="257" viewBox="0 0 415 257" fill="none" xmlns="http://www.w3.org/2000/svg">
<g clip-path="url(#clip0_87_35583)">
<path d="M67.236 81.6562C67.236 81.6562 62.545 86.0616 61.5377 89.4595C52.7571 141.466 50.2613 211.139 51.1784 216.898C52.0956 222.656 53.1631 226.896 53.3585 230.655L54.005 243.315C54.0351 243.901 54.5162 244.352 55.1026 244.367L69.6717 244.412C70.243 244.412 70.7242 243.976 70.7693 243.42C70.9497 241.405 71.4458 236.609 72.2878 231.211C72.6787 228.7 80.1211 211.681 80.3016 206.493" stroke="#FF9595" stroke-width="1.44338" stroke-miterlimit="10"/>
<path d="M53.3574 230.657C59.3565 230.025 65.7013 230.296 72.3018 231.198" stroke="#FF9595" stroke-width="1.44338" stroke-miterlimit="10"/>
<path d="M145.795 67.4336C145.795 67.4336 151.132 69.9445 153.147 72.8613C177.609 119.591 201.395 185.099 202.312 190.842C203.229 196.586 203.515 200.976 204.492 204.6L207.8 216.823C207.95 217.395 207.635 217.981 207.078 218.161L193.231 222.717C192.69 222.897 192.103 222.627 191.878 222.116C191.081 220.266 189.126 215.846 186.646 210.975C185.488 208.704 174.708 197.503 172.933 192.647" stroke="#FF9595" stroke-width="1.44338" stroke-miterlimit="10"/>
<path d="M205.064 206.703C199.17 207.966 193.652 210.101 187.668 213.018" stroke="#FF9595" stroke-width="1.44338" stroke-miterlimit="10"/>
<path d="M106.464 86.4518C92.7818 78.6486 82.9939 76.0324 71.7325 68.56C70.229 67.5676 71.5671 65.7484 73.0857 65.5078" stroke="#FF9595" stroke-width="1.44338" stroke-miterlimit="10"/>
<path d="M106.463 86.4534C106.463 86.4534 95.337 88.2276 89.5785 87.2503C84.647 86.4083 72.0475 82.9803 66.8303 81.5369C65.5674 81.1911 64.8156 79.9281 65.0862 78.6501C65.417 77.0865 65.7327 74.9966 65.4771 73.4029C65.1464 71.3581 65.3118 67.9 65.432 66.0206C65.4922 64.9982 66.1086 64.1111 67.0258 63.6601C71.6867 61.3898 86.6316 56.8191 103.501 54.1278C121.032 51.3462 135.03 49.7976 139.571 49.9931C140.428 50.0232 141.194 50.5193 141.585 51.2861C142.698 53.4361 144.337 57.4806 144.322 58.1572C144.292 59.4652 147.524 64.3366 147.524 64.3366C148.111 65.4192 147.569 66.7723 146.397 67.1482C142.953 68.2458 136.564 70.5462 133.812 73.2675C129.978 77.0715 120.852 82.0481 118.356 83.9425C115.86 85.837 106.463 86.4534 106.463 86.4534V86.4534Z" stroke="#FF9595" stroke-width="1.44338" stroke-miterlimit="10"/>
<path d="M106.463 86.4552C106.463 86.4552 113.845 74.2166 120.731 67.3756C127.617 60.5346 135 56.43 135.135 54.9715C135.27 53.5131 132.023 54.0243 132.023 54.0243" stroke="#FF9595" stroke-width="1.44338" stroke-miterlimit="10"/>
<path d="M75.6699 71.0442C75.6699 71.0442 78.8123 67.0599 83.7438 65.3759C88.6754 63.692 95.787 66.9997 99.9969 65.4361C104.973 63.5717 110.206 66.2179 113.739 64.0228C116.521 62.2937 123.542 60.5947 126.91 61.993" stroke="#FF9595" stroke-width="1.44338" stroke-miterlimit="10"/>
<path d="M70.8457 104.329C74.1685 113.666 73.537 145.856 74.4391 163.117C75.266 178.979 80.5735 212.417 85.7756 230.399L87.5348 241.525C87.7001 242.593 88.7075 243.329 89.79 243.164L172.814 229.978C173.852 229.813 174.588 228.866 174.468 227.813C174.167 225.227 173.747 220.296 174.032 215.048C174.468 207.395 170.724 157.854 166.83 148.457C162.816 138.745 149.856 96.4357 150.126 87.9258" stroke="#FF9595" stroke-width="1.44338" stroke-miterlimit="10"/>
<path d="M141.404 173.781C151.914 185.163 150.425 190.576 160.649 199.927" stroke="#FF9595" stroke-width="1.44338" stroke-miterlimit="10"/>
<path d="M108.147 179.672C101.321 190.617 102.449 198.887 93.668 209.938" stroke="#FF9595" stroke-width="1.44338" stroke-miterlimit="10"/>
<path d="M85.7754 230.401C111.019 224.612 146.021 219.23 173.776 216.523" stroke="#FF9595" stroke-width="1.44338" stroke-miterlimit="10"/>
<path d="M361.429 153.221C348.528 157.401 335.764 162.799 323.224 170.166C322.367 169.068 321.51 167.49 320.698 165.625C319.405 162.663 318.278 158.98 317.556 155.401C313.872 187.065 308.324 242.29 308.324 242.29L204.672 226.984L219.316 140.983C218.203 144.005 216.114 147.117 213.663 149.853C212.46 151.207 211.167 152.469 209.889 153.582C200.913 142.832 190.915 133.856 180.225 126.008C180.225 126.008 181.307 124.624 183.111 122.294C191.336 111.784 214.851 82.1499 223.03 75.8652C230.352 70.242 245.041 66.6937 252.393 65.1902C255.085 64.6339 256.784 64.3633 256.784 64.3633C274.435 75.7299 290.914 76.9327 306.671 71.7305C306.671 71.7305 308.475 72.8131 311.166 74.5571C317.045 78.361 327.179 85.3073 332.185 91.0658C332.711 91.6672 333.298 92.4941 333.974 93.5315C342.529 106.928 361.429 153.236 361.429 153.236V153.221Z" fill="#3C3C3B" stroke="#FF9595" stroke-width="1.44338" stroke-miterlimit="10"/>
<path d="M317.527 155.492C318.714 161.31 321 167.475 323.21 170.316C335.749 162.964 348.514 157.551 361.429 153.372C361.429 153.372 339.478 99.4554 332.171 91.0658C324.864 82.6611 306.641 71.7305 306.641 71.7305C290.899 76.9177 274.406 75.7299 256.754 64.3633C256.754 64.3633 232.999 68.1822 223.016 75.8652C213.032 83.5482 180.195 126.008 180.195 126.008C190.87 133.856 200.884 142.832 209.845 153.582C213.769 150.184 217.603 145.553 219.272 141.043" stroke="#FF9595" stroke-width="1.44338" stroke-miterlimit="10"/>
<path d="M333.959 93.5179C333.959 93.5179 322.667 120.551 320.051 135.962C317.435 151.358 308.309 242.276 308.309 242.276L204.656 226.97L221.947 125.347C224.593 108.914 224.743 94.0141 223.014 75.8516" stroke="#FF9595" stroke-width="1.44338" stroke-miterlimit="10"/>
<path d="M256.769 64.3477C256.769 64.3477 254.589 91.5012 277.442 94.8691C300.296 98.252 306.656 71.7149 306.656 71.7149" stroke="#FF9595" stroke-width="1.44338" stroke-miterlimit="10"/>
<path d="M252.377 65.1562C252.377 65.1562 249.295 95.2567 277.065 99.3613C304.835 103.466 311.135 74.5382 311.135 74.5382" stroke="#FF9595" stroke-width="1.44338" stroke-miterlimit="10"/>
<path d="M256.996 71.0547C272.167 79.4594 287.923 82.0003 304.357 78.0461" stroke="#FF9595" stroke-width="1.44338" stroke-miterlimit="10"/>
<path d="M183.096 122.262C194.598 130.306 204.867 139.417 213.647 149.821" stroke="#FF9595" stroke-width="1.44338" stroke-miterlimit="10"/>
<path d="M359.339 148.305C345.447 152.229 332.471 157.867 320.639 165.64" stroke="#FF9595" stroke-width="1.44338" stroke-miterlimit="10"/>
<path d="M224.083 3.27799C224.083 3.27799 223.948 2 226.91 2C229.872 2 229.405 3.27799 229.405 3.27799" stroke="#FF9595" stroke-width="1.44338" stroke-miterlimit="10"/>
<path d="M259.522 45.8263C261.432 24.4162 258.064 6.13338 228.761 3.2767C204.223 2.32948 192.09 15.9664 190.15 41.6014C192.12 41.1353 195.187 39.7069 209.561 41C225.844 42.5636 232.309 43.2101 232.309 43.2101C238.353 44.2927 244.006 45.4203 259.507 45.8413L259.522 45.8263Z" stroke="#FF9595" stroke-width="1.44338" stroke-miterlimit="10"/>
<path d="M228.76 3.27734C237.991 7.93825 234.954 25.785 232.323 43.1958" stroke="#FF9595" stroke-width="1.44338" stroke-miterlimit="10"/>
<path d="M196.689 40.4764C199.155 21.9831 205.906 6.81261 216.446 4.22656" stroke="#FF9595" stroke-width="1.44338" stroke-miterlimit="10"/>
<path d="M190.149 41.6016C190.149 41.6016 174.467 45.6761 170.423 47.4954C166.378 49.3296 165.521 53.4643 172.257 53.4643C178.993 53.4643 188.976 49.6755 188.976 49.6755" stroke="#FF9595" stroke-width="1.44338" stroke-miterlimit="10"/>
<path d="M240.608 44.5508C237.692 47.212 220.702 53.8576 208.884 53.4666C196.676 53.0607 186.918 48.3246 179.641 47.5428C172.364 46.7459 168.094 50.5949 168.094 50.5949" stroke="#FF9595" stroke-width="1.44338" stroke-miterlimit="10"/>
<path d="M284.479 152.534C272.331 158.563 260.483 165.765 249.162 174.876C248.154 173.914 247.072 172.486 246.004 170.757C244.305 168.02 242.636 164.532 241.388 161.104C242.366 192.964 244.967 248.398 244.967 248.398H140.172L142.081 161.179C141.42 164.337 139.811 167.72 137.781 170.787C136.789 172.305 135.691 173.734 134.594 175.027C124.144 165.705 112.928 158.292 101.23 152.083C101.23 152.083 102.087 150.549 103.546 147.993C110.146 136.386 129.076 103.64 136.247 96.2272C142.667 89.5967 156.695 83.9285 163.732 81.3725C166.318 80.4403 167.957 79.9141 167.957 79.9141C187.081 88.5743 203.56 87.3565 218.385 79.9141C218.385 79.9141 220.324 80.726 223.256 82.0491C229.631 84.9509 240.682 90.3485 246.47 95.3101C247.072 95.8213 247.778 96.558 248.59 97.4902C259.01 109.488 284.479 152.549 284.479 152.549V152.534Z" fill="white" stroke="#1D1D1B" stroke-width="1.44338" stroke-miterlimit="10"/>
<path d="M241.372 161.194C243.402 166.787 246.559 172.531 249.16 175.027C260.497 165.915 272.33 158.698 284.493 152.684C284.493 152.684 254.904 102.557 246.454 95.3101C238.004 88.0631 218.368 79.9141 218.368 79.9141C203.544 87.3565 187.065 88.5743 167.94 79.9141C167.94 79.9141 144.997 87.161 136.231 96.2122C127.466 105.263 101.199 152.068 101.199 152.068C112.912 158.277 124.128 165.69 134.562 175.012C137.945 171.087 141.057 165.93 142.05 161.224" stroke="#1D1D1B" stroke-width="1.44338" stroke-miterlimit="10"/>
<path d="M248.56 97.4895C248.56 97.4895 241.343 125.891 240.998 141.513C240.652 157.134 244.922 248.398 244.922 248.398H140.157L142.412 145.347C142.622 128.703 140.593 113.938 136.232 96.2266" stroke="#1D1D1B" stroke-width="1.44338" stroke-miterlimit="10"/>
<path d="M167.941 79.9141C167.941 79.9141 169.746 107.083 192.855 107.083C215.964 107.083 218.369 79.9141 218.369 79.9141" stroke="#1D1D1B" stroke-width="1.44338" stroke-miterlimit="10"/>
<path d="M163.73 81.3594C163.73 81.3594 165.084 111.58 193.154 111.58C221.225 111.58 223.225 82.036 223.225 82.036" stroke="#1D1D1B" stroke-width="1.44338" stroke-miterlimit="10"/>
<path d="M169.142 86.5156C185.38 92.6049 201.348 92.8304 217.014 86.5156" stroke="#1D1D1B" stroke-width="1.44338" stroke-miterlimit="10"/>
<path d="M103.531 147.977C116.086 154.246 127.573 161.764 137.781 170.785" stroke="#1D1D1B" stroke-width="1.44338" stroke-miterlimit="10"/>
<path d="M281.681 147.977C268.526 153.885 256.497 161.358 245.928 170.785" stroke="#1D1D1B" stroke-width="1.44338" stroke-miterlimit="10"/>
<path d="M175.897 144.024L169.868 145.437C169.658 145.482 169.447 145.572 169.267 145.678L160.216 151.211C159.073 151.902 157.599 151.346 157.194 150.083L153.931 139.799C153.871 139.603 153.781 139.423 153.675 139.258L150.368 134.416C149.616 133.304 150.097 131.785 151.36 131.334L165.764 126.132C166.034 126.042 166.275 125.891 166.47 125.696L167.117 125.095C168.139 124.132 169.823 124.463 170.394 125.756L177.326 141.197C177.852 142.37 177.175 143.738 175.927 144.039L175.897 144.024Z" fill="#009026" stroke="#1D1D1B" stroke-width="0.962252" stroke-miterlimit="10"/>
<path d="M161.119 147.477L163.284 152.318" stroke="#1D1D1B" stroke-width="0.962252" stroke-miterlimit="10" stroke-linecap="round"/>
<path d="M163.93 146.473L166.11 151.314" stroke="#1D1D1B" stroke-width="0.962252" stroke-miterlimit="10" stroke-linecap="round"/>
<path d="M166.848 144.789L169.013 149.615" stroke="#1D1D1B" stroke-width="0.962252" stroke-miterlimit="10" stroke-linecap="round"/>
<path d="M158.608 126.402L160.773 131.229" stroke="#1D1D1B" stroke-width="0.962252" stroke-miterlimit="10"/>
<path d="M161.418 125.398L163.583 130.24" stroke="#1D1D1B" stroke-width="0.962252" stroke-miterlimit="10" stroke-linecap="round"/>
<path d="M164.323 123.695L166.503 128.537" stroke="#1D1D1B" stroke-width="0.962252" stroke-miterlimit="10" stroke-linecap="round"/>
<path d="M152.834 128.988L154.999 133.83" stroke="#1D1D1B" stroke-width="0.962252" stroke-miterlimit="10" stroke-linecap="round"/>
<path d="M155.645 127.984L157.81 132.826" stroke="#1D1D1B" stroke-width="0.962252" stroke-miterlimit="10" stroke-linecap="round"/>
<path d="M158.549 126.281L160.729 131.123" stroke="#1D1D1B" stroke-width="0.962252" stroke-miterlimit="10" stroke-linecap="round"/>
<path d="M227.376 163.595C227.376 163.595 225.331 156.98 213.754 151.281" stroke="#1D1D1B" stroke-width="0.631478" stroke-miterlimit="10" stroke-linecap="round"/>
<path d="M228.625 159.387L224.596 162.334" stroke="#1D1D1B" stroke-width="0.631478" stroke-miterlimit="10" stroke-linecap="round"/>
<path d="M226.129 156.875L222.1 159.837" stroke="#1D1D1B" stroke-width="0.631478" stroke-miterlimit="10" stroke-linecap="round"/>
<path d="M223.093 154.41L219.049 157.357" stroke="#1D1D1B" stroke-width="0.631478" stroke-miterlimit="10" stroke-linecap="round"/>
<path d="M219.768 151.75L217.002 155.855" stroke="#1D1D1B" stroke-width="0.631478" stroke-miterlimit="10" stroke-linecap="round"/>
<path d="M217.439 150.352L213.334 153.133" stroke="#1D1D1B" stroke-width="0.631478" stroke-miterlimit="10" stroke-linecap="round"/>
</g>
<defs>
<clipPath id="clip0_87_35583">
<rect width="322" height="255" fill="white" transform="translate(47 2)"/>
</clipPath>
</defs>
</svg>
