<svg width="415" height="278" viewBox="0 0 415 278" fill="none" xmlns="http://www.w3.org/2000/svg">
<path d="M194.813 176.344L194.728 206.756C180.242 205.435 176.772 195.044 175.266 186.312C174.674 182.826 174.352 176.682 174.166 170.539H189.786C191.039 172.807 192.748 174.787 194.796 176.344H194.813Z" fill="#3C3C3B" stroke="#C483F8" stroke-width="1.62466" stroke-miterlimit="10"/>
<path d="M237.934 170.555C237.866 175.073 237.748 179.626 237.528 183.095C236.309 201.762 226.629 206.5 217.693 206.771V175.835C219.453 174.362 220.926 172.586 222.043 170.555H237.934Z" fill="#3C3C3B" stroke="#C483F8" stroke-width="1.62466" stroke-miterlimit="10"/>
<path d="M242.536 117.906C242.536 117.906 242.536 118.007 242.536 118.058C242.485 118.887 242.367 119.666 242.113 119.987C241.453 120.816 239.591 124.066 238.779 125.538C237.967 126.993 238.051 141.48 237.933 152.023H221.551C218.318 146.811 212.53 143.325 205.93 143.325C199.33 143.325 193.542 146.794 190.31 152.023H173.995V151.939C173.995 151.939 174.402 128.889 173.589 125.995C172.777 123.101 170.306 120.85 169.748 119.767C169.477 119.259 169.46 118.464 169.528 117.77C169.595 116.907 170.137 116.145 170.915 115.773L172.032 115.249V60.4331C172.032 50.9051 178.954 42.7648 188.364 41.3263C199.956 39.5663 211.752 39.8032 223.7 41.6648C233.126 43.1372 240.082 51.2774 240.048 60.8223L239.896 115.249C241.368 115.249 242.536 116.45 242.536 117.906Z" fill="#AD00FF" stroke="#C483F8" stroke-width="1.62466" stroke-miterlimit="10"/>
<path d="M172.033 115.25H239.897" stroke="#C483F8" stroke-width="1.62466" stroke-miterlimit="10"/>
<path d="M169.732 119.75L242.115 119.97" stroke="#C483F8" stroke-width="1.62466" stroke-miterlimit="10"/>
<path d="M172.033 123.441H239.897" stroke="#C483F8" stroke-width="1.62466" stroke-miterlimit="10"/>
<path d="M232.283 104.706C232.704 104.706 233.045 103.251 233.045 101.456C233.045 99.6618 232.704 98.207 232.283 98.207C231.862 98.207 231.521 99.6618 231.521 101.456C231.521 103.251 231.862 104.706 232.283 104.706Z" fill="#C483F8"/>
<path d="M176.5 66.2877C176.92 66.2877 177.261 64.8329 177.261 63.0384C177.261 61.2438 176.92 59.7891 176.5 59.7891C176.079 59.7891 175.738 61.2438 175.738 63.0384C175.738 64.8329 176.079 66.2877 176.5 66.2877Z" fill="#C483F8"/>
<path d="M179.564 70.7096C179.985 70.7096 180.326 69.2548 180.326 67.4603C180.326 65.6657 179.985 64.2109 179.564 64.2109C179.144 64.2109 178.803 65.6657 178.803 67.4603C178.803 69.2548 179.144 70.7096 179.564 70.7096Z" fill="#C483F8"/>
<path d="M176.5 76.0182C176.92 76.0182 177.261 74.5634 177.261 72.7689C177.261 70.9743 176.92 69.5195 176.5 69.5195C176.079 69.5195 175.738 70.9743 175.738 72.7689C175.738 74.5634 176.079 76.0182 176.5 76.0182Z" fill="#C483F8"/>
<path d="M235.006 110.322C235.426 110.322 235.767 108.927 235.767 107.208C235.767 105.488 235.426 104.094 235.006 104.094C234.585 104.094 234.244 105.488 234.244 107.208C234.244 108.927 234.585 110.322 235.006 110.322Z" fill="#C483F8"/>
<path d="M229.47 108.348C229.844 108.348 230.147 106.991 230.147 105.318C230.147 103.645 229.844 102.289 229.47 102.289C229.096 102.289 228.793 103.645 228.793 105.318C228.793 106.991 229.096 108.348 229.47 108.348Z" fill="#C483F8"/>
<path d="M255.483 258.708V262.279C255.483 263.599 254.485 264.716 253.182 264.851C221.112 268.236 189.617 268.473 158.816 264.868C157.513 264.716 156.531 263.616 156.531 262.296V258.86C156.531 257.709 157.293 256.677 158.41 256.372C164.976 254.579 181.764 254.46 194.677 253.851L194.762 176.324C192.714 174.767 191.005 172.787 189.752 170.519H169.156C168.513 170.519 167.955 170.062 167.802 169.419C166.635 163.97 166.635 158.52 167.802 153.088C167.938 152.445 168.496 151.988 169.156 151.988H190.243C193.475 146.775 199.263 143.289 205.863 143.289C212.464 143.289 218.252 146.758 221.484 151.988H242.452C243.045 151.988 243.569 152.377 243.755 152.936C245.583 158.486 245.583 164.02 243.755 169.571C243.569 170.13 243.045 170.519 242.452 170.519H221.992C220.892 172.533 219.402 174.327 217.642 175.799V253.851C230.995 254.511 246.988 254.985 253.368 256.135C254.603 256.355 255.5 257.422 255.5 258.674L255.483 258.708Z" fill="#3C3C3B" stroke="#C483F8" stroke-width="1.62466" stroke-miterlimit="10"/>
<path d="M184.964 141.87C186.815 141.87 188.315 140.369 188.315 138.519C188.315 136.668 186.815 135.168 184.964 135.168C183.114 135.168 181.613 136.668 181.613 138.519C181.613 140.369 183.114 141.87 184.964 141.87Z" stroke="#C483F8" stroke-width="1.62466" stroke-miterlimit="10"/>
<path d="M184.964 183.432C186.815 183.432 188.315 181.932 188.315 180.081C188.315 178.231 186.815 176.73 184.964 176.73C183.114 176.73 181.613 178.231 181.613 180.081C181.613 181.932 183.114 183.432 184.964 183.432Z" stroke="#C483F8" stroke-width="1.62466" stroke-miterlimit="10"/>
<path d="M226.796 141.87C228.647 141.87 230.147 140.369 230.147 138.519C230.147 136.668 228.647 135.168 226.796 135.168C224.946 135.168 223.445 136.668 223.445 138.519C223.445 140.369 224.946 141.87 226.796 141.87Z" stroke="#C483F8" stroke-width="1.62466" stroke-miterlimit="10"/>
<path d="M226.796 183.432C228.647 183.432 230.147 181.932 230.147 180.081C230.147 178.231 228.647 176.73 226.796 176.73C224.946 176.73 223.446 178.231 223.446 180.081C223.446 181.932 224.946 183.432 226.796 183.432Z" stroke="#C483F8" stroke-width="1.62466" stroke-miterlimit="10"/>
<path d="M216.425 153.395H195.423C194.236 153.395 193.273 154.357 193.273 155.544V167.306C193.273 168.493 194.236 169.455 195.423 169.455H216.425C217.612 169.455 218.574 168.493 218.574 167.306V155.544C218.574 154.357 217.612 153.395 216.425 153.395Z" stroke="#C483F8" stroke-width="1.5062" stroke-miterlimit="10"/>
<path d="M211.432 153.395H200.432C199.544 153.395 198.824 154.114 198.824 155.002V167.847C198.824 168.735 199.544 169.455 200.432 169.455H211.432C212.32 169.455 213.04 168.735 213.04 167.847V155.002C213.04 154.114 212.32 153.395 211.432 153.395Z" stroke="#C483F8" stroke-width="1.5062" stroke-miterlimit="10"/>
<path d="M210.688 127.418H201.312C200.611 127.418 200.043 127.986 200.043 128.687V129.821C200.043 130.522 200.611 131.09 201.312 131.09H210.688C211.389 131.09 211.957 130.522 211.957 129.821V128.687C211.957 127.986 211.389 127.418 210.688 127.418Z" stroke="#C483F8" stroke-width="1.62466" stroke-miterlimit="10"/>
<path d="M185.742 150.25H178.549C177.745 150.25 177.094 150.902 177.094 151.705V171.151C177.094 171.954 177.745 172.606 178.549 172.606H185.742C186.546 172.606 187.197 171.954 187.197 171.151V151.705C187.197 150.902 186.546 150.25 185.742 150.25Z" fill="#3C3C3B" stroke="#C483F8" stroke-width="1.62466" stroke-miterlimit="10"/>
<path d="M321.435 55.7589C321.435 70.3301 305.95 82.1427 286.86 82.1427C277.958 82.1427 269.852 79.5873 263.725 75.3733L253.893 80.1627L256.787 68.79C253.927 64.9484 252.285 60.4975 252.285 55.7589C252.285 41.1877 267.77 29.375 286.86 29.375C305.95 29.375 321.435 41.1877 321.435 55.7589Z" fill="#3C3C3B" stroke="#C483F8" stroke-width="1.62466" stroke-miterlimit="10"/>
<path d="M97.5332 34.8946C97.5332 48.6365 112.138 59.7892 130.162 59.7892C138.556 59.7892 146.222 57.3691 151.993 53.3921L161.267 57.9107L158.543 47.1811C161.25 43.5595 162.791 39.3624 162.791 34.8946C162.791 21.1526 148.185 10 130.162 10C112.138 10 97.5332 21.1526 97.5332 34.8946Z" fill="#3C3C3B" stroke="#C483F8" stroke-width="1.62466" stroke-miterlimit="10"/>
<path d="M81 101.455C81 85.0558 98.4313 71.7539 119.924 71.7539C129.943 71.7539 139.082 74.6309 145.97 79.3864L157.038 73.9878L153.788 86.782C157.021 91.1145 158.848 96.1069 158.848 101.438C158.848 117.837 141.417 131.139 119.924 131.139C98.4313 131.139 81 117.837 81 101.438V101.455Z" fill="#3C3C3B" stroke="#C483F8" stroke-width="1.62466" stroke-miterlimit="10"/>
<path d="M332.839 123.436C332.839 106.462 314.798 92.7031 292.561 92.7031C282.203 92.7031 272.743 95.6817 265.601 100.59L254.144 95.0047L257.512 108.256C254.178 112.724 252.266 117.919 252.266 123.436C252.266 140.411 270.306 154.17 292.544 154.17C314.781 154.17 332.822 140.411 332.822 123.436H332.839Z" fill="#3C3C3B" stroke="#C483F8" stroke-width="1.62466" stroke-miterlimit="10"/>
<path d="M178.222 95.9479C177.173 92.8678 176.648 91.3277 175.582 88.2476C177.021 87.7569 177.748 87.5199 179.221 87.0799C179.881 86.8768 180.456 86.8091 180.947 86.8599C181.438 86.8938 181.827 87.0461 182.131 87.283C182.436 87.5199 182.639 87.8415 182.741 88.2307C182.825 88.5353 182.825 88.823 182.741 89.0769C182.673 89.3477 182.538 89.5846 182.335 89.8046C182.131 90.0246 181.895 90.2108 181.607 90.3462C181.607 90.38 181.607 90.3969 181.624 90.4139C181.962 90.3292 182.301 90.3292 182.639 90.4139C182.978 90.4985 183.265 90.6508 183.502 90.8877C183.756 91.1247 183.925 91.4293 184.027 91.8016C184.128 92.2247 184.112 92.6308 183.976 93.0201C183.841 93.4093 183.587 93.7647 183.231 94.0524C182.876 94.3401 182.385 94.594 181.793 94.7632C180.354 95.1863 179.644 95.4063 178.222 95.8971V95.9479ZM178.696 90.7523C179.153 90.6169 179.373 90.5492 179.83 90.3969C180.05 90.3292 180.236 90.2277 180.388 90.1092C180.541 89.9908 180.642 89.8554 180.71 89.6861C180.761 89.5338 180.778 89.3646 180.71 89.1784C180.642 88.9246 180.473 88.7384 180.219 88.6538C179.965 88.5692 179.678 88.5692 179.322 88.6707C178.848 88.8061 178.611 88.8907 178.137 89.043C178.358 89.72 178.459 90.0585 178.679 90.7523H178.696ZM179.661 93.8155C180.151 93.6632 180.388 93.5955 180.879 93.4432C181.302 93.3078 181.59 93.1386 181.759 92.9355C181.928 92.7324 181.962 92.4785 181.878 92.1908C181.827 91.9878 181.725 91.8354 181.573 91.717C181.438 91.5985 181.251 91.5308 181.048 91.497C180.845 91.4631 180.608 91.497 180.354 91.5647C179.847 91.717 179.593 91.8016 179.085 91.9539C179.322 92.6985 179.441 93.0709 179.678 93.7986L179.661 93.8155Z" fill="white"/>
<path d="M185.532 93.8137C184.956 91.4444 184.652 90.2597 184.076 87.8904C184.872 87.6874 185.278 87.6027 186.09 87.4166C186.192 87.8566 186.242 88.0766 186.327 88.4997C186.361 88.4997 186.361 88.4997 186.395 88.4997C186.429 88.0766 186.547 87.7381 186.784 87.5012C187.004 87.2473 187.309 87.095 187.664 87.0104C187.766 86.9935 187.867 86.9766 187.969 86.9766C188.07 86.9766 188.172 86.9766 188.256 86.9766C188.392 87.6366 188.459 87.9751 188.578 88.6351C188.476 88.6351 188.341 88.6351 188.189 88.6351C188.036 88.6351 187.884 88.6689 187.766 88.6858C187.529 88.7366 187.309 88.8382 187.139 88.9735C186.97 89.1089 186.852 89.2782 186.784 89.4813C186.716 89.6843 186.699 89.9043 186.75 90.1413C187.038 91.4275 187.173 92.0875 187.461 93.3737C186.682 93.5429 186.293 93.6445 185.532 93.8306V93.8137Z" fill="white"/>
<path d="M192.795 92.463C192.152 92.5646 191.577 92.5307 191.069 92.3445C190.561 92.1753 190.138 91.8707 189.8 91.4476C189.461 91.0245 189.224 90.5168 189.106 89.9075C188.987 89.2983 189.004 88.7229 189.173 88.2152C189.343 87.7075 189.664 87.2675 190.104 86.929C190.544 86.5736 191.12 86.3536 191.813 86.2351C192.507 86.1336 193.117 86.1674 193.641 86.3705C194.166 86.5567 194.606 86.8782 194.927 87.3182C195.249 87.7583 195.452 88.2829 195.52 88.9091C195.587 89.5352 195.52 90.0937 195.334 90.5845C195.13 91.0922 194.826 91.4984 194.403 91.8199C193.98 92.1415 193.438 92.3615 192.795 92.463ZM192.575 91.0076C192.812 90.9737 192.998 90.8722 193.15 90.703C193.303 90.5337 193.387 90.3137 193.438 90.0599C193.489 89.7891 193.489 89.5014 193.438 89.1629C193.387 88.8244 193.303 88.5367 193.184 88.2998C193.049 88.0629 192.897 87.8767 192.71 87.7752C192.524 87.6567 192.304 87.6229 192.05 87.6567C191.797 87.6906 191.593 87.809 191.441 87.9783C191.289 88.1475 191.187 88.3675 191.137 88.6383C191.086 88.9091 191.086 89.1968 191.137 89.5352C191.187 89.8568 191.289 90.1445 191.424 90.3814C191.56 90.6183 191.712 90.7876 191.915 90.906C192.101 91.0245 192.321 91.0584 192.575 91.0245V91.0076Z" fill="white"/>
<path d="M198.63 91.7506C198.24 91.7844 197.885 91.7506 197.564 91.6491C197.242 91.5475 196.988 91.3783 196.785 91.1244C196.582 90.8706 196.447 90.5659 196.413 90.1598C196.379 89.8213 196.413 89.5336 196.497 89.2797C196.599 89.0259 196.751 88.8228 196.954 88.6536C197.157 88.4843 197.394 88.349 197.682 88.2474C197.97 88.1459 198.257 88.0613 198.596 88.0105C198.951 87.9428 199.256 87.892 199.476 87.8412C199.696 87.7905 199.848 87.7228 199.95 87.6551C200.051 87.5874 200.085 87.4859 200.085 87.3505C200.085 87.3505 200.085 87.3505 200.085 87.3335C200.085 87.1305 199.984 86.9781 199.831 86.8766C199.679 86.7751 199.476 86.7412 199.205 86.7581C198.934 86.7751 198.714 86.8597 198.562 86.9781C198.41 87.0966 198.308 87.2658 198.291 87.4689C197.53 87.5028 197.14 87.5366 196.379 87.5874C196.396 87.2151 196.497 86.8597 196.717 86.5551C196.937 86.2504 197.225 85.9797 197.631 85.7766C198.037 85.5735 198.528 85.4381 199.121 85.4042C199.544 85.3704 199.933 85.4043 200.305 85.455C200.661 85.5227 200.982 85.6412 201.253 85.7935C201.524 85.9458 201.744 86.1489 201.896 86.4027C202.048 86.6566 202.133 86.9274 202.15 87.2489C202.218 88.9074 202.251 89.7367 202.336 91.3952C201.591 91.429 201.219 91.446 200.491 91.4967C200.474 91.1583 200.457 90.989 200.441 90.6506C200.424 90.6506 200.407 90.6506 200.39 90.6506C200.288 90.8706 200.17 91.0398 200.001 91.209C199.831 91.3613 199.645 91.4798 199.425 91.5814C199.205 91.666 198.951 91.7167 198.664 91.7506H198.63ZM199.137 90.4306C199.357 90.4306 199.544 90.3629 199.713 90.2613C199.882 90.1598 200.017 90.0413 200.102 89.889C200.204 89.7367 200.237 89.5505 200.221 89.3644C200.221 89.1274 200.204 89.009 200.187 88.789C200.136 88.8228 200.068 88.8567 199.984 88.8905C199.899 88.9244 199.814 88.9413 199.713 88.9751C199.611 89.009 199.527 89.0259 199.425 89.0428C199.324 89.0597 199.222 89.0936 199.137 89.1105C198.951 89.1613 198.782 89.2121 198.664 89.2797C198.528 89.3474 198.444 89.4321 198.376 89.5336C198.308 89.6351 198.291 89.7536 198.308 89.889C198.325 90.0921 198.41 90.2444 198.579 90.329C198.731 90.4136 198.934 90.4644 199.154 90.4475L199.137 90.4306Z" fill="white"/>
<path d="M205.789 91.4124C205.332 91.4124 204.909 91.2939 204.537 91.0739C204.165 90.8539 203.843 90.5154 203.606 90.0415C203.369 89.5846 203.234 89.0092 203.217 88.3153C203.2 87.6046 203.302 86.9953 203.522 86.5384C203.758 86.0645 204.063 85.7091 204.469 85.4891C204.858 85.2522 205.299 85.1337 205.755 85.1337C206.111 85.1337 206.399 85.1845 206.652 85.3029C206.906 85.4214 207.109 85.5568 207.262 85.726C207.414 85.8953 207.532 86.0814 207.617 86.2676C207.634 86.2676 207.651 86.2676 207.668 86.2676C207.685 85.0322 207.702 84.4229 207.719 83.1875C208.582 83.1875 209.005 83.2213 209.868 83.2552C209.732 86.5045 209.665 88.1461 209.546 91.3785C208.768 91.3447 208.379 91.3447 207.6 91.3277C207.6 90.9385 207.6 90.7354 207.617 90.3462C207.6 90.3462 207.583 90.3462 207.549 90.3462C207.465 90.5323 207.346 90.7016 207.177 90.8708C207.025 91.04 206.822 91.1585 206.602 91.26C206.365 91.3616 206.094 91.4124 205.789 91.4124ZM206.483 89.9062C206.72 89.9062 206.94 89.8385 207.109 89.7031C207.279 89.5677 207.414 89.3815 207.515 89.1446C207.617 88.9077 207.668 88.62 207.668 88.2815C207.668 87.943 207.634 87.6553 207.532 87.4184C207.448 87.1815 207.312 86.9953 207.126 86.8599C206.94 86.7245 206.737 86.6568 206.483 86.6568C206.229 86.6568 206.009 86.7245 205.823 86.8599C205.637 86.9953 205.519 87.1815 205.417 87.4184C205.332 87.6553 205.282 87.943 205.282 88.2646C205.282 88.5861 205.332 88.8738 205.417 89.1277C205.502 89.3646 205.637 89.5508 205.806 89.6862C205.975 89.8215 206.195 89.8892 206.432 89.8892L206.483 89.9062Z" fill="white"/>
<path d="M213.66 91.7687C213 91.7179 212.458 91.5317 212.018 91.244C211.562 90.9563 211.223 90.5671 211.003 90.0763C210.783 89.5855 210.682 89.044 210.715 88.4178C210.749 87.7916 210.902 87.2501 211.189 86.7931C211.477 86.3362 211.883 85.9977 212.391 85.7608C212.899 85.5239 213.508 85.4392 214.202 85.5069C214.811 85.5577 215.336 85.71 215.776 85.9639C216.216 86.2177 216.537 86.5393 216.74 86.9454C216.943 87.3516 217.028 87.7916 216.977 88.2993C216.216 88.1978 215.826 88.1639 215.065 88.0793C215.065 87.7578 214.963 87.5039 214.811 87.3178C214.642 87.1316 214.405 87.0131 214.117 86.9793C213.88 86.9624 213.66 87.0131 213.474 87.1147C213.288 87.2331 213.135 87.4024 213.017 87.6393C212.899 87.8762 212.831 88.1809 212.797 88.5363C212.763 88.8917 212.797 89.1963 212.882 89.4501C212.966 89.704 213.085 89.9071 213.254 90.0425C213.423 90.1778 213.609 90.2625 213.846 90.2794C214.032 90.2794 214.202 90.2794 214.354 90.2117C214.506 90.144 214.642 90.0425 214.743 89.9071C214.845 89.7717 214.929 89.5855 214.98 89.3824C215.742 89.4501 216.114 89.5009 216.859 89.5855C216.774 90.0763 216.588 90.4994 216.317 90.8548C216.029 91.1933 215.674 91.4471 215.234 91.6164C214.794 91.7856 214.286 91.8364 213.711 91.7856L213.66 91.7687Z" fill="white"/>
<path d="M219.26 92.4304C218.871 92.3627 218.533 92.2611 218.245 92.075C217.957 91.9057 217.754 91.6688 217.602 91.3811C217.467 91.0934 217.416 90.7549 217.467 90.3488C217.517 90.0103 217.619 89.7395 217.771 89.5195C217.924 89.2995 218.127 89.1472 218.364 89.0287C218.6 88.9103 218.871 88.8426 219.159 88.8087C219.464 88.7749 219.768 88.7749 220.09 88.8087C220.462 88.8426 220.75 88.8595 220.987 88.8595C221.207 88.8595 221.376 88.8426 221.494 88.7918C221.613 88.741 221.681 88.6564 221.697 88.538C221.697 88.538 221.697 88.5379 221.697 88.521C221.731 88.3179 221.697 88.1487 221.562 88.0133C221.427 87.8779 221.241 87.7933 220.987 87.7425C220.716 87.6918 220.479 87.7087 220.31 87.7933C220.124 87.8779 220.005 88.0133 219.92 88.1995C219.176 88.0641 218.787 87.9964 218.042 87.861C218.144 87.5056 218.33 87.1841 218.617 86.9302C218.888 86.6764 219.26 86.4902 219.7 86.3887C220.141 86.2871 220.665 86.2871 221.241 86.3887C221.664 86.4564 222.036 86.5748 222.374 86.7271C222.713 86.8794 223.001 87.0656 223.221 87.2856C223.441 87.5056 223.61 87.7595 223.694 88.0302C223.779 88.301 223.796 88.6056 223.745 88.9103C223.424 90.5349 223.254 91.3473 222.933 92.9719C222.205 92.8196 221.833 92.7519 221.105 92.6335C221.156 92.295 221.19 92.1258 221.257 91.8042C221.241 91.8042 221.224 91.8042 221.207 91.8042C221.054 91.9904 220.885 92.1427 220.699 92.2442C220.513 92.3627 220.293 92.4304 220.056 92.4642C219.819 92.4981 219.548 92.4981 219.277 92.4473L219.26 92.4304ZM220.073 91.2796C220.293 91.3134 220.479 91.3134 220.665 91.2457C220.851 91.195 221.004 91.0934 221.139 90.9749C221.274 90.8396 221.359 90.6872 221.393 90.4842C221.427 90.2642 221.461 90.1457 221.494 89.9088C221.427 89.9257 221.359 89.9426 221.274 89.9426C221.19 89.9426 221.105 89.9426 221.004 89.9595C220.902 89.9595 220.801 89.9595 220.699 89.9595C220.597 89.9595 220.496 89.9595 220.394 89.9595C220.208 89.9595 220.039 89.9765 219.887 90.0103C219.751 90.0441 219.633 90.1118 219.548 90.1965C219.464 90.2811 219.413 90.3826 219.396 90.518C219.362 90.7211 219.413 90.8734 219.548 91.0088C219.684 91.1442 219.853 91.2119 220.09 91.2626L220.073 91.2796Z" fill="white"/>
<path d="M230.551 90.4471C229.806 90.261 229.434 90.1594 228.69 89.9902C228.69 89.8717 228.69 89.7363 228.622 89.6179C228.554 89.4994 228.47 89.3979 228.351 89.3133C228.233 89.2286 228.08 89.1609 227.894 89.1102C227.657 89.0594 227.454 89.0425 227.268 89.1102C227.082 89.1609 226.98 89.2625 226.946 89.4148C226.913 89.5333 226.946 89.6517 227.031 89.7533C227.116 89.8548 227.285 89.9733 227.539 90.0917C228.013 90.2948 228.233 90.3964 228.706 90.6164C229.299 90.8871 229.722 91.2087 229.959 91.5472C230.196 91.8856 230.247 92.2749 230.128 92.7149C230.01 93.1211 229.79 93.4257 229.468 93.6626C229.146 93.8995 228.74 94.0349 228.283 94.0857C227.826 94.1365 227.319 94.0857 226.777 93.9672C225.914 93.7472 225.271 93.4257 224.848 92.9687C224.425 92.5118 224.239 91.9703 224.289 91.3779C225.068 91.5302 225.474 91.5979 226.253 91.7672C226.253 91.9872 226.32 92.1903 226.473 92.3426C226.625 92.4949 226.845 92.6134 227.116 92.681C227.369 92.7487 227.589 92.7487 227.759 92.698C227.945 92.6472 228.046 92.5457 228.097 92.3933C228.131 92.258 228.097 92.1395 227.996 92.021C227.894 91.9026 227.725 91.801 227.471 91.6826C227.065 91.4964 226.845 91.4118 226.439 91.2256C225.846 90.9718 225.423 90.6671 225.169 90.3117C224.932 89.9563 224.848 89.5333 224.949 89.0932C225.034 88.704 225.22 88.3825 225.508 88.1455C225.796 87.9086 226.185 87.7732 226.642 87.7224C227.099 87.6717 227.64 87.7224 228.216 87.8578C229.096 88.0778 229.739 88.4332 230.162 88.8902C230.568 89.364 230.72 89.8887 230.602 90.4979L230.551 90.4471Z" fill="white"/>
<path d="M235.83 90.1401C235.644 90.6817 235.559 90.9525 235.373 91.494C233.799 90.9525 233.004 90.6986 231.396 90.2417C231.548 89.6832 231.633 89.4124 231.802 88.8709C233.427 89.3447 234.239 89.5986 235.847 90.1401H235.83ZM233.071 87.7201C233.901 87.9739 234.324 88.0924 235.136 88.3631C234.442 90.5124 234.087 91.5786 233.393 93.7279C233.359 93.8464 233.342 93.931 233.359 94.0156C233.359 94.1002 233.41 94.1679 233.478 94.2187C233.545 94.2695 233.63 94.3202 233.731 94.3541C233.799 94.371 233.884 94.4049 233.968 94.4049C234.053 94.4049 234.121 94.4218 234.171 94.4387C234.104 95.0141 234.07 95.3018 234.002 95.8603C233.901 95.8603 233.765 95.8434 233.596 95.8264C233.427 95.8095 233.224 95.7587 232.987 95.708C232.53 95.5895 232.174 95.4034 231.887 95.1834C231.616 94.9633 231.43 94.6926 231.328 94.3879C231.244 94.0833 231.261 93.7279 231.379 93.3218C232.056 91.0709 232.394 89.954 233.071 87.7031V87.7201Z" fill="white"/>
<path d="M188.491 80H184.623V69.0909H188.522C189.62 69.0909 190.564 69.3093 191.356 69.7461C192.148 70.1793 192.757 70.8026 193.183 71.6158C193.613 72.429 193.828 73.402 193.828 74.5348C193.828 75.6712 193.613 76.6477 193.183 77.4645C192.757 78.2812 192.145 78.908 191.346 79.3448C190.55 79.7816 189.598 80 188.491 80ZM186.93 78.0238H188.395C189.076 78.0238 189.65 77.9031 190.115 77.6616C190.584 77.4165 190.935 77.0384 191.17 76.527C191.408 76.0121 191.527 75.348 191.527 74.5348C191.527 73.7287 191.408 73.07 191.17 72.5586C190.935 72.0472 190.586 71.6708 190.121 71.4293C189.655 71.1879 189.082 71.0671 188.4 71.0671H186.93V78.0238ZM197.543 69.0909V80H195.236V69.0909H197.543ZM199.141 80V69.0909H203.445C204.268 69.0909 204.972 69.2383 205.554 69.533C206.14 69.8242 206.585 70.2379 206.891 70.7741C207.2 71.3068 207.354 71.9336 207.354 72.6545C207.354 73.3789 207.198 74.0021 206.886 74.5241C206.573 75.0426 206.12 75.4403 205.527 75.7173C204.938 75.9943 204.224 76.1328 203.386 76.1328H200.504V74.2791H203.013C203.453 74.2791 203.819 74.2187 204.11 74.098C204.402 73.9773 204.618 73.7962 204.76 73.5547C204.906 73.3132 204.979 73.0131 204.979 72.6545C204.979 72.2923 204.906 71.9869 204.76 71.7383C204.618 71.4897 204.4 71.3015 204.105 71.1737C203.814 71.0423 203.446 70.9766 203.002 70.9766H201.447V80H199.141ZM205.032 75.0355L207.743 80H205.197L202.544 75.0355H205.032ZM208.269 70.9925V69.0909H217.228V70.9925H213.888V80H211.609V70.9925H208.269ZM217.765 69.0909H220.348L222.836 73.7891H222.942L225.43 69.0909H228.013L224.034 76.1435V80H221.744V76.1435L217.765 69.0909Z" fill="white"/>
</svg>
