<svg width="184" height="65" viewBox="0 0 184 65" fill="none" xmlns="http://www.w3.org/2000/svg">
<g id="Group 35979">
<path id="Vector" d="M5.9306 33.9303C4.91153 39.7831 17.625 43.2802 20.8771 44.2046C33.9247 47.9134 47.2785 50.3748 60.7103 51.8505C70.1938 52.8974 79.6774 53.3764 89.1554 53.3764C106.831 53.3764 124.483 51.7057 142.014 48.8879C151.085 47.4345 160.58 46.0702 169.189 42.5897C172.369 41.3033 177.899 38.5078 176.841 33.9693C176.841 33.9582 176.852 33.9582 176.857 33.9526C176.857 34.0027 176.874 34.0528 176.902 34.0918C181.162 39.2874 178.367 44.7559 173.655 48.0192C169.674 50.7757 164.896 52.0454 160.324 53.1926C147.148 56.506 133.477 58.3882 120.017 59.7693C110.111 60.7883 100.154 61.3174 90.1912 61.3174C72.5327 61.3174 54.8798 59.6579 37.5388 56.1384C30.0878 54.6237 22.3862 53.0255 15.236 50.2913C12.3347 49.1831 9.55028 47.6127 7.34506 45.3017C4.28783 42.1052 3.90358 37.6224 5.93617 33.9303M5.93617 30.6837C4.77788 30.6837 3.67527 31.3019 3.09055 32.3655C0.295041 37.4442 1.04682 43.4027 5.00062 47.5403C7.33393 49.985 10.3076 51.8784 14.0832 53.3207C21.679 56.2275 29.7648 57.8703 36.8984 59.3182C54.0445 62.7987 71.9814 64.5639 90.1967 64.5639C100.126 64.5639 110.272 64.0349 120.357 62.9991C137.091 61.2784 149.66 59.2291 161.126 56.3389C165.481 55.2419 170.899 53.8775 175.51 50.6866C179.28 48.0805 181.635 44.6223 182.153 40.9581C182.571 37.9788 181.73 35.0329 179.72 32.4156C179.336 31.7084 178.695 31.1515 177.904 30.8787C177.565 30.7617 177.208 30.706 176.863 30.706C176.05 30.706 175.259 31.0123 174.652 31.5747C174.34 31.8643 174.084 32.2151 173.906 32.5938C173.6 33.2509 173.522 33.9971 173.683 34.7044C174.19 36.8818 169.445 38.9867 167.975 39.577C160.279 42.6899 151.664 44.0599 143.328 45.3852L141.502 45.6748C122.857 48.6652 105.739 50.1186 89.1554 50.1186C79.5883 50.1186 70.1382 49.6119 61.0667 48.6151C47.2284 47.0948 34.0082 44.5555 21.7681 41.075L21.5788 41.0193C19.9638 40.5627 16.1771 39.4879 13.0864 37.9175C9.7786 36.2413 9.05467 34.9327 9.13263 34.4761C9.4055 32.9112 8.50893 31.3854 7.01094 30.8564C6.66011 30.7339 6.29257 30.6726 5.93617 30.6726V30.6837Z" fill="black"/>
<path id="Vector_2" d="M179.687 28.1332C179.392 30.6614 177.693 32.7107 175.906 34.2588C172.581 37.1434 168.226 38.6637 164.133 39.8053C151.069 43.4584 137.375 45.3239 123.96 46.8553C96.5065 49.9793 68.596 49.3445 41.3982 44.2046C33.9361 42.7957 26.5464 40.997 19.2402 38.8586C12.541 36.8984 2.19432 31.3241 6.19825 21.9853C6.35417 22.1357 6.5101 22.286 6.66602 22.4308C7.31756 25.6106 10.5864 27.4371 13.1146 28.6901C18.6611 31.4355 25.0206 32.6606 30.9569 34.0806C44.1548 37.2381 57.6033 39.1816 71.1019 40.1561C98.3497 42.1441 125.72 39.7496 152.556 34.5929C159.862 33.1896 168.416 31.9311 174.675 27.3647C176.073 26.3401 177.676 24.6137 177.671 22.6647C177.671 22.2582 177.61 21.8739 177.504 21.512C179.013 23.3886 179.999 25.4045 179.692 28.1332H179.687Z" fill="#E9B82E"/>
<path id="Vector_3" d="M177.498 21.512C179.007 23.3886 179.993 25.4045 179.687 28.1332C179.391 30.6614 177.693 32.7107 175.905 34.2588C172.581 37.1434 168.226 38.6637 164.133 39.8053C151.069 43.4583 137.375 45.3239 123.96 46.8553C112.99 48.1027 101.941 48.7542 90.9042 48.7542C74.3149 48.7542 57.7312 47.2896 41.4037 44.2046C33.9416 42.7957 26.5519 40.997 19.2457 38.8586C12.5465 36.8984 2.19978 31.3241 6.20371 21.9853C6.35963 22.1357 6.51555 22.286 6.67148 22.4308C7.32302 25.6105 10.5919 27.4371 13.1201 28.6901C18.6665 31.4354 25.026 32.6606 30.9623 34.0806C44.1602 37.2381 57.6087 39.1816 71.1073 40.1561C77.5671 40.6294 84.0324 40.8522 90.4977 40.8522C111.302 40.8522 132.085 38.5245 152.567 34.5929C159.873 33.1896 168.427 31.9311 174.686 27.3647C176.084 26.3401 177.687 24.6137 177.682 22.6647C177.682 22.2582 177.621 21.8739 177.515 21.512M177.515 18.2654C177.008 18.2654 176.496 18.3823 176.017 18.6329C174.641 19.3457 173.967 20.9328 174.402 22.4197C174.435 22.5422 174.441 22.6201 174.441 22.6647C174.441 23.0267 173.923 23.9009 172.77 24.7474C167.692 28.4506 160.435 29.8149 154.037 31.0122C153.335 31.1459 152.645 31.274 151.96 31.4076C130.542 35.5229 109.866 37.6112 90.5033 37.6112C84.0491 37.6112 77.6061 37.3773 71.3524 36.9262C57.4862 35.9183 44.1547 33.9024 31.7308 30.9287C30.8565 30.7171 29.9711 30.5166 29.0801 30.305C24.1072 29.1523 18.9673 27.9606 14.5735 25.7832C12.4351 24.7251 10.1965 23.4165 9.86237 21.7793C9.72315 21.0943 9.36675 20.4762 8.84329 20.0084C8.76532 19.9416 8.69293 19.8692 8.62054 19.7968L8.44234 19.6242C7.83535 19.0506 7.03345 18.7387 6.21484 18.7387C5.99766 18.7387 5.77491 18.761 5.55773 18.8055C4.52195 19.0227 3.65322 19.73 3.23557 20.7045C1.70417 24.2796 1.6986 27.8826 3.23 31.118C6.49328 38.04 15.6316 41.1752 18.3547 41.9715C25.8613 44.1656 33.4181 45.9921 40.819 47.3899C56.9906 50.4471 73.8472 51.9952 90.9265 51.9952C101.93 51.9952 113.174 51.3493 124.35 50.074C137.592 48.5649 151.687 46.6548 165.03 42.9293C169.306 41.732 174.196 40.0559 178.061 36.709C180.956 34.192 182.599 31.4299 182.939 28.5063C183.423 24.2295 181.524 21.3059 180.06 19.4794C179.425 18.6886 178.484 18.2654 177.526 18.2654H177.515Z" fill="black"/>
<path id="Vector_4" d="M41.4091 51.3327C40.8411 50.9652 40.1227 50.7591 39.4601 50.9262C38.5746 51.1433 37.8563 52.1903 38.6582 53.0479C39.1649 53.5936 40.0838 54.0892 40.83 53.8832C42.0273 53.549 42.4226 52.1736 41.4091 51.3383V51.3327Z" fill="#00B3D5"/>
<path id="Vector_5" d="M79.0484 56.1665C78.3968 55.8713 77.684 55.8379 77.0102 56.0941C75.7294 56.7233 76.0579 58.6557 77.4501 58.8339C78.1017 58.9174 78.937 58.8228 79.4437 58.3271C80.151 57.6366 79.9059 56.5563 79.0484 56.1665Z" fill="#6DB320"/>
<path id="Vector_6" d="M10.6752 25.0927C10.2464 25.3321 9.82879 25.5883 9.42227 25.8612C9.41114 25.8723 9.4 25.8834 9.38886 25.8946C8.40876 25.0648 7.59016 24.068 7.18921 22.8596C8.26398 23.7339 9.43898 24.469 10.6752 25.0871V25.0927Z" fill="#D8A636"/>
<path id="Vector_7" d="M109.275 26.9083C108.746 27.0029 108.067 27.3037 107.955 27.9385C107.777 28.9687 108.551 29.7539 109.459 29.9042C110.205 29.9488 111.163 29.598 111.308 28.7014C111.386 28.2169 111.274 27.7213 110.918 27.3928C110.478 26.9807 109.854 26.8136 109.275 26.9138V26.9083Z" fill="#6DB320"/>
<path id="Vector_8" d="M72.2321 28.8517C71.5471 28.5287 70.5726 28.5064 69.9489 29.0188C69.1748 29.6536 69.2027 30.7896 69.9767 31.4133C70.7118 31.8143 72.0205 31.8366 72.5606 31.0514C73.0451 30.3441 73.1064 29.2638 72.2321 28.8517Z" fill="#C86600"/>
<path id="Vector_9" d="M33.6293 25.4493C33.0836 25.3992 32.3262 25.5273 32.0756 26.1287C31.6691 27.0865 32.265 28.0276 33.1059 28.3952C33.763 28.5901 34.6261 28.5622 35.0494 27.8773C35.3556 27.3817 35.4058 26.758 35.0716 26.2679C34.7375 25.7834 34.1918 25.4939 33.6349 25.4438L33.6293 25.4493Z" fill="#FF7072"/>
<path id="Vector_10" d="M119.622 54.3566C118.932 54.1672 118.068 54.2174 117.478 54.6851C116.715 55.2866 116.665 56.4616 117.617 56.9238C118.224 57.2189 119.149 57.3693 119.761 56.9962C120.858 56.3279 120.83 54.8466 119.622 54.3566Z" fill="#FF7072"/>
<path id="Vector_11" d="M69.4422 28.924C70.2218 28.1277 71.6697 27.8659 72.5941 28.5676C73.4405 29.2191 73.5241 30.4999 72.8335 31.3352C72.789 31.3909 72.7333 31.4466 72.6832 31.4912C71.9314 32.243 70.6952 32.3153 69.7875 31.8142C69.7763 31.803 69.7707 31.7975 69.7596 31.7863H69.7485C69.6204 31.6861 69.509 31.5691 69.4088 31.4411C68.8797 30.7283 68.7962 29.5922 69.4422 28.924ZM49.9516 28.278C50.2523 27.4483 51.0988 27.0529 51.9062 27.0807C52.8529 27.1141 53.7161 27.6487 53.9722 28.6623C54.1671 29.4252 53.8831 30.0433 53.3931 30.4498C52.8863 30.8675 52.1791 31.0679 51.5443 30.9733C51.0598 30.8452 50.6031 30.5445 50.2802 30.1268C49.8848 29.6256 49.701 28.9574 49.946 28.278H49.9516ZM17.0348 25.399C17.0348 25.399 17.0181 25.3878 17.0125 25.3878C17.0014 25.3878 16.9958 25.3878 16.9847 25.3878C16.5503 25.2096 16.1549 24.8477 15.8932 24.4133C15.7317 24.1516 15.6259 23.862 15.5869 23.5669C15.5424 23.2216 15.5869 22.8652 15.7651 22.5255C16.1772 21.7459 17.0348 21.4452 17.8478 21.6011C18.7277 21.7737 19.5073 22.3529 19.6855 23.3274C19.7635 23.7673 19.7078 24.1516 19.5519 24.4634C19.3681 24.8254 19.0618 25.1038 18.6887 25.2765C18.182 25.5215 17.5694 25.5772 17.0292 25.4101L17.0348 25.399ZM33.0059 28.8349C33.0059 28.8349 32.9948 28.8237 32.9837 28.8237C32.9725 28.8237 32.967 28.8237 32.9558 28.8237C32.7052 28.7179 32.4658 28.5564 32.2542 28.3504C31.9423 28.0441 31.7029 27.6543 31.5971 27.2311C31.4912 26.8134 31.5191 26.3679 31.7363 25.9558C32.1428 25.1762 33.0059 24.8755 33.8134 25.0314C34.6933 25.1985 35.4729 25.7832 35.6511 26.7522C35.7402 27.2311 35.6622 27.6376 35.4729 27.9662C35.2613 28.3448 34.8993 28.6177 34.4872 28.7792C34.0195 28.963 33.4793 28.9908 32.9948 28.8405L33.0059 28.8349ZM91.5612 31.3352C91.5167 31.3909 91.4665 31.4411 91.422 31.4856C91.2995 31.6137 91.1658 31.7195 91.0155 31.803C90.4809 32.126 89.8182 32.2095 89.2112 32.0759C88.9718 32.0202 88.7379 31.9367 88.5207 31.8142C88.5096 31.803 88.4984 31.7975 88.4928 31.7863H88.4817C88.2534 31.6137 88.0641 31.3631 87.936 31.0902C87.6018 30.3941 87.6241 29.492 88.1754 28.924C88.955 28.1277 90.4029 27.8659 91.3273 28.5676C92.1682 29.2191 92.2573 30.4999 91.5668 31.3352H91.5612ZM109.387 30.3496C108.24 30.1602 107.293 29.0409 107.621 27.7657C107.844 26.897 108.796 26.4292 109.593 26.4403C110.434 26.457 111.43 26.8914 111.653 27.8548C111.998 29.3918 110.757 30.4331 109.392 30.3496H109.387ZM145.238 20.7714C146.068 20.5486 147.187 20.7379 147.605 21.6401C147.911 22.3028 147.856 22.9376 147.577 23.4611C147.254 24.0513 146.636 24.4857 145.918 24.6082C145.377 24.6472 144.837 24.4801 144.42 24.1571C143.941 23.7952 143.623 23.2272 143.651 22.5199C143.69 21.6234 144.475 20.9718 145.238 20.7714ZM130.659 27.6599C130.359 27.8826 129.997 28.0441 129.601 28.111C129.256 28.1388 128.9 28.0775 128.582 27.9383C128.254 27.8047 127.964 27.5819 127.741 27.3035C127.468 26.9638 127.313 26.5239 127.335 26.0171C127.374 25.1205 128.159 24.4746 128.922 24.2685C129.752 24.0458 130.871 24.2351 131.289 25.1428C131.545 25.6941 131.545 26.2399 131.372 26.7076C131.238 27.0807 130.988 27.4037 130.665 27.6487L130.659 27.6599ZM163.704 19.9138C163.671 19.9138 163.643 19.9138 163.604 19.9138C163.064 19.9305 162.529 19.7411 162.128 19.3959C161.694 19.0339 161.41 18.4826 161.438 17.8199C161.477 16.9234 162.262 16.2774 163.025 16.0713C163.855 15.8486 164.974 16.0379 165.392 16.9456C165.575 17.3466 165.631 17.742 165.575 18.1039C165.497 18.6998 165.135 19.2121 164.629 19.5518C164.356 19.7244 164.038 19.8525 163.699 19.9138H163.704ZM175.198 3.24097C175.198 3.24097 175.181 3.24097 175.176 3.2521C175.176 3.2521 175.172 3.2521 175.165 3.2521C175.772 5.66894 174.285 7.79063 172.503 9.21065C168.621 12.3124 163.738 13.777 159.11 15.1247C146.274 18.839 132.97 21.3505 119.795 23.255C115.334 23.901 110.851 24.4523 106.357 24.9034C106.346 24.9034 106.346 24.9034 106.335 24.9034H106.307C83.8318 27.1643 61.0891 26.9248 38.7473 23.4833C37.0154 23.216 35.2891 22.932 33.5628 22.6313C33.5238 22.6424 33.4904 22.648 33.4514 22.6592C33.3735 22.6703 33.3234 22.6424 33.2955 22.5868C28.4619 21.7347 23.6449 20.7435 18.8669 19.5796C14.657 18.5494 9.46132 17.419 6.22588 14.1111C4.80586 12.6577 4.2991 11.3323 4.42718 10.1184C2.5004 13.6935 2.8735 17.9257 5.80823 21.0164C8.24177 23.578 11.3992 25.1818 14.6514 26.2231C20.8048 28.2 27.259 29.4252 33.6352 30.4944C33.6352 30.4944 33.6463 30.4944 33.6519 30.4944C33.702 30.4832 33.741 30.4944 33.7689 30.5222C34.5596 30.6559 35.356 30.7895 36.1467 30.9176C63.6396 35.4116 91.7617 35.2334 119.305 31.2461C125.419 30.3607 131.573 29.1913 137.704 28.0163C143.518 26.9025 149.303 25.722 155 24.224C155.028 24.2017 155.062 24.185 155.106 24.185C155.117 24.185 155.128 24.185 155.139 24.185C156.849 23.7339 158.553 23.2606 160.246 22.7427C161.215 22.4475 162.201 22.1413 163.175 21.8183C163.186 21.8183 163.192 21.8071 163.203 21.8071C166.539 20.6934 169.835 19.3235 172.664 17.1461C177.197 13.6489 179.519 8.09691 175.193 3.24097H175.198Z" fill="#E9B82E"/>
<path id="Vector_12" d="M146.797 21.3728C146.28 21.072 145.645 21.0442 145.093 21.2781C144.603 21.4897 143.996 21.9352 144.019 22.5756C144.058 23.617 144.965 24.2295 145.884 24.1627C146.591 24.0458 147.382 23.5668 147.432 22.7148C147.466 22.1802 147.249 21.6401 146.797 21.3728Z" fill="#00B3D5"/>
<path id="Vector_13" d="M176.902 34.0919C176.874 34.0529 176.857 34.0028 176.857 33.9527C176.857 33.9527 176.846 33.9638 176.841 33.9694C177.899 38.5079 172.369 41.3034 169.189 42.5898C160.575 46.0703 151.08 47.4346 142.014 48.8881C115.078 53.2094 87.8691 54.841 60.7103 51.8506C47.2785 50.3749 33.9247 47.9135 20.8772 44.2047C17.625 43.2803 4.91717 39.7832 5.93068 33.9304C3.89809 37.6225 4.2879 42.0998 7.33957 45.3018C9.55036 47.6128 12.3292 49.1832 15.2305 50.2914C22.3807 53.0256 30.0823 54.6238 37.5333 56.1385C64.653 61.6405 92.5468 62.5983 120.012 59.7694C133.471 58.3883 147.148 56.5061 160.318 53.1927C164.885 52.04 169.663 50.7759 173.65 48.0193C178.361 44.756 181.157 39.2875 176.896 34.0919H176.902ZM158.225 48.8491C158.698 47.7576 159.862 47.223 160.948 47.2731C162.061 47.429 162.83 48.5651 162.401 49.7011C162.379 49.7679 162.357 49.8292 162.323 49.896C161.822 50.9039 160.68 51.3773 159.633 51.1879C159.322 51.1322 159.015 50.9875 158.759 50.787C158.202 50.3471 157.885 49.6287 158.219 48.8546L158.225 48.8491ZM137.971 52.3017C138.634 51.3717 139.87 51.1044 140.906 51.394C140.917 51.394 140.917 51.4051 140.934 51.4051C140.934 51.4051 140.945 51.4051 140.956 51.4051C142.081 51.8395 142.587 53.3096 141.719 54.3231C141.68 54.3677 141.641 54.4122 141.596 54.4512C140.883 55.1584 139.775 55.3088 138.873 54.9023C138.845 54.8911 138.812 54.88 138.79 54.8689C137.893 54.4345 137.297 53.2372 137.982 52.2906L137.971 52.3017ZM38.5802 50.865C39.4879 50.2245 40.7019 50.3415 41.604 50.9429C41.6151 50.9429 41.6151 50.954 41.6207 50.9596C41.6319 50.9596 41.6374 50.9596 41.643 50.9708C42.5396 51.6947 42.7178 53.1648 41.7042 53.9166C41.6263 53.9723 41.5483 54.0224 41.4648 54.067C40.5348 54.5737 39.2986 54.3343 38.5523 53.5324C38.5412 53.5212 38.5245 53.5045 38.5134 53.4878C37.873 52.7639 37.6948 51.4942 38.5858 50.8594L38.5802 50.865ZM17.87 46.0647C18.7499 45.3742 19.9695 45.441 20.8939 45.9923C21.8406 46.6773 22.1246 48.1363 21.1111 48.9604C21.0108 49.044 20.9106 49.1108 20.8048 49.1721C19.9305 49.6621 18.8 49.4839 18.026 48.8045C17.8923 48.6931 17.7809 48.5595 17.6807 48.4091C17.1907 47.6908 17.1183 46.6606 17.87 46.0647ZM56.8289 57.4138C56.5282 57.2857 56.2498 57.1019 56.0159 56.868C55.8433 56.701 55.6985 56.4949 55.5927 56.2722C55.253 55.5761 55.2753 54.6962 55.9714 54.1951C56.9069 53.5268 58.1654 53.6437 59.1177 54.2229C59.9029 54.802 60.2537 55.9214 59.7303 56.74C59.6244 56.9126 59.4852 57.0685 59.2959 57.2022C59.023 57.4027 58.7167 57.5363 58.3882 57.5976C57.8703 57.7034 57.3134 57.631 56.8234 57.4194L56.8289 57.4138ZM79.3211 58.9285C78.4245 59.4241 77.3052 59.4965 76.5089 58.8561C76.3808 58.7503 76.2638 58.6278 76.1525 58.483C75.991 58.2714 75.8852 58.0486 75.8295 57.8203C75.6123 56.9739 76.0856 56.0829 76.8875 55.6875C77.8342 55.3255 79.2654 55.3979 79.9114 56.3502C80.2399 56.8291 80.3067 57.4082 80.1452 57.9205C80.0172 58.3326 79.7443 58.6946 79.3433 58.9173C79.3322 58.9285 79.3266 58.9285 79.3155 58.934L79.3211 58.9285ZM101.563 58.3382C100.577 59.0677 99.1402 59.051 98.3383 58.0709C97.5587 57.1242 98.0042 55.8545 98.9342 55.2921C99.8252 54.8633 101.262 54.7853 101.969 55.6541C102.693 56.5451 102.437 57.6922 101.568 58.3382H101.563ZM120.535 56.8625C119.817 57.7034 118.575 57.8871 117.601 57.4082C116.704 56.9739 116.108 55.7766 116.793 54.8299C117.461 53.8999 118.698 53.6326 119.728 53.9222C119.739 53.9222 119.745 53.9333 119.756 53.9333C119.767 53.9333 119.767 53.9333 119.778 53.9333C120.903 54.3677 121.415 55.8378 120.546 56.8513L120.535 56.8625Z" fill="#E9B82E"/>
<path id="Vector_14" d="M160.875 47.7129C160.09 47.6795 159.099 48.0303 158.676 48.7876C158.18 49.6842 158.793 50.6309 159.706 50.7367C160.43 50.8202 161.415 50.6587 161.844 49.9571C162.451 48.9658 161.989 47.8688 160.87 47.7129H160.875Z" fill="#C86600"/>
<path id="Vector_15" d="M91.088 31.107C87.8692 30.9289 84.6171 31.3187 81.3928 31.4189C78.1573 31.5136 74.9219 31.5247 71.692 31.4802C65.2212 31.3911 58.7614 30.9901 52.324 30.3386C45.6582 29.6703 39.0258 28.6568 32.438 27.3871C26.0674 26.162 19.8081 24.3522 13.4486 23.1103C13.198 23.0602 13.1089 23.4111 13.3484 23.5002C19.4127 25.7945 25.878 27.0753 32.1985 28.3227C38.6026 29.5868 45.0568 30.5335 51.5332 31.2407C58.238 31.9702 64.9706 32.36 71.7087 32.4825C74.9442 32.5438 78.1796 32.5104 81.4095 32.4324C84.6616 32.3489 87.9862 32.399 91.1882 31.7697C91.578 31.6918 91.4388 31.1238 91.088 31.107Z" fill="white"/>
<path id="Vector_16" d="M93.5547 57.8312C90.3416 57.5806 87.0783 57.8981 83.854 57.9203C80.6186 57.9426 77.3831 57.8758 74.1532 57.7588C67.6879 57.5194 61.2338 56.9681 54.813 56.1718C48.1639 55.3476 41.5539 54.1837 34.9939 52.7637C28.6511 51.3882 22.4308 49.4392 16.0992 48.047C15.8486 47.9913 15.7539 48.3421 15.9934 48.4368C22.0132 50.8703 28.4451 52.3015 34.7377 53.6937C41.1139 55.1081 47.5458 56.1996 54.0056 57.0572C60.6936 57.9426 67.4151 58.4884 74.1532 58.7668C77.3831 58.9004 80.6186 58.945 83.854 58.9394C87.1061 58.9339 90.4307 59.0564 93.6438 58.4995C94.0336 58.4327 93.9056 57.8591 93.5603 57.8368L93.5547 57.8312Z" fill="white"/>
<path id="Vector_17" d="M94.6183 44.3048C91.4052 44.0542 88.1419 44.3772 84.9176 44.405C81.6821 44.4329 78.4467 44.3716 75.2168 44.2547C68.7515 44.0263 62.2974 43.4806 55.871 42.6954C49.222 41.8824 42.6063 40.7241 36.0463 39.3152C29.698 37.9509 23.4777 36.0074 17.146 34.6263C16.8954 34.5706 16.8008 34.9215 17.0402 35.0161C23.06 37.4441 29.4975 38.8641 35.7902 40.2507C42.1664 41.6541 48.6038 42.74 55.0636 43.5864C61.7516 44.4607 68.4787 45.0009 75.2113 45.2682C78.4411 45.3963 81.6766 45.4408 84.912 45.4241C88.1641 45.413 91.4887 45.5299 94.7018 44.973C95.0917 44.9062 94.9636 44.3326 94.6183 44.3104V44.3048Z" fill="white"/>
<path id="Vector_18" d="M170.604 14.9242C168.003 17.4134 164.829 18.4604 161.527 19.602C157.823 20.8828 154.053 21.9353 150.244 22.8374C146.708 23.6727 143.172 24.4579 139.591 25.0983C135.805 25.7721 131.506 26.8079 127.557 27.3258C127.117 27.3815 127.268 28.0943 127.669 28.0497C131.84 27.5708 136.133 26.7467 139.887 26.0951C144.007 25.3823 148.123 24.5247 152.155 23.3887C156.136 22.2638 160.123 21.1445 164.033 19.7635C166.7 18.8223 169.334 17.6084 171.099 15.2862C171.328 14.991 170.838 14.6959 170.604 14.9187V14.9242Z" fill="white"/>
<path id="Vector_19" d="M175.164 31.3017C172.519 33.7408 169.328 34.7209 166.004 35.8012C162.278 37.0097 158.492 37.9842 154.666 38.8084C151.113 39.5713 147.566 40.2896 143.979 40.8521C140.182 41.4535 135.866 42.4002 131.906 42.8401C131.467 42.8902 131.606 43.603 132.001 43.5641C136.178 43.1687 140.488 42.428 144.252 41.86C148.384 41.2308 152.516 40.4567 156.565 39.4042C160.569 38.3573 164.573 37.3215 168.504 36.0184C171.183 35.133 173.845 33.9691 175.649 31.6859C175.883 31.3964 175.398 31.0901 175.159 31.3128L175.164 31.3017Z" fill="white"/>
<path id="Vector_20" d="M172.197 45.0009C169.551 47.44 166.361 48.4201 163.036 49.5005C159.311 50.7089 155.524 51.6834 151.698 52.5076C148.145 53.2705 144.598 53.9889 141.012 54.5513C137.214 55.1527 132.898 56.0994 128.939 56.5393C128.499 56.5895 128.638 57.3023 129.033 57.2633C133.21 56.8679 137.52 56.1273 141.285 55.5592C145.417 54.93 149.549 54.1559 153.597 53.1034C157.601 52.0565 161.605 51.0207 165.536 49.7176C168.215 48.8322 170.877 47.6683 172.681 45.3852C172.915 45.0956 172.431 44.7893 172.191 45.0121L172.197 45.0009Z" fill="white"/>
<g id="Group">
<path id="Vector_21" d="M72.5941 28.5671C71.6752 27.8599 70.2273 28.1272 69.4422 28.9235C68.7962 29.5862 68.8797 30.7222 69.4087 31.4406C69.509 31.5687 69.6204 31.6856 69.7484 31.7859H69.7596C69.7707 31.797 69.7763 31.8026 69.7874 31.8137C70.6951 32.3149 71.9258 32.2425 72.6832 31.4907C72.7333 31.4462 72.7834 31.3905 72.8335 31.3348C73.5185 30.4995 73.4405 29.2187 72.5941 28.5671ZM72.5551 31.0508C72.4214 31.2401 72.2488 31.3849 72.0483 31.4796C71.4469 31.7859 70.6004 31.719 70.0436 31.4462C70.0157 31.435 69.9935 31.4239 69.9712 31.4128C69.1971 30.7946 69.1637 29.6586 69.9433 29.0182C70.567 28.5059 71.5471 28.5281 72.2265 28.8511C73.1008 29.2688 73.0396 30.3491 72.5551 31.0508Z" fill="#7A3104"/>
<path id="Vector_22" d="M19.6855 23.3106C19.5017 22.336 18.7276 21.7569 17.8478 21.5843C17.0403 21.4339 16.1772 21.729 15.7651 22.5087C15.5869 22.8484 15.5423 23.2048 15.5869 23.55C15.6259 23.8452 15.7317 24.1403 15.8932 24.3965C16.1493 24.8308 16.5503 25.1928 16.9846 25.371C16.9958 25.371 17.0013 25.371 17.0125 25.371C17.0125 25.371 17.0236 25.3821 17.0347 25.3821C17.5749 25.5492 18.1875 25.4935 18.6942 25.2485C19.0618 25.0759 19.3736 24.7974 19.5574 24.4355C19.7133 24.1236 19.7746 23.7394 19.691 23.2994L19.6855 23.3106ZM19.0729 24.4466C18.8223 24.8531 18.4158 25.0257 17.9926 25.0592C17.6974 25.0814 17.3967 25.0424 17.1294 24.9589C16.9456 24.8754 16.7674 24.7696 16.6171 24.6359C16.3108 24.3798 16.0825 24.0289 16.0045 23.6447C15.9433 23.344 15.96 23.021 16.0992 22.698C16.3554 22.0966 17.1127 21.9685 17.6529 22.0131C18.2097 22.0687 18.761 22.3527 19.0952 22.8372C19.407 23.2883 19.3847 23.8674 19.123 24.3464C19.1119 24.3798 19.0952 24.4132 19.0729 24.4466Z" fill="#7A3104"/>
<path id="Vector_23" d="M35.6565 26.7408C35.4727 25.7718 34.6987 25.1871 33.8188 25.02C33.0113 24.8641 32.1482 25.1648 31.7417 25.9445C31.5189 26.3565 31.4966 26.802 31.6024 27.2197C31.7082 27.6429 31.9477 28.0327 32.2596 28.339C32.4656 28.5395 32.7106 28.7066 32.9612 28.8124C32.9723 28.8124 32.9779 28.8124 32.9891 28.8124C33.0002 28.8124 33.0002 28.8235 33.0113 28.8235C33.4958 28.9739 34.0304 28.946 34.5038 28.7622C34.9158 28.6007 35.2778 28.3279 35.4894 27.9492C35.6732 27.6206 35.7567 27.2141 35.6676 26.7352L35.6565 26.7408ZM33.106 28.3947C32.6271 28.1831 32.2261 27.7933 32.0479 27.3144C31.9087 26.9524 31.8976 26.5403 32.0702 26.1282C32.3264 25.5268 33.0837 25.3987 33.6295 25.4488C34.1863 25.499 34.7321 25.7885 35.0662 26.273C35.4003 26.7631 35.3502 27.3868 35.0439 27.8824C34.6263 28.5673 33.7575 28.5896 33.1004 28.4003L33.106 28.3947Z" fill="#7A3104"/>
<path id="Vector_24" d="M53.9721 28.6564C53.716 27.6429 52.8528 27.1138 51.9061 27.0749C51.0987 27.047 50.2522 27.4424 49.9515 28.2721C49.7121 28.9515 49.8903 29.6142 50.2856 30.121C50.6086 30.533 51.0653 30.8393 51.5497 30.9674C52.179 31.0621 52.8918 30.8616 53.3986 30.4439C53.8886 30.0374 54.1726 29.4193 53.9777 28.6564H53.9721ZM53.5211 29.6309C53.3874 30.004 53.1146 30.2435 52.7971 30.3883C52.4352 30.5498 52.0008 30.5832 51.6277 30.5219C51.3883 30.4662 51.1544 30.3493 50.9483 30.1934C50.4026 29.7813 50.0629 29.0852 50.3246 28.3557C50.5362 27.7598 51.2268 27.5538 51.7669 27.5259C52.3294 27.4925 52.9029 27.7208 53.2928 28.1441C53.6659 28.545 53.7048 29.1297 53.5211 29.6309Z" fill="#7A3104"/>
<path id="Vector_25" d="M111.648 27.8544C111.425 26.891 110.434 26.4566 109.587 26.4399C108.791 26.4288 107.839 26.891 107.616 27.7653C107.287 29.0405 108.24 30.1598 109.381 30.3491C110.746 30.4327 111.993 29.3913 111.642 27.8544H111.648ZM111.308 28.7008C111.163 29.6029 110.205 29.9538 109.459 29.9036C108.552 29.7533 107.778 28.9681 107.956 27.9379C108.067 27.303 108.746 26.9968 109.276 26.9077C109.855 26.8019 110.478 26.9689 110.918 27.3866C111.275 27.7207 111.386 28.2108 111.308 28.7008Z" fill="#7A3104"/>
<path id="Vector_26" d="M131.288 25.1425C130.871 24.2292 129.751 24.0454 128.922 24.2682C128.164 24.4742 127.374 25.1202 127.335 26.0168C127.312 26.5235 127.468 26.9579 127.741 27.3031C127.964 27.5816 128.253 27.8043 128.582 27.938C128.899 28.0716 129.25 28.1329 129.601 28.1106C129.996 28.0493 130.358 27.8878 130.659 27.6595C130.982 27.4089 131.233 27.0859 131.366 26.7128C131.539 26.2451 131.539 25.6993 131.283 25.148L131.288 25.1425ZM129.573 27.6595C129.083 27.6929 128.599 27.5426 128.248 27.2307C127.936 26.9579 127.724 26.5625 127.708 26.0724C127.685 25.432 128.292 24.9865 128.782 24.7749C129.328 24.541 129.969 24.5689 130.487 24.8696C130.938 25.1369 131.155 25.6826 131.121 26.2117C131.11 26.4233 131.049 26.6182 130.954 26.7797C130.676 27.2753 130.097 27.5704 129.568 27.654L129.573 27.6595Z" fill="#7A3104"/>
<path id="Vector_27" d="M147.6 21.6397C147.182 20.732 146.063 20.5482 145.233 20.7709C144.475 20.9714 143.685 21.623 143.646 22.5195C143.618 23.2268 143.935 23.7948 144.414 24.1567C144.832 24.4853 145.372 24.6523 145.912 24.6078C146.631 24.4853 147.249 24.0565 147.572 23.4606C147.85 22.9372 147.906 22.3023 147.6 21.6397ZM145.884 24.1623C145.589 24.1846 145.294 24.1345 145.032 24.0231C144.475 23.7948 144.047 23.2824 144.019 22.5752C143.997 21.9348 144.604 21.4837 145.094 21.2777C145.639 21.0438 146.28 21.0717 146.798 21.3724C147.249 21.6397 147.466 22.1798 147.432 22.7144C147.41 23.0653 147.265 23.3548 147.048 23.5776C146.742 23.9006 146.296 24.0955 145.884 24.1623Z" fill="#7A3104"/>
<path id="Vector_28" d="M165.392 16.9455C164.974 16.0378 163.855 15.854 163.025 16.0712C162.268 16.2717 161.477 16.9232 161.438 17.8198C161.41 18.4825 161.694 19.0338 162.128 19.3957C162.529 19.741 163.064 19.9303 163.604 19.9136C163.638 19.9136 163.665 19.9136 163.704 19.9136C164.044 19.8579 164.362 19.7299 164.634 19.5517C165.141 19.212 165.498 18.7052 165.581 18.1038C165.631 17.7418 165.581 17.3464 165.397 16.9455H165.392ZM163.677 19.4681C163.303 19.496 162.93 19.4124 162.618 19.2287C162.162 18.9614 161.833 18.4992 161.811 17.881C161.789 17.2406 162.396 16.7896 162.886 16.5835C163.432 16.3496 164.072 16.3775 164.59 16.6782C165.041 16.9455 165.258 17.4857 165.225 18.0203C165.225 18.1094 165.202 18.1929 165.18 18.2709C165.007 18.9614 164.306 19.3623 163.671 19.4681H163.677Z" fill="#7A3104"/>
<path id="Vector_29" d="M91.3162 28.5671C90.3974 27.8599 88.9495 28.1272 88.1643 28.9235C87.6075 29.4915 87.5852 30.3937 87.9249 31.0898C88.0585 31.3626 88.2423 31.6132 88.4706 31.7859H88.4818C88.4929 31.797 88.4985 31.8026 88.5096 31.8137C88.7268 31.9362 88.9607 32.0197 89.2001 32.0754C89.8127 32.2091 90.4698 32.1256 91.0044 31.8026C91.1548 31.719 91.2884 31.6132 91.4109 31.4907C91.4555 31.4462 91.5112 31.3905 91.5501 31.3404C92.2351 30.505 92.1516 29.2242 91.3107 28.5727L91.3162 28.5671ZM91.2773 31.0508C91.255 31.0842 91.2327 31.112 91.2049 31.1399C90.6369 31.8304 89.4062 31.7914 88.6934 31.4072C88.5709 31.3069 88.4651 31.1956 88.3815 31.0675C87.9305 30.4271 88.0196 29.5472 88.6655 29.0126C89.2892 28.5003 90.2693 28.5226 90.9487 28.8456C91.823 29.2632 91.7617 30.3436 91.2773 31.0452V31.0508Z" fill="#7A3104"/>
<path id="Vector_30" d="M20.8941 45.9864C19.9696 45.4351 18.7501 45.3682 17.8702 46.0588C17.1185 46.6546 17.1908 47.6848 17.6809 48.4032C17.7811 48.5536 17.8925 48.6872 18.0262 48.7986C18.8002 49.478 19.9362 49.6562 20.805 49.1661C20.9108 49.1049 21.011 49.038 21.1112 48.9545C22.1247 48.1303 21.8463 46.6713 20.8941 45.9864ZM20.0977 48.9935C20.0977 48.9935 20.0699 48.9935 20.0532 49.0046C19.5464 49.1049 18.9617 48.9044 18.4939 48.5981C18.3102 48.4812 18.1431 48.342 18.0039 48.1972C17.2799 47.4398 17.8312 46.4374 18.6164 46.12C19.2958 45.8527 20.1144 46.0365 20.7214 46.3985C21.8686 47.2282 21.3061 48.7262 20.0922 48.9935H20.0977Z" fill="#7A3104"/>
<path id="Vector_31" d="M41.6373 50.9704C41.6373 50.9704 41.6262 50.9593 41.6151 50.9593C41.6151 50.9593 41.6039 50.9481 41.5984 50.9426C40.6962 50.3412 39.4822 50.2242 38.5745 50.8646C37.6835 51.4995 37.8617 52.7691 38.5021 53.4931C38.5133 53.5098 38.53 53.5265 38.5411 53.5376C39.2873 54.3395 40.5236 54.579 41.4536 54.0722C41.5371 54.0277 41.6206 53.9775 41.693 53.9219C42.7121 53.1701 42.5339 51.6999 41.6318 50.976L41.6373 50.9704ZM40.8299 53.8829C40.7686 53.894 40.7129 53.9107 40.6517 53.9163C40.3008 53.9608 39.9166 53.8717 39.5713 53.7047C39.2205 53.5376 38.8975 53.2982 38.6636 53.042C37.8617 52.19 38.5857 51.1375 39.4655 50.9203C40.1282 50.7588 40.8522 50.9593 41.4146 51.3268C42.4281 52.1677 42.0272 53.5432 40.8354 53.8717L40.8299 53.8829Z" fill="#7A3104"/>
<path id="Vector_32" d="M119.767 53.9387C119.767 53.9387 119.756 53.9387 119.745 53.9387C119.734 53.9387 119.728 53.9275 119.717 53.9275C118.687 53.638 117.456 53.9053 116.782 54.8353C116.097 55.7819 116.699 56.9792 117.59 57.4136C118.564 57.8925 119.806 57.7031 120.524 56.8678C121.393 55.8543 120.886 54.3842 119.756 53.9498L119.767 53.9387ZM119.767 56.9959C119.154 57.369 118.23 57.2187 117.623 56.9235C116.676 56.4613 116.726 55.2863 117.484 54.6793C118.08 54.2116 118.943 54.1614 119.628 54.3508C120.836 54.8408 120.858 56.3221 119.767 56.9904V56.9959Z" fill="#7A3104"/>
<path id="Vector_33" d="M140.945 51.4104C140.945 51.4104 140.928 51.4104 140.922 51.4104C140.911 51.4104 140.906 51.3992 140.895 51.3992C139.859 51.1097 138.628 51.377 137.96 52.3069C137.275 53.2536 137.876 54.4509 138.767 54.8853C138.795 54.8964 138.823 54.9131 138.851 54.9187C139.759 55.3252 140.867 55.1748 141.574 54.4676C141.619 54.4286 141.658 54.3841 141.696 54.3395C142.565 53.326 142.058 51.8559 140.934 51.4215L140.945 51.4104ZM140.945 54.4676C140.833 54.5344 140.711 54.5845 140.583 54.618C140.466 54.6514 140.349 54.6736 140.221 54.6736C139.731 54.7126 139.202 54.5845 138.801 54.3896C137.854 53.9274 137.904 52.7524 138.662 52.1454C139.257 51.6777 140.121 51.6275 140.806 51.8169C142.014 52.3069 142.036 53.7938 140.945 54.4565V54.4676Z" fill="#7A3104"/>
<path id="Vector_34" d="M160.948 47.2727C159.856 47.2225 158.698 47.7571 158.225 48.8486C157.89 49.6227 158.208 50.341 158.765 50.781C159.021 50.9759 159.322 51.1207 159.639 51.1819C160.686 51.3768 161.828 50.8979 162.329 49.89C162.362 49.8287 162.39 49.7619 162.407 49.6951C162.836 48.5646 162.067 47.4286 160.953 47.2671L160.948 47.2727ZM161.844 49.9568C161.41 50.6585 160.424 50.8144 159.706 50.7364C159.561 50.7197 159.427 50.6807 159.299 50.6306C158.626 50.341 158.252 49.5503 158.67 48.7929C159.093 48.0356 160.085 47.6847 160.87 47.7182C161.95 47.8685 162.423 48.8932 161.906 49.8566C161.889 49.89 161.867 49.9234 161.844 49.9624V49.9568Z" fill="#7A3104"/>
<path id="Vector_35" d="M59.1177 54.2115C58.1711 53.6324 56.907 53.5154 55.9714 54.1837C55.2697 54.6849 55.253 55.5647 55.5927 56.2608C55.6985 56.4836 55.8433 56.6896 56.016 56.8567C56.2554 57.0906 56.5283 57.2688 56.829 57.4024C57.319 57.6196 57.8759 57.6864 58.3938 57.5806C58.7224 57.5194 59.0286 57.3857 59.3015 57.1852C59.4853 57.0516 59.6301 56.8957 59.7359 56.723C60.2593 55.9044 59.9029 54.7851 59.1233 54.206L59.1177 54.2115ZM58.1989 57.2019C57.4805 57.3133 56.6285 56.8734 56.1162 56.3778C56.0939 56.3611 56.0772 56.3388 56.0605 56.3221C55.2865 55.4868 55.9881 54.4621 56.8735 54.2394C57.5696 54.0612 58.3381 54.2505 58.9451 54.6236C59.7637 55.2306 59.7192 56.116 59.2013 56.6785C58.9563 56.9458 58.6054 57.1463 58.1989 57.2075V57.2019Z" fill="#7A3104"/>
<path id="Vector_36" d="M79.917 56.3386C79.271 55.3864 77.8398 55.314 76.8932 55.676C76.0857 56.0713 75.6179 56.9623 75.8351 57.8088C75.8908 58.0371 75.9966 58.2599 76.1581 58.4715C76.2695 58.6163 76.3864 58.7388 76.5145 58.8446C77.3108 59.485 78.4357 59.4126 79.3267 58.917C79.3378 58.917 79.3434 58.9058 79.3545 58.9003C79.7555 58.6775 80.0284 58.3155 80.1564 57.9035C80.3179 57.3967 80.2567 56.8176 79.9226 56.3331L79.917 56.3386ZM79.4436 58.3267C78.9369 58.8223 78.1016 58.917 77.45 58.8334C76.8263 58.7499 76.4198 58.3267 76.2695 57.8199C76.0857 57.1907 76.2973 56.4389 77.0045 56.0881C77.6728 55.8319 78.3912 55.8653 79.0427 56.1604C79.7388 56.4779 80.0284 57.2463 79.7332 57.8923C79.672 58.0427 79.5661 58.1875 79.4381 58.3211L79.4436 58.3267Z" fill="#7A3104"/>
<path id="Vector_37" d="M101.964 55.6481C101.256 54.7794 99.8197 54.8573 98.9287 55.2861C97.9987 55.8541 97.5532 57.1182 98.3329 58.0649C99.1403 59.045 100.577 59.0562 101.557 58.3322C102.431 57.6862 102.682 56.5335 101.958 55.6481H101.964ZM101.836 57.4969C101.435 58.193 100.449 58.4158 99.7473 58.3935C98.3663 58.3434 97.8094 56.4611 99.0512 55.7093C99.6137 55.4365 100.198 55.3752 100.811 55.4977C101.696 55.6704 102.365 56.5781 101.836 57.5025V57.4969Z" fill="#7A3104"/>
</g>
<path id="Vector_38" d="M20.7211 46.3931C20.1141 46.0311 19.2899 45.8473 18.6161 46.1146C17.8254 46.4265 17.274 47.4288 18.0036 48.1918C18.4936 48.7041 19.3456 49.1384 20.0528 48.9992C21.2947 48.7598 21.8794 47.2339 20.7211 46.3931Z" fill="#D6D6D6"/>
<path id="Vector_39" d="M58.9506 54.6183C58.3436 54.2508 57.5751 54.0559 56.879 54.2341C55.9713 54.468 55.2585 55.5316 56.1217 56.3781C56.634 56.8793 57.4805 57.3192 58.2044 57.2078C59.4908 57.0073 60.1535 55.5149 58.9562 54.6239L58.9506 54.6183Z" fill="#D6D6D6"/>
<path id="Vector_40" d="M100.811 55.4924C100.204 55.3699 99.6194 55.4256 99.0514 55.704C97.8096 56.4558 98.3665 58.3436 99.7475 58.3881C100.455 58.4104 101.44 58.1876 101.836 57.4916C102.365 56.5671 101.697 55.665 100.811 55.4868V55.4924Z" fill="#D6D6D6"/>
<path id="Vector_41" d="M140.806 51.8283C140.115 51.6389 139.252 51.689 138.662 52.1568C137.899 52.7582 137.849 53.9332 138.801 54.3955C139.408 54.6906 140.332 54.8409 140.945 54.4678C142.042 53.7996 142.014 52.3183 140.806 51.8283Z" fill="#D6D6D6"/>
<path id="Vector_42" d="M17.6584 22.0133C17.1126 21.9632 16.3553 22.0912 16.1047 22.6927C15.6982 23.6505 16.294 24.5916 17.1349 24.9591C17.792 25.1541 18.6552 25.1262 19.0784 24.4413C19.3847 23.9456 19.4348 23.3219 19.1007 22.8319C18.7666 22.3474 18.2208 22.0578 17.6639 22.0077L17.6584 22.0133Z" fill="#D6D6D6"/>
<path id="Vector_43" d="M90.9542 28.8517C90.2693 28.5287 89.2948 28.5064 88.6711 29.0188C87.897 29.6536 87.9248 30.7896 88.6989 31.4133C89.434 31.8143 90.7426 31.8366 91.2828 31.0514C91.7673 30.3441 91.8285 29.2638 90.9542 28.8517Z" fill="#D6D6D6"/>
<path id="Vector_44" d="M130.486 24.8701C129.969 24.5694 129.334 24.5415 128.782 24.7754C128.292 24.987 127.685 25.4325 127.708 26.0729C127.747 27.1143 128.654 27.7268 129.573 27.66C130.28 27.5431 131.071 27.0642 131.121 26.2121C131.155 25.6775 130.937 25.1374 130.486 24.8701Z" fill="#D6D6D6"/>
<path id="Vector_45" d="M51.7669 27.5205C51.2267 27.5539 50.5417 27.76 50.3246 28.3558C49.9626 29.3582 50.7366 30.2937 51.6221 30.5221C52.3237 30.6279 53.2259 30.4274 53.521 29.6311C53.7048 29.1299 53.6658 28.5452 53.2927 28.1442C52.8973 27.721 52.3293 27.4927 51.7669 27.5261V27.5205Z" fill="#D6D6D6"/>
<path id="Vector_46" d="M164.59 16.6782C164.072 16.3775 163.437 16.3496 162.886 16.5835C162.396 16.7951 161.789 17.2406 161.811 17.881C161.85 18.9224 162.758 19.5349 163.676 19.4681C164.384 19.3512 165.174 18.8723 165.225 18.0202C165.258 17.4856 165.041 16.9399 164.59 16.6782Z" fill="#D6D6D6"/>
<path id="Vector_47" d="M175.198 3.241C179.525 8.10251 177.203 13.6545 172.67 17.1517C169.841 19.3291 166.544 20.699 163.209 21.8127C163.197 21.8127 163.192 21.8127 163.181 21.8239C162.206 22.1469 161.221 22.4531 160.252 22.7483C158.559 23.2662 156.855 23.734 155.145 24.1906C155.134 24.1906 155.117 24.1906 155.112 24.1906C155.067 24.1906 155.034 24.2073 155.006 24.2296C149.309 25.7276 143.523 26.9081 137.709 28.0219C131.578 29.1969 125.425 30.3663 119.31 31.2518C105.661 33.2287 91.8731 34.27 78.0904 34.27C64.3078 34.27 50.024 33.1897 36.1523 30.9232C35.3615 30.7951 34.5652 30.6615 33.7744 30.5278C33.7521 30.5111 33.7243 30.5 33.6853 30.5C33.6742 30.5 33.663 30.5 33.6519 30.5C33.6408 30.5 33.6408 30.5 33.6352 30.5C27.259 29.4308 20.8048 28.2057 14.6514 26.2288C11.3937 25.1874 8.23619 23.5836 5.80822 21.022C2.87349 17.9313 2.50039 13.6991 4.42717 10.124C4.30466 11.3379 4.81141 12.6689 6.22587 14.1167C9.46688 17.4246 14.6625 18.555 18.8669 19.5853C23.6449 20.7547 28.4563 21.7404 33.2955 22.5924C33.3178 22.6369 33.3623 22.6648 33.418 22.6648C33.4292 22.6648 33.4403 22.6648 33.4514 22.6648C33.4904 22.6536 33.5238 22.6481 33.5628 22.6369C35.2891 22.9376 37.0154 23.2216 38.7473 23.4889C51.561 25.4603 64.4972 26.3847 77.4445 26.3847C87.0784 26.3847 96.7179 25.8724 106.302 24.909H106.33C106.33 24.909 106.341 24.909 106.352 24.909C110.846 24.4579 115.323 23.9066 119.789 23.2606C132.965 21.3561 146.268 18.8446 159.104 15.1303C163.732 13.7882 168.616 12.3236 172.497 9.21626C174.279 7.79066 175.766 5.67454 175.159 3.25771C175.159 3.25771 175.163 3.25771 175.17 3.25771C175.17 3.25771 175.181 3.25771 175.193 3.24657M175.193 0C174.78 0 174.363 0.0779623 173.967 0.239456C173.878 0.278437 173.789 0.317418 173.7 0.361968C173.277 0.57358 172.904 0.879861 172.603 1.2641C171.99 2.05486 171.773 3.07951 172.013 4.04847C172.286 5.13438 170.905 6.34279 170.476 6.68248C167.001 9.46128 162.329 10.8201 158.202 12.0118C146.976 15.2583 134.257 17.8868 119.327 20.0475C114.967 20.6767 110.495 21.228 106.034 21.6791C106.018 21.6791 105.995 21.6791 105.979 21.6791C96.3615 22.6481 86.761 23.1381 77.4445 23.1381C64.3969 23.1381 51.5443 22.1747 39.2429 20.2813C37.4943 20.0085 35.768 19.7245 34.1252 19.4405C34.0751 19.4293 34.025 19.4238 33.9693 19.4182C33.9359 19.4126 33.8969 19.4015 33.8635 19.3959C28.8127 18.5049 24.1572 17.536 19.641 16.4278L19.0117 16.2774C15.2472 15.3641 10.976 14.3284 8.54804 11.8447C7.80739 11.0874 7.64033 10.6029 7.65704 10.447C7.81296 8.90441 6.86071 7.46768 5.37942 7.01661C5.06201 6.92194 4.74459 6.87182 4.42717 6.87182C3.25773 6.87182 2.14956 7.50666 1.57041 8.58142C-1.07474 13.4986 -0.334101 19.2567 3.45821 23.2495C5.99199 25.9169 9.4279 27.9551 13.6713 29.3138C20.0976 31.3798 26.8135 32.6384 33.1062 33.6964C33.134 33.6964 33.1563 33.7076 33.1841 33.7076C33.2008 33.7076 33.2175 33.7131 33.2343 33.7187C34.0306 33.8524 34.8325 33.986 35.6288 34.1197C49.3892 36.3694 63.673 37.5054 78.096 37.5054C92.519 37.5054 105.806 36.4808 119.784 34.4538C125.787 33.5851 131.734 32.4657 138.327 31.2016C143.868 30.138 149.827 28.9407 155.836 27.3592C155.852 27.3592 155.869 27.3481 155.886 27.3425C155.919 27.3369 155.947 27.3258 155.98 27.3202C158.013 26.7801 159.672 26.3123 161.204 25.8445C162.095 25.5716 163.153 25.2431 164.205 24.8978C164.222 24.8923 164.244 24.8867 164.261 24.8811C167.302 23.8676 171.222 22.3585 174.647 19.7189C178.2 16.9791 180.349 13.4596 180.689 9.81211C180.978 6.68805 179.92 3.6698 177.615 1.0859C176.98 0.373105 176.095 0 175.187 0H175.193Z" fill="black"/>
</g>
</svg>
