<svg width="165" height="210" viewBox="0 0 165 210" fill="none" xmlns="http://www.w3.org/2000/svg">
<g id="ARM" clip-path="url(#clip0_87_34483)">
<path id="Vector" d="M69.0286 181.382L69.3347 185.894" stroke="#3C3C3B" stroke-width="8.47" stroke-miterlimit="10" stroke-linecap="round"/>
<g id="Group">
<path id="Vector_2" d="M164.898 26.8952C163.977 17.5023 149.209 13.9333 141.849 12.0875C127.905 8.59008 107.412 4.60436 85.2429 1.45976C24.4478 -7.16616 4.99833 23.3646 4.56459 68.3656C4.33496 92.1239 5.2152 137.785 4.78912 149.609C5.78162 150.89 6.27404 152.58 6.00104 154.18C5.73314 155.752 5.56475 157.337 5.47289 158.93C5.47034 158.991 5.45759 159.094 5.44483 159.199C5.44993 159.163 5.45503 159.132 5.46014 159.091C5.41676 159.393 5.44228 159.725 5.43717 160.032C5.42187 160.819 5.41676 161.607 5.41931 162.397C5.41931 163.721 5.43717 165.043 5.44993 166.367C5.46524 166.372 5.48055 166.377 5.49586 166.383L2.57959 212.064H82.4236L76.4405 192.71L77.683 174.663L76.4533 165.559L76.466 165.554C76.3946 162.537 76.4558 159.516 76.4584 156.496C76.4584 155.445 76.665 154.466 77.0528 153.607C74.6111 147.517 72.9195 78.4973 72.8354 63.9044C86.3374 67.0975 107.188 66.5913 115.401 52.7653L120.753 52.9877C140.632 54.0283 166.827 46.5886 164.895 26.8978L164.898 26.8952Z" fill="#3C3C3B"/>
<path id="Vector_3" d="M67.0054 187.324C70.2508 189.622 72.9579 184.11 70.9907 181.558C69.9523 179.684 66.8855 179.541 66.2885 181.852C65.842 183.2 65.2169 184.739 65.9976 186.096C66.2527 186.582 66.3038 187.341 67.0054 187.324Z" fill="#3C3C3B"/>
<path id="Vector_4" d="M61.9383 189.131C64.2652 188.811 65.2093 184.838 62.2802 184.844C59.9431 185.145 58.8027 189.249 61.9383 189.131Z" fill="#3C3C3B"/>
<path id="Vector_5" d="M25.3561 160.72C27.6702 160.019 30.0583 159.618 32.1377 158.268C32.9261 157.844 36.5287 156.532 36.1077 155.512C35.9904 155.172 35.5796 154.929 35.2377 155.085C34.1814 155.765 33.1532 156.023 31.9183 155.857C23.9834 157.759 22.547 153.175 17.8345 154.832C17.9774 154.778 18.1177 154.727 18.2606 154.673C14.3544 155.77 11.9535 159.572 8.25904 161.103C7.6467 161.308 7.00885 161.464 6.36844 161.609C6.4807 161.965 6.43988 162.369 6.16178 162.729C7.52678 161.896 9.19541 161.589 10.6268 160.845C10.6344 160.84 10.6421 160.835 10.6523 160.832C12.8592 159.531 13.9972 156.724 16.4823 155.832C17.9672 155.341 19.4853 155.494 20.9421 155.919C22.6465 156.154 24.3432 156.739 25.9454 157.235C28.0733 157.583 30.2344 157.373 32.3036 156.785C33.4696 157.235 30.7396 157.598 30.3824 157.721C28.1932 158.158 26.0552 158.726 23.8074 158.733C21.9729 158.899 20.0542 158.365 18.2912 159.035C16.1225 160.781 14.3875 163.054 11.9331 164.442C10.1088 165.889 8.60348 167.789 7.30226 169.732C7.02671 170.159 6.73074 170.57 6.44243 170.99C6.57511 176.151 6.31996 181.257 5.54689 186.365C5.27899 189.64 4.97792 192.907 4.65389 196.172C5.46014 196.121 6.33017 196.64 7.16193 196.594C7.14407 196.589 7.12366 196.586 7.10835 196.581C7.15683 196.581 7.20786 196.586 7.25633 196.589C7.22572 196.591 7.19255 196.591 7.16193 196.594C7.88143 196.77 9.60619 196.098 9.83837 196.614C10.0859 197.379 7.17214 197.578 6.57 197.877C5.88622 197.995 5.17693 198.187 4.48295 198.094C4.47529 198.094 4.46764 198.089 4.45998 198.089C4.4013 198.652 4.34262 199.217 4.28394 199.779C4.3962 199.943 4.52377 200.099 4.65899 200.25C5.07743 200.718 5.56475 201.04 6.09544 201.257C6.82259 201.382 7.54464 201.531 8.26925 201.679C9.40718 201.727 10.5885 201.6 11.6371 201.584C13.5354 201.543 15.4387 201.807 17.314 201.387C17.2783 201.395 17.2426 201.405 17.2069 201.413C17.3293 201.418 17.5487 201.352 17.8115 201.265C22.4041 198.304 26.6496 194.722 31.1529 191.603C32.4337 191.606 29.8899 192.974 29.6833 193.265C28.4816 194.456 27.2747 195.643 26.0424 196.801C26.0679 196.778 26.0934 196.752 26.1189 196.729C25.749 197.067 25.3918 197.42 25.0422 197.777C27.9228 195.154 30.6936 192.273 33.9748 190.174C34.6024 189.855 35.8271 189.826 35.526 188.791C31.1376 186.766 17.4799 200.355 10.5119 198.204C10.5119 198.199 10.5119 198.194 10.5119 198.189C13.1705 198.105 15.5969 196.737 18.0845 195.901C18.7989 195.64 18.406 194.487 17.6916 194.761C15.4795 195.786 12.8822 195.653 10.5553 195.131C10.6778 185.383 15.8801 164.705 25.3637 160.73L25.3561 160.72Z" fill="#3C3C3B"/>
</g>
<path id="Vector_6" d="M81.5152 206.682C80.5508 201.262 79.3618 196.087 78.331 191.238C78.331 191.227 78.3361 191.217 78.3387 191.204C78.3387 191.215 78.3336 191.225 78.331 191.235C78.331 191.235 78.331 191.235 78.331 191.233C78.3846 191.008 78.4382 190.783 78.4867 190.555C78.5734 190.189 78.6627 189.824 78.7495 189.461C80.5406 181.137 81.3111 172.651 80.4793 164.145C80.4385 159.147 75.2362 143.054 75.5347 138.076C75.0193 138.079 71.9704 122.154 71.4575 122.159C70.3324 122.171 71.705 123.78 70.5824 123.795C70.5569 124.365 74.5167 150.468 74.4988 151.038C74.4401 152.889 75.2005 154.84 75.2617 156.69C75.2617 156.703 75.3791 157.552 75.3791 157.567C75.3714 159.579 76.022 160.576 75.9786 162.589C75.948 164.082 75.9097 165.577 75.8638 167.07C75.7847 169.698 77.785 171.237 77.6881 173.866C77.5197 178.442 75.9735 183.951 75.8689 188.53C75.846 189.558 75.7465 190.604 75.6265 191.654C76.0118 193.487 76.4609 195.313 76.7568 197.154C76.8129 197.506 76.8818 197.877 76.9456 198.261C77.3054 199.759 77.7187 201.252 78.0989 202.775C78.6551 205.013 79.1296 207.311 79.2342 209.781C79.2725 210.68 79.2572 211.601 79.1832 212.549C80.0048 212.529 80.8263 212.508 81.6479 212.493C82.1658 212.483 82.6838 212.473 83.2017 212.462C83.6023 210.253 82 208.998 81.5178 206.682H81.5152Z" fill="#3C3C3B"/>
<path id="Vector_7" d="M5.24051 215.898C4.07707 216.067 3.15856 216.208 3.16111 216.226C2.63041 211.534 3.27592 206.495 4.43426 201.686C4.27608 200.096 5.01599 197.887 5.09763 196.295C5.20479 194.17 5.77121 188.929 5.62322 186.802C5.2252 181.042 5.32471 180.963 5.17673 178.81C5.17673 178.815 5.64108 170.741 5.63343 170.68C5.64363 170.764 5.86561 157.969 6.61062 148.913C6.61317 148.88 6.58256 147.671 6.58511 147.635C7.32757 137.675 11.1215 116.644 8.69768 116.215C8.90945 116.56 5.37318 128.941 5.59516 129.276C5.58495 129.263 4.43171 132.774 4.42151 132.758C4.7634 133.474 4.16637 138.621 4.75064 138.981C4.91138 141.847 4.79146 150.399 3.93674 150.514C3.17642 157.457 0.47702 160.939 1.52565 167.794C1.51289 167.694 2.59469 172.398 2.58194 172.301C2.61766 172.58 2.94169 163.665 2.66868 163.701C3.04119 163.652 1.19907 167.582 1.38277 167.927C2.6049 170.212 2.10482 177.534 2.09462 177.378C2.37272 181.338 2.40589 183.688 2.57939 184.838C2.56153 184.708 2.59469 188.451 2.57939 188.321C3.87806 194.84 0.38772 199.051 1.16335 205.6C1.8752 210.348 -1.04617 213.431 0.415786 217.995C1.13784 217.969 3.85764 217.887 5.15631 217.78C5.17417 217.151 5.20734 216.522 5.24051 215.893V215.898Z" fill="#3C3C3B"/>
<g id="Group_2">
<path id="Vector_8" d="M69.0286 181.382L69.3347 185.894" stroke="#3C3C3B" stroke-width="8.47" stroke-miterlimit="10" stroke-linecap="round"/>
<g id="Group_3">
<path id="Vector_9" d="M77.711 191.143C77.4788 190.76 77.239 190.381 76.9685 189.944C76.6394 190.415 76.4659 190.865 76.4302 191.353C76.3919 191.854 76.3741 192.353 76.3485 192.851C76.1444 192.739 75.9378 192.631 75.7388 192.511C75.5551 192.401 75.3816 192.278 75.1417 192.122C74.9019 192.544 74.6927 192.915 74.4809 193.286C73.917 193.229 72.7 192.685 72.5214 192.347C72.2101 192.997 71.9244 193.6 71.6259 194.224C71.4065 194.119 71.2559 194.048 71.0569 193.95C70.9472 194.413 70.8477 194.835 70.7354 195.318C70.5237 195.147 70.3374 194.996 70.067 194.776C70.0389 195.313 69.9317 195.748 70.0134 196.088C70.1409 196.625 69.8552 197.013 69.5694 197.328C69.0872 197.862 68.5285 198.307 67.9646 198.823C67.3318 197.98 66.7425 197.195 66.1556 196.41C66.1199 196.417 66.0868 196.425 66.051 196.433C65.852 198.225 65.653 200.015 65.4489 201.853C64.9463 201.694 64.5023 201.564 64.2829 200.989C64.1426 200.618 63.8645 200.337 63.617 199.963C63.52 200.224 63.4537 200.406 63.3542 200.672C62.8975 200.227 62.3923 199.969 61.6856 200.096C61.6805 200.513 61.6754 200.92 61.6703 201.364C61.5325 201.41 61.4049 201.454 61.2722 201.5C61.234 201.464 61.1982 201.441 61.1727 201.408C60.5017 200.482 59.8332 199.554 59.1597 198.629C59.1112 198.562 59.0372 198.519 58.976 198.468C59.0193 198.399 59.0576 198.302 59.1112 198.276C59.5398 198.079 59.9736 197.898 60.443 197.696C60.4787 198.207 60.5119 198.688 60.5476 199.214C60.7619 198.885 60.9354 198.57 61.1498 198.302C61.359 198.038 61.609 197.818 61.8463 197.586C62.0708 197.366 62.2724 197.366 62.4408 197.57L62.4816 197.553C62.5939 197.412 62.7393 197.146 62.8133 197.156C62.9766 197.177 63.1322 197.31 63.2368 197.453C63.3516 197.614 63.4103 197.834 63.4894 198.031C63.7675 197.448 64.0227 196.852 64.3365 196.29C64.5763 195.86 64.9463 195.63 65.3673 195.507C66.4031 195.201 67.3905 195.247 68.3652 195.385C68.656 195.426 68.9418 195.479 69.3041 195.538C69.026 195.083 68.7836 194.682 68.5131 194.237C69.2837 193.922 70.0134 193.869 70.8247 193.792C70.664 193.531 70.5313 193.311 70.4012 193.099C73.0598 191.238 75.6699 189.2 78.5274 187.643C78.2825 188.288 77.8717 188.84 77.9126 189.607C78.1983 189.244 78.4586 188.916 78.7061 188.599C78.5938 187.03 78.5785 185.457 78.5785 183.88C78.5785 183.338 78.6805 182.811 78.8719 182.336C78.553 181.336 78.3514 180.314 78.2417 179.419C78.0988 179.575 77.9508 179.741 77.785 179.922C77.9126 179.362 78.0146 178.915 78.1167 178.465C78.0733 178.447 78.0299 178.427 77.9891 178.409C77.8641 178.588 77.7263 178.757 77.614 178.946C76.6955 180.498 75.6622 181.95 74.4962 183.366C74.4758 183.062 74.4579 182.814 74.4324 182.425C74.2947 182.617 74.2002 182.704 74.1645 182.806C74.0625 183.098 73.9987 183.399 73.8915 183.691C73.519 184.701 72.9424 185.45 72.0928 186.084C70.5721 187.214 69.054 187.61 67.4696 187.51C67.3982 187.505 67.3242 187.51 67.2502 187.521C67.2272 187.523 67.2043 187.569 67.115 187.666C67.3727 187.809 67.6099 187.942 67.9365 188.124C67.7528 188.231 67.6406 188.331 67.5283 188.359C66.8904 188.515 66.2526 188.666 65.6147 188.796C65.1759 188.888 64.737 188.947 64.2752 189.024C64.5712 189.349 65.0024 189.522 65.7066 189.522C66.222 189.522 66.7476 189.443 67.3318 189.395C66.569 189.926 65.8571 190.445 65.13 190.926C63.0199 192.327 60.9074 193.72 58.7923 195.106C58.481 195.31 58.1518 195.487 57.8227 195.617C56.2153 196.251 54.7712 197.325 53.3679 198.514C53.0898 198.749 52.7939 198.969 52.5438 199.245C51.9392 199.915 51.2503 200.163 50.5206 200.275C50.1736 200.329 49.824 200.39 49.4541 200.452C49.3673 200.912 49.75 200.613 49.847 200.751C49.8853 200.761 49.9235 200.771 49.9618 200.779C49.9286 200.787 49.8929 200.797 49.8597 200.805C49.2933 201.114 48.3136 201.385 47.6834 201.403C47.6808 200.958 47.6783 200.511 47.6732 200.022C47.9921 200.032 48.2855 200.078 48.5815 200.045C49.079 199.989 49.5842 199.948 50.0741 199.784C50.8829 199.511 51.2324 198.915 51.2324 197.985C51.2324 197.898 51.235 197.811 51.2401 197.629C51.5666 197.737 51.855 197.831 52.1458 197.928C52.7505 196.75 53.6435 196.218 54.6896 196.034C55.2815 195.929 55.2509 195.919 55.5035 195.27C55.705 194.751 55.9959 194.262 56.2664 193.715C56.9807 194.083 57.6492 194.408 58.509 194.426C58.2131 193.973 57.9503 193.577 57.6594 193.132C58.1314 192.831 58.5728 192.526 59.0295 192.266C59.1239 192.212 59.2745 192.283 59.3765 192.34C59.6011 192.462 59.8103 192.613 60.0705 192.782C60.3639 191.775 60.6369 190.842 60.9329 189.827C61.2646 190.052 61.5631 190.264 61.8718 190.461C62.1856 190.663 62.5097 190.849 62.8669 191.064C63.0531 190.386 63.219 189.781 63.3822 189.175C63.543 188.587 63.7012 187.996 63.8696 187.367C64.1171 187.403 64.3467 187.431 64.5738 187.469C65.1223 187.556 65.1325 187.564 65.4183 186.92C65.6326 186.437 65.8086 185.935 66.0102 185.445C66.0434 185.36 66.1123 185.291 66.1684 185.215C66.1684 185.215 66.1709 185.215 66.1735 185.215C66.2679 185.654 66.4899 185.971 66.8547 186.114C67.2094 186.252 67.4977 186.569 67.9595 186.431C68.0513 186.403 68.1559 186.529 68.2682 186.59C68.6305 185.948 68.8321 185.232 69.2403 184.65C69.7676 184.839 70.2881 184.584 70.8018 183.885C70.6308 183.78 70.4522 183.696 70.3042 183.568C70.243 183.517 70.2073 183.351 70.243 183.266C70.2736 183.192 70.4139 183.128 70.5058 183.108C70.6997 183.064 70.8936 183.049 71.1615 183.016C71.1105 182.694 71.1232 182.377 71.011 182.162C70.8732 181.896 70.8732 181.648 70.9982 181.308C72.0086 181.034 73.0164 180.843 73.9757 181.482C74.0293 180.994 74.0472 180.608 74.1237 180.227C74.2002 179.846 74.3329 179.467 74.4503 179.056C74.5728 179.107 74.6595 179.14 74.7462 179.176C74.907 178.994 75.0575 178.826 75.254 178.606C75.4377 179.005 75.6035 179.37 75.7719 179.736L75.8638 179.659C75.902 179.199 75.9429 178.739 75.9862 178.22C76.2618 178.289 76.4685 178.34 76.6726 178.391C77.0757 178.493 77.4839 178.348 77.8819 178.125C77.9865 178.066 78.0656 178.013 78.1243 177.956C78.1065 177.466 78.1141 176.972 78.1626 176.484C78.1626 176.348 78.1779 176.21 78.2136 176.064C78.2213 176.006 78.2315 175.944 78.2417 175.886C78.2366 175.788 78.1983 175.678 78.1473 175.638C77.836 175.39 77.7977 174.963 77.6727 174.548C78.0656 174.372 78.4407 174.201 78.7979 174.042C79.002 173.582 79.2699 173.114 79.599 172.818C79.4944 172.823 79.3898 172.825 79.3107 172.884C78.7188 173.324 78.1345 173.784 77.5605 174.26C77.4405 174.359 77.3002 174.559 77.2926 174.697C77.2619 175.177 77.2722 175.655 77.2926 176.126C77.3104 176.548 77.3614 176.959 77.3997 177.391C76.9864 177.575 76.6675 177.45 76.3996 177.218C76.2261 177.067 76.0653 177.039 75.8689 177.238C75.6265 176.642 75.4045 176.09 75.1341 175.425C74.7386 176.405 74.2921 177.223 74.2436 178.043C73.5165 178.969 73.764 179.897 73.6389 180.815C72.7281 180.329 71.7177 180.36 70.6818 180.467C70.3859 180.498 70.2558 180.623 70.2251 180.955C70.2047 181.183 70.2124 181.433 70.1231 181.638C69.9343 182.067 69.9828 182.3 70.3502 182.32C70.3502 182.658 70.1384 182.691 69.9726 182.799C69.7353 182.949 69.4776 183.093 69.2811 183.305C69.0234 183.586 68.8015 183.921 68.5948 184.253C68.3269 184.683 67.9952 184.77 67.6559 184.685C67.365 184.614 67.0588 184.517 66.842 184.32C66.4669 183.982 66.1582 183.558 65.7933 183.141C65.4948 184.307 65.2728 185.468 64.7294 186.557C64.2957 186.541 63.8976 186.529 63.4613 186.516C63.1143 187.623 62.775 188.707 62.4357 189.786C61.831 189.732 61.3411 189.349 60.7492 189.464C60.4226 190.146 60.1241 190.775 59.8077 191.435C59.4811 191.189 59.1954 190.975 58.8867 190.744C58.7769 190.975 58.6851 191.169 58.5932 191.355C57.1721 191.033 56.7562 192.202 56.7639 193.201C56.4807 193.339 56.1745 193.406 55.9602 193.613C55.5851 193.978 55.2458 194.411 54.9345 194.85C54.7916 195.05 54.6615 195.139 54.4727 195.206C53.5976 195.523 52.7199 195.829 51.8499 196.19C51.5156 196.328 51.1788 196.561 50.8854 196.824C50.5282 197.146 50.4976 197.397 50.6532 197.806C50.9543 198.601 50.7323 199.122 49.9312 199.437C49.2295 199.713 48.5381 199.731 47.8543 199.698C47.7268 199.692 47.5966 199.698 47.4716 199.698C47.3466 200.122 47.2012 200.503 47.1272 200.886C47.0404 201.336 46.8083 201.633 46.4868 201.899C45.706 202.546 44.9916 203.267 44.5094 204.253C44.4201 204.437 44.2492 204.581 44.1165 204.742C43.9736 205.041 43.8308 205.337 43.6904 205.637C44.5681 205.25 45.4254 205.217 46.2827 205.273C46.8976 205.314 47.5303 205.258 48.0508 205.629C48.1146 205.675 48.3161 205.585 48.4054 205.491C48.7116 205.174 48.9897 204.824 49.2882 204.494C49.7551 203.975 49.949 203.926 50.4823 204.172C50.9594 204.389 51.4263 204.2 51.735 203.645C51.809 203.509 51.832 203.341 51.8754 203.187C51.9417 202.955 52.0055 202.725 52.0999 202.395C52.2912 202.612 52.4163 202.758 52.5413 202.896C52.7505 203.123 52.9546 203.361 53.1791 203.571C53.271 203.655 53.4011 203.806 53.5414 203.532C53.5338 203.509 53.5236 203.484 53.5159 203.461C53.544 203.476 53.5721 203.492 53.6001 203.507C54.0747 203.734 54.5492 203.962 55.0289 204.192C55.0417 203.895 55.5622 202.788 55.6923 202.768C55.7969 202.834 55.9015 202.898 56.0291 202.98C56.1235 202.492 56.2077 202.057 56.2919 201.62C56.6797 201.49 57.1491 201.868 57.389 201.124C57.8508 201.272 58.2845 201.413 58.754 201.564C58.9275 201.037 59.0831 200.559 59.2464 200.058C60.2108 200.879 60.989 201.917 62.1882 202.328C62.2647 202.17 62.3387 202.011 62.4357 201.812C62.8107 201.774 63.2011 201.733 63.5966 201.692C63.6272 201.86 63.6399 202.016 63.6884 202.149C63.7165 202.231 63.7905 202.339 63.8543 202.333C64.4615 202.295 65.0687 202.234 65.6607 202.18C65.9439 200.917 66.2118 199.723 66.5026 198.43C66.7246 198.729 66.8853 198.943 67.018 199.122C66.9109 199.278 66.8241 199.406 66.7348 199.534C66.9058 199.675 67.0716 199.828 67.2553 199.946C67.2859 199.966 67.3829 199.874 67.5155 199.782C67.7069 200.035 67.8625 200.24 68.0131 200.442C69.1561 199.363 70.192 198.21 70.8196 196.681C70.9829 196.734 71.085 196.768 71.2125 196.811C71.3248 196.31 71.4294 195.84 71.506 195.5C71.779 195.264 71.9729 195.08 72.1821 194.924C72.5061 194.684 72.8301 194.408 73.1746 194.252C73.6058 194.055 74.0165 194.157 74.3814 194.352C74.6391 194.49 74.8202 194.436 74.9708 194.076C75.0881 193.794 75.231 193.523 75.3586 193.258C75.8408 193.385 76.2541 193.495 76.6981 193.613C76.8078 192.948 76.9175 192.278 77.0349 191.55C77.1828 191.736 77.3053 191.903 77.4252 192.053C77.4992 191.739 77.5962 191.432 77.7135 191.13L77.711 191.143ZM68.554 184.967C68.4085 185.271 68.3014 185.496 68.1789 185.751C67.985 185.659 67.809 185.575 67.638 185.491C67.0946 186.081 66.6481 185.887 66.3827 184.949C67.1048 185.03 67.7503 185.34 68.554 184.964V184.967ZM58.5295 191.844C58.3636 192.066 58.2565 192.207 58.111 192.404C58.0676 192.166 58.037 192.01 57.9937 191.78C58.1672 191.8 58.3024 191.818 58.5295 191.846V191.844ZM57.6671 192.508C57.713 192.508 57.7589 192.503 57.8049 192.501C57.7819 192.677 57.7589 192.854 57.7385 193.03C57.7028 193.03 57.6645 193.035 57.6288 193.038C57.6416 192.861 57.6543 192.685 57.6696 192.508H57.6671ZM52.3652 196.729C52.2249 197.023 52.1331 197.215 52.0336 197.425C51.906 197.31 51.7886 197.207 51.61 197.049C51.8652 196.942 52.0769 196.852 52.3652 196.729ZM45.4101 203.942C45.3693 203.965 45.3259 203.97 45.2519 203.993C45.3182 203.55 45.382 203.182 45.8438 202.98C46.3464 202.758 46.8389 202.459 47.3262 202.16C47.5022 202.052 47.6451 201.845 47.8441 201.638C48.0814 201.725 48.4003 201.84 48.7193 201.955C48.6733 202.014 48.6325 202.088 48.5789 202.121C47.5252 202.732 46.4664 203.338 45.4101 203.942ZM48.2396 205.227C47.9794 204.885 47.7497 204.581 47.4844 204.23C48.0457 204.018 48.5891 203.814 49.1351 203.609C49.1505 203.637 49.1683 203.663 49.1836 203.691C48.8775 204.192 48.5713 204.693 48.2422 205.23L48.2396 205.227ZM51.1278 203.338C51.1278 203.338 51.1099 203.336 51.0997 203.333C51.1304 203.231 51.161 203.126 51.2094 202.955C50.9007 203.016 50.6226 203.07 50.3471 203.123L50.3241 203.042C50.7425 202.755 51.161 202.469 51.5794 202.183C51.5998 202.211 51.6202 202.239 51.6406 202.264C51.4697 202.622 51.2987 202.98 51.1278 203.338ZM58.3891 200.125C58.1518 200.053 57.9095 199.976 57.6671 199.902C57.4528 199.838 57.2155 199.805 57.0598 200.102C56.7868 200.626 56.4398 200.692 56.0393 200.605C55.9449 200.585 55.8326 200.61 55.7076 200.613C55.6438 200.899 55.5826 201.178 55.5162 201.48C55.2279 201.469 54.9524 201.459 54.6641 201.449C54.4625 201.886 54.4957 202.257 54.6794 202.579C54.8325 202.85 54.8758 203.136 54.71 203.573C54.5467 203.307 54.34 203.126 54.2992 202.873C54.2048 202.321 53.9139 202.147 53.4521 202.244C52.9112 202.356 52.5285 202.085 52.0948 201.825C52.9393 201.137 53.7226 200.311 54.7687 200.577C54.8146 200.419 54.8452 200.309 54.8835 200.181C56.1082 199.626 57.3533 199.056 58.6034 198.501C58.7157 198.45 58.8433 198.483 58.9632 198.478C58.782 199.002 58.5983 199.529 58.3942 200.122L58.3891 200.125ZM67.5334 199.756C67.342 199.69 67.2298 199.652 67.092 199.603C67.6992 199.368 68.2657 199.145 68.8346 198.925C68.5157 199.465 68.0794 199.713 67.536 199.754L67.5334 199.756ZM72.3887 193.564C72.4245 193.408 72.4653 193.224 72.524 192.958C72.6924 193.094 72.8276 193.206 72.9705 193.321C72.7766 193.403 72.598 193.477 72.3887 193.564Z" fill="#3C3C3B"/>
<path id="Vector_10" d="M76.3281 192.932C76.3357 192.915 76.3433 192.897 76.3508 192.879C76.3559 192.899 76.3635 192.92 76.3685 192.94L76.3281 192.932Z" fill="#3C3C3B"/>
<path id="Vector_11" d="M68.9232 198.879C68.903 198.887 68.8803 198.894 68.8601 198.902C68.8727 198.879 68.8853 198.856 68.898 198.833C68.9055 198.849 68.9131 198.864 68.9232 198.879Z" fill="#3C3C3B"/>
<path id="Vector_12" d="M48.7774 201.972C48.7648 201.965 48.7522 201.957 48.7371 201.949C48.7522 201.937 48.7699 201.922 48.7875 201.909C48.785 201.929 48.78 201.952 48.7774 201.972Z" fill="#3C3C3B"/>
<path id="Vector_13" d="M77.7085 198.496C78.3719 198.268 78.9459 198.074 79.52 197.877C79.5404 197.908 79.5608 197.941 79.5787 197.972C78.826 198.46 78.3948 199.166 78.3081 200.104C78.2749 200.104 78.2392 200.099 78.206 200.096C78.0504 199.595 77.8947 199.097 77.7085 198.496Z" fill="#3C3C3B"/>
<path id="Vector_14" d="M77.8206 189.734C77.8512 189.671 77.8844 189.609 77.9176 189.545C77.8997 188.812 78.2926 188.267 78.5299 187.641C75.6749 189.198 73.0622 191.235 70.4036 193.096C70.5338 193.309 70.6664 193.528 70.8272 193.789C70.0158 193.866 69.2887 193.92 68.5156 194.234C68.786 194.679 69.0284 195.08 69.3065 195.535C68.9442 195.477 68.6559 195.423 68.3676 195.382C67.3904 195.244 66.4056 195.2 65.3697 195.505C64.9487 195.63 64.5788 195.857 64.3389 196.287C64.0277 196.849 63.7725 197.445 63.4919 198.028C63.4102 197.831 63.3541 197.611 63.2393 197.45C63.1347 197.307 62.979 197.174 62.8157 197.154C62.7417 197.143 62.5963 197.409 62.484 197.55C62.4917 197.576 62.4994 197.599 62.507 197.624C62.4943 197.632 62.4687 197.645 62.4687 197.642C62.4585 197.619 62.4534 197.593 62.4458 197.568C62.2774 197.363 62.0758 197.366 61.8513 197.583C61.614 197.816 61.364 198.036 61.1548 198.299C60.9379 198.57 60.7669 198.884 60.5526 199.212C60.5169 198.685 60.4837 198.202 60.448 197.693C59.9786 197.895 59.5448 198.077 59.1162 198.273C59.0626 198.296 59.0243 198.394 58.981 198.465C59.0447 198.516 59.1162 198.56 59.1647 198.626C59.8382 199.549 60.5067 200.477 61.1777 201.405C61.2032 201.441 61.239 201.464 61.2772 201.497C61.4074 201.454 61.5375 201.408 61.6753 201.362C61.6804 200.92 61.6855 200.51 61.6906 200.094C62.3973 199.966 62.905 200.222 63.3592 200.669C63.4561 200.403 63.525 200.222 63.622 199.961C63.872 200.332 64.1476 200.613 64.2879 200.986C64.5048 201.561 64.9513 201.692 65.4539 201.85C65.658 200.012 65.857 198.222 66.056 196.43C66.0917 196.422 66.1249 196.415 66.1606 196.407C66.75 197.192 67.3368 197.977 67.9696 198.821C68.5335 198.304 69.0897 197.859 69.5744 197.325C69.8576 197.011 70.1459 196.622 70.0184 196.085C69.9367 195.745 70.0413 195.31 70.072 194.773C70.3424 194.993 70.5287 195.144 70.7404 195.315C70.8552 194.832 70.9547 194.41 71.0619 193.948C71.2609 194.042 71.4114 194.116 71.6309 194.221C71.9294 193.597 72.2151 192.997 72.5264 192.345C72.705 192.685 73.922 193.227 74.4885 193.286C74.7002 192.912 74.9094 192.542 75.1493 192.12C75.3866 192.276 75.5626 192.401 75.7463 192.508C75.9453 192.629 76.152 192.736 76.3561 192.848C76.3816 192.35 76.3995 191.851 76.4377 191.35C76.476 190.859 76.647 190.409 76.9761 189.942C77.1241 190.179 77.2618 190.402 77.3945 190.616C77.5144 190.315 77.6599 190.018 77.8283 189.734H77.8206Z" fill="#3C3C3B"/>
<path id="Vector_15" d="M63.4588 198.115L63.4841 198.061C63.4891 198.082 63.4941 198.102 63.4967 198.122C63.4841 198.12 63.4689 198.117 63.4563 198.115H63.4588Z" fill="#3C3C3B"/>
<path id="Vector_16" d="M77.0782 178.419C76.9429 178.434 76.8077 178.429 76.6725 178.393C76.4684 178.342 76.2617 178.291 75.9861 178.222C75.9428 178.741 75.9019 179.201 75.8637 179.662L75.7718 179.738C75.6034 179.373 75.4376 179.007 75.2539 178.608C75.06 178.828 74.9094 178.997 74.7462 179.178C74.6594 179.143 74.5727 179.107 74.4502 179.058C74.3328 179.47 74.1976 179.848 74.1236 180.229C74.0471 180.61 74.0318 180.996 73.9756 181.484C73.0137 180.845 72.0059 181.037 70.9981 181.311C70.8731 181.651 70.8731 181.899 71.0109 182.164C71.1232 182.379 71.1104 182.694 71.1614 183.018C70.8935 183.054 70.6996 183.067 70.5057 183.11C70.4139 183.131 70.271 183.195 70.2429 183.269C70.2097 183.353 70.2429 183.517 70.3041 183.571C70.4521 183.698 70.6333 183.783 70.8017 183.888C70.2897 184.586 69.7692 184.841 69.2402 184.652C68.832 185.235 68.6304 185.951 68.2681 186.592C68.1559 186.531 68.0512 186.406 67.9594 186.434C67.4976 186.575 67.2093 186.255 66.8546 186.117C66.4898 185.974 66.2678 185.657 66.1734 185.217V185.209C66.1198 185.289 66.0458 185.36 66.0101 185.447C65.8086 185.938 65.6325 186.436 65.4182 186.922C65.1324 187.566 65.1222 187.561 64.5737 187.472C64.3466 187.436 64.117 187.405 63.8695 187.37C63.7011 187.999 63.5429 188.587 63.3822 189.177C63.2189 189.783 63.0505 190.389 62.8668 191.066C62.5096 190.852 62.1855 190.665 61.8717 190.463C61.563 190.266 61.2645 190.054 60.9328 189.829C60.6368 190.844 60.3638 191.777 60.0704 192.784C59.8102 192.616 59.601 192.465 59.3764 192.342C59.2744 192.286 59.1238 192.214 59.0294 192.268C58.5753 192.529 58.1313 192.833 57.6593 193.135C57.9502 193.577 58.213 193.976 58.509 194.428C57.6517 194.41 56.9832 194.086 56.2663 193.718C55.9933 194.265 55.7049 194.753 55.5034 195.272C55.2508 195.921 55.2814 195.932 54.6895 196.036C53.6409 196.221 52.7504 196.752 52.1457 197.931C51.8574 197.836 51.5666 197.739 51.24 197.632C51.2349 197.816 51.2323 197.9 51.2323 197.987C51.2323 198.915 50.8802 199.513 50.074 199.787C49.5841 199.953 49.0764 199.994 48.5814 200.048C48.2854 200.081 47.9946 200.035 47.6731 200.025C47.6756 200.513 47.6782 200.96 47.6833 201.405C48.3135 201.387 49.2932 201.116 49.8597 200.807C49.8546 200.789 49.852 200.769 49.8469 200.751C49.7525 200.613 49.3672 200.912 49.454 200.452C49.8239 200.39 50.1735 200.329 50.5205 200.275C51.2502 200.163 51.9416 199.915 52.5437 199.245C52.7912 198.969 53.0872 198.752 53.3679 198.514C54.7711 197.325 56.2152 196.249 57.8226 195.617C58.1518 195.487 58.4809 195.31 58.7922 195.106C60.9073 193.72 63.0199 192.329 65.1299 190.926C65.8545 190.443 66.5689 189.926 67.3317 189.394C66.7475 189.443 66.2219 189.522 65.7065 189.522C65.0023 189.522 64.5711 189.348 64.2752 189.024C64.737 188.947 65.1758 188.888 65.6146 188.796C66.2525 188.663 66.8904 188.515 67.5282 188.359C67.643 188.331 67.7553 188.231 67.9364 188.124C67.6098 187.942 67.3726 187.809 67.1149 187.666C67.2042 187.569 67.2271 187.526 67.2501 187.52C67.3241 187.508 67.3981 187.505 67.4695 187.51C69.054 187.61 70.572 187.214 72.0927 186.084C72.9423 185.45 73.5189 184.701 73.8914 183.691C73.9986 183.402 74.0624 183.098 74.1644 182.806C74.2002 182.704 74.292 182.619 74.4323 182.425C74.4579 182.811 74.4757 183.062 74.4961 183.366C75.111 182.619 75.6851 181.863 76.2285 181.088C76.4352 180.168 76.7439 179.291 77.0782 178.422V178.419Z" fill="#3C3C3B"/>
<path id="Vector_17" d="M58.9657 198.46C58.782 198.992 58.5983 199.524 58.3891 200.124C58.1518 200.053 57.9094 199.976 57.667 199.902C57.4527 199.838 57.2154 199.805 57.0598 200.101C56.7868 200.626 56.4398 200.692 56.0392 200.605C55.9448 200.585 55.8326 200.61 55.7075 200.613C55.6437 200.899 55.5825 201.175 55.5162 201.479C55.2279 201.469 54.9523 201.459 54.664 201.449C54.4624 201.886 54.4956 202.257 54.6793 202.579C54.8324 202.85 54.8758 203.136 54.7099 203.573C54.5466 203.307 54.34 203.126 54.2992 202.873C54.2048 202.321 53.9139 202.147 53.4521 202.244C52.9112 202.356 52.5285 202.085 52.0947 201.825C52.9392 201.137 53.7225 200.311 54.7686 200.577C54.8145 200.418 54.8452 200.308 54.8834 200.181C56.1081 199.626 57.3532 199.056 58.6034 198.501C58.7182 198.45 58.8483 198.483 58.9708 198.478V198.458L58.9657 198.46Z" fill="#3C3C3B"/>
<path id="Vector_18" d="M48.7268 201.945C48.6784 202.006 48.635 202.088 48.5763 202.121C47.5226 202.732 46.4637 203.338 45.4075 203.941C45.3666 203.964 45.3233 203.97 45.2493 203.993C45.3156 203.55 45.3794 203.182 45.8412 202.98C46.3464 202.758 46.8362 202.459 47.3236 202.159C47.4996 202.052 47.6425 201.845 47.8415 201.638C48.0813 201.725 48.4054 201.842 48.7268 201.96V201.945Z" fill="#3C3C3B"/>
<path id="Vector_19" d="M66.3801 184.949C67.1022 185.03 67.7477 185.34 68.5514 184.964C68.4059 185.268 68.2988 185.493 68.1763 185.749C67.9824 185.657 67.8064 185.572 67.6354 185.488C67.092 186.079 66.6455 185.884 66.3801 184.946V184.949Z" fill="#3C3C3B"/>
<path id="Vector_20" d="M49.1786 203.688C48.8725 204.189 48.5663 204.691 48.2372 205.227C47.9769 204.885 47.7473 204.581 47.4819 204.23C48.0432 204.018 48.5867 203.814 49.1327 203.609C49.148 203.637 49.1659 203.663 49.1812 203.691L49.1786 203.688Z" fill="#3C3C3B"/>
<path id="Vector_21" d="M51.6407 202.264C51.4698 202.622 51.2989 202.98 51.1279 203.338C51.1177 203.338 51.1101 203.336 51.0998 203.333C51.1305 203.231 51.1611 203.126 51.2096 202.955C50.9008 203.016 50.6227 203.07 50.3472 203.123C50.3395 203.095 50.3319 203.07 50.3242 203.042C50.7427 202.755 51.1611 202.469 51.5795 202.183C51.5999 202.211 51.6203 202.239 51.6407 202.264Z" fill="#3C3C3B"/>
<path id="Vector_22" d="M72.3887 193.564C72.4244 193.408 72.4652 193.224 72.5239 192.958C72.6923 193.094 72.8275 193.206 72.9704 193.322C72.7765 193.403 72.5979 193.477 72.3887 193.564Z" fill="#3C3C3B"/>
<path id="Vector_23" d="M52.3626 196.729C52.2223 197.023 52.1305 197.215 52.031 197.425C51.9034 197.31 51.786 197.208 51.6074 197.049C51.8626 196.942 52.0743 196.852 52.3626 196.729Z" fill="#3C3C3B"/>
<path id="Vector_24" d="M58.1086 192.401C58.0652 192.163 58.0346 192.007 57.9912 191.777C58.1647 191.798 58.2999 191.816 58.527 191.844C58.3612 192.066 58.254 192.207 58.1086 192.404V192.401Z" fill="#3C3C3B"/>
<path id="Vector_25" d="M68.85 198.921C68.868 198.893 68.8834 198.862 68.9013 198.833C68.909 198.849 68.9167 198.864 68.927 198.88C68.9013 198.89 68.8731 198.898 68.8474 198.908L68.8525 198.921H68.85Z" fill="#3C3C3B"/>
<path id="Vector_26" d="M48.7269 201.957C48.7471 201.939 48.7673 201.924 48.7849 201.906C48.7824 201.927 48.7774 201.95 48.7748 201.97L48.7244 201.939V201.955L48.7269 201.957Z" fill="#3C3C3B"/>
<path id="Vector_27" d="M76.3461 192.861C76.3538 192.887 76.3615 192.915 76.3692 192.941C76.3564 192.938 76.341 192.936 76.3281 192.933C76.3384 192.907 76.3487 192.884 76.3589 192.859L76.3461 192.861Z" fill="#3C3C3B"/>
<path id="Vector_28" d="M63.4819 198.046C63.487 198.072 63.4947 198.097 63.4998 198.123C63.487 198.121 63.4716 198.118 63.4587 198.115C63.4716 198.092 63.4819 198.067 63.4947 198.043H63.4819V198.046Z" fill="#3C3C3B"/>
<path id="Vector_29" d="M62.4819 197.55C62.4896 197.576 62.4973 197.599 62.505 197.625C62.4922 197.632 62.4665 197.645 62.4665 197.643C62.4562 197.619 62.4511 197.594 62.4434 197.568L62.4819 197.55Z" fill="#3C3C3B"/>
</g>
<path id="Vector_30" d="M76.7313 182.781C76.1955 183.476 75.6904 184.102 75.4862 184.261C74.976 184.66 72.991 187.669 72.6771 188.523C72.3633 189.374 67.1533 190.397 66.8114 190.371C66.4721 190.345 63.0685 193.408 62.9588 193.564C62.8465 193.72 60.5758 195.055 60.0196 195.454C59.4634 195.852 56.5497 197.327 56.0981 197.425C55.6465 197.522 50.9952 201.249 50.9825 201.638C50.9697 202.026 53.5466 200.283 53.6615 200.104C53.7737 199.925 62.7343 195.512 63.4614 195.113C64.1886 194.715 66.3624 194.546 66.0792 194.431C65.796 194.318 66.3063 194.091 66.7604 194.106C67.2146 194.122 67.4416 193.58 67.9647 192.769C68.3117 192.232 72.7715 189.681 76.0552 187.827C76.2542 186.142 76.4992 184.465 76.7364 182.783L76.7313 182.781Z" fill="#3C3C3B"/>
<g id="Group_4">
<path id="Vector_31" d="M66.3547 159.257L66.6635 163.77" stroke="#3C3C3B" stroke-width="8.47" stroke-miterlimit="10" stroke-linecap="round"/>
<g id="Group_5">
<path id="Vector_32" d="M75.0372 169.018C74.805 168.635 74.5652 168.257 74.2947 167.819C73.9656 168.29 73.7921 168.74 73.7564 169.228C73.7181 169.729 73.7002 170.228 73.6747 170.726C73.4706 170.614 73.2639 170.506 73.0649 170.386C72.8812 170.276 72.7077 170.154 72.4679 169.998C72.2281 170.419 72.0188 170.79 71.8071 171.161C71.2432 171.105 70.0262 170.56 69.8476 170.223C69.5363 170.872 69.2506 171.475 68.952 172.099C68.7326 171.994 68.5821 171.923 68.3831 171.826C68.2734 172.288 68.1739 172.71 68.0616 173.193C67.8498 173.022 67.6636 172.871 67.3931 172.651C67.3651 173.188 67.2579 173.623 67.3396 173.963C67.4671 174.5 67.1814 174.888 66.8956 175.203C66.4134 175.737 65.8546 176.182 65.2908 176.698C64.658 175.855 64.0686 175.07 63.4818 174.285C63.4461 174.293 63.4129 174.3 63.3772 174.308C63.1782 176.1 62.9792 177.89 62.7751 179.728C62.2724 179.569 61.8285 179.439 61.6091 178.864C61.4687 178.493 61.1906 178.212 60.9432 177.839C60.8462 178.099 60.7799 178.281 60.6804 178.547C60.2237 178.102 59.7185 177.844 59.0117 177.972C59.0066 178.388 59.0015 178.795 58.9964 179.24C58.8586 179.286 58.7311 179.329 58.5984 179.375C58.5601 179.339 58.5244 179.316 58.4989 179.283C57.8279 178.358 57.1594 177.43 56.4858 176.504C56.4374 176.438 56.3634 176.394 56.3021 176.343C56.3455 176.274 56.3838 176.177 56.4374 176.151C56.866 175.954 57.2997 175.773 57.7692 175.571C57.8049 176.082 57.8381 176.563 57.8738 177.09C58.0881 176.76 58.2616 176.445 58.4759 176.177C58.6852 175.914 58.9352 175.694 59.1725 175.461C59.397 175.241 59.5986 175.241 59.767 175.446L59.8078 175.428C59.92 175.287 60.0655 175.021 60.1395 175.032C60.3027 175.052 60.4584 175.185 60.563 175.328C60.6778 175.489 60.7365 175.709 60.8156 175.906C61.0937 175.323 61.3488 174.727 61.6627 174.165C61.9025 173.735 62.2724 173.505 62.6934 173.383C63.7293 173.076 64.7167 173.122 65.6913 173.26C65.9822 173.301 66.268 173.354 66.6303 173.413C66.3522 172.958 66.1098 172.557 65.8393 172.112C66.6098 171.797 67.3395 171.744 68.1509 171.667C67.9902 171.406 67.8575 171.186 67.7274 170.974C70.3859 169.113 72.996 167.075 75.8536 165.519C75.6087 166.163 75.1979 166.715 75.2387 167.482C75.5245 167.119 75.7847 166.792 76.0322 166.475C75.92 164.905 75.9047 163.333 75.9047 161.755C75.9047 161.213 76.0067 160.687 76.1981 160.211C75.8791 159.211 75.6776 158.189 75.5679 157.294C75.425 157.45 75.277 157.616 75.1112 157.798C75.2387 157.238 75.3408 156.79 75.4428 156.34C75.3995 156.322 75.3561 156.302 75.3153 156.284C75.1903 156.463 75.0525 156.632 74.9402 156.821C74.0217 158.373 72.9884 159.825 71.8224 161.241C71.802 160.937 71.7841 160.689 71.7586 160.301C71.6208 160.492 71.5264 160.579 71.4907 160.681C71.3886 160.973 71.3249 161.275 71.2177 161.566C70.8452 162.576 70.2686 163.325 69.419 163.959C67.8983 165.089 66.3802 165.485 64.7958 165.386C64.7244 165.38 64.6504 165.386 64.5764 165.396C64.5534 165.398 64.5304 165.444 64.4411 165.542C64.6988 165.685 64.9361 165.818 65.2627 165.999C65.079 166.107 64.9667 166.206 64.8545 166.234C64.2166 166.39 63.5788 166.541 62.9409 166.672C62.5021 166.764 62.0632 166.822 61.6014 166.899C61.8974 167.224 62.3286 167.398 63.0328 167.398C63.5481 167.398 64.0737 167.318 64.658 167.27C63.8951 167.802 63.1833 168.321 62.4561 168.801C60.3461 170.202 58.2336 171.596 56.1184 172.981C55.8072 173.186 55.478 173.362 55.1489 173.492C53.5415 174.127 52.0974 175.2 50.6941 176.389C50.416 176.624 50.1201 176.844 49.87 177.12C49.2653 177.79 48.5764 178.038 47.8467 178.151C47.4997 178.204 47.1502 178.266 46.7803 178.327C46.6935 178.787 47.0762 178.488 47.1732 178.626C47.2114 178.636 47.2497 178.647 47.288 178.654C47.2548 178.662 47.2191 178.672 47.1859 178.68C46.6195 178.989 45.6398 179.26 45.0096 179.278C45.007 178.833 45.0045 178.386 44.9994 177.897C45.3183 177.908 45.6117 177.954 45.9077 177.92C46.4052 177.864 46.9104 177.823 47.4002 177.66C48.209 177.386 48.5586 176.79 48.5586 175.86C48.5586 175.773 48.5611 175.686 48.5662 175.505C48.8928 175.612 49.1811 175.707 49.472 175.804C50.0767 174.625 50.9697 174.093 52.0158 173.909C52.6077 173.804 52.5771 173.794 52.8297 173.145C53.0312 172.626 53.3221 172.138 53.5925 171.59C54.3069 171.959 54.9754 172.283 55.8352 172.301C55.5393 171.849 55.2765 171.452 54.9856 171.007C55.4576 170.706 55.899 170.402 56.3557 170.141C56.4501 170.087 56.6006 170.159 56.7027 170.215C56.9272 170.338 57.1364 170.489 57.3967 170.657C57.6901 169.65 57.9631 168.717 58.2591 167.702C58.5907 167.927 58.8893 168.139 59.198 168.336C59.5118 168.538 59.8358 168.724 60.193 168.939C60.3793 168.262 60.5451 167.656 60.7084 167.05C60.8692 166.462 61.0274 165.871 61.1957 165.242C61.4432 165.278 61.6729 165.306 61.8999 165.345C62.4485 165.432 62.4587 165.439 62.7445 164.795C62.9588 164.312 63.1348 163.811 63.3364 163.32C63.3696 163.235 63.4384 163.166 63.4946 163.09C63.4946 163.09 63.4971 163.09 63.4997 163.09C63.5941 163.529 63.816 163.847 64.1809 163.99C64.5355 164.128 64.8239 164.445 65.2857 164.307C65.3775 164.279 65.4821 164.404 65.5944 164.465C65.9567 163.823 66.1582 163.108 66.5665 162.525C67.0938 162.714 67.6143 162.459 68.1279 161.76C67.957 161.656 67.7784 161.571 67.6304 161.443C67.5692 161.392 67.5335 161.226 67.5692 161.142C67.5998 161.067 67.7401 161.004 67.832 160.983C68.0259 160.94 68.2198 160.924 68.4877 160.891C68.4367 160.569 68.4494 160.252 68.3372 160.037C68.1994 159.771 68.1994 159.523 68.3244 159.183C69.3348 158.91 70.3426 158.718 71.3019 159.357C71.3555 158.869 71.3733 158.483 71.4499 158.102C71.5264 157.721 71.6591 157.343 71.7765 156.931C71.8989 156.982 71.9857 157.015 72.0724 157.051C72.2332 156.87 72.3837 156.701 72.5802 156.481C72.7639 156.88 72.9297 157.245 73.0981 157.611L73.1899 157.534C73.2282 157.074 73.269 156.614 73.3124 156.095C73.588 156.164 73.7946 156.215 73.9987 156.266C74.4019 156.368 74.8101 156.223 75.2081 156C75.3127 155.942 75.3918 155.888 75.4505 155.832C75.4326 155.341 75.4403 154.847 75.4888 154.359C75.4888 154.224 75.5041 154.085 75.5398 153.94C75.5475 153.881 75.5577 153.82 75.5679 153.761C75.5628 153.664 75.5245 153.554 75.4735 153.513C75.1622 153.265 75.1239 152.838 74.9989 152.424C75.3918 152.247 75.7669 152.076 76.1241 151.917C76.3282 151.457 76.5961 150.989 76.9252 150.693C76.8206 150.698 76.716 150.701 76.6369 150.759C76.045 151.199 75.4607 151.659 74.8866 152.135C74.7667 152.234 74.6264 152.434 74.6187 152.572C74.5881 153.053 74.5983 153.531 74.6187 154.001C74.6366 154.423 74.6876 154.835 74.7259 155.267C74.3126 155.451 73.9936 155.325 73.7257 155.093C73.5522 154.942 73.3915 154.914 73.195 155.113C72.9527 154.518 72.7307 153.965 72.4602 153.301C72.0648 154.28 71.6183 155.098 71.5698 155.919C70.8426 156.844 71.0901 157.772 70.9651 158.69C70.0543 158.204 69.0439 158.235 68.008 158.342C67.7121 158.373 67.5819 158.498 67.5513 158.83C67.5309 159.058 67.5386 159.309 67.4493 159.513C67.2605 159.943 67.3089 160.175 67.6763 160.196C67.6763 160.533 67.4646 160.566 67.2987 160.674C67.0614 160.825 66.8038 160.968 66.6073 161.18C66.3496 161.461 66.1276 161.796 65.921 162.128C65.6531 162.558 65.3214 162.645 64.982 162.561C64.6912 162.489 64.385 162.392 64.1681 162.195C63.7931 161.857 63.4844 161.433 63.1195 161.016C62.821 162.182 62.599 163.343 62.0556 164.432C61.6218 164.417 61.2238 164.404 60.7875 164.391C60.4405 165.498 60.1012 166.582 59.7618 167.661C59.1572 167.607 58.6673 167.224 58.0754 167.339C57.7488 168.021 57.4503 168.65 57.1339 169.31C56.8073 169.064 56.5216 168.85 56.2128 168.62C56.1031 168.85 56.0113 169.044 55.9194 169.231C54.4983 168.909 54.0824 170.077 54.0901 171.077C53.8068 171.215 53.5007 171.281 53.2864 171.488C52.9113 171.854 52.572 172.286 52.2607 172.726C52.1178 172.925 51.9877 173.014 51.7989 173.081C50.9237 173.398 50.0461 173.705 49.176 174.065C48.8418 174.203 48.505 174.436 48.2116 174.699C47.8544 175.021 47.8238 175.272 47.9794 175.681C48.2805 176.476 48.0585 176.998 47.2574 177.312C46.5557 177.588 45.8643 177.606 45.1805 177.573C45.0529 177.568 44.9228 177.573 44.7978 177.573C44.6728 177.997 44.5273 178.378 44.4534 178.762C44.3666 179.212 44.1344 179.508 43.813 179.774C43.0322 180.421 42.3178 181.142 41.8356 182.129C41.7463 182.313 41.5754 182.456 41.4427 182.617C41.2998 182.916 41.1569 183.213 41.0166 183.512C41.8943 183.126 42.7516 183.092 43.6088 183.149C44.2237 183.19 44.8565 183.133 45.377 183.504C45.4408 183.55 45.6423 183.461 45.7316 183.366C46.0378 183.049 46.3159 182.699 46.6144 182.369C47.0813 181.85 47.2752 181.801 47.8085 182.047C48.2856 182.264 48.7525 182.075 49.0612 181.52C49.1352 181.385 49.1582 181.216 49.2015 181.063C49.2679 180.83 49.3317 180.6 49.4261 180.27C49.6174 180.487 49.7424 180.633 49.8675 180.771C50.0767 180.999 50.2808 181.236 50.5053 181.446C50.5972 181.53 50.7273 181.681 50.8676 181.408C50.86 181.385 50.8498 181.359 50.8421 181.336C50.8702 181.351 50.8982 181.367 50.9263 181.382C51.4009 181.61 51.8754 181.837 52.3551 182.067C52.3678 181.771 52.8883 180.664 53.0185 180.643C53.1231 180.71 53.2277 180.774 53.3552 180.855C53.4496 180.367 53.5338 179.933 53.618 179.495C54.0059 179.365 54.4753 179.743 54.7151 178.999C55.177 179.148 55.6107 179.288 56.0802 179.439C56.2537 178.912 56.4093 178.434 56.5726 177.933C57.537 178.754 58.3152 179.792 59.5144 180.204C59.5909 180.045 59.6649 179.887 59.7618 179.687C60.1369 179.649 60.5273 179.608 60.9227 179.567C60.9534 179.736 60.9661 179.892 61.0146 180.025C61.0427 180.106 61.1166 180.214 61.1804 180.209C61.7877 180.17 62.3949 180.109 62.9868 180.055C63.27 178.792 63.5379 177.598 63.8288 176.305C64.0508 176.604 64.2115 176.819 64.3442 176.998C64.237 177.154 64.1503 177.281 64.061 177.409C64.2319 177.55 64.3978 177.703 64.5815 177.821C64.6121 177.841 64.709 177.749 64.8417 177.657C65.0331 177.91 65.1887 178.115 65.3392 178.317C66.4823 177.238 67.5181 176.085 68.1458 174.556C68.3091 174.61 68.4111 174.643 68.5387 174.686C68.651 174.185 68.7556 173.715 68.8321 173.375C69.1051 173.14 69.299 172.956 69.5083 172.8C69.8323 172.559 70.1563 172.283 70.5008 172.127C70.9319 171.93 71.3427 172.033 71.7076 172.227C71.9653 172.365 72.1464 172.311 72.2969 171.951C72.4143 171.67 72.5572 171.399 72.6848 171.133C73.167 171.261 73.5803 171.371 74.0243 171.488C74.134 170.823 74.2437 170.154 74.361 169.425C74.509 169.612 74.6315 169.778 74.7514 169.929C74.8254 169.614 74.9224 169.307 75.0397 169.006L75.0372 169.018ZM65.8801 162.842C65.7347 163.146 65.6276 163.371 65.5051 163.627C65.3112 163.535 65.1351 163.45 64.9642 163.366C64.4207 163.956 63.9742 163.762 63.7089 162.824C64.4309 162.906 65.0764 163.215 65.8801 162.839V162.842ZM55.8556 169.719C55.6898 169.941 55.5826 170.082 55.4372 170.279C55.3938 170.041 55.3632 169.885 55.3198 169.655C55.4933 169.676 55.6286 169.693 55.8556 169.722V169.719ZM54.9933 170.384C55.0392 170.384 55.0851 170.379 55.131 170.376C55.1081 170.552 55.0851 170.729 55.0647 170.905C55.029 170.905 54.9907 170.91 54.955 170.913C54.9677 170.737 54.9805 170.56 54.9958 170.384H54.9933ZM49.6914 174.605C49.5511 174.899 49.4592 175.09 49.3597 175.3C49.2322 175.185 49.1148 175.083 48.9362 174.924C49.1913 174.817 49.4031 174.727 49.6914 174.605ZM42.7363 181.817C42.6954 181.84 42.6521 181.845 42.5781 181.868C42.6444 181.426 42.7082 181.057 43.17 180.855C43.6726 180.633 44.165 180.334 44.6524 180.035C44.8284 179.927 44.9713 179.72 45.1703 179.513C45.4076 179.6 45.7265 179.715 46.0454 179.83C45.9995 179.889 45.9587 179.963 45.9051 179.996C44.8514 180.607 43.7925 181.213 42.7363 181.817ZM45.5658 183.103C45.3055 182.76 45.0759 182.456 44.8106 182.106C45.3719 181.893 45.9153 181.689 46.4613 181.484C46.4766 181.513 46.4945 181.538 46.5098 181.566C46.2036 182.067 45.8975 182.568 45.5683 183.105L45.5658 183.103ZM48.454 181.213C48.454 181.213 48.4361 181.211 48.4259 181.208C48.4565 181.106 48.4871 181.001 48.5356 180.83C48.2269 180.891 47.9488 180.945 47.6732 180.999L47.6503 180.917C48.0687 180.63 48.4871 180.344 48.9056 180.058C48.926 180.086 48.9464 180.114 48.9668 180.14C48.7959 180.498 48.6249 180.855 48.454 181.213ZM55.7153 178C55.478 177.928 55.2356 177.851 54.9933 177.777C54.7789 177.713 54.5417 177.68 54.386 177.977C54.113 178.501 53.766 178.567 53.3655 178.48C53.2711 178.46 53.1588 178.486 53.0338 178.488C52.97 178.774 52.9087 179.053 52.8424 179.355C52.5541 179.345 52.2786 179.334 51.9902 179.324C51.7887 179.761 51.8218 180.132 52.0055 180.454C52.1586 180.725 52.202 181.011 52.0362 181.449C51.8729 181.183 51.6662 181.001 51.6254 180.748C51.531 180.196 51.2401 180.022 50.7783 180.119C50.2374 180.232 49.8547 179.961 49.421 179.7C50.2655 179.012 51.0488 178.186 52.0948 178.452C52.1408 178.294 52.1714 178.184 52.2097 178.056C53.4343 177.501 54.6794 176.931 55.9296 176.376C56.0419 176.325 56.1695 176.358 56.2894 176.353C56.1082 176.877 55.9245 177.404 55.7204 177.997L55.7153 178ZM64.8596 177.632C64.6682 177.565 64.556 177.527 64.4182 177.478C65.0254 177.243 65.5918 177.021 66.1608 176.801C65.8419 177.34 65.4056 177.588 64.8621 177.629L64.8596 177.632ZM69.7149 171.44C69.7506 171.284 69.7915 171.1 69.8501 170.834C70.0185 170.969 70.1538 171.082 70.2966 171.197C70.1027 171.278 69.9241 171.353 69.7149 171.44Z" fill="#3C3C3B"/>
<path id="Vector_33" d="M73.6543 170.808C73.6619 170.79 73.6694 170.772 73.677 170.754C73.6821 170.775 73.6896 170.795 73.6947 170.815L73.6543 170.808Z" fill="#3C3C3B"/>
<path id="Vector_34" d="M66.2494 176.754C66.2292 176.762 66.2065 176.77 66.1863 176.777C66.1989 176.754 66.2115 176.732 66.2241 176.709C66.2317 176.724 66.2393 176.739 66.2494 176.754Z" fill="#3C3C3B"/>
<path id="Vector_35" d="M46.1036 179.848C46.091 179.84 46.0784 179.832 46.0632 179.825C46.0784 179.812 46.096 179.797 46.1137 179.784C46.1112 179.804 46.1061 179.827 46.1036 179.848Z" fill="#3C3C3B"/>
<path id="Vector_36" d="M75.0347 176.371C75.698 176.144 76.2721 175.949 76.8462 175.752C76.8666 175.783 76.887 175.816 76.9049 175.847C76.1522 176.335 75.721 177.041 75.6343 177.979C75.6011 177.979 75.5654 177.974 75.5322 177.972C75.3766 177.47 75.2209 176.972 75.0347 176.371Z" fill="#3C3C3B"/>
<path id="Vector_37" d="M75.1468 167.61C75.1774 167.546 75.2106 167.484 75.2437 167.421C75.2259 166.687 75.6188 166.142 75.8561 165.516C73.001 167.073 70.3884 169.11 67.7298 170.972C67.8599 171.184 67.9926 171.404 68.1533 171.664C67.342 171.741 66.6148 171.795 65.8418 172.109C66.1122 172.554 66.3546 172.956 66.6327 173.411C66.2704 173.352 65.9821 173.298 65.6938 173.257C64.7166 173.119 63.7317 173.076 62.6959 173.38C62.2749 173.505 61.9049 173.733 61.6651 174.162C61.3538 174.725 61.0987 175.32 60.818 175.903C60.7364 175.706 60.6803 175.487 60.5654 175.326C60.4608 175.182 60.3052 175.049 60.1419 175.029C60.0679 175.019 59.9225 175.285 59.8102 175.425C59.8179 175.451 59.8255 175.474 59.8332 175.499C59.8204 175.507 59.7949 175.52 59.7949 175.517C59.7847 175.494 59.7796 175.469 59.772 175.443C59.6036 175.239 59.402 175.241 59.1775 175.458C58.9402 175.691 58.6902 175.911 58.4809 176.174C58.2641 176.445 58.0931 176.76 57.8788 177.087C57.8431 176.56 57.8099 176.077 57.7742 175.568C57.3047 175.77 56.871 175.952 56.4424 176.149C56.3888 176.172 56.3505 176.269 56.3071 176.34C56.3709 176.392 56.4424 176.435 56.4908 176.502C57.1644 177.424 57.8329 178.352 58.5039 179.281C58.5294 179.316 58.5651 179.339 58.6034 179.373C58.7335 179.329 58.8636 179.283 59.0014 179.237C59.0065 178.795 59.0116 178.386 59.0167 177.969C59.7235 177.841 60.2312 178.097 60.6854 178.544C60.7823 178.278 60.8512 178.097 60.9482 177.836C61.1982 178.207 61.4737 178.488 61.6141 178.861C61.8309 179.436 62.2774 179.567 62.7801 179.725C62.9842 177.887 63.1832 176.098 63.3822 174.305C63.4179 174.298 63.4511 174.29 63.4868 174.282C64.0762 175.067 64.663 175.852 65.2958 176.696C65.8596 176.179 66.4158 175.735 66.9006 175.2C67.1838 174.886 67.4721 174.497 67.3446 173.96C67.2629 173.62 67.3675 173.186 67.3981 172.649C67.6686 172.869 67.8548 173.019 68.0666 173.191C68.1814 172.708 68.2809 172.286 68.3881 171.823C68.5871 171.918 68.7376 171.992 68.957 172.097C69.2556 171.473 69.5413 170.872 69.8526 170.22C70.0312 170.56 71.2482 171.102 71.8146 171.161C72.0264 170.788 72.2356 170.417 72.4754 169.995C72.7127 170.151 72.8888 170.276 73.0725 170.384C73.2715 170.504 73.4782 170.611 73.6823 170.724C73.7078 170.225 73.7256 169.727 73.7639 169.225C73.8022 168.735 73.9731 168.285 74.3023 167.817C74.4502 168.055 74.588 168.277 74.7207 168.492C74.8406 168.19 74.986 167.893 75.1544 167.61H75.1468Z" fill="#3C3C3B"/>
<path id="Vector_38" d="M60.7874 175.99L60.8127 175.937C60.8177 175.957 60.8228 175.977 60.8253 175.997C60.8127 175.995 60.7975 175.992 60.7849 175.99H60.7874Z" fill="#3C3C3B"/>
<path id="Vector_39" d="M74.4043 156.294C74.2691 156.31 74.1339 156.304 73.9987 156.269C73.7945 156.218 73.5879 156.166 73.3123 156.097C73.2689 156.616 73.2281 157.077 73.1898 157.537L73.098 157.613C72.9296 157.248 72.7638 156.882 72.5801 156.483C72.3862 156.703 72.2356 156.872 72.0723 157.054C71.9856 157.018 71.8988 156.982 71.7764 156.933C71.659 157.345 71.5238 157.723 71.4498 158.104C71.3732 158.485 71.3579 158.871 71.3018 159.36C70.3399 158.72 69.3321 158.912 68.3243 159.186C68.1993 159.526 68.1993 159.774 68.3371 160.04C68.4493 160.254 68.4366 160.569 68.4876 160.894C68.2197 160.929 68.0258 160.942 67.8319 160.986C67.74 161.006 67.5971 161.07 67.5691 161.144C67.5359 161.228 67.5691 161.392 67.6303 161.446C67.7783 161.574 67.9594 161.658 68.1278 161.763C67.6159 162.462 67.0954 162.716 66.5664 162.527C66.1582 163.11 65.9566 163.826 65.5943 164.468C65.482 164.406 65.3774 164.281 65.2856 164.309C64.8238 164.45 64.5355 164.13 64.1808 163.992C63.816 163.849 63.594 163.532 63.4996 163.092V163.085C63.446 163.164 63.372 163.235 63.3363 163.322C63.1347 163.813 62.9587 164.312 62.7444 164.797C62.4586 165.442 62.4484 165.437 61.8998 165.347C61.6728 165.311 61.4431 165.281 61.1957 165.245C61.0273 165.874 60.8691 166.462 60.7083 167.052C60.545 167.658 60.3766 168.264 60.1929 168.942C59.8357 168.727 59.5117 168.54 59.1979 168.338C58.8892 168.141 58.5907 167.929 58.259 167.704C57.963 168.719 57.69 169.652 57.3966 170.66C57.1364 170.491 56.9271 170.34 56.7026 170.217C56.6006 170.161 56.45 170.09 56.3556 170.143C55.9015 170.404 55.4575 170.708 54.9855 171.01C55.2764 171.452 55.5392 171.851 55.8351 172.304C54.9779 172.286 54.3094 171.961 53.5924 171.593C53.3194 172.14 53.0311 172.628 52.8296 173.147C52.577 173.797 52.6076 173.807 52.0157 173.912C50.967 174.096 50.0766 174.628 49.4719 175.806C49.1836 175.712 48.8927 175.614 48.5661 175.507C48.561 175.691 48.5585 175.775 48.5585 175.862C48.5585 176.79 48.2064 177.389 47.4002 177.662C46.9103 177.828 46.4025 177.869 45.9076 177.923C45.6116 177.956 45.3207 177.91 44.9993 177.9C45.0018 178.388 45.0044 178.836 45.0095 179.281C45.6397 179.263 46.6194 178.992 47.1858 178.682C47.1807 178.664 47.1782 178.644 47.1731 178.626C47.0787 178.488 46.6934 178.787 46.7802 178.327C47.1501 178.266 47.4997 178.204 47.8466 178.151C48.5764 178.038 49.2678 177.79 49.8699 177.12C50.1174 176.844 50.4134 176.627 50.694 176.389C52.0973 175.2 53.5414 174.124 55.1488 173.492C55.4779 173.362 55.8071 173.186 56.1183 172.981C58.2335 171.595 60.346 170.205 62.456 168.801C63.1807 168.318 63.895 167.801 64.6579 167.27C64.0736 167.318 63.5481 167.398 63.0327 167.398C62.3285 167.398 61.8973 167.224 61.6013 166.899C62.0631 166.822 62.502 166.763 62.9408 166.671C63.5787 166.539 64.2165 166.39 64.8544 166.234C64.9692 166.206 65.0815 166.106 65.2626 165.999C64.936 165.818 64.6987 165.685 64.4411 165.541C64.5304 165.444 64.5533 165.401 64.5763 165.396C64.6503 165.383 64.7243 165.38 64.7957 165.385C66.3801 165.485 67.8982 165.089 69.4189 163.959C70.2685 163.325 70.8451 162.576 71.2176 161.566C71.3248 161.277 71.3886 160.973 71.4906 160.681C71.5263 160.579 71.6182 160.495 71.7585 160.3C71.784 160.686 71.8019 160.937 71.8223 161.241C72.4372 160.495 73.0113 159.738 73.5547 158.963C73.7614 158.043 74.0701 157.166 74.4043 156.297V156.294Z" fill="#3C3C3B"/>
<path id="Vector_40" d="M56.2919 176.335C56.1082 176.867 55.9245 177.399 55.7152 178C55.478 177.928 55.2356 177.851 54.9932 177.777C54.7789 177.713 54.5416 177.68 54.386 177.977C54.113 178.501 53.766 178.567 53.3654 178.48C53.271 178.46 53.1587 178.485 53.0337 178.488C52.9699 178.774 52.9087 179.05 52.8423 179.355C52.554 179.344 52.2785 179.334 51.9902 179.324C51.7886 179.761 51.8218 180.132 52.0055 180.454C52.1586 180.725 52.2019 181.011 52.0361 181.448C51.8728 181.183 51.6661 181.001 51.6253 180.748C51.5309 180.196 51.2401 180.022 50.7783 180.119C50.2374 180.232 49.8546 179.961 49.4209 179.7C50.2654 179.012 51.0487 178.186 52.0948 178.452C52.1407 178.294 52.1713 178.184 52.2096 178.056C53.4343 177.501 54.6794 176.931 55.9296 176.376C56.0444 176.325 56.1745 176.358 56.297 176.353V176.333L56.2919 176.335Z" fill="#3C3C3B"/>
<path id="Vector_41" d="M46.053 179.818C46.0045 179.879 45.9612 179.961 45.9025 179.994C44.8488 180.605 43.7899 181.211 42.7336 181.814C42.6928 181.837 42.6494 181.842 42.5754 181.865C42.6418 181.423 42.7056 181.055 43.1674 180.853C43.6725 180.631 44.1624 180.331 44.6497 180.032C44.8258 179.925 44.9687 179.718 45.1677 179.511C45.4075 179.598 45.7315 179.715 46.053 179.833V179.818Z" fill="#3C3C3B"/>
<path id="Vector_42" d="M63.709 162.824C64.431 162.906 65.0765 163.215 65.8802 162.839C65.7348 163.143 65.6276 163.368 65.5052 163.624C65.3113 163.532 65.1352 163.448 64.9643 163.363C64.4208 163.954 63.9743 163.76 63.709 162.821V162.824Z" fill="#3C3C3B"/>
<path id="Vector_43" d="M46.5072 181.564C46.2011 182.065 45.8949 182.566 45.5658 183.103C45.3055 182.76 45.0759 182.456 44.8105 182.106C45.3719 181.893 45.9153 181.689 46.4613 181.484C46.4766 181.512 46.4945 181.538 46.5098 181.566L46.5072 181.564Z" fill="#3C3C3B"/>
<path id="Vector_44" d="M48.9669 180.14C48.796 180.498 48.625 180.856 48.4541 181.213C48.4439 181.213 48.4362 181.211 48.426 181.208C48.4566 181.106 48.4873 181.001 48.5357 180.83C48.227 180.891 47.9489 180.945 47.6734 180.999C47.6657 180.971 47.658 180.945 47.6504 180.917C48.0688 180.631 48.4873 180.344 48.9057 180.058C48.9261 180.086 48.9465 180.114 48.9669 180.14Z" fill="#3C3C3B"/>
<path id="Vector_45" d="M69.7148 171.44C69.7506 171.284 69.7914 171.1 69.8501 170.834C70.0185 170.969 70.1537 171.082 70.2966 171.197C70.1027 171.279 69.9241 171.353 69.7148 171.44Z" fill="#3C3C3B"/>
<path id="Vector_46" d="M49.6888 174.605C49.5485 174.899 49.4566 175.09 49.3571 175.3C49.2296 175.185 49.1122 175.083 48.9336 174.924C49.1887 174.817 49.4005 174.727 49.6888 174.605Z" fill="#3C3C3B"/>
<path id="Vector_47" d="M55.4347 170.276C55.3914 170.039 55.3608 169.883 55.3174 169.653C55.4909 169.673 55.6261 169.691 55.8532 169.719C55.6873 169.941 55.5802 170.082 55.4347 170.279V170.276Z" fill="#3C3C3B"/>
<path id="Vector_48" d="M66.1762 176.796C66.1941 176.768 66.2095 176.737 66.2275 176.709C66.2352 176.724 66.2429 176.74 66.2532 176.755C66.2275 176.765 66.1993 176.773 66.1736 176.783L66.1787 176.796H66.1762Z" fill="#3C3C3B"/>
<path id="Vector_49" d="M46.0531 179.832C46.0732 179.815 46.0934 179.799 46.1111 179.782C46.1086 179.802 46.1035 179.825 46.101 179.845L46.0505 179.815V179.83L46.0531 179.832Z" fill="#3C3C3B"/>
<path id="Vector_50" d="M73.6723 170.736C73.68 170.762 73.6877 170.79 73.6954 170.816C73.6825 170.814 73.6671 170.811 73.6543 170.808C73.6646 170.783 73.6748 170.76 73.6851 170.734L73.6723 170.736Z" fill="#3C3C3B"/>
<path id="Vector_51" d="M60.8107 175.921C60.8158 175.947 60.8236 175.973 60.8287 175.998C60.8158 175.996 60.8004 175.993 60.7876 175.991C60.8004 175.968 60.8107 175.942 60.8236 175.919H60.8107V175.921Z" fill="#3C3C3B"/>
<path id="Vector_52" d="M59.8081 175.425C59.8158 175.451 59.8235 175.474 59.8312 175.5C59.8183 175.508 59.7926 175.52 59.7926 175.518C59.7824 175.495 59.7772 175.469 59.7695 175.443L59.8081 175.425Z" fill="#3C3C3B"/>
</g>
<path id="Vector_53" d="M74.06 160.656C73.5242 161.351 73.019 161.978 72.8149 162.136C72.3046 162.535 70.3196 165.544 70.0058 166.398C69.6919 167.249 64.4819 168.272 64.1401 168.247C63.8007 168.221 60.3971 171.284 60.2874 171.44C60.1752 171.596 57.9044 172.93 57.3482 173.329C56.792 173.728 53.8783 175.203 53.4267 175.3C52.9751 175.397 48.3238 179.125 48.3111 179.513C48.2983 179.902 50.8753 178.158 50.9901 177.979C51.1023 177.8 60.0629 173.388 60.79 172.989C61.5172 172.59 63.691 172.421 63.4078 172.306C63.1246 172.194 63.6349 171.966 64.089 171.982C64.5432 171.997 64.7703 171.455 65.2933 170.645C65.6403 170.108 70.1002 167.556 73.3838 165.703C73.5828 164.018 73.8278 162.341 74.0651 160.659L74.06 160.656Z" fill="#3C3C3B"/>
</g>
</g>
</g>
<defs>
<clipPath id="clip0_87_34483">
<rect width="165" height="218" fill="white"/>
</clipPath>
</defs>
</svg>
