<svg width="300" height="300" viewBox="0 0 414 394" fill="none" xmlns="http://www.w3.org/2000/svg">
<path fill-rule="evenodd" clip-rule="evenodd" d="M591.024 206.828C593.062 208.979 592.883 209.901 589.737 213.742C588.486 215.24 587.198 214.011 585.983 213.32C584.589 212.513 584.088 210.439 582.98 209.939C580.871 209.018 580.978 208.173 582.801 206.444C580.799 206.329 579.369 206.252 577.939 206.175C576.974 206.751 576.331 207.481 576.652 208.787C577.081 210.592 576.724 212.398 576.652 214.203C576.76 214.626 576.795 215.125 577.01 215.509C577.939 217.391 577.618 219.081 576.331 220.541C575.044 221.962 573.542 222.077 571.862 221.271C570.932 220.81 569.967 220.503 569.002 220.118C568.573 221.309 567.429 221.501 566.607 222.116C566.714 224.19 567.429 226.341 566.213 228.338C565.963 229.76 565.82 231.258 565.391 232.641C564.748 234.599 564.247 236.866 562.174 237.711C559.993 238.633 558.384 237.404 557.026 235.637C556.168 235.56 555.345 235.483 554.487 235.368C556.275 237.058 554.273 238.056 553.844 239.362C553.915 240.323 554.023 241.245 554.666 242.013C555.917 243.127 556.74 244.548 557.133 246.238C557.526 247.659 558.42 248.773 559.206 249.926C559.85 250.886 559.778 251.769 559.135 252.691C558.527 253.575 557.812 254.228 556.775 253.92C555.703 253.652 554.523 253.651 553.701 252.73C551.806 250.502 549.375 250.963 548.195 253.69C547.588 255.073 547.874 256.763 546.908 258.03C546.086 260.028 545.228 261.987 544.406 263.984C544.763 269.592 542.154 272.204 537.399 271.013C536.648 271.282 535.504 270.898 535.468 272.243C535.433 273.779 534.36 273.587 533.502 273.779C531.965 273.971 530.428 274.125 528.89 274.317C528.211 274.97 527.532 275.623 526.817 276.314C529.856 277.659 530.785 281.769 529.999 284.15C529.498 285.687 529.033 286.993 527.21 285.84C526.245 285.226 525.566 285.648 524.708 286.34C523.599 287.223 522.598 288.222 521.633 289.22C522.348 292.216 522.598 295.136 519.846 297.248C519.953 298.17 520.06 299.054 520.167 299.976C520.668 304.585 520.668 304.585 524.708 303.394C524.958 299.476 528.747 297.056 528.533 292.946C528.533 292.716 528.998 292.447 529.248 292.216C532.001 290.949 533.788 291.179 535.611 293.138C536.434 295.289 536.362 298.055 534.789 298.938C531.393 300.821 529.069 304.239 525.458 305.66C525.53 306.506 525.709 307.312 525.637 308.157C525.494 310.616 523.063 313.112 521.633 312.037C520.06 310.884 519.023 311.461 517.736 312.075C515.77 313.074 513.732 313.996 511.802 312.267C509.871 310.539 509.621 308.272 510.372 305.776C509.192 304.585 508.298 306.467 507.19 306.083C503.579 306.544 503.15 306.121 502.543 301.666C502.543 301.474 502.543 301.282 502.543 301.089C501.72 300.091 500.433 299.476 500.112 298.017C499.361 297.556 498.61 297.056 497.895 296.595C494.785 296.749 493.319 299.783 490.745 301.051C492.032 303.048 494.964 302.165 495.643 304.739C495.857 305.084 496.072 305.43 496.286 305.737C496.286 305.776 496.322 305.852 496.322 305.891C497.788 305.353 498.574 306.237 499.075 307.658C499.146 308.541 499.647 309.194 500.147 309.847C502.936 313.458 499.969 319.988 495.679 319.988C491.746 319.949 487.814 320.833 483.845 321.294C482.88 321.409 481.915 321.524 481.2 322.293C478.376 325.25 475.408 328.131 474.157 332.395C473.978 333.009 474.05 333.701 473.156 333.739C471.297 333.816 467.472 330.666 466.793 328.477C465.541 326.671 466.113 324.444 465.649 322.446C464.969 319.335 466.542 315.955 468.759 316.262C470.94 316.569 470.546 315.263 470.797 314.073C469.724 313.65 468.437 314.265 467.829 313.112C467.829 313.151 467.794 313.151 467.794 313.189C467.794 313.65 467.579 314.034 467.293 314.341C467.257 314.341 467.257 314.38 467.222 314.38C467.007 315.571 466.185 316.339 465.255 316.992C464.397 317.568 464.004 318.183 464.755 319.143C461.966 320.218 462.574 317.453 461.823 316.185C460.286 316.339 458.749 316.531 457.212 316.685C455.388 317.107 453.815 317.222 453.708 314.457C453.672 313.842 453.1 313.996 452.779 314.457C453.1 315.417 451.599 316.377 452.314 316.915C454.495 318.605 452.743 319.681 451.956 320.871C450.955 322.369 449.704 323.675 448.846 325.212C448.095 326.633 447.094 327.094 445.736 326.979C445.057 327.094 444.377 327.171 443.698 327.286C442.268 327.862 440.945 325.558 439.515 327.171C438.193 328.861 436.584 330.167 434.725 331.127C434.189 332.664 433.009 333.048 431.65 333.24C430.292 333.432 430.256 333.97 431.186 334.93C432.294 336.082 433.474 337.235 433.938 338.848C434.796 341.767 433.223 344.84 430.256 346.108C427.396 347.337 425.251 346.645 423.857 343.572C422.677 340.96 421.283 340.615 419.209 342.266C418.816 342.574 418.137 342.612 417.851 342.996C415.956 345.378 414.49 343.995 412.989 342.42C411.881 341.229 411.023 339.654 410.772 338.118C410.558 336.735 412.774 337.657 413.311 336.466C413.346 336.389 413.346 336.274 413.382 335.852C410.2 337.042 407.483 335.621 404.802 334.162C403.479 334.238 402.228 334.507 401.37 335.737C400.262 337.388 399.011 337.35 397.652 336.197L397.759 336.121C397.724 336.121 397.724 336.082 397.688 336.082C397.688 336.121 397.652 336.159 397.652 336.197C395.829 336.159 394.828 336.62 396.008 338.809C396.973 340.653 394.971 340.999 394.399 342.074C393.72 343.342 393.04 342.266 392.361 341.69C391.61 340.999 390.717 340.73 389.751 341.383C388.107 342.497 386.212 342.651 384.317 342.843C384.139 342.689 383.924 342.535 383.745 342.343C383.424 341.383 384.21 340.423 383.352 339.27C381.886 337.273 382.995 335.199 385.354 334.699C387.499 334.277 388.679 335.737 389.966 337.081C390.717 337.849 391.432 337.964 392.218 337.196C392.647 336.774 393.434 336.428 393.219 335.737C392.897 334.661 391.932 335.199 391.217 335.122C389.716 334.93 389.465 334.853 389.394 333.778C389.287 333.778 389.179 333.816 389.072 333.816C387.392 333.048 386.355 331.55 385.211 330.167C384.889 330.052 384.568 329.975 384.246 329.936C383.459 330.013 382.673 330.09 381.886 330.167C380.921 330.32 379.992 330.474 379.026 330.628C378.991 330.781 378.955 330.973 378.883 331.127C377.418 331.78 376.095 332.587 374.987 333.854C374.772 335.391 374.343 336.812 373.342 337.964C371.948 339.616 372.091 341.69 371.912 343.688L371.948 343.688C372.663 344.264 373.056 344.955 372.663 345.915C372.091 347.375 373.199 348.912 372.592 350.371C371.555 351.293 371.555 352.561 371.376 353.828C371.09 355.941 371.59 358.169 369.839 360.012C368.337 361.587 367.873 361.818 367.05 359.513C365.799 356.056 365.191 356.133 361.759 357.17C359.614 357.823 357.255 358.438 354.967 357.208C353.394 356.363 354.824 354.827 354.252 353.79C353.036 352.023 351.428 351.831 349.461 352.061C346.458 352.407 343.348 353.828 340.452 351.562C339.952 351.447 339.451 351.37 338.987 351.216C337.056 350.563 335.09 351.139 333.124 350.909C331.443 350.717 331.122 353.214 329.763 353.982C328.834 354.865 327.904 355.749 326.975 356.632C326.796 356.94 326.617 357.247 326.438 357.554C324.401 360.704 322.971 360.742 320.933 357.669C320.111 356.44 319.074 355.557 317.858 354.827C316.428 354.596 315.034 354.328 313.604 354.097C314.176 351.908 314.963 349.411 314.033 347.529C312.746 344.84 313.425 342.612 314.212 340.231C315.249 339.194 316.25 338.003 317.93 338.387L317.966 338.425C316.536 336.85 314.748 336.389 312.746 336.505C310.923 335.083 309.529 337.58 307.634 337.273C308.027 336.351 308.242 335.544 308.671 334.891C309.958 332.779 310.101 331.089 307.598 329.821C306.025 329.015 305.775 327.516 306.49 325.826C307.062 324.52 306.669 323.522 305.56 322.792C303.88 322.1 302.915 320.449 301.521 319.373C297.803 319.258 295.872 317.069 294.978 313.304C294.692 312.114 294.049 310.577 292.297 310.923C292.118 310.923 291.94 310.961 291.761 310.961C291.618 311 291.475 311.038 291.296 311.076C290.903 311.691 290.545 312.767 290.116 312.805C286.041 313.112 287.507 316.224 287.328 318.643C287.221 320.103 287.399 321.179 288.329 322.293C290.796 325.289 290.724 325.865 287.936 328.861C287.221 330.474 285.648 330.935 284.396 331.857C284.039 332.126 283.36 332.241 283.288 331.819C282.859 329.13 280.178 327.171 281.107 324.059C281.393 320.987 279.642 321.294 277.818 321.716C276.281 323.33 274.243 323.176 272.349 323.483C271.848 323.56 271.062 322.946 270.847 323.906C270.668 324.636 270.919 325.289 271.348 325.942C273.099 328.4 272.742 329.783 269.989 331.588C265.985 335.813 260.873 338.771 258.942 338.003C259.228 336.85 260.98 336.044 259.514 334.469C258.478 333.355 256.94 333.816 255.904 332.894C256.547 331.742 258.442 331.55 258.227 330.32C257.584 326.479 259.371 324.444 262.196 322.869C262.66 322.6 262.875 321.832 263.197 321.294C263.125 320.564 263.018 319.796 262.946 319.066C261.731 318.067 261.266 316.608 260.766 315.11C259.765 312.19 259.55 312.152 257.655 314.418C256.583 315.686 255.046 316.377 253.651 316.684C251.792 317.107 250.362 318.106 248.825 319.104C245.786 322.485 245.786 323.637 248.754 326.902C249.29 327.478 249.719 328.208 250.47 328.515C251.542 328.976 251.864 330.013 251.399 331.012C250.005 333.97 248.682 337.004 245.822 338.733C244.893 339.27 243.963 339.462 243.212 338.579C241.639 336.697 239.709 335.276 237.993 333.662C236.813 332.548 236.241 331.511 237.957 330.167C239.423 329.014 239.78 327.017 238.958 325.404C237.993 323.483 237.707 321.409 236.956 319.488C233.882 319.258 231.129 318.144 228.734 315.993C228.305 315.801 227.876 315.609 228.09 314.956C228.448 311.268 231.558 308.964 234.346 310.385C235.741 311.115 236.313 312.574 236.992 313.957C238.386 313.035 239.78 312.306 241.496 312.805C241.568 312.843 241.675 312.843 241.747 312.882C242.891 313.419 243.105 312.421 243.212 311.653C243.32 310.884 243.141 310.039 243.105 309.233C239.208 309.194 237.492 304.662 233.882 304.047C233.524 303.97 233.953 303.74 234.06 303.586C235.204 302.434 233.524 302.203 233.453 301.435C232.595 301.243 232.237 300.436 231.844 299.783C230.95 298.17 230.235 297.863 229.306 299.284C228.054 301.166 226.374 301.205 224.587 301.435C224.158 302.28 222.942 302.511 223.657 304.124C225.945 309.271 225.373 310.961 220.726 314.226C218.509 315.647 216.221 314.149 213.969 314.495C211.967 311.537 209 311.115 205.925 310.692C204.424 310.5 203.744 311.268 203.959 312.382C204.495 315.34 202.958 318.183 203.673 321.14C203.816 321.716 203.816 322.523 203.53 322.984C200.777 327.478 197.738 331.626 192.412 332.74C191.017 333.086 190.588 334.584 189.623 335.391C189.587 339.347 187.836 343.188 189.194 347.26C189.516 348.259 189.444 348.758 190.66 348.72C193.27 348.566 193.448 348.988 192.519 351.447C191.589 353.943 191.232 353.982 188.551 351.908C188.229 352.676 187.979 353.444 187.55 354.136C187.156 354.827 186.656 355.71 185.726 355.134C184.904 354.596 184.69 353.675 185.226 352.714C185.44 352.33 185.798 351.984 185.941 351.562C186.441 349.795 187.585 347.682 186.012 346.223C184.404 344.763 183.724 342.343 181.508 341.613C180.829 341.383 180.936 340.346 180.686 339.693C179.971 337.772 180.185 335.429 178.505 333.931C177.468 334.046 176.431 334.046 175.43 334.315C173.965 334.738 173.285 336.005 172.714 337.427C172.106 338.963 173.285 339.347 174.072 339.923C175.323 340.807 175.073 341.729 174.179 342.612C172.642 344.225 170.997 345.455 168.638 344.686C167.673 344.379 166.6 344.187 165.564 344.456C163.704 347.106 161.917 349.795 160.702 352.868C160.165 354.097 159.593 355.326 159.128 356.594C158.378 358.63 157.555 360.742 158.342 362.97C159.271 365.62 158.95 368.425 159.629 371.075C159.772 371.651 159.629 371.843 159.164 372.112C157.341 373.072 155.554 374.109 153.73 375.108C152.586 376.26 148.94 376.26 148.618 374.839C148.117 372.458 146.652 372.688 145.115 372.688C143.971 371.651 144.006 369.385 142.219 369.039C139.716 368.54 137.285 368.77 135.033 370.23C133.246 371.382 132.388 372.803 133.21 375.262C133.567 376.337 132.638 377.72 131.422 377.951C129.957 378.258 130.529 376.721 130.35 375.992C129.134 371.651 125.381 368.655 120.662 368.348C119.482 369.231 119.661 370.806 119.053 371.958C120.054 373.418 121.841 371.613 122.95 373.111C122.27 373.764 121.555 374.417 120.876 375.031C120.447 377.605 119.16 378.027 116.979 377.144C114.37 376.107 111.974 377.72 109.543 378.373C108.721 378.604 108.113 379.717 108.507 380.639C109.686 383.367 108.185 384.634 106.326 385.902C105.289 386.593 104.646 387.707 104.109 388.898C103.931 391.241 102.822 392.777 100.642 393.814C100.606 390.818 101.214 388.514 102.25 386.286C102.393 385.095 102.501 383.943 102.465 382.752C102.393 379.602 103.287 376.952 106.29 375.684C106.934 375.07 107.577 374.455 108.221 373.841C108.328 371.728 108.471 369.615 107.577 367.656C106.791 365.966 105.432 364.046 103.823 364.699C101.821 365.467 100.713 365.467 99.9981 363.239C99.0686 363.969 99.6049 364.737 99.5334 365.39C100.391 366.389 101.392 367.234 101.929 368.463C103.073 369.308 103.144 370.422 103.073 371.843C102.93 375.3 101.142 377.758 99.1044 380.025C98.1749 381.062 98.4609 383.328 96.8164 383.251C95.2434 383.213 94.9216 381.062 93.7776 380.063C91.4896 380.755 91.0248 377.874 89.2373 377.413C87.5928 376.952 86.7349 375.569 86.8779 373.648C86.9494 373.764 87.0208 373.841 87.1281 373.956C87.0923 373.841 87.0209 373.725 86.8779 373.648C86.5204 371.843 85.3049 372.112 84.1251 372.342C81.7299 376.03 79.4061 379.717 77.7258 383.866C77.3683 384.749 76.9393 384.98 76.1528 384.519C75.2591 384.02 75.2948 383.29 75.688 382.445C76.5818 380.486 77.4398 378.488 78.2621 376.452C78.5838 375.684 78.9413 374.839 78.4051 374.071C77.2253 372.342 77.1896 372.381 77.6186 370.268C77.4041 368.463 76.4746 366.965 75.5808 365.467C73.1856 364.737 70.9691 361.856 68.2164 364.66C67.7516 365.121 66.7507 365.275 67.0366 366.197C67.2869 367.042 68.1449 366.926 68.8242 366.85C69.5034 366.773 70.4329 366.504 70.6474 367.349C70.8977 368.271 69.8609 368.578 69.3962 369.193C67.5372 371.651 65.1419 369.923 62.9969 370.345C61.4239 371.305 60.4944 374.301 57.9561 372.15C56.4189 372.074 55.5966 370.921 55.2391 369.577C54.8101 368.002 54.7744 366.312 54.5956 364.66C52.4506 363.162 50.0197 362.509 47.5172 362.125C44.6572 362.432 42.9769 360.512 41.8329 358.169C40.6174 355.634 38.687 355.864 37.4715 357.17C35.6125 359.167 33.2887 361.011 32.538 364.007C32.967 365.774 32.4307 367.848 33.6462 369.346C35.4694 371.536 34.2897 373.303 33.2529 375.146C32.0374 377.72 30.2856 379.564 27.7831 380.755C25.4952 381.83 23.386 383.213 21.7057 385.287C20.7047 386.555 19.4891 387.592 18.0591 388.283C16.9152 389.704 16.2002 391.702 13.5904 391.894C14.9847 390.204 15.6639 388.475 17.3085 387.63C19.6322 383.981 22.9927 381.446 25.7812 378.296C26.4247 376.952 27.0682 375.607 28.4982 375.108C27.962 374.301 26.8894 375.108 26.3532 374.301C24.9232 374.34 23.6004 374.762 22.3134 375.339C21.5627 375.723 21.2409 374.762 20.6332 374.686C20.5259 375.146 20.3829 375.646 20.2756 376.107C20.1326 376.145 19.9897 376.222 19.8467 376.26C19.0244 378.911 17.3442 380.486 14.4485 381.446C15.521 378.719 17.4157 377.49 18.7742 375.799C19.2032 375.146 19.5965 374.532 20.0255 373.879C19.954 373.341 19.9182 372.842 19.8467 372.304C18.9886 372.419 18.2021 372.342 17.7374 371.382C16.5577 370.998 16.7007 369.884 16.4147 368.924C15.6639 366.696 17.523 365.006 17.3442 363.047C17.0582 359.897 18.7027 358.975 21.098 358.63C26.0314 358.476 30.6431 357.055 35.0404 354.673C37.6859 353.252 38.2937 351.908 36.8995 349.949C35.541 349.949 34.3969 349.372 33.6104 348.182C32.5022 346.453 30.965 346.069 29.1774 346.376C28.2837 346.684 27.3541 346.914 26.5319 347.298C25.1019 347.99 23.6362 348.604 22.1347 347.836C19.525 346.492 16.8795 346.645 14.1624 347.106C13.6977 347.183 13.1972 347.298 12.7325 347.375C12.7325 347.375 12.7324 347.375 12.6967 347.375C9.6579 348.374 7.33423 350.179 6.51202 353.675C5.76123 355.48 4.40271 356.21 2.65094 356.363C1.22095 356.517 -0.387756 356.363 -1.63898 356.978C-3.99847 358.13 -4.7135 356.632 -4.78497 354.827C-4.85651 351.984 -5.85748 349.987 -8.10974 348.643C-8.96771 348.758 -9.6828 348.451 -10.3263 347.874C-13.1506 348.22 -16.2965 347.721 -18.2271 350.717C-19.5855 352.906 -20.9797 351.908 -21.7662 350.602C-22.7672 348.95 -24.09 348.22 -25.6273 347.721C-25.7703 347.682 -25.949 347.644 -26.092 347.567C-28.8806 347.529 -31.1328 348.796 -33.2062 350.755C-35.1368 352.561 -37.389 353.867 -39.82 354.827C-40.4635 355.672 -41.2501 356.171 -42.2868 356.21C-45.0396 357.746 -47.4348 360.089 -50.6165 360.665C-53.119 363.738 -56.6583 364.814 -60.0545 366.158C-63.415 367.349 -66.2392 369.615 -69.3494 371.305C-71.9949 373.533 -74.712 375.684 -78.144 376.337C-78.9662 377.144 -79.8242 377.413 -80.7894 376.606C-83.4707 374.686 -83.7567 373.226 -81.9692 370.614C-81.1827 368.578 -79.3951 368.04 -77.7149 367.311C-75.6414 366.427 -73.4608 365.813 -71.6733 364.276C-69.85 362.432 -67.5977 361.28 -65.3812 360.128C-65.131 359.897 -64.8807 359.667 -64.5947 359.475C-61.3057 357.247 -57.4448 356.479 -53.9055 354.904C-52.1537 354.135 -50.0803 352.829 -50.3305 351.024C-50.8668 346.991 -48.4357 348.105 -46.7912 348.335C-44.7177 348.643 -42.7158 348.527 -40.678 348.105C-36.4238 344.648 -30.7752 343.88 -26.9142 339.693C-26.521 335.736 -25.949 335.237 -22.4813 335.967C-21.6233 336.159 -20.8011 336.159 -19.9431 336.121C-16.7613 336.005 -14.08 334.43 -11.3987 332.817L-11.1485 332.74L-10.8983 332.74C-10.5766 332.471 -10.2548 332.241 -9.93298 331.972C-9.75427 331.319 -8.86053 330.781 -9.28955 330.052C-10.2548 328.4 -9.32532 327.363 -8.43158 326.287C-8.50305 325.75 -8.61023 325.25 -8.68176 324.712C-11.506 321.601 -15.0095 323.598 -18.4415 323.406C-18.0125 322.293 -17.2618 321.563 -17.3691 320.449C-17.5121 318.682 -17.0115 318.106 -15.2597 318.951C-13.4007 319.834 -11.3987 319.796 -9.5755 318.49C-8.35999 317.645 -7.07306 316.953 -5.82178 316.185C-6.35803 315.186 -7.8595 315.34 -8.35999 313.957C-7.14447 313.804 -6.14349 313.688 -5.10675 313.573C-4.32025 313.458 -3.49805 313.343 -3.28357 312.344C-3.06909 311.46 -3.39081 310.731 -4.07007 310.155C-4.74933 309.578 -5.50006 309.079 -5.75031 308.119C-9.36108 305.891 -13.7225 306.083 -17.3691 303.97C-18.0126 303.586 -19.1565 304.278 -20.086 304.431C-23.0175 304.969 -25.9132 305.929 -28.9162 305.315C-29.095 305.353 -29.238 305.353 -29.381 305.315C-38.1755 306.429 -47.0415 306.621 -55.693 309.041C-57.409 309.501 -59.3037 309.271 -61.0197 308.618C-63.701 307.581 -64.2014 305.468 -62.5212 303.087C-60.3047 299.899 -57.3732 299.015 -53.8698 299.745C-53.0117 299.937 -52.1895 300.129 -51.3315 300.244C-43.8598 301.089 -36.4238 298.977 -28.952 299.783C-28.6302 299.707 -28.3085 299.63 -27.9868 299.515C-24.4833 297.824 -20.7652 296.979 -17.0472 295.981C-13.2935 294.982 -9.18225 294.521 -7.03729 290.257C-6.89429 290.027 -6.85858 289.797 -6.85858 289.604C-6.89429 289.835 -6.92999 290.027 -7.03729 290.257C-9.64703 286.071 -9.64703 286.071 -14.0085 286.647C-15.796 286.877 -17.5836 287.069 -19.371 287.261C-21.9093 287.569 -24.4476 288.03 -26.9858 288.145C-28.8806 288.222 -30.9183 288.452 -32.4556 286.724C-32.8845 286.416 -33.2777 286.071 -33.7425 285.879C-35.959 284.803 -35.6014 283.612 -34.2787 281.807C-32.527 279.387 -30.7394 276.929 -29.5597 274.048C-29.238 273.817 -28.952 273.549 -28.6302 273.318C-26.5568 270.13 -23.947 268.094 -20.0503 268.325C-17.8696 268.44 -15.8675 269.054 -13.8655 269.823C-10.4335 269.246 -6.78705 269.746 -3.71252 267.48C-2.42554 266.481 -1.06702 265.789 0.577515 266.02C0.756226 266.097 0.934936 266.212 1.07794 266.327C1.68567 266.058 2.29346 265.828 2.86542 265.559C2.86542 265.444 2.82977 265.29 2.82977 265.175C2.79401 265.175 2.72247 265.175 2.68671 265.175C1.22095 265.098 -0.280579 265.098 -1.49609 263.907C-2.35407 263.331 -3.31927 263.523 -4.24878 263.638C-5.14252 263.754 -6.10773 263.715 -6.21497 262.486C-6.3222 261.295 -5.39282 261.026 -4.49902 260.911C-2.81879 260.758 -1.21008 260.373 0.184204 259.106C-3.67682 258.914 -7.50201 258.069 -11.3987 258.338C-12.9717 258.453 -14.5805 259.221 -16.1893 258.414C-18.0482 258.645 -19.943 258.837 -21.802 259.067C-22.5528 261.526 -20.3363 259.259 -20.1575 260.412C-21.4088 260.604 -22.5527 261.026 -22.7672 262.678C-23.1248 265.482 -24.519 266.942 -27.2717 266.519C-28.3085 266.442 -29.381 266.327 -30.4178 266.25C-31.1328 266.404 -31.955 266.442 -31.8477 267.595C-31.7405 268.325 -31.6691 269.054 -31.5618 269.784C-31.2401 269.746 -30.8826 269.707 -30.5608 269.669C-30.0961 269.477 -29.8815 269.592 -30.096 270.13C-31.097 270.168 -31.4902 271.82 -32.527 271.436C-34.4218 270.744 -35.6373 271.974 -36.9957 272.934C-37.8895 273.548 -38.7475 274.009 -39.82 274.163C-44.2888 274.739 -49.5439 270.591 -50.259 265.866C-50.8667 261.718 -50.402 260.988 -46.7197 260.45C-45.7545 260.297 -44.9323 260.028 -44.1458 259.375C-40.6423 256.571 -38.5687 256.532 -34.9938 259.183C-33.7783 260.066 -32.5628 260.527 -31.097 260.181C-31.0255 260.143 -30.954 260.066 -30.8825 260.066C-30.8468 260.066 -30.811 260.066 -30.7753 260.066C-27.9153 258.837 -24.9123 258.453 -21.8378 258.568C-19.9788 258.338 -18.1198 258.146 -16.225 257.915C-15.2955 257.761 -14.3303 257.646 -13.4008 257.493C-12.7215 257.377 -11.8635 257.531 -11.5418 256.763C-11.1486 255.802 -12.1852 255.61 -12.6143 255.188C-13.6868 254.151 -13.8655 252.422 -12.7931 252.038C-10.9698 251.385 -9.64697 249.657 -7.68073 249.541C-5.75024 248.082 -2.89032 248.389 -1.28156 245.585C-3.81982 245.623 -5.89325 245.969 -7.93103 246.968C-10.1475 248.082 -12.078 245.7 -14.2945 246.353C-12.3282 243.741 -10.1118 241.706 -7.07306 240.976C-5.42853 238.402 -6.00049 235.099 -8.35999 233.409L-8.32434 233.332C-9.96881 233.37 -11.5775 233.332 -11.6847 230.989C-11.8277 228.53 -10.4336 227.801 -8.43158 227.762C-7.57355 227.762 -6.71558 227.609 -5.85754 227.532C-2.96179 227.263 -0.423462 226.11 1.93604 224.344C2.97278 223.575 4.11676 223.345 5.29651 223.23C10.3373 222.73 10.4444 222.385 7.76318 217.929C5.90417 216.431 4.33124 214.702 3.50903 212.282C2.00751 211.168 0.505981 210.016 -0.995545 208.902C-0.888245 208.787 -0.852478 208.672 -0.852478 208.557C-0.995483 208.633 -1.10278 208.749 -0.995545 208.902C-2.42554 209.094 -3.89124 209.363 -5.32123 209.402C-6.53674 209.44 -7.68073 210.9 -8.68176 210.131C-9.64697 209.363 -8.50299 207.712 -9.03925 206.559C-12.0422 205.484 -15.1883 205.023 -18.3343 204.408C-19.9073 204.101 -21.0513 203.486 -21.23 201.258C-16.4395 202.411 -11.8278 203.525 -7.1803 204.639C-4.49902 204.37 -1.81781 204.485 0.756225 205.33C1.6142 205.023 2.61523 205.407 3.47321 204.562C1.36395 201.643 -0.530762 198.646 -4.14154 197.532C-5.82178 196.995 -7.50195 196.15 -8.789 194.767C-9.32526 194.46 -9.89728 194.152 -10.4335 193.883C-13.222 192.885 -15.6888 191.271 -18.1556 189.581C-19.7643 188.467 -21.373 187.161 -23.2678 187.161C-27.7007 187.123 -32.2052 186.585 -36.6024 187.546C-37.0672 187.968 -37.5677 188.429 -38.0325 188.852C-38.5688 189.812 -38.9977 190.887 -40.3205 191.271C-40.1417 189.773 -39.391 189.082 -38.6402 188.314C-38.4972 188.122 -38.3542 187.93 -38.247 187.699C-39.105 185.087 -41.679 186.201 -43.2162 185.049C-45.8975 184.741 -48.9005 185.318 -51.117 183.359C-53.4408 181.323 -55.8717 179.825 -58.8389 179.325C-57.0872 178.98 -55.4069 178.673 -53.7267 178.596C-51.4387 178.519 -49.401 178.98 -47.828 181.169C-46.7197 182.667 -45.254 183.896 -43.252 183.935C-41.0355 183.704 -38.8547 183.628 -37.8537 180.747C-37.3532 179.364 -35.9948 179.287 -34.7793 180.017C-32.0266 180.055 -29.2737 180.862 -26.9142 178.212C-25.6987 176.867 -22.8745 177.827 -22.4097 179.556C-21.8019 181.822 -20.3005 182.59 -18.4773 182.936C-16.6183 183.32 -14.6878 183.551 -12.7931 183.781C-12.5428 183.781 -12.2567 183.781 -11.935 183.896C-9.71851 183.359 -7.68085 184.012 -5.64307 184.857C-3.03333 183.436 0.0412597 185.126 2.57947 183.32C2.72247 183.282 2.86548 183.243 3.00848 183.205C2.15045 182.322 0.327209 182.975 0.0769652 181.016C1.47119 180.401 3.4375 180.055 3.83075 181.592C4.25977 183.359 5.11774 181.976 5.58246 182.398C6.76221 182.245 7.94196 182.053 9.15747 181.899C9.97974 181.438 10.7662 180.939 11.5884 180.478C12.9827 178.98 14.8774 179.133 16.5934 178.711C17.0582 177.866 17.4514 176.867 18.0591 176.137C19.5607 174.37 18.953 173.218 17.3442 172.027C15.235 170.491 13.2687 168.762 11.2309 167.111C10.3729 166.611 9.51495 166.112 8.79993 164.537C10.0869 165.382 10.9092 165.92 11.7314 166.458C12.4822 167.572 12.518 165.075 13.5547 166.112C15.1277 167.725 17.3085 168.109 19.3462 168.532C19.525 169.531 18.1307 169.531 18.3809 170.529C22.1346 168.494 22.7782 168.609 22.7067 171.336C22.7425 171.528 22.7424 171.72 22.7782 171.874C23.9937 172.335 25.2092 172.143 26.4246 171.989C27.4971 171.144 28.7127 171.067 29.964 171.029C31.251 170.606 32.2877 171.374 33.3602 171.835C34.7544 172.488 36.1486 172.68 37.6144 172.296C37.9719 172.219 38.6154 172.296 38.4009 171.643C38.3294 171.374 37.6859 171.336 37.2927 171.182C35.8984 171.451 34.5399 171.105 34.1824 169.569C33.825 167.917 35.2907 167.61 36.4347 167.226C36.7565 167.111 37.0424 166.88 37.3284 166.727C41.0822 163.692 40.9749 161.541 36.8636 159.083C36.0771 158.622 35.1476 158.468 34.2539 158.161C32.1447 157.854 29.9997 157.162 27.9262 157.316C23.8149 157.662 20.0612 155.971 16.1287 155.357C13.233 155.472 10.3372 156.394 7.40576 155.357C6.5835 155.05 5.54669 154.973 5.33221 154.012C5.08191 152.86 5.6897 151.823 6.54767 151.132C7.44141 150.44 8.51392 149.826 9.6579 150.018C12.0174 150.44 14.3054 149.826 16.5934 149.672C18.6312 149.173 20.6332 148.904 22.0275 151.132C25.4595 152.169 28.8199 153.398 32.4307 153.667C33.9322 153.782 35.4694 152.899 36.9351 153.82C37.9362 153.705 38.8657 153.897 39.6879 154.589C40.9034 155.011 42.1547 155.395 43.3702 155.818C44.4069 155.664 44.3711 154.934 44.1924 154.089C43.2271 153.283 42.2977 152.476 41.3324 151.669C40.5459 151.285 39.7952 150.863 39.0087 150.517C38.1865 150.171 37.6859 149.441 37.8289 148.596C37.9719 147.636 38.973 148.02 39.5807 147.943C41.8687 147.559 44.1924 147.367 46.4804 146.983C49.3404 146.522 49.8409 145.524 48.6254 142.72C48.4467 142.297 48.1607 141.951 47.9462 141.529C46.7664 138.955 47.5529 137.419 50.2341 137.073C51.9859 136.881 53.2015 138.072 54.5599 138.955C55.7397 139.723 56.8479 140.146 57.6702 138.417C58.0992 136.881 59.0644 135.844 60.4229 135.268C62.5321 133.347 62.5322 131.158 60.8876 128.853C61.8887 128.469 62.3533 129.237 62.9611 129.391C64.1766 128.776 65.3564 130.005 66.6077 129.506C66.1786 127.048 64.6057 124.397 67.5014 122.438C67.2869 122.362 67.0367 122.246 66.8221 122.169C64.8559 121.977 64.6056 120.134 63.8549 118.712C63.1041 118.213 63.6046 117.637 63.7834 117.061C64.8917 116.446 65.8211 115.832 64.5341 114.41C64.2123 114.026 64.3196 113.373 63.8549 113.028C63.8191 112.682 63.7477 112.336 63.7119 111.952C62.5322 110.608 63.8549 108.956 63.2828 107.535C62.7466 106.037 61.3524 105.038 61.2452 103.31C60.2442 101.504 60.7804 99.9293 62.1031 98.7769C64.9274 96.3954 65.3564 95.3199 63.6761 91.9013C62.8896 90.2881 63.3544 89.5198 64.6771 88.9052C65.4636 88.5595 66.2859 88.2523 67.0724 87.8681C69.2174 86.8694 71.7556 87.4072 73.2929 89.5582C74.7229 91.5172 74.3296 93.5146 72.9354 95.3968C72.0774 96.5491 70.8977 98.2392 71.6484 99.3148C72.5422 100.621 74.1151 99.0843 75.4021 98.8154C76.4746 99.0459 77.5114 99.2763 78.5839 99.5452C80.8362 100.083 83.0883 100.659 85.4478 101.235C84.3396 95.2816 85.3049 93.7451 89.0586 94.9358C89.9524 94.398 90.8818 93.8987 91.7041 93.2841C95.2076 90.5185 96.2801 90.6338 99.1758 94.206C99.4618 94.5517 99.7478 94.8974 100.034 95.2431C100.534 97.01 99.9266 98.5081 98.9256 99.8525C98.6396 101.427 100.427 102.925 99.4261 104.308C98.5681 105.499 99.1044 106.113 99.6049 106.882C100.892 108.841 102.644 109.763 104.896 109.763C105.718 109.763 106.898 108.956 107.291 110.492C107.577 111.76 106.719 112.605 105.897 113.258C103.43 115.332 99.2831 113.873 97.4241 110.377C95.9226 107.535 95.9226 107.535 93.2056 109.609C96.0298 110.838 96.4231 113.757 97.5314 116.216C99.8194 115.524 102.072 116.485 104.324 116.523C106.791 115.947 108.185 118.943 110.759 118.674C110.08 117.675 109.508 116.83 108.936 115.985C108.042 115.255 108.256 114.18 108.185 113.181C107.97 109.571 110.151 107.074 111.903 104.347C112.654 103.655 112.117 101.927 113.762 101.888C114.87 101.85 116.479 102.196 115.943 99.7757C115.8 99.2379 116.908 98.6617 117.802 99.0074C118.517 99.2763 118.91 100.237 119.804 100.083C119.732 100.16 119.625 100.237 119.553 100.313C119.661 100.275 119.768 100.198 119.804 100.083C121.019 98.6617 122.163 99.5836 123.2 100.275C124.308 100.966 125.273 101.85 126.31 102.618C127.776 102.925 127.776 101.12 128.741 100.659C129.385 100.544 130.028 100.429 130.672 100.313C130.707 100.352 130.743 100.39 130.779 100.429L130.636 100.313C130.85 97.3557 129.599 94.7437 128.169 91.8245C132.352 93.7451 132.602 93.553 132.173 89.2509C132.137 88.79 132.102 88.3291 132.03 87.8681C131.78 86.2549 130.779 84.1423 131.387 83.1052C133.067 80.1859 131.601 79.8402 129.528 79.4561C129.134 79.3792 128.562 79.1872 128.634 78.6494C128.67 78.2653 129.027 77.8812 129.349 77.6123C129.849 77.1514 130.064 77.4971 130.529 77.958C132.352 79.7633 134.461 80.2243 136.785 78.9183C135.319 77.2666 132.531 77.6508 131.637 75.1156C131.244 74.5779 130.85 74.0401 130.493 73.5407C129.063 72.2732 128.098 70.3142 125.988 70.1605C124.916 70.1221 123.986 71.0056 122.878 70.6215C124.344 67.4717 124.701 64.1299 124.415 60.6729C124.344 59.7894 124.451 59.0212 125.202 58.4835C125.381 58.2914 125.524 58.0993 125.702 57.9073C126.453 56.8702 125.631 55.641 125.845 54.6808C126.989 54.2966 127.74 55.5258 128.598 55.0649C127.955 52.645 127.955 50.3787 129.706 48.6886C131.101 47.3442 133.103 47.3826 134.533 48.3813C135.927 49.3416 136.892 51.0317 136.249 53.1827C135.677 55.0265 135.927 56.102 138.143 56.6782C139.895 57.1391 141.79 57.6 143.47 58.5219C144.507 58.4067 145.544 58.2914 146.58 58.1762C147.081 57.2543 148.296 56.294 146.33 55.6026C145.615 55.3338 144.972 54.8344 144.328 54.4119C144.006 54.1814 143.542 53.8742 143.72 53.3364C143.899 52.7986 144.435 52.7602 144.793 52.8754C146.437 53.3363 148.225 52.7602 149.762 53.7973C150.549 53.7589 151.478 53.8741 151.907 53.0675C152.979 50.9164 154.731 49.9562 156.733 49.0727C159.987 47.6515 163.311 46.9217 166.672 48.1124C168.316 48.6886 169.675 48.8806 171.284 48.074C173.178 47.1137 174.93 47.4211 175.538 49.9178C175.931 51.5695 177.325 51.7615 178.326 52.4913C179.434 52.5298 180.185 53.2211 180.972 53.9125C182.902 55.1033 184.833 56.294 186.727 57.5232C187.299 57.9073 187.907 58.3682 187.728 59.2901C187.55 60.3272 186.763 60.4425 185.977 60.5961C185.19 60.7114 184.332 60.7497 183.76 60.2504C181.937 58.5987 179.935 59.0597 177.897 59.3286C175.681 59.5974 173.464 59.8663 171.248 60.1352C169.353 60.5961 166.35 59.367 166.922 63.477C167.708 65.2823 168.96 66.8187 169.997 68.4704C171.248 70.4678 170.425 72.0427 168.173 72.1963C166.457 72.3115 164.706 72.1964 162.99 72.4268C161.631 72.5805 160.487 72.7341 159.629 71.236C158.664 69.5843 159.701 68.7009 160.559 67.7022C159.057 66.8955 157.949 65.7816 157.198 64.0915C156.626 62.824 155.697 61.7868 153.98 62.5935C154.552 63.3617 155.16 64.0147 155.589 64.783C156.483 66.4346 154.803 66.6651 154.159 67.3565C153.694 67.8943 152.551 68.5857 152.336 67.3565C151.943 64.8214 149.869 63.7074 148.725 61.7869C147.689 60.02 145.758 58.7524 143.47 59.0981C140.002 59.5974 140.038 59.5974 141.111 63.1312C141.361 63.8994 141.397 64.7445 141.54 65.5512C143.291 66.934 142.076 68.2015 141.397 69.5075C141.432 70.3142 141.754 71.2745 141.468 71.9275C140.324 74.7699 141.79 75.8839 143.899 76.8057C146.116 77.766 147.581 79.3793 147.474 82.1449C148.261 83.0667 148.475 83.8734 147.224 84.5264C146.044 85.1025 146.08 86.0244 146.366 87.292C146.652 88.5596 147.224 89.7119 147.474 90.941C147.903 93.2073 149.583 95.2431 148.618 97.7783C146.294 101.389 146.545 104.654 149.691 107.573C149.977 107.842 150.084 108.341 150.298 108.764C156.555 110.992 157.019 111.99 160.773 106.459C162.382 104.078 161.238 101.888 161.345 99.5836C160.987 98.2392 161.56 97.3173 162.561 96.6259C162.918 95.8193 163.955 96.165 164.276 95.6272C164.92 94.5133 167.101 93.5914 165.492 91.9397C163.955 90.3649 163.025 88.4827 162.024 86.6006C161.845 86.4469 161.631 86.2933 161.452 86.1013C160.451 86.1781 160.13 85.333 159.772 84.6032C159.736 84.4496 159.701 84.2959 159.629 84.1422C157.341 83.6045 155.267 82.337 152.693 82.3753C151.085 82.4138 148.475 81.3382 148.511 78.7647C148.547 76.8057 150.155 75.4229 151.8 74.3858C153.373 73.3871 153.981 75.0387 154.803 75.7301C156.447 77.1514 157.806 78.0349 160.022 76.4984C162.596 74.7699 168.138 76.7673 169.603 79.4177C170.64 80.0322 171.462 80.8773 171.284 82.2217C171.105 83.4508 171.569 83.7582 172.535 83.5277C174.322 83.1436 176.145 83.182 177.933 82.1833C179.506 81.3382 181.901 79.8402 183.51 82.721C183.689 82.9131 183.867 83.1051 184.01 83.2972C185.583 84.2191 187.192 85.1409 188.765 86.0628C187.371 85.9476 186.584 86.1781 186.334 87.8681C186.084 89.6735 185.512 91.402 185.083 93.1689C185.655 95.5888 187.407 95.7425 189.087 95.2816C190.338 94.9359 191.482 94.4749 192.841 94.8206C194.342 95.2047 194.485 94.3597 193.913 93.1689C192.984 91.3252 191.768 89.6351 191.125 87.4456C193.484 87.3304 195.164 85.9092 196.88 84.488C199.383 82.4138 199.919 82.529 201.707 85.2562C202.565 86.5238 203.566 86.8695 204.638 85.4483C206.283 83.2588 208.892 83.2204 211.073 82.2601C211.645 81.9913 212.217 82.3753 212.289 82.9131C212.61 84.7568 213.075 86.7542 212.11 88.4827C211.216 90.096 210.215 91.9782 207.891 91.21C207.284 91.0179 206.712 90.9027 206.318 91.6709C208.07 92.6312 209.357 94.4365 211.359 95.0126C212.217 93.1305 213.504 92.5544 215.363 93.361C215.971 93.6299 216.722 93.7835 217.365 93.6298C218.152 93.4378 219.403 94.3213 219.725 92.7464C219.975 91.5941 219.582 90.8643 218.902 89.8272C217.437 87.6761 215.935 85.2946 215.435 82.7594C214.97 80.4163 214.291 79.1103 212.217 78.611C211.002 78.3805 209.75 78.1501 208.535 77.9196C205.675 76.0759 202.171 74.9235 201.313 70.6983C203.137 70.3526 204.209 73.9248 206.247 71.5433C205.603 71.1976 205.746 70.5062 205.603 69.9301C204.066 68.2784 201.814 68.4704 200.062 67.3565C198.346 66.281 198.06 64.5141 199.562 63.1312C201.707 61.1339 203.53 61.8253 203.995 64.975C204.245 66.7035 204.745 67.5101 206.426 67.0876C206.569 67.0492 206.712 66.9724 206.855 66.934C208.356 65.3591 211.323 65.2439 211.073 61.979C210.358 60.9418 209.5 59.9815 208.964 58.8676C208.499 57.9073 207.677 56.4093 209.035 55.8331C210.215 55.3338 209.786 54.8728 209.786 54.0662C209.822 51.9151 208.606 50.494 207.534 48.9575C206.747 46.6144 207.319 45.5773 209.715 44.8091C210.394 44.9243 211.073 45.0011 211.788 45.1164C212.396 45.078 213.004 44.8859 213.576 45.0395C215.864 45.6541 216.65 44.7322 216.221 42.3123C215.435 41.352 214.648 40.3918 213.826 39.4699C212.074 37.6262 211.967 35.0526 213.54 32.9399C214.255 31.9797 214.863 30.981 214.898 29.7134C214.898 29.2525 214.827 28.7915 215.327 28.5227C215.685 28.3306 221.941 29.5598 222.156 29.9823C223.014 31.6724 224.622 32.5174 225.945 33.6698C228.841 36.1665 228.948 36.2049 227.161 39.5851C225.874 42.0051 225.766 44.5018 227.053 46.6528C228.34 48.8422 229.091 50.7628 227.84 53.1443C227.518 54.4503 227.876 55.5643 228.376 56.755C229.091 58.4451 229.949 60.3272 226.982 60.5577C225.945 60.6345 226.303 61.9021 225.695 62.363C225.909 62.7087 226.124 63.0545 226.338 63.3618C227.339 63.2465 228.34 63.1697 229.341 63.016C230.807 62.7855 231.629 63.3233 231.737 64.975C232.094 65.1287 232.416 65.3207 232.773 65.4744C234.096 65.7048 234.99 66.5499 235.133 67.9327C235.24 69.2002 236.027 69.4307 236.813 69.7764C236.134 69.0082 235.776 67.9711 235.991 67.1261C236.313 65.8969 235.133 66.1658 235.026 65.5128C235.026 65.4744 235.026 65.436 234.99 65.3976C234.704 65.2055 234.454 64.975 234.275 64.6677C233.596 64.2068 232.916 63.7074 231.594 62.7856C233.989 62.4783 235.562 62.2862 237.135 62.0942L237.385 62.0557L237.635 62.0174C238.565 61.0571 239.101 59.8279 239.387 58.4835C239.316 57.0239 240.352 57.2159 241.139 57.1007C243.498 56.755 245.822 57.4848 246.037 52.9139C246.18 49.9178 246.466 47.1137 245.608 44.2329C244.857 43.2726 244.07 43.5799 243.105 43.8872C242.14 44.2329 241.389 43.6567 241.318 42.5044C241.246 41.16 242.068 41.3136 242.891 41.5441C244.142 41.8898 245.071 41.4289 245.715 40.2765C245.929 39.8924 246.108 39.4699 246.358 39.0858C247.538 37.1268 248.646 36.4738 250.041 39.0089C250.613 40.0845 251.828 40.6606 252.865 41.3136C255.439 42.8885 256.047 46.2687 254.295 48.8038C254.903 49.1111 255.51 49.38 256.082 49.6873C256.94 49.572 257.763 49.4184 258.621 49.3032C260.158 47.8436 258.049 47.5363 257.87 46.6528C257.262 46.4607 256.476 45.8077 256.654 45.4236C256.869 44.9243 256.94 44.5402 256.905 44.1561C256.654 43.6183 256.368 43.0421 256.047 42.5044C255.403 41.8514 254.652 41.2368 254.617 40.315C253.794 37.7798 254.831 36.5506 258.299 35.9745C261.91 35.4751 261.91 35.4751 262.231 38.8169C262.482 39.5467 262.732 40.2381 263.018 40.9679C263.804 42.0435 264.734 42.8885 265.842 43.503C268.738 43.4647 268.559 41.8514 267.844 38.3559C267.022 34.3996 268.738 31.826 272.563 32.1717C273.743 32.2869 274.279 31.6724 274.958 31.0578C275.137 30.5969 275.53 30.4433 275.924 30.4048C275.959 29.7902 276.639 29.5214 276.174 28.4843C274.708 25.2193 273.6 21.8007 271.169 18.9967C272.527 18.6125 272.563 19.9185 273.278 20.149C274.458 20.3795 275.28 21.1861 276.067 22.0311C278.319 23.6444 281.286 24.2206 282.466 27.3319C282.609 27.3319 282.752 27.3319 282.895 27.3703C287.471 28.2154 287.471 28.2154 287.65 23.0683C287.65 22.6841 287.578 22.3384 287.578 21.9543C287.65 19.4192 288.579 17.345 290.76 16.1542C292.941 14.9635 296.265 15.4244 298.053 17.7675C299.411 19.5344 301.378 21.3781 300.234 24.3742C299.018 27.6776 296.373 29.2141 293.799 30.8657C292.798 31.5188 291.832 31.8644 293.012 33.2472C293.87 33.3241 295.05 32.8631 295.121 34.438C295.193 36.0513 296.015 37.3573 296.444 38.8169C296.909 40.507 297.481 42.3123 296.694 44.1176C295.693 46.1919 295.836 48.535 295.407 50.7244C294.8 53.7589 295.586 55.4874 298.804 54.4503C299.411 53.5669 299.983 52.645 300.627 51.7615C301.163 51.0701 301.378 50.5708 300.734 49.6489C299.697 48.1508 300.019 46.3071 300.949 44.9627C301.878 43.5799 303.38 44.4633 304.631 44.7707C306.204 43.3878 307.741 42.005 309.278 40.5838C309.386 40.4686 309.243 40.0845 309.243 39.7772C306.919 38.356 304.81 36.7043 304.059 33.7082C303.952 33.2857 303.88 32.7095 304.059 32.4022C304.416 31.7876 305.024 32.2102 305.417 32.4406C307.098 33.4777 308.778 34.5917 310.422 35.6672C311.423 36.4354 312.925 36.5506 313.39 38.0487C313.497 37.9718 313.64 37.9719 313.783 38.0871C314.677 40.6991 316.393 41.4673 318.931 41.0832C319.789 40.968 320.611 42.1203 321.398 40.5454C322.077 39.1626 322.041 38.2023 320.969 37.2421C319.467 36.4354 319.002 35.1678 319.288 33.4393C319.646 31.1346 319.396 29.0604 316.929 28.2154C316.285 28.0233 315.785 27.6776 315.463 26.7557C316.464 27.0246 317.251 26.9094 317.894 27.524C318.073 27.524 318.216 27.4855 318.395 27.4855C319.646 26.218 320.468 24.8352 320.003 22.8378C319.896 22.3385 319.717 21.4166 320.289 21.3782C323.864 21.1477 321.576 18.4205 322.005 16.884C320.969 15.1171 320.254 13.1581 318.824 11.6601C318.073 11.3528 317.108 10.9687 317.286 10.0852C317.68 8.01101 316.75 5.97522 317.215 3.74737C318.144 4.40036 318.931 4.89972 319.717 5.43747C321.04 7.28122 322.47 9.04809 322.935 11.3912C322.971 11.3912 323.006 11.3912 323.078 11.3912C324.15 11.6985 324.794 12.6588 325.759 13.1581C328.583 15.4244 329.155 19.5344 331.872 21.8775C333.195 22.6458 334.482 23.414 335.805 24.2206C338.665 23.606 338.307 20.6483 339.38 18.7278C339.559 18.5357 339.702 18.3821 339.88 18.19C343.026 16.9224 343.169 16.039 340.738 13.5423C339.487 12.2747 338.272 10.9687 337.128 9.58591C335.555 7.66534 336.556 4.01626 338.879 3.74737C341.596 3.44009 343.956 2.36456 346.387 1.21222C348.818 0.0214541 351.606 1.36585 353.036 3.901C354.216 5.9368 353.787 8.24149 351.857 10.3925C350.856 11.5064 349.604 12.0826 348.282 12.5052C345.457 13.427 345.35 13.6191 346.458 16.692C348.389 18.9583 347.602 22.4153 349.39 24.7584C349.426 24.912 349.461 25.0656 349.497 25.2577C350.498 25.2961 351.141 25.8723 351.714 26.7173C351.964 26.6789 352.214 26.6789 352.464 26.6405C356.576 26.1796 357.183 26.8326 357.005 31.2499C357.005 31.5572 357.326 31.8644 357.469 32.1717C357.684 32.287 357.898 32.4406 358.113 32.5559C361.438 33.8235 364.655 33.2088 367.872 31.9797C369.517 29.7518 370.125 27.0631 370.697 24.3358C369.839 22.1464 369.517 19.8417 369.732 16.884C371.305 19.0351 371.984 20.9172 372.162 22.9914C372.341 23.1451 372.556 23.3372 372.734 23.4908C373.485 23.414 373.378 25.0273 374.379 24.4127C375.023 25.0657 374.951 25.9491 374.665 27.4471C375.702 25.4498 376.81 24.6815 377.954 23.9517C378.633 23.1835 378.74 24.067 379.062 24.3742C381.207 25.9491 383.245 27.6008 384.854 29.8286C387.428 30.7505 387.642 34.3228 390.18 35.2831C390.538 35.6288 390.931 35.9361 391.289 36.2818C391.861 36.3202 392.397 36.5891 392.361 37.2421C392.29 39.3163 393.362 40.8143 394.363 42.3892C395.221 43.7336 395.865 45.0395 397.902 44.1177C399.475 43.4263 401.263 43.8872 402.729 45.1164C404.838 46.8833 407.019 48.3429 409.986 47.6131C411.237 47.3058 413.06 47.2674 413.918 48.0357C416.707 50.5708 418.959 53.951 423.321 52.7987C423.607 52.7218 424.071 52.9139 424.286 53.1059C425.287 54.1046 426.181 53.4901 427.074 52.9139C427.825 52.453 428.504 51.8768 429.434 51.8768C430.149 51.6847 430.828 51.5311 431.543 51.3006C432.544 50.9933 432.115 51.6847 432.079 52.1072C430.721 54.143 432.401 53.951 433.688 54.0278C432.866 54.8345 432.151 55.3722 431.615 56.0636C428.433 59.9432 428.433 59.9815 433.152 62.0558C434.689 63.8995 433.331 66.089 433.76 68.0864C432.401 70.5447 431.364 73.003 434.046 75.0004C434.296 75.1156 434.546 75.2309 434.796 75.3461C435.69 75.6918 436.405 76.4216 437.263 76.8441C438.3 77.3819 439.301 78.3422 440.588 77.4203C440.874 77.3435 441.16 77.2666 441.482 77.1898C444.02 74.501 444.592 74.4627 446.665 77.4588C447.559 78.7263 448.667 79.4561 450.097 79.6098C451.456 79.3793 452.85 79.3793 454.602 77.766C453.422 81.9913 455.531 84.1423 457.14 86.4854C458.892 86.3317 460.644 86.447 462.36 86.9847C463.968 86.7927 465.613 86.5622 467.222 86.4854C469.617 86.3701 470.082 87.1 469.152 89.3662C468.723 90.3649 468.223 91.3252 468.115 92.4775C468.223 96.3186 466.757 99.5452 464.54 102.464C465.255 103.271 465.148 104.731 466.149 105.192C467.293 104.616 466.113 102.733 467.615 102.81C468.544 102.849 469.724 102.772 470.332 103.963C470.546 104.347 470.725 104.769 470.94 105.153C472.084 106.959 473.657 108.38 475.623 108.764C477.124 109.033 477.768 107.151 478.84 106.344C480.27 105.23 482.058 104.731 483.524 106.229C484.811 107.573 485.061 109.225 483.667 110.8C482.558 113.412 480.413 113.258 478.268 113.143C478.34 113.181 478.411 113.22 478.483 113.297C478.59 114.795 480.413 114.449 480.735 115.678C481.665 119.404 484.632 118.905 487.134 119.135C488.386 119.25 489.351 118.713 488.636 116.946C488.207 115.908 488.135 114.795 489.208 114.026C489.923 112.144 490.924 111.914 492.64 112.874C493.712 113.489 494.678 114.795 496.108 114.295C498.431 113.489 499.754 114.948 501.077 116.638C501.863 117.675 502.471 118.828 504.008 119.135C505.438 119.404 503.973 120.134 503.937 120.671C504.33 120.94 504.759 121.248 505.152 121.517C507.226 121.632 507.655 123.629 508.656 125.012C510.157 125.934 511.123 127.278 511.23 129.199C511.337 131.004 511.802 132.848 511.194 134.653C510.3 137.688 507.834 137.88 505.474 138.187C505.438 138.187 505.403 138.149 505.367 138.149C505.367 138.187 505.367 138.264 505.367 138.302C504.795 139.954 505.224 141.721 504.866 143.411C504.866 143.603 504.902 143.757 504.902 143.949C504.831 146.791 504.902 149.595 504.116 152.399C506.511 151.593 506.475 153.244 506.511 154.742C506.547 157.393 506.046 160.158 508.513 162.04C508.549 162.233 508.584 162.386 508.62 162.578C509.979 162.962 511.373 163.27 512.231 164.652C512.517 165.152 513.125 165.805 511.981 166.035C510.193 165.267 510.551 167.687 509.478 167.994C511.051 169.684 512.946 170.76 515.127 171.221C516.986 170.798 519.023 171.259 520.704 169.953C521.133 168.609 521.776 167.38 522.741 166.419C522.849 166.15 522.92 165.882 522.992 165.574C523.278 164.998 523.528 164.384 524.314 164.499C524.243 164.46 524.207 164.46 524.136 164.422C523.456 162.924 522.205 161.618 522.527 159.774C520.739 159.621 520.739 159.544 521.168 158.507C521.168 158.468 521.311 158.583 521.419 158.583C521.061 158.315 520.775 158.545 520.489 158.699C519.166 159.352 517.808 159.429 516.449 158.891C514.876 158.276 513.411 157.354 513.017 155.434C512.624 153.59 513.875 152.591 515.091 151.631C515.734 150.095 517.021 149.211 518.094 148.059C518.022 147.867 517.951 147.713 517.915 147.483C518.237 145.562 518.13 143.526 518.737 141.644C518.737 141.106 518.702 140.53 518.702 139.992C519.202 138.264 519.667 136.497 520.167 134.768C520.525 134.308 521.061 134.384 521.562 134.307C521.419 134.231 521.276 134.192 521.204 134.039C521.168 133.693 521.097 133.347 521.061 133.001C523.421 131.004 525.78 130.966 528.426 132.502C530.857 133.885 533.395 135.345 536.219 133.347C537.399 132.541 538.936 131.849 540.009 132.809C541.045 133.77 540.652 135.498 540.223 136.958C539.83 138.341 539.651 139.839 538.543 140.837C536.398 142.95 537.649 145.985 536.791 148.404C535.683 150.709 535.54 152.937 537.184 155.088C537.506 155.472 537.685 156.125 537.649 156.625C537.506 159.851 539.043 162.002 541.439 163.615C544.084 165.882 544.906 168.494 543.369 170.645C541.939 172.642 541.689 174.831 541.939 177.136C542.118 178.865 542.046 180.44 541.403 182.014C540.867 185.817 541.832 187.507 545.371 189.159C546.193 189.543 547.909 189.389 547.051 191.348C546.086 193.538 547.766 196.111 546.265 198.224C546.265 198.57 546.301 198.954 546.301 199.299C546.408 201.22 544.442 202.488 544.799 204.485C544.048 206.905 544.549 209.402 544.513 211.86C544.549 212.014 544.585 212.167 544.62 212.359C545.693 212.628 546.73 212.859 547.802 213.128L547.838 213.128C548.195 210.823 549.911 210.861 551.556 211.169C552.843 211.399 553.88 211.898 553.915 209.709C553.915 208.441 554.845 208.172 555.81 208.134C555.81 208.096 555.774 208.096 555.739 208.057C555.345 207.135 555.238 206.175 555.345 205.176C555.417 204.715 555.524 204.293 555.703 203.909C555.703 203.832 555.667 203.755 555.667 203.678C555.417 202.795 555.095 201.873 556.561 201.873C556.847 201.873 557.133 201.873 557.383 201.796C557.419 201.758 557.455 201.719 557.49 201.681C557.526 201.643 557.562 201.604 557.633 201.566C557.705 201.374 557.669 201.105 557.455 200.682C556.382 199.684 556.954 198.032 556.132 196.918C554.738 195.036 558.563 196.188 557.455 194.383C557.276 194.114 558.885 193.346 560.529 193C560.708 192.962 560.922 192.962 561.101 192.923C561.101 192.731 561.137 192.539 561.244 192.347C562.245 192.27 563.246 192.232 564.283 192.424C567.429 192.962 569.717 195.919 573.041 195.804C572.97 195.842 572.899 195.919 572.827 195.958C572.756 195.996 572.648 195.996 572.577 196.035C573.9 196.956 575.258 196.227 576.581 196.073C578.976 195.766 581.264 196.303 582.765 198.109C585.447 201.681 588.414 204.024 591.024 206.828ZM-0.352051 206.06C-0.316284 206.098 -0.280518 206.137 -0.208984 206.175C-0.137512 206.098 -0.101807 206.021 -0.0303346 205.945C-0.137573 205.983 -0.244812 206.021 -0.352051 206.06ZM166.636 64.1683C166.779 64.0147 166.6 63.8995 166.564 64.0147C166.6 64.0531 166.6 64.13 166.636 64.1683ZM456.961 88.1755L456.926 88.1371C456.926 88.1755 456.89 88.1755 456.89 88.2139C456.926 88.2139 456.961 88.1755 456.961 88.1755C456.961 88.1755 456.961 88.2139 456.961 88.1755C456.961 88.1755 456.997 88.1755 456.961 88.1755ZM316.75 44.2713C316.75 44.3097 316.75 44.3097 316.75 44.2713V44.2713ZM309.529 45.1164C309.529 45.1548 309.529 45.1548 309.529 45.1164C309.529 45.1548 309.529 45.1548 309.529 45.1164C309.529 45.1548 309.529 45.1548 309.529 45.1164ZM280.357 43.3494C280.249 43.119 280.178 42.8885 280.106 42.6581L280.106 42.6196C278.891 41.3905 277.854 39.7388 275.959 39.8156C275.781 39.9308 275.602 40.0845 275.459 40.2765C273.922 41.7361 274.208 43.1958 275.352 44.8091C275.852 45.5389 276.889 46.1151 276.531 47.2674C277.532 47.6899 278.676 47.5747 279.606 48.2661L279.642 48.2661C279.177 47.1906 280.142 46.576 280.428 45.7309C280.821 44.9243 280.678 44.1177 280.357 43.3494ZM87.6643 111.03C87.6286 111.03 87.6286 111.03 87.6643 111.03C87.6286 111.03 87.6286 111.03 87.6643 111.03ZM1.68573 242.896C1.68573 243.088 1.6142 243.357 1.54272 243.703C1.82867 243.549 2.07898 243.357 2.25775 243.05C2.04327 243.012 1.8645 242.973 1.68573 242.896ZM274.672 311.076C274.637 311.076 274.637 311.076 274.637 311.115C274.637 311.153 274.672 311.192 274.672 311.23C274.672 311.153 274.672 311.115 274.672 311.076ZM294.657 306.621C294.835 306.16 295.765 306.198 295.336 305.392C295.372 305.353 295.372 305.276 295.407 305.238C295.014 305.66 293.37 305.814 294.657 306.621ZM148.082 118.981C147.796 120.556 149.583 121.67 149.118 123.283C149.19 123.283 149.262 123.283 149.297 123.283C149.476 123.283 149.655 123.322 149.798 123.437C149.977 123.322 150.155 123.207 150.37 123.13C149.905 122.016 148.832 121.248 148.832 119.903C148.868 119.826 148.868 119.75 148.904 119.673C148.511 119.596 148.261 119.365 148.082 118.981ZM11.2667 329.86C11.2667 329.898 11.2667 329.86 11.2667 329.86C11.2667 329.898 11.2667 329.898 11.2667 329.86C11.2667 329.86 11.2667 329.898 11.2667 329.86ZM17.2726 332.51L17.3085 332.51C17.2727 332.471 17.2727 332.433 17.237 332.433C17.2727 332.433 17.2726 332.471 17.2726 332.51ZM91.2751 342.382C91.4181 342.228 91.5969 342.151 91.7399 342.074C91.0964 339.539 90.0953 341.498 89.2373 342.036C89.9166 342.074 90.6316 341.882 91.2393 342.42C91.2751 342.42 91.2751 342.42 91.2751 342.382ZM531.25 187.277C531.25 187.238 531.25 187.2 531.25 187.2C531.178 187.2 531.143 187.238 531.071 187.238C531.143 187.238 531.178 187.277 531.25 187.277ZM501.935 148.635L501.935 148.673C502.006 148.673 501.971 148.673 501.935 148.635ZM225.838 91.1331C225.838 92.1318 226.231 93.0921 225.874 94.014C226.517 93.7451 226.982 94.1292 227.447 94.667C227.482 94.7822 227.554 94.8974 227.625 95.0126C228.197 94.9743 228.769 94.8974 229.341 94.859C229.663 94.7822 229.985 94.7054 230.307 94.6286C231.772 92.5928 230.593 91.7093 228.984 90.9794C228.948 91.0563 228.912 91.1332 228.841 91.21C227.84 91.9782 226.91 91.3252 225.838 91.1331ZM222.692 116.331C222.728 116.331 222.728 116.331 222.763 116.331C222.728 116.331 222.728 116.331 222.692 116.293C222.692 116.293 222.692 116.293 222.692 116.331ZM204.495 107.42C204.531 106.882 205.174 106.421 205.139 105.768C204.138 106.037 203.923 106.728 203.744 107.381C203.959 107.381 204.173 107.381 204.424 107.381C204.424 107.42 204.459 107.42 204.495 107.42ZM36.7922 302.972C36.7922 302.895 36.7922 302.818 36.7922 302.741C36.7207 302.741 36.6492 302.741 36.5777 302.703C36.6492 302.818 36.7207 302.895 36.7922 302.972ZM517.164 262.371C517.236 262.371 517.272 262.332 517.343 262.332C517.272 262.332 517.2 262.332 517.164 262.332L517.164 262.371ZM147.081 130.658C147.117 130.658 147.152 130.658 147.188 130.658L147.188 130.62C147.152 130.62 147.117 130.62 147.081 130.658ZM31.9659 318.413C32.0017 318.413 32.0016 318.413 32.0374 318.451L32.0374 318.413C32.0374 318.413 32.0017 318.413 31.9659 318.413ZM208.499 267.095C208.463 267.095 208.428 267.057 208.392 267.057C208.392 267.095 208.392 267.095 208.392 267.134C208.428 267.095 208.463 267.095 208.499 267.095ZM485.168 244.894C485.132 244.894 485.097 244.932 485.061 244.932C485.097 244.932 485.132 244.932 485.168 244.932C485.168 244.932 485.168 244.932 485.168 244.894ZM448.632 235.406C448.596 235.406 448.596 235.445 448.596 235.445L448.632 235.445C448.596 235.445 448.596 235.445 448.632 235.406ZM295.121 165.843L295.157 165.843C295.157 165.728 295.121 165.766 295.121 165.843ZM296.694 165.536C296.73 165.536 296.73 165.536 296.766 165.536C296.73 165.536 296.694 165.497 296.623 165.497C296.659 165.459 296.694 165.497 296.694 165.536ZM369.732 175.062C369.696 175.023 369.66 175.024 369.66 174.985C369.66 175.024 369.696 175.023 369.696 175.062L369.732 175.062ZM427.074 205.023C427.11 205.061 427.074 205.061 427.074 205.023C427.11 205.023 427.11 205.023 427.146 204.984C427.11 205.023 427.11 205.023 427.074 205.023ZM431.793 189.889C431.793 189.85 431.793 189.85 431.793 189.812C431.758 189.812 431.758 189.812 431.722 189.812C431.722 189.85 431.758 189.85 431.793 189.889ZM195.236 230.605C195.2 230.605 195.164 230.605 195.129 230.643L195.129 230.681C195.164 230.681 195.2 230.643 195.236 230.605ZM219.617 218.582C219.582 218.62 219.546 218.62 219.546 218.659C219.582 218.659 219.617 218.659 219.617 218.659C219.617 218.659 219.617 218.62 219.617 218.582ZM194.342 227.954C194.342 227.993 194.342 228.031 194.342 228.07C194.342 228.031 194.378 227.993 194.414 227.954C194.414 227.916 194.378 227.916 194.342 227.954ZM121.913 281.615L121.949 281.615C121.949 281.576 121.949 281.615 121.913 281.615ZM234.847 212.359C234.883 212.359 234.918 212.359 234.954 212.321C234.918 212.282 234.883 212.282 234.847 212.359ZM187.907 230.989C187.943 230.989 187.943 230.95 187.979 230.95C187.943 230.95 187.943 230.95 187.907 230.989ZM199.562 221.655C199.526 221.655 199.526 221.655 199.526 221.693C199.526 221.693 199.526 221.693 199.562 221.655ZM82.1589 269.746L82.1946 269.707C82.1588 269.707 82.1231 269.707 82.0873 269.707C82.0873 269.707 82.1231 269.746 82.1589 269.746ZM272.706 130.39C272.706 130.39 272.706 130.351 272.706 130.39C272.706 130.39 272.706 130.351 272.706 130.39ZM352.107 215.279C352.107 215.317 352.107 215.317 352.107 215.279C352.143 215.317 352.107 215.317 352.107 215.279C352.143 215.279 352.143 215.279 352.107 215.279ZM170.819 251.462L170.819 251.5C170.854 251.5 170.855 251.5 170.89 251.5C170.855 251.5 170.819 251.5 170.819 251.462ZM80.5858 269.938C80.5858 269.899 80.6216 269.899 80.6216 269.861C80.5859 269.861 80.5501 269.861 80.5143 269.861C80.5501 269.899 80.5858 269.938 80.5858 269.938ZM260.194 105.576C260.194 105.576 260.158 105.576 260.194 105.576C260.158 105.576 260.158 105.576 260.194 105.576C260.158 105.576 260.194 105.576 260.194 105.576ZM329.763 122.823L329.799 122.861C329.799 122.822 329.835 122.822 329.835 122.784C329.835 122.822 329.799 122.823 329.763 122.823ZM334.196 237.749C334.196 237.749 334.196 237.711 334.196 237.672C334.16 237.672 334.16 237.672 334.125 237.672C334.16 237.711 334.196 237.711 334.196 237.749ZM44.4069 195.842C44.4426 195.842 44.4783 195.881 44.5141 195.881C44.5141 195.842 44.4784 195.804 44.4426 195.766C44.4426 195.766 44.4426 195.804 44.4069 195.842ZM290.939 95.7041C290.974 95.6657 290.939 95.6656 290.939 95.6656L290.939 95.7041ZM483.452 245.7C483.381 245.854 483.345 245.969 483.273 246.123C483.416 246.046 483.488 245.854 483.595 245.7C483.559 245.7 483.524 245.7 483.452 245.7ZM119.124 151.938L119.124 151.977L119.16 151.938C119.124 151.938 119.124 151.938 119.124 151.938ZM258.227 254.266C258.192 254.266 258.192 254.228 258.156 254.228C258.156 254.266 258.156 254.266 258.12 254.304C258.156 254.304 258.192 254.266 258.227 254.266ZM402.8 285.302C402.836 285.302 402.836 285.302 402.8 285.302C402.836 285.302 402.836 285.302 402.8 285.302ZM41.4396 191.732C41.4396 191.771 41.4396 191.732 41.4396 191.732C41.4396 191.771 41.4755 191.771 41.4755 191.771C41.4755 191.732 41.4396 191.732 41.4396 191.732ZM232.881 124.09C232.916 124.09 232.881 124.09 232.881 124.09C232.916 124.09 232.916 124.052 232.916 124.052C232.916 124.052 232.916 124.09 232.881 124.09ZM486.276 216.815C486.276 216.815 486.276 216.777 486.276 216.815C486.312 216.777 486.312 216.777 486.276 216.777C486.276 216.777 486.276 216.777 486.276 216.815ZM405.875 284.457C405.875 284.419 405.875 284.381 405.839 284.381C405.803 284.419 405.767 284.419 405.767 284.457C405.803 284.457 405.839 284.457 405.875 284.457ZM158.306 319.719C158.306 319.757 158.27 319.796 158.27 319.834L158.306 319.834C158.271 319.834 158.306 319.796 158.306 319.719ZM34.6114 299.054C34.5757 299.054 34.5757 299.054 34.54 299.054C34.54 299.054 34.54 299.054 34.54 299.092C34.5757 299.054 34.5757 299.054 34.6114 299.054ZM90.2383 145.485C90.2383 145.447 90.2383 145.447 90.2383 145.485C90.2383 145.447 90.2383 145.447 90.2383 145.485C90.2383 145.447 90.2383 145.447 90.2383 145.485ZM450.24 162.386C450.276 162.386 450.24 162.386 450.24 162.386C450.276 162.386 450.276 162.386 450.24 162.386ZM512.088 263.024C512.052 262.985 512.052 262.947 512.016 262.909C512.016 262.909 512.016 262.909 512.016 262.947C512.016 262.985 512.016 263.062 512.016 263.101C512.052 263.062 512.088 263.024 512.088 263.024ZM466.936 270.898C466.936 270.821 466.936 270.783 466.936 270.706C466.864 270.745 466.828 270.821 466.757 270.898C466.828 270.898 466.9 270.898 466.936 270.898ZM250.541 270.322C250.577 270.322 250.541 270.322 250.541 270.322C250.577 270.322 250.541 270.322 250.541 270.322ZM78.2264 337.503C78.2621 337.503 78.2979 337.503 78.2979 337.503C78.2979 337.465 78.2979 337.427 78.2979 337.388C78.2621 337.427 78.2621 337.465 78.2264 337.503ZM31.9659 318.413L31.9302 318.375L31.9302 318.413C31.9659 318.413 31.9659 318.413 31.9659 318.413ZM20.6689 278.734C20.6332 278.696 20.5975 278.657 20.5617 278.657C20.5617 278.926 20.5616 279.157 20.5259 279.349C20.7404 279.118 20.8834 278.849 20.6689 278.734ZM186.012 114.141C186.012 114.103 186.012 114.103 186.012 114.141C186.012 114.103 186.012 114.103 186.012 114.141C186.012 114.103 186.012 114.103 186.012 114.141ZM299.197 272.243C299.125 272.319 299.09 272.396 299.054 272.473C299.125 272.473 299.161 272.473 299.233 272.473C299.233 272.396 299.197 272.319 299.197 272.243ZM126.024 364.583C125.988 364.622 126.024 364.622 126.024 364.622L126.024 364.583ZM49.3762 158.468C49.3762 158.43 49.4119 158.353 49.4119 158.314C49.3762 158.353 49.3404 158.391 49.2689 158.43C49.3047 158.43 49.3404 158.43 49.3762 158.468ZM251.149 68.0095C251.149 67.9711 251.149 67.9711 251.113 67.9327C251.077 67.9711 251.006 68.0095 250.97 68.0479C251.042 68.0479 251.077 68.0479 251.149 68.0095ZM500.97 158.43C500.97 158.43 500.934 158.43 500.97 158.43V158.43ZM334.732 321.678C334.732 321.678 334.697 321.678 334.732 321.678C334.697 321.678 334.697 321.678 334.732 321.678ZM320.861 323.253L320.861 323.214C320.861 323.253 320.826 323.253 320.861 323.253ZM277.926 302.28C277.961 302.319 277.997 302.357 278.069 302.434C278.069 302.395 278.069 302.319 278.069 302.28C278.033 302.28 277.961 302.28 277.926 302.28ZM242.676 285.302C242.712 285.341 242.712 285.302 242.676 285.302C242.712 285.302 242.712 285.302 242.748 285.302C242.712 285.302 242.712 285.302 242.676 285.302ZM16.4505 265.405C16.4505 265.444 16.4505 265.405 16.4505 265.405V265.405ZM156.304 118.252C156.269 118.29 156.268 118.29 156.233 118.328C156.268 118.328 156.304 118.328 156.376 118.328C156.304 118.29 156.304 118.252 156.304 118.252ZM212.932 112.144C213.576 112.183 214.219 112.259 214.863 112.298C214.863 112.259 214.863 112.221 214.863 112.183C216.185 110.8 218.009 112.221 219.546 111.299C218.581 110.416 217.723 109.148 216.436 110.377C215.399 111.376 214.183 111.76 212.932 112.144ZM250.362 62.5167C250.434 62.5167 250.47 62.5167 250.541 62.5167C250.505 62.4783 250.505 62.4014 250.47 62.363C250.434 62.4014 250.398 62.4399 250.362 62.5167ZM402.8 54.0278C402.8 53.9894 402.8 53.9894 402.8 53.951L402.764 53.951C402.764 53.951 402.764 53.9894 402.8 54.0278ZM444.985 118.021C444.914 118.059 444.878 118.06 444.806 118.098C444.878 118.136 444.949 118.175 445.021 118.213C445.021 118.175 445.021 118.098 444.985 118.021ZM502.936 182.245C502.864 182.168 502.829 182.13 502.793 182.053C502.793 182.13 502.793 182.168 502.829 182.245C502.864 182.245 502.9 182.245 502.936 182.245ZM496.215 294.982C496.179 295.021 496.179 295.097 496.143 295.136C496.179 295.136 496.215 295.136 496.215 295.136C496.215 295.097 496.215 295.059 496.215 294.982ZM290.367 302.434C290.51 302.203 290.76 301.896 290.724 301.858C290.438 301.589 290.259 301.973 290.045 302.088C289.973 302.127 289.938 302.203 289.866 302.28C290.045 302.242 290.224 302.319 290.367 302.434ZM91.3109 366.12C91.1321 366.005 90.8461 365.928 90.4529 366.043C90.7746 366.12 91.0248 366.158 91.2393 366.235C91.2751 366.197 91.2751 366.158 91.3109 366.12ZM85.8768 339.808C85.8768 339.808 85.8411 339.808 85.8768 339.808C85.8411 339.808 85.8411 339.808 85.8768 339.808C85.8411 339.808 85.8768 339.808 85.8768 339.808ZM25.388 183.666L25.4236 183.704C25.4594 183.666 25.4595 183.628 25.4952 183.628C25.4595 183.666 25.4237 183.666 25.388 183.666ZM112.832 126.241C112.832 126.203 112.797 126.164 112.797 126.164C112.761 126.164 112.725 126.203 112.725 126.203C112.761 126.203 112.761 126.241 112.832 126.241ZM175.895 85.6403C175.824 85.525 175.716 85.4098 175.538 85.333C175.573 85.525 175.716 85.6403 175.895 85.6403ZM201.814 105.768C201.814 105.845 201.814 105.922 201.814 106.037C201.814 105.922 201.85 105.845 201.885 105.768C201.885 105.729 201.85 105.729 201.814 105.768ZM205.317 103.924C205.532 103.847 205.711 103.809 205.854 103.694C205.031 102.81 204.138 102.004 202.922 101.466C203.78 102.311 204.96 102.695 205.317 103.924ZM327.01 27.9465C326.975 27.9465 326.939 27.9081 326.939 27.9081L326.939 27.9465C326.975 27.9465 326.975 27.9465 327.01 27.9465ZM378.526 51.2622L378.526 51.3006L378.49 51.3006C378.49 51.3006 378.49 51.3006 378.526 51.339C378.526 51.339 378.526 51.339 378.562 51.3006C378.598 51.3006 378.597 51.3006 378.597 51.3006C378.526 51.3006 378.526 51.2622 378.526 51.2622ZM535.433 203.486C535.433 203.525 535.433 203.486 535.433 203.486C535.433 203.525 535.433 203.525 535.433 203.486ZM521.133 279.963C521.133 280.078 521.133 280.194 521.133 280.309C521.24 280.194 521.276 280.04 521.347 279.925C521.276 279.925 521.204 279.963 521.133 279.963ZM360.544 327.516C360.508 327.478 360.437 327.478 360.365 327.44C360.437 327.593 360.508 327.709 360.58 327.824C360.58 327.747 360.544 327.632 360.544 327.516ZM354.752 343.572C354.86 343.534 354.967 343.496 355.038 343.457C354.931 343.38 354.86 343.304 354.752 343.265C354.752 343.38 354.752 343.457 354.752 343.572ZM357.148 345.992C357.148 345.916 357.183 345.877 357.183 345.8C357.148 345.8 357.112 345.8 357.076 345.8C357.112 345.839 357.148 345.916 357.148 345.992ZM249.862 295.481C249.826 295.558 249.755 295.635 249.719 295.712C249.862 295.673 249.969 295.635 250.112 295.597C250.041 295.558 249.933 295.52 249.862 295.481ZM86.4489 348.604C86.4131 348.604 86.3416 348.643 86.3059 348.643C86.3059 348.681 86.3058 348.719 86.3416 348.719C86.3416 348.681 86.3773 348.643 86.4489 348.604ZM6.04724 349.526C6.04724 349.526 6.04724 349.565 6.04724 349.603L6.08289 349.603C6.08289 349.565 6.08301 349.565 6.04724 349.526ZM9.40771 324.559C9.37201 324.674 9.33624 324.828 9.30048 324.943C9.44348 324.828 9.55066 324.712 9.6579 324.559C9.58643 324.52 9.51501 324.52 9.40771 324.559ZM14.4127 265.713C14.1625 264.868 13.8407 263.984 13.5904 263.139C12.9827 260.834 14.0909 257.8 11.1594 256.494C11.2667 256.302 11.374 256.11 11.4812 255.918C10.0512 254.765 8.22791 254.496 6.86938 253.229C7.01239 253.613 6.83374 253.92 6.51202 254.112C5.51099 254.65 5.58246 255.495 5.90417 256.417C5.90417 256.455 5.86841 256.494 5.86841 256.532C6.61914 257.224 7.37 257.877 8.15649 258.606C5.47522 260.181 5.04626 261.295 6.7265 262.256C8.04926 262.985 8.9787 263.869 9.72949 265.175C11.1952 265.751 12.7682 266.135 14.4127 265.713ZM73.5432 134.615C74.5799 134 75.2591 134.269 75.7239 135.345C77.1539 135.037 77.7974 136.113 78.1906 137.611C78.0834 137.841 77.9762 138.072 77.7974 138.225C77.9762 138.11 78.0476 137.88 78.1906 137.726C80.3356 136.458 78.2979 136.113 77.6902 135.767C76.0814 134.884 74.0436 134.461 74.1866 131.849C74.1151 131.926 74.0793 132.08 74.0078 132.156C73.0426 132.963 71.6841 133.078 70.8261 134.154C71.7914 135.114 72.6494 135.152 73.5432 134.615ZM75.1161 103.233C75.0447 103.194 75.0446 103.156 74.9731 103.156C74.9731 103.194 74.9731 103.271 74.9731 103.31C75.0446 103.271 75.0804 103.271 75.1161 103.233ZM238.565 69.0082C238.601 68.9314 238.636 68.8545 238.672 68.7777C238.636 68.8161 238.601 68.8545 238.565 68.8929C238.565 68.9314 238.565 68.9698 238.565 69.0082ZM332.48 30.6737C332.516 30.6737 332.48 30.6737 332.48 30.6737C332.516 30.6737 332.516 30.6737 332.516 30.6737C332.516 30.6737 332.516 30.6737 332.48 30.6737ZM535.933 261.257C535.897 261.219 535.862 261.142 535.826 261.103C535.683 260.95 535.504 260.873 535.254 260.796C535.468 260.95 535.683 261.103 535.933 261.257ZM521.311 285.034C521.24 284.957 521.204 284.88 521.133 284.803C521.025 285.11 520.918 285.418 520.811 285.763C520.99 285.533 521.168 285.264 521.311 285.034ZM496.894 296.403C496.966 296.403 497.037 296.403 497.109 296.403C497.037 296.403 496.966 296.403 496.894 296.403ZM488.529 302.242C488.529 302.28 488.529 302.28 488.564 302.319C488.564 302.28 488.564 302.28 488.529 302.242C488.529 302.242 488.529 302.28 488.529 302.242ZM359.936 349.949C359.9 350.832 360.043 351.716 361.223 351.908C361.259 350.832 360.687 350.141 360.615 349.334C359.865 342.074 359.293 339.616 364.941 336.121L364.977 336.121C365.227 335.468 366.299 334.853 365.084 334.123C364.548 333.778 363.904 333.585 363.618 334.507C362.832 337.081 361.795 335.544 360.937 334.661C359.936 333.662 359.543 332.395 359.9 330.858C360.258 329.322 359.471 328.131 358.184 328.169C354.788 328.323 352.786 331.473 352.75 335.199C352.679 338.809 356.647 340.077 356.468 343.572C356.468 343.649 356.754 343.88 356.861 343.841C359.364 343.035 358.613 344.648 358.506 345.8C358.721 345.992 358.899 346.223 359.114 346.492C359.865 347.567 360.007 348.72 359.936 349.949ZM293.262 310.231C293.191 310.155 293.191 310.078 293.119 310.001C293.048 310.078 293.012 310.193 292.941 310.27C293.048 310.27 293.155 310.27 293.262 310.231ZM253.008 307.658C254.402 307.158 256.011 307.696 257.334 308.849C256.69 307.235 256.19 305.622 254.76 304.7C254.08 304.278 253.759 303.663 254.223 302.856C254.474 302.472 254.617 302.088 254.474 301.589C253.83 299.361 254.795 299.092 256.19 299.284C255.618 298.593 255.904 298.055 256.404 297.479C252.793 295.635 250.791 296.019 249.755 298.823C249.862 299.13 249.969 299.438 250.076 299.745C250.076 300.552 250.005 301.358 249.29 301.819C249.361 301.858 249.433 301.896 249.504 301.935C250.184 303.125 250.291 304.546 250.756 305.852C250.791 307.504 251.113 308.311 253.008 307.658ZM208.034 305.507C208.463 305.737 208.857 305.776 209.25 305.545C211.681 304.086 213.254 301.55 215.399 299.745C213.79 299.899 213.325 301.435 212.396 302.395C211.538 303.317 210.573 304.777 209.429 304.124C207.677 303.164 206.032 303.548 204.602 304.201C201.528 305.545 199.311 304.316 197.095 302.28C196.201 301.435 195.772 300.36 195.307 299.284C194.95 298.516 194.449 298.055 193.699 298.785C192.126 300.244 192.733 303.509 194.664 304.354C195.915 304.892 197.56 305.007 197.703 306.966C199.419 307.888 201.099 306.467 202.779 306.89C202.779 306.851 202.779 306.851 202.779 306.813C204.567 303.817 204.817 303.74 208.034 305.507ZM160.523 350.832C160.523 350.871 160.523 350.871 160.523 350.832V350.832ZM85.8054 363.738C85.8411 363.777 85.8411 363.815 85.8768 363.854C86.3773 362.548 87.5213 362.163 88.5581 361.587C88.5938 361.587 88.6296 361.587 88.7011 361.587C88.6296 359.628 88.5224 357.746 86.3059 356.94C85.7339 356.747 85.4836 356.018 85.4478 355.365C85.3049 352.676 83.6961 350.141 85.0189 347.337C85.3049 346.684 84.7329 346.146 84.4111 345.608C84.2681 345.608 84.1609 345.647 84.0179 345.647C83.0526 348.681 82.4091 351.792 81.1221 354.712C79.8351 357.593 78.5482 360.627 79.7636 364.007C79.6921 364.046 79.6206 364.084 79.5491 364.122L79.5849 364.122C81.6584 363.93 83.7319 363.892 85.8054 363.738ZM80.9791 371.997C80.8004 372.227 80.6216 372.419 80.4071 372.611C80.9434 372.688 81.0506 372.381 80.9791 371.997ZM74.6514 362.701C74.9374 362.432 74.8659 362.163 74.6514 361.895C74.7944 362.087 74.8301 362.279 74.6514 362.471C74.4727 362.663 74.5441 362.778 74.6514 362.701ZM70.1111 361.549C69.5391 361.357 69.0387 361.318 68.7527 360.896C68.6097 361.242 68.3951 361.434 68.1091 361.51C68.7169 361.664 69.3604 361.895 70.1111 361.549ZM-4.99951 320.756C-2.211 320.295 -2.211 320.295 -2.67578 323.56C-2.67578 323.598 -2.67578 323.598 -2.67578 323.637C-0.995544 322.292 0.756226 320.679 2.93701 321.793C4.83173 322.753 6.01141 322.369 7.11969 320.794C8.62115 321.755 10.1584 322.216 11.8029 321.102C11.9817 320.986 12.232 321.14 12.4465 321.294C12.5895 321.14 12.7325 320.948 12.8755 320.794C12.6967 319.911 12.4822 319.028 12.7325 318.106C14.0552 318.989 15.092 318.029 16.236 317.568C17.0582 316.915 17.9162 316.3 18.7384 315.609C20.7047 313.957 19.4892 311.653 19.7394 309.617C19.8824 308.58 19.1317 308.272 18.4882 308.234C16.2359 308.042 13.9122 307.12 11.7673 308.733L11.7314 308.733C12.1247 309.886 11.231 310.539 10.659 311.268C8.79999 313.535 6.47626 315.302 5.29651 318.259C4.79602 319.527 3.4375 320.257 2.04327 320.141C-0.459229 319.757 -2.81873 320.026 -4.99951 320.756ZM-9.11084 284.803C-9.11084 284.803 -9.14655 284.803 -9.11084 284.803C-9.11084 284.803 -9.14655 284.803 -9.11084 284.803ZM-6.50104 270.514C-6.46527 270.514 -6.50104 270.514 -6.50104 270.514C-6.46527 270.514 -6.46527 270.514 -6.50104 270.514C-6.46527 270.514 -6.46527 270.514 -6.50104 270.514ZM56.562 142.796C56.562 142.835 56.562 142.835 56.562 142.796C56.562 142.835 56.562 142.835 56.562 142.796ZM57.9561 140.953L57.9561 140.991C57.9561 140.991 57.9919 140.953 57.9561 140.953C57.9561 140.953 57.9919 140.953 57.9561 140.953ZM65.2491 98.9306C65.2849 98.9306 65.3564 98.969 65.3922 98.969C65.5352 98.9306 65.6781 98.8922 65.7854 98.7769C65.6066 98.8922 65.4279 98.9306 65.2491 98.9306ZM93.6703 106.728C93.8491 106.69 94.0279 106.651 94.1709 106.574C93.9206 106.421 93.8134 106.574 93.6703 106.728ZM98.8899 119.289C98.8899 119.289 98.9256 119.289 98.9256 119.25C98.8899 119.25 98.8898 119.25 98.8541 119.212C98.8898 119.25 98.8899 119.289 98.8899 119.289ZM101.857 119.02C101.714 119.097 101.643 119.135 101.643 119.135C101.75 119.404 101.964 119.481 102.179 119.519C102.25 119.481 102.322 119.404 102.393 119.365C102.358 119.097 102.322 118.828 101.857 119.02ZM145.329 107.304C144.614 106.459 143.935 105.461 143.649 104.27C141.003 105.268 140.646 108.495 138.823 110.262C138.715 110.339 138.894 111.03 139.109 111.184C139.287 111.299 139.788 111.184 140.002 110.992C141.182 109.801 142.29 110.147 143.434 110.992C144.9 111.568 146.044 113.104 147.76 112.797C147.832 112.759 147.903 112.72 147.975 112.682C148.082 112.682 148.189 112.682 148.332 112.682C148.439 112.643 148.511 112.643 148.618 112.605C147.903 110.492 146.652 108.879 145.329 107.304ZM170.962 82.8746C171.033 83.2203 171.141 83.5661 171.319 83.8734C171.462 84.1423 171.641 84.2575 171.855 84.3727C171.498 84.0654 171.248 83.566 170.962 82.8746ZM187.264 97.5094C186.084 97.2406 184.868 97.1253 184.082 96.0114C184.189 97.1253 183.26 97.3174 182.616 97.7399C182.044 98.124 181.079 98.3929 181.186 99.1227C181.651 102.234 179.542 104.846 179.899 107.88C179.863 107.996 179.792 108.111 179.72 108.188C181.15 108.457 181.186 109.571 181.007 110.838C181.007 111.069 181.079 111.184 181.258 111.222C181.258 111.069 181.222 110.915 181.222 110.761C181.222 110.569 181.329 110.454 181.436 110.3L181.401 110.3C181.865 106.843 184.296 105.384 186.835 104.001C188.729 103.962 189.48 103.079 188.837 101.082C188.694 100.659 188.801 100.198 188.944 99.7372C189.695 97.8167 188.229 97.7399 187.264 97.5094ZM228.769 65.6664L228.769 65.7048L228.805 65.7048C228.805 65.7048 228.805 65.7048 228.769 65.6664ZM293.155 33.8234C293.191 33.8234 293.155 33.8234 293.155 33.8234C293.191 33.8234 293.191 33.8234 293.155 33.8234L293.262 33.6698C293.262 33.7082 293.191 33.7466 293.155 33.8234ZM346.601 20.9556C346.566 20.9556 346.53 20.9556 346.494 20.9556C346.53 20.994 346.566 21.0324 346.601 21.0709C346.601 21.0324 346.601 20.994 346.601 20.9556ZM484.668 122.899C484.668 122.861 484.668 122.861 484.668 122.899V122.899ZM538.114 141.145C538.257 141.222 538.436 141.26 538.65 141.375C538.471 141.222 538.293 141.183 538.114 141.145Z" fill="#3C3C3B"/>
</svg>
