<svg width="134" height="154" viewBox="0 0 134 154" fill="none" xmlns="http://www.w3.org/2000/svg">
<g id="Group" opacity="0.77">
<g id="Group_2">
<g id="Group_3">
<path id="Vector" d="M122.204 32.7916L86.6198 12.2469L67.7397 1.34863L67.6291 1.42227V1.34863L42.554 15.8183L40.3046 17.107L35.8427 19.6842L18.4376 29.7357L4.38818 37.8358V110.884L18.4376 118.984L35.8427 129.035L40.3046 131.613L42.554 132.901L67.6291 147.371H67.7397L86.6198 136.473L122.204 115.928L131.018 110.847V37.8726L122.204 32.7916ZM112.248 100.059L86.6198 114.823L67.666 125.758L42.5909 111.289L40.3415 110L35.8796 107.423L23.1945 100.096V48.734L35.8796 41.4072L40.3415 38.8299L42.5909 37.5412L67.7766 23.0347L86.6567 33.933L112.285 48.734V100.096L112.248 100.059Z" fill="#BDBDBD"/>
<path id="Vector_2" d="M86.6198 85.2947L97.2398 91.4433L86.6198 97.592L67.7397 108.49L42.5539 93.9838L40.3414 92.6952L38.1289 91.4433V57.3494L40.3414 56.0608L42.5539 54.7721L67.7397 40.2656L86.6198 51.2007L97.2398 57.3494L86.6198 63.4981L84.9235 64.4922L67.629 54.4776L50.4452 64.4922V84.3742L67.7397 94.3888L85.0341 84.3742L86.6198 85.2947Z" fill="#BDBDBD"/>
</g>
<path id="Vector_3" d="M67.7396 40.2662L97.2397 57.3132L84.9234 64.456L67.629 54.4413L50.4451 64.456V84.338L67.7396 94.3526L85.034 84.338L97.2766 91.4071L67.7765 108.454L38.1657 91.4071V57.3132L67.7765 40.2662M67.7765 36.9157C67.1865 36.9157 66.6333 37.063 66.1171 37.3575L36.5063 54.4045C35.4738 54.9936 34.8101 56.0982 34.8101 57.3132V91.4071C34.8101 92.6221 35.4369 93.7267 36.5063 94.3158L66.1171 111.363C66.6333 111.657 67.2233 111.805 67.7765 111.805C68.3296 111.805 68.9565 111.657 69.4727 111.363L98.9729 94.3158C100.005 93.7267 100.632 92.6221 100.632 91.4071C100.632 90.1921 100.005 89.0875 98.936 88.4985L86.6934 81.4293C86.1772 81.1348 85.5872 80.9875 84.9972 80.9875C84.4072 80.9875 83.8172 81.1348 83.3009 81.4293L67.7027 90.4498L53.7639 82.3866V66.3705L67.5921 58.3073L83.1903 67.3278C83.7065 67.6224 84.2965 67.7696 84.8865 67.7696C85.4765 67.7696 86.0665 67.6224 86.5828 67.3278L98.8991 60.185C99.9316 59.5959 100.558 58.4914 100.558 57.2764C100.558 56.0613 99.9316 54.9936 98.8991 54.3677L69.399 37.3207C68.8827 37.0262 68.2927 36.8789 67.7027 36.8789L67.7765 36.9157Z" fill="black"/>
<path id="Vector_4" d="M66.7072 3.88955L129.948 40.4135V113.461L66.7072 149.985H66.5965L3.35564 113.461V40.4135L66.5965 3.88955V3.96318L66.7072 3.88955ZM66.5965 128.299L111.179 102.637V51.275L66.7072 25.6125L22.1251 51.275V102.637L66.5965 128.299ZM66.7072 0.539062C66.7072 0.539062 66.7072 0.539062 66.6703 0.539062C66.6703 0.539062 66.6703 0.539062 66.6334 0.539062C66.0434 0.539062 65.4903 0.686337 64.9372 0.980885L1.65938 37.5048C0.626878 38.0939 0 39.1985 0 40.4135V113.461C0 114.676 0.626878 115.781 1.65938 116.37L64.9003 152.894C65.4165 153.189 66.0066 153.336 66.5965 153.336H66.7072C67.2972 153.336 67.8872 153.189 68.4034 152.894L131.644 116.37C132.677 115.781 133.304 114.676 133.304 113.461V40.4135C133.304 39.1985 132.677 38.0939 131.644 37.5048L68.4034 0.980885C67.8872 0.686337 67.2972 0.539062 66.7072 0.539062ZM25.4807 53.1895L66.7072 29.4416L107.823 53.1895V100.685L66.5965 124.433L25.4807 100.685V53.1895Z" fill="black"/>
<path id="Vector_5" d="M23.1575 48.6975V100.059L35.8426 107.386V129.072L18.4375 119.021V29.736L35.8426 19.6846V41.4075L23.1575 48.6975Z" fill="white"/>
<path id="Vector_6" d="M42.5541 15.8184V37.5045L40.3416 38.7931V17.107L42.5541 15.8184Z" fill="white"/>
<path id="Vector_7" d="M42.5541 54.7725V93.9842L40.3416 92.6955V56.0611L42.5541 54.7725Z" fill="white"/>
<path id="Vector_8" d="M42.5541 111.289V132.939L40.3416 131.65V109.964L42.5541 111.289Z" fill="white"/>
<path id="Vector_9" d="M97.2399 91.4436L86.6199 97.5923V85.2949L97.2399 91.4436Z" fill="white"/>
<path id="Vector_10" d="M97.2399 57.3499L86.6199 63.4985V51.2012L97.2399 57.3499Z" fill="white"/>
<path id="Vector_11" d="M122.204 32.7918V116.002L86.6199 136.546V114.823L112.211 100.059V48.6974L86.6199 33.8964V12.2471L122.204 32.7918Z" fill="white"/>
<path id="Vector_12" d="M63.6098 5.62012L5.90015 38.9409V85.5899" stroke="white" stroke-width="0.91" stroke-linecap="round" stroke-linejoin="round"/>
<path id="Vector_13" d="M65.859 44.9785L41.042 59.0064V87.1357" stroke="white" stroke-width="0.79" stroke-linecap="round" stroke-linejoin="round"/>
<path id="Vector_14" d="M85.4766 86.5107L71.6484 94.6845" stroke="white" stroke-width="0.79" stroke-linecap="round" stroke-linejoin="round"/>
<path id="Vector_15" d="M128.916 108.491L67.7029 144.537" stroke="white" stroke-width="0.79" stroke-linecap="round" stroke-linejoin="round"/>
</g>
</g>
</svg>
