<svg width="139" height="160" viewBox="0 0 139 160" fill="none" xmlns="http://www.w3.org/2000/svg">
<path d="M134.275 1H3.92761C2.31074 1 1 2.31074 1 3.92761V155.966C1 157.583 2.31074 158.894 3.92761 158.894H134.275C135.891 158.894 137.202 157.583 137.202 155.966V3.92761C137.202 2.31074 135.891 1 134.275 1Z" fill="#3B3B3B" stroke="white" stroke-width="1.65" stroke-miterlimit="10"/>
<path d="M134.911 1.10645H4.56409C2.94721 1.10645 1.63647 2.41718 1.63647 4.03406V156.073C1.63647 157.69 2.94721 159 4.56409 159H134.911C136.528 159 137.839 157.69 137.839 156.073V4.03406C137.839 2.41718 136.528 1.10645 134.911 1.10645Z" stroke="white" stroke-width="1.65" stroke-miterlimit="10"/>
<path d="M95.5485 118.332L90.1787 117.285C89.9815 117.255 89.7995 117.24 89.6023 117.27L80.3037 118.453C79.1357 118.605 78.1345 117.619 78.2711 116.451L79.348 106.97C79.3632 106.788 79.348 106.621 79.3329 106.439L78.4227 101.327C78.2104 100.159 79.166 99.1128 80.3492 99.2038L93.8496 100.22C94.0923 100.235 94.3502 100.22 94.5777 100.129L95.3058 99.8712C96.489 99.4616 97.7177 100.341 97.7177 101.585V116.542C97.7177 117.68 96.671 118.544 95.5637 118.317L95.5485 118.332Z" stroke="white" stroke-miterlimit="10" stroke-linecap="round"/>
<path d="M82.3816 115.784V120.471" stroke="white" stroke-miterlimit="10" stroke-linecap="round"/>
<path d="M85.0203 115.981V120.669" stroke="white" stroke-miterlimit="10" stroke-linecap="round"/>
<path d="M87.9785 115.678V120.365" stroke="white" stroke-miterlimit="10" stroke-linecap="round"/>
<path d="M87.9785 97.8545V102.542" stroke="white" stroke-miterlimit="10" stroke-linecap="round"/>
<path d="M90.6028 98.0664V102.754" stroke="white" stroke-miterlimit="10" stroke-linecap="round"/>
<path d="M93.561 97.748V102.45" stroke="white" stroke-miterlimit="10" stroke-linecap="round"/>
<path d="M82.3816 97.8545V102.542" stroke="white" stroke-miterlimit="10" stroke-linecap="round"/>
<path d="M85.0203 98.0664V102.754" stroke="white" stroke-miterlimit="10" stroke-linecap="round"/>
<path d="M87.9785 97.748V102.45" stroke="white" stroke-miterlimit="10" stroke-linecap="round"/>
<path d="M95.5485 118.332L90.1787 117.285C89.9815 117.255 89.7995 117.24 89.6023 117.27L80.3037 118.453C79.1357 118.605 78.1345 117.619 78.2711 116.451L79.348 106.97C79.3632 106.788 79.348 106.621 79.3329 106.439L78.4227 101.327C78.2104 100.159 79.166 99.1128 80.3492 99.2038L93.8496 100.22C94.0923 100.235 94.3502 100.22 94.5777 100.129L95.3058 99.8712C96.489 99.4616 97.7177 100.341 97.7177 101.585V116.542C97.7177 117.68 96.671 118.544 95.5637 118.317L95.5485 118.332Z" stroke="white" stroke-miterlimit="10" stroke-linecap="round"/>
<path d="M82.3816 115.784V120.471" stroke="white" stroke-miterlimit="10" stroke-linecap="round"/>
<path d="M85.0203 115.981V120.669" stroke="white" stroke-miterlimit="10" stroke-linecap="round"/>
<path d="M87.9785 115.678V120.365" stroke="white" stroke-miterlimit="10" stroke-linecap="round"/>
<path d="M87.9785 97.8545V102.542" stroke="white" stroke-miterlimit="10" stroke-linecap="round"/>
<path d="M90.6028 98.0664V102.754" stroke="white" stroke-miterlimit="10" stroke-linecap="round"/>
<path d="M93.561 97.748V102.45" stroke="white" stroke-miterlimit="10" stroke-linecap="round"/>
<path d="M82.3816 97.8545V102.542" stroke="white" stroke-miterlimit="10" stroke-linecap="round"/>
<path d="M85.0203 98.0664V102.754" stroke="white" stroke-miterlimit="10" stroke-linecap="round"/>
<path d="M87.9785 97.748V102.45" stroke="white" stroke-miterlimit="10" stroke-linecap="round"/>
<path d="M77.4673 28.7139C103.512 29.9729 112.887 47.0076 113.114 70.4892C113.266 85.4458 116.406 116.937 116.239 120.79C116.194 126.083 120.775 126.887 115.299 129.375C111.188 131.165 79.3179 138.234 63.8152 127.843C61.0848 126.084 64.4523 124.021 65.0287 122.701C66.5305 119.212 71.1873 76.7237 71.2329 67.7588" stroke="white" stroke-width="1.65" stroke-miterlimit="10" stroke-linecap="round"/>
<path d="M69.518 56.5338C52.7108 53.682 49.8894 60.7204 41.5009 61.1603C29.3051 61.7974 13.2411 57.2467 14.4243 45.1874C14.9856 39.4384 24.0414 37.254 28.5618 36.1315C37.1171 33.9927 49.677 31.5505 63.2684 29.624" stroke="white" stroke-width="1.65" stroke-miterlimit="10" stroke-linecap="round"/>
<path d="M72.2026 59.7797C74.6297 59.7797 76.6016 58.0959 76.6016 56.0178C76.6016 53.9396 74.6297 52.2559 72.2026 52.2559" stroke="white" stroke-miterlimit="10" stroke-linecap="round"/>
<path d="M57.2158 27.5768C57.2158 29.1392 57.7922 30.4134 58.5204 30.4134C59.2485 30.4134 59.8249 29.1392 59.8249 27.5768C59.8249 26.0144 59.2485 24.7402 58.5204 24.7402C57.7922 24.7402 57.2158 26.0144 57.2158 27.5768Z" fill="#FCFCFA" stroke="white" stroke-miterlimit="10"/>
<path d="M82.6543 63.2087C82.6543 63.2087 76.799 66.3638 70.9286 67.7442C62.6464 69.701 49.5859 69.0639 44.5498 60.5996" stroke="white" stroke-width="1.65" stroke-miterlimit="10" stroke-linecap="round"/>
<path d="M29.7905 39.1045C29.7905 40.2422 31.2316 39.1045 32.6726 39.1045C34.1137 39.1045 35.0087 40.2422 35.0087 39.1045C35.0087 37.9668 33.8406 37.0264 32.3996 37.0264C30.9585 37.0264 29.7905 37.9517 29.7905 39.1045Z" stroke="white" stroke-miterlimit="10" stroke-linecap="round"/>
<path d="M97.626 46.9622C98.5224 46.9622 99.2491 46.1132 99.2491 45.066C99.2491 44.0188 98.5224 43.1699 97.626 43.1699C96.7296 43.1699 96.0029 44.0188 96.0029 45.066C96.0029 46.1132 96.7296 46.9622 97.626 46.9622Z" stroke="white" stroke-miterlimit="10" stroke-linecap="round"/>
<path d="M70.0031 41.5168C73.7982 41.5168 76.8747 36.2535 76.8747 29.7608C76.8747 23.2682 73.7982 18.0049 70.0031 18.0049C66.2081 18.0049 63.1316 23.2682 63.1316 29.7608C63.1316 36.2535 66.2081 41.5168 70.0031 41.5168Z" stroke="white" stroke-width="1.65" stroke-miterlimit="10" stroke-linecap="round"/>
<path d="M68.0464 26.3779L72.1723 32.5669" stroke="white" stroke-miterlimit="10" stroke-linecap="round"/>
<path d="M73.2494 28.0469L66.7571 31.1565" stroke="white" stroke-miterlimit="10" stroke-linecap="round"/>
<path d="M112.097 130.285L113.948 158.439H63.5869L67.4853 129.997C81.5925 136.141 103.739 132.485 112.097 130.285Z" stroke="white" stroke-width="1.65" stroke-miterlimit="10" stroke-linecap="round"/>
<path d="M28.6074 36.0402C28.3343 36.1009 28.0613 36.1767 27.7579 36.2526C27.7124 36.2526 27.6517 36.2677 27.6062 36.2829C27.5001 36.2981 27.409 36.3284 27.318 36.3739C26.7568 36.5105 26.1652 36.6773 25.5433 36.8442C25.5433 36.8138 25.5281 36.7835 25.5129 36.7532C25.2854 35.7217 26.1348 34.6598 27.4242 34.3565C28.6984 34.0682 29.9119 34.6447 30.1698 35.6458C29.6237 35.7823 29.108 35.9037 28.5922 36.0402H28.6074Z" stroke="white" stroke-miterlimit="10" stroke-linecap="round"/>
<path d="M54.1811 30.9288C53.8929 29.7608 53.7261 28.4563 53.7261 27.0759C53.7261 22.0702 55.8801 18.0049 58.5195 18.0049C61.1589 18.0049 63.3129 22.0702 63.3129 27.0759C63.3129 27.9406 63.2522 28.7749 63.1308 29.5636C60.0819 30.0035 57.0936 30.4586 54.1811 30.9288Z" stroke="white" stroke-width="1.65" stroke-miterlimit="10" stroke-linecap="round"/>
<path d="M82.6543 63.2087C82.6543 63.2087 76.799 66.3638 70.9286 67.7442C62.6464 69.701 49.5859 69.0639 44.5498 60.5996" stroke="white" stroke-width="1.65" stroke-miterlimit="10" stroke-linecap="round"/>
</svg>
