<svg width="154" height="44" viewBox="0 0 154 44" fill="none" xmlns="http://www.w3.org/2000/svg">
<g id="Layer_1" clip-path="url(#clip0_87_33446)">
<g id="Group">
<path id="Vector" d="M21.7457 40.7091C22.1379 40.7091 22.53 40.562 22.8242 40.2557L40.1781 22.9017C40.4722 22.6076 40.6316 22.2154 40.6316 21.8232H16.6719L21.7457 40.7091Z" fill="#0D629A"/>
<path id="Vector_2" d="M22.8364 3.37875C22.5423 3.08462 22.1501 2.92529 21.7579 2.92529L16.6841 21.8112H40.6438C40.6438 21.419 40.4967 21.0268 40.1903 20.7327L22.8364 3.37875Z" fill="#0078C3"/>
<path id="Vector_3" d="M21.7455 2.92529C21.3533 2.92529 20.9611 3.07236 20.667 3.37875L3.31308 20.7327C3.01894 21.0268 2.85962 21.419 2.85962 21.8112H16.6717L21.7455 2.92529Z" fill="#35B0E0"/>
<path id="Vector_4" d="M2.85962 21.811C2.85962 22.2032 3.00669 22.5954 3.31308 22.8895L20.667 40.2434C20.9611 40.5376 21.3533 40.6969 21.7455 40.6969L16.6717 21.811H2.85962Z" fill="#198AD1"/>
<path id="Vector_5" d="M21.7456 2.92513C22.1378 2.92513 22.5299 3.0722 22.8241 3.37859L40.178 20.7325C40.4721 21.0266 40.6314 21.4188 40.6314 21.811C40.6314 22.2032 40.4844 22.5954 40.178 22.8895L22.8241 40.2434C22.5299 40.5376 22.1378 40.6969 21.7456 40.6969C21.3534 40.6969 20.9612 40.5498 20.6548 40.2434L3.31316 22.9018C3.00677 22.6076 2.85971 22.2154 2.85971 21.8233C2.85971 21.4311 3.00677 21.0389 3.31316 20.7448L20.6671 3.37859C20.9612 3.08446 21.3534 2.92513 21.7578 2.92513M21.7578 0.130859C20.5936 0.130859 19.5151 0.584316 18.6939 1.40544L1.32776 18.7594C0.506631 19.5805 0.0654297 20.659 0.0654297 21.8233C0.0654297 22.9875 0.518887 24.066 1.34001 24.8872L18.6939 42.2411C19.5151 43.0622 20.5936 43.5034 21.7578 43.5034C22.9221 43.5034 24.0006 43.0499 24.8217 42.2288L42.1757 24.8749C42.9968 24.0538 43.438 22.9753 43.438 21.811C43.438 20.6467 42.9845 19.5682 42.1634 18.7471L24.8095 1.39319C23.9884 0.572061 22.9099 0.130859 21.7456 0.130859H21.7578Z" fill="#1D1D1B"/>
</g>
<g id="Group_2">
<path id="Vector_6" d="M76.9571 40.7091C77.3493 40.7091 77.7415 40.562 78.0356 40.2557L95.3895 22.9017C95.6837 22.6076 95.843 22.2154 95.843 21.8232H71.8833L76.9571 40.7091Z" fill="#0D629A"/>
<path id="Vector_7" d="M78.0356 3.37875C77.7415 3.08462 77.3493 2.92529 76.9571 2.92529L71.8833 21.8112H95.843C95.843 21.419 95.6959 21.0268 95.3895 20.7327L78.0356 3.37875Z" fill="#0078C3"/>
<path id="Vector_8" d="M76.9569 2.92529C76.5647 2.92529 76.1726 3.07236 75.8784 3.37875L58.5245 20.7327C58.2304 21.0268 58.071 21.419 58.071 21.8112H71.8831L76.9569 2.92529Z" fill="#35B0E0"/>
<path id="Vector_9" d="M58.0588 21.811C58.0588 22.2032 58.2059 22.5954 58.5123 22.8895L75.8662 40.2434C76.1603 40.5376 76.5525 40.6969 76.9447 40.6969L71.8709 21.811H58.0588Z" fill="#198AD1"/>
<path id="Vector_10" d="M76.957 2.92513C77.3492 2.92513 77.7414 3.0722 78.0355 3.37859L95.3894 20.7325C95.6836 21.0266 95.8429 21.4188 95.8429 21.811C95.8429 22.2032 95.6958 22.5954 95.3894 22.8895L78.0355 40.2434C77.7414 40.5376 77.3492 40.6969 76.957 40.6969C76.5648 40.6969 76.1726 40.5498 75.8663 40.2434L58.5123 22.8895C58.2059 22.5954 58.0589 22.2032 58.0589 21.811C58.0589 21.4188 58.2059 21.0266 58.5123 20.7325L75.8663 3.37859C76.1604 3.08446 76.5526 2.92513 76.957 2.92513ZM76.957 0.130859C75.7927 0.130859 74.7142 0.584316 73.8931 1.40544L56.5392 18.7594C55.7181 19.5805 55.2769 20.659 55.2769 21.8233C55.2769 22.9875 55.7303 24.066 56.5514 24.8872L73.9054 42.2411C74.7265 43.0622 75.805 43.5034 76.9693 43.5034C78.1335 43.5034 79.212 43.0499 80.0332 42.2288L97.3871 24.8749C98.2082 24.0538 98.6494 22.9753 98.6494 21.811C98.6494 20.6467 98.1959 19.5682 97.3748 18.7471L80.0209 1.39319C79.1998 0.572061 78.1213 0.130859 76.957 0.130859Z" fill="#1D1D1B"/>
</g>
<g id="Group_3">
<path id="Vector_11" d="M132.156 40.7091C132.549 40.7091 132.941 40.562 133.235 40.2557L150.589 22.9017C150.883 22.6076 151.042 22.2154 151.042 21.8232H127.083L132.156 40.7091Z" fill="#0D629A"/>
<path id="Vector_12" d="M133.235 3.37875C132.941 3.08462 132.549 2.92529 132.156 2.92529L127.083 21.8112H151.042C151.042 21.419 150.895 21.0268 150.589 20.7327L133.235 3.37875Z" fill="#0078C3"/>
<path id="Vector_13" d="M132.156 2.92529C131.764 2.92529 131.372 3.07236 131.078 3.37875L113.724 20.7327C113.43 21.0268 113.27 21.419 113.27 21.8112H127.082L132.156 2.92529Z" fill="#35B0E0"/>
<path id="Vector_14" d="M113.258 21.811C113.258 22.2032 113.405 22.5954 113.712 22.8895L131.065 40.2434C131.36 40.5376 131.752 40.6969 132.144 40.6969L127.07 21.811H113.258Z" fill="#198AD1"/>
<path id="Vector_15" d="M132.156 2.92513C132.548 2.92513 132.941 3.0722 133.235 3.37859L150.589 20.7325C150.883 21.0266 151.042 21.4188 151.042 21.811C151.042 22.2032 150.895 22.5954 150.589 22.8895L133.235 40.2434C132.941 40.5376 132.548 40.6969 132.156 40.6969C131.764 40.6969 131.372 40.5498 131.065 40.2434L113.712 22.8895C113.405 22.5954 113.258 22.2032 113.258 21.811C113.258 21.4188 113.405 21.0266 113.712 20.7325L131.065 3.37859C131.36 3.08446 131.752 2.92513 132.156 2.92513ZM132.156 0.130859C130.992 0.130859 129.913 0.584316 129.092 1.40544L111.738 18.7594C110.917 19.5805 110.476 20.659 110.476 21.8233C110.476 22.9875 110.93 24.066 111.751 24.8872L129.105 42.2411C129.926 43.0622 131.004 43.5034 132.168 43.5034C133.333 43.5034 134.411 43.0499 135.232 42.2288L152.586 24.8749C153.407 24.0538 153.849 22.9753 153.849 21.811C153.849 20.6467 153.395 19.5682 152.574 18.7471L135.22 1.39319C134.399 0.572061 133.321 0.130859 132.156 0.130859Z" fill="#1D1D1B"/>
</g>
</g>
<defs>
<clipPath id="clip0_87_33446">
<rect width="153.771" height="43.3725" fill="white" transform="translate(0.0654297 0.130859)"/>
</clipPath>
</defs>
</svg>
