<svg width="163" height="162" viewBox="0 0 163 162" fill="none" xmlns="http://www.w3.org/2000/svg">
<rect width="163" height="162" fill="#F5F5F5"/>
<circle cx="81.3484" cy="80.7829" r="77.1714" fill="#3C3C3B" stroke="#ECECEC" stroke-width="7.22307"/>
<g clip-path="url(#clip0_0_1)">
<path d="M72.126 131.523C72.2362 130.627 72.4537 129.949 72.7815 129.489C73.3833 128.647 74.3722 128.308 75.751 128.48C76.545 128.579 77.1976 128.878 77.7062 129.376C78.2148 129.876 78.4041 130.675 78.2685 131.777L78.1752 132.534L76.8275 132.368L76.9207 131.611C76.9914 131.034 76.9179 130.585 76.6947 130.26C76.4715 129.938 76.0901 129.743 75.5448 129.675C74.7791 129.582 74.2451 129.78 73.9456 130.274C73.7619 130.579 73.615 131.178 73.502 132.071L72.6289 139.132L71.2077 138.957L72.126 131.523V131.523Z" fill="#ECECEC"/>
<path d="M59.6095 134.204C59.2253 133.088 59.2563 131.831 59.7056 130.426C60.1916 128.909 60.9827 127.77 62.0733 127.013C63.356 126.123 64.8337 125.945 66.5092 126.482C68.0717 126.982 69.1368 127.895 69.6991 129.214C70.1766 130.466 70.1738 131.853 69.685 133.376C69.2442 134.749 68.5265 135.817 67.5292 136.577C66.2493 137.552 64.7546 137.764 63.0367 137.213C61.2426 136.637 60.0983 135.636 59.6067 134.207L59.6095 134.204ZM62.9011 128.115C62.0789 128.81 61.4884 129.726 61.1268 130.856C60.7425 132.051 60.7482 133.113 61.1381 134.043C61.528 134.972 62.2654 135.611 63.3504 135.958C64.4014 136.295 65.3762 136.21 66.2719 135.699C67.1675 135.19 67.84 134.229 68.292 132.822C68.6537 131.695 68.6735 130.655 68.3514 129.7C68.0293 128.745 67.2297 128.061 65.9526 127.652C64.7405 127.262 63.7233 127.417 62.9011 128.112V128.115Z" fill="#ECECEC"/>
<path d="M55.2051 133.748L53.8998 133.093L58.686 123.554L59.9914 124.209L55.2051 133.748V133.748Z" fill="#ECECEC"/>
<path d="M50.734 131.496L49.3383 130.518L49.9231 120.4L44.9758 127.464L43.8457 126.673L49.9683 117.931L51.2991 118.863L50.7821 129.018L55.7237 121.963L56.8539 122.754L50.7312 131.496H50.734Z" fill="#ECECEC"/>
<path d="M33.1248 112.693C33.4356 111.554 34.1731 110.534 35.3343 109.627C36.5916 108.65 37.8857 108.152 39.2164 108.144C40.7789 108.133 42.0984 108.819 43.1805 110.206C44.1892 111.501 44.5536 112.854 44.2768 114.261C43.966 115.566 43.1805 116.708 41.9175 117.691C40.7789 118.578 39.5837 119.053 38.3321 119.118C36.7272 119.2 35.371 118.533 34.2635 117.109C33.105 115.623 32.7264 114.151 33.1248 112.69V112.693ZM39.2758 109.52C38.2049 109.633 37.2019 110.054 36.2639 110.783C35.2721 111.554 34.676 112.433 34.4754 113.422C34.2748 114.411 34.5234 115.354 35.2213 116.253C35.8994 117.123 36.7527 117.603 37.7811 117.685C38.8096 117.77 39.9058 117.358 41.0727 116.448C42.0051 115.722 42.6098 114.871 42.8838 113.902C43.1579 112.93 42.8838 111.916 42.056 110.859C41.2733 109.853 40.3466 109.407 39.2758 109.52Z" fill="#ECECEC"/>
<path d="M28.8359 108.325L34.7975 105.497C35.4982 105.163 36.0181 104.757 36.3543 104.271C36.8685 103.544 36.9053 102.717 36.4617 101.787C35.9333 100.671 35.1931 100.092 34.2465 100.049C33.7323 100.03 33.1277 100.182 32.4326 100.513L26.471 103.341L25.8438 102.022L31.2601 99.4533C32.4468 98.891 33.4357 98.617 34.2268 98.6367C35.6706 98.6735 36.7781 99.507 37.5551 101.143C38.3293 102.776 38.2728 104.16 37.3884 105.299C36.9024 105.923 36.0661 106.517 34.8794 107.079L29.4631 109.647L28.8359 108.328V108.325Z" fill="#ECECEC"/>
<path d="M24.5037 98.1175L23.3933 93.3962C23.2096 92.6192 23.1757 91.9496 23.2888 91.3902C23.5063 90.3278 24.2127 89.6554 25.405 89.3757C26.0266 89.2287 26.5662 89.2372 27.024 89.4011C27.4817 89.565 27.8829 89.8503 28.2332 90.2544C28.3039 89.8108 28.448 89.4548 28.6684 89.1863C28.8887 88.9179 29.2984 88.7004 29.8974 88.5365L31.279 88.1607C31.6718 88.0534 31.96 87.9516 32.1408 87.8528C32.4516 87.6889 32.6268 87.4883 32.672 87.2509L32.9065 87.1973L33.3133 88.9236C33.2342 88.9914 33.1269 89.0564 32.9941 89.1185C32.8613 89.1807 32.59 89.2683 32.1917 89.3813L30.4794 89.8729C29.807 90.0651 29.4114 90.4154 29.2871 90.9296C29.2221 91.2207 29.2532 91.6473 29.386 92.2039L30.1178 95.3175L34.5735 94.2693L34.9041 95.6763L24.515 98.1203L24.5037 98.1175ZM28.188 92.4271C28.0383 91.7857 27.7868 91.3082 27.4336 90.9974C27.0805 90.6866 26.5606 90.6104 25.874 90.7742C25.1338 90.9494 24.6902 91.328 24.5461 91.9157C24.4698 92.2293 24.4867 92.6192 24.5969 93.0854L25.3824 96.4279L28.9339 95.5916L28.1909 92.4271H28.188Z" fill="#ECECEC"/>
<path d="M21.8621 81.2149L22.1135 76.9569C22.1983 75.5103 22.786 74.4197 23.8709 73.6851C24.8514 73.0296 26.0748 72.7443 27.5383 72.8318C28.6685 72.8996 29.68 73.1681 30.57 73.6427C32.1409 74.4791 32.8727 75.7957 32.7682 77.6011L32.5167 81.8449L21.8621 81.2149ZM31.5193 77.7961C31.5476 77.3186 31.5193 76.923 31.4374 76.6094C31.282 76.05 30.9458 75.5781 30.4287 75.1967C30.0162 74.8916 29.4766 74.6599 28.8098 74.496C28.4114 74.4028 28.0413 74.3434 27.6994 74.3237C26.3799 74.2445 25.3402 74.4423 24.5801 74.9113C23.8201 75.3804 23.4047 76.1856 23.3398 77.3243L23.1928 79.8276L31.3752 80.3107L31.525 77.7933L31.5193 77.7961Z" fill="#ECECEC"/>
<path d="M23.114 69.1035L23.4107 67.6738L33.8619 69.8409L33.5652 71.2706L23.114 69.1035Z" fill="#ECECEC"/>
<path d="M31.2815 65.804C31.8636 65.9764 32.3721 66.0131 32.8101 65.9114C33.6323 65.7136 34.2397 65.0666 34.6325 63.9675C34.8077 63.4759 34.8952 63.0012 34.8952 62.5435C34.8924 61.6591 34.5251 61.0884 33.7962 60.8285C33.248 60.6335 32.7988 60.6589 32.4484 60.9076C32.1009 61.1619 31.7138 61.6167 31.29 62.2722L30.5102 63.4815C30.0016 64.2726 29.5637 64.801 29.1935 65.0722C28.5522 65.5412 27.8147 65.626 26.9812 65.3265C26.0771 65.0044 25.447 64.4337 25.0854 63.62C24.7237 62.8034 24.7407 61.84 25.1391 60.7267C25.5064 59.7011 26.0715 58.9213 26.8371 58.3873C27.6028 57.8533 28.5437 57.7855 29.6597 58.1839L29.202 59.4638C28.6398 59.3366 28.1764 59.3282 27.8147 59.4412C27.1479 59.6503 26.645 60.2323 26.3031 61.1873C26.0291 61.9558 25.998 62.5717 26.2156 63.0266C26.4331 63.4843 26.7637 63.7923 27.2129 63.9534C27.7046 64.1285 28.1368 64.0607 28.507 63.7443C28.7471 63.5352 29.1399 63.0097 29.688 62.1705L30.4989 60.9189C30.8888 60.3171 31.2844 59.8848 31.6799 59.622C32.3721 59.1728 33.1633 59.1049 34.0561 59.4242C35.1693 59.8226 35.8248 60.5007 36.0198 61.4613C36.2175 62.422 36.1271 63.425 35.7542 64.4704C35.3191 65.6882 34.6579 66.5301 33.7736 66.9907C32.892 67.4541 31.9116 67.4851 30.8323 67.0811L31.29 65.8012L31.2815 65.804Z" fill="#ECECEC"/>
<path d="M32.9816 47.4326C33.9733 47.1727 34.8775 47.2433 35.694 47.6445L34.9622 48.8481C34.2926 48.6249 33.6654 48.608 33.0777 48.8001C32.49 48.9922 31.9758 49.4499 31.5378 50.1732C31.001 51.0548 30.8823 51.9589 31.1846 52.8857C31.487 53.8124 32.2894 54.6741 33.5947 55.4681C34.6627 56.1179 35.6799 56.4005 36.6405 56.3157C37.604 56.2309 38.381 55.7026 38.9715 54.7306C39.5168 53.8378 39.5818 52.9422 39.1665 52.0493C38.9489 51.5775 38.5788 51.0972 38.0532 50.6112L38.785 49.4076C39.6807 50.097 40.2712 50.9389 40.5566 51.9335C40.9041 53.1258 40.7063 54.3294 39.966 55.5444C39.3275 56.5926 38.4714 57.2764 37.3977 57.5956C35.9794 58.0166 34.383 57.686 32.6115 56.6067C31.2666 55.7874 30.3766 54.7646 29.9443 53.5383C29.4724 52.2075 29.642 50.874 30.4557 49.5375C31.1507 48.3961 31.9927 47.6954 32.9844 47.4354L32.9816 47.4326Z" fill="#ECECEC"/>
<path d="M42.4367 37.6977C43.6064 37.8418 44.7253 38.4239 45.7876 39.441C46.9376 40.5458 47.6128 41.7522 47.8163 43.0689C48.0536 44.6115 47.5648 46.0186 46.3471 47.2872C45.2112 48.4711 43.9257 49.0277 42.4904 48.9542C41.1539 48.8355 39.9107 48.2224 38.758 47.1149C37.7154 46.1147 37.074 45.0014 36.8282 43.7724C36.5146 42.1958 36.9808 40.7577 38.2296 39.458C39.535 38.0989 40.9364 37.5113 42.4367 37.6949V37.6977ZM46.4629 43.3288C46.1973 42.2862 45.6379 41.3538 44.7789 40.5316C43.872 39.6614 42.917 39.2009 41.9083 39.1415C40.9025 39.085 40.004 39.4664 39.2157 40.2886C38.45 41.0854 38.1025 41.998 38.1646 43.0265C38.2296 44.0549 38.7947 45.0806 39.8627 46.1034C40.716 46.9227 41.6427 47.3974 42.6429 47.5274C43.6431 47.6573 44.6066 47.2392 45.5362 46.2701C46.4177 45.3518 46.7257 44.3685 46.4601 43.326L46.4629 43.3288Z" fill="#ECECEC"/>
<path d="M44.9822 33.5949L49.0169 30.9023C49.6809 30.4587 50.294 30.1931 50.8591 30.1027C51.9299 29.936 52.8058 30.3598 53.4867 31.3798C53.8427 31.9109 54.0207 32.4195 54.0292 32.9055C54.0349 33.3915 53.9105 33.8661 53.6506 34.3351C54.0914 34.2447 54.4756 34.256 54.8034 34.369C55.1311 34.4821 55.4787 34.79 55.8431 35.293L56.6795 36.4542C56.9168 36.7848 57.1146 37.0165 57.2671 37.1521C57.5271 37.3866 57.7785 37.4798 58.0159 37.4375L58.1487 37.6381L56.6738 38.6213C56.5834 38.5704 56.4845 38.4942 56.38 38.3896C56.2754 38.2851 56.1002 38.0647 55.8516 37.7285L54.7921 36.296C54.3767 35.7337 53.9077 35.4851 53.385 35.5472C53.0883 35.5868 52.7013 35.7676 52.2238 36.0841L49.5622 37.8584L52.1023 41.6671L50.8986 42.4695L44.9766 33.5921L44.9822 33.5949ZM51.6022 35.0556C52.1503 34.6911 52.5091 34.2871 52.6787 33.8492C52.8482 33.4112 52.7352 32.897 52.3424 32.3093C51.9214 31.6764 51.41 31.3939 50.8082 31.4617C50.489 31.5012 50.1301 31.6538 49.7289 31.9194L46.8724 33.8237L48.8954 36.8582L51.5993 35.0556H51.6022Z" fill="#ECECEC"/>
<path d="M55.4926 27.1034L59.4595 25.5324C60.8044 24.9984 62.0419 25.0691 63.1664 25.7443C64.1751 26.3546 64.9493 27.3435 65.4889 28.7082C65.9071 29.7621 66.0879 30.7905 66.0342 31.7992C65.941 33.5764 65.0566 34.797 63.3755 35.4638L59.4227 37.0291L55.4897 27.1062L55.4926 27.1034ZM62.672 34.4099C63.1156 34.2347 63.4631 34.0426 63.7117 33.8335C64.1525 33.4549 64.4379 32.952 64.565 32.3219C64.6667 31.819 64.6498 31.2313 64.517 30.5588C64.435 30.1576 64.3305 29.7988 64.2033 29.4795C63.7174 28.2505 63.0986 27.3916 62.3527 26.8999C61.6068 26.4083 60.7027 26.3744 59.6403 26.7954L57.3093 27.7193L60.3297 35.3395L62.6748 34.4099H62.672Z" fill="#ECECEC"/>
<path d="M90.2533 29.6431C90.1431 30.536 89.9227 31.2141 89.5978 31.6774C88.9931 32.5194 88.0042 32.8556 86.6282 32.6833C85.8343 32.5844 85.1816 32.2849 84.6731 31.7848C84.1645 31.2847 83.978 30.4851 84.1136 29.3832L84.2069 28.626L85.5546 28.7955L85.4614 29.5527C85.3907 30.1291 85.4614 30.5784 85.6846 30.9033C85.9049 31.2254 86.2892 31.4203 86.8345 31.491C87.6002 31.587 88.1342 31.3864 88.4365 30.892C88.6202 30.5868 88.7699 29.9878 88.8801 29.095L89.7616 22.0371L91.1828 22.2151L90.2561 29.6488L90.2533 29.6431Z" fill="#ECECEC"/>
<path d="M102.763 26.9749C103.147 28.091 103.113 29.3483 102.661 30.7497C102.172 32.267 101.381 33.4028 100.287 34.1628C99.0047 35.0528 97.5242 35.228 95.8515 34.6912C94.2891 34.1882 93.2267 33.2756 92.6645 31.9562C92.187 30.7045 92.1926 29.3172 92.6814 27.7943C93.1222 26.4212 93.8427 25.3532 94.84 24.5959C96.12 23.624 97.6174 23.4121 99.3325 23.9659C101.127 24.5423 102.268 25.5453 102.76 26.9778L102.763 26.9749ZM99.4653 33.0609C100.287 32.3659 100.881 31.4532 101.242 30.3202C101.627 29.1251 101.624 28.0627 101.234 27.1332C100.844 26.2036 100.107 25.5622 99.0245 25.2147C97.9734 24.8757 96.9987 24.9604 96.103 25.4718C95.2074 25.9804 94.5321 26.9382 94.08 28.3453C93.7184 29.4726 93.6958 30.5124 94.0179 31.4674C94.3399 32.4224 95.1367 33.1061 96.4138 33.5186C97.6259 33.9085 98.6431 33.756 99.4653 33.0609V33.0609Z" fill="#ECECEC"/>
<path d="M107.176 27.4315L108.481 28.087L103.683 37.6199L102.378 36.9644L107.176 27.4286V27.4315Z" fill="#ECECEC"/>
<path d="M111.643 29.6924L113.036 30.67L112.437 40.785L117.39 33.7271L118.52 34.521L112.389 43.2572L111.058 42.3248L111.584 32.1731L106.637 39.2225L105.506 38.4286L111.638 29.6924H111.643Z" fill="#ECECEC"/>
<path d="M129.227 48.5069C128.917 49.6456 128.179 50.6655 127.015 51.5697C125.758 52.5473 124.464 53.0417 123.133 53.0502C121.57 53.0615 120.251 52.3721 119.172 50.9848C118.163 49.6879 117.801 48.3374 118.081 46.9275C118.392 45.625 119.18 44.4807 120.443 43.5003C121.582 42.6159 122.777 42.1384 124.029 42.0763C125.633 41.9943 126.99 42.664 128.094 44.088C129.25 45.577 129.629 47.049 129.227 48.5069ZM123.074 51.6742C124.144 51.564 125.147 51.143 126.085 50.4141C127.077 49.6427 127.673 48.764 127.877 47.7751C128.08 46.7862 127.832 45.8426 127.131 44.9441C126.453 44.071 125.599 43.5935 124.574 43.5088C123.548 43.424 122.449 43.8337 121.282 44.7406C120.347 45.4668 119.745 46.3144 119.471 47.2863C119.197 48.2583 119.471 49.2726 120.296 50.3321C121.079 51.338 122.003 51.7844 123.074 51.6742V51.6742Z" fill="#ECECEC"/>
<path d="M133.517 52.8877L127.552 55.7075C126.852 56.0381 126.332 56.4478 125.993 56.9309C125.479 57.6542 125.442 58.4821 125.883 59.4145C126.411 60.5305 127.148 61.1097 128.095 61.1549C128.609 61.1775 129.214 61.0221 129.909 60.6944L135.873 57.8746L136.498 59.1941L131.079 61.7567C129.892 62.319 128.903 62.5902 128.112 62.5705C126.668 62.5337 125.56 61.6974 124.786 60.0615C124.012 58.4256 124.071 57.0411 124.959 55.9081C125.447 55.2837 126.284 54.6932 127.47 54.1309L132.89 51.5683L133.514 52.8877H133.517Z" fill="#ECECEC"/>
<path d="M137.837 63.0994L138.942 67.8235C139.123 68.6005 139.159 69.2702 139.046 69.8296C138.826 70.892 138.119 71.5616 136.927 71.8413C136.306 71.9882 135.766 71.9769 135.308 71.813C134.85 71.6492 134.449 71.3638 134.102 70.9569C134.031 71.4005 133.887 71.7565 133.667 72.0249C133.446 72.2934 133.037 72.5081 132.438 72.6748L131.056 73.0506C130.663 73.1579 130.375 73.2597 130.194 73.3557C129.883 73.5168 129.708 73.7174 129.663 73.9575L129.429 74.0112L129.024 72.2849C129.104 72.2171 129.211 72.1521 129.344 72.0899C129.479 72.0278 129.748 71.9402 130.149 71.8272L131.861 71.3355C132.534 71.1434 132.932 70.7931 133.054 70.2817C133.119 69.9906 133.087 69.564 132.957 69.0074L132.228 65.8938L127.77 66.9364L127.439 65.5293L137.831 63.0994H137.837ZM134.144 68.787C134.294 69.4284 134.545 69.9059 134.896 70.2167C135.246 70.5303 135.766 70.6038 136.455 70.4427C137.196 70.2704 137.639 69.8889 137.786 69.3041C137.862 68.9905 137.845 68.6005 137.735 68.1315L136.953 64.789L133.401 65.6197L134.141 68.7842L134.144 68.787Z" fill="#ECECEC"/>
<path d="M140.459 79.9968L140.205 84.2548C140.117 85.7014 139.532 86.792 138.444 87.5238C137.464 88.1793 136.241 88.4618 134.777 88.3742C133.647 88.3064 132.635 88.0352 131.748 87.5605C130.177 86.7242 129.446 85.4047 129.556 83.5993L129.81 79.3555L140.465 79.994L140.459 79.9968ZM130.799 83.4071C130.771 83.8846 130.799 84.2802 130.881 84.5938C131.036 85.1532 131.372 85.6251 131.887 86.0065C132.299 86.3117 132.839 86.5462 133.503 86.7072C133.901 86.8033 134.269 86.8598 134.613 86.8796C135.933 86.9587 136.972 86.7637 137.735 86.2947C138.495 85.8257 138.911 85.0204 138.979 83.8818L139.128 81.3785L130.946 80.8869L130.796 83.4043L130.799 83.4071Z" fill="#ECECEC"/>
<path d="M139.194 92.1197L138.897 93.5494L128.448 91.3681L128.748 89.9385L139.196 92.1197H139.194Z" fill="#ECECEC"/>
<path d="M131.024 95.4C130.442 95.2277 129.933 95.1909 129.495 95.2898C128.673 95.4848 128.065 96.1318 127.673 97.2309C127.498 97.7225 127.407 98.1972 127.41 98.6521C127.41 99.5364 127.777 100.107 128.506 100.37C129.054 100.565 129.504 100.539 129.854 100.294C130.201 100.039 130.589 99.5845 131.015 98.929L131.795 97.7197C132.304 96.9314 132.744 96.4002 133.114 96.129C133.756 95.66 134.493 95.578 135.327 95.8775C136.231 96.2024 136.861 96.7703 137.223 97.5869C137.584 98.4034 137.565 99.3669 137.163 100.48C136.796 101.506 136.228 102.286 135.462 102.82C134.697 103.354 133.756 103.421 132.64 103.02L133.098 101.74C133.66 101.867 134.123 101.876 134.485 101.766C135.152 101.557 135.657 100.975 135.999 100.022C136.276 99.2539 136.304 98.6408 136.087 98.1831C135.869 97.7253 135.539 97.4174 135.092 97.2563C134.601 97.0783 134.168 97.149 133.798 97.4654C133.558 97.6745 133.165 98.1972 132.617 99.0392L131.806 100.288C131.416 100.89 131.021 101.322 130.622 101.585C129.93 102.034 129.139 102.099 128.243 101.78C127.13 101.381 126.478 100.701 126.283 99.7399C126.088 98.7792 126.175 97.7762 126.551 96.7308C126.989 95.513 127.65 94.6739 128.534 94.2133C129.416 93.75 130.396 93.7217 131.476 94.1258L131.018 95.4057L131.024 95.4Z" fill="#ECECEC"/>
<path d="M129.3 113.773C128.309 114.03 127.404 113.959 126.588 113.558L127.323 112.355C127.992 112.578 128.619 112.595 129.207 112.405C129.795 112.216 130.309 111.758 130.75 111.035C131.287 110.154 131.405 109.249 131.106 108.323C130.806 107.396 130.004 106.534 128.701 105.74C127.633 105.088 126.619 104.805 125.656 104.89C124.692 104.975 123.915 105.5 123.322 106.472C122.776 107.365 122.711 108.261 123.124 109.153C123.342 109.625 123.712 110.106 124.237 110.594L123.503 111.798C122.607 111.106 122.019 110.264 121.734 109.272C121.389 108.08 121.587 106.876 122.327 105.664C122.966 104.619 123.822 103.935 124.898 103.616C126.317 103.197 127.913 103.528 129.685 104.61C131.029 105.429 131.917 106.455 132.349 107.684C132.821 109.015 132.648 110.349 131.832 111.685C131.137 112.826 130.292 113.524 129.3 113.784V113.773Z" fill="#ECECEC"/>
<path d="M119.838 123.497C118.668 123.353 117.549 122.768 116.49 121.748C115.34 120.644 114.667 119.434 114.467 118.12C114.232 116.578 114.721 115.171 115.941 113.905C117.08 112.721 118.366 112.167 119.798 112.241C121.132 112.362 122.378 112.975 123.528 114.083C124.567 115.083 125.212 116.199 125.455 117.425C125.765 119.002 125.299 120.44 124.05 121.74C122.745 123.099 121.341 123.684 119.84 123.497H119.838ZM115.817 117.863C116.083 118.906 116.642 119.841 117.498 120.663C118.402 121.534 119.36 121.997 120.366 122.056C121.372 122.116 122.27 121.731 123.059 120.912C123.824 120.115 124.175 119.203 124.112 118.174C124.05 117.146 123.485 116.12 122.417 115.094C121.564 114.275 120.637 113.798 119.64 113.668C118.64 113.535 117.676 113.953 116.744 114.922C115.862 115.84 115.551 116.821 115.817 117.866V117.863Z" fill="#ECECEC"/>
<path d="M117.293 127.593L113.255 130.283C112.591 130.726 111.976 130.992 111.413 131.082C110.342 131.249 109.467 130.823 108.786 129.803C108.432 129.271 108.252 128.763 108.246 128.277C108.24 127.791 108.367 127.316 108.625 126.847C108.184 126.938 107.8 126.926 107.472 126.813C107.144 126.7 106.797 126.392 106.435 125.889L105.599 124.725C105.361 124.395 105.166 124.16 105.011 124.025C104.751 123.79 104.499 123.694 104.262 123.739L104.129 123.539L105.604 122.555C105.695 122.606 105.793 122.683 105.898 122.787C106.003 122.892 106.178 123.112 106.426 123.448L107.486 124.881C107.901 125.443 108.367 125.692 108.893 125.629C109.19 125.59 109.577 125.412 110.054 125.093L112.716 123.321L110.179 119.512L111.382 118.71L117.299 127.593H117.293ZM110.673 126.127C110.125 126.491 109.766 126.895 109.597 127.333C109.427 127.771 109.537 128.285 109.93 128.873C110.351 129.506 110.862 129.788 111.461 129.721C111.781 129.681 112.142 129.531 112.541 129.263L115.4 127.359L113.38 124.321L110.673 126.124V126.127Z" fill="#ECECEC"/>
<path d="M106.765 134.082L102.798 135.65C101.451 136.181 100.216 136.111 99.0914 135.435C98.0827 134.822 97.3113 133.833 96.7717 132.469C96.3564 131.415 96.1755 130.383 96.2292 129.378C96.3253 127.6 97.2125 126.38 98.8908 125.716L102.846 124.153L106.768 134.079L106.765 134.082ZM99.5943 126.767C99.1507 126.942 98.8032 127.134 98.5545 127.343C98.1138 127.722 97.8284 128.225 97.6984 128.852C97.5967 129.355 97.6137 129.943 97.7465 130.615C97.8284 131.016 97.9329 131.375 98.0573 131.694C98.5432 132.924 99.1592 133.785 99.9051 134.277C100.651 134.769 101.555 134.805 102.617 134.384L104.948 133.463L101.937 125.84L99.5915 126.767H99.5943Z" fill="#ECECEC"/>
<path d="M101.307 61.8351C97.6013 60.0953 93.6278 58.8134 89.4733 58.0792C89.3977 58.0651 89.3221 58.1005 89.2831 58.1713C88.7721 59.1014 88.2061 60.3148 87.8097 61.2685C83.3412 60.5839 78.8957 60.5839 74.5189 61.2685C74.1225 60.2936 73.5359 59.1014 73.0226 58.1713C72.9836 58.1029 72.908 58.0674 72.8324 58.0792C68.6802 58.8111 64.7067 60.0929 60.999 61.8351C60.9669 61.8493 60.9394 61.8729 60.9211 61.9036C53.3843 73.4261 51.3197 84.6653 52.3325 95.7652C52.3371 95.8195 52.3669 95.8714 52.4082 95.9045C57.3807 99.6415 62.1975 101.91 66.9249 103.414C67.0005 103.437 67.0807 103.409 67.1288 103.345C68.2471 101.783 69.2439 100.135 70.0986 98.4021C70.149 98.3006 70.1009 98.1802 69.9978 98.1401C68.4166 97.5263 66.9111 96.7779 65.4629 95.9281C65.3483 95.8596 65.3391 95.692 65.4445 95.6118C65.7493 95.3781 66.0541 95.1349 66.3451 94.8894C66.3978 94.8445 66.4711 94.8351 66.533 94.8634C76.0474 99.3086 86.3477 99.3086 95.7498 94.8634C95.8116 94.8327 95.885 94.8422 95.94 94.887C96.231 95.1325 96.5357 95.3781 96.8428 95.6118C96.9482 95.692 96.9413 95.8596 96.8268 95.9281C95.3785 96.7945 93.873 97.5263 92.2896 98.1377C92.1865 98.1778 92.1406 98.3006 92.191 98.4021C93.0641 100.132 94.0609 101.78 95.1585 103.343C95.2044 103.409 95.2869 103.437 95.3625 103.414C100.113 101.91 104.93 99.6415 109.902 95.9045C109.946 95.8714 109.973 95.8219 109.978 95.7676C111.19 82.9349 107.947 71.7877 101.382 61.9059C101.366 61.8729 101.339 61.8493 101.307 61.8351ZM71.5193 89.0066C68.655 89.0066 66.2947 86.3154 66.2947 83.0104C66.2947 79.7055 68.6091 77.0143 71.5193 77.0143C74.4525 77.0143 76.7898 79.7291 76.744 83.0104C76.744 86.3154 74.4296 89.0066 71.5193 89.0066ZM90.8368 89.0066C87.9724 89.0066 85.6121 86.3154 85.6121 83.0104C85.6121 79.7055 87.9265 77.0143 90.8368 77.0143C93.7699 77.0143 96.1072 79.7291 96.0614 83.0104C96.0614 86.3154 93.7699 89.0066 90.8368 89.0066Z" fill="#69C1ED"/>
</g>
<defs>
<clipPath id="clip0_0_1">
<rect width="118.597" height="117.105" fill="white" transform="translate(21.8621 22.0303)"/>
</clipPath>
</defs>
</svg>
