<svg width="167" height="204" viewBox="0 0 167 204" fill="none" xmlns="http://www.w3.org/2000/svg">
<g id="Group">
<g id="Group_2">
<g id="Crown">
<g id="Group_3">
<path id="Vector" d="M57.3557 201.317C56.6714 201.317 56.0335 200.923 55.7377 200.279C55.6623 200.122 55.6159 199.954 55.5927 199.786C50.6865 200.378 45.4787 200.83 40.4101 200.83C30.876 200.83 23.1746 199.206 16.8591 195.866C13.6347 194.422 12.9736 192.27 12.9852 190.722C13.0142 187.103 16.7489 182.817 24.404 177.615C29.142 174.397 35.2023 171.016 41.6106 167.988C33.6655 166.701 25.877 163.923 23.4761 160.328C22.3453 158.634 22.525 157.126 22.8672 156.158C24.6534 151.165 31.9315 146.989 45.009 143.515C41.599 143.249 38.4499 142.796 36.2926 142.066C34.1527 141.341 29.2522 139.125 29.9134 134.265C30.3599 131 33.4103 127.764 37.5163 125.584C24.6766 124.111 11.8775 121.246 4.1412 113.603C1.79248 111.613 1.93166 109.531 2.22743 108.464C3.65986 103.291 14.6554 99.5566 18.2683 98.3329C24.491 96.222 32.2157 94.2618 40.1723 92.754C33.5669 89.9413 27.5878 85.8876 26.486 81.9614C26.0162 80.297 26.4048 78.679 27.5762 77.409C31.4502 73.2161 40.2883 70.9775 54.5372 70.6006C51.4984 69.6263 48.8075 68.5476 47.1199 67.4284C42.869 64.6041 43.0256 61.5537 43.5012 59.982C44.458 56.8098 48.9119 53.452 55.1926 52.0544C43.6693 47.8673 32.8826 42.3695 28.8811 33.5256C27.9822 31.9424 27.9416 30.2895 28.7593 28.8571C30.2729 26.2126 36.8435 21.7704 63.8741 21.7704C66.9072 21.7704 69.9518 21.8341 72.9791 21.9617C68.212 18.1226 64.4251 13.3671 64.4715 9.44681C64.4947 7.42285 65.5385 5.74104 67.4059 4.71456C70.2534 3.14875 74.2723 2.35425 79.3525 2.35425C88.3473 2.35425 100.752 4.74356 116.23 9.4526C127.701 12.9438 136.69 16.4872 136.777 16.522C137.63 16.8583 138.082 17.7862 137.833 18.6619C137.723 19.1317 137.862 21.4282 144.247 31.1594C149.292 38.8493 157.04 49.3635 163.953 58.6308C164.33 59.1353 164.411 59.7965 164.173 60.3764C157.701 76.0287 152.378 90.0283 147.9 103.175C141.521 121.907 136.737 139.201 133.275 156.042C131.9 162.729 130.624 170.134 129.261 179.338C129.163 179.993 128.71 180.544 128.078 180.759C102.875 189.434 79.8687 196.15 57.7501 201.277C57.6167 201.306 57.4833 201.323 57.3499 201.323L57.3557 201.317Z" fill="#EDD078"/>
<path id="Vector_2" d="M79.364 4.12877C100.63 4.12877 136.133 18.1689 136.133 18.1689C135.043 22.0023 145.865 37.3298 162.538 59.6862C156.68 73.8481 151.154 88.1202 146.224 102.59C140.292 119.999 135.235 137.681 131.54 155.671C129.946 163.419 128.67 171.23 127.51 179.065C104.742 186.906 81.4343 193.952 57.3556 199.537C58.7996 198.487 60.4814 197.629 62.3314 197.078C54.8155 198.18 47.4097 199.05 40.41 199.05C32.0821 199.05 24.3227 197.814 17.6419 194.265C6.94212 189.539 28.1154 175.47 48.3434 166.927C36.652 166.336 22.7568 161.772 24.5488 156.755C27.1179 149.564 44.3419 144.878 60.1624 142.048C58.6372 142.077 57.1352 142.094 55.668 142.094C47.5083 142.094 40.4332 141.59 36.8666 140.378C24.9374 136.33 35.6139 125.311 47.0386 124.685C30.1394 123.351 14.2261 121.101 5.3473 112.286C-2.80654 105.518 23.8819 96.9468 47.1778 93.3512C36.2055 90.237 24.9026 82.9241 28.8867 78.6152C33.3754 73.7553 45.8845 72.3229 59.0374 72.3229C62.6097 72.3229 66.2285 72.4273 69.7487 72.6013C60.0522 70.6121 51.5041 68.2054 48.1057 65.9495C39.4531 60.2081 50.8313 53.1678 61.3977 53.1678C62.6039 53.1678 63.7986 53.2606 64.9527 53.4577C49.3061 48.5167 35.0224 42.9262 30.4641 32.7194C26.6714 26.2764 44.4057 23.5565 63.874 23.5565C68.9832 23.5565 74.2142 23.7421 79.2016 24.1016C70.0561 18.7836 62.4938 9.45833 68.2641 6.28031C71.0129 4.76669 74.8695 4.14037 79.3524 4.14037M79.3524 0.57959C73.8894 0.57959 69.7023 1.42049 66.5475 3.16028C64.0944 4.51152 62.7257 6.73846 62.6909 9.42934C62.6503 12.8799 64.9527 16.6495 68.2235 20.0363C66.7736 20.0073 65.3238 19.9957 63.874 19.9957C55.1576 19.9957 47.3749 20.5234 41.3727 21.5209C33.4798 22.8316 28.9795 24.8845 27.2107 27.9755C26.0799 29.9589 26.1088 32.2091 27.2861 34.3316C31.0325 42.5376 39.714 47.8324 49.886 51.9499C49.7759 51.9963 49.6657 52.0485 49.5497 52.0949C46.6326 53.3997 42.9153 55.7427 41.7902 59.4716C41.2973 61.1128 40.7231 65.3231 46.1281 68.9129C46.3079 69.0347 46.4992 69.1507 46.6964 69.2725C44.2839 69.4928 42.0744 69.7828 40.0678 70.1482C33.4334 71.3486 28.9157 73.332 26.2596 76.2027C24.6532 77.9425 24.1197 80.1636 24.7634 82.4485C25.5869 85.3656 28.3474 88.271 32.9694 91.0895C33.5088 91.4201 34.0713 91.7448 34.6454 92.0638C28.4808 93.4034 22.6235 94.9808 17.694 96.651C3.79889 101.366 1.23559 105.379 0.510674 107.994C-0.179445 110.488 0.702056 112.999 2.93479 114.919C10.0795 121.942 21.133 125.073 32.6389 126.749C30.1684 128.884 28.504 131.43 28.1444 134.028C27.8602 136.086 28.0342 141.149 35.7125 143.753C36.0895 143.881 36.4954 144.002 36.9362 144.118C27.9066 147.32 22.7916 151.072 21.1852 155.56C20.5009 157.474 20.7851 159.516 21.9855 161.313C23.7079 163.894 27.3963 166.08 32.9404 167.814C33.9611 168.133 35.034 168.429 36.1301 168.702C31.4094 171.126 27.0193 173.683 23.389 176.148C18.1754 179.691 11.2394 185.056 11.193 190.71C11.1814 192.409 11.7961 195.529 16.0644 197.466C22.6293 200.929 30.5917 202.61 40.3984 202.61C45.1074 202.61 49.9266 202.228 54.5197 201.706C55.1924 202.581 56.2363 203.097 57.344 203.097C57.6107 203.097 57.8775 203.068 58.1501 203.005C80.3324 197.861 103.396 191.133 128.658 182.434C129.917 182 130.827 180.903 131.018 179.593C132.375 170.424 133.646 163.053 135.014 156.396C138.459 139.63 143.226 122.406 149.582 103.744C154.048 90.6313 159.36 76.6724 165.814 61.0548C166.296 59.895 166.128 58.5727 165.379 57.5695C158.832 48.7893 151.455 38.7913 146.433 31.2406C140.419 22.1994 139.694 19.4854 139.613 18.8648C139.944 17.1946 139.039 15.5012 137.432 14.8691C135.959 14.2834 101.048 0.57959 79.3524 0.57959Z" fill="black"/>
</g>
<path id="Vector_3" d="M88.5561 25.4182C91.2875 26.0213 92.9867 27.7843 95.8632 29.5299C47.1606 28.4745 38.5138 32.1454 34.8544 35.3234C28.8115 33.6938 29.6872 29.1124 35.3822 27.7727C35.5793 24.9891 82.9307 22.8723 88.5561 25.4182Z" fill="#EBDA92"/>
<path id="Vector_4" d="M124.605 16.8931C116.781 14.9329 79.4628 8.81464 72.2542 11.0706C70.4275 11.0996 69.488 9.01762 71.0422 8.13613C71.5699 0.620214 112.89 10.6414 124.605 16.8931Z" fill="#EBDA92"/>
<path id="Vector_5" d="M72.3583 9.06421C74.7418 9.20919 90.5333 20.9238 90.4579 21.9967C90.3013 24.212 89.0835 25.1399 88.7761 25.1457C82.71 24.502 66.5125 10.8736 72.3583 9.06421Z" fill="#D2B355"/>
<path id="Vector_6" d="M48.1405 60.1213C50.756 58.7759 65.8226 53.3246 74.7999 56.5026C74.5332 56.6766 77.0443 60.5389 74.51 60.6665C57.4484 61.5248 52.635 63.05 50.9068 64.3664C45.9078 65.1958 45.3916 61.5306 48.1405 60.1156V60.1213Z" fill="#EBDA91"/>
<path id="Vector_7" d="M74.9739 59.7327C74.9739 59.7327 64.5409 58.0103 50.7908 59.8255C53.5164 56.2531 69.1688 54.4321 75.2581 55.7022C76.8123 55.7486 75.9888 59.7095 74.9739 59.7327Z" fill="#D3B555"/>
</g>
<g id="Crown_2">
<path id="Vector_8" d="M56.7757 164.144C59.426 163.506 62.2619 164.26 66.0024 164.509C27.0542 183.85 23.4355 190.461 23.2963 194.608C17.178 195.767 13.942 191.621 17.2476 188.153C15.0149 185.775 50.1993 164.376 56.7699 164.15L56.7757 164.144Z" fill="#EBDA92"/>
<path id="Vector_9" d="M77.6475 142.147C69.859 143.776 35.4691 154.209 31.7691 159.063C30.3657 159.846 27.8546 158.518 28.3127 157.144C22.293 150.718 63.1492 141.845 77.6533 142.153L77.6475 142.147Z" fill="#EBDA92"/>
<path id="Vector_10" d="M30.1278 157.364C32.1112 156.494 54.4734 159.615 55.3317 160.531C57.1062 162.427 56.9497 163.697 56.7119 163.825C51.4171 165.808 27.1064 161.285 30.1278 157.364Z" fill="#D2B355"/>
<path id="Vector_11" d="M72.8627 195.709C70.9953 196.196 69.1221 196.672 67.2432 197.142C68.925 196.324 70.7286 195.732 72.6365 195.518C72.6307 195.553 72.7177 195.616 72.8627 195.709Z" fill="#EBDA91"/>
<path id="Vector_12" d="M66.3677 197.362C68.4844 196.081 70.6012 195.095 72.3062 194.66C72.7817 194.428 73.4718 194.805 74.0982 195.385C71.5291 196.057 68.9542 196.718 66.3677 197.362Z" fill="#D3B555"/>
</g>
<g id="Crown_3">
<path id="Vector_13" d="M56.5381 92.5857C59.3681 92.5683 61.7575 93.8906 65.2428 94.946C19.0861 104.573 12.6315 109.989 10.6307 113.846C4.22825 113.602 2.9814 109.004 7.72524 106.469C6.65237 103.749 50.1124 91.3679 56.5323 92.5857H56.5381Z" fill="#EBDA92"/>
<path id="Vector_14" d="M86.5089 76.5157C78.2913 76.3418 40.532 78.6151 34.7848 82.3556C33.0856 82.7848 31.2647 80.987 32.3259 79.7981C29.4321 72.4562 72.7066 73.0651 86.5089 76.5157Z" fill="#EBDA92"/>
<path id="Vector_15" d="M33.9789 80.4013C36.2812 80.0185 56.3643 87.8302 56.7818 88.8799C57.6343 91.043 56.9094 92.2029 56.6252 92.2725C50.6461 92.9742 29.3105 83.4227 33.9789 80.4013Z" fill="#D2B355"/>
<path id="Vector_16" d="M34.2688 134.776C36.1188 132.914 47.787 124.377 57.6458 125.473C57.4776 125.7 61.5662 128.866 59.2464 129.539C43.6289 134.091 39.8071 136.608 38.7748 138.255C34.4602 140.14 32.326 136.736 34.2688 134.776Z" fill="#EBDA91"/>
<path id="Vector_17" d="M59.2636 128.536C59.2636 128.536 48.703 129.156 36.623 133.906C37.5683 129.875 51.4287 124.702 57.7094 124.598C59.1882 124.302 60.1973 128.292 59.2578 128.536H59.2636Z" fill="#D3B555"/>
</g>
</g>
</g>
</svg>
