<svg width="194" height="148" viewBox="0 0 194 148" fill="none" xmlns="http://www.w3.org/2000/svg">
<g id="Group 35971">
<g id="Group">
<g id="EYES">
<g id="Group_2">
<path id="Vector" d="M188.183 89.6798C187.353 109.961 166.952 124.508 143.02 122.241C119.089 119.973 100.362 101.692 101.192 81.411C102.022 61.1296 122.092 46.5256 146.021 48.7931C169.951 51.0606 189.01 69.396 188.181 89.6798H188.183Z" fill="white"/>
<g id="Group_3">
<path id="Vector_2" d="M97.7212 88.6042C97.915 109.988 118.334 126.848 143.326 126.259C168.333 125.671 188.444 107.854 188.25 86.4653C188.056 65.0786 167.628 48.2219 142.633 48.8129C117.641 49.4064 97.5299 67.22 97.7237 88.6042H97.7212Z" stroke="#1B1B1B" stroke-width="10" stroke-miterlimit="10" stroke-linecap="round"/>
<path id="Vector_3" d="M100.287 88.5449C100.469 108.72 119.737 124.617 143.313 124.061C166.882 123.507 185.863 106.7 185.681 86.5247C185.5 66.3546 166.231 50.4524 142.655 51.0088C119.076 51.5652 100.106 68.3748 100.287 88.5449Z" fill="white"/>
<g id="Group_4">
<path id="Vector_4" d="M185.733 88.4756C185.733 109.237 166.972 126.069 143.828 126.069C120.684 126.069 101.922 109.237 101.922 88.4756C101.922 67.7145 120.684 50.8826 143.828 50.8826C166.972 50.8826 185.733 67.712 185.733 88.4756Z" fill="#F6B82E"/>
<g id="Group_5" style="mix-blend-mode:screen" opacity="0.4">
<path id="Vector_5" d="M153.72 112.899C150.555 113.93 147.229 114.454 143.828 114.454C140.171 114.454 137.205 117.115 137.205 120.396C137.205 123.677 140.171 126.338 143.828 126.338C148.779 126.338 153.626 125.574 158.244 124.071C161.683 122.948 163.459 119.541 162.209 116.455C160.957 113.369 157.159 111.779 153.72 112.899Z" fill="white"/>
</g>
<path id="Vector_6" d="M120.401 57.3167C108.836 64.322 101.935 75.9711 101.935 88.4757C101.935 91.757 104.901 94.4177 108.558 94.4177C112.215 94.4177 115.181 91.757 115.181 88.4757C115.181 79.925 119.906 71.9578 127.814 67.1632C132.549 64.2948 138.084 62.779 143.825 62.779C150.265 62.779 156.341 64.6484 161.404 68.1844C168.438 73.0977 172.472 80.4912 172.472 88.4732C172.472 91.7545 175.438 94.4152 179.095 94.4152C182.752 94.4152 185.718 91.7545 185.718 88.4732C185.718 76.7994 179.821 65.9861 169.543 58.8078C162.132 53.6299 153.238 50.895 143.825 50.895C135.433 50.895 127.332 53.1155 120.398 57.3167H120.401Z" fill="#F4D962"/>
<path id="Vector_7" d="M143.828 114.254C159.698 114.254 172.564 102.713 172.564 88.4756C172.564 74.2386 159.698 62.6973 143.828 62.6973C127.957 62.6973 115.092 74.2386 115.092 88.4756C115.092 102.713 127.957 114.254 143.828 114.254Z" fill="#CA6A1B"/>
<path id="Vector_8" d="M143.828 72.9617C129.918 72.9617 118.316 81.8314 115.666 93.6066C118.316 105.387 129.916 114.251 143.828 114.251C157.74 114.251 169.339 105.384 171.99 93.6066C169.339 81.8289 157.74 72.9617 143.828 72.9617Z" fill="#EF9126"/>
<g id="Group_6">
<g id="Group_7">
<path id="Vector_9" d="M143.16 111.507C142.404 111.507 141.793 110.898 141.793 110.147V107.891C139.639 107.469 137.709 106.502 136.037 105.011C133.975 103.168 132.927 100.048 132.927 95.7305V94.0045C132.927 93.2528 133.538 92.6445 134.293 92.6445H141.669C139.368 91.1905 137.798 90.1149 136.884 89.3681C135.764 88.4532 134.792 87.1748 134 85.5626C133.202 83.9405 132.795 82.0933 132.795 80.0731C132.795 77.0786 133.684 74.6677 135.443 72.9121C136.944 71.4111 139.075 70.4097 141.793 69.925V68.2831C141.793 67.5314 142.404 66.9231 143.16 66.9231H147.241C147.997 66.9231 148.608 67.5314 148.608 68.2831V69.9448C151.085 70.4393 153.025 71.4383 154.391 72.922C155.984 74.6529 156.791 77.0218 156.791 79.9668C156.791 80.3698 156.761 80.946 156.699 81.7323C156.644 82.4395 156.051 82.986 155.335 82.986H148.148C148.56 83.2432 149.025 83.53 149.552 83.8465C151.894 85.2535 153.465 86.3192 154.354 87.1031C155.323 87.9562 156.14 89.1481 156.781 90.6465C157.415 92.1302 157.735 93.965 157.735 96.1039C157.735 99.5632 156.858 102.35 155.129 104.385C153.599 106.185 151.407 107.389 148.608 107.971V110.144C148.608 110.896 147.997 111.504 147.241 111.504H143.16V111.507ZM144.762 100.092C144.931 100.092 144.988 100.06 144.988 100.06C145.023 100.013 145.172 99.7734 145.172 99.0736C145.172 96.7962 144.981 95.7354 144.822 95.2458C144.797 95.1692 144.725 95.0084 144.528 94.7686V96.1682C144.528 98.8931 144.653 99.8031 144.715 100.092C144.73 100.092 144.745 100.092 144.762 100.092ZM144.779 77.7463C144.725 77.8353 144.593 78.1295 144.593 78.8714C144.593 80.2734 144.923 80.7136 145.025 80.8149C145.048 80.8372 145.072 80.8619 145.105 80.8916V80.1597C145.105 78.6142 144.998 77.9787 144.941 77.7463C144.916 77.7463 144.886 77.7438 144.849 77.7438C144.817 77.7438 144.794 77.7438 144.779 77.7487V77.7463Z" fill="#F7E065"/>
<path id="Vector_10" d="M147.241 68.2807V71.0971C149.976 71.4458 152.024 72.3607 153.385 73.8369C154.746 75.3156 155.425 77.3556 155.425 79.9619C155.425 80.3254 155.395 80.8793 155.338 81.6211H146.474V80.1572C146.474 78.5994 146.372 77.5807 146.165 77.1009C145.959 76.6212 145.522 76.3814 144.849 76.3814C144.307 76.3814 143.902 76.5891 143.631 77.0045C143.361 77.4199 143.227 78.0431 143.227 78.8714C143.227 80.2537 143.505 81.223 144.061 81.7769C144.603 82.3308 146.198 83.4064 148.844 85.0087C151.097 86.3638 152.632 87.3999 153.452 88.1219C154.272 88.8415 154.962 89.8627 155.526 91.1782C156.09 92.4962 156.371 94.1381 156.371 96.1039C156.371 99.2492 155.611 101.717 154.088 103.507C152.568 105.298 150.284 106.405 147.241 106.826V110.144H143.159V106.714C140.789 106.482 138.72 105.575 136.951 103.994C135.182 102.414 134.295 99.6597 134.295 95.7281V94.0021H143.159V96.1633C143.159 98.5371 143.251 100.011 143.433 100.587C143.617 101.163 144.059 101.45 144.759 101.45C145.358 101.45 145.805 101.25 146.098 100.849C146.392 100.449 146.538 99.8551 146.538 99.0687C146.538 97.0881 146.399 95.6737 146.121 94.8206C145.843 93.97 144.894 93.0402 143.269 92.0363C140.563 90.3474 138.722 89.1061 137.751 88.3123C136.777 87.5186 135.938 86.4009 135.227 84.9593C134.516 83.5177 134.164 81.8882 134.164 80.0682C134.164 77.4323 134.914 75.3651 136.412 73.8666C137.91 72.3681 140.161 71.4433 143.159 71.0922V68.2757H147.241M147.241 65.5533H143.159C141.649 65.5533 140.424 66.7723 140.424 68.2757V68.8148C137.952 69.4157 135.957 70.4641 134.474 71.9453C132.454 73.9655 131.428 76.7004 131.428 80.0682C131.428 82.2986 131.881 84.3485 132.772 86.1586C133.652 87.9464 134.745 89.3806 136.017 90.4191C136.328 90.6713 136.705 90.9582 137.155 91.2821H134.293C132.782 91.2821 131.558 92.5011 131.558 94.0046V95.7305C131.558 100.449 132.758 103.913 135.123 106.022C136.69 107.422 138.467 108.406 140.422 108.96V110.142C140.422 111.645 141.646 112.864 143.157 112.864H147.239C148.749 112.864 149.974 111.645 149.974 110.142V109.036C152.57 108.319 154.647 107.053 156.172 105.258C158.115 102.971 159.101 99.8872 159.101 96.0965C159.101 93.7721 158.744 91.7593 158.038 90.1075C157.318 88.4187 156.381 87.0636 155.258 86.0745C154.709 85.5923 153.931 85.0162 152.908 84.3386H155.333C156.761 84.3386 157.946 83.2457 158.058 81.8288C158.123 81.0054 158.155 80.3921 158.155 79.9569C158.155 76.6608 157.226 73.9803 155.395 71.9923C154.041 70.5235 152.222 69.4725 149.969 68.8593V68.2733C149.969 66.7698 148.744 65.5508 147.234 65.5508L147.241 65.5533Z" fill="black"/>
</g>
<g id="Group_8" style="mix-blend-mode:multiply">
<path id="Vector_11" d="M149.663 81.6237H155.338C155.395 80.8819 155.424 80.328 155.424 79.9645C155.424 77.3582 154.744 75.3157 153.385 73.8395C152.679 73.073 151.785 72.4622 150.709 71.9973C150.558 75.2935 150.205 78.508 149.666 81.6237H149.663Z" fill="#F7E065"/>
<path id="Vector_12" d="M155.524 91.1784C154.96 89.8604 154.269 88.8417 153.449 88.1221C152.649 87.4174 151.156 86.406 148.983 85.0955C148.23 88.4609 147.256 91.6878 146.086 94.7466C146.096 94.7738 146.111 94.801 146.118 94.8257C146.396 95.6763 146.536 97.0932 146.536 99.0738C146.536 99.8602 146.389 100.454 146.098 100.854C145.805 101.255 145.36 101.455 144.759 101.455C144.089 101.455 143.664 101.186 143.465 100.661C142.508 102.553 141.477 104.366 140.365 106.074C141.244 106.403 142.173 106.623 143.154 106.72V110.149H147.236V106.831C150.279 106.408 152.56 105.303 154.083 103.512C155.603 101.722 156.366 99.2544 156.366 96.109C156.366 94.1432 156.085 92.5013 155.521 91.1833L155.524 91.1784Z" fill="#F7E065"/>
</g>
</g>
<path id="Vector_13" d="M120.4 57.3167C117.367 59.1539 116.572 62.8482 118.619 65.5682C120.666 68.2857 124.785 69.0004 127.816 67.1656C132.551 64.2972 138.086 62.7814 143.828 62.7814C147.485 62.7814 150.451 60.1208 150.451 56.8394C150.451 53.5581 147.485 50.8975 143.828 50.8975C135.436 50.8975 127.334 53.118 120.4 57.3192V57.3167Z" fill="#F5FFFF"/>
</g>
</g>
<g id="Group_9">
<path id="Vector_14" d="M117.457 90.9435C117.981 118.868 93.4257 141.882 62.6101 142.359C31.802 142.831 6.39725 120.582 5.87802 92.667C5.34886 64.7424 29.9064 41.7311 60.7146 41.2563C91.5326 40.7791 116.935 63.0263 117.454 90.9435H117.457Z" stroke="#1B1B1B" stroke-width="11" stroke-miterlimit="10" stroke-linecap="round"/>
<path id="Vector_15" d="M114.296 90.9979C114.791 117.33 91.627 139.036 62.5529 139.488C33.4962 139.936 9.52744 118.95 9.03803 92.62C8.5362 66.2854 31.7025 44.5723 60.7642 44.1247C89.8308 43.6771 113.805 64.6633 114.296 91.0004V90.9979Z" fill="white"/>
</g>
<path id="Vector_16" d="M167.163 28.2731C167.252 28.2236 167.347 28.1766 167.426 28.1247C167.506 28.0728 167.568 28.0159 167.633 27.9615C167.697 27.9071 167.767 27.8552 167.819 27.7983C167.871 27.7415 167.908 27.6821 167.948 27.6203C167.988 27.5585 168.033 27.4991 168.06 27.4373C168.085 27.378 168.092 27.3161 168.105 27.2543C168.117 27.1876 168.132 27.1233 168.127 27.0565C168.127 27.0392 168.134 27.0194 168.134 27.0021C168.127 26.9526 168.095 26.9057 168.08 26.8562C168.065 26.8117 168.07 26.7672 168.047 26.7227C168.033 26.693 168.013 26.6633 167.998 26.6337C167.993 26.6262 167.99 26.6164 167.983 26.6089C166.462 23.6565 161.295 21.4236 157.504 19.9919C147.728 16.3199 135.893 13.5801 123.28 12.0692C123.208 12.0593 123.133 12.0593 123.061 12.0519C122.912 12.0371 122.766 12.0272 122.617 12.0173C122.458 12.0074 122.304 12.0025 122.147 12C122.018 12 121.889 12 121.759 12.0049C121.593 12.0099 121.429 12.0148 121.265 12.0272C121.138 12.0371 121.014 12.0495 120.89 12.0618C120.736 12.0791 120.584 12.0989 120.435 12.1212C120.306 12.1409 120.179 12.1657 120.055 12.1904C119.916 12.2176 119.784 12.2473 119.653 12.2819C119.531 12.314 119.417 12.3487 119.3 12.3833C119.173 12.4228 119.054 12.4649 118.937 12.5119C118.883 12.5341 118.821 12.5489 118.768 12.5712C112.14 15.447 106.573 19.7768 104.247 23.8691C104.004 24.292 103.549 25.0808 104.374 26.0402C104.888 26.562 105.669 26.9329 106.364 27.2246C115.273 30.9758 127.58 33.2977 140.109 33.5895C140.551 33.6018 141.197 33.6167 141.982 33.6167C144.645 33.6167 148.896 33.4263 152.058 32.2047C153.882 31.5 154.995 30.4639 155.164 29.3982C156.438 29.3463 157.824 29.2795 159.32 29.2053C161.096 29.1188 162.714 29.0372 163.827 29.0124C163.938 29.0124 164.04 28.9976 164.15 28.9927C164.264 28.9877 164.378 28.9877 164.492 28.9778C164.535 28.9753 164.569 28.9655 164.609 28.963C164.768 28.9481 164.92 28.9259 165.074 28.9036C165.208 28.8839 165.345 28.8665 165.474 28.8418C165.61 28.8146 165.737 28.7825 165.866 28.7503C165.995 28.7182 166.125 28.6885 166.244 28.6539C166.358 28.6193 166.462 28.5797 166.567 28.5401C166.681 28.4981 166.798 28.4585 166.9 28.4116C166.997 28.3671 167.081 28.3201 167.168 28.2706L167.163 28.2731Z" fill="black"/>
<path id="Vector_17" d="M17.2421 16.2731C17.1527 16.2236 17.0583 16.1766 16.9788 16.1247C16.8993 16.0728 16.8372 16.0159 16.7726 15.9615C16.708 15.9071 16.6384 15.8552 16.5863 15.7983C16.5341 15.7414 16.4968 15.6821 16.4571 15.6203C16.4173 15.5585 16.3726 15.4991 16.3453 15.4373C16.3204 15.378 16.313 15.3161 16.3006 15.2543C16.2881 15.1876 16.2732 15.1233 16.2782 15.0565C16.2782 15.0392 16.2708 15.0194 16.2708 15.0021C16.2782 14.9526 16.3105 14.9057 16.3254 14.8562C16.3403 14.8117 16.3353 14.7672 16.3577 14.7227C16.3726 14.693 16.3925 14.6633 16.4074 14.6337C16.4124 14.6262 16.4148 14.6164 16.4223 14.6089C17.9427 11.6565 23.1101 9.4236 26.9012 7.99189C36.6795 4.3174 48.5148 1.58008 61.1302 0.0692367C61.2023 0.0593457 61.2768 0.0593457 61.3489 0.0519275C61.4979 0.0370911 61.6445 0.0272001 61.7935 0.0173092C61.9525 0.00741821 62.1066 0.00247274 62.2631 0C62.3923 0 62.5215 0 62.6506 0.00494548C62.8171 0.00989095 62.9811 0.0148364 63.145 0.0272001C63.2717 0.0370911 63.3959 0.0494548 63.5202 0.0618184C63.6742 0.0791276 63.8257 0.0989095 63.9748 0.121164C64.104 0.140946 64.2307 0.165673 64.3549 0.190401C64.494 0.217601 64.6257 0.247274 64.7574 0.281892C64.8791 0.314038 64.9934 0.348656 65.1101 0.383274C65.2368 0.422838 65.3561 0.464875 65.4728 0.511857C65.5275 0.534111 65.5896 0.548948 65.6418 0.571202C72.27 3.447 77.8373 7.77676 80.1627 11.8691C80.4061 12.292 80.8608 13.0808 80.036 14.0402C79.5217 14.562 78.7416 14.9329 78.046 15.2246C69.1372 18.9758 56.8299 21.2977 44.3014 21.5895C43.8592 21.6018 43.2133 21.6167 42.4282 21.6167C39.765 21.6167 35.5143 21.4263 32.3518 20.2047C30.5283 19.5 29.4153 18.4639 29.2464 17.3982C27.9719 17.3463 26.5857 17.2795 25.0901 17.2053C23.3138 17.1188 21.6965 17.0372 20.5835 17.0124C20.4717 17.0124 20.3699 16.9976 20.2606 16.9927C20.1463 16.9877 20.032 16.9877 19.9177 16.9778C19.8755 16.9753 19.8407 16.9655 19.801 16.963C19.642 16.9481 19.4904 16.9259 19.3364 16.9036C19.2023 16.8839 19.0656 16.8665 18.9364 16.8418C18.7998 16.8146 18.6731 16.7825 18.5439 16.7503C18.4147 16.7182 18.2855 16.6885 18.1663 16.6539C18.052 16.6193 17.9477 16.5797 17.8433 16.5401C17.7291 16.4981 17.6123 16.4585 17.5104 16.4116C17.4135 16.3671 17.3291 16.3201 17.2421 16.2706V16.2731Z" fill="black"/>
<g id="Group_10">
<path id="Vector_18" d="M114.297 91.6309C114.297 117.872 90.7327 139.147 61.6661 139.147C32.5994 139.147 9.03809 117.872 9.03809 91.6309C9.03809 65.3902 32.6019 44.1147 61.6685 44.1147C90.7352 44.1147 114.299 65.3877 114.299 91.6309H114.297Z" fill="#F6B82E"/>
<g id="Group_11" style="mix-blend-mode:screen" opacity="0.4">
<path id="Vector_19" d="M74.0901 122.501C70.1176 123.806 65.939 124.466 61.666 124.466C57.0724 124.466 53.3459 127.829 53.3459 131.976C53.3459 136.123 57.0724 139.486 61.666 139.486C67.8842 139.486 73.9733 138.521 79.7717 136.62C84.0895 135.201 86.3204 130.893 84.7503 126.994C83.1777 123.094 78.4078 121.081 74.0901 122.498V122.501Z" fill="white"/>
</g>
<path id="Vector_20" d="M32.2466 52.2476C17.7232 61.1025 9.05542 75.8252 9.05542 91.6309C9.05542 95.7777 12.7819 99.1406 17.3754 99.1406C21.9689 99.1406 25.6954 95.7777 25.6954 91.6309C25.6954 80.825 31.628 70.7511 41.5628 64.6954C47.5103 61.0679 54.4615 59.154 61.671 59.154C69.7575 59.154 77.3918 61.5179 83.7492 65.9861C92.581 72.1952 97.6465 81.5396 97.6465 91.6309C97.6465 95.7777 101.373 99.1406 105.967 99.1406C110.56 99.1406 114.287 95.7777 114.287 91.6309C114.287 76.8761 106.881 63.2068 93.9722 54.1343C84.6659 47.5914 73.4964 44.1321 61.6735 44.1321C51.1349 44.1321 40.9591 46.9386 32.2516 52.2476H32.2466Z" fill="#F4D962"/>
<path id="Vector_21" d="M61.6686 124.212C81.5991 124.212 97.756 109.625 97.756 91.6308C97.756 73.637 81.5991 59.05 61.6686 59.05C41.7381 59.05 25.5813 73.637 25.5813 91.6308C25.5813 109.625 41.7381 124.212 61.6686 124.212Z" fill="#CA6A1B"/>
<path id="Vector_22" d="M61.6686 72.022C44.1988 72.022 29.6308 83.2309 26.3018 98.1168C29.6308 113.005 44.1988 124.212 61.6686 124.212C79.1384 124.212 93.7065 113.005 97.0355 98.1168C93.7065 83.2309 79.1384 72.022 61.6686 72.022Z" fill="#EF9126"/>
<path id="Vector_23" d="M32.2467 52.2476C28.4382 54.5695 27.437 59.238 30.0108 62.6751C32.5796 66.1098 37.7544 67.0148 41.5604 64.6929C47.5079 61.0654 54.459 59.1515 61.6686 59.1515C66.2621 59.1515 69.9886 55.7886 69.9886 51.6418C69.9886 47.495 66.2621 44.1321 61.6686 44.1321C51.13 44.1321 40.9543 46.9386 32.2467 52.2476Z" fill="#F5FFFF"/>
</g>
<path id="Vector_24" d="M13.8521 27.4037C18.183 25.5258 21.0199 22.4638 20.1886 20.5645C19.3573 18.6652 15.1726 18.6479 10.8417 20.5258C6.51086 22.4037 3.6739 25.4657 4.50519 27.365C5.33648 29.2643 9.52123 29.2816 13.8521 27.4037Z" fill="black"/>
<g id="Group_12">
<g id="Group_13">
<path id="Vector_25" d="M59.3184 116.497C58.4762 116.497 57.793 115.817 57.793 114.978V112.464C55.3906 111.991 53.2367 110.913 51.3735 109.252C49.073 107.197 47.9054 103.715 47.9054 98.9007V96.9769C47.9054 96.1386 48.5886 95.4586 49.4307 95.4586H57.6563C55.09 93.8365 53.3386 92.6372 52.3175 91.8039C51.0679 90.7851 49.9847 89.3559 49.1003 87.5582C48.2109 85.7482 47.7588 83.6884 47.7588 81.4332C47.7588 78.0926 48.7525 75.4047 50.7102 73.4438C52.3821 71.7698 54.7621 70.6521 57.793 70.1106V68.2783C57.793 67.44 58.4762 66.76 59.3184 66.76H63.8721C64.7143 66.76 65.3975 67.44 65.3975 68.2783V70.1304C68.1601 70.6818 70.3264 71.797 71.8493 73.4512C73.6256 75.38 74.5249 78.0258 74.5249 81.3096C74.5249 81.7572 74.4926 82.4025 74.4231 83.2804C74.361 84.0692 73.6976 84.6799 72.9027 84.6799H64.8857C65.3453 84.9668 65.8646 85.2858 66.4509 85.6394C69.0619 87.2096 70.8158 88.3989 71.8096 89.2718C72.8902 90.2238 73.802 91.5517 74.515 93.2257C75.2205 94.88 75.5783 96.9274 75.5783 99.3136C75.5783 103.174 74.5995 106.282 72.6716 108.552C70.9649 110.56 68.5203 111.902 65.395 112.553V114.978C65.395 115.817 64.7118 116.497 63.8696 116.497H59.3159H59.3184ZM61.1046 103.765C61.2934 103.765 61.358 103.73 61.358 103.73C61.3977 103.676 61.5617 103.411 61.5617 102.63C61.5617 100.09 61.3481 98.9056 61.1717 98.3591C61.1443 98.2751 61.0648 98.0945 60.8437 97.8275V99.3878C60.8437 102.424 60.9829 103.443 61.0524 103.765C61.0673 103.765 61.0847 103.765 61.1046 103.765ZM61.1245 78.8393C61.0648 78.9407 60.9158 79.2646 60.9158 80.093C60.9158 81.6583 61.2859 82.1479 61.4002 82.2591C61.4251 82.2839 61.4524 82.3135 61.4897 82.3457V81.5297C61.4897 79.8062 61.3704 79.0965 61.3058 78.8369C61.2785 78.8369 61.2437 78.8319 61.204 78.8319C61.1692 78.8319 61.1419 78.8319 61.1245 78.8369V78.8393Z" fill="#F7E065"/>
<path id="Vector_26" d="M63.8698 68.2808V71.4236C66.9205 71.8143 69.2061 72.8331 70.7215 74.4799C72.2395 76.1292 72.9972 78.4066 72.9972 81.3121C72.9972 81.7176 72.9649 82.3358 72.9003 83.1642H63.0127V81.5322C63.0127 79.7938 62.8984 78.6588 62.6698 78.1223C62.4413 77.5857 61.9519 77.3186 61.2016 77.3186C60.5979 77.3186 60.1458 77.5511 59.8427 78.0135C59.5396 78.4759 59.3905 79.1707 59.3905 80.0955C59.3905 81.6385 59.7011 82.7191 60.3197 83.3348C60.9233 83.953 62.7021 85.1547 65.656 86.94C68.1676 88.4509 69.8818 89.6081 70.7961 90.4118C71.7103 91.2154 72.4804 92.3529 73.109 93.8217C73.7375 95.2905 74.0505 97.1228 74.0505 99.3136C74.0505 102.822 73.2009 105.575 71.5041 107.573C69.8073 109.571 67.2609 110.804 63.8673 111.274V114.976H59.3135V111.151C56.6702 110.891 54.3622 109.88 52.3872 108.117C50.4122 106.354 49.4259 103.28 49.4259 98.8957V96.9719H59.3135V99.3829C59.3135 102.031 59.4154 103.676 59.6191 104.316C59.8228 104.959 60.3172 105.278 61.0997 105.278C61.768 105.278 62.2649 105.055 62.5928 104.608C62.9183 104.16 63.0822 103.5 63.0822 102.622C63.0822 100.414 62.9282 98.8339 62.6177 97.8844C62.3071 96.9348 61.2463 95.8988 59.4352 94.7786C56.4168 92.8944 54.3647 91.5097 53.2791 90.6244C52.1934 89.7392 51.2544 88.4929 50.4643 86.8856C49.6718 85.2784 49.2768 83.4584 49.2768 81.4283C49.2768 78.4882 50.114 76.1836 51.786 74.5096C53.4579 72.838 55.9671 71.8044 59.311 71.4162V68.2733H63.8648M63.8648 65.2368H59.311C57.6266 65.2368 56.2603 66.5968 56.2603 68.2733V68.8742C53.5027 69.5443 51.2767 70.7139 49.6221 72.3682C47.3689 74.6233 46.2261 77.6697 46.2261 81.4283C46.2261 83.9159 46.7304 86.2007 47.7241 88.2209C48.7054 90.2139 49.9227 91.8138 51.3438 92.9735C51.6891 93.2554 52.1114 93.5744 52.6133 93.9354H49.4234C47.739 93.9354 46.3726 95.2954 46.3726 96.9719V98.8957C46.3726 104.16 47.7092 108.023 50.3476 110.377C52.0965 111.939 54.0765 113.035 56.2603 113.653V114.973C56.2603 116.65 57.6266 118.01 59.311 118.01H63.8648C65.5492 118.01 66.9155 116.65 66.9155 114.973V113.742C69.8098 112.943 72.1301 111.531 73.8294 109.528C75.9982 106.977 77.0963 103.54 77.0963 99.3111C77.0963 96.7197 76.6963 94.472 75.9113 92.6298C75.1064 90.7481 74.063 89.2347 72.8108 88.1319C72.1972 87.5928 71.3327 86.9524 70.1899 86.1957H72.8953C74.4878 86.1957 75.8119 84.9767 75.9361 83.3966C76.0082 82.4792 76.043 81.7943 76.043 81.3071C76.043 77.6302 75.007 74.6406 72.9649 72.4226C71.4544 70.7832 69.4272 69.6136 66.9131 68.9261V68.2733C66.9131 66.5968 65.5467 65.2368 63.8623 65.2368H63.8648Z" fill="black"/>
</g>
<g id="Group_14" style="mix-blend-mode:multiply">
<path id="Vector_27" d="M66.5728 83.1641H72.9028C72.9674 82.3357 72.9997 81.7176 72.9997 81.312C72.9997 78.4041 72.242 76.1267 70.7241 74.4799C69.9365 73.6243 68.9378 72.9418 67.7379 72.4275C67.569 76.102 67.1764 79.6899 66.5728 83.1666V83.1641Z" fill="#F7E065"/>
<path id="Vector_28" d="M73.109 93.8216C72.4804 92.3528 71.7103 91.2153 70.7961 90.4117C69.9017 89.6253 68.2372 88.4978 65.815 87.0364C64.9753 90.79 63.8896 94.3903 62.5854 97.8002C62.5953 97.8299 62.6127 97.8595 62.6226 97.8892C62.9332 98.8387 63.0872 100.419 63.0872 102.627C63.0872 103.505 62.9232 104.165 62.5978 104.613C62.2699 105.06 61.773 105.283 61.1047 105.283C60.3569 105.283 59.8824 104.981 59.6613 104.397C58.5955 106.507 57.4453 108.529 56.2031 110.433C57.1844 110.799 58.2204 111.044 59.316 111.153V114.978H63.8673V111.277C67.2609 110.807 69.8073 109.57 71.5041 107.575C73.2009 105.579 74.0505 102.825 74.0505 99.316C74.0505 97.1227 73.7375 95.2928 73.109 93.8216Z" fill="#F7E065"/>
</g>
</g>
</g>
</g>
</g>
</g>
</svg>
