<svg width="162" height="162" viewBox="0 0 162 162" fill="none" xmlns="http://www.w3.org/2000/svg">
<circle cx="80.7829" cy="80.7829" r="79.2829" fill="#3C3C3B" stroke="#ECECEC" stroke-width="3"/>
<g clip-path="url(#clip0_132_6967)">
<path d="M71.5606 131.523C71.6708 130.627 71.8883 129.949 72.2161 129.488C72.8179 128.646 73.8068 128.307 75.1856 128.48C75.9796 128.579 76.6322 128.878 77.1408 129.375C77.6494 129.876 77.8387 130.675 77.7031 131.777L77.6098 132.534L76.2621 132.368L76.3553 131.61C76.426 131.034 76.3525 130.585 76.1293 130.26C75.9061 129.938 75.5247 129.743 74.9794 129.675C74.2137 129.582 73.6797 129.779 73.3802 130.274C73.1965 130.579 73.0496 131.178 72.9366 132.071L72.0635 139.132L70.6423 138.956L71.5606 131.523Z" fill="#ECECEC"/>
<path d="M59.0441 134.204C58.6598 133.088 58.6909 131.83 59.1401 130.426C59.6261 128.909 60.4172 127.77 61.5078 127.013C62.7906 126.123 64.2683 125.945 65.9437 126.482C67.5062 126.982 68.5714 127.895 69.1336 129.214C69.6111 130.466 69.6083 131.853 69.1195 133.376C68.6787 134.749 67.9611 135.817 66.9637 136.577C65.6838 137.552 64.1891 137.764 62.4713 137.213C60.6771 136.636 59.5329 135.636 59.0412 134.207L59.0441 134.204ZM62.3357 128.115C61.5135 128.81 60.923 129.725 60.5613 130.856C60.1771 132.051 60.1827 133.113 60.5726 134.043C60.9625 134.972 61.7 135.611 62.7849 135.958C63.836 136.295 64.8107 136.21 65.7064 135.698C66.6021 135.19 67.2745 134.229 67.7266 132.822C68.0882 131.695 68.108 130.655 67.7859 129.7C67.4638 128.745 66.6642 128.061 65.3871 127.652C64.175 127.262 63.1579 127.417 62.3357 128.112V128.115Z" fill="#ECECEC"/>
<path d="M54.6397 133.748L53.3344 133.092L58.1206 123.554L59.426 124.209L54.6397 133.748Z" fill="#ECECEC"/>
<path d="M50.1686 131.496L48.7729 130.518L49.3577 120.4L44.4104 127.464L43.2803 126.673L49.403 117.931L50.7337 118.863L50.2167 129.018L55.1583 121.963L56.2885 122.754L50.1658 131.496H50.1686Z" fill="#ECECEC"/>
<path d="M32.5594 112.693C32.8702 111.554 33.6076 110.534 34.7689 109.627C36.0262 108.65 37.3202 108.152 38.651 108.144C40.2135 108.133 41.5329 108.819 42.6151 110.206C43.6237 111.5 43.9882 112.854 43.7113 114.261C43.4005 115.566 42.6151 116.708 41.3521 117.691C40.2135 118.578 39.0183 119.053 37.7666 119.118C36.1618 119.2 34.8056 118.533 33.698 117.109C32.5396 115.623 32.161 114.151 32.5594 112.69V112.693ZM38.7103 109.52C37.6395 109.633 36.6365 110.054 35.6984 110.783C34.7067 111.554 34.1106 112.433 33.9099 113.422C33.7093 114.411 33.958 115.354 34.6559 116.253C35.334 117.123 36.1872 117.603 37.2157 117.685C38.2441 117.77 39.3404 117.358 40.5073 116.448C41.4397 115.722 42.0443 114.871 42.3184 113.902C42.5925 112.93 42.3184 111.916 41.4906 110.859C40.7079 109.853 39.7812 109.407 38.7103 109.52Z" fill="#ECECEC"/>
<path d="M28.2704 108.325L34.2321 105.497C34.9328 105.163 35.4527 104.756 35.7889 104.271C36.3031 103.544 36.3398 102.717 35.8962 101.787C35.3679 100.671 34.6276 100.092 33.6811 100.049C33.1669 100.03 32.5623 100.182 31.8672 100.513L25.9056 103.341L25.2783 102.021L30.6946 99.4532C31.8813 98.8909 32.8702 98.6168 33.6613 98.6366C35.1051 98.6733 36.2127 99.5068 36.9897 101.143C37.7639 102.776 37.7073 104.16 36.823 105.299C36.337 105.923 35.5007 106.517 34.314 107.079L28.8977 109.647L28.2704 108.328V108.325Z" fill="#ECECEC"/>
<path d="M23.9383 98.1174L22.8279 93.3961C22.6443 92.6191 22.6104 91.9495 22.7234 91.3901C22.9409 90.3277 23.6473 89.6553 24.8396 89.3755C25.4612 89.2286 26.0009 89.2371 26.4586 89.401C26.9163 89.5648 27.3175 89.8502 27.6679 90.2543C27.7385 89.8107 27.8826 89.4547 28.103 89.1862C28.3233 88.9178 28.733 88.7003 29.332 88.5364L30.7137 88.1606C31.1064 88.0532 31.3946 87.9515 31.5754 87.8526C31.8862 87.6888 32.0614 87.4882 32.1066 87.2508L32.3411 87.1971L32.748 88.9235C32.6688 88.9913 32.5615 89.0563 32.4287 89.1184C32.2959 89.1806 32.0246 89.2682 31.6263 89.3812L29.9141 89.8728C29.2416 90.0649 28.8461 90.4153 28.7217 90.9295C28.6567 91.2205 28.6878 91.6472 28.8206 92.2038L29.5524 95.3174L34.0081 94.2692L34.3387 95.6762L23.9496 98.1202L23.9383 98.1174ZM27.6226 92.427C27.4729 91.7856 27.2214 91.3081 26.8683 90.9973C26.5151 90.6865 25.9952 90.6103 25.3086 90.7741C24.5684 90.9493 24.1248 91.3279 23.9807 91.9156C23.9044 92.2292 23.9213 92.6191 24.0315 93.0853L24.817 96.4278L28.3686 95.5915L27.6255 92.427H27.6226Z" fill="#ECECEC"/>
<path d="M21.2966 81.2147L21.5481 76.9568C21.6329 75.5102 22.2205 74.4196 23.3055 73.685C24.2859 73.0295 25.5093 72.7441 26.9729 72.8317C28.1031 72.8995 29.1146 73.1679 30.0046 73.6426C31.5755 74.4789 32.3073 75.7956 32.2028 77.601L31.9513 81.8448L21.2966 81.2147ZM30.9539 77.796C30.9822 77.3185 30.9539 76.9229 30.872 76.6093C30.7166 76.0499 30.3804 75.578 29.8633 75.1966C29.4508 74.8914 28.9111 74.6598 28.2443 74.4959C27.846 74.4026 27.4758 74.3433 27.1339 74.3235C25.8145 74.2444 24.7747 74.4422 24.0147 74.9112C23.2546 75.3802 22.8393 76.1855 22.7743 77.3241L22.6274 79.8275L30.8098 80.3106L30.9596 77.7932L30.9539 77.796Z" fill="#ECECEC"/>
<path d="M22.5486 69.1034L22.8453 67.6737L33.2965 69.8408L32.9998 71.2705L22.5486 69.1034Z" fill="#ECECEC"/>
<path d="M30.7162 65.8039C31.2982 65.9763 31.8068 66.013 32.2447 65.9113C33.0669 65.7135 33.6744 65.0665 34.0671 63.9674C34.2423 63.4758 34.3299 63.0011 34.3299 62.5434C34.3271 61.6591 33.9597 61.0883 33.2308 60.8284C32.6827 60.6334 32.2334 60.6589 31.8831 60.9075C31.5355 61.1618 31.1485 61.6167 30.7246 62.2722L29.9448 63.4815C29.4362 64.2726 28.9983 64.8009 28.6282 65.0722C27.9868 65.5412 27.2494 65.6259 26.4159 65.3265C25.5117 65.0044 24.8817 64.4336 24.52 63.6199C24.1584 62.8034 24.1753 61.8399 24.5737 60.7267C24.941 59.701 25.5061 58.9212 26.2718 58.3872C27.0375 57.8532 27.9783 57.7854 29.0944 58.1838L28.6367 59.4637C28.0744 59.3366 27.611 59.3281 27.2494 59.4411C26.5826 59.6502 26.0797 60.2322 25.7378 61.1872C25.4637 61.9557 25.4326 62.5717 25.6502 63.0266C25.8677 63.4843 26.1983 63.7923 26.6476 63.9533C27.1392 64.1285 27.5715 64.0607 27.9416 63.7442C28.1818 63.5351 28.5745 63.0096 29.1226 62.1705L29.9335 60.9188C30.3234 60.317 30.719 59.8847 31.1145 59.6219C31.8068 59.1727 32.5979 59.1049 33.4907 59.4242C34.6039 59.8225 35.2594 60.5006 35.4544 61.4613C35.6522 62.4219 35.5618 63.4249 35.1888 64.4704C34.7537 65.6881 34.0925 66.5301 33.2082 66.9906C32.3267 67.454 31.3462 67.4851 30.2669 67.081L30.7246 65.8011L30.7162 65.8039Z" fill="#ECECEC"/>
<path d="M32.4162 47.4325C33.4079 47.1725 34.312 47.2432 35.1286 47.6444L34.3968 48.848C33.7272 48.6248 33.0999 48.6078 32.5122 48.8C31.9246 48.9921 31.4103 49.4498 30.9724 50.1731C30.4356 51.0547 30.3169 51.9588 30.6192 52.8855C30.9215 53.8123 31.724 54.674 33.0293 55.468C34.0973 56.1178 35.1145 56.4003 36.0751 56.3156C37.0386 56.2308 37.8156 55.7025 38.4061 54.7305C38.9514 53.8377 39.0164 52.942 38.601 52.0492C38.3835 51.5774 38.0133 51.097 37.4878 50.6111L38.2196 49.4074C39.1153 50.0968 39.7058 50.9388 39.9911 51.9334C40.3387 53.1257 40.1409 54.3293 39.4006 55.5442C38.7621 56.5925 37.906 57.2762 36.8323 57.5955C35.414 58.0165 33.8176 57.6859 32.0461 56.6066C30.7012 55.7872 29.8111 54.7644 29.3789 53.5382C28.907 52.2074 29.0765 50.8738 29.8903 49.5374C30.5853 48.3959 31.4273 47.6952 32.419 47.4353L32.4162 47.4325Z" fill="#ECECEC"/>
<path d="M41.8712 37.6976C43.041 37.8417 44.1598 38.4237 45.2222 39.4409C46.3721 40.5456 47.0474 41.7521 47.2508 43.0687C47.4882 44.6114 46.9994 46.0185 45.7816 47.2871C44.6458 48.4709 43.3602 49.0275 41.9249 48.9541C40.5885 48.8354 39.3453 48.2223 38.1925 47.1147C37.15 46.1145 36.5086 45.0013 36.2628 43.7723C35.9492 42.1957 36.4154 40.7575 37.6642 39.4578C38.9695 38.0988 40.3709 37.5111 41.8712 37.6948V37.6976ZM45.8975 43.3287C45.6319 42.2861 45.0724 41.3537 44.2135 40.5315C43.3066 39.6613 42.3516 39.2007 41.3429 39.1414C40.337 39.0849 39.4386 39.4663 38.6503 40.2885C37.8846 41.0853 37.5371 41.9979 37.5992 43.0264C37.6642 44.0548 38.2293 45.0804 39.2973 46.1032C40.1506 46.9226 41.0773 47.3973 42.0775 47.5272C43.0777 47.6572 44.0412 47.2391 44.9707 46.2699C45.8523 45.3517 46.1602 44.3684 45.8946 43.3258L45.8975 43.3287Z" fill="#ECECEC"/>
<path d="M44.4168 33.5948L48.4515 30.9021C49.1155 30.4585 49.7286 30.193 50.2937 30.1025C51.3645 29.9358 52.2404 30.3597 52.9213 31.3796C53.2773 31.9108 53.4553 32.4194 53.4638 32.9054C53.4694 33.3913 53.3451 33.866 53.0852 34.335C53.5259 34.2446 53.9102 34.2559 54.2379 34.3689C54.5657 34.4819 54.9132 34.7899 55.2777 35.2928L56.114 36.4541C56.3514 36.7847 56.5491 37.0163 56.7017 37.152C56.9617 37.3865 57.2131 37.4797 57.4504 37.4373L57.5832 37.6379L56.1084 38.6212C56.018 38.5703 55.9191 38.494 55.8145 38.3895C55.71 38.285 55.5348 38.0646 55.2862 37.7283L54.2266 36.2959C53.8113 35.7336 53.3423 35.485 52.8196 35.5471C52.5229 35.5867 52.1358 35.7675 51.6583 36.084L48.9968 37.8583L51.5368 41.667L50.3332 42.4694L44.4111 33.5919L44.4168 33.5948ZM51.0367 35.0555C51.5849 34.691 51.9437 34.287 52.1132 33.849C52.2828 33.4111 52.1697 32.8969 51.777 32.3092C51.356 31.6763 50.8446 31.3938 50.2428 31.4616C49.9235 31.5011 49.5647 31.6537 49.1635 31.9193L46.307 33.8236L48.33 36.8581L51.0339 35.0555H51.0367Z" fill="#ECECEC"/>
<path d="M54.9271 27.1032L58.894 25.5323C60.2389 24.9983 61.4765 25.0689 62.601 25.7442C63.6097 26.3545 64.3838 27.3434 64.9235 28.7081C65.3416 29.762 65.5225 30.7904 65.4688 31.7991C65.3756 33.5763 64.4912 34.7969 62.8101 35.4637L58.8573 37.0289L54.9243 27.1061L54.9271 27.1032ZM62.1065 34.4098C62.5501 34.2346 62.8977 34.0425 63.1463 33.8334C63.5871 33.4548 63.8724 32.9519 63.9996 32.3218C64.1013 31.8189 64.0843 31.2312 63.9515 30.5587C63.8696 30.1575 63.7651 29.7987 63.6379 29.4794C63.1519 28.2504 62.5332 27.3914 61.7873 26.8998C61.0414 26.4082 60.1372 26.3743 59.0749 26.7953L56.7439 27.7192L59.7643 35.3393L62.1094 34.4098H62.1065Z" fill="#ECECEC"/>
<path d="M89.6878 29.643C89.5776 30.5359 89.3573 31.214 89.0323 31.6773C88.4277 32.5193 87.4388 32.8555 86.0628 32.6832C85.2689 32.5843 84.6162 32.2848 84.1076 31.7847C83.5991 31.2846 83.4126 30.485 83.5482 29.3831L83.6414 28.6259L84.9892 28.7954L84.8959 29.5526C84.8253 30.129 84.8959 30.5782 85.1191 30.9032C85.3395 31.2253 85.7238 31.4202 86.2691 31.4908C87.0348 31.5869 87.5688 31.3863 87.8711 30.8919C88.0547 30.5867 88.2045 29.9877 88.3147 29.0949L89.1962 22.037L90.6174 22.215L89.6907 29.6487L89.6878 29.643Z" fill="#ECECEC"/>
<path d="M102.197 26.9748C102.581 28.0908 102.547 29.3481 102.095 30.7495C101.607 32.2668 100.815 33.4026 99.722 34.1626C98.4393 35.0526 96.9588 35.2278 95.2861 34.691C93.7237 34.1881 92.6613 33.2755 92.0991 31.956C91.6216 30.7043 91.6272 29.317 92.116 27.7941C92.5568 26.421 93.2773 25.353 94.2746 24.5958C95.5545 23.6238 97.052 23.4119 98.767 23.9657C100.561 24.5421 101.703 25.5451 102.194 26.9776L102.197 26.9748ZM98.8998 33.0607C99.722 32.3657 100.315 31.4531 100.677 30.3201C101.061 29.1249 101.058 28.0626 100.669 27.133C100.279 26.2034 99.5412 25.5621 98.4591 25.2145C97.408 24.8755 96.4332 24.9602 95.5376 25.4716C94.6419 25.9802 93.9667 26.938 93.5146 28.3451C93.1529 29.4724 93.1303 30.5122 93.4524 31.4672C93.7745 32.4222 94.5713 33.1059 95.8484 33.5184C97.0605 33.9083 98.0776 33.7558 98.8998 33.0607Z" fill="#ECECEC"/>
<path d="M106.61 27.4313L107.916 28.0868L103.118 37.6198L101.813 36.9643L106.61 27.4285V27.4313Z" fill="#ECECEC"/>
<path d="M111.078 29.6923L112.471 30.6699L111.872 40.7849L116.825 33.727L117.955 34.5209L111.824 43.2571L110.493 42.3247L111.018 32.173L106.071 39.2224L104.941 38.4285L111.072 29.6923H111.078Z" fill="#ECECEC"/>
<path d="M128.662 48.5068C128.351 49.6455 127.614 50.6654 126.45 51.5696C125.192 52.5472 123.898 53.0416 122.567 53.0501C121.005 53.0614 119.686 52.372 118.606 50.9847C117.598 49.6878 117.236 48.3373 117.516 46.9274C117.826 45.6249 118.615 44.4806 119.878 43.5002C121.016 42.6158 122.211 42.1383 123.463 42.0762C125.068 41.9942 126.424 42.6638 127.529 44.0879C128.685 45.5769 129.063 47.0489 128.662 48.5068ZM122.508 51.6741C123.579 51.5639 124.582 51.1429 125.52 50.414C126.512 49.6426 127.108 48.7639 127.311 47.775C127.515 46.7861 127.266 45.8424 126.565 44.944C125.887 44.0709 125.034 43.5934 124.008 43.5086C122.983 43.4239 121.884 43.8336 120.717 44.7405C119.782 45.4667 119.18 46.3143 118.906 47.2862C118.632 48.2582 118.906 49.2725 119.731 50.332C120.513 51.3379 121.437 51.7843 122.508 51.6741Z" fill="#ECECEC"/>
<path d="M132.951 52.8876L126.987 55.7074C126.286 56.0379 125.766 56.4476 125.427 56.9308C124.913 57.6541 124.876 58.4819 125.317 59.4143C125.846 60.5303 126.583 61.1096 127.529 61.1548C128.044 61.1774 128.648 61.022 129.343 60.6942L135.308 57.8744L135.932 59.1939L130.513 61.7566C129.326 62.3188 128.338 62.5901 127.546 62.5703C126.103 62.5336 124.995 61.6972 124.221 60.0613C123.447 58.4254 123.506 57.041 124.393 55.908C124.882 55.2835 125.718 54.693 126.905 54.1308L132.324 51.5681L132.949 52.8876H132.951Z" fill="#ECECEC"/>
<path d="M137.272 63.0994L138.376 67.8235C138.557 68.6005 138.594 69.2701 138.481 69.8295C138.26 70.8919 137.554 71.5615 136.362 71.8412C135.74 71.9881 135.201 71.9768 134.743 71.813C134.285 71.6491 133.884 71.3637 133.536 70.9569C133.466 71.4005 133.322 71.7565 133.101 72.0249C132.881 72.2933 132.471 72.508 131.872 72.6747L130.491 73.0505C130.098 73.1579 129.81 73.2596 129.629 73.3556C129.318 73.5167 129.143 73.7173 129.098 73.9575L128.863 74.0111L128.459 72.2848C128.538 72.217 128.646 72.152 128.778 72.0899C128.914 72.0277 129.182 71.9401 129.584 71.8271L131.296 71.3355C131.968 71.1433 132.367 70.793 132.488 70.2816C132.553 69.9906 132.522 69.5639 132.392 69.0073L131.663 65.8937L127.205 66.9363L126.874 65.5292L137.266 63.0994H137.272ZM133.579 68.7869C133.728 69.4283 133.98 69.9058 134.33 70.2166C134.681 70.5302 135.201 70.6037 135.89 70.4426C136.63 70.2703 137.074 69.8889 137.221 69.304C137.297 68.9904 137.28 68.6005 137.17 68.1314L136.387 64.789L132.836 65.6196L133.576 68.7841L133.579 68.7869Z" fill="#ECECEC"/>
<path d="M139.894 79.9967L139.639 84.2546C139.552 85.7012 138.967 86.7919 137.879 87.5236C136.899 88.1791 135.675 88.4617 134.212 88.3741C133.082 88.3063 132.07 88.035 131.183 87.5604C129.612 86.724 128.88 85.4046 128.99 83.5991L129.245 79.3553L139.899 79.9939L139.894 79.9967ZM130.233 83.407C130.205 83.8845 130.233 84.2801 130.315 84.5937C130.471 85.1531 130.807 85.625 131.321 86.0064C131.734 86.3115 132.273 86.546 132.937 86.7071C133.336 86.8032 133.703 86.8597 134.048 86.8794C135.367 86.9586 136.407 86.7636 137.17 86.2946C137.93 85.8256 138.345 85.0203 138.413 83.8817L138.563 81.3783L130.38 80.8867L130.231 83.4042L130.233 83.407Z" fill="#ECECEC"/>
<path d="M138.628 92.1196L138.331 93.5492L127.883 91.368L128.183 89.9384L138.631 92.1196H138.628Z" fill="#ECECEC"/>
<path d="M130.458 95.3999C129.876 95.2275 129.368 95.1908 128.93 95.2897C128.107 95.4846 127.5 96.1316 127.107 97.2307C126.932 97.7223 126.842 98.197 126.844 98.6519C126.844 99.5363 127.212 100.107 127.941 100.37C128.489 100.565 128.938 100.539 129.288 100.293C129.636 100.039 130.023 99.5843 130.45 98.9288L131.23 97.7195C131.738 96.9312 132.179 96.4 132.549 96.1288C133.19 95.6598 133.928 95.5778 134.761 95.8773C135.665 96.2023 136.295 96.7702 136.657 97.5867C137.019 98.4033 136.999 99.3667 136.598 100.48C136.231 101.506 135.663 102.285 134.897 102.819C134.131 103.353 133.19 103.421 132.074 103.02L132.532 101.74C133.094 101.867 133.558 101.876 133.919 101.766C134.586 101.556 135.092 100.974 135.434 100.022C135.711 99.2537 135.739 98.6406 135.521 98.1829C135.304 97.7252 134.973 97.4172 134.527 97.2561C134.035 97.0781 133.603 97.1488 133.233 97.4652C132.993 97.6743 132.6 98.197 132.052 99.039L131.241 100.288C130.851 100.89 130.455 101.322 130.057 101.585C129.365 102.034 128.574 102.099 127.678 101.78C126.565 101.381 125.912 100.7 125.717 99.7397C125.522 98.7791 125.61 97.776 125.986 96.7306C126.423 95.5129 127.085 94.6737 127.969 94.2132C128.851 93.7498 129.831 93.7215 130.91 94.1256L130.453 95.4055L130.458 95.3999Z" fill="#ECECEC"/>
<path d="M128.735 113.773C127.743 114.03 126.839 113.959 126.022 113.558L126.757 112.354C127.427 112.578 128.054 112.595 128.642 112.405C129.229 112.216 129.744 111.758 130.184 111.035C130.721 110.153 130.84 109.249 130.54 108.323C130.241 107.396 129.438 106.534 128.136 105.74C127.068 105.087 126.054 104.805 125.09 104.89C124.127 104.974 123.35 105.5 122.756 106.472C122.211 107.365 122.146 108.26 122.559 109.153C122.776 109.625 123.146 110.105 123.672 110.594L122.937 111.798C122.041 111.106 121.454 110.264 121.168 109.272C120.824 108.08 121.021 106.876 121.762 105.664C122.4 104.618 123.256 103.935 124.333 103.615C125.751 103.197 127.348 103.528 129.119 104.61C130.464 105.429 131.351 106.455 131.784 107.684C132.255 109.015 132.083 110.348 131.266 111.685C130.571 112.826 129.727 113.524 128.735 113.784V113.773Z" fill="#ECECEC"/>
<path d="M119.272 123.497C118.102 123.353 116.984 122.768 115.924 121.748C114.774 120.644 114.102 119.434 113.901 118.12C113.667 116.578 114.155 115.171 115.376 113.905C116.515 112.721 117.8 112.167 119.233 112.241C120.566 112.362 121.812 112.975 122.962 114.083C124.002 115.083 124.646 116.199 124.889 117.425C125.2 119.002 124.734 120.44 123.485 121.74C122.18 123.099 120.775 123.684 119.275 123.497H119.272ZM115.252 117.863C115.517 118.906 116.077 119.841 116.933 120.663C117.837 121.534 118.795 121.997 119.801 122.056C120.806 122.116 121.705 121.731 122.493 120.912C123.259 120.115 123.609 119.203 123.547 118.174C123.485 117.146 122.92 116.12 121.852 115.094C120.999 114.275 120.072 113.798 119.074 113.668C118.074 113.535 117.111 113.953 116.178 114.922C115.297 115.84 114.986 116.821 115.252 117.866V117.863Z" fill="#ECECEC"/>
<path d="M116.727 127.593L112.69 130.283C112.026 130.726 111.41 130.992 110.848 131.082C109.777 131.249 108.901 130.822 108.22 129.802C107.867 129.271 107.686 128.763 107.68 128.277C107.675 127.791 107.802 127.316 108.059 126.847C107.618 126.937 107.234 126.926 106.906 126.813C106.579 126.7 106.231 126.392 105.869 125.889L105.033 124.725C104.796 124.395 104.601 124.16 104.445 124.024C104.185 123.79 103.934 123.694 103.697 123.739L103.564 123.538L105.039 122.555C105.129 122.606 105.228 122.682 105.333 122.787C105.437 122.891 105.612 123.112 105.861 123.448L106.92 124.881C107.336 125.443 107.802 125.691 108.328 125.629C108.624 125.59 109.011 125.412 109.489 125.092L112.15 123.321L109.613 119.512L110.817 118.71L116.733 127.593H116.727ZM110.108 126.127C109.559 126.491 109.201 126.895 109.031 127.333C108.862 127.771 108.972 128.285 109.364 128.873C109.785 129.506 110.297 129.788 110.896 129.72C111.215 129.681 111.577 129.531 111.975 129.263L114.834 127.358L112.814 124.321L110.108 126.124V126.127Z" fill="#ECECEC"/>
<path d="M106.2 134.082L102.233 135.65C100.885 136.181 99.6504 136.11 98.5259 135.435C97.5172 134.822 96.7459 133.833 96.2062 132.469C95.7909 131.415 95.6101 130.383 95.6638 129.378C95.7598 127.6 96.647 126.38 98.3253 125.716L102.281 124.153L106.203 134.079L106.2 134.082ZM99.0288 126.767C98.5852 126.942 98.2377 127.134 97.9891 127.343C97.5483 127.722 97.2629 128.225 97.133 128.852C97.0313 129.355 97.0482 129.943 97.181 130.615C97.2629 131.016 97.3675 131.375 97.4918 131.694C97.9778 132.923 98.5937 133.785 99.3396 134.277C100.086 134.768 100.99 134.805 102.052 134.384L104.383 133.463L101.371 125.84L99.026 126.767H99.0288Z" fill="#ECECEC"/>
</g>
<path d="M100.741 61.8349C97.0359 60.095 93.0624 58.8132 88.9079 58.079C88.8323 58.0648 88.7566 58.1003 88.7177 58.1711C88.2067 59.1012 87.6407 60.3146 87.2443 61.2683C82.7758 60.5837 78.3303 60.5837 73.9535 61.2683C73.5571 60.2933 72.9704 59.1012 72.4571 58.1711C72.4182 58.1026 72.3426 58.0672 72.2669 58.079C68.1147 58.8108 64.1413 60.0927 60.4336 61.8349C60.4015 61.849 60.374 61.8726 60.3557 61.9033C52.8189 73.4258 50.7543 84.665 51.7671 95.765C51.7717 95.8193 51.8015 95.8712 51.8427 95.9043C56.8153 99.6412 61.6321 101.91 66.3594 103.414C66.4351 103.437 66.5153 103.409 66.5634 103.345C67.6816 101.782 68.6784 100.135 69.5332 98.4019C69.5836 98.3003 69.5355 98.18 69.4323 98.1398C67.8512 97.526 66.3457 96.7777 64.8975 95.9279C64.7829 95.8594 64.7737 95.6918 64.8791 95.6115C65.1839 95.3778 65.4887 95.1347 65.7797 94.8892C65.8324 94.8443 65.9057 94.8349 65.9676 94.8632C75.4819 99.3084 85.7823 99.3084 95.1843 94.8632C95.2462 94.8325 95.3195 94.8419 95.3745 94.8868C95.6655 95.1323 95.9703 95.3778 96.2774 95.6115C96.3828 95.6918 96.3759 95.8594 96.2613 95.9279C94.8131 96.7942 93.3076 97.526 91.7242 98.1375C91.621 98.1776 91.5752 98.3003 91.6256 98.4019C92.4987 100.132 93.4955 101.78 94.5931 103.343C94.639 103.409 94.7214 103.437 94.7971 103.414C99.5474 101.91 104.364 99.6412 109.337 95.9043C109.38 95.8712 109.408 95.8216 109.412 95.7673C110.625 82.9347 107.382 71.7875 100.817 61.9057C100.801 61.8726 100.773 61.849 100.741 61.8349ZM70.9539 89.0063C68.0895 89.0063 65.7293 86.3151 65.7293 83.0102C65.7293 79.7052 68.0437 77.0141 70.9539 77.0141C73.887 77.0141 76.2244 79.7288 76.1786 83.0102C76.1786 86.3151 73.8641 89.0063 70.9539 89.0063ZM90.2713 89.0063C87.4069 89.0063 85.0467 86.3151 85.0467 83.0102C85.0467 79.7052 87.3611 77.0141 90.2713 77.0141C93.2045 77.0141 95.5418 79.7288 95.496 83.0102C95.496 86.3151 93.2045 89.0063 90.2713 89.0063Z" fill="#69C1ED"/>
<defs>
<clipPath id="clip0_132_6967">
<rect width="118.597" height="117.105" fill="white" transform="translate(21.2966 22.0302)"/>
</clipPath>
</defs>
</svg>
