<svg width="237" height="243" viewBox="0 0 237 243" fill="none" xmlns="http://www.w3.org/2000/svg">
<g id="Group 35972">
<path id="Vector" d="M38.0829 166.589C37.7664 163.578 37.8755 160.481 38.4681 157.511C40.5068 147.184 48.0637 140.074 57.6365 136.404C60.0525 135.5 62.5967 134.932 65.1232 134.43C62.2391 128.524 59.1598 122.633 55.2707 117.315L55.2813 117.322C50.6006 111.088 44.1872 105.706 37.1017 102.412C35.6694 101.823 35.155 100.058 35.953 98.7528C36.0367 98.5802 36.1503 98.3676 36.2374 98.1972C36.6301 97.4452 37.0523 96.6774 37.4696 95.9408C38.8391 93.5357 40.3259 91.1698 41.8677 88.8725C45.3151 83.7672 49.1537 78.8971 53.3098 74.3483C66.7521 59.5848 83.3535 48.4831 102.804 43.4759C119.877 38.936 137.962 38.6257 155.315 41.7415C158.788 42.3708 162.258 43.1451 165.659 44.0917C166.691 44.3813 167.738 44.6947 168.759 45.026C168.971 45.0948 169.215 45.1743 169.424 45.2466C171.111 45.672 172.05 47.4392 171.23 49.0292C170.28 51.1154 169.702 53.3602 169.235 55.5973C168.436 59.5925 168.152 63.6952 168.216 67.7662C168.378 72.4074 169.328 76.9942 170.193 81.5431C171.915 90.0867 174.011 98.6105 176.152 107.055C178.515 107.463 182.574 108.133 184.133 110.043C185.036 111.259 184.934 113.235 184.113 114.468C182.954 116.217 180.816 116.972 178.848 117.387C179.304 119.097 179.768 120.826 180.232 122.53C184.511 121.756 188.801 120.877 192.941 119.527L192.937 119.525C196.081 118.491 199.155 117.07 201.76 115.004C202.688 114.273 203.561 113.45 204.388 112.614C205.188 111.813 205.973 110.974 206.886 110.299C208.519 109.067 210.873 108.496 212.727 109.569C214.609 110.675 215.329 112.956 215.526 115.016C215.676 116.685 215.605 118.524 215.314 120.357C214.111 121.825 212.832 123.225 211.362 124.447C209.74 125.794 207.996 126.976 206.177 128.043C206.208 128.009 206.24 127.975 206.271 127.941C206.194 127.985 206.113 128.028 206.036 128.073C205.773 128.221 205.505 128.366 205.231 128.507C203.825 129.236 202.311 129.887 200.895 130.498C200.884 130.5 200.874 130.509 200.862 130.511C200 130.881 199.088 131.274 198.174 131.655C197.426 131.965 196.68 132.265 195.957 132.536C191.658 134.164 187.204 135.375 182.687 136.264C182.063 136.386 181.434 136.506 180.807 136.617C180.795 136.62 180.784 136.622 180.773 136.625C179.258 136.894 177.74 137.122 176.218 137.324C176.009 137.354 175.795 137.382 175.588 137.408C173.018 137.736 170.43 137.984 167.835 138.173C161.858 138.612 155.842 138.753 149.881 138.932C149.414 138.943 148.709 138.966 147.998 138.991C147.288 139.015 146.58 139.037 146.114 139.053C146.114 139.053 146.114 139.053 146.111 139.051C145.913 139.069 145.608 139.064 145.294 139.073C144.993 139.085 144.685 139.107 144.455 139.178C144.432 139.183 144.413 139.191 144.393 139.198C144.391 139.202 144.382 139.201 144.376 139.202C144.345 139.212 144.318 139.225 144.292 139.243C143.471 139.506 142.65 139.77 141.828 140.028C141.365 140.173 140.905 140.32 140.44 140.469C140.373 140.491 140.305 140.512 140.238 140.534C139.686 140.711 139.131 140.887 138.582 141.067C138.286 141.165 137.99 141.263 137.69 141.359C137.295 141.489 136.903 141.615 136.516 141.749C136.51 141.75 136.502 141.755 136.496 141.756C136.491 141.758 136.483 141.762 136.477 141.764C135.976 141.93 135.48 142.098 134.98 142.269C134.905 142.296 134.83 142.322 134.755 142.348C134.323 142.499 133.891 142.649 133.457 142.803C133.324 142.851 133.187 142.898 133.052 142.95C132.679 143.083 132.305 143.22 131.93 143.358C131.744 143.427 131.559 143.497 131.37 143.564C131.049 143.686 130.724 143.806 130.403 143.927C130.171 144.017 129.939 144.106 129.706 144.196C129.43 144.301 129.153 144.407 128.878 144.518C128.605 144.626 128.337 144.732 128.068 144.842C127.831 144.939 127.593 145.029 127.357 145.126C127.054 145.249 126.749 145.376 126.447 145.5C126.243 145.583 126.037 145.669 125.837 145.754C125.508 145.89 125.179 146.032 124.851 146.173C124.672 146.247 124.497 146.323 124.316 146.401C123.966 146.554 123.616 146.706 123.266 146.859C123.11 146.927 122.955 146.996 122.801 147.062C122.435 147.224 122.071 147.392 121.705 147.554C121.566 147.619 121.426 147.678 121.288 147.743C120.912 147.913 120.537 148.089 120.162 148.266C120.038 148.324 119.907 148.384 119.782 148.443C119.402 148.621 119.022 148.804 118.643 148.987C118.522 149.048 118.399 149.103 118.28 149.161C117.901 149.344 117.52 149.531 117.142 149.72C117.023 149.777 116.901 149.838 116.782 149.896C116.404 150.085 116.032 150.272 115.658 150.463C115.537 150.524 115.415 150.585 115.294 150.646C114.925 150.836 114.557 151.026 114.192 151.218C114.066 151.286 113.939 151.348 113.813 151.416C113.456 151.604 113.102 151.793 112.747 151.986C112.609 152.056 112.473 152.133 112.336 152.203C111.996 152.387 111.654 152.574 111.315 152.763C111.166 152.845 111.018 152.924 110.869 153.006C110.546 153.186 110.223 153.365 109.904 153.547C109.739 153.639 109.573 153.731 109.408 153.823C109.104 153.995 108.807 154.165 108.507 154.34C108.323 154.445 108.14 154.55 107.956 154.655C107.68 154.815 107.405 154.98 107.129 155.14C106.925 155.262 106.718 155.382 106.515 155.504C106.266 155.651 106.02 155.801 105.773 155.954C105.543 156.094 105.31 156.231 105.08 156.371C104.861 156.503 104.643 156.64 104.427 156.774C104.171 156.932 103.91 157.091 103.658 157.251C103.471 157.369 103.285 157.487 103.098 157.605C102.815 157.785 102.531 157.964 102.245 158.147C102.09 158.246 101.933 158.348 101.782 158.449C101.47 158.65 101.156 158.854 100.844 159.055C100.727 159.133 100.607 159.215 100.486 159.291C100.142 159.52 99.7939 159.747 99.453 159.979C99.3694 160.034 99.2894 160.092 99.2058 160.147C98.8275 160.399 98.4506 160.657 98.0758 160.912C98.0318 160.943 97.9821 160.975 97.9359 161.01C97.5251 161.291 97.1156 161.577 96.7083 161.86C96.6982 161.869 96.688 161.877 96.6744 161.883C94.8762 163.144 93.1079 164.443 91.3638 165.782C90.9235 166.118 90.4866 166.456 90.0512 166.799C90.0468 166.806 90.0388 166.811 90.0331 166.813C88.4636 168.021 86.9182 169.269 85.3803 170.537C85.2893 170.612 85.1982 170.687 85.105 170.765C85.0117 170.844 84.9127 170.924 84.8194 171.002C82.9468 172.554 81.0921 174.132 79.2383 175.701C78.9647 175.872 75.1001 179.752 74.1488 179.083C73.6719 179.469 73.214 179.872 72.7683 180.302C69.9042 183.077 67.483 186.247 65.0745 189.42C64.3238 190.408 63.5765 191.398 62.8174 192.375C62.5089 192.774 62.1992 193.167 61.8858 193.557C59.5244 192.592 57.2391 191.435 55.0595 190.069C48.0105 185.639 41.7404 178.958 38.9682 171.013C38.4729 169.593 38.2392 168.067 38.0768 166.576L38.0829 166.589Z" fill="#939393"/>
<g id="Group">
<path id="Vector_2" d="M69.465 137.502C70.001 137.412 70.5405 137.324 71.0778 137.24C71.6151 137.156 72.1524 137.072 72.691 136.993C78.1735 136.196 83.7411 135.598 89.2541 135.064C106.962 133.403 124.825 132.337 142.573 130.906C144.337 130.763 146.1 130.62 147.863 130.472C151.325 130.18 154.795 129.868 158.265 129.532C163.015 129.068 167.761 128.548 172.482 127.934C173.025 127.864 173.572 127.795 174.118 127.721C176.737 127.361 179.365 126.972 181.981 126.522C185.203 125.966 188.405 125.316 191.559 124.493C191.559 124.493 191.564 124.492 191.57 124.49C191.828 124.422 192.086 124.354 192.341 124.283C192.358 124.279 192.375 124.276 192.389 124.269C192.649 124.198 192.912 124.122 193.169 124.048C193.18 124.046 193.186 124.044 193.197 124.042C193.989 123.809 194.783 123.558 195.562 123.283C195.585 123.277 195.606 123.266 195.629 123.261C195.874 123.175 196.121 123.085 196.365 122.993C196.39 122.984 196.415 122.976 196.442 122.963C196.68 122.873 196.918 122.782 197.158 122.688C197.17 122.685 197.178 122.68 197.191 122.674C197.42 122.583 197.645 122.489 197.87 122.395C197.923 122.374 197.977 122.349 198.03 122.328C198.241 122.241 198.451 122.147 198.658 122.052C198.72 122.022 198.786 121.995 198.849 121.966C199.053 121.874 199.254 121.78 199.455 121.685C199.512 121.657 199.569 121.629 199.623 121.605C199.791 121.524 199.962 121.44 200.128 121.353C200.193 121.321 200.258 121.288 200.324 121.251C200.518 121.153 200.709 121.052 200.898 120.945C200.97 120.908 201.04 120.868 201.109 120.828C201.301 120.723 201.493 120.613 201.678 120.504C201.734 120.471 201.793 120.439 201.848 120.405C202.026 120.301 202.2 120.195 202.376 120.086C202.414 120.065 202.447 120.042 202.487 120.018C202.689 119.89 202.894 119.759 203.095 119.626C203.137 119.598 203.178 119.571 203.218 119.546C203.427 119.408 203.629 119.266 203.833 119.12C203.843 119.111 203.851 119.106 203.861 119.098C202.434 123.252 198.892 126.719 195.843 129.32C179.718 135.661 162.116 135.574 144.944 135.967C144.933 135.97 144.92 135.967 144.909 135.969C144.63 135.976 144.358 135.981 144.079 135.988C144.04 135.988 144.005 135.99 143.966 135.99C143.711 135.997 143.46 136.001 143.205 136.008C143.146 136.01 143.092 136.01 143.032 136.012C142.793 136.019 142.553 136.025 142.314 136.032C142.245 136.033 142.174 136.037 142.105 136.038C141.872 136.043 141.642 136.051 141.412 136.059C141.337 136.061 141.262 136.063 141.187 136.065C140.957 136.073 140.728 136.08 140.494 136.086C140.419 136.088 140.345 136.09 140.27 136.092C139.965 136.102 139.664 136.114 139.362 136.12C129.367 136.503 119.338 136.61 109.331 136.912C105.04 137.042 100.747 137.205 96.4664 137.444C96.4571 137.443 96.4457 137.446 96.4365 137.445C96.0689 137.469 95.6978 137.491 95.3281 137.519C95.2305 137.526 95.1351 137.53 95.041 137.54C94.6585 137.564 94.2738 137.592 93.8948 137.619C93.8535 137.623 93.8086 137.624 93.7673 137.627C93.409 137.652 93.0541 137.68 92.6936 137.708C92.6167 137.714 92.5455 137.718 92.4685 137.724C92.0781 137.753 91.6855 137.786 91.2929 137.819C91.2423 137.821 91.1953 137.826 91.1425 137.832C90.7705 137.864 90.4021 137.897 90.0301 137.928C89.9831 137.933 89.9325 137.935 89.8855 137.94C89.4849 137.978 89.0844 138.016 88.6839 138.053C88.6311 138.06 88.5805 138.062 88.5278 138.068C88.1308 138.108 87.7337 138.148 87.3345 138.192C87.3253 138.191 87.3174 138.195 87.3081 138.195C86.8997 138.237 86.489 138.283 86.0819 138.332C86.0326 138.34 85.9821 138.342 85.9328 138.351C85.1128 138.449 84.2942 138.552 83.4781 138.667C83.4346 138.674 83.3875 138.679 83.344 138.686C82.5222 138.802 81.6996 138.928 80.8795 139.065C80.8417 139.07 80.8074 139.078 80.7696 139.084C80.355 139.152 79.9417 139.226 79.5262 139.303C79.5204 139.304 79.509 139.307 79.5033 139.308C79.0935 139.384 78.6872 139.463 78.2787 139.544C78.2559 139.549 78.233 139.555 78.2101 139.56C77.8016 139.642 77.391 139.727 76.9838 139.814C76.9552 139.821 76.9266 139.827 76.8945 139.832C76.4874 139.919 76.0815 140.012 75.677 140.111C73.7046 139.673 71.8002 138.994 70.0384 137.993C69.8956 137.908 69.6983 137.731 69.4707 137.5L69.465 137.502Z" fill="url(#paint0_radial_87_34129)"/>
<path id="Vector_3" d="M153.039 111.729C152.337 111.921 145.812 113.67 145.969 114.248C145.99 114.324 149.923 113.774 150.29 113.774C158.207 113.949 166.194 114.109 174.082 114.769C174.082 114.769 174.083 114.775 174.084 114.78C174.673 116.778 175.274 118.774 175.88 120.768C162.306 120.347 146.726 123.214 133.974 127.78C133.974 127.78 133.971 127.778 133.965 127.779C129.456 128.139 124.946 128.479 120.439 128.821C116.041 129.154 111.648 129.484 107.257 129.83C110.789 127.894 114.387 126.058 118.024 124.369C123.221 121.949 128.594 119.748 134.022 117.904C134.303 117.83 134.165 117.411 133.908 117.485C133.591 117.545 132.571 117.782 132.254 117.843C131.277 118.058 129.932 118.37 128.959 118.602C124.983 119.565 120.954 120.73 117.108 122.127C111.511 124.164 106.027 126.761 101.059 130.058C100.848 130.145 100.669 130.258 100.523 130.382C99.7 130.454 98.8757 130.519 98.0526 130.591C99.5708 129.277 101.163 128.063 102.815 126.926C103.055 126.763 103.294 126.599 103.531 126.44C104.136 126.036 104.748 125.637 105.367 125.251C108.479 123.307 111.734 121.588 115.014 119.969C117.577 118.737 120.168 117.547 122.801 116.447C123.981 115.953 125.169 115.479 126.365 115.03C128.683 114.158 131.035 113.381 133.425 112.73C133.782 112.636 134.14 112.542 134.497 112.448C134.62 112.417 134.742 112.386 134.864 112.355C135.103 112.294 135.336 112.235 135.575 112.174C135.72 112.138 135.865 112.101 136.01 112.065C136.224 112.013 136.438 111.961 136.655 111.911C136.809 111.876 136.966 111.837 137.12 111.801C137.326 111.754 137.528 111.705 137.732 111.661C137.895 111.627 138.057 111.586 138.221 111.552C138.419 111.509 138.619 111.464 138.817 111.421C138.986 111.385 139.152 111.347 139.319 111.315C139.511 111.274 139.709 111.232 139.905 111.193C140.074 111.157 140.247 111.123 140.416 111.087C140.608 111.046 140.802 111.011 140.992 110.973C141.164 110.94 141.337 110.906 141.51 110.872C141.7 110.835 141.888 110.801 142.075 110.767C142.252 110.735 142.43 110.7 142.607 110.669C142.789 110.636 142.976 110.602 143.158 110.569C143.34 110.537 143.522 110.504 143.702 110.475C143.876 110.447 144.053 110.415 144.227 110.388C144.992 110.26 145.753 110.14 146.522 110.03C146.658 110.007 146.796 109.991 146.932 109.968C147.153 109.936 147.372 109.907 147.597 109.876C147.74 109.858 147.882 109.835 148.025 109.817C148.244 109.788 148.467 109.761 148.686 109.732C148.829 109.714 148.972 109.696 149.116 109.678C149.338 109.651 149.561 109.624 149.783 109.597C149.924 109.583 150.064 109.563 150.205 109.548C150.431 109.524 150.657 109.499 150.887 109.476C151.022 109.463 151.154 109.448 151.292 109.431C151.523 109.405 151.756 109.385 151.992 109.361C152.118 109.347 152.245 109.339 152.372 109.325C152.61 109.303 152.855 109.28 153.093 109.259C153.208 109.248 153.321 109.24 153.436 109.228C153.689 109.206 153.943 109.184 154.194 109.166C154.286 109.16 154.378 109.154 154.472 109.144C154.75 109.122 155.026 109.104 155.304 109.083C155.339 109.08 155.381 109.077 155.416 109.075C157.108 108.96 158.796 108.883 160.49 108.843C160.541 108.841 160.595 108.84 160.645 108.838C160.939 108.831 161.235 108.826 161.526 108.822C161.596 108.821 161.665 108.821 161.734 108.82C162.021 108.814 162.306 108.812 162.595 108.812C162.67 108.81 162.748 108.81 162.821 108.811C163.106 108.809 163.389 108.81 163.672 108.811C163.747 108.809 163.823 108.813 163.898 108.811C164.187 108.811 164.473 108.814 164.764 108.82C164.827 108.82 164.894 108.823 164.957 108.823C165.256 108.83 165.554 108.831 165.854 108.837C165.902 108.838 165.945 108.84 165.993 108.841C166.311 108.85 166.631 108.854 166.95 108.869C161.323 109.585 155.717 111.049 153.038 111.724L153.039 111.729Z" fill="url(#paint1_radial_87_34129)"/>
<path id="Vector_4" d="M181.848 111.435C181.848 111.435 181.866 111.446 181.876 111.452C181.944 111.5 182.01 111.551 182.07 111.603L182.074 111.605L182.073 111.59C182.115 111.719 182.144 111.844 182.162 111.963C182.068 111.778 181.962 111.604 181.848 111.435Z" fill="url(#paint2_radial_87_34129)"/>
<path id="Vector_5" d="M163.25 68.4276C163.332 69.814 163.482 71.1995 163.676 72.5781C163.735 73.0068 163.8 73.4341 163.868 73.8579C164.153 75.6607 164.497 77.4562 164.847 79.2411C165.001 79.9881 165.162 80.7394 165.325 81.4873C165.363 81.668 165.404 81.8452 165.443 82.0259C165.599 82.7451 165.758 83.4609 165.922 84.1753C165.927 84.1982 165.932 84.221 165.938 84.2439C166.117 85.0362 166.298 85.8249 166.486 86.6123C166.505 86.6981 166.526 86.7895 166.546 86.8752C166.731 87.6512 166.915 88.4272 167.105 89.2019C162.764 100.087 150.026 103.942 139.798 107.824C137.554 108.615 135.263 109.406 132.936 110.174C132.466 110.3 131.996 110.432 131.529 110.569C131.492 110.581 131.456 110.592 131.419 110.603C131.041 110.714 130.664 110.825 130.287 110.941C130.203 110.967 130.122 110.994 130.037 111.02C129.695 111.128 129.35 111.235 129.009 111.349C128.959 111.366 128.905 111.382 128.855 111.399C128.474 111.523 128.095 111.652 127.715 111.781C127.698 111.785 127.684 111.791 127.665 111.799C127.252 111.941 126.844 112.086 126.432 112.235C104.374 118.92 79.6218 123.053 58.5928 114.396C58.4799 114.233 58.367 114.069 58.2542 113.905C55.9756 110.776 53.3372 107.9 50.4204 105.344C50.2657 105.208 50.1124 105.078 49.9577 104.942C49.5684 104.61 49.177 104.282 48.7754 103.962C48.6022 103.824 48.4291 103.686 48.256 103.548C47.8781 103.253 47.4946 102.959 47.1101 102.674C46.922 102.537 46.7361 102.396 46.5459 102.262C46.3802 102.143 46.2111 102.023 46.0454 101.904C45.3735 101.43 44.6942 100.975 44.0025 100.532C43.9533 100.501 43.9041 100.47 43.8549 100.439C43.0907 99.9557 42.3155 99.4898 41.5271 99.0448C43.5604 95.5878 45.7584 92.2193 48.1124 88.9535C49.4608 87.0977 50.8563 85.2762 52.2965 83.4926C55.0349 80.1055 57.9521 76.8548 61.041 73.7753C61.1462 73.67 61.2513 73.5646 61.3565 73.4593C61.4572 73.3609 61.558 73.2626 61.6587 73.1643C65.6729 69.2407 69.9704 65.6072 74.534 62.3458C74.5384 62.3388 74.5463 62.3339 74.552 62.3326C83.4533 55.952 93.5372 51.2466 104.134 48.4814C109.74 46.9935 115.494 45.9743 121.312 45.4066C130.31 44.5216 139.456 44.7127 148.43 45.8969C154.239 46.664 159.973 47.8486 165.549 49.4335C165.427 49.8166 165.306 50.1962 165.197 50.5824C165 51.2564 164.821 51.9322 164.655 52.611C164.327 53.971 164.063 55.3464 163.855 56.7328C163.75 57.425 163.66 58.1224 163.582 58.8172C163.451 60.0117 163.356 61.2097 163.299 62.4113C163.2 64.4137 163.195 66.4215 163.265 68.4122L163.25 68.4276Z" fill="url(#paint3_radial_87_34129)"/>
<path id="Vector_6" d="M64.415 189.193C64.251 189.134 64.0836 189.073 63.9218 189.011C63.7904 188.963 63.6612 188.911 63.532 188.86C63.3865 188.803 63.241 188.746 63.092 188.687C62.943 188.628 62.7962 188.565 62.6494 188.503C62.5224 188.448 62.3932 188.396 62.2662 188.341C62.0996 188.271 61.9352 188.197 61.7709 188.124C61.6636 188.076 61.5564 188.028 61.4456 187.979C61.2602 187.892 61.0782 187.807 60.8928 187.72C60.8053 187.68 60.7178 187.64 60.6326 187.596C60.426 187.496 60.2217 187.393 60.0173 187.289C59.9532 187.259 59.8912 187.225 59.8235 187.192C59.5981 187.076 59.3726 186.959 59.1494 186.839C59.1072 186.812 59.0641 186.795 59.0197 186.772C58.7754 186.639 58.5275 186.503 58.2854 186.366C58.2643 186.353 58.2432 186.34 58.2221 186.326C57.1586 185.719 56.1097 185.057 55.0867 184.338C55.0867 184.338 55.0832 184.336 55.0819 184.33C54.7778 183.597 54.5256 182.827 54.2689 182.065C54.1733 181.78 54.0777 181.495 53.9763 181.211C53.9013 181.003 53.8285 180.791 53.7477 180.584C53.6955 180.448 53.6468 180.315 53.5946 180.179C52.0268 175.993 50.9214 171.514 51.4197 167.022C51.5087 166.115 51.6619 165.237 51.8709 164.38C51.941 164.096 52.0147 163.814 52.0975 163.533C52.1425 163.376 52.1932 163.217 52.2438 163.058C52.302 162.879 52.3602 162.7 52.4254 162.526C52.4989 162.322 52.5703 162.122 52.6509 161.923C52.7399 161.695 52.8324 161.469 52.9319 161.248C52.9535 161.198 52.9786 161.15 53.0001 161.1C53.0922 160.898 53.1829 160.691 53.2841 160.49C53.3233 160.412 53.3638 160.34 53.403 160.261C53.4902 160.091 53.5738 159.918 53.6645 159.75C53.7235 159.64 53.786 159.533 53.8485 159.425C53.9229 159.291 53.9951 159.16 54.0731 159.028C54.1589 158.891 54.2425 158.757 54.3283 158.62C54.39 158.522 54.4516 158.423 54.5132 158.325C54.6056 158.177 54.7108 158.033 54.8068 157.888C54.8596 157.803 54.9181 157.718 54.9745 157.635C55.0849 157.475 55.2024 157.318 55.3199 157.162C55.3688 157.1 55.4128 157.029 55.4616 156.967C55.5914 156.799 55.7235 156.627 55.8568 156.461C55.8968 156.413 55.9334 156.362 55.9734 156.314C56.1147 156.143 56.2559 155.973 56.4042 155.806C56.4398 155.765 56.4755 155.724 56.5111 155.682C56.6616 155.512 56.8143 155.339 56.9718 155.173C57.0052 155.136 57.0387 155.098 57.0699 155.064C57.2318 154.891 57.3994 154.717 57.5649 154.547C57.5939 154.516 57.6208 154.489 57.6498 154.458C57.8209 154.287 57.9956 154.117 58.1703 153.948C58.1949 153.924 58.2217 153.897 58.2464 153.873C58.4188 153.707 58.5983 153.546 58.7778 153.384C58.8082 153.359 58.835 153.332 58.8676 153.303C59.047 153.142 59.2279 152.986 59.4144 152.829C59.4447 152.804 59.4716 152.777 59.5041 152.748C59.6928 152.588 59.8829 152.433 60.0764 152.28C60.1046 152.258 60.1292 152.235 60.1574 152.213C60.3408 152.069 60.5242 151.924 60.7112 151.782C60.7495 151.752 60.7877 151.723 60.826 151.693C61.0108 151.554 61.1933 151.419 61.3794 151.286C61.4234 151.255 61.4638 151.221 61.51 151.187C61.704 151.049 61.8958 150.915 62.0933 150.779C62.1294 150.753 62.1711 150.725 62.2072 150.699C62.4025 150.567 62.5978 150.435 62.7944 150.308C62.8362 150.281 62.8723 150.254 62.9141 150.227C63.1107 150.101 63.3073 149.974 63.5074 149.85C63.5492 149.822 63.591 149.795 63.6341 149.773C63.8263 149.654 64.0277 149.535 64.2235 149.418C64.271 149.389 64.3185 149.36 64.366 149.331C64.5674 149.213 64.7724 149.096 64.9773 148.98C65.0204 148.958 65.0622 148.931 65.1053 148.909C65.3138 148.795 65.5222 148.681 65.7285 148.57C65.7716 148.548 65.809 148.528 65.8486 148.504C66.0707 148.383 66.2976 148.271 66.521 148.157C66.5483 148.144 66.5721 148.13 66.6015 148.114C66.8364 147.997 67.0712 147.88 67.3096 147.765C67.3254 147.756 67.3448 147.748 67.3606 147.738C67.6126 147.617 67.8681 147.499 68.1215 147.383C68.4258 147.241 68.7314 147.105 69.0384 146.974C69.1725 146.917 69.3137 146.863 69.45 146.802C69.6229 146.729 69.7957 146.656 69.9663 146.587C70.129 146.523 70.2896 146.462 70.4523 146.397C70.6014 146.339 70.7561 146.279 70.9052 146.221C71.1854 146.118 71.469 146.017 71.7526 145.915C71.7856 145.902 71.8221 145.89 71.8551 145.877C72.1695 145.766 72.4853 145.66 72.8045 145.557C72.8045 145.557 72.8045 145.557 72.8102 145.555C73.3837 145.367 73.9575 145.193 74.5362 145.027C74.7508 144.966 74.9597 144.906 75.1743 144.845C75.3523 144.795 75.5304 144.745 75.7085 144.695C75.8387 144.659 75.9702 144.629 76.0981 144.597C77.124 144.334 78.1516 144.092 79.1867 143.87C80.446 143.602 81.7106 143.357 82.9782 143.138C83.1053 143.115 83.2359 143.094 83.3629 143.071C85.8287 142.659 88.3121 142.336 90.805 142.068C90.8578 142.062 90.9105 142.055 90.9611 142.053C91.9064 141.95 92.8508 141.857 93.8 141.772C94.3303 141.722 94.8583 141.676 95.3899 141.633C96.9775 141.497 98.5678 141.373 100.154 141.256C102.967 141.061 105.791 140.898 108.614 140.743C115.831 140.357 123.068 140.081 130.269 139.744C129.881 139.863 129.494 139.987 129.104 140.11C128.989 140.145 128.877 140.183 128.76 140.222C128.497 140.307 128.231 140.395 127.965 140.483C127.815 140.535 127.663 140.582 127.513 140.635C127.332 140.697 127.153 140.756 126.971 140.819C119.805 143.282 112.894 146.462 106.329 150.245C105.994 150.437 105.662 150.63 105.332 150.829C98.2346 154.994 91.5217 159.874 85.4956 165.306C82.4671 168.007 79.5849 170.874 76.9409 173.938C76.7671 174.138 76.5898 174.335 76.416 174.534C76.2145 174.77 76.0076 175.022 75.7977 175.287C75.7744 175.316 75.7476 175.343 75.722 175.376C75.5988 175.534 75.4281 175.76 75.2441 176.007C75.2199 176.045 75.1909 176.076 75.1689 176.111C75.0958 176.212 75.0206 176.317 74.9453 176.421C74.9343 176.439 74.9255 176.453 74.9145 176.47C74.7442 176.711 74.5862 176.94 74.4704 177.117C74.433 177.176 74.3956 177.236 74.3547 177.294C74.2763 177.411 74.0946 177.654 74.0189 177.783C74.0145 177.79 74.0101 177.797 74.0057 177.804C73.9837 177.839 73.9617 177.874 73.9467 177.914C73.8172 178.175 73.6784 178.631 74.1305 179.066C74.1375 179.07 74.141 179.073 74.1481 179.077C73.6712 179.463 73.2133 179.866 72.7676 180.296C69.9035 183.072 67.4823 186.242 65.0738 189.415C64.9657 189.376 64.8518 189.339 64.7437 189.301C64.6321 189.26 64.5169 189.217 64.4053 189.177L64.415 189.193Z" fill="#272735"/>
<path id="Vector_7" d="M167.103 89.2054C167.905 92.4963 168.759 95.7754 169.64 99.0422C168.067 102.655 165.126 104.693 161.143 106.239C159.077 106.285 157.014 106.383 154.956 106.527C147.546 107.066 140.108 108.219 132.934 110.178C135.263 109.406 137.556 108.621 139.795 107.827C150.024 103.946 162.762 100.091 167.103 89.2054Z" fill="#444456"/>
<path id="Vector_8" d="M126.422 112.243C121.987 113.853 117.674 115.809 113.432 117.853C109.362 119.858 105.359 122.067 101.599 124.608C100.137 125.615 98.6833 126.661 97.3086 127.801C88.3491 130.305 74.3752 130.343 65.7873 127.229C63.7124 122.774 61.3785 118.436 58.5805 114.408C79.6061 123.063 104.362 118.932 126.42 112.247L126.422 112.243Z" fill="#444456"/>
<path id="Vector_9" d="M203.863 119.104C204.395 118.723 204.913 118.319 205.417 117.896C206.128 117.309 206.803 116.675 207.467 116.03C207.188 119.602 205.673 122.958 203.649 125.946C203.588 126.006 203.532 126.064 203.474 126.125C201.668 126.961 199.794 127.67 197.985 128.44C197.274 128.748 196.556 129.042 195.841 129.323C198.896 126.721 202.432 123.256 203.859 119.102L203.863 119.104Z" fill="#444456"/>
<path id="Vector_10" d="M44.9943 151.556C47.7773 146.558 52.5099 142.644 58.7154 140.137C59.7687 139.706 60.8742 139.371 61.9726 139.071C64.4373 138.418 66.948 137.926 69.4652 137.502C69.6928 137.733 69.8878 137.913 70.0329 137.994C71.7946 138.995 73.7026 139.677 75.6714 140.113C73.7147 140.58 71.7764 141.127 69.8687 141.781C64.6581 143.629 59.6759 146.34 55.559 150.052C53.9133 151.531 52.4986 153.125 51.3121 154.808C48.9194 154.518 46.5981 153.309 44.9908 151.553L44.9943 151.556Z" fill="#444456"/>
<path id="Vector_11" d="M162.372 111.45C161.966 111.559 156.437 112.478 156.532 112.826C156.676 113.362 167.938 112.207 173.753 113.653C173.862 114.025 173.969 114.395 174.078 114.767C166.192 114.103 158.206 113.944 150.286 113.772C149.919 113.772 145.986 114.322 145.966 114.246C145.809 113.668 152.333 111.918 153.035 111.727C155.711 111.05 161.321 109.589 166.948 108.872C168.024 108.905 169.1 108.953 170.171 109.017C172.952 109.218 179.512 109.795 181.846 111.438C181.962 111.604 182.066 111.782 182.16 111.968C182.164 112.009 182.17 112.047 182.173 112.088C180.694 109.581 165.237 110.682 162.369 111.454L162.372 111.45Z" fill="#B72033"/>
<path id="Vector_12" d="M117.107 122.122C120.953 120.725 124.982 119.56 128.958 118.596C129.933 118.361 131.276 118.052 132.253 117.837C132.57 117.777 133.587 117.543 133.906 117.479C134.169 117.404 134.302 117.824 134.021 117.898C128.592 119.742 123.221 121.949 118.023 124.363C114.385 126.052 110.791 127.891 107.255 129.824C106.652 129.872 106.046 129.918 105.443 129.966C107.18 128.882 108.983 127.825 110.775 126.854C114.145 125.021 117.65 123.357 121.2 121.902C121.467 121.81 121.313 121.4 121.058 121.495C120.328 121.708 119.424 121.993 118.699 122.229C116.479 122.952 114.229 123.802 112.089 124.741C109.069 126.069 106.107 127.648 103.361 129.469C103.029 129.687 102.632 129.962 102.254 130.229C101.675 130.277 101.102 130.324 100.524 130.373C100.67 130.249 100.848 130.136 101.06 130.048C106.028 126.751 111.511 124.154 117.109 122.118L117.107 122.122Z" fill="#B72033"/>
<path id="Vector_13" d="M175.88 120.768C176.047 121.313 176.215 121.858 176.379 122.401C168.56 122.537 158.786 124.223 150.696 126.308C145.128 126.851 139.552 127.33 133.974 127.78C146.724 123.218 162.306 120.347 175.88 120.768Z" fill="#B72033"/>
<path id="Vector_14" d="M44.9945 151.556C46.6018 153.311 48.9231 154.52 51.3158 154.811C46.4585 161.714 45.4943 170.145 48.6777 178.621C46.0429 175.591 43.4708 171.774 42.6204 167.802C41.5262 161.633 42.4377 156.138 44.9909 151.553L44.9945 151.556Z" fill="#353444"/>
<path id="Vector_15" d="M169.64 99.0422C170.314 101.544 171.006 104.042 171.703 106.533C168.194 106.243 164.666 106.161 161.143 106.239C165.126 104.693 168.067 102.655 169.64 99.0422Z" fill="#353444"/>
<path id="Vector_16" d="M97.3142 127.8C96.1441 128.769 95.0275 129.802 94.0116 130.931C85.5554 131.686 77.0562 132.463 68.6709 133.8C67.755 131.597 66.8034 129.397 65.7895 127.226C74.3808 130.342 88.3548 130.304 97.3107 127.798L97.3142 127.8Z" fill="#353444"/>
<path id="Vector_17" d="M207.465 116.033C207.8 115.71 208.133 115.38 208.465 115.055C208.812 114.719 209.188 114.368 209.577 114.083C209.812 113.912 210.081 113.748 210.371 113.7C211.32 115.826 210.636 119.761 209.964 121.952C209.259 122.484 208.579 123.061 207.872 123.597C207.731 123.704 207.587 123.809 207.445 123.911C207.155 124.116 206.86 124.313 206.556 124.494C205.571 125.105 204.538 125.637 203.477 126.127C203.533 126.069 203.591 126.008 203.653 125.949C205.673 122.958 207.188 119.602 207.471 116.032L207.465 116.033Z" fill="#353444"/>
<path id="Vector_18" d="M165.88 111.828C165.593 111.942 163.332 112.355 163.428 112.592C163.434 112.786 163.945 112.666 164.052 112.698C164.916 112.687 166.093 112.636 166.957 112.585C169.074 112.464 171.26 112.326 173.378 112.391C173.5 112.814 173.627 113.236 173.75 113.656C167.933 112.214 156.672 113.369 156.529 112.83C156.437 112.478 161.964 111.562 162.369 111.454C165.237 110.682 180.694 109.581 182.173 112.088C182.302 113.866 179.62 114.593 178.181 114.881C178.006 114.223 177.81 113.474 177.64 112.815C177.95 112.867 178.416 112.959 178.721 113.027C179.636 113.199 179.714 111.981 178.83 111.838C177.592 111.352 176.232 111.062 174.91 110.938C171.888 110.66 168.809 111.143 165.874 111.829L165.88 111.828Z" fill="#831428"/>
<path id="Vector_19" d="M176.611 123.148C168.011 124.454 159.366 125.462 150.7 126.31C158.79 124.225 168.563 122.54 176.382 122.403C176.457 122.651 176.536 122.901 176.611 123.148Z" fill="#831428"/>
<path id="Vector_20" d="M112.087 124.745C114.227 123.805 116.477 122.955 118.697 122.232C119.422 121.997 120.323 121.715 121.056 121.498C121.311 121.404 121.471 121.812 121.198 121.905C117.651 123.363 114.143 125.025 110.773 126.857C108.984 127.83 107.18 128.882 105.441 129.97C104.375 130.055 103.311 130.143 102.243 130.231C102.62 129.964 103.021 129.692 103.35 129.472C106.098 127.647 109.064 126.07 112.077 124.744L112.087 124.745Z" fill="#831428"/>
<path id="Vector_21" d="M38.9748 171.027C41.7506 178.974 48.0207 185.655 55.0661 190.083C57.2457 191.448 59.531 192.606 61.8925 193.571C62.2023 193.178 62.5178 192.784 62.8241 192.389C63.5831 191.411 64.3304 190.422 65.0811 189.434C64.973 189.396 64.8592 189.359 64.751 189.32C64.6394 189.28 64.5243 189.237 64.4126 189.196C64.2487 189.138 64.0812 189.077 63.9195 189.015C63.7881 188.967 63.6588 188.915 63.5296 188.863C63.3841 188.806 63.2387 188.75 63.0897 188.691C62.9407 188.631 62.7939 188.569 62.6471 188.506C62.5201 188.451 62.3909 188.4 62.2638 188.344C62.0973 188.274 61.9329 188.201 61.7685 188.127C61.6613 188.08 61.5541 188.032 61.4433 187.982C61.2578 187.895 61.0759 187.811 60.8904 187.724C60.803 187.684 60.7155 187.644 60.6303 187.6C60.4237 187.5 60.2193 187.396 60.015 187.293C59.9508 187.263 59.8889 187.229 59.8212 187.196C59.5957 187.079 59.3703 186.963 59.147 186.842C59.1049 186.816 59.0618 186.799 59.0174 186.776C58.7731 186.642 58.5252 186.507 58.283 186.37C58.262 186.356 58.2409 186.343 58.2198 186.33C57.1563 185.722 56.1074 185.061 55.0844 184.342C55.0844 184.342 55.0809 184.339 55.0796 184.334C54.7754 183.6 54.5232 182.831 54.2666 182.068C54.171 181.783 54.0753 181.498 53.974 181.215C53.9012 181.003 53.8226 180.792 53.7454 180.587C53.6932 180.452 53.6445 180.319 53.5922 180.183C52.0245 175.997 50.919 171.518 51.4173 167.026C51.5064 166.118 51.6596 165.241 51.8664 164.387C51.9365 164.103 52.0101 163.821 52.093 163.541C52.1379 163.383 52.1886 163.224 52.2393 163.065C52.2975 162.886 52.3556 162.707 52.4208 162.533C52.4944 162.329 52.5658 162.129 52.6464 161.93C52.7353 161.702 52.8278 161.477 52.9273 161.255C52.9489 161.205 52.974 161.157 52.9956 161.107C53.0876 160.905 53.1783 160.698 53.2796 160.497C53.3188 160.419 53.3593 160.347 53.3985 160.269C53.4856 160.098 53.5693 159.925 53.66 159.757C53.719 159.647 53.7815 159.54 53.844 159.432C53.9184 159.298 53.9906 159.167 54.0685 159.035C54.1543 158.898 54.238 158.764 54.3238 158.627C54.3854 158.529 54.447 158.43 54.5087 158.332C54.6011 158.184 54.7063 158.04 54.8022 157.895C54.855 157.81 54.9136 157.725 54.9699 157.643C55.0804 157.482 55.1979 157.325 55.3154 157.169C55.3642 157.107 55.4082 157.037 55.4571 156.974C55.5869 156.806 55.7189 156.634 55.8523 156.468C55.8923 156.42 55.9288 156.37 55.9689 156.321C56.1101 156.15 56.2514 155.98 56.3997 155.813C56.4353 155.772 56.4709 155.731 56.5066 155.689C56.6571 155.52 56.8097 155.346 56.9672 155.181C57.0007 155.143 57.0341 155.105 57.0654 155.071C57.2273 154.898 57.3949 154.724 57.5603 154.554C57.5894 154.523 57.6162 154.496 57.6452 154.465C57.8164 154.294 57.9911 154.124 58.1657 153.955C58.1904 153.931 58.2172 153.904 58.2418 153.88C58.4143 153.714 58.5938 153.553 58.7733 153.391C58.8036 153.366 58.8305 153.339 58.863 153.311C59.0425 153.149 59.2233 152.993 59.4098 152.836C59.4402 152.811 59.467 152.784 59.4996 152.755C59.6883 152.595 59.8783 152.44 60.0719 152.287C60.1 152.266 60.1247 152.242 60.1528 152.22C60.3363 152.076 60.5197 151.932 60.7067 151.789C60.7449 151.76 60.7832 151.73 60.8215 151.7C61.0062 151.561 61.1888 151.426 61.3748 151.293C61.4188 151.262 61.4593 151.229 61.5055 151.194C61.6995 151.056 61.8912 150.922 62.0887 150.786C62.1248 150.76 62.1666 150.732 62.2027 150.706C62.398 150.574 62.5933 150.442 62.7899 150.316C62.8317 150.288 62.8677 150.262 62.9095 150.234C63.1061 150.108 63.3027 149.981 63.5029 149.857C63.5447 149.83 63.5864 149.802 63.6295 149.78C63.8217 149.661 64.0232 149.542 64.2189 149.425C64.2664 149.396 64.3139 149.367 64.3614 149.338C64.5629 149.22 64.7678 149.104 64.9728 148.987C65.0159 148.965 65.0577 148.938 65.1008 148.916C65.3092 148.802 65.5177 148.688 65.724 148.577C65.7671 148.555 65.8045 148.535 65.8441 148.511C66.0662 148.391 66.2931 148.278 66.5165 148.164C66.5438 148.152 66.5675 148.137 66.597 148.121C66.8319 148.004 67.0667 147.887 67.3051 147.772C67.3209 147.763 67.3403 147.755 67.3561 147.746C67.6081 147.625 67.8636 147.506 68.1169 147.391C68.4213 147.248 68.7269 147.112 69.0339 146.982C69.168 146.924 69.3092 146.87 69.4455 146.809C69.6183 146.736 69.7912 146.663 69.9618 146.594C70.1245 146.53 70.285 146.469 70.4477 146.404C70.5968 146.346 70.7516 146.287 70.9007 146.228C71.1808 146.125 71.4645 146.024 71.7481 145.923C71.7811 145.909 71.8176 145.898 71.8506 145.884C72.165 145.773 72.4807 145.667 72.8 145.564C72.8 145.564 72.8 145.564 72.8057 145.563C73.3791 145.374 73.953 145.2 74.5317 145.034C74.7463 144.973 74.9551 144.913 75.1697 144.852C75.3478 144.802 75.5259 144.752 75.704 144.702C75.8341 144.666 75.9656 144.636 76.0936 144.604C77.1194 144.341 78.1471 144.099 79.1821 143.877C80.4415 143.609 81.706 143.364 82.9737 143.145C83.1007 143.122 83.2313 143.101 83.3584 143.078C85.8242 142.666 88.3075 142.343 90.8005 142.075C90.8532 142.069 90.906 142.063 90.9565 142.06C91.9019 141.957 92.8463 141.864 93.7955 141.779C94.3257 141.729 94.8538 141.683 95.3853 141.64C96.973 141.504 98.5632 141.38 100.149 141.263C102.963 141.068 105.787 140.905 108.61 140.751C115.827 140.364 123.063 140.088 130.264 139.751C129.876 139.87 129.49 139.995 129.1 140.117C128.984 140.153 128.873 140.19 128.755 140.229C128.492 140.314 128.226 140.402 127.961 140.49C127.81 140.542 127.659 140.589 127.508 140.642C127.327 140.704 127.148 140.763 126.967 140.826C119.8 143.289 112.889 146.469 106.324 150.253C105.989 150.444 105.657 150.637 105.327 150.836C100.664 153.585 96.178 156.636 91.9093 159.95C89.7261 161.67 87.5723 163.451 85.491 165.313C82.4626 168.014 79.5804 170.881 76.9364 173.946C76.5487 174.393 76.1703 174.84 75.7967 175.296C75.7734 175.326 75.7466 175.353 75.721 175.386C75.5978 175.543 75.4271 175.769 75.2431 176.016C75.2189 176.055 75.1899 176.085 75.1679 176.12C75.0948 176.221 75.0196 176.326 74.9443 176.43C74.9333 176.448 74.9245 176.462 74.9135 176.48C74.7432 176.72 74.5852 176.949 74.4694 177.126C74.4562 177.147 74.4452 177.165 74.4342 177.182C74.41 177.221 74.3836 177.263 74.3537 177.303C74.2753 177.42 74.0936 177.664 74.0179 177.792C74.0134 177.799 74.0091 177.806 74.0047 177.813C73.9826 177.848 73.9606 177.884 73.9457 177.923C73.8162 178.185 73.6774 178.641 74.1295 179.075C74.1365 179.08 74.14 179.082 74.147 179.086C75.0984 179.756 78.963 175.875 79.2366 175.704C81.0904 174.136 82.9486 172.56 84.8177 171.006C84.911 170.928 85.0065 170.845 85.1032 170.769C85.1943 170.694 85.2854 170.619 85.3786 170.54C86.9108 169.274 88.4619 168.025 90.0314 166.816C90.0358 166.809 90.0437 166.804 90.0494 166.803C90.4849 166.46 90.9217 166.122 91.3621 165.786C93.104 164.451 94.8758 163.154 96.6727 161.887C96.6828 161.879 96.6929 161.87 96.7066 161.864C97.1161 161.578 97.5234 161.295 97.9342 161.014C97.9782 160.983 98.0279 160.95 98.0741 160.916C98.451 160.658 98.8258 160.403 99.2041 160.151C99.2877 160.096 99.3677 160.038 99.4513 159.983C99.7957 159.753 100.14 159.524 100.484 159.294C100.602 159.216 100.722 159.135 100.843 159.059C101.153 158.852 101.468 158.653 101.78 158.453C101.935 158.354 102.089 158.249 102.243 158.151C102.527 157.971 102.811 157.792 103.097 157.609C103.283 157.491 103.47 157.373 103.656 157.255C103.914 157.094 104.17 156.936 104.425 156.778C104.641 156.644 104.859 156.507 105.079 156.375C105.308 156.235 105.538 156.095 105.771 155.957C106.016 155.808 106.268 155.657 106.513 155.507C106.717 155.385 106.924 155.266 107.127 155.144C107.4 154.982 107.679 154.819 107.955 154.659C108.138 154.554 108.322 154.449 108.505 154.343C108.805 154.169 109.105 153.995 109.406 153.827C109.572 153.735 109.737 153.643 109.902 153.55C110.225 153.371 110.544 153.189 110.867 153.01C111.017 152.928 111.166 152.845 111.314 152.766C111.656 152.579 111.992 152.394 112.334 152.207C112.468 152.134 112.608 152.06 112.745 151.99C113.098 151.8 113.454 151.607 113.811 151.42C113.937 151.352 114.064 151.29 114.19 151.222C114.559 151.032 114.926 150.836 115.292 150.65C115.414 150.589 115.535 150.528 115.656 150.467C116.031 150.276 116.405 150.085 116.78 149.899C116.9 149.842 117.021 149.781 117.14 149.724C117.518 149.535 117.899 149.348 118.278 149.165C118.4 149.104 118.522 149.048 118.642 148.991C119.021 148.808 119.398 148.628 119.78 148.447C119.907 148.385 120.036 148.328 120.161 148.269C120.535 148.093 120.908 147.92 121.286 147.746C121.425 147.682 121.565 147.622 121.703 147.558C122.068 147.39 122.434 147.227 122.799 147.065C122.955 146.996 123.111 146.928 123.264 146.862C123.614 146.71 123.961 146.555 124.314 146.405C124.489 146.329 124.668 146.254 124.849 146.177C125.177 146.035 125.504 145.897 125.836 145.758C126.039 145.675 126.245 145.589 126.445 145.504C126.748 145.38 127.052 145.253 127.355 145.13C127.592 145.033 127.828 144.937 128.066 144.846C128.336 144.736 128.609 144.628 128.876 144.522C129.149 144.414 129.428 144.305 129.705 144.199C129.937 144.11 130.169 144.021 130.401 143.931C130.722 143.809 131.043 143.688 131.368 143.568C131.553 143.498 131.739 143.429 131.928 143.361C132.303 143.224 132.675 143.091 133.05 142.953C133.183 142.905 133.322 142.855 133.455 142.806C133.889 142.653 134.321 142.502 134.753 142.352C134.828 142.326 134.904 142.3 134.979 142.273C135.478 142.102 135.975 141.933 136.475 141.767C136.481 141.766 136.489 141.761 136.495 141.76C136.5 141.759 136.508 141.754 136.514 141.753C136.905 141.621 137.299 141.491 137.688 141.363C137.984 141.265 138.281 141.167 138.581 141.071C139.133 140.893 139.684 140.715 140.236 140.537C140.304 140.516 140.371 140.495 140.438 140.473C140.901 140.328 141.361 140.18 141.826 140.031C142.651 139.77 143.469 139.51 144.29 139.246C144.318 139.234 144.345 139.222 144.374 139.206C144.377 139.202 144.386 139.203 144.391 139.202C144.411 139.195 144.43 139.187 144.453 139.182C144.683 139.111 144.991 139.088 145.292 139.077C145.606 139.068 145.91 139.067 146.109 139.055C146.109 139.055 146.109 139.055 146.112 139.057C146.576 139.044 147.286 139.019 147.997 138.995C148.705 138.974 149.412 138.947 149.879 138.936C155.84 138.756 161.856 138.616 167.833 138.177C170.429 137.988 173.014 137.744 175.586 137.412C175.797 137.388 176.007 137.358 176.217 137.328C177.738 137.126 179.258 136.895 180.771 136.629C180.782 136.626 180.794 136.624 180.805 136.621C181.433 136.51 182.061 136.39 182.686 136.268C187.202 135.379 191.659 134.164 195.955 132.54C196.676 132.273 197.425 131.968 198.172 131.659C199.084 131.281 199.992 130.886 200.861 130.515C200.872 130.513 200.882 130.504 200.894 130.502C202.312 129.893 203.821 129.243 205.229 128.511C205.503 128.37 205.771 128.224 206.035 128.076C206.112 128.032 206.192 127.989 206.269 127.944C206.238 127.979 206.207 128.013 206.175 128.047C207.994 126.98 209.738 125.798 211.36 124.451C212.83 123.229 214.109 121.828 215.312 120.361C215.598 118.529 215.672 116.692 215.525 115.02C215.322 112.961 214.607 110.679 212.725 109.573C210.872 108.5 208.514 109.068 206.884 110.302C205.971 110.978 205.186 111.817 204.386 112.617C203.559 113.454 202.686 114.277 201.759 115.007C199.153 117.074 196.077 118.498 192.931 119.536L192.935 119.538C188.799 120.881 184.509 121.76 180.229 122.538C179.764 120.833 179.3 119.104 178.844 117.395C180.812 116.979 182.95 116.224 184.109 114.475C184.93 113.243 185.032 111.267 184.129 110.051C182.574 108.142 178.511 107.471 176.148 107.062C174.004 98.6155 171.911 90.0939 170.19 81.5504C169.326 76.998 168.374 72.4147 168.212 67.7735C168.148 63.7025 168.432 59.5998 169.231 55.6046C169.698 53.3675 170.277 51.1227 171.226 49.0365C172.048 47.4429 171.107 45.6792 169.42 45.2539C169.211 45.1815 168.967 45.1021 168.755 45.0333C167.734 44.7019 166.687 44.3886 165.655 44.099C162.254 43.1524 158.787 42.3802 155.311 41.7487C137.954 38.6307 119.873 38.9433 102.8 43.4831C83.354 48.4833 66.7526 59.5851 53.3103 74.3485C49.1541 78.8974 45.3178 83.7639 41.8682 88.8727C40.3229 91.1678 38.8396 93.5359 37.4701 95.9411C37.0528 96.6777 36.6306 97.4454 36.2379 98.1974C36.1507 98.3678 36.0371 98.5804 35.9535 98.7531C35.1555 100.058 35.6721 101.82 37.1022 102.413C44.1877 105.706 50.6011 111.088 55.2796 117.326L55.269 117.319C59.1603 122.633 62.2361 128.522 65.1237 134.43C62.5972 134.932 60.0552 135.497 57.637 136.404C48.0642 140.074 40.5073 147.184 38.4686 157.511C37.8738 160.485 37.7669 163.578 38.0834 166.589C38.2459 168.08 38.4795 169.606 38.9748 171.027ZM163.286 62.4231C163.187 64.4255 163.183 66.4333 163.252 68.424C163.334 69.8104 163.484 71.196 163.678 72.5746C163.737 73.0032 163.802 73.4305 163.87 73.8543C164.155 75.6572 164.499 77.4526 164.849 79.2376C165.003 79.9845 165.164 80.7359 165.327 81.4837C165.365 81.6644 165.406 81.8416 165.445 82.0223C165.601 82.7416 165.76 83.4573 165.924 84.1717C165.929 84.1946 165.935 84.2175 165.94 84.2403C166.119 85.0326 166.3 85.8213 166.488 86.6088C166.507 86.6945 166.528 86.7859 166.548 86.8717C166.733 87.6477 166.917 88.4237 167.107 89.1984C167.909 92.4893 168.763 95.7683 169.644 99.0351C170.319 101.537 171.011 104.035 171.707 106.526C168.198 106.235 164.671 106.154 161.147 106.232C159.082 106.278 157.019 106.375 154.961 106.52C147.55 107.059 140.112 108.212 132.938 110.17C132.468 110.296 131.999 110.428 131.531 110.566C131.494 110.577 131.458 110.588 131.421 110.6C131.043 110.71 130.666 110.821 130.289 110.938C130.205 110.963 130.124 110.991 130.039 111.016C129.697 111.125 129.352 111.231 129.011 111.345C128.961 111.363 128.907 111.378 128.857 111.396C128.476 111.519 128.097 111.648 127.717 111.778C127.7 111.781 127.686 111.788 127.667 111.795C127.255 111.938 126.846 112.083 126.434 112.231C121.999 113.842 117.686 115.797 113.444 117.841C109.374 119.846 105.372 122.055 101.611 124.597C100.149 125.603 98.6954 126.65 97.3207 127.789C96.1505 128.759 95.034 129.791 94.018 130.921C85.5619 131.676 77.0627 132.452 68.6773 133.789C67.7614 131.587 66.8099 129.386 65.7959 127.215C63.721 122.76 61.3871 118.421 58.5891 114.394C58.4763 114.23 58.3634 114.067 58.2505 113.903C55.972 110.774 53.3336 107.898 50.4167 105.342C50.2621 105.206 50.1087 105.076 49.9541 104.94C49.5648 104.608 49.1733 104.279 48.7717 103.959C48.5986 103.822 48.4255 103.684 48.2524 103.546C47.8745 103.251 47.4909 102.957 47.1064 102.672C46.9184 102.534 46.7325 102.393 46.5422 102.26C46.3766 102.141 46.2074 102.021 46.0418 101.902C45.3699 101.427 44.6906 100.973 43.9989 100.53C43.9497 100.499 43.9005 100.468 43.8512 100.437C43.0871 99.9535 42.3119 99.4875 41.5235 99.0426C43.5567 95.5856 45.7548 92.2171 48.1088 88.9512C51.9978 83.5551 56.3201 78.4597 61.0352 73.7766C61.1403 73.6712 61.2455 73.5659 61.3506 73.4605C61.4514 73.3622 61.5521 73.2639 61.6529 73.1655C65.667 69.242 69.9645 65.6084 74.5282 62.347C74.5326 62.34 74.5405 62.3352 74.5462 62.3339C83.4452 55.9568 93.5314 51.2478 104.128 48.4827C109.734 46.9948 115.488 45.9756 121.306 45.4079C130.304 44.5228 139.45 44.7139 148.424 45.8981C154.233 46.6653 159.967 47.8499 165.543 49.4347C165.421 49.8178 165.301 50.1974 165.191 50.5837C164.994 51.2576 164.815 51.9334 164.649 52.6123C164.321 53.9722 164.057 55.3476 163.849 56.7341C163.744 57.4262 163.654 58.1237 163.577 58.8185C163.445 60.0129 163.351 61.211 163.293 62.4126L163.286 62.4231ZM174.921 110.936C171.899 110.657 168.821 111.141 165.885 111.827C165.599 111.94 163.338 112.354 163.434 112.59C163.44 112.785 163.951 112.665 164.057 112.697C164.921 112.686 166.098 112.635 166.962 112.584C169.08 112.463 171.266 112.325 173.384 112.39C173.505 112.813 173.632 113.235 173.756 113.655C173.866 114.027 173.972 114.397 174.081 114.769C174.081 114.769 174.083 114.775 174.084 114.78C174.673 116.778 175.273 118.774 175.88 120.768C176.047 121.313 176.215 121.858 176.379 122.401C176.454 122.649 176.532 122.898 176.607 123.146C168.007 124.451 159.362 125.46 150.696 126.308C145.128 126.851 139.551 127.33 133.974 127.78L133.97 127.778C129.459 128.142 124.949 128.482 120.442 128.824C116.044 129.156 111.652 129.487 107.26 129.832C106.657 129.88 106.051 129.926 105.448 129.974C104.381 130.059 103.318 130.147 102.249 130.236C101.671 130.284 101.098 130.331 100.519 130.38C99.6963 130.451 98.8719 130.517 98.0489 130.589C99.567 129.275 101.159 128.061 102.812 126.924C103.051 126.76 103.29 126.597 103.527 126.438C104.132 126.034 104.745 125.635 105.363 125.249C108.475 123.305 111.73 121.586 115.01 119.967C117.574 118.735 120.164 117.545 122.797 116.445C123.977 115.951 125.165 115.477 126.362 115.028C128.68 114.156 131.031 113.379 133.421 112.728C133.779 112.634 134.136 112.54 134.494 112.446C134.616 112.415 134.738 112.384 134.86 112.353C135.099 112.292 135.332 112.233 135.571 112.172C135.716 112.136 135.861 112.099 136.006 112.063C136.22 112.011 136.434 111.959 136.651 111.909C136.805 111.874 136.962 111.835 137.116 111.799C137.322 111.752 137.524 111.703 137.728 111.659C137.891 111.624 138.054 111.584 138.217 111.55C138.415 111.507 138.615 111.461 138.813 111.419C138.982 111.383 139.148 111.345 139.315 111.313C139.507 111.272 139.705 111.229 139.901 111.19C140.07 111.155 140.243 111.121 140.412 111.085C140.604 111.044 140.798 111.009 140.988 110.971C141.161 110.938 141.333 110.904 141.506 110.87C141.696 110.833 141.884 110.799 142.072 110.765C142.248 110.733 142.427 110.698 142.603 110.667C142.785 110.634 142.973 110.6 143.155 110.567C143.337 110.535 143.519 110.502 143.699 110.473C143.873 110.445 144.049 110.413 144.223 110.385C144.988 110.258 145.749 110.138 146.518 110.027C146.654 110.005 146.792 109.989 146.928 109.966C147.149 109.934 147.368 109.904 147.593 109.874C147.736 109.856 147.878 109.833 148.022 109.815C148.241 109.785 148.463 109.759 148.682 109.729C148.825 109.711 148.969 109.694 149.112 109.676C149.334 109.649 149.557 109.622 149.779 109.595C149.921 109.581 150.06 109.56 150.202 109.546C150.427 109.521 150.653 109.497 150.883 109.474C151.018 109.461 151.15 109.446 151.288 109.429C151.52 109.403 151.753 109.383 151.988 109.359C152.114 109.345 152.242 109.337 152.368 109.323C152.607 109.301 152.851 109.278 153.09 109.257C153.204 109.245 153.317 109.238 153.432 109.226C153.685 109.204 153.939 109.182 154.191 109.163C154.283 109.157 154.374 109.151 154.469 109.142C154.746 109.12 155.022 109.102 155.3 109.08C155.336 109.078 155.377 109.075 155.412 109.073C157.104 108.958 158.793 108.881 160.487 108.841C160.537 108.839 160.591 108.838 160.642 108.836C160.935 108.829 161.232 108.824 161.523 108.82C161.592 108.819 161.661 108.818 161.73 108.818C162.017 108.812 162.303 108.81 162.592 108.809C162.666 108.807 162.745 108.807 162.817 108.809C163.102 108.807 163.385 108.808 163.669 108.809C163.743 108.807 163.819 108.811 163.894 108.808C164.183 108.808 164.47 108.812 164.76 108.817C164.823 108.818 164.89 108.821 164.953 108.821C165.253 108.828 165.551 108.829 165.85 108.835C165.898 108.836 165.941 108.838 165.989 108.839C166.307 108.847 166.627 108.852 166.947 108.866C168.022 108.899 169.099 108.947 170.169 109.011C172.951 109.213 179.511 109.789 181.844 111.432C181.844 111.432 181.862 111.443 181.873 111.45C181.941 111.497 182.007 111.549 182.067 111.601L182.07 111.603L182.072 111.585C182.114 111.713 182.143 111.839 182.161 111.958C182.165 112 182.17 112.037 182.174 112.079C182.303 113.857 179.621 114.584 178.182 114.872C178.007 114.214 177.811 113.465 177.641 112.806C177.951 112.858 178.417 112.95 178.722 113.018C179.637 113.19 179.715 111.972 178.83 111.829C177.593 111.343 176.233 111.053 174.91 110.929L174.921 110.936ZM42.6236 167.804C41.5294 161.635 42.4409 156.14 44.9941 151.555C47.7772 146.557 52.5097 142.644 58.7153 140.137C59.7685 139.706 60.874 139.371 61.9725 139.07C64.4371 138.418 66.9478 137.926 69.4651 137.502C70.0011 137.412 70.5406 137.324 71.0779 137.24C71.6152 137.156 72.1525 137.072 72.6911 136.993C78.1735 136.196 83.7411 135.598 89.2541 135.065C106.962 133.403 124.825 132.337 142.573 130.906C144.337 130.763 146.1 130.621 147.863 130.472C151.325 130.18 154.795 129.868 158.265 129.532C163.015 129.068 167.761 128.548 172.482 127.934C173.026 127.864 173.572 127.795 174.118 127.721C176.737 127.361 179.365 126.972 181.982 126.522C185.203 125.966 188.405 125.316 191.559 124.493C191.559 124.493 191.565 124.492 191.57 124.49C191.828 124.422 192.086 124.354 192.341 124.284C192.358 124.28 192.375 124.276 192.389 124.27C192.649 124.198 192.912 124.122 193.169 124.049C193.18 124.046 193.186 124.045 193.197 124.042C193.989 123.809 194.783 123.558 195.562 123.283C195.585 123.277 195.607 123.267 195.629 123.261C195.874 123.175 196.122 123.085 196.365 122.993C196.39 122.984 196.415 122.976 196.443 122.963C196.68 122.873 196.918 122.782 197.158 122.688C197.17 122.685 197.178 122.68 197.191 122.674C197.42 122.583 197.645 122.489 197.87 122.395C197.923 122.374 197.977 122.35 198.03 122.328C198.241 122.241 198.451 122.147 198.658 122.052C198.721 122.023 198.787 121.995 198.849 121.966C199.053 121.874 199.254 121.78 199.455 121.685C199.512 121.657 199.569 121.629 199.623 121.605C199.791 121.524 199.962 121.44 200.128 121.354C200.193 121.321 200.258 121.288 200.324 121.251C200.518 121.153 200.709 121.052 200.898 120.945C200.971 120.908 201.04 120.868 201.109 120.828C201.301 120.723 201.493 120.613 201.678 120.505C201.734 120.471 201.793 120.439 201.848 120.405C202.026 120.301 202.2 120.195 202.376 120.086C202.414 120.065 202.448 120.042 202.487 120.018C202.689 119.89 202.894 119.759 203.095 119.626C203.137 119.598 203.179 119.571 203.218 119.547C203.427 119.408 203.629 119.266 203.833 119.12C203.843 119.111 203.851 119.106 203.861 119.098C204.393 118.717 204.911 118.313 205.416 117.89C206.126 117.303 206.802 116.669 207.466 116.024C207.801 115.7 208.134 115.371 208.465 115.045C208.813 114.71 209.189 114.359 209.578 114.074C209.812 113.903 210.082 113.739 210.371 113.69C211.321 115.816 210.637 119.752 209.965 121.943C209.26 122.475 208.58 123.052 207.873 123.587C207.732 123.695 207.588 123.8 207.446 123.902C207.156 124.107 206.861 124.304 206.557 124.485C205.572 125.096 204.539 125.628 203.478 126.118C201.672 126.953 199.798 127.663 197.99 128.433C197.278 128.741 196.56 129.035 195.846 129.316C179.72 135.657 162.119 135.571 144.946 135.964C144.935 135.966 144.922 135.963 144.911 135.966C144.633 135.973 144.36 135.978 144.082 135.985C144.043 135.985 144.007 135.987 143.968 135.987C143.714 135.994 143.462 135.998 143.208 136.005C143.148 136.006 143.094 136.007 143.034 136.008C142.795 136.015 142.556 136.022 142.316 136.029C142.247 136.029 142.176 136.034 142.107 136.035C141.874 136.04 141.644 136.048 141.414 136.055C141.339 136.057 141.264 136.059 141.19 136.062C140.96 136.069 140.73 136.077 140.496 136.082C140.422 136.084 140.347 136.086 140.272 136.089C139.967 136.098 139.666 136.11 139.364 136.116C129.369 136.499 119.341 136.607 109.333 136.908C105.042 137.038 100.75 137.202 96.4686 137.441C96.4594 137.44 96.4479 137.443 96.4387 137.442C96.0712 137.466 95.7001 137.488 95.3303 137.515C95.2327 137.523 95.1373 137.527 95.0432 137.536C94.6607 137.561 94.276 137.589 93.897 137.616C93.8557 137.619 93.8109 137.62 93.7695 137.624C93.4112 137.649 93.0564 137.676 92.6959 137.705C92.6189 137.71 92.5477 137.715 92.4708 137.72C92.0804 137.75 91.6877 137.783 91.2951 137.815C91.2446 137.818 91.1975 137.823 91.1447 137.829C90.7728 137.86 90.4043 137.893 90.0324 137.925C89.9853 137.929 89.9348 137.932 89.8877 137.937C89.4872 137.975 89.0867 138.012 88.6861 138.05C88.6334 138.056 88.5828 138.059 88.53 138.065C88.133 138.105 87.736 138.145 87.3368 138.188C87.3275 138.187 87.3196 138.192 87.3104 138.191C86.9019 138.234 86.4913 138.28 86.0841 138.328C86.0349 138.336 85.9843 138.339 85.9351 138.347C85.1151 138.445 84.2964 138.549 83.4803 138.664C83.4368 138.671 83.3898 138.676 83.3462 138.682C82.5245 138.799 81.7018 138.924 80.8818 139.061C80.844 139.067 80.8097 139.075 80.7719 139.081C80.3572 139.149 79.9439 139.222 79.5284 139.3C79.5227 139.301 79.5113 139.304 79.5055 139.305C79.0957 139.381 78.6895 139.459 78.281 139.541C78.2581 139.546 78.2352 139.551 78.2124 139.557C77.8039 139.638 77.3932 139.723 76.986 139.811C76.9575 139.817 76.9289 139.824 76.8968 139.828C76.4896 139.916 76.0838 140.009 75.6792 140.108C73.7225 140.575 71.7842 141.122 69.8765 141.776C64.6659 143.624 59.6837 146.335 55.5668 150.047C53.921 151.526 52.5064 153.12 51.3199 154.803C46.4626 161.706 45.4984 170.138 48.6818 178.614C46.047 175.584 43.4749 171.767 42.6244 167.795L42.6236 167.804Z" fill="#1B1B1B"/>
</g>
</g>
<defs>
<radialGradient id="paint0_radial_87_34129" cx="0" cy="0" r="1" gradientUnits="userSpaceOnUse" gradientTransform="translate(169.625 129.158) rotate(164.928) scale(113.639 113.644)">
<stop stop-color="#676A81"/>
<stop offset="1" stop-color="#59586F"/>
</radialGradient>
<radialGradient id="paint1_radial_87_34129" cx="0" cy="0" r="1" gradientUnits="userSpaceOnUse" gradientTransform="translate(140.276 121.969) rotate(164.928) scale(31.3509 31.3522)">
<stop stop-color="#FC6155"/>
<stop offset="1" stop-color="#FC2930"/>
</radialGradient>
<radialGradient id="paint2_radial_87_34129" cx="0" cy="0" r="1" gradientUnits="userSpaceOnUse" gradientTransform="translate(140.349 121.951) rotate(164.928) scale(31.2962 31.2975)">
<stop stop-color="#FC6155"/>
<stop offset="1" stop-color="#FC2930"/>
</radialGradient>
<radialGradient id="paint3_radial_87_34129" cx="0" cy="0" r="1" gradientUnits="userSpaceOnUse" gradientTransform="translate(109.364 64.4581) rotate(164.928) scale(70.6391 70.642)">
<stop stop-color="#676A81"/>
<stop offset="1" stop-color="#59586F"/>
</radialGradient>
</defs>
</svg>
