<svg width="32" height="32" viewBox="0 0 32 32" fill="none" xmlns="http://www.w3.org/2000/svg">
<path fill-rule="evenodd" clip-rule="evenodd" d="M16 0C7.16344 0 0 7.16344 0 16C0 24.8366 7.16344 32 16 32C24.8366 32 32 24.8366 32 16C32 7.16344 24.8366 0 16 0ZM12.4822 7.51823C13.3924 7.4768 13.6833 7.46667 16.0008 7.46667H15.9981C18.3164 7.46667 18.6062 7.4768 19.5164 7.51823C20.4249 7.55983 21.0453 7.70365 21.5893 7.91468C22.1511 8.13246 22.6258 8.42402 23.1004 8.89869C23.5751 9.373 23.8667 9.8491 24.0853 10.4103C24.2951 10.9529 24.4391 11.573 24.4818 12.4815C24.5227 13.3917 24.5333 13.6826 24.5333 16.0001C24.5333 18.3176 24.5227 18.6078 24.4818 19.518C24.4391 20.4261 24.2951 21.0464 24.0853 21.5891C23.8667 22.1502 23.5751 22.6263 23.1004 23.1006C22.6263 23.5753 22.1509 23.8675 21.5898 24.0855C21.0469 24.2965 20.4261 24.4404 19.5176 24.482C18.6074 24.5234 18.3175 24.5335 15.9997 24.5335C13.6824 24.5335 13.3917 24.5234 12.4815 24.482C11.5732 24.4404 10.9529 24.2965 10.41 24.0855C9.8491 23.8675 9.373 23.5753 8.89886 23.1006C8.42437 22.6263 8.13281 22.1502 7.91468 21.5889C7.70383 21.0464 7.56001 20.4263 7.51823 19.5178C7.47698 18.6076 7.46667 18.3176 7.46667 16.0001C7.46667 13.6826 7.47734 13.3915 7.51805 12.4813C7.55894 11.5732 7.70294 10.9529 7.9145 10.4102C8.13317 9.8491 8.42473 9.373 8.8994 8.89869C9.37371 8.42419 9.84981 8.13263 10.4111 7.91468C10.9536 7.70365 11.5737 7.55983 12.4822 7.51823Z" fill="#69C1ED"/>
<path fill-rule="evenodd" clip-rule="evenodd" d="M15.2352 9.00409C15.3839 9.00385 15.5438 9.00393 15.7163 9.004L16.0008 9.00409C18.2792 9.00409 18.5492 9.01226 19.449 9.05315C20.281 9.0912 20.7325 9.23022 21.0333 9.34702C21.4316 9.50169 21.7155 9.68658 22.014 9.98525C22.3126 10.2839 22.4975 10.5684 22.6526 10.9666C22.7694 11.267 22.9086 11.7186 22.9464 12.5506C22.9873 13.4502 22.9962 13.7204 22.9962 15.9978C22.9962 18.2751 22.9873 18.5453 22.9464 19.4449C22.9084 20.2769 22.7694 20.7285 22.6526 21.0289C22.4979 21.4271 22.3126 21.7107 22.014 22.0092C21.7153 22.3079 21.4317 22.4928 21.0333 22.6474C20.7329 22.7648 20.281 22.9034 19.449 22.9415C18.5494 22.9824 18.2792 22.9913 16.0008 22.9913C13.7222 22.9913 13.4521 22.9824 12.5525 22.9415C11.7205 22.9031 11.269 22.7641 10.968 22.6473C10.5698 22.4926 10.2853 22.3077 9.98665 22.009C9.68798 21.7104 9.50309 21.4266 9.34806 21.0282C9.23126 20.7278 9.09206 20.2762 9.05419 19.4442C9.0133 18.5446 9.00513 18.2744 9.00513 15.9956C9.00513 13.7168 9.0133 13.448 9.05419 12.5485C9.09224 11.7165 9.23126 11.2649 9.34806 10.9641C9.50273 10.5659 9.68798 10.2814 9.98665 9.98276C10.2853 9.68409 10.5698 9.4992 10.968 9.34418C11.2688 9.22684 11.7205 9.08818 12.5525 9.04995C13.3398 9.0144 13.6448 9.00373 15.2352 9.00195V9.00409ZM20.5558 10.421C19.9905 10.421 19.5318 10.8791 19.5318 11.4447C19.5318 12.01 19.9905 12.4687 20.5558 12.4687C21.1212 12.4687 21.5798 12.01 21.5798 11.4447C21.5798 10.8793 21.1212 10.4206 20.5558 10.4206V10.421ZM11.6185 15.9997C11.6185 13.5797 13.5805 11.6175 16.0006 11.6174C18.4207 11.6174 20.3823 13.5796 20.3823 15.9997C20.3823 18.4198 18.4209 20.3811 16.0008 20.3811C13.5806 20.3811 11.6185 18.4198 11.6185 15.9997Z" fill="#69C1ED"/>
<path d="M16.0007 13.1553C17.5716 13.1553 18.8452 14.4287 18.8452 15.9997C18.8452 17.5706 17.5716 18.8442 16.0007 18.8442C14.4297 18.8442 13.1562 17.5706 13.1562 15.9997C13.1562 14.4287 14.4297 13.1553 16.0007 13.1553Z" fill="#69C1ED"/>
</svg>
