<svg width="32" height="33" viewBox="0 0 32 33" fill="none" xmlns="http://www.w3.org/2000/svg">
<path fill-rule="evenodd" clip-rule="evenodd" d="M16 32.2695C24.8366 32.2695 32 25.1061 32 16.2695C32 7.43298 24.8366 0.269531 16 0.269531C7.16344 0.269531 0 7.43298 0 16.2695C0 25.1061 7.16344 32.2695 16 32.2695ZM11.3501 22.4075C14.6728 22.4075 17.3666 19.6903 17.3666 16.3386C17.3666 12.9868 14.673 10.2695 11.3501 10.2695C8.02711 10.2695 5.33333 12.9875 5.33333 16.3386C5.33333 19.6897 8.02731 22.4075 11.3501 22.4075ZM23.9673 16.3386C23.9673 19.4936 22.6204 22.0522 20.9589 22.0522C19.2974 22.0522 17.9505 19.4936 17.9505 16.3386C17.9505 13.1837 19.2972 10.6251 20.9587 10.6251C22.6202 10.6251 23.9671 13.1829 23.9671 16.3386H23.9673ZM25.6086 21.457C26.193 21.457 26.6667 19.1646 26.6667 16.3386C26.6667 13.5117 26.1928 11.2201 25.6086 11.2201C25.0244 11.2201 24.5508 13.5119 24.5508 16.3386C24.5508 19.1653 25.0242 21.457 25.6086 21.457Z" fill="#69C1ED"/>
</svg>
