<svg width="194" height="215" viewBox="0 0 194 215" fill="none" xmlns="http://www.w3.org/2000/svg">
<g id="Frame" clip-path="url(#clip0_87_34183)">
<g id="Group">
<g id="Mouse and Grear">
<g id="Group_2">
<path id="Vector" opacity="0.32" d="M149.269 0C124.565 0 104.538 9.14506 104.538 20.4235C104.538 31.7019 124.565 40.847 149.269 40.847C173.974 40.847 194 31.7019 194 20.4235C194 9.14506 173.974 0 149.269 0ZM151.339 24.821C137.627 24.821 126.513 21.9594 126.513 18.4255C126.513 14.8917 137.627 12.03 151.339 12.03C165.052 12.03 176.166 14.8917 176.166 18.4255C176.166 21.9594 165.052 24.821 151.339 24.821Z" fill="white"/>
<path id="Vector_2" opacity="0.4" d="M141.104 57.0784C126.7 57.0784 115.026 60.9203 115.026 65.6632C115.026 70.4062 126.7 74.2481 141.104 74.2481C155.508 74.2481 167.183 70.4062 167.183 65.6632C167.183 60.9203 155.508 57.0784 141.104 57.0784ZM142.31 67.5119C134.318 67.5119 127.836 66.3075 127.836 64.823C127.836 63.3385 134.314 62.1341 142.31 62.1341C150.307 62.1341 156.784 63.3385 156.784 64.823C156.784 66.3075 150.307 67.5119 142.31 67.5119Z" fill="white"/>
<path id="Vector_3" opacity="0.5" d="M141.104 82.0955C130.631 82.0955 122.139 85.9374 122.139 90.6803C122.139 95.4233 130.631 99.2652 141.104 99.2652C151.578 99.2652 160.07 95.4233 160.07 90.6803C160.07 85.9374 151.578 82.0955 141.104 82.0955ZM141.983 92.529C136.169 92.529 131.458 91.3245 131.458 89.8401C131.458 88.3556 136.169 87.1512 141.983 87.1512C147.797 87.1512 152.508 88.3556 152.508 89.8401C152.508 91.3245 147.797 92.529 141.983 92.529Z" fill="white"/>
<path id="Vector_4" opacity="0.6" d="M141.104 110.394C134.804 110.394 129.701 112.77 129.701 115.697C129.701 118.624 134.804 121.001 141.104 121.001C147.404 121.001 152.508 118.624 152.508 115.697C152.508 112.77 147.404 110.394 141.104 110.394ZM141.633 116.841C138.137 116.841 135.305 116.099 135.305 115.179C135.305 114.26 138.137 113.517 141.633 113.517C145.128 113.517 147.961 114.26 147.961 115.179C147.961 116.099 145.128 116.841 141.633 116.841Z" fill="white"/>
<path id="Vector_5" opacity="0.84" d="M141.983 128.512C138.197 128.512 135.127 130.888 135.127 133.815C135.127 136.742 138.197 139.118 141.983 139.118C145.769 139.118 148.839 136.742 148.839 133.815C148.839 130.888 145.769 128.512 141.983 128.512ZM142.301 134.959C140.198 134.959 138.497 134.216 138.497 133.297C138.497 132.377 140.202 131.635 142.301 131.635C144.399 131.635 146.105 132.377 146.105 133.297C146.105 134.216 144.399 134.959 142.301 134.959Z" fill="white"/>
<g id="Group_3">
<path id="Vector_6" d="M1.97681 130.225C1.97681 124.035 6.98688 115.231 14.2449 115.231" stroke="#1D1D1B" stroke-width="8.47" stroke-miterlimit="10" stroke-linecap="round"/>
<path id="Vector_7" d="M110.343 130.935C85.274 129.628 61.9575 123.792 26.6487 117.117" stroke="#1B1B1B" stroke-width="8" stroke-miterlimit="10" stroke-linecap="round"/>
<g id="Group_4">
<path id="Vector_8" d="M43.866 135.44C35.1544 134.702 26.4476 136.289 17.9277 138.1C16.806 138.338 15.647 138.581 14.5066 138.39C13.3709 138.194 12.2446 137.447 11.9969 136.359C11.6043 134.623 13.4317 133.269 14.2963 131.714C15.6656 129.254 14.6001 126.08 15.6797 123.489C16.806 120.791 19.8812 119.46 22.676 118.386C25.5596 117.28 28.4759 116.164 31.5418 115.665C34.9441 115.114 38.4446 115.338 41.861 115.856C46.9272 116.627 51.8718 118.027 56.8024 119.427C62.3733 121.01 67.9442 122.593 73.5151 124.175C74.6929 124.511 76.0996 125.099 76.1884 126.28C76.2725 127.359 75.1836 128.115 74.3003 128.773C73.417 129.431 72.5757 130.608 73.216 131.5C73.5058 131.901 74.0432 132.125 74.2162 132.583C74.3938 133.045 74.1227 133.544 73.861 133.964C73.1599 135.099 72.4542 136.228 71.7532 137.363C71.3513 138.012 70.9166 138.689 70.2296 139.053C69.5192 139.426 68.6593 139.403 67.8461 139.347C59.7561 138.787 51.9326 136.126 43.8566 135.444L43.866 135.44Z" fill="white"/>
<path id="Vector_9" d="M31.6633 137.125C37.2249 136.583 42.8285 136.592 48.3947 137.078C59.3636 138.03 70.3745 141.256 80.7312 144.883C79.1795 142.75 76.1651 141.7 73.8283 140.673C74.978 138.917 75.8379 136.938 77.1559 135.271C79.5581 132.228 83.4044 127.821 87.7181 128.969C89.3632 129.408 88.6014 128.078 90.1905 128.437C87.3957 127.807 84.7831 126.369 82.0912 125.403C79.0861 124.32 76.0389 123.358 72.973 122.462C66.8787 120.674 60.7142 119.147 54.5919 117.453C44.9363 114.778 34.7105 112.864 24.8679 115.73C17.9277 117.751 9.12735 123.087 8.01504 130.981C7.61778 133.792 8.81889 137.409 11.0902 139.188C12.5951 140.364 14.3431 140.472 16.1143 140.215C17.5211 140.01 18.9325 139.571 20.2411 139.258C24.008 138.348 27.8029 137.507 31.6633 137.134V137.125ZM48.7405 134.52C43.1323 133.955 37.4726 133.717 31.8456 134.118C28.99 134.324 26.1392 134.693 23.3444 135.323C20.6056 135.939 17.909 137.073 15.1002 137.274C16.0442 136.102 16.9135 134.991 17.6192 133.661C18.7689 131.499 18.4511 129.151 21.0777 128.516C24.653 127.653 28.3871 126.92 32.0699 126.836C33.9066 126.794 35.7714 126.934 37.552 126.481C34.2852 125.874 30.9436 125.659 27.6253 125.842C25.3353 125.968 23.1621 126.999 20.8487 127.013C19.5961 127.018 19.1895 126.897 18.5773 125.926C18.3249 125.524 17.1752 122.308 17.5772 122.023C19.6008 120.604 21.8535 119.488 24.1763 118.68C31.3455 116.192 39.0429 116.645 46.3757 118.102C55.3256 119.88 64.0418 123.003 72.8422 125.631C70.5334 127.303 68.3836 129.254 66.8039 131.644C62.3406 129.754 57.9522 128.932 53.1991 128.199C50.7315 127.816 48.2124 127.438 45.7495 127.844C47.675 127.527 50.624 128.577 52.5308 128.955C54.891 129.427 57.2324 129.978 59.5552 130.612C63.5184 131.696 67.5563 133.479 71.3419 135.127C71.3139 135.145 71.2859 135.15 71.2578 135.173C70.4353 135.878 69.6127 136.508 68.8322 137.274C68.477 137.624 68.0798 137.97 67.7667 138.362C61.5368 136.34 54.9424 135.136 48.7359 134.51L48.7405 134.52Z" fill="#231F20"/>
<g id="Vector_10" style="mix-blend-mode:multiply">
<path d="M47.8386 127.429C52.3486 129.039 56.9988 130.262 61.7098 131.131C63.4297 131.448 65.6309 132.284 65.4814 134.025C65.3412 135.636 63.2147 136.205 61.6163 135.953C60.018 135.701 58.2841 135.075 56.8586 135.85C58.1625 136.775 59.8731 136.784 61.4387 137.111C63.5886 137.564 65.5515 138.656 67.6686 139.239C69.7857 139.823 72.3048 139.786 73.8891 138.268C75.4735 136.747 75.151 133.469 73.0198 132.937C72.702 132.858 72.3562 132.839 72.0851 132.653C71.5804 132.302 71.5991 131.5 71.9589 131C72.3188 130.501 72.903 130.22 73.4545 129.95C75.5389 128.927 77.8243 127.177 77.5205 124.875C72.8235 123.536 67.7948 121.5 63.0044 120.935C64.3644 124.32 68.7903 125.744 63.1306 127.681C59.7656 128.829 51.1756 128.647 47.8386 127.438V127.429Z" fill="#C7B798"/>
</g>
<g id="Vector_11" style="mix-blend-mode:multiply">
<path d="M24.4848 119.493C23.7931 119.628 23.0079 119.848 22.7182 120.482C22.405 121.169 22.8257 121.958 23.3024 122.541C25.4242 125.137 28.9574 126.5 32.2756 126C27.2843 126.22 22.5873 129.684 20.9095 134.384C20.4515 135.664 20.1617 137.083 19.1896 138.03C18.0072 139.179 16.1705 139.277 14.5301 139.113C13.6327 139.025 12.642 138.815 12.1232 138.077C11.0155 136.49 13.0018 134.646 13.8945 132.928C15.3433 130.136 13.7262 126.668 14.4833 123.619C15.2638 120.487 18.3437 118.498 21.3488 117.313C29.2565 114.185 40.4637 113.667 48.348 117.107C45.9926 119.385 41.5947 118.2 38.5522 118.181C33.8366 118.153 29.1116 118.596 24.4848 119.497V119.493Z" fill="#C7B798"/>
</g>
</g>
</g>
<g id="Group_5">
<path id="Vector_12" d="M166.187 175.741C166.108 171.59 165.86 167.65 165.575 164.224C165.407 162.207 165.08 160.205 164.813 158.202C164.813 158.165 164.804 158.127 164.79 158.095C164.449 156.778 161.065 155.859 156.354 155.317C156.336 155.317 156.317 155.317 156.303 155.317C150.531 154.663 142.787 154.584 136.216 155.06C136.16 155.06 136.108 155.065 136.052 155.07C135.786 155.088 135.524 155.107 135.258 155.13C135.211 155.13 135.164 155.13 135.118 155.14C128.486 155.69 123.284 156.825 122.966 158.515C122.957 158.552 122.952 158.589 122.952 158.631C122.934 158.958 122.915 159.304 122.882 159.677C122.77 161.218 122.574 163.122 122.363 165.158C122.363 165.186 122.363 165.214 122.354 165.237C122.181 166.955 121.999 168.762 121.854 170.521C121.854 170.54 121.854 170.559 121.854 170.582C121.7 172.491 121.588 174.349 121.583 175.965C121.583 176.212 121.583 176.464 121.583 176.712C121.588 176.884 121.592 177.052 121.597 177.225C121.625 178.238 121.676 179.041 121.714 179.737C121.714 179.923 121.728 180.115 121.732 180.311C121.742 180.605 121.746 180.885 121.732 181.151C121.732 181.244 121.728 181.342 121.723 181.44C121.704 181.65 121.686 181.856 121.653 182.066C121.639 182.145 121.625 182.225 121.611 182.309C121.592 182.402 121.574 182.495 121.55 182.593C121.531 182.687 121.508 182.78 121.48 182.878C121.429 183.065 121.373 183.252 121.312 183.434C121.293 183.49 121.27 183.546 121.246 183.597C120.957 184.302 120.391 184.802 119.676 185.007C119.676 185.012 119.662 185.012 119.657 185.012C119.059 185.184 118.349 185.147 117.606 184.853C117.596 184.853 117.592 184.844 117.582 184.839C116.844 184.549 116.068 183.999 115.33 183.149C115.236 183.046 115.147 182.944 115.063 182.836C113.586 180.988 113.03 180.208 112.881 179.821C112.839 179.709 112.829 179.629 112.839 179.568C112.853 179.503 112.885 179.456 112.932 179.405C113.049 179.284 113.231 179.158 113.245 178.719C113.269 178.196 113.054 177.225 112.203 175.269C112.053 174.942 111.909 174.615 111.754 174.293C111.67 174.111 111.586 173.929 111.497 173.752C111.455 173.654 111.408 173.56 111.362 173.467C111.324 173.392 111.287 173.318 111.25 173.248C110.838 172.468 110.189 171.53 109.441 171.04C109.432 171.04 109.427 171.026 109.418 171.026L109.333 170.97C108.969 170.755 108.586 170.647 108.198 170.722C108.156 170.731 108.114 170.741 108.072 170.755C108.029 170.764 107.987 170.778 107.945 170.797C107.922 170.769 107.866 170.675 107.772 170.517C107.768 170.507 107.763 170.498 107.754 170.489C107.221 169.56 105.66 166.679 103.734 163.276C103.72 163.253 103.706 163.225 103.692 163.202C102.15 160.485 100.384 157.446 98.7151 154.808C98.701 154.789 98.6917 154.771 98.6824 154.752C97.0326 152.157 95.4903 149.953 94.364 148.837C94.2939 148.767 94.2238 148.702 94.1537 148.637C93.9854 148.483 93.8172 148.338 93.6442 148.203C92.7422 147.465 91.873 146.98 91.0317 146.587C91.0083 146.578 90.9897 146.569 90.9663 146.559C90.1484 146.181 89.3586 145.892 88.5921 145.551C88.5687 145.542 88.5454 145.532 88.522 145.523C88.5173 145.523 88.5127 145.523 88.508 145.514C87.8817 145.229 87.2648 144.902 86.6759 144.454C86.5264 144.347 86.3768 144.221 86.232 144.095C86.1478 144.02 86.0684 143.95 85.9843 143.871C85.7132 143.628 85.4561 143.371 85.1944 143.114C82.9791 140.906 80.5349 137.76 77.2634 134.828C77.226 134.795 77.1839 134.758 77.1465 134.725C77.0577 134.641 76.9689 134.567 76.8801 134.487C74.9313 132.783 72.6973 131.164 70.0567 129.866C70.0147 129.842 69.9726 129.819 69.9305 129.805C69.9305 129.805 69.9165 129.805 69.9118 129.805C64.3269 129.1 58.3821 128.75 55.8537 128.624C55.8678 128.615 55.8865 128.601 55.9005 128.591C55.7836 128.591 55.6668 128.577 55.5593 128.554C55.5359 128.573 55.5126 128.591 55.4892 128.605C54.9143 128.577 54.5919 128.563 54.5919 128.563L54.489 128.503C54.4096 128.521 54.3348 128.545 54.246 128.554C54.1058 128.573 53.9703 128.582 53.8301 128.591L54.7601 129.273C54.6853 129.362 54.6293 129.441 54.5919 129.511C54.676 129.45 54.7601 129.394 54.8396 129.334L58.097 131.728L59.4197 132.699L66.1449 137.648L66.1262 137.736C68.0144 138.651 69.8651 139.809 71.5616 141.21C75.2911 144.286 78.2869 148.529 79.3805 153.926C79.4272 154.173 79.474 154.421 79.516 154.668C79.5347 154.771 79.5487 154.869 79.5674 154.972C79.7357 155.971 79.9226 156.89 80.5162 158.309C80.5536 158.407 80.5956 158.505 80.6377 158.603C81.0396 159.523 81.6051 160.648 82.4277 162.119C84.1662 165.232 87.0545 169.877 91.9618 177.36C91.9991 177.426 92.0412 177.486 92.0833 177.547C92.4572 178.121 92.8497 178.714 93.2517 179.326C93.1068 179.559 92.9432 179.769 92.8264 180.003C92.803 180.045 92.7843 180.087 92.7656 180.133C92.7422 180.194 92.7189 180.259 92.7002 180.325C92.6862 180.376 92.6721 180.427 92.6675 180.479C92.6581 180.516 92.6534 180.558 92.6488 180.595C92.6488 180.656 92.6394 180.712 92.6394 180.773C92.6394 180.848 92.6441 180.922 92.6534 180.992C92.6534 181.053 92.6675 181.114 92.6815 181.174C92.6908 181.24 92.7048 181.305 92.7235 181.37C92.7516 181.464 92.7796 181.557 92.8123 181.65C92.8638 181.791 92.9152 181.931 92.9712 182.066C92.9759 182.089 92.9853 182.113 93.004 182.136C93.3685 183.018 93.9714 184.195 94.6911 185.296C94.6911 185.31 94.7051 185.32 94.7145 185.334C95.3828 186.361 96.1493 187.313 96.9111 187.906C96.9111 187.906 96.9111 187.906 96.9204 187.915C97.4626 188.331 98 188.564 98.5001 188.513C98.5468 188.513 98.5936 188.499 98.6403 188.489C98.6777 188.541 98.7431 188.639 98.8272 188.784C98.8506 188.826 98.874 188.863 98.8973 188.9C98.9534 188.994 99.0095 189.087 99.0656 189.18L99.4161 189.769C99.8975 190.567 100.599 191.687 101.543 193.018C101.557 193.036 101.566 193.055 101.58 193.074C101.734 193.293 101.888 193.512 102.047 193.727C102.318 194.101 102.589 194.469 102.879 194.838C102.977 194.964 103.08 195.095 103.178 195.226C104.398 196.78 105.88 198.498 107.642 200.267C107.67 200.3 107.698 200.323 107.726 200.351C111.109 203.731 115.531 207.274 121.13 210.159C121.34 210.267 121.545 210.374 121.756 210.477C122.116 210.659 122.48 210.827 122.849 210.99C124.537 211.761 126.341 212.433 128.224 212.993L128.28 213.007C132.888 214.365 137.931 215.07 142.684 214.991H142.698C146.97 214.916 151.003 214.202 154.26 212.76C156.667 211.695 158.654 210.234 160.004 208.334C160.112 208.185 160.215 208.031 160.313 207.877C160.453 207.657 160.589 207.433 160.719 207.209C160.874 206.943 161.028 206.672 161.173 206.401C161.294 206.177 161.411 205.944 161.528 205.715C161.734 205.304 161.925 204.889 162.107 204.473C163.724 200.809 164.757 196.491 165.379 191.935C166.108 186.645 166.281 181.034 166.183 175.75L166.187 175.741Z" fill="black"/>
<g id="Group_6">
<g id="Group_7">
<path id="Vector_13" d="M164.842 167.3C164.678 164.733 164.468 162.174 164.066 159.635C164.056 159.583 164.047 159.537 164.033 159.471C161.425 160.737 158.626 161.129 155.845 161.544C151.139 162.249 146.4 162.468 141.647 162.333C137.716 162.216 133.823 161.754 129.963 161.035C128.336 160.727 126.719 160.368 125.102 160.008C124.686 159.915 124.294 159.724 123.873 159.574C123.78 160.573 123.681 161.553 123.588 162.534C123.35 165.031 123.125 167.529 122.868 170.026C122.592 172.739 122.462 175.455 122.578 178.186C122.695 180.838 122.807 183.485 122.906 186.136C122.934 186.939 122.91 187.742 122.91 188.541C122.55 187.201 122.186 185.852 121.826 184.498C121.789 184.54 121.728 184.605 121.672 184.675C120.531 186.076 118.854 186.468 117.218 185.702C115.844 185.058 114.764 184.045 113.848 182.864C113.217 182.042 112.633 181.183 112.016 180.329C111.839 180.39 111.53 180.534 111.128 180.745H111.124C108.291 182.22 100.72 186.893 99.4863 188.013C99.5891 188.2 99.692 188.4 99.8041 188.587C102.594 193.288 105.898 197.592 110.025 201.191C113.703 204.398 117.634 207.283 121.999 209.529C124.055 210.584 126.205 211.415 128.425 212.022C130.023 212.461 131.566 213.128 133.239 213.296C133.337 213.305 133.435 213.324 133.547 213.291C133.454 213.24 133.36 213.184 133.262 213.133C130.963 211.924 129.07 210.224 127.696 208.049C126.462 206.098 125.453 204.006 124.901 201.738C124.752 201.131 124.583 200.524 124.434 199.922C124.434 199.908 124.429 199.889 124.425 199.875C124.401 199.777 124.41 199.67 124.467 199.548C124.527 199.721 124.597 199.894 124.654 200.066C124.672 200.122 124.691 200.178 124.71 200.234C125.298 201.999 125.92 203.75 126.878 205.355C127.733 206.779 128.874 207.965 130.019 209.151C131.781 210.981 133.837 212.353 136.225 213.245C137.324 213.656 138.427 213.94 139.59 214.015C139.59 214.015 139.59 214.02 139.595 214.015C139.777 214.029 139.969 214.038 140.156 214.038C140.642 214.043 141.128 214.034 141.609 214.015C143.418 213.954 145.217 213.772 147.026 213.609C149.709 213.371 152.256 212.647 154.691 211.536C155.565 211.135 156.368 210.659 157.097 210.089C157.107 210.08 157.111 210.075 157.121 210.07C157.962 209.408 158.696 208.619 159.313 207.69C159.317 207.68 159.327 207.666 159.336 207.652C159.406 207.55 159.472 207.442 159.537 207.335C160.514 205.724 161.378 204.067 161.981 202.279C163.164 198.778 163.958 195.188 164.486 191.533C164.561 191.024 164.631 190.515 164.692 190.006C164.697 189.992 164.697 189.978 164.697 189.964C165.103 186.72 165.309 183.457 165.3 180.189C165.29 175.89 165.117 171.595 164.846 167.305L164.842 167.3ZM124.663 191.169C124.625 190.977 124.616 190.786 124.569 190.595C124.06 188.438 123.709 186.258 123.569 184.036C123.364 180.875 123.093 177.72 123.275 174.55C123.378 172.767 123.415 170.974 123.593 169.195C123.812 167.062 124.149 164.938 124.434 162.809C124.513 162.207 124.574 161.605 124.654 161.007C124.658 160.937 124.733 160.881 124.775 160.821C124.836 160.877 124.943 160.933 124.948 160.993C124.99 161.278 125.027 161.567 125.013 161.857C124.929 163.804 124.943 165.769 124.714 167.702C124.27 171.38 124.191 175.063 124.233 178.756C124.261 181.403 124.415 184.054 124.527 186.701C124.588 188.148 124.691 189.591 124.775 191.038C124.789 191.267 124.817 191.496 124.836 191.724C124.817 191.724 124.798 191.724 124.78 191.734C124.738 191.547 124.696 191.36 124.663 191.169ZM163.22 196.71C162.972 197.821 162.678 198.923 162.388 200.024C161.659 202.779 160.607 205.383 158.794 207.629C158.135 208.451 157.434 209.225 156.523 209.781C156.406 209.856 156.27 209.898 156.144 209.958C156.125 209.926 156.107 209.898 156.093 209.87C156.153 209.795 156.219 209.72 156.28 209.646C156.864 208.983 157.481 208.348 158.018 207.652C159.476 205.766 160.64 203.712 161.36 201.439C162 199.427 162.547 197.382 163.14 195.351C163.29 194.847 163.463 194.352 163.626 193.853C163.687 193.937 163.697 194.012 163.683 194.082C163.533 194.955 163.411 195.842 163.22 196.71Z" fill="#70271F"/>
<path id="Vector_14" d="M112.292 177.841C111.642 176.002 110.871 174.228 109.717 172.645C109.511 172.365 109.24 172.136 108.992 171.884C108.731 171.614 108.427 171.581 108.095 171.749C107.291 172.164 106.478 172.557 105.688 172.995C103.038 174.466 100.379 175.927 97.7617 177.454C96.4765 178.2 95.2707 179.087 94.0369 179.923C93.705 180.152 93.6116 180.408 93.5789 180.81C93.6677 181.127 93.7284 181.45 93.8546 181.748C94.607 183.56 95.6072 185.212 96.9999 186.608C97.2196 186.827 97.4112 187.07 97.6402 187.28C98.0421 187.649 98.3319 187.668 98.7665 187.345C102.318 184.736 106.099 182.491 109.974 180.394C110.38 180.175 110.787 179.946 111.18 179.704C111.437 179.54 111.689 179.358 111.918 179.153C112.306 178.798 112.469 178.345 112.292 177.841Z" fill="#EBA920"/>
<path id="Vector_15" d="M163.575 158.02C163.248 157.814 162.897 157.627 162.533 157.492C160.939 156.913 159.271 156.643 157.593 156.442C153.415 155.938 149.218 155.826 145.016 155.784C141.09 155.76 137.174 155.938 133.257 156.232C131.182 156.386 129.112 156.568 127.084 157.063C126.27 157.263 125.481 157.567 124.686 157.852C124.49 157.922 124.312 158.066 124.144 158.197C123.966 158.328 123.98 158.482 124.167 158.589C124.396 158.72 124.63 158.879 124.882 158.944C126.149 159.266 127.406 159.644 128.691 159.859C131.351 160.298 134.015 160.718 136.692 161.017C139.969 161.381 143.264 161.451 146.563 161.343C149.797 161.241 153.017 161.003 156.219 160.508C158.275 160.195 160.322 159.836 162.299 159.154C162.738 159 163.159 158.771 163.566 158.538C163.851 158.374 163.851 158.188 163.575 158.02ZM157.887 158.603C157.691 158.757 157.457 158.902 157.219 158.972C156.597 159.159 155.976 159.336 155.34 159.462C151.942 160.111 148.503 160.298 145.053 160.354C143.203 160.386 141.352 160.316 139.501 160.246C136.772 160.144 134.061 159.873 131.393 159.266C130.879 159.149 130.378 158.949 129.883 158.753C129.668 158.669 129.509 158.491 129.519 158.225C129.523 157.959 129.705 157.81 129.92 157.73C130.304 157.59 130.696 157.427 131.094 157.38C132.706 157.184 134.323 156.969 135.94 156.876C138.875 156.708 141.815 156.619 144.937 156.488C147.834 156.629 150.905 156.75 153.975 156.937C154.994 156.997 156.008 157.217 157.023 157.399C157.312 157.455 157.607 157.599 157.859 157.768C158.186 157.982 158.191 158.356 157.887 158.603Z" fill="#802A2A"/>
<path id="Vector_16" d="M79.7732 151.255C79.7778 151.311 79.7451 151.372 79.7171 151.479C79.661 151.395 79.6236 151.367 79.6189 151.33C79.5114 150.438 79.4413 149.537 79.2918 148.65C79.1376 147.707 79.002 146.741 78.6936 145.84C78.0767 144.024 76.9503 142.493 75.5015 141.265C73.2769 139.384 70.8981 137.68 68.3603 136.261C65.5281 134.674 62.5697 133.399 59.4244 132.69L58.1018 131.719C59.6301 131.887 61.1256 132.237 62.5978 132.792C65.0187 133.703 67.4256 134.641 69.5754 136.102C71.0196 137.083 72.4263 138.128 73.8097 139.193C75.0108 140.112 76.1325 141.121 77.0859 142.311C78.4973 144.071 79.3198 146.041 79.4974 148.286C79.5722 149.276 79.6797 150.266 79.7732 151.255Z" fill="#818181"/>
<path id="Vector_17" d="M83.9326 155.42C83.9934 155.611 84.0495 155.802 84.1196 155.989C84.7271 157.553 85.2552 159.14 86.0825 160.62C88.8259 165.531 91.8403 170.269 94.9809 174.933C95.1071 175.119 95.2473 175.297 95.3875 175.474C95.4436 175.544 95.5278 175.6 95.5979 175.661C95.6306 175.642 95.6586 175.624 95.6913 175.61C95.6306 175.451 95.5979 175.274 95.5137 175.133C94.8174 173.994 94.1163 172.855 93.4013 171.73C91.5599 168.831 89.6811 165.96 87.8818 163.043C86.4984 160.797 85.3207 158.44 84.3065 156.003C84.2224 155.798 84.1102 155.606 84.0121 155.406C83.9887 155.41 83.9653 155.42 83.9373 155.424L83.9326 155.42Z" fill="#818181"/>
<path id="Vector_18" d="M97.3926 174.587C97.5001 174.508 97.5983 174.438 97.7291 174.34C95.5793 170.787 93.3874 167.281 90.859 164C90.8216 164.023 90.7842 164.046 90.7468 164.07C92.9574 167.566 95.1634 171.063 97.3926 174.587Z" fill="#818181"/>
<path id="Vector_19" d="M78.0158 137.568C77.913 137.414 77.8196 137.251 77.698 137.111C76.1324 135.271 74.3892 133.619 72.3702 132.274C71.1223 131.443 69.8091 130.771 68.3275 130.463C68.2901 130.454 68.2481 130.454 68.178 130.514C68.4677 130.664 68.7528 130.827 69.0519 130.953C70.454 131.551 71.8187 132.223 73.0525 133.119C74.6742 134.296 76.1324 135.654 77.4597 137.153C77.6092 137.321 77.7728 137.479 77.9317 137.638C77.9598 137.615 77.9878 137.591 78.0158 137.568Z" fill="#818181"/>
<path id="Vector_20" d="M89.0222 160.867C88.4848 159.77 87.8351 158.743 87.0593 157.8C87.6248 158.879 88.2184 159.943 89.0222 160.867Z" fill="#818181"/>
<path id="Vector_21" d="M66.888 129.917C66.7151 129.609 66.6544 129.59 65.7617 129.548C66.1076 129.763 66.4627 129.94 66.888 129.917Z" fill="#818181"/>
<path id="Vector_22" d="M130.122 158.332C130.36 158.416 130.589 158.533 130.837 158.584C131.912 158.808 132.996 159.014 134.075 159.219C134.16 159.238 134.262 159.229 134.347 159.196C135.758 158.626 137.253 158.44 138.744 158.286C141.964 157.959 145.199 157.903 148.428 158.029C150.573 158.113 152.728 158.239 154.821 158.79C155.808 159.047 156.616 158.556 157.481 158.29C157.481 158.248 157.481 158.211 157.481 158.169C157.303 158.099 157.135 158.001 156.953 157.968C155.887 157.786 154.826 157.543 153.756 157.469C151.62 157.319 149.48 157.207 147.344 157.189C144.287 157.161 141.231 157.165 138.179 157.282C135.931 157.371 133.688 157.646 131.449 157.865C131 157.912 130.561 158.085 130.117 158.202C130.117 158.244 130.117 158.29 130.122 158.332Z" fill="#4B1A16"/>
</g>
<g id="Group_8">
<path id="Vector_23" d="M164.692 189.95C164.692 189.95 161.593 205.299 148.161 206.947C131.533 208.983 124.387 199.87 124.387 199.87C124.387 199.87 119.232 202.765 115.25 200.094C108.833 195.79 105.16 188.172 104.314 187.224C103.468 186.281 111.679 180.329 111.679 180.329C111.679 180.329 103.075 184.134 98.6636 187.962C98.6636 187.962 103.365 196.715 110.198 202.312C117.035 207.909 125.027 212.507 134.131 213.698C134.131 213.698 144.049 214.855 152.068 212.75C162.467 210.024 164.547 195.109 164.687 189.941L164.692 189.95Z" fill="#3C1613"/>
<path id="Vector_24" d="M100.061 177.43C100.136 177.369 100.267 177.36 100.327 177.444C101.15 178.536 101.155 180.021 101.982 181.146C102.094 181.295 101.972 181.505 101.781 181.454C100.907 181.216 100.145 180.633 99.7478 179.797C99.3973 179.059 99.3506 177.99 100.056 177.43H100.061Z" fill="#FFCA80"/>
<path id="Vector_25" d="M106.024 174.713C107.057 173.864 108.342 174.274 109.086 175.283C109.903 176.389 110.044 177.678 109.291 178.854C109.114 179.129 108.702 179.092 108.553 178.817C108.198 178.163 107.861 177.379 107.398 176.8C107.169 176.515 106.852 176.324 106.604 176.058C106.445 175.885 106.412 175.661 106.277 175.497C106.211 175.418 106.071 175.343 105.992 175.259C105.851 175.11 105.861 174.839 106.02 174.709L106.024 174.713Z" fill="#FFCA80"/>
<path id="Vector_26" d="M148.764 201.173C148.241 199.249 147.731 197.326 147.311 195.379C146.082 189.68 145.853 183.751 145.633 177.944C145.53 175.171 145.353 172.384 145.745 169.625C145.913 168.448 145.689 166.105 145.796 165.932C145.885 165.788 145.857 164.621 145.965 164.48C147.708 164.695 150.335 164.812 152.082 164.896C154.746 165.027 159.887 164.644 162.738 163.402C162.86 164.07 162.528 169.125 162.458 171.408C162.771 178.009 162.023 184.643 160.78 191.113C160.476 192.705 160.088 194.273 159.733 195.856C159.677 196.108 159.046 197.289 158.99 197.541C157.625 199.819 156.606 201.019 154.751 202.9C152.634 203.47 150.274 202.83 148.764 201.168V201.173Z" fill="#802F27"/>
<path id="Vector_27" d="M158.195 165.881C158.392 165.848 158.588 165.806 158.784 165.755C159.56 167.8 160.135 169.821 160.5 171.982C160.887 174.27 160.972 176.524 160.775 178.835C160.682 179.918 160.532 180.992 160.369 182.066C160.196 183.214 160.093 184.362 159.626 185.431C159.205 186.398 159.121 187.532 158.887 188.559C158.77 189.082 158.569 189.577 158.387 190.081C158.224 190.539 158.144 190.875 157.695 191.117C157.494 191.225 157.289 191.15 157.13 191.015C156.765 190.702 156.775 190.31 156.714 189.857C156.639 189.329 156.555 188.802 156.536 188.27C156.504 187.289 156.672 186.239 156.49 185.273C156.102 183.163 156.462 180.903 156.56 178.765C156.649 176.814 156.681 174.811 156.504 172.865C156.406 171.796 156.251 170.731 156.074 169.672C155.891 168.56 155.845 167.435 155.765 166.315C155.756 166.208 155.765 166.11 155.779 166.012C156.569 166.096 157.42 166.1 158.191 165.886L158.195 165.881Z" fill="#9E3C2F"/>
</g>
<g id="Group_9">
<path id="Vector_28" d="M166.188 175.74C166.155 174.695 166.113 173.644 166.066 172.599C165.945 169.807 165.809 167.011 165.575 164.224C165.407 162.207 165.08 160.204 164.814 158.202C164.814 158.164 164.804 158.127 164.79 158.094C164.701 157.67 164.407 157.366 164.042 157.133C163.225 156.605 162.299 156.353 161.369 156.134C159.715 155.737 158.042 155.49 156.354 155.317C156.336 155.317 156.317 155.317 156.303 155.317C155.588 155.242 154.873 155.181 154.158 155.13C150.461 154.864 146.755 154.738 143.049 154.794C140.768 154.831 138.487 154.911 136.216 155.06C136.16 155.06 136.109 155.065 136.052 155.069C135.786 155.088 135.524 155.107 135.258 155.13C135.211 155.13 135.164 155.13 135.118 155.139C133.211 155.275 131.309 155.462 129.407 155.704C127.85 155.905 126.313 156.185 124.841 156.755C124.509 156.885 124.177 157.039 123.868 157.217C123.354 157.506 123.023 157.889 122.966 158.515C122.957 158.552 122.952 158.589 122.952 158.631C122.934 158.981 122.91 159.327 122.882 159.677C122.794 160.723 122.672 161.768 122.574 162.809C122.504 163.594 122.434 164.373 122.364 165.157C122.364 165.185 122.364 165.213 122.354 165.237C122.219 166.763 122.083 168.29 121.924 169.812C121.901 170.05 121.878 170.283 121.854 170.521C121.854 170.54 121.854 170.559 121.854 170.582C121.686 172.374 121.583 174.167 121.583 175.964C121.583 176.212 121.583 176.464 121.583 176.711C121.588 176.884 121.592 177.052 121.597 177.225C121.63 178.06 121.686 178.896 121.714 179.736C121.714 179.923 121.728 180.114 121.733 180.31C121.733 180.591 121.733 180.871 121.733 181.151C121.733 181.244 121.728 181.342 121.723 181.44C121.709 181.646 121.686 181.856 121.653 182.066C121.639 182.145 121.625 182.224 121.611 182.308C121.592 182.402 121.574 182.5 121.55 182.593C121.532 182.687 121.508 182.785 121.48 182.878C121.429 183.065 121.373 183.251 121.312 183.434C121.293 183.49 121.27 183.546 121.247 183.597C120.98 184.204 120.405 184.755 119.676 185.007C119.676 185.011 119.662 185.011 119.658 185.011C119.05 185.221 118.33 185.217 117.606 184.853C117.597 184.853 117.592 184.843 117.582 184.839C116.723 184.409 115.956 183.854 115.33 183.149C115.236 183.046 115.148 182.943 115.063 182.836C114.292 181.874 113.615 180.843 112.895 179.844C112.895 179.834 112.886 179.83 112.881 179.82C112.82 179.732 112.806 179.657 112.839 179.568C112.848 179.536 112.867 179.503 112.895 179.466C112.909 179.447 112.923 179.424 112.932 179.405C113.077 179.181 113.185 178.952 113.245 178.719C113.362 178.317 113.348 177.902 113.166 177.477C112.853 176.739 112.53 176.002 112.203 175.269C112.054 174.942 111.909 174.615 111.755 174.293C111.67 174.111 111.586 173.929 111.498 173.752C111.455 173.654 111.409 173.56 111.362 173.467C111.325 173.392 111.287 173.317 111.25 173.247C110.979 172.767 110.624 172.328 110.306 171.88C110.17 171.688 109.988 171.525 109.82 171.361C109.698 171.245 109.572 171.133 109.441 171.039C109.432 171.039 109.427 171.025 109.418 171.025L109.334 170.969C108.992 170.741 108.628 170.619 108.198 170.722C108.156 170.731 108.114 170.741 108.072 170.755C108.03 170.764 107.988 170.778 107.946 170.797C107.908 170.755 107.885 170.736 107.871 170.708C107.838 170.643 107.805 170.582 107.773 170.517C107.768 170.507 107.763 170.498 107.754 170.489C106.497 168.038 105.127 165.648 103.735 163.276C103.721 163.253 103.707 163.225 103.693 163.201C103.024 162.067 102.351 160.933 101.688 159.798C100.706 158.127 99.7201 156.46 98.7153 154.808C98.7013 154.789 98.6919 154.771 98.6826 154.752C98.2199 154 97.7619 153.253 97.2945 152.511C96.4579 151.181 95.5139 149.92 94.3642 148.837C94.2941 148.767 94.224 148.702 94.1539 148.637C93.9856 148.482 93.8174 148.338 93.6445 148.202C92.8406 147.554 91.9573 147.035 91.0319 146.587C91.0086 146.578 90.9899 146.569 90.9665 146.559C90.5132 146.34 90.0505 146.139 89.5784 145.952C89.2466 145.822 88.9195 145.686 88.5923 145.551C88.569 145.542 88.5456 145.532 88.5222 145.523C88.5175 145.523 88.5129 145.523 88.5082 145.513C87.8446 145.247 87.237 144.893 86.6762 144.454C86.5266 144.346 86.377 144.22 86.2322 144.094C86.148 144.02 86.0686 143.95 85.9845 143.87C84.3394 142.395 82.928 140.701 81.4464 139.067C80.1098 137.592 78.7311 136.168 77.2636 134.828C77.2262 134.795 77.1841 134.758 77.1467 134.725C77.0579 134.641 76.9691 134.566 76.8803 134.487C75.983 133.68 75.053 132.914 74.0856 132.186C73.1088 131.457 72.0712 130.841 70.9916 130.304C70.6832 130.15 70.3701 130.006 70.0569 129.866C70.0102 129.842 69.9588 129.819 69.912 129.8C64.3271 129.095 58.3823 128.745 55.8539 128.619C55.8726 128.605 55.896 128.591 55.9147 128.577C55.8025 128.568 55.695 128.549 55.5969 128.521C55.5642 128.549 55.5268 128.572 55.4941 128.601C54.9192 128.572 54.5968 128.558 54.5968 128.558L54.4939 128.498C54.4145 128.516 54.3397 128.54 54.2509 128.549C54.1107 128.568 53.9752 128.577 53.835 128.587L54.765 129.268C54.765 129.268 54.7557 129.277 54.751 129.287C54.779 129.305 54.8024 129.324 54.8304 129.338C54.8304 129.338 54.8398 129.333 54.8445 129.329L58.1019 131.724L59.4246 132.695L66.1498 137.643L66.1311 137.732C65.8647 137.606 65.603 137.479 65.3366 137.367C65.5983 137.493 65.8647 137.624 66.1265 137.755C66.5144 137.956 66.8976 138.166 67.2808 138.385C68.767 139.244 70.2158 140.154 71.5665 141.205C72.0525 141.578 72.5199 141.97 72.9779 142.386C76.2073 145.313 78.3759 148.875 79.2405 153.179C79.2919 153.426 79.3386 153.674 79.3854 153.921C79.4321 154.168 79.4789 154.416 79.5209 154.663C79.5396 154.766 79.5536 154.864 79.5723 154.967C79.7873 156.115 80.1098 157.231 80.5211 158.304C80.5584 158.402 80.6005 158.501 80.6426 158.599C81.0445 159.598 81.5212 160.569 82.0727 161.512C82.1895 161.712 82.3064 161.913 82.4326 162.114C83.5636 164.032 84.774 165.914 85.9564 167.804C87.952 170.993 89.957 174.176 91.9666 177.355C92.004 177.421 92.0461 177.482 92.0882 177.542C92.4714 178.149 92.8733 178.737 93.2565 179.321C93.1117 179.554 92.9481 179.764 92.8313 179.998C92.8079 180.035 92.7892 180.072 92.7752 180.11C92.7705 180.11 92.7705 180.124 92.7705 180.128C92.7471 180.189 92.7238 180.254 92.7051 180.32C92.691 180.371 92.677 180.423 92.6723 180.474C92.663 180.511 92.6583 180.553 92.6537 180.591C92.6537 180.651 92.6443 180.707 92.6443 180.768C92.6443 180.843 92.649 180.917 92.6583 180.987C92.6583 181.048 92.6724 181.109 92.6864 181.169C92.6957 181.235 92.7097 181.3 92.7284 181.366C92.7565 181.459 92.7845 181.552 92.8172 181.646C92.8686 181.786 92.9201 181.926 92.9761 182.061C92.9808 182.084 92.9902 182.108 93.0088 182.131C93.4482 183.256 94.009 184.311 94.696 185.291C94.696 185.305 94.71 185.315 94.7194 185.329C95.1493 185.95 95.6307 186.538 96.1588 187.098C96.3972 187.355 96.6309 187.621 96.8786 187.864C96.8926 187.878 96.9019 187.887 96.916 187.901C96.916 187.901 96.916 187.901 96.9253 187.91C97.3693 188.326 97.86 188.597 98.505 188.508C98.5517 188.508 98.5984 188.494 98.6452 188.485C98.6685 188.517 98.7013 188.55 98.7246 188.592C98.762 188.653 98.7994 188.718 98.8321 188.779C98.8555 188.821 98.8789 188.858 98.9022 188.895C98.9583 188.989 99.0144 189.082 99.0705 189.175L99.421 189.764C100.099 190.875 100.809 191.958 101.547 193.013C101.561 193.031 101.571 193.05 101.585 193.069C101.739 193.288 101.893 193.508 102.052 193.722C102.323 194.096 102.594 194.465 102.884 194.833C102.982 194.959 103.085 195.09 103.183 195.221C104.553 196.999 106.039 198.685 107.646 200.262C107.675 200.295 107.703 200.319 107.731 200.347C109.184 201.775 110.736 203.115 112.395 204.361C115.194 206.467 118.026 208.521 121.134 210.154C121.345 210.262 121.55 210.369 121.761 210.472C123.84 211.508 126.032 212.255 128.229 212.988L128.285 213.002C128.322 213.016 128.355 213.025 128.392 213.039C131.22 213.978 134.118 214.519 137.081 214.757C137.983 214.832 138.885 214.921 139.787 215.005H142.502C142.563 215 142.628 214.995 142.689 214.986H142.703C143.558 214.907 144.409 214.804 145.269 214.753C148.386 214.566 151.4 213.968 154.265 212.755C154.564 212.629 154.859 212.498 155.153 212.358C157.126 211.424 158.761 210.117 160.009 208.329C160.117 208.18 160.219 208.026 160.318 207.872C160.458 207.652 160.593 207.428 160.724 207.204C160.878 206.938 161.033 206.667 161.178 206.397C161.299 206.172 161.416 205.939 161.533 205.71C161.738 205.3 161.93 204.884 162.112 204.469C162.715 203.082 163.206 201.649 163.627 200.178C164.402 197.466 164.973 194.712 165.384 191.93C165.543 190.851 165.678 189.768 165.795 188.685C166.113 185.665 166.281 182.635 166.258 179.601C166.248 178.317 166.225 177.029 166.188 175.745V175.74ZM124.144 158.197C124.312 158.066 124.49 157.922 124.686 157.852C125.481 157.567 126.271 157.263 127.084 157.063C129.112 156.568 131.183 156.386 133.258 156.232C137.174 155.938 141.091 155.76 145.016 155.784C149.218 155.826 153.415 155.938 157.593 156.442C159.271 156.643 160.939 156.913 162.533 157.492C162.897 157.628 163.248 157.814 163.575 158.02C163.851 158.188 163.851 158.374 163.566 158.538C163.159 158.771 162.739 159 162.299 159.154C160.322 159.836 158.275 160.195 156.219 160.508C153.018 161.003 149.797 161.241 146.563 161.343C143.264 161.451 139.969 161.381 136.693 161.017C134.015 160.718 131.351 160.298 128.692 159.859C127.406 159.644 126.149 159.266 124.883 158.944C124.63 158.879 124.397 158.72 124.168 158.589C123.981 158.482 123.967 158.328 124.144 158.197ZM98.7667 187.346C98.332 187.668 98.0423 187.649 97.6404 187.28C97.4114 187.07 97.2197 186.827 97.0001 186.608C95.6074 185.212 94.6072 183.56 93.8548 181.748C93.7286 181.45 93.6678 181.127 93.579 180.81C93.6117 180.409 93.7052 180.152 94.037 179.923C95.2709 179.087 96.4766 178.2 97.7619 177.454C100.379 175.927 103.038 174.466 105.688 172.995C106.478 172.557 107.291 172.164 108.095 171.749C108.427 171.581 108.731 171.614 108.992 171.884C109.24 172.136 109.511 172.365 109.717 172.645C110.871 174.228 111.642 176.002 112.292 177.841C112.47 178.345 112.306 178.798 111.918 179.153C111.689 179.358 111.437 179.54 111.18 179.704C110.787 179.946 110.381 180.175 109.974 180.395C106.1 182.491 102.319 184.736 98.7667 187.346ZM164.692 189.96C164.692 189.96 164.692 189.988 164.687 190.002C164.627 190.511 164.557 191.019 164.482 191.528C163.954 195.183 163.159 198.773 161.977 202.274C161.374 204.062 160.509 205.72 159.532 207.33C159.467 207.438 159.402 207.545 159.332 207.648C159.322 207.662 159.313 207.676 159.308 207.685C158.691 208.614 157.957 209.403 157.116 210.066C157.107 210.07 157.102 210.075 157.093 210.084C156.364 210.654 155.56 211.13 154.686 211.532C152.251 212.643 149.704 213.366 147.021 213.604C145.213 213.768 143.413 213.95 141.605 214.01C141.123 214.029 140.637 214.038 140.151 214.034C139.964 214.034 139.773 214.024 139.59 214.01C139.586 214.015 139.586 214.01 139.586 214.01C138.422 213.936 137.319 213.651 136.221 213.24C133.833 212.349 131.776 210.976 130.014 209.146C128.869 207.96 127.729 206.775 126.874 205.351C125.915 203.745 125.294 201.994 124.705 200.23C124.686 200.174 124.668 200.118 124.649 200.062C124.593 199.889 124.523 199.716 124.462 199.544C124.406 199.665 124.397 199.772 124.42 199.87C124.42 199.884 124.429 199.903 124.429 199.917C124.579 200.519 124.747 201.126 124.897 201.733C125.448 204.002 126.458 206.093 127.691 208.044C129.065 210.22 130.958 211.919 133.258 213.128C133.356 213.179 133.449 213.236 133.543 213.287C133.431 213.32 133.332 213.301 133.234 213.292C131.561 213.123 130.019 212.456 128.421 212.017C126.201 211.41 124.051 210.579 121.994 209.524C117.629 207.279 113.699 204.394 110.021 201.187C105.894 197.588 102.59 193.283 99.7995 188.583C99.6874 188.396 99.5846 188.195 99.4817 188.008C100.716 186.888 108.287 182.215 111.119 180.74H111.124C111.526 180.53 111.834 180.385 112.012 180.324C112.629 181.179 113.213 182.038 113.844 182.859C114.76 184.04 115.839 185.053 117.213 185.698C118.849 186.463 120.527 186.071 121.667 184.671C121.723 184.601 121.784 184.535 121.821 184.493C122.181 185.847 122.546 187.196 122.906 188.536C122.906 187.738 122.929 186.935 122.901 186.132C122.803 183.48 122.691 180.833 122.574 178.182C122.457 175.451 122.588 172.734 122.864 170.022C123.121 167.524 123.345 165.027 123.583 162.529C123.677 161.549 123.775 160.569 123.868 159.57C124.289 159.719 124.682 159.91 125.098 160.004C126.715 160.363 128.332 160.723 129.958 161.031C133.818 161.75 137.712 162.212 141.642 162.328C146.395 162.464 151.134 162.244 155.84 161.54C158.621 161.124 161.421 160.732 164.028 159.467C164.042 159.532 164.052 159.579 164.061 159.63C164.463 162.17 164.673 164.728 164.837 167.295C165.108 171.586 165.281 175.88 165.29 180.18C165.3 183.448 165.094 186.711 164.687 189.955L164.692 189.96Z" fill="black"/>
<path id="Vector_29" d="M124.836 191.724C124.812 191.496 124.784 191.267 124.77 191.038C124.686 189.591 124.588 188.148 124.523 186.701C124.41 184.054 124.256 181.403 124.228 178.756C124.186 175.068 124.266 171.38 124.71 167.706C124.943 165.774 124.925 163.808 125.013 161.857C125.027 161.572 124.985 161.283 124.948 160.998C124.939 160.933 124.836 160.881 124.775 160.821C124.733 160.881 124.658 160.942 124.654 161.007C124.574 161.609 124.513 162.212 124.434 162.809C124.153 164.938 123.812 167.062 123.593 169.195C123.41 170.974 123.378 172.767 123.275 174.55C123.093 177.72 123.364 180.875 123.565 184.036C123.705 186.258 124.055 188.433 124.569 190.595C124.616 190.781 124.625 190.977 124.663 191.169C124.696 191.355 124.742 191.542 124.78 191.729C124.798 191.729 124.817 191.724 124.836 191.72V191.724Z" fill="black"/>
<path id="Vector_30" d="M156.144 209.958C156.27 209.902 156.406 209.856 156.523 209.786C157.434 209.23 158.13 208.455 158.794 207.634C160.603 205.388 161.659 202.783 162.388 200.029C162.678 198.927 162.972 197.826 163.22 196.715C163.411 195.846 163.533 194.964 163.687 194.086C163.701 194.016 163.687 193.946 163.626 193.858C163.463 194.357 163.29 194.857 163.145 195.361C162.551 197.392 162.005 199.432 161.364 201.448C160.645 203.722 159.481 205.776 158.023 207.662C157.485 208.357 156.868 208.992 156.284 209.66C156.219 209.734 156.158 209.809 156.093 209.879C156.111 209.907 156.13 209.935 156.149 209.968L156.144 209.958Z" fill="black"/>
<path id="Vector_31" d="M157.859 157.768C157.607 157.6 157.312 157.455 157.023 157.399C156.009 157.217 154.994 156.997 153.976 156.937C150.905 156.75 147.834 156.629 144.937 156.489C141.815 156.619 138.875 156.708 135.94 156.876C134.323 156.969 132.706 157.184 131.094 157.38C130.696 157.427 130.304 157.59 129.921 157.73C129.706 157.81 129.523 157.959 129.519 158.225C129.509 158.491 129.668 158.669 129.883 158.753C130.379 158.949 130.879 159.149 131.393 159.266C134.061 159.873 136.772 160.144 139.501 160.246C141.352 160.316 143.203 160.386 145.054 160.354C148.503 160.298 151.943 160.111 155.34 159.462C155.976 159.336 156.597 159.159 157.219 158.972C157.457 158.902 157.691 158.757 157.887 158.603C158.191 158.356 158.186 157.982 157.859 157.768ZM157.481 158.286C156.621 158.557 155.812 159.047 154.826 158.79C152.728 158.239 150.578 158.113 148.428 158.029C145.199 157.903 141.964 157.959 138.744 158.286C137.249 158.44 135.758 158.627 134.346 159.196C134.267 159.229 134.164 159.238 134.075 159.219C132.996 159.014 131.916 158.809 130.837 158.585C130.594 158.533 130.36 158.417 130.126 158.332C130.122 158.286 130.122 158.244 130.117 158.197C130.561 158.085 131 157.908 131.449 157.861C133.692 157.642 135.936 157.366 138.184 157.277C141.235 157.161 144.292 157.156 147.348 157.184C149.484 157.203 151.629 157.315 153.761 157.464C154.835 157.539 155.896 157.782 156.957 157.964C157.14 157.996 157.312 158.094 157.485 158.164C157.485 158.206 157.485 158.248 157.481 158.286Z" fill="black"/>
</g>
</g>
</g>
</g>
</g>
</g>
</g>
<defs>
<clipPath id="clip0_87_34183">
<rect width="194" height="215" fill="white"/>
</clipPath>
</defs>
</svg>
