<svg width="282" height="282" viewBox="0 0 282 282" fill="none" xmlns="http://www.w3.org/2000/svg">
<path d="M141 281.999C218.872 281.999 282 218.871 282 140.999C282 63.1268 218.872 -0.000976562 141 -0.000976562C63.1278 -0.000976562 0 63.1268 0 140.999C0 218.871 63.1278 281.999 141 281.999Z" fill="#4B6DD4"/>
<path d="M141 271.036C69.2945 271.036 10.9629 212.697 10.9629 140.999C10.9629 69.3006 69.3016 10.9619 141 10.9619C212.698 10.9619 271.037 69.3006 271.037 140.999C271.037 212.697 212.705 271.036 141 271.036Z" fill="white"/>
<path d="M140.999 14.1067C211.076 14.1067 267.892 70.9155 267.892 140.999C267.892 211.083 211.083 267.892 140.999 267.892C70.915 267.892 14.1062 211.083 14.1062 140.999C14.1062 70.9155 70.915 14.1067 140.999 14.1067ZM140.999 7.81104C67.5592 7.81104 7.81763 67.5597 7.81763 140.992C7.81763 214.425 67.5663 274.174 140.999 274.174C214.432 274.174 274.187 214.425 274.187 140.992C274.187 67.5597 214.439 7.81809 140.999 7.81809V7.81104Z" fill="#282725"/>
<path d="M240.51 116.705C240.031 111.953 236.344 108.054 229.541 105.1C228.406 104.607 227.158 104.135 225.776 103.662C211.415 71.1053 178.872 48.3691 141.007 48.3691C89.8522 48.3691 48.3771 89.8372 48.3771 140.999C48.3771 192.161 89.8452 233.629 141.007 233.629C192.169 233.629 233.637 192.161 233.637 140.999C233.637 138.517 233.51 136.071 233.319 133.639C233.989 133.075 234.645 132.468 235.258 131.827L235.315 131.771L235.364 131.714L235.829 131.192C239.432 127.096 241.032 122.105 240.517 116.705H240.51Z" fill="#282725"/>
<path d="M174.141 71.6411C168.706 71.6411 164.074 75.0745 162.255 79.8825C162.678 81.2996 162.918 82.8012 162.918 84.3522C162.918 85.9032 162.678 87.419 162.255 88.8431C162.41 89.2449 162.579 89.6397 162.776 90.0275C169.826 91.0427 176.693 92.1354 183.207 93.2564C185.485 90.9792 186.866 87.8349 186.866 84.3663C186.866 77.3587 181.156 71.6482 174.148 71.6482L174.141 71.6411Z" fill="white"/>
<path d="M179.161 81.5465V77.9229C177.299 77.937 175.882 79.4386 175.882 81.2857C175.882 83.1328 177.419 84.7684 179.273 84.7684C180.923 84.7684 182.333 83.5487 182.622 82.0823C182.636 81.9977 182.742 81.1235 182.516 80.4749C182.22 79.636 181.868 79.2694 181.868 79.1777L179.161 81.5465Z" fill="#282725"/>
<path d="M147.324 70.2803C139.562 70.2803 133.245 76.5971 133.245 84.3591C133.245 92.1211 139.562 98.4309 147.324 98.4309C155.086 98.4309 161.402 92.1141 161.402 84.3591C161.402 76.6041 155.086 70.2803 147.324 70.2803Z" fill="white"/>
<path d="M156.149 81.5676V77.5562C154.091 77.5703 152.519 79.234 152.519 81.2785C152.519 83.323 154.218 85.1349 156.276 85.1349C158.102 85.1349 159.66 83.7813 159.985 82.1598C160.006 82.0681 160.119 81.0952 159.865 80.3832C159.54 79.4526 159.146 79.0508 159.146 78.945L156.142 81.5676H156.149Z" fill="#282725"/>
<path d="M236.42 117.093C236.047 113.392 232.282 110.769 227.904 108.865C226.191 108.118 224.386 107.505 222.652 106.962C220.438 106.299 218.351 105.785 216.737 105.369L216.469 105.305C202.179 101.731 182.7 98.0649 163.016 95.2942C162.769 95.2519 162.544 95.2308 162.311 95.1885C158.652 100.687 152.631 104.29 145.849 104.29C139.067 104.29 133.152 100.772 129.472 95.3788C120.497 97.1343 113.032 100.525 107.18 105.573C95.4136 115.683 89.5833 132.229 89.3577 156.15C89.2519 165.851 88.3425 180.176 87.3484 193.783C88.7937 192.894 91.381 191.343 94.7298 189.609L92.8051 186.881C92.3892 186.281 92.5372 185.457 93.1364 185.041C93.7357 184.603 94.5606 184.752 94.9765 185.351L97.1056 188.389C99.0302 187.459 101.117 186.486 103.352 185.534L99.7987 183.447C99.1783 183.074 98.9527 182.27 99.3264 181.65C99.7 181.029 100.504 180.825 101.145 181.177L106.334 184.237L106.56 180.973C106.602 180.247 107.243 179.732 107.97 179.753C108.696 179.795 109.253 180.437 109.189 181.163L109.041 183.356C111.191 182.608 113.405 181.91 115.682 181.332C116.387 181.149 117.106 181.558 117.297 182.284C117.459 182.989 117.05 183.708 116.345 183.877C113.779 184.54 111.255 185.344 108.837 186.232L108.752 187.388C108.71 188.093 108.132 188.608 107.448 188.608H107.342C106.637 188.566 106.123 187.966 106.123 187.282C103.437 188.354 100.913 189.496 98.6355 190.61C98.9245 191.188 98.7835 191.914 98.2407 192.302C98.0151 192.464 97.7472 192.528 97.4793 192.528C97.0633 192.528 96.6544 192.344 96.4006 191.971L96.2737 191.809C90.9792 194.537 87.5458 196.793 87.4612 196.835C87.3555 196.92 87.2145 196.92 87.0876 196.962C86.7562 201.615 86.3826 206.162 86.0724 210.322C101.145 222.293 120.237 229.448 140.971 229.448C146.392 229.448 151.701 228.955 156.854 228.024C153.879 208.651 149.579 167.5 149.099 153.894C149.72 154.056 150.361 154.246 150.982 154.387C155.43 155.424 160.351 156.079 165.314 156.079C176.601 156.079 187.959 152.709 193.683 143.114C194.41 141.895 194.015 140.322 192.795 139.617C191.597 138.87 190.024 139.286 189.298 140.485C189.214 140.633 189.115 140.753 189.03 140.879C188.72 140.774 188.368 140.696 187.938 140.633C187.233 140.527 185.745 141.479 184.547 142.226C182.707 143.382 180.641 144.665 178.3 144.665C177.948 144.665 177.553 144.644 177.186 144.56C174.832 144.122 173.358 141.972 172.075 140.09C171.518 139.265 170.461 137.714 169.967 137.545C169.326 137.418 167.507 138.539 166.329 139.279C163.954 140.724 161.282 142.381 158.349 141.803C156.241 141.387 154.831 140.167 153.717 139.173C152.702 138.285 152.039 137.728 151.087 137.538C149.706 137.291 148.789 135.944 149.064 134.563C149.311 133.181 150.657 132.286 152.039 132.539C154.394 132.998 155.888 134.295 157.087 135.352C158.039 136.177 158.617 136.656 159.343 136.797C160.316 137.002 162.156 135.846 163.643 134.936C165.942 133.512 168.339 132.018 170.982 132.539C173.443 133.033 174.952 135.247 176.298 137.213C176.834 138.017 177.764 139.364 178.202 139.568C178.97 139.695 180.5 138.743 181.839 137.89C183.842 136.628 186.098 135.204 188.664 135.578C191.477 135.994 192.901 137.002 194.043 137.834C195.037 138.539 195.573 138.912 197.187 138.99C207.692 139.547 220.805 137.46 228.947 131.771C230.188 130.946 231.302 129.994 232.275 128.979C232.437 128.796 232.606 128.605 232.769 128.422C235.603 125.193 236.822 121.393 236.406 117.093H236.42ZM102.132 197.843C101.907 198.006 101.639 198.09 101.385 198.09C100.969 198.09 100.56 197.886 100.292 197.512L99.982 197.075C99.5661 196.476 99.7141 195.651 100.313 195.235C100.913 194.819 101.723 194.967 102.153 195.566L102.464 196.003C102.88 196.603 102.731 197.427 102.132 197.843ZM116.112 191.512C115.866 191.95 115.429 192.175 114.977 192.175C114.752 192.175 114.519 192.112 114.315 191.992L110.55 189.778C109.93 189.405 109.704 188.601 110.071 187.98C110.444 187.339 111.248 187.134 111.889 187.508L115.633 189.722C116.275 190.095 116.479 190.899 116.105 191.52L116.112 191.512ZM128.704 184.237C128.478 184.378 128.231 184.462 127.956 184.462C127.54 184.462 127.132 184.279 126.864 183.906L123.31 178.78C122.894 178.181 123.043 177.356 123.642 176.94C124.241 176.524 125.066 176.672 125.482 177.271L129.042 182.397C129.458 182.996 129.31 183.821 128.711 184.237H128.704Z" fill="white"/>
<path d="M191.964 147.676C192.634 146.64 193.748 145.801 194.869 145.279C194.128 144.807 193.473 144.334 192.881 143.862C192.006 143.538 191.259 143.608 190.603 144.102C189.447 144.969 188.876 146.816 188.771 147.81C189.617 148.423 190.47 149.015 191.323 149.572C191.365 148.924 191.569 148.282 191.957 147.676H191.964Z" fill="#E5D2AD"/>
<path d="M189.757 142.96C190.194 142.635 190.674 142.445 191.174 142.339C190.469 141.634 189.919 140.993 189.525 140.471C187.374 140.189 184.512 140.964 182.926 142.79C184.322 144.257 185.88 145.61 187.501 146.865C187.804 145.533 188.524 143.883 189.757 142.96Z" fill="#E5D2AD"/>
<path d="M206.029 156.615C208.807 157.151 210.259 156.235 210.908 153.563C211.162 152.533 211.091 151.645 210.731 150.954C211.042 152.223 210.668 153.591 210.245 154.19C210.041 154.472 209.653 154.543 209.364 154.338C209.082 154.134 209.018 153.746 209.216 153.464C209.491 153.083 209.808 151.899 209.463 150.989C209.23 150.383 208.743 150.009 207.975 149.847C207.376 149.713 206.967 150.129 206.692 150.609C206.988 150.468 207.362 150.383 207.869 150.411C208.215 150.432 208.483 150.728 208.461 151.081C208.44 151.426 208.13 151.694 207.792 151.673C207.298 151.645 207.108 151.807 207.009 151.934C206.473 152.653 206.939 154.676 207.249 155.551C207.326 155.769 207.277 156.009 207.129 156.178C207.009 156.312 206.833 156.39 206.657 156.39C206.607 156.39 206.565 156.39 206.516 156.376C204.986 156.03 204.542 153.661 205 151.574C205.204 150.637 205.571 149.904 206.043 149.389C202.095 148.74 198.958 147.577 196.498 146.259C195.426 146.484 193.917 147.288 193.156 148.472C192.712 149.156 192.613 149.84 192.839 150.538C198.916 154.225 204.683 156.376 206.022 156.636L206.029 156.615Z" fill="#E5D2AD"/>
<path d="M206.691 150.602C206.988 150.461 207.361 150.376 207.869 150.404C208.214 150.425 208.482 150.721 208.461 151.074C208.44 151.419 208.13 151.687 207.791 151.666C207.298 151.638 207.107 151.8 207.009 151.927C206.663 152.392 206.734 153.4 206.91 154.289C207.234 154.648 207.629 154.895 208.073 154.895C208.546 154.895 208.962 154.634 209.293 154.239C209.095 154.028 209.039 153.718 209.215 153.471C209.49 153.09 209.808 151.906 209.462 150.996C209.229 150.39 208.743 150.016 207.975 149.854C207.693 149.791 207.453 149.854 207.248 149.988C207.121 150.08 207.002 150.193 206.896 150.32C206.818 150.411 206.755 150.517 206.691 150.623V150.602Z" fill="#AC2535"/>
<path d="M211.394 149.382C210.47 148.402 209.067 147.937 207.714 148.141C203.315 147.598 199.902 146.365 197.294 144.969L197.315 144.729C197.174 144.715 197.012 144.729 196.857 144.729C193.205 142.684 191.245 140.358 190.526 139.364L190.357 139.124L190.068 139.075C187.304 138.581 183.321 139.597 181.375 142.41L181.044 142.889L181.439 143.319C184.343 146.477 188.066 149.255 191.746 151.525C191.788 151.61 191.802 151.701 191.851 151.793L192.021 151.694C198.041 155.367 203.879 157.68 205.747 158.039C206.325 158.152 206.868 158.209 207.375 158.209C209.963 158.209 211.619 156.763 212.317 153.908C212.762 152.089 212.43 150.489 211.394 149.382ZM191.964 147.676C191.576 148.282 191.372 148.924 191.33 149.572C190.47 149.015 189.616 148.423 188.778 147.81C188.876 146.816 189.447 144.969 190.611 144.102C191.266 143.608 192.014 143.538 192.888 143.862C193.48 144.334 194.136 144.807 194.876 145.279C193.755 145.801 192.634 146.64 191.971 147.676H191.964ZM182.919 142.783C184.505 140.964 187.368 140.182 189.518 140.464C189.913 140.985 190.455 141.627 191.167 142.332C190.667 142.438 190.188 142.628 189.75 142.952C188.517 143.876 187.798 145.526 187.494 146.858C185.873 145.603 184.315 144.25 182.919 142.783ZM210.9 153.556C210.252 156.228 208.8 157.137 206.022 156.608C204.682 156.347 198.915 154.197 192.838 150.51C192.62 149.812 192.719 149.135 193.156 148.444C193.917 147.26 195.426 146.456 196.497 146.231C198.958 147.549 202.095 148.712 206.043 149.361C205.571 149.875 205.204 150.616 205 151.546C204.541 153.633 204.978 156.002 206.515 156.347C206.558 156.354 206.607 156.361 206.656 156.361C206.833 156.361 207.009 156.284 207.129 156.15C207.277 155.981 207.326 155.741 207.249 155.523C206.938 154.655 206.466 152.625 207.009 151.906C207.101 151.779 207.298 151.61 207.791 151.645C208.13 151.666 208.44 151.405 208.461 151.053C208.482 150.707 208.214 150.404 207.869 150.383C207.361 150.362 206.988 150.439 206.692 150.58C206.967 150.094 207.375 149.678 207.975 149.819C208.743 149.981 209.23 150.355 209.462 150.961C209.815 151.871 209.49 153.055 209.216 153.436C209.011 153.718 209.082 154.113 209.364 154.31C209.646 154.521 210.04 154.444 210.245 154.162C210.668 153.57 211.041 152.202 210.731 150.926C211.091 151.617 211.154 152.498 210.907 153.534L210.9 153.556Z" fill="#282725"/>
<g opacity="0.68">
<path fill-rule="evenodd" clip-rule="evenodd" d="M227.446 64.0415C224.936 66.7134 221.567 69.2303 218.006 69.752C209.962 70.9223 203.356 78.2684 201.164 80.5385C200.621 81.1448 200.099 81.7652 199.627 82.3926C195.052 88.0185 191.435 94.8782 192.521 102.457C193.24 102.097 194.325 102.097 195.044 101.738C195.404 103.782 196.37 105.629 197.716 107.124C198.393 107.871 199.162 108.534 200.001 109.084C202.264 110.762 205.154 111.121 207.678 109.676C206.959 113.286 209.842 115.09 212.373 116.895C208.764 120.505 205.154 125.919 207.319 130.615C208.404 133.865 213.819 133.138 214.897 136.854C215.334 138.271 215.334 139.85 214.933 141.274C214.136 144.108 212.113 146.484 210.131 148.761C210.9 149.093 211.379 149.826 211.591 150.672C215.017 146.35 218.443 142.028 221.87 137.714C221.44 137.086 220.897 136.537 220.283 136.057C217.421 133.872 210.562 132.426 212.366 129.176C215.257 122.317 224.64 113.652 213.812 108.957C215.976 107.512 219.585 105.347 217.428 101.681C216.942 100.596 216.328 99.6158 215.623 98.7486C212.077 94.434 206.113 93.1298 201.904 89.8233C199.38 87.659 202.99 84.0494 204.358 81.4197C204.795 80.4398 205.88 79.3541 206.599 78.9945C213.819 76.4706 222.124 75.0254 226.452 68.8848C227.573 67.3903 227.792 65.7265 227.432 64.0415H227.446ZM202.327 98.8896C204.724 98.5865 207.354 98.7133 209.589 99.8625C210.336 100.243 211.034 100.744 211.661 101.371C212.747 102.09 213.826 104.262 212.747 105.34C209.856 107.505 205.528 107.505 203.617 104.05C202.99 103.19 202.503 102.203 202.214 101.16C201.883 100.37 201.693 99.2703 202.327 98.8825V98.8896Z" fill="#CDCBC2"/>
</g>
<path d="M36.0951 106.461C44.5198 108.252 46.9803 111.855 45.246 120.011L42.7714 131.651L18.7944 126.554L21.2478 115.027C22.9821 106.87 26.7468 104.473 35.1786 106.264L36.1021 106.461H36.0951ZM25.7528 121.584L38.4216 124.277L39.4086 119.659C40.4379 114.816 38.6613 113.582 34.4807 112.693L34.0999 112.616C29.9193 111.728 27.762 112.129 26.7327 116.966L25.7528 121.584Z" fill="#282725"/>
<path d="M51.7395 100.342L49.3072 106.166L26.6838 96.7115L29.116 90.8882L51.7395 100.342Z" fill="#282725"/>
<path d="M56.1807 91.6352L52.7403 96.9227L32.1896 83.5489L39.874 71.7331C43.3144 66.4456 45.9088 65.6067 49.8991 68.2081L50.5477 68.6311C53.6286 70.6404 54.4252 72.4311 53.2126 75.0678L53.4171 75.2017C55.3699 73.2277 56.5896 72.5721 60.3754 75.0325L65.0143 78.0499L61.5598 83.3656L57.217 80.5385C55.3065 79.2977 54.4816 79.4176 52.7755 82.0331L49.3986 87.2219L56.1807 91.6352ZM40.2407 81.2576L44.7879 84.2186L48.7218 78.1768C49.7793 76.5553 49.7088 75.6388 48.0873 74.5884L47.911 74.4756C46.1203 73.3123 45.2109 73.6155 43.6599 75.9913L40.2336 81.2576H40.2407Z" fill="#282725"/>
<path d="M76.1959 67.4181L71.5922 71.7398L59.0291 58.366L53.65 63.4208L49.4341 58.93L64.8383 44.4634L69.0542 48.9542L63.6328 54.0443L76.1959 67.4181Z" fill="#282725"/>
<path d="M95.6818 54.0379L90.1546 57.147L85.0293 48.0525L69.9846 40.3609L76.5411 36.6667L85.2337 41.4184L85.41 41.3197L85.8471 31.4286L91.7761 28.0869L90.5283 44.9152L95.6748 54.0379H95.6818Z" fill="#282725"/>
<path d="M123.149 44.9782C117.164 46.0639 112.511 45.1967 110.798 39.6625L117.404 38.464C118.264 40.1207 119.885 40.1489 122.931 39.599C126.371 38.9786 127.485 38.1326 127.217 36.4759L127.168 36.2009C126.935 34.9249 126.258 34.4384 124.2 34.7768L118.63 35.5382C112.885 36.2926 110.445 34.8473 109.599 30.1943L109.557 29.9546C108.549 24.4063 111.256 21.4946 118.525 20.1763L119.293 20.0353C125.215 18.9637 129.805 20.2327 131.497 25.6964L124.891 26.8949C124.101 25.1465 122.55 24.8575 119.674 25.3792C116.367 25.9784 115.514 26.7751 115.81 28.3966L115.831 28.5023C116.064 29.7784 116.713 30.2648 118.778 29.9969L124.313 29.2073C130.051 28.3825 132.512 29.9687 133.33 34.4878L133.372 34.7275C134.472 40.7975 131.313 43.5047 124.136 44.8019L123.142 44.9852L123.149 44.9782Z" fill="#282725"/>
<path d="M148.232 43.6032C139.927 42.9264 136.924 39.5142 137.622 30.9273L137.756 29.2846C138.454 20.6907 141.972 17.7791 150.277 18.4559L151.891 18.5898C160.196 19.2666 163.228 22.7141 162.53 31.308L162.396 32.9506C161.698 41.5446 158.152 44.421 149.847 43.7442L148.232 43.6102V43.6032ZM149.854 37.8997C154.697 38.2945 155.677 36.2641 156.015 32.1117L156.1 31.0612C156.446 26.8665 155.804 24.7445 150.954 24.3497L150.291 24.2933C145.419 23.8985 144.475 25.8936 144.129 30.0813L144.045 31.1317C143.706 35.2912 144.313 37.4485 149.191 37.8433L149.854 37.8997Z" fill="#282725"/>
<path d="M174.036 49.0819C166.351 46.2548 164.532 42.2222 167.5 34.1359L168.078 32.5567C171.046 24.4633 175.044 22.5739 182.728 25.4009L184.223 25.9508C191.04 28.4606 193.007 31.9081 191.597 38.1121L185.541 35.8843C185.668 34.6999 185.442 33.7975 184.893 33.1066C184.343 32.4157 183.271 31.8023 181.671 31.2101L181.262 31.0621C176.806 29.4194 175.431 31.1537 173.993 35.0735L173.634 36.0605C172.195 39.9733 172.125 42.187 176.573 43.8296L176.982 43.9777C178.583 44.5699 179.802 44.7884 180.663 44.6192C181.53 44.45 182.284 43.9072 182.954 42.9202L189.01 45.148C186.077 50.7879 182.34 52.1415 175.523 49.6317L174.028 49.0819H174.036Z" fill="#282725"/>
<path d="M193.423 57.9853L188.291 54.3194L202.546 34.3608L207.678 38.0268L201.954 46.0427L202.116 46.1625L215.87 43.8854L222.772 48.8133L208.806 50.9424L208.729 68.9269L201.918 64.0695L201.968 52.0493L201.777 51.9153L197.244 52.6415L193.416 57.9994L193.423 57.9853Z" fill="#282725"/>
<path d="M222.314 85.3818L209.716 70.464L228.462 54.6509L241.06 69.5687L236.83 73.136L228.307 63.0404L225.31 65.5713L233.834 75.6669L229.576 79.2553L221.052 69.1598L218.028 71.7119L226.551 81.8074L222.321 85.3747L222.314 85.3818Z" fill="#282725"/>
<path d="M226.84 93.4188L224.055 87.7577L246.044 76.9077L252.269 89.5554C255.054 95.2165 254.455 97.8744 250.183 99.9823L249.492 100.328C246.192 101.956 244.246 101.724 242.597 99.3408L242.378 99.4465C243.076 102.133 243.02 103.521 238.966 105.524L234.003 107.97L231.197 102.281L235.85 99.9894C237.894 98.9812 238.212 98.2128 236.83 95.3998L234.094 89.8444L226.84 93.4258V93.4188ZM243.901 85.0011L239.029 87.3981L242.216 93.8629C243.069 95.6043 243.894 96.0061 245.621 95.1531L245.812 95.0614C247.729 94.1167 247.927 93.1791 246.679 90.634L243.901 85.0011Z" fill="#282725"/>
<path d="M236.611 120.977C235.391 115.027 236.153 110.345 241.645 108.512L242.991 115.09C241.348 115.985 241.363 117.607 241.983 120.645C242.681 124.079 243.555 125.172 245.205 124.861L245.48 124.805C246.749 124.544 247.214 123.86 246.833 121.809L245.952 116.26C245.064 110.536 246.453 108.061 251.084 107.117L251.324 107.067C256.851 105.939 259.819 108.576 261.3 115.809L261.455 116.578C262.661 122.478 261.497 127.089 256.076 128.908L254.729 122.33C256.457 121.506 256.71 119.947 256.118 117.085C255.448 113.793 254.631 112.961 253.016 113.285L252.91 113.306C251.641 113.567 251.169 114.223 251.479 116.289L252.396 121.802C253.348 127.512 251.825 130.015 247.327 130.931L247.087 130.981C241.045 132.214 238.268 129.12 236.808 121.978L236.604 120.984L236.611 120.977Z" fill="#282725"/>
<path d="M229.957 185.668L238.346 185.604L240.877 177.603L243.535 185.562L251.924 185.491L245.177 190.476L247.835 198.435L241.004 193.564L234.257 198.548L236.788 190.546L229.957 185.668Z" fill="#282725"/>
<path d="M238.895 158.8L246.925 156.382L247.116 147.993L251.896 154.888L259.925 152.476L254.85 159.153L259.629 166.048L251.705 163.277L246.629 169.953L246.813 161.564L238.895 158.8Z" fill="#282725"/>
<path d="M53.4102 187.028L45.0207 187.085L42.37 179.118L39.832 187.113L31.4425 187.169L38.2598 192.055L35.7218 200.057L42.4757 195.079L49.293 199.965L46.6493 192.006L53.4102 187.028Z" fill="#282725"/>
<path d="M44.0831 160.288L36.0108 157.989L35.7006 149.607L31.0265 156.572L22.9542 154.274L28.1289 160.873L23.4548 167.838L31.3296 164.955L36.5114 171.554L36.2012 163.171L44.0831 160.288Z" fill="#282725"/>
<path d="M122.521 96.9575C121.549 102.929 119.137 109.788 115.359 116.599C108.076 129.733 97.9382 138.658 90.3735 139.391C93.0525 119.842 102.626 104.72 122.514 96.9575H122.521Z" fill="#282725"/>
<path d="M109.916 77.3947L103.268 91.833C92.6579 96.0066 87.0814 107.562 86.6161 107.942L80.3064 122.324L79.3758 124.439L78.4804 123.896L69.9076 118.694L63.5908 114.865L61.5886 113.646C70.7183 109.317 61.3912 99.7925 61.3912 99.7925C78.142 101.71 70.0486 84.2684 70.0486 84.2684C87.4268 86.3623 85.1497 68.6456 85.1497 68.6456C97.3462 74.1799 101.844 64.4438 101.844 64.4438L104.932 69.3929L108.055 74.3984L109.923 77.3947H109.916Z" fill="#F3AE13"/>
<path d="M109.916 77.3941L109.337 77.1262L102.689 91.5646L103.267 91.8325L103.035 91.2332C97.5781 93.3835 93.4609 97.3949 90.6409 100.906C89.2309 102.661 88.1452 104.29 87.3838 105.509C87.0031 106.116 86.7 106.623 86.4885 106.976C86.3827 107.152 86.2911 107.3 86.2347 107.392C86.2065 107.441 86.1783 107.476 86.1712 107.491L86.4532 107.723L86.2276 107.448C86.1712 107.498 86.1712 107.505 86.1712 107.505L86.4532 107.73L86.2276 107.455L86.1078 107.554L79.7346 122.077L79.1001 123.522L78.8251 123.36L70.2524 118.157L63.9355 114.329L61.9334 113.109L61.602 113.659L61.877 114.237C63.3011 113.561 64.3374 112.75 65.0424 111.826C65.7474 110.91 66.114 109.895 66.2127 108.879C66.3325 107.681 66.107 106.489 65.7122 105.376C65.12 103.712 64.1611 102.224 63.3504 101.131C62.5396 100.046 61.8699 99.3619 61.8558 99.3478L61.3976 99.799L61.327 100.433C61.4398 100.448 61.5456 100.455 61.6514 100.469C63.569 100.666 65.1834 100.61 66.5441 100.342C68.5815 99.947 70.0549 99.0517 71.0208 97.8602C71.9866 96.6688 72.4449 95.2235 72.593 93.7501C72.8256 91.4306 72.3321 89.0125 71.7892 87.1584C71.2464 85.3042 70.6471 84.0211 70.6401 84L70.062 84.2679L69.9844 84.9024C70.1466 84.9235 70.3087 84.9376 70.4638 84.9588C73.4037 85.2549 75.8148 84.994 77.7888 84.3243C80.7498 83.3232 82.6815 81.3985 83.88 79.2694C85.0855 77.1333 85.5861 74.7927 85.7835 72.8539C86.0302 70.4217 85.7976 68.6028 85.7976 68.5675L85.1631 68.6521L84.8951 69.2373C87.0736 70.2243 89.0265 70.746 90.7749 70.9222C92.8546 71.1337 94.6382 70.8588 96.1328 70.3159C98.3747 69.5052 99.9469 68.1093 100.955 66.9249C101.963 65.7405 102.421 64.7535 102.436 64.7182L101.857 64.4503L101.315 64.7887L104.402 69.7378L107.519 74.7433L109.387 77.7396L109.93 77.4012L110.473 77.0628L108.604 74.0665L105.481 69.061L101.766 63.1108L101.265 64.1895C101.244 64.2388 100.483 65.8251 98.8189 67.2633C97.987 67.9824 96.9295 68.6733 95.6323 69.1386C94.3281 69.6039 92.77 69.8436 90.9018 69.6532C89.3085 69.4911 87.4896 69.0117 85.4169 68.074L84.3735 67.6017L84.5215 68.7438V68.7579C84.5427 68.9271 84.726 70.5909 84.5074 72.7341C84.3805 73.9537 84.1338 75.3285 83.6544 76.675C82.9353 78.6984 81.7297 80.6442 79.7064 81.9907C77.676 83.3373 74.7925 84.1198 70.5907 83.6968C70.4427 83.6827 70.2876 83.6616 70.1325 83.6475L68.9904 83.5135L69.4768 84.5569V84.571C69.5403 84.6979 70.1114 85.9669 70.6049 87.7083C71.1054 89.4496 71.5214 91.6633 71.3169 93.6443C71.2253 94.5115 71.0278 95.3293 70.6753 96.0554C70.1395 97.1411 69.3006 98.0294 67.8976 98.6287C66.5017 99.2209 64.5207 99.4958 61.7783 99.2138C61.6725 99.2068 61.5738 99.1927 61.468 99.1786L59.6774 98.9741L60.9393 100.264H60.9464C61.0592 100.391 62.1801 101.576 63.2024 103.211C63.717 104.029 64.1964 104.96 64.5278 105.911C64.8591 106.87 65.0213 107.843 64.9296 108.767C64.845 109.57 64.5771 110.332 64.0201 111.058C63.4632 111.784 62.6031 112.482 61.32 113.088L60.2484 113.596L63.2658 115.429L69.6249 119.285L78.1624 124.467L79.6782 125.383L80.8978 122.599L87.2076 108.217L86.6224 107.963L87.0243 108.456C87.0807 108.414 87.1018 108.379 87.13 108.351C87.1794 108.294 87.2076 108.252 87.2499 108.196C87.3838 107.998 87.5671 107.688 87.8209 107.265C88.7163 105.784 90.4787 102.922 93.1013 100.01C95.7239 97.0918 99.2066 94.1378 103.507 92.4458L103.747 92.3542L110.642 77.3659L110.458 77.0698L109.916 77.4082V77.3941Z" fill="#11100C"/>
<path d="M113.448 107.984C111.897 110.289 110.1 112.623 108.083 114.907C97.5225 126.864 84.9312 132.997 79.968 128.612C78.4311 127.258 77.8037 125.059 77.9729 122.309C84.0993 122.288 93.5604 116.507 101.788 107.187C103.55 105.199 105.136 103.169 106.539 101.152C110.981 94.8002 113.596 88.561 113.893 83.8939C115.634 83.8798 117.1 84.338 118.193 85.3039C122.219 88.8571 120.012 98.2053 113.441 107.984H113.448Z" fill="#F3AE13"/>
<path d="M113.448 107.984C104.904 117.269 97.5366 119.376 97.5366 119.376L106.046 103.232L106.539 101.152C110.981 94.8002 113.596 88.561 113.893 83.8939C115.634 83.8798 117.1 84.338 118.193 85.3039C122.219 88.8571 120.012 98.2053 113.441 107.984H113.448Z" fill="#F3AE13"/>
<path d="M108.076 114.914L107.597 114.491C103.303 119.348 98.6783 123.233 94.399 125.813C92.2628 127.103 90.2112 128.069 88.343 128.668C86.4747 129.268 84.7898 129.5 83.3939 129.359C82.1672 129.232 81.1661 128.83 80.3906 128.14C79.7209 127.547 79.2415 126.772 78.9454 125.806C78.6493 124.84 78.5365 123.677 78.614 122.359L77.9725 122.316V122.958C79.6081 122.958 81.4129 122.57 83.3446 121.858C89.1256 119.729 96.0416 114.674 102.274 107.624C105.841 103.584 108.732 99.3968 110.811 95.4276C112.891 91.4585 114.167 87.722 114.491 84.5495C114.513 84.345 114.527 84.1476 114.541 83.9432L113.899 83.9009V84.5424C114.209 84.5424 114.506 84.5565 114.795 84.5847C116.014 84.7116 117.008 85.1135 117.777 85.7973C118.496 86.4318 118.989 87.2778 119.285 88.3424C119.574 89.4069 119.652 90.69 119.504 92.1423C119.208 95.0822 117.988 98.6988 115.958 102.555C113.934 106.419 111.1 110.529 107.597 114.498L108.076 114.921L108.555 115.344C112.123 111.304 115.006 107.117 117.086 103.154C119.166 99.1853 120.442 95.4488 120.766 92.2763C120.928 90.7041 120.85 89.273 120.505 88.011C120.16 86.7491 119.539 85.6634 118.609 84.8456C117.607 83.9573 116.331 83.4638 114.907 83.3228C114.576 83.2875 114.231 83.2734 113.878 83.2734H113.279L113.244 83.8727C113.229 84.056 113.215 84.2393 113.194 84.4296C112.898 87.3695 111.678 90.9861 109.648 94.8425C107.625 98.7059 104.791 102.816 101.287 106.785C97.2119 111.403 92.8268 115.139 88.7307 117.713C86.6792 119.003 84.7052 119.997 82.8793 120.667C81.0533 121.336 79.3825 121.682 77.9513 121.689H77.3521L77.3168 122.288C77.2252 123.719 77.345 125.038 77.6975 126.194C78.05 127.35 78.6563 128.351 79.5235 129.112C80.5316 130.001 81.8147 130.501 83.2459 130.642C84.8815 130.804 86.7286 130.537 88.7167 129.902C91.6988 128.943 95.0123 127.16 98.4033 124.692C101.794 122.225 105.27 119.066 108.548 115.358L108.069 114.935L108.076 114.914Z" fill="#282725"/>
<path d="M109.915 77.3944L103.267 91.8328C92.6571 96.0064 87.0805 107.561 86.6152 107.942L80.3055 122.324L79.5512 122.768L78.4866 123.896L69.9138 118.693L76.6043 117.96C76.6043 117.96 81.1304 111.185 81.638 110.642C82.1456 110.099 82.9775 106.06 82.9775 106.06L84.895 105.933L85.2123 107.04C85.4802 106.532 90.253 95.4353 100.194 90.5497C100.194 90.5497 109.591 80.6727 108.061 74.3911L109.93 77.3874L109.915 77.3944Z" fill="#CE7314"/>
<path d="M109.917 77.3945L109.338 77.1266L102.69 91.565L103.268 91.8329L103.036 91.2336C97.579 93.3839 93.4618 97.3953 90.6418 100.906C89.2318 102.662 88.1461 104.29 87.3847 105.51C87.004 106.116 86.7009 106.624 86.4894 106.976C86.3836 107.152 86.292 107.301 86.2356 107.392C86.2074 107.442 86.1792 107.477 86.1722 107.491L86.4541 107.724L86.2285 107.449C86.1721 107.498 86.1722 107.505 86.1722 107.505L86.4541 107.731L86.2285 107.456L86.1087 107.554L79.8201 121.887L79.1645 122.275L78.389 123.093L71.8677 119.137L76.979 118.581L77.1481 118.334C77.1481 118.334 77.4302 117.911 77.8602 117.269C78.5088 116.303 79.4887 114.844 80.3629 113.575C80.8 112.941 81.2019 112.355 81.5192 111.904C81.6813 111.679 81.8153 111.488 81.921 111.347C81.9774 111.277 82.0197 111.213 82.055 111.171C82.0902 111.129 82.1184 111.093 82.1184 111.093C82.203 111.002 82.2523 110.917 82.3017 110.833C82.3933 110.67 82.4709 110.494 82.5414 110.297C82.8023 109.599 83.0631 108.598 83.2675 107.745C83.472 106.899 83.613 106.208 83.613 106.208L82.9856 106.081L83.0279 106.722L84.4308 106.631L85.0441 108.774L85.7844 107.357C85.8126 107.293 85.8479 107.23 85.8972 107.117C86.2779 106.306 87.6526 103.423 90.0708 100.187C92.4889 96.9511 95.9505 93.3698 100.477 91.142L100.582 91.0926L100.66 91.008C100.66 91.008 102.535 89.0411 104.481 86.2986C105.454 84.9239 106.455 83.3588 107.252 81.7302C108.048 80.0946 108.655 78.4026 108.824 76.76C108.908 75.9069 108.88 75.068 108.683 74.2643L108.062 74.4194L107.52 74.7578L109.388 77.754L109.931 77.4156L110.473 77.0772L106.497 70.6899L107.442 74.5674C107.597 75.2019 107.625 75.8928 107.555 76.6331C107.414 78.0572 106.864 79.6293 106.102 81.1733C104.967 83.4927 103.367 85.7417 102.056 87.4055C101.4 88.2374 100.815 88.9212 100.399 89.3936C100.188 89.6333 100.018 89.8166 99.9055 89.9435C99.8491 90.0069 99.8068 90.0563 99.7716 90.0845L99.7293 90.1338L100.195 90.578L99.9126 89.9999C94.8084 92.5097 91.0648 96.5916 88.5621 100.088C87.3072 101.837 86.3625 103.451 85.7139 104.657C85.3896 105.263 85.1358 105.764 84.9595 106.13C84.8679 106.314 84.7974 106.462 84.7481 106.574C84.6987 106.68 84.6564 106.765 84.6564 106.765L85.2204 107.061L85.8337 106.885L85.3755 105.284L82.4568 105.475L82.3581 105.954C82.3581 105.954 82.344 106.017 82.3229 106.123C82.2383 106.511 82.0267 107.484 81.78 108.414C81.6601 108.88 81.5262 109.331 81.4064 109.676C81.3429 109.853 81.2865 110.001 81.2372 110.099C81.216 110.149 81.1949 110.191 81.1808 110.212L81.1667 110.233L81.3147 110.353L81.1737 110.226H81.1667L81.3147 110.353L81.1737 110.226C81.1103 110.29 81.0609 110.36 80.9904 110.445C80.7437 110.762 80.3277 111.361 79.8201 112.087C78.3114 114.273 76.0695 117.622 76.0695 117.622L76.5983 117.974L76.5277 117.34L67.962 118.27L78.5934 124.721L79.9541 123.283L80.8142 122.775L87.2085 108.203L86.6233 107.949L87.0252 108.443C87.0816 108.4 87.1028 108.365 87.131 108.337C87.1803 108.28 87.2085 108.238 87.2508 108.182C87.3847 107.984 87.568 107.674 87.8218 107.251C88.7172 105.771 90.4797 102.908 93.1023 99.9967C95.7249 97.078 99.2076 94.1241 103.508 92.4321L103.748 92.3405L110.643 77.3522L110.459 77.0561L109.917 77.3945Z" fill="#11100C"/>
<path d="M63.3436 114.717C63.1673 114.625 63.0051 114.527 62.85 114.442C62.1944 114.068 61.7714 113.772 61.6304 113.681L62.8571 114.421L63.3436 114.717Z" fill="#F1A700"/>
<path d="M63.3437 114.717L63.6468 114.153C63.4776 114.062 63.3155 113.97 63.1604 113.885L62.8502 114.442L63.1674 113.885C62.5329 113.519 62.124 113.237 61.9971 113.152L61.6305 113.674L61.2992 114.224L62.5258 114.964L63.0123 115.26L63.3437 114.71L63.675 114.16L63.1885 113.864L61.9619 113.124L61.2639 114.196C61.412 114.301 61.8561 114.605 62.5329 114.992C62.681 115.077 62.8502 115.169 63.0335 115.267L63.6679 114.16L63.3366 114.71L63.3437 114.717Z" fill="#282725"/>
<path d="M116.071 95.6467C114.915 98.4808 113.131 101.682 110.826 105.002C109.247 107.279 107.421 109.613 105.383 111.918C102.274 115.443 98.9466 118.425 95.7318 120.759C93.5463 122.345 91.4101 123.628 89.4432 124.573C87.2788 125.616 85.3048 126.251 83.6692 126.42C82.5483 126.54 81.5895 126.441 80.8352 126.117L80.7506 125.926L70.4787 119.06L70.1756 118.827L64.4369 114.364C68.8854 116.776 80.3699 121.125 83.2533 103.804C83.2533 103.804 85.7279 104.128 88.7241 103.733C93.3771 103.113 99.2991 100.744 99.1933 92.6998C99.1722 90.6976 98.7703 88.3359 97.882 85.5582C97.882 85.5582 116.283 86.0658 103.303 64.6973L116.536 86.0235L116.903 86.6157C116.903 86.6157 117.009 86.7496 117.185 87.0034V87.0175C118.031 88.914 117.587 91.9737 116.078 95.6608L116.071 95.6467Z" fill="#F3AE13"/>
<path d="M101.217 95.8795L109.028 104.826L100.011 97.9029L100.074 94.4766L101.217 95.8795Z" fill="white"/>
<path d="M114.258 97.882C114.914 98.4742 113.123 101.675 111.361 103.846L101.568 93.7014L99.3899 87.1096L104.24 85.7349L114.258 97.882Z" fill="white"/>
<path d="M105.383 111.918L104.904 111.495C100.786 116.162 96.2673 119.884 92.1783 122.359C90.1408 123.6 88.2092 124.523 86.5031 125.108C84.797 125.694 83.3164 125.919 82.2096 125.806C81.7795 125.764 81.4059 125.672 81.0957 125.531L80.8419 126.117L81.4271 125.849L81.3354 125.658L81.2579 125.496L70.8521 118.538L64.8314 113.857L64.4366 114.364L64.1335 114.928C65.7761 115.816 68.3352 116.966 71.1552 117.255C72.4172 117.382 73.7285 117.339 75.0257 117.001C76.9714 116.507 78.8679 115.344 80.4119 113.243C81.9629 111.149 83.1755 108.132 83.8805 103.902L83.246 103.796L83.1614 104.431C83.1614 104.431 83.246 104.445 83.387 104.459C84.0779 104.529 86.2422 104.699 88.7943 104.367C91.015 104.071 93.5389 103.394 95.6469 101.872C96.6973 101.11 97.635 100.137 98.3541 98.9106C99.0732 97.6839 99.5667 96.2034 99.743 94.4409C99.7994 93.884 99.8275 93.2988 99.8134 92.6855C99.7923 90.5987 99.3763 88.1805 98.4669 85.3605L97.8606 85.5579L97.8394 86.1995C97.8817 86.1995 100.258 86.27 102.796 85.3535C104.065 84.8952 105.383 84.1832 106.447 83.0622C107.512 81.9413 108.302 80.4114 108.506 78.4092C108.675 76.7666 108.457 74.8208 107.724 72.5084C106.99 70.196 105.742 67.5029 103.832 64.3586L102.739 65.0284L115.972 86.3546L116.353 86.975L116.374 87.0032C116.374 87.0032 116.487 87.1512 116.635 87.3627L117.156 86.9961L116.592 87.2993V87.3134L117.163 87.0102L116.578 87.2711C116.903 87.9972 117.022 88.9983 116.896 90.2321C116.649 92.7066 115.415 96.0554 113.349 99.7496C111.291 103.451 108.407 107.512 104.882 111.502L105.362 111.925L105.841 112.348C109.416 108.294 112.355 104.163 114.463 100.37C116.578 96.5771 117.875 93.1226 118.165 90.359C118.306 88.9842 118.193 87.7575 117.742 86.7494V86.7282L117.713 86.693L117.692 86.6577L117.671 86.6225C117.488 86.3616 117.375 86.2206 117.368 86.2136L116.867 86.6084L117.41 86.27L117.044 85.6778L103.811 64.3516L102.718 65.0213C104.586 68.1022 105.792 70.7036 106.483 72.8891C107.174 75.0816 107.357 76.8512 107.216 78.2753C107.033 80.0096 106.384 81.2433 105.503 82.1739C104.184 83.5698 102.274 84.2748 100.681 84.6062C99.8839 84.7754 99.1719 84.8459 98.6643 84.8811C98.4105 84.8952 98.2061 84.9023 98.0651 84.9093C97.9946 84.9093 97.9452 84.9093 97.9099 84.9093H97.8747H97.8676L96.9653 84.8811L97.2402 85.7412C98.1144 88.4696 98.5021 90.7679 98.5233 92.6925C98.5303 93.2636 98.5092 93.7994 98.4528 94.307C98.2906 95.9003 97.8535 97.1975 97.2331 98.255C96.3025 99.8483 94.9489 100.941 93.412 101.702C91.8822 102.464 90.1761 102.88 88.611 103.084C86.2069 103.401 84.1272 103.239 83.4998 103.176C83.4363 103.176 83.387 103.162 83.3517 103.162H83.3164H83.3094L82.696 103.084L82.5974 103.698C82.1462 106.426 81.4764 108.59 80.6656 110.282C79.453 112.827 77.9444 114.308 76.3299 115.14C74.7155 115.972 72.9741 116.155 71.261 115.986C68.7089 115.725 66.2696 114.646 64.7186 113.807L64.0206 114.872L70.0766 119.581L80.2215 126.363L80.2356 126.391L80.3414 126.617L80.567 126.716C81.0252 126.913 81.5258 127.033 82.0616 127.089C83.4504 127.23 85.079 126.948 86.8979 126.328C89.6262 125.397 92.7776 123.691 96.0417 121.323C99.3059 118.954 102.69 115.929 105.841 112.355L105.362 111.932L105.383 111.918Z" fill="#282725"/>
<path d="M101.012 88.0539C102.309 93.8348 101.224 97.9097 99.1016 100.779C94.3499 107.209 84.4024 107.611 84.4024 107.611C80.4967 118.348 74.7228 119.532 70.38 118.982L63.3652 114.731C67.8138 117.142 79.2982 121.492 82.1817 104.17C82.1817 104.17 82.4425 104.205 82.9078 104.241C86.5879 104.501 102.803 104.65 96.8033 85.9248C96.8033 85.9248 97.5013 85.8472 98.5376 85.5864C102.175 84.6769 109.966 81.4974 105.919 71.4582C105.094 69.4207 103.79 67.0942 101.851 64.4505L102.754 64.0063L106.483 70.1116L109.373 74.8351C110.29 86.3337 101.019 88.0539 101.019 88.0539H101.012Z" fill="#CE7314"/>
<path d="M101.012 88.0545C102.309 93.8355 101.223 97.9104 99.1013 100.78C96.3447 102.817 92.7634 104.982 88.5827 105.461C85.1071 105.856 82.7665 104.657 82.7665 104.657L82.9004 104.234C85.4525 104.418 94.0464 104.544 97.0638 98.3405C98.3963 95.6121 98.636 91.643 96.7959 85.9184C96.7959 85.9184 97.4939 85.8408 98.5302 85.58C101.738 84.7763 108.175 82.2101 106.877 74.7371C106.708 73.736 106.391 72.6433 105.912 71.4589C106.109 70.9724 106.292 70.5212 106.476 70.1123L109.366 74.8358C110.283 86.3343 101.012 88.0545 101.012 88.0545Z" fill="#F3AE13"/>
<path d="M101.012 88.0544L100.385 88.1954C100.914 90.543 101.034 92.5805 100.85 94.3571C100.54 97.3603 99.3839 99.6093 97.8047 101.351C95.4359 103.952 92.0801 105.376 89.3024 106.131C87.9136 106.504 86.6728 106.716 85.7845 106.836C85.3403 106.892 84.9808 106.927 84.7411 106.948C84.6212 106.955 84.5225 106.962 84.4661 106.969H84.3956H84.3745L83.9444 106.984L83.7964 107.385C81.9281 112.525 79.6581 115.359 77.395 116.861C76.267 117.615 75.1319 118.045 74.018 118.264C72.9041 118.482 71.8185 118.489 70.7892 118.383C70.6764 118.369 70.5635 118.355 70.4507 118.341L70.3732 118.976L70.7046 118.426L63.6898 114.175L63.3585 114.724L63.0553 115.288C64.698 116.177 67.2571 117.326 70.0771 117.615C71.3391 117.742 72.6504 117.7 73.9475 117.361C75.8933 116.868 77.7898 115.704 79.3338 113.604C80.8847 111.51 82.0973 108.492 82.8023 104.262L82.1678 104.157L82.0832 104.791C82.0832 104.791 82.1678 104.805 82.3159 104.819C83.2747 104.911 86.9759 105.2 90.6701 104.1C92.5172 103.543 94.3714 102.634 95.8448 101.139C97.3183 99.6446 98.3899 97.5648 98.6719 94.8012C98.9186 92.3549 98.5661 89.3727 97.3958 85.7208L96.7895 85.9182L96.86 86.5527C96.9023 86.5527 99.3205 86.2848 101.887 85.0581C103.17 84.4448 104.495 83.5847 105.567 82.3721C106.631 81.1595 107.435 79.5873 107.632 77.6204C107.802 75.9495 107.548 74.0178 106.716 71.7759C105.884 69.534 104.488 66.989 102.352 64.0633L101.837 64.444L102.119 65.015L102.5 64.8317L108.817 75.1599L109.36 74.8286L108.718 74.8779C108.81 76.0271 108.796 77.0705 108.697 78.0081C108.485 80.0667 107.886 81.66 107.118 82.9149C105.962 84.7973 104.396 85.9253 103.113 86.5809C102.472 86.9123 101.908 87.1238 101.499 87.2436C101.294 87.3071 101.139 87.3494 101.027 87.3776C100.97 87.3917 100.935 87.3987 100.907 87.4058H100.879L100.223 87.5256L100.371 88.1742L100.998 88.0332L101.118 88.6607C101.175 88.6466 103.12 88.287 105.214 86.7854C106.258 86.031 107.336 84.9947 108.21 83.5776C109.085 82.1606 109.747 80.3628 109.973 78.128C110.079 77.0987 110.093 75.9848 109.994 74.7651L109.98 74.61L102.979 63.1538L100.871 64.1902L101.323 64.8035C103.402 67.6517 104.742 70.1051 105.517 72.1989C106.293 74.2998 106.504 76.0341 106.356 77.4723C106.18 79.1643 105.517 80.4615 104.601 81.5049C103.233 83.07 101.259 84.0288 99.6165 84.5717C98.7987 84.8466 98.0655 85.0158 97.5438 85.1216C97.283 85.1709 97.0715 85.2062 96.9305 85.2273C96.86 85.2414 96.8036 85.2485 96.7684 85.2485H96.7261H96.719L95.9435 85.3331L96.1832 86.0804C97.3182 89.6124 97.6285 92.4183 97.4029 94.6391C97.142 97.1489 96.2184 98.9114 94.9424 100.209C93.0318 102.154 90.2612 103.036 87.7655 103.395C85.2769 103.755 83.0984 103.585 82.4498 103.515C82.3793 103.515 82.33 103.501 82.3018 103.501H82.2665H82.2595L81.6461 103.423L81.5474 104.037C81.0962 106.765 80.4265 108.929 79.6157 110.621C78.4031 113.166 76.8945 114.647 75.28 115.479C73.6656 116.311 71.9242 116.494 70.2111 116.325C67.659 116.064 65.2197 114.985 63.6687 114.146L63.0342 115.253L70.1617 119.575L70.2957 119.596C70.4155 119.61 70.5424 119.624 70.6693 119.638C71.7902 119.751 73.0099 119.751 74.2719 119.497C76.1683 119.131 78.1493 118.193 79.9894 116.353C81.8365 114.513 83.5496 111.785 85.0019 107.801L84.4027 107.583L84.4309 108.224C84.4732 108.224 88.4846 108.062 92.7217 106.286C94.8367 105.397 97.0151 104.1 98.7635 102.183C100.512 100.272 101.809 97.7269 102.14 94.4558C102.338 92.5241 102.204 90.3456 101.647 87.8852L101.02 88.0262L101.012 88.0544Z" fill="#282725"/>
<path d="M82.8586 102.873C82.7247 104.164 81.5755 105.101 80.2854 104.974C78.9952 104.84 78.0576 103.691 78.1845 102.401C78.3184 101.111 79.4675 100.173 80.7577 100.307C82.0478 100.441 82.9855 101.59 82.8516 102.88L82.8586 102.873Z" fill="white"/>
<path d="M82.858 102.873L82.2235 102.81C82.1741 103.282 81.9415 103.684 81.6031 103.959C81.2647 104.234 80.8206 104.382 80.3482 104.333C79.8759 104.283 79.474 104.051 79.1991 103.712C78.9241 103.374 78.776 102.93 78.8254 102.457C78.8747 101.985 79.1074 101.583 79.4458 101.308C79.7842 101.033 80.2284 100.885 80.7007 100.935C81.1731 100.984 81.5749 101.217 81.8499 101.555C82.1248 101.893 82.2728 102.337 82.2235 102.81L82.858 102.873L83.4925 102.937C83.6617 101.294 82.4632 99.8277 80.8206 99.6585C79.1779 99.4893 77.7115 100.688 77.5423 102.33C77.3731 103.973 78.5716 105.439 80.2143 105.609C81.8569 105.778 83.3233 104.579 83.4925 102.937L82.858 102.873Z" fill="#11100C"/>
<path d="M67.285 102.647C71.6772 112.446 64.8739 114.561 63.5908 114.864L62.3077 114.089L61.5886 113.652C70.7183 109.323 61.3912 99.7984 61.3912 99.7984C70.7184 100.87 72.3399 95.935 71.9521 91.3525C71.6983 88.3774 70.5915 85.5433 70.1967 84.5986L70.5985 84.8947C70.5985 84.8947 74.2927 89.2869 74.2857 95.6742C72.5725 100.933 67.2921 102.647 67.2921 102.647H67.285Z" fill="#F3AE13"/>
<path d="M65.0212 101.632C65.0212 101.632 71.19 111.27 62.3211 114.083H62.2999L61.5808 113.653C70.7106 109.324 61.3834 99.7994 61.3834 99.7994C70.7106 100.871 72.332 95.936 71.9443 91.3535L72.3461 91.5157C72.3461 91.5157 73.9183 99.9686 65.0212 101.639V101.632Z" fill="#FFF6EF"/>
<path d="M103.346 66.8541L102.725 66.6848C102.295 68.2781 101.555 69.4484 100.624 70.3438C99.2355 71.6762 97.3954 72.3742 95.5201 72.6985C93.6448 73.0228 91.7554 72.9593 90.3454 72.8183C89.6404 72.7478 89.0623 72.6562 88.6534 72.5786C88.449 72.5434 88.2939 72.5081 88.1881 72.487C88.1317 72.4729 88.0965 72.4658 88.0683 72.4588H88.0401L88.033 72.4517L87.2364 72.2614V73.0792C87.2505 73.8688 87.2152 74.602 87.1447 75.2999C86.8416 78.2891 85.8617 80.4394 84.5856 82.0327C83.6268 83.2241 82.4918 84.0983 81.3144 84.7469C79.5519 85.7198 77.7048 86.171 76.2948 86.3684C75.5898 86.4671 74.9976 86.5094 74.5887 86.5235C74.3842 86.5235 74.2221 86.5306 74.1164 86.5235C74.06 86.5235 74.0247 86.5235 73.9965 86.5235H73.9683L73.0447 86.4812L73.3338 87.3625C74.1023 89.7172 74.2856 91.6982 74.1164 93.3691C73.9472 95.0258 73.4254 96.3865 72.7416 97.5004C71.7123 99.1782 70.2953 100.32 69.132 101.039C68.5539 101.399 68.0322 101.653 67.6656 101.815C67.4823 101.892 67.3343 101.956 67.2356 101.991C67.1862 102.012 67.151 102.026 67.1228 102.033H67.0946V102.041L67.1298 102.139L67.1016 102.041L67.1369 102.139L67.1087 102.041L66.4319 102.259L66.7209 102.908C67.9335 105.608 68.2437 107.652 68.0886 109.182C67.9899 110.155 67.7079 110.924 67.3272 111.558C66.7562 112.503 65.9595 113.137 65.2122 113.553C64.4649 113.969 63.774 114.174 63.4709 114.244L63.6189 114.864L63.9503 114.315L61.9481 113.095L61.6167 113.645L61.8917 114.223C63.3158 113.546 64.3521 112.735 65.0571 111.812C65.7621 110.895 66.1287 109.88 66.2274 108.865C66.3473 107.666 66.1217 106.475 65.7269 105.361C65.1347 103.697 64.1759 102.21 63.3651 101.117C62.5544 100.031 61.8846 99.3474 61.8705 99.3333L61.4123 99.7845L61.3418 100.419C61.4546 100.433 61.5603 100.44 61.6661 100.454C63.5837 100.652 65.1981 100.595 66.5588 100.327C68.5962 99.9326 70.0697 99.0372 71.0355 97.8458C72.0014 96.6543 72.4596 95.2091 72.6076 93.7357C72.8403 91.4162 72.3468 88.9981 71.804 87.1439C71.2611 85.2898 70.6619 84.0067 70.6548 83.9855L70.0767 84.2534L69.9992 84.8879C70.1613 84.9091 70.3235 84.9232 70.4786 84.9443C73.4184 85.2404 75.8295 84.9796 77.8035 84.3098C80.7645 83.3087 82.6962 81.3841 83.8947 79.255C85.1002 77.1188 85.6008 74.7782 85.7982 72.8395C86.0449 70.4072 85.8123 68.5883 85.8123 68.5531L85.1778 68.6377L84.9099 69.2228C87.0883 70.2098 89.0412 70.7315 90.7896 70.9078C92.8693 71.1193 94.653 70.8443 96.1476 70.3015C98.3895 69.4907 99.9616 68.0949 100.97 66.9105C101.978 65.7261 102.436 64.7391 102.45 64.7038L101.872 64.4359L101.329 64.7743L102.831 67.1784L103.374 66.8399L103.917 66.5016L101.795 63.0894L101.294 64.168C101.273 64.2174 100.512 65.8036 98.8477 67.2418C98.0158 67.9609 96.9583 68.6518 95.6611 69.1171C94.3569 69.5824 92.7988 69.8221 90.9306 69.6317C89.3373 69.4696 87.5184 68.9902 85.4457 68.0525L84.4023 67.5802L84.5503 68.7223V68.7364C84.5715 68.9056 84.7548 70.5694 84.5363 72.7126C84.4094 73.9322 84.1626 75.307 83.6832 76.6535C82.9641 78.6769 81.7586 80.6227 79.7352 81.9692C77.7048 83.3158 74.8213 84.0983 70.6195 83.6753C70.4715 83.6612 70.3164 83.6401 70.1613 83.626L69.0192 83.492L69.5057 84.5354V84.5495C69.5691 84.6764 70.1402 85.9454 70.6337 87.6868C71.1342 89.4281 71.5502 91.6418 71.3457 93.6229C71.2541 94.49 71.0567 95.3078 70.7042 96.034C70.1684 97.1197 69.3294 98.0079 67.9265 98.6072C66.5306 99.1994 64.5495 99.4743 61.8071 99.1923C61.7013 99.1853 61.6027 99.1712 61.4969 99.1571L59.7062 98.9526L60.9682 100.243H60.9752C61.088 100.37 62.2089 101.554 63.2312 103.19C63.7458 104.007 64.2252 104.938 64.5566 105.89C64.8879 106.849 65.0501 107.822 64.9584 108.745C64.8738 109.549 64.6059 110.31 64.049 111.036C63.492 111.762 62.6319 112.46 61.3488 113.067L60.2772 113.574L63.5202 115.541L63.774 115.478C64.2887 115.351 65.5365 114.991 66.7491 114.068C67.3554 113.603 67.9547 112.996 68.427 112.207C68.8994 111.417 69.2519 110.451 69.3647 109.302C69.548 107.483 69.1673 105.213 67.8983 102.372L67.3131 102.633L67.5105 103.239C67.5528 103.225 69.3083 102.654 71.1765 101.159C72.1071 100.412 73.073 99.425 73.8555 98.156C74.6381 96.887 75.2232 95.336 75.4136 93.4819C75.6039 91.6136 75.3854 89.4422 74.5746 86.9465L73.9683 87.1439L73.9401 87.7855C73.9965 87.7855 77.2183 87.9406 80.6728 86.4742C82.4001 85.741 84.1837 84.5989 85.6219 82.8082C87.0601 81.0245 88.1317 78.6064 88.456 75.4057C88.5336 74.6654 88.5688 73.8758 88.5618 73.0439H87.9202L87.7722 73.6714C87.7933 73.6714 88.7733 73.9111 90.2538 74.0591C92.2348 74.2565 95.1183 74.32 97.8114 73.4246C99.1579 72.9734 100.462 72.2825 101.548 71.2391C102.641 70.1957 103.508 68.7928 103.994 66.995L104.065 66.7272L103.917 66.4874L103.374 66.8259L103.346 66.8541Z" fill="#282725"/>
<path d="M61.3985 112.983C61.2787 114.153 60.2353 115.006 59.0579 114.886C57.8876 114.766 57.0346 113.723 57.1544 112.546C57.2743 111.375 58.3177 110.515 59.495 110.635C60.6653 110.755 61.5184 111.805 61.3985 112.976V112.983Z" fill="white"/>
<path d="M61.3983 112.983L60.7638 112.92C60.6792 113.737 59.946 114.337 59.1282 114.252C58.7193 114.21 58.3668 114.005 58.12 113.709C57.8803 113.413 57.7534 113.025 57.7887 112.616C57.831 112.2 58.0354 111.855 58.3315 111.608C58.6276 111.369 59.0154 111.235 59.4243 111.277C60.2421 111.361 60.8413 112.095 60.7567 112.912L61.3912 112.976L62.0257 113.039C62.1808 111.517 61.074 110.156 59.5441 110.001C58.0213 109.846 56.6607 110.953 56.5056 112.482C56.3505 114.005 57.4573 115.366 58.9872 115.521C60.51 115.676 61.8706 114.569 62.0257 113.039L61.3912 112.976L61.3983 112.983Z" fill="#282725"/>
<path d="M60.7076 98.7561C60.5878 99.9264 59.5444 100.779 58.3671 100.66C57.1897 100.54 56.3437 99.4964 56.4636 98.319C56.5834 97.1487 57.6339 96.2957 58.8042 96.4155C59.9745 96.5354 60.8275 97.5788 60.7076 98.7561Z" fill="white"/>
<path d="M60.7074 98.7564L60.0729 98.693C59.9883 99.5108 59.2551 100.11 58.4373 100.025C58.0213 99.9831 57.6759 99.7787 57.4291 99.4826C57.1894 99.1865 57.0555 98.7987 57.0978 98.3898C57.1401 97.9809 57.3445 97.6284 57.6406 97.3817C57.9367 97.142 58.3245 97.008 58.7334 97.0503C59.5512 97.1349 60.1504 97.8681 60.0658 98.6859L60.7003 98.7494L61.3348 98.8128C61.4899 97.29 60.3831 95.9294 58.8533 95.7743C57.3305 95.6192 55.9698 96.726 55.8147 98.2559C55.6596 99.7786 56.7664 101.139 58.2963 101.294C59.8191 101.449 61.1797 100.343 61.3348 98.8128L60.7003 98.7494L60.7074 98.7564Z" fill="#282725"/>
<path d="M70.3584 82.5826C70.2386 83.7529 69.1952 84.6059 68.0179 84.4931C66.8476 84.3733 65.9945 83.3228 66.1144 82.1525C66.2342 80.9822 67.2776 80.1292 68.455 80.249C69.6253 80.3689 70.4783 81.4123 70.3584 82.5896V82.5826Z" fill="white"/>
<path d="M70.3585 82.5826L69.7241 82.5192C69.6818 82.9351 69.4773 83.2806 69.1812 83.5273C68.8851 83.7741 68.4974 83.901 68.0885 83.8587C67.2707 83.7741 66.6714 83.0409 66.756 82.2231C66.8406 81.4053 67.5738 80.806 68.3916 80.8906C68.8005 80.9329 69.153 81.1374 69.3997 81.4335C69.6394 81.7296 69.7664 82.1173 69.7311 82.5262L70.3656 82.5897L71.0001 82.6531C71.1552 81.1303 70.0483 79.7697 68.5185 79.6146C66.9957 79.4595 65.6351 80.5663 65.48 82.0891C65.3249 83.6119 66.4317 84.9726 67.9616 85.1277C69.4844 85.2828 70.845 84.1759 71.0001 82.6461L70.3656 82.5826H70.3585Z" fill="#282725"/>
<path d="M86.6223 67.5103C86.5025 68.6806 85.452 69.5337 84.2817 69.4209C83.1114 69.301 82.2584 68.2576 82.3712 67.0803C82.4911 65.91 83.5345 65.0569 84.7118 65.1768C85.8821 65.2966 86.7351 66.3471 86.6153 67.5174L86.6223 67.5103Z" fill="white"/>
<path d="M86.623 67.5098L85.9885 67.4464C85.9039 68.2642 85.1707 68.8634 84.3529 68.7788C83.937 68.7365 83.5915 68.5321 83.3448 68.236C83.1051 67.9399 82.9782 67.5521 83.0134 67.1432C83.0557 66.7343 83.2602 66.3818 83.5563 66.1351C83.8524 65.8954 84.2401 65.7614 84.649 65.8037C85.4668 65.8883 86.0661 66.6215 85.9815 67.4393L86.616 67.5028L87.2505 67.5662C87.4056 66.0434 86.2987 64.6828 84.7689 64.5277C83.2461 64.3726 81.8854 65.4794 81.7303 67.0093C81.5752 68.5321 82.6821 69.8927 84.2119 70.0478C85.7347 70.2029 87.0954 69.0961 87.2505 67.5662L86.616 67.5028L86.623 67.5098Z" fill="#282725"/>
<path d="M104.339 63.4495C104.22 64.6198 103.176 65.4728 101.999 65.353C100.829 65.2331 99.9755 64.1897 100.095 63.0124C100.215 61.8421 101.259 60.989 102.436 61.1089C103.606 61.2287 104.459 62.2721 104.339 63.4495Z" fill="white"/>
<path d="M104.339 63.4493L103.705 63.3859C103.662 63.8018 103.458 64.1473 103.162 64.394C102.866 64.6337 102.478 64.7606 102.069 64.7254C101.653 64.6831 101.308 64.4786 101.061 64.1825C100.821 63.8864 100.694 63.4987 100.73 63.0898C100.814 62.272 101.547 61.6727 102.365 61.7573C103.183 61.8419 103.782 62.5751 103.698 63.3929L104.332 63.4564L104.967 63.5198C105.122 61.997 104.015 60.6364 102.485 60.4813C100.962 60.3262 99.6016 61.433 99.4465 62.9629C99.2914 64.4857 100.398 65.8463 101.928 66.0014C103.451 66.1565 104.812 65.0497 104.967 63.5198L104.332 63.4564L104.339 63.4493Z" fill="#282725"/>
<path d="M62.8574 114.421L63.3438 114.717C63.1676 114.626 63.0054 114.527 62.8503 114.443V114.421H62.8574Z" fill="#F1A700"/>
<path d="M62.8572 114.421L62.5258 114.971L63.0123 115.267L63.3437 114.717L63.6468 114.153C63.4776 114.061 63.3155 113.97 63.1604 113.885L62.8502 114.442L63.4635 114.625V114.604L62.8572 114.421L62.2439 114.238V114.259L62.0887 114.752L62.54 115.006C62.688 115.091 62.8572 115.182 63.0405 115.281L63.675 114.174L62.4835 113.455L62.2439 114.245L62.8572 114.428V114.421Z" fill="#282725"/>
<path d="M89.2313 118.242C89.1961 118.609 88.8647 118.877 88.4981 118.841C88.1315 118.806 87.8636 118.475 87.8989 118.108C87.9341 117.742 88.2655 117.474 88.6321 117.509C88.9987 117.544 89.2666 117.876 89.2313 118.242Z" fill="#F1A700"/>
<path d="M96.4431 112.44C96.4078 112.807 96.0765 113.074 95.7099 113.039C95.3433 113.004 95.0754 112.673 95.1107 112.306C95.1459 111.939 95.4772 111.671 95.8438 111.707C96.2104 111.742 96.4783 112.073 96.4431 112.44Z" fill="#F1A700"/>
<path d="M107.117 99.8838C107.082 100.25 106.75 100.518 106.384 100.483C106.017 100.448 105.749 100.116 105.784 99.7498C105.82 99.3832 106.151 99.1153 106.518 99.1506C106.884 99.1858 107.152 99.5172 107.117 99.8838Z" fill="#F1A700"/>
<path d="M113.491 84.7261C113.455 85.0927 113.124 85.3606 112.757 85.3253C112.391 85.2901 112.123 84.9587 112.158 84.5921C112.193 84.2255 112.525 83.9576 112.891 83.9929C113.258 84.0281 113.526 84.3595 113.491 84.7261Z" fill="#F1A700"/>
<path d="M97.7262 85.0575C97.5922 86.3476 96.4431 87.2852 95.153 87.1583C93.8628 87.0244 92.9251 85.8752 93.052 84.5851C93.186 83.295 94.3351 82.3573 95.6253 82.4913C96.9154 82.6252 97.8531 83.7744 97.7191 85.0645L97.7262 85.0575Z" fill="white"/>
<path d="M97.7267 85.0574L97.0923 84.9939C97.0429 85.4663 96.8103 85.8681 96.4719 86.1431C96.1335 86.418 95.6893 86.5661 95.2169 86.5167C94.7446 86.4674 94.3427 86.2347 94.0678 85.8963C93.7928 85.5579 93.6448 85.1138 93.6942 84.6414C93.7435 84.1691 93.9762 83.7672 94.3146 83.4923C94.653 83.2173 95.0971 83.0693 95.5694 83.1186C96.0418 83.168 96.4436 83.4006 96.7186 83.739C96.9935 84.0774 97.1416 84.5216 97.0923 84.9939L97.7267 85.0574L98.3613 85.1208C98.5305 83.4782 97.332 82.0118 95.6893 81.8426C94.0467 81.6734 92.5803 82.8719 92.4111 84.5145C92.2419 86.1572 93.4403 87.6236 95.083 87.7928C96.7256 87.962 98.1921 86.7635 98.3613 85.1208L97.7267 85.0574Z" fill="#11100C"/>
<path d="M36.1244 106.468C44.5491 108.258 47.0096 111.861 45.2682 120.011L42.7937 131.643L18.8167 126.539L21.27 115.019C23.0043 106.87 26.769 104.473 35.2008 106.27L36.1244 106.468ZM25.782 121.576L38.4579 124.276L39.4379 119.665C40.4672 114.829 38.6906 113.588 34.5099 112.7L34.1363 112.622C29.9556 111.734 27.7984 112.129 26.7691 116.972L25.7891 121.583L25.782 121.576Z" fill="#282725"/>
<path d="M51.7406 100.419L49.3154 106.243L26.6849 96.8169L29.1101 90.9937L51.7406 100.419Z" fill="#282725"/>
<path d="M56.1822 91.6913L52.7418 96.9788L32.1841 83.6191L39.8615 71.8033C43.3019 66.5158 45.8892 65.6769 49.8866 68.2713L50.5352 68.6943C53.616 70.6965 54.4127 72.4942 53.2072 75.1239L53.4116 75.2578C55.3644 73.2838 56.5841 72.6282 60.3699 75.0886L65.0088 78.106L61.5543 83.4217L57.2045 80.5947C55.2939 79.3539 54.4691 79.4737 52.763 82.0893L49.386 87.2851L56.1681 91.6913H56.1822ZM40.2352 81.3279L44.7895 84.2889L48.7163 78.247C49.7738 76.6185 49.6962 75.709 48.0818 74.6586L47.9055 74.5458C46.1149 73.3825 45.2054 73.6857 43.6614 76.0686L40.2422 81.3349L40.2352 81.3279Z" fill="#282725"/>
<path d="M76.1686 67.4603L71.572 71.782L59.0019 58.4082L53.6227 63.463L49.3998 58.9722L64.7899 44.4985L69.0129 48.9894L63.5914 54.0865L76.1616 67.4603H76.1686Z" fill="#282725"/>
<path d="M95.6548 54.0582L90.1346 57.1743L85.0022 48.0869L69.9646 40.4094L76.5141 36.7082L85.2067 41.4528L85.3829 41.3541L85.813 31.456L91.735 28.1143L90.4942 44.9426L95.6407 54.0582H95.6548Z" fill="#282725"/>
<path d="M123.115 45.0069C117.137 46.0926 112.476 45.2254 110.77 39.6982L117.376 38.4997C118.236 40.1565 119.858 40.1847 122.903 39.6348C126.351 39.0073 127.458 38.1684 127.19 36.5116L127.14 36.2367C126.908 34.9606 126.231 34.4812 124.179 34.8196L118.61 35.581C112.864 36.3354 110.425 34.8972 109.586 30.2442L109.544 30.0045C108.536 24.4562 111.243 21.5445 118.504 20.2262L119.273 20.0852C125.195 19.0136 129.777 20.2826 131.476 25.7393L124.87 26.9378C124.081 25.1964 122.53 24.9074 119.653 25.4291C116.347 26.0283 115.494 26.825 115.79 28.4465L115.811 28.5522C116.044 29.8283 116.692 30.3147 118.758 30.0468L124.292 29.2572C130.024 28.4324 132.484 30.0116 133.309 34.5235L133.351 34.7632C134.451 40.8262 131.293 43.5334 124.123 44.8377L123.129 45.021L123.115 45.0069Z" fill="#282725"/>
<path d="M148.198 43.6242C139.887 42.9474 136.883 39.5423 137.581 30.9554L137.715 29.3128C138.413 20.7259 141.931 17.8142 150.243 18.491L151.857 18.625C160.169 19.3018 163.194 22.7422 162.496 31.3291L162.362 32.9717C161.664 41.5586 158.118 44.435 149.806 43.7582L148.191 43.6242H148.198ZM149.827 37.9208C154.677 38.3156 155.65 36.2852 155.989 32.1328L156.073 31.0823C156.412 26.8946 155.777 24.7655 150.927 24.3778L150.264 24.3214C145.385 23.9266 144.441 25.9217 144.102 30.1094L144.018 31.1599C143.679 35.3123 144.286 37.4696 149.164 37.8644L149.827 37.9208Z" fill="#282725"/>
<path d="M173.995 49.0813C166.303 46.2613 164.485 42.2357 167.446 34.1494L168.024 32.5702C170.985 24.4839 174.982 22.5874 182.666 25.4074L184.161 25.9573C190.978 28.4601 192.952 31.9005 191.549 38.0974L185.493 35.8766C185.62 34.6923 185.395 33.7899 184.845 33.106C184.295 32.4222 183.223 31.8018 181.623 31.2166L181.214 31.0686C176.759 29.433 175.384 31.1673 173.946 35.08L173.586 36.067C172.155 39.9797 172.084 42.1934 176.54 43.822L176.949 43.97C178.549 44.5552 179.769 44.7808 180.629 44.6116C181.489 44.4424 182.243 43.8995 182.913 42.9125L188.969 45.1333C186.036 50.7733 182.307 52.1269 175.49 49.6241L173.995 49.0742V49.0813Z" fill="#282725"/>
<path d="M193.374 57.9854L188.242 54.3194L202.49 34.375L207.622 38.041L201.905 46.0498L202.067 46.1696L215.822 43.8925L222.723 48.8204L208.758 50.9425L208.687 68.9199L201.877 64.0625L201.919 52.0493L201.729 51.9154L197.196 52.6345L193.367 57.9925L193.374 57.9854Z" fill="#282725"/>
<path d="M222.259 85.3467L209.675 70.4501L228.4 54.6299L240.984 69.5265L236.754 73.1009L228.237 63.0194L225.241 65.5503L233.758 75.6318L229.506 79.2273L220.99 69.1458L217.966 71.6979L226.482 81.7794L222.252 85.3537L222.259 85.3467Z" fill="#282725"/>
<path d="M226.813 93.4195L224.021 87.7584L246.01 76.9155L252.242 89.5562C255.034 95.2173 254.428 97.8681 250.155 99.976L249.464 100.314C246.165 101.943 244.219 101.71 242.569 99.3274L242.351 99.4332C243.049 102.119 242.992 103.508 238.939 105.503L233.976 107.95L231.17 102.267L235.816 99.976C237.86 98.9679 238.177 98.1994 236.796 95.3935L234.053 89.8382L226.799 93.4195H226.813ZM243.867 85.0089L238.995 87.413L242.182 93.8778C243.042 95.6192 243.86 96.021 245.587 95.168L245.777 95.0763C247.695 94.1316 247.892 93.194 246.637 90.6489L243.86 85.016L243.867 85.0089Z" fill="#282725"/>
<path d="M236.584 120.985C235.365 115.027 236.126 110.353 241.611 108.52L242.958 115.098C241.315 115.993 241.329 117.615 241.949 120.653C242.654 124.087 243.515 125.179 245.171 124.869L245.446 124.813C246.715 124.552 247.181 123.868 246.8 121.816L245.919 116.268C245.03 110.544 246.419 108.069 251.051 107.124L251.291 107.075C256.811 105.947 259.786 108.584 261.259 115.817L261.414 116.585C262.62 122.486 261.457 127.097 256.035 128.916L254.689 122.338C256.416 121.513 256.67 119.955 256.085 117.086C255.415 113.794 254.597 112.962 252.983 113.286L252.877 113.307C251.608 113.568 251.136 114.224 251.446 116.289L252.355 121.802C253.307 127.513 251.784 130.016 247.286 130.932L247.047 130.981C241.012 132.215 238.234 129.12 236.768 121.979L236.563 120.985H236.584Z" fill="#282725"/>
<path d="M54.962 221.008L46.7981 211.167L59.5727 200.578L62.3786 203.955L52.8188 211.879L58.1768 218.344L54.9691 221.008H54.962Z" fill="#4B6DD4"/>
<path d="M62.7943 228.749C58.5713 225.02 58.5502 222.665 62.3008 218.421L68.5259 211.371L71.8747 214.332L65.7905 221.22C63.7954 223.476 63.887 224.407 65.6989 226.007L66.0302 226.303C67.8703 227.932 68.7938 227.861 70.7678 225.619L76.8519 218.731L80.2007 221.692L73.9755 228.742C70.2249 232.986 67.8914 233.261 63.6755 229.546L62.7872 228.756L62.7943 228.749Z" fill="#4B6DD4"/>
<path d="M79.2851 241.051C74.4277 238.076 73.7015 235.129 76.7471 230.159L77.3393 229.186C80.3849 224.216 83.3389 223.525 88.1963 226.5L89.141 227.078C93.4485 229.722 94.3509 232.295 92.6025 236.229L88.7744 233.882C89.0141 233.113 88.9718 232.479 88.6898 231.943C88.4078 231.407 87.7592 230.843 86.744 230.223L86.4831 230.068C83.6702 228.34 82.514 229.299 81.0405 231.703L80.6669 232.309C79.1934 234.714 78.8621 236.18 81.6751 237.9L81.9359 238.055C82.9511 238.676 83.7407 239 84.354 239.007C84.9603 239.014 85.5455 238.76 86.1236 238.203L89.9517 240.551C87.2445 243.893 84.5373 244.266 80.2298 241.623L79.2851 241.044V241.051Z" fill="#4B6DD4"/>
<path d="M95.2389 249.103L91.1428 247.524L97.1071 232.049L101.203 233.628L98.8062 239.839L98.9401 239.888L107.746 236.145L113.252 238.267L104.277 241.947L107.456 253.812L102.028 251.718L99.906 243.794L99.7579 243.738L96.8533 244.95L95.2529 249.103H95.2389Z" fill="#4B6DD4"/>
<path d="M119.829 256.413L115.508 255.539L116.904 248.616L112.434 237.999L117.566 239.035L120.013 245.331L120.154 245.359L124.849 240.508L129.488 241.446L121.232 249.476L119.829 256.42V256.413Z" fill="#4B6DD4"/>
<path d="M149.848 258.168L136.277 258.394L136.009 241.813L149.58 241.587L149.644 245.33L140.458 245.486L140.5 248.136L149.686 247.981L149.749 251.746L140.563 251.901L140.606 254.58L149.792 254.425L149.855 258.168H149.848Z" fill="#4B6DD4"/>
<path d="M169.045 247.036C170.102 252.768 168.425 255.242 162.721 256.293L154.578 257.794L151.575 241.481L159.633 240C165.337 238.95 167.868 240.677 168.925 246.409L169.038 247.036H169.045ZM156.609 244.533L158.195 253.155L161.424 252.563C164.808 251.943 165.139 250.505 164.618 247.663L164.568 247.41C164.047 244.568 163.222 243.321 159.838 243.941L156.609 244.533Z" fill="#4B6DD4"/>
<path d="M178.633 252.155L174.452 253.481L169.44 237.675L173.62 236.349L178.633 252.155Z" fill="#4B6DD4"/>
<path d="M190.738 247.291L186.726 249.082L181.672 237.745L176.983 239.839L175.284 236.032L188.714 230.04L190.414 233.847L185.683 235.955L190.738 247.291Z" fill="#4B6DD4"/>
<path d="M202.265 241.073L198.479 243.301L190.075 229.004L193.861 226.776L202.265 241.073Z" fill="#4B6DD4"/>
<path d="M212.473 234.319C207.89 237.872 204.781 237.583 201.214 232.972L200.53 232.091C196.963 227.48 197.442 224.385 202.025 220.832L202.913 220.141C207.495 216.588 210.633 216.884 214.207 221.495L214.891 222.376C218.458 226.987 217.95 230.075 213.368 233.628L212.48 234.319H212.473ZM210.703 230.716C213.375 228.643 212.952 227.177 211.225 224.942L210.788 224.378C209.046 222.129 207.742 221.368 205.07 223.44L204.704 223.722C202.011 225.809 202.441 227.247 204.182 229.496L204.619 230.06C206.346 232.288 207.643 233.078 210.337 230.998L210.703 230.716Z" fill="#4B6DD4"/>
<path d="M234.688 212.126L230.296 217.089L217.394 214.262L217.288 214.382L225.932 222.024L223.14 225.175L210.718 214.191L215.11 209.228L228.026 212.076L228.131 211.957L219.467 204.3L222.259 201.149L234.681 212.133L234.688 212.126Z" fill="#4B6DD4"/>
</svg>
