<svg width="282" height="283" viewBox="0 0 282 283" fill="none" xmlns="http://www.w3.org/2000/svg">
<path d="M141 282.998C218.872 282.998 282 219.87 282 141.998C282 64.1263 218.872 0.998535 141 0.998535C63.1278 0.998535 0 64.1263 0 141.998C0 219.87 63.1278 282.998 141 282.998Z" fill="#3C3C3B"/>
<path d="M141 272.036C69.2945 272.036 10.9629 213.697 10.9629 141.998C10.9629 70.3001 69.3015 11.9614 141 11.9614C212.698 11.9614 271.037 70.3001 271.037 141.998C271.037 213.697 212.705 272.036 141 272.036Z" fill="white"/>
<path d="M141 15.1062C211.077 15.1062 267.893 71.915 267.893 141.999C267.893 212.083 211.084 268.892 141 268.892C70.9161 268.892 14.1073 212.083 14.1073 141.999C14.1073 71.915 70.9161 15.1062 141 15.1062ZM141 8.81055C67.5603 8.81055 7.81873 68.5592 7.81873 141.992C7.81873 215.425 67.5674 275.173 141 275.173C214.433 275.173 274.188 215.425 274.188 141.992C274.188 68.5592 214.44 8.8176 141 8.8176V8.81055Z" fill="#282725"/>
<path d="M240.512 117.704C240.032 112.952 236.345 109.054 229.542 106.1C228.407 105.606 227.159 105.134 225.777 104.662C211.416 72.1049 178.873 49.3687 141.008 49.3687C89.8533 49.3687 48.3782 90.8367 48.3782 141.998C48.3782 193.16 89.8462 234.628 141.008 234.628C192.17 234.628 233.638 193.16 233.638 141.998C233.638 139.517 233.511 137.071 233.32 134.638C233.99 134.074 234.646 133.468 235.259 132.826L235.316 132.77L235.365 132.714L235.83 132.192C239.433 128.096 241.033 123.104 240.519 117.704H240.512Z" fill="#282725"/>
<path d="M174.142 72.6406C168.707 72.6406 164.075 76.074 162.256 80.8821C162.679 82.2991 162.919 83.8008 162.919 85.3518C162.919 86.9028 162.679 88.4185 162.256 89.8426C162.411 90.2444 162.58 90.6392 162.778 91.027C169.828 92.0422 176.694 93.1349 183.208 94.2559C185.486 91.9787 186.867 88.8344 186.867 85.3659C186.867 78.3582 181.157 72.6477 174.149 72.6477L174.142 72.6406Z" fill="white"/>
<path d="M179.162 82.5461V78.9224C177.3 78.9365 175.883 80.4381 175.883 82.2852C175.883 84.1323 177.42 85.7679 179.275 85.7679C180.924 85.7679 182.334 84.5483 182.623 83.0819C182.637 82.9973 182.743 82.1231 182.517 81.4745C182.221 80.6355 181.869 80.2689 181.869 80.1773L179.162 82.5461Z" fill="#282725"/>
<path d="M147.331 71.2798C139.569 71.2798 133.253 77.5966 133.253 85.3586C133.253 93.1207 139.569 99.4304 147.331 99.4304C155.093 99.4304 161.41 93.1136 161.41 85.3586C161.41 77.6036 155.093 71.2798 147.331 71.2798Z" fill="white"/>
<path d="M156.151 82.5671V78.5557C154.092 78.5698 152.52 80.2336 152.52 82.2781C152.52 84.3226 154.219 86.1344 156.277 86.1344C158.103 86.1344 159.661 84.7808 159.986 83.1593C160.007 83.0677 160.12 82.0948 159.866 81.3827C159.542 80.4521 159.147 80.0503 159.147 79.9445L156.143 82.5671H156.151Z" fill="#282725"/>
<path d="M236.422 118.092C236.048 114.391 232.283 111.768 227.905 109.865C226.192 109.118 224.387 108.504 222.653 107.961C220.439 107.299 218.352 106.784 216.738 106.368L216.47 106.305C202.18 102.73 182.701 99.0644 163.017 96.2937C162.77 96.2514 162.545 96.2303 162.312 96.188C158.653 101.687 152.632 105.29 145.85 105.29C139.068 105.29 133.153 101.772 129.473 96.3783C120.499 98.1338 113.033 101.525 107.181 106.573C95.4148 116.682 89.5844 133.229 89.3588 157.149C89.2531 166.85 88.3436 181.176 87.3496 194.782C88.7948 193.894 91.3821 192.343 94.7309 190.608L92.8063 187.88C92.3903 187.281 92.5383 186.456 93.1376 186.04C93.7368 185.603 94.5617 185.751 94.9776 186.35L97.1067 189.389C99.0314 188.458 101.118 187.485 103.353 186.534L99.7999 184.447C99.1795 184.073 98.9538 183.269 99.3275 182.649C99.7011 182.029 100.505 181.824 101.146 182.177L106.335 185.236L106.561 181.972C106.603 181.246 107.245 180.731 107.971 180.753C108.697 180.795 109.254 181.436 109.19 182.163L109.042 184.355C111.193 183.608 113.406 182.91 115.683 182.332C116.388 182.148 117.108 182.557 117.298 183.284C117.46 183.989 117.051 184.708 116.346 184.877C113.78 185.54 111.256 186.343 108.838 187.232L108.753 188.388C108.711 189.093 108.133 189.607 107.449 189.607H107.343C106.638 189.565 106.124 188.966 106.124 188.282C103.438 189.354 100.914 190.496 98.6366 191.61C98.9257 192.188 98.7846 192.914 98.2418 193.302C98.0162 193.464 97.7483 193.527 97.4804 193.527C97.0645 193.527 96.6555 193.344 96.4017 192.97L96.2749 192.808C90.9803 195.536 87.547 197.792 87.4624 197.835C87.3566 197.919 87.2156 197.919 87.0887 197.962C86.7574 202.615 86.3837 207.162 86.0735 211.321C101.146 223.292 120.238 230.448 140.972 230.448C146.393 230.448 151.702 229.954 156.855 229.024C153.88 209.65 149.58 168.5 149.1 154.893C149.721 155.055 150.362 155.246 150.983 155.387C155.431 156.423 160.352 157.079 165.315 157.079C176.602 157.079 187.96 153.709 193.685 144.114C194.411 142.894 194.016 141.322 192.796 140.617C191.598 139.87 190.026 140.286 189.299 141.484C189.215 141.632 189.116 141.752 189.032 141.879C188.721 141.773 188.369 141.696 187.939 141.632C187.234 141.526 185.746 142.478 184.548 143.226C182.708 144.382 180.642 145.665 178.301 145.665C177.949 145.665 177.554 145.644 177.188 145.559C174.833 145.122 173.359 142.972 172.076 141.089C171.519 140.265 170.462 138.714 169.968 138.544C169.327 138.417 167.508 139.538 166.331 140.279C163.955 141.724 161.283 143.381 158.35 142.803C156.242 142.387 154.832 141.167 153.718 140.173C152.703 139.285 152.04 138.728 151.089 138.537C149.707 138.291 148.79 136.944 149.065 135.562C149.312 134.18 150.658 133.285 152.04 133.539C154.395 133.997 155.89 135.294 157.088 136.352C158.04 137.177 158.618 137.656 159.344 137.797C160.317 138.001 162.157 136.845 163.645 135.936C165.943 134.512 168.34 133.017 170.984 133.539C173.444 134.032 174.953 136.246 176.299 138.213C176.835 139.017 177.766 140.363 178.203 140.568C178.971 140.695 180.501 139.743 181.841 138.89C183.843 137.628 186.099 136.204 188.665 136.577C191.478 136.993 192.902 138.001 194.044 138.833C195.038 139.538 195.574 139.912 197.188 139.99C207.693 140.547 220.806 138.46 228.949 132.77C230.189 131.946 231.303 130.994 232.276 129.979C232.438 129.795 232.608 129.605 232.77 129.422C235.604 126.193 236.823 122.393 236.407 118.092H236.422ZM102.133 198.843C101.908 199.005 101.64 199.09 101.386 199.09C100.97 199.09 100.561 198.885 100.293 198.512L99.9831 198.074C99.5671 197.475 99.7153 196.65 100.315 196.234C100.914 195.818 101.725 195.966 102.155 196.566L102.465 197.003C102.881 197.602 102.733 198.427 102.133 198.843ZM116.113 192.512C115.867 192.949 115.43 193.175 114.978 193.175C114.753 193.175 114.52 193.111 114.316 192.991L110.551 190.778C109.931 190.404 109.705 189.6 110.072 188.98C110.445 188.338 111.249 188.134 111.891 188.508L115.634 190.721C116.276 191.095 116.48 191.899 116.107 192.519L116.113 192.512ZM128.705 185.236C128.479 185.377 128.232 185.462 127.957 185.462C127.542 185.462 127.133 185.279 126.865 184.905L123.312 179.78C122.896 179.18 123.044 178.356 123.643 177.94C124.242 177.524 125.067 177.672 125.483 178.271L129.043 183.396C129.459 183.996 129.311 184.82 128.712 185.236H128.705Z" fill="white"/>
<path d="M191.972 148.676C192.642 147.639 193.756 146.8 194.877 146.279C194.136 145.806 193.481 145.334 192.888 144.861C192.014 144.537 191.267 144.608 190.611 145.101C189.455 145.968 188.884 147.815 188.778 148.809C189.624 149.423 190.477 150.015 191.33 150.572C191.373 149.923 191.577 149.282 191.965 148.676H191.972Z" fill="#E5D2AD"/>
<path d="M189.758 143.959C190.196 143.635 190.675 143.444 191.176 143.339C190.471 142.634 189.921 141.992 189.526 141.47C187.376 141.188 184.513 141.964 182.927 143.79C184.323 145.256 185.881 146.61 187.502 147.865C187.806 146.532 188.525 144.883 189.758 143.959Z" fill="#E5D2AD"/>
<path d="M206.029 157.615C208.807 158.151 210.259 157.234 210.908 154.562C211.162 153.533 211.091 152.644 210.732 151.954C211.042 153.223 210.668 154.59 210.245 155.19C210.041 155.472 209.653 155.542 209.364 155.338C209.082 155.133 209.018 154.745 209.216 154.463C209.491 154.083 209.808 152.898 209.463 151.989C209.23 151.383 208.744 151.009 207.975 150.847C207.376 150.713 206.967 151.129 206.692 151.608C206.988 151.467 207.362 151.383 207.869 151.411C208.215 151.432 208.483 151.728 208.462 152.08C208.44 152.426 208.13 152.694 207.792 152.673C207.298 152.644 207.108 152.807 207.009 152.934C206.473 153.653 206.939 155.676 207.249 156.55C207.326 156.769 207.277 157.008 207.129 157.178C207.009 157.312 206.833 157.389 206.657 157.389C206.607 157.389 206.565 157.389 206.516 157.375C204.986 157.03 204.542 154.661 205 152.574C205.204 151.636 205.571 150.903 206.043 150.388C202.095 149.74 198.958 148.577 196.498 147.258C195.426 147.484 193.917 148.288 193.156 149.472C192.712 150.156 192.613 150.84 192.839 151.538C198.916 155.225 204.683 157.375 206.022 157.636L206.029 157.615Z" fill="#E5D2AD"/>
<path d="M206.693 151.601C206.989 151.46 207.362 151.376 207.87 151.404C208.215 151.425 208.483 151.721 208.462 152.074C208.441 152.419 208.131 152.687 207.792 152.666C207.299 152.638 207.108 152.8 207.01 152.927C206.664 153.392 206.735 154.4 206.911 155.288C207.235 155.648 207.63 155.895 208.074 155.895C208.547 155.895 208.963 155.634 209.294 155.239C209.097 155.027 209.04 154.717 209.216 154.471C209.491 154.09 209.809 152.905 209.463 151.996C209.23 151.39 208.744 151.016 207.976 150.854C207.694 150.79 207.454 150.854 207.249 150.988C207.122 151.079 207.003 151.192 206.897 151.319C206.819 151.411 206.756 151.517 206.693 151.622V151.601Z" fill="#AC2535"/>
<path d="M211.394 150.382C210.47 149.402 209.067 148.936 207.714 149.141C203.315 148.598 199.902 147.364 197.294 145.968L197.315 145.729C197.174 145.714 197.012 145.729 196.857 145.729C193.205 143.684 191.245 141.358 190.526 140.363L190.357 140.124L190.068 140.074C187.304 139.581 183.321 140.596 181.375 143.409L181.044 143.888L181.438 144.319C184.343 147.477 188.065 150.255 191.746 152.525C191.788 152.609 191.802 152.701 191.851 152.793L192.02 152.694C198.041 156.367 203.879 158.679 205.747 159.039C206.325 159.152 206.868 159.208 207.375 159.208C209.963 159.208 211.619 157.763 212.317 154.908C212.762 153.089 212.43 151.488 211.394 150.382ZM191.964 148.675C191.576 149.282 191.372 149.923 191.33 150.572C190.47 150.015 189.616 149.423 188.778 148.809C188.876 147.815 189.447 145.968 190.61 145.101C191.266 144.608 192.013 144.537 192.888 144.861C193.48 145.334 194.136 145.806 194.876 146.278C193.755 146.8 192.634 147.639 191.971 148.675H191.964ZM182.919 143.783C184.505 141.964 187.367 141.181 189.518 141.463C189.913 141.985 190.455 142.627 191.167 143.332C190.667 143.437 190.188 143.628 189.75 143.952C188.517 144.875 187.798 146.525 187.494 147.858C185.873 146.603 184.315 145.249 182.919 143.783ZM210.9 154.555C210.252 157.227 208.799 158.136 206.022 157.608C204.682 157.347 198.915 155.197 192.838 151.51C192.62 150.812 192.718 150.135 193.156 149.444C193.917 148.259 195.426 147.456 196.497 147.23C198.958 148.549 202.095 149.712 206.043 150.36C205.571 150.875 205.204 151.615 205 152.546C204.541 154.633 204.978 157.001 206.515 157.347C206.558 157.354 206.607 157.361 206.656 157.361C206.833 157.361 207.009 157.283 207.129 157.149C207.277 156.98 207.326 156.741 207.248 156.522C206.938 155.655 206.466 153.624 207.009 152.905C207.1 152.779 207.298 152.609 207.791 152.645C208.13 152.666 208.44 152.405 208.461 152.052C208.482 151.707 208.214 151.404 207.869 151.383C207.361 151.361 206.988 151.439 206.692 151.58C206.967 151.094 207.375 150.678 207.975 150.819C208.743 150.981 209.23 151.354 209.462 151.961C209.815 152.87 209.49 154.055 209.215 154.435C209.011 154.717 209.081 155.112 209.363 155.309C209.645 155.521 210.04 155.443 210.245 155.161C210.668 154.569 211.041 153.201 210.731 151.925C211.091 152.616 211.154 153.498 210.907 154.534L210.9 154.555Z" fill="#282725"/>
<g opacity="0.68">
<path fill-rule="evenodd" clip-rule="evenodd" d="M227.447 65.041C224.938 67.713 221.568 70.2298 218.007 70.7515C209.963 71.9218 203.358 79.2679 201.165 81.538C200.622 82.1443 200.101 82.7647 199.628 83.3921C195.053 89.018 191.436 95.8777 192.522 103.456C193.241 103.097 194.327 103.097 195.046 102.737C195.405 104.782 196.371 106.629 197.718 108.123C198.394 108.871 199.163 109.533 200.002 110.083C202.265 111.761 205.155 112.121 207.679 110.676C206.96 114.285 209.844 116.09 212.375 117.895C208.765 121.504 205.155 126.919 207.32 131.614C208.405 134.864 213.82 134.138 214.898 137.853C215.335 139.27 215.336 140.85 214.934 142.274C214.137 145.108 212.114 147.484 210.133 149.761C210.901 150.092 211.38 150.825 211.592 151.671C215.018 147.35 218.445 143.028 221.871 138.713C221.441 138.086 220.898 137.536 220.285 137.057C217.422 134.871 210.563 133.426 212.367 130.176C215.258 123.316 224.642 114.652 213.813 109.956C215.977 108.511 219.587 106.347 217.429 102.681C216.943 101.595 216.33 100.615 215.625 99.7481C212.078 95.4335 206.114 94.1293 201.905 90.8228C199.381 88.6585 202.991 85.0489 204.359 82.4192C204.796 81.4393 205.882 80.3536 206.601 79.994C213.82 77.4701 222.125 76.0249 226.453 69.8844C227.574 68.3898 227.793 66.726 227.433 65.041H227.447ZM202.328 99.8891C204.725 99.586 207.355 99.7129 209.59 100.862C210.337 101.243 211.035 101.743 211.662 102.371C212.748 103.09 213.827 105.261 212.748 106.34C209.858 108.504 205.529 108.504 203.618 105.05C202.991 104.19 202.504 103.203 202.215 102.159C201.884 101.37 201.694 100.27 202.328 99.8821V99.8891Z" fill="#CDCBC2"/>
</g>
<path d="M36.0963 107.461C44.521 109.251 46.9815 112.854 45.2472 121.011L42.7727 132.65L18.7957 127.553L21.249 116.027C22.9833 107.87 26.748 105.473 35.1798 107.263L36.1033 107.461H36.0963ZM25.754 122.583L38.4228 125.276L39.4098 120.658C40.4391 115.815 38.6625 114.581 34.4819 113.693L34.1012 113.615C29.9205 112.727 27.7632 113.129 26.7339 117.965L25.754 122.583Z" fill="#282725"/>
<path d="M51.7407 101.342L49.3085 107.165L26.6851 97.711L29.1174 91.8877L51.7407 101.342Z" fill="#282725"/>
<path d="M56.1819 92.6347L52.7415 97.9222L32.1908 84.5484L39.8753 72.7326C43.3157 67.4451 45.9101 66.6062 49.9004 69.2076L50.5489 69.6306C53.6298 71.6399 54.4264 73.4306 53.2138 76.0673L53.4183 76.2012C55.3711 74.2272 56.5908 73.5716 60.3766 76.032L65.0155 79.0494L61.561 84.3651L57.2183 81.5381C55.3077 80.2973 54.4828 80.4171 52.7767 83.0326L49.3998 88.2214L56.1819 92.6347ZM40.2418 82.2572L44.7891 85.2181L48.723 79.1763C49.7805 77.5548 49.71 76.6383 48.0885 75.5879L47.9122 75.4751C46.1215 74.3118 45.2121 74.615 43.6611 76.9908L40.2348 82.2572H40.2418Z" fill="#282725"/>
<path d="M76.197 68.4177L71.5935 72.7393L59.0303 59.3655L53.6512 64.4203L49.4353 59.9295L64.8395 45.4629L69.0554 49.9537L63.634 55.0438L76.197 68.4177Z" fill="#282725"/>
<path d="M95.683 55.0374L90.1558 58.1465L85.0305 49.052L69.9858 41.3605L76.5423 37.6663L85.235 42.418L85.4112 42.3193L85.8483 32.4281L91.7774 29.0864L90.5295 45.9147L95.676 55.0374H95.683Z" fill="#282725"/>
<path d="M123.15 45.9777C117.164 47.0634 112.511 46.1962 110.798 40.662L117.404 39.4635C118.264 41.1202 119.885 41.1484 122.931 40.5985C126.371 39.9781 127.485 39.1321 127.217 37.4754L127.168 37.2004C126.935 35.9244 126.259 35.4379 124.2 35.7763L118.63 36.5377C112.885 37.2921 110.445 35.8468 109.599 31.1938L109.557 30.9541C108.549 25.4058 111.256 22.4942 118.525 21.1758L119.293 21.0348C125.215 19.9632 129.805 21.2322 131.497 26.696L124.891 27.8944C124.101 26.1461 122.55 25.857 119.674 26.3787C116.367 26.978 115.514 27.7746 115.81 29.3961L115.832 29.5018C116.064 30.7779 116.713 31.2643 118.778 30.9964L124.313 30.2068C130.051 29.382 132.512 30.9682 133.33 35.4873L133.372 35.727C134.472 41.797 131.313 44.5042 124.136 45.8014L123.142 45.9847L123.15 45.9777Z" fill="#282725"/>
<path d="M148.234 44.6027C139.929 43.9259 136.925 40.5137 137.623 31.9268L137.757 30.2842C138.455 21.6902 141.973 18.7786 150.278 19.4554L151.892 19.5893C160.197 20.2661 163.229 23.7136 162.531 32.3075L162.397 33.9502C161.699 42.5441 158.153 45.4205 149.848 44.7437L148.234 44.6097V44.6027ZM149.855 38.8992C154.698 39.294 155.678 37.2636 156.017 33.1112L156.101 32.0608C156.447 27.866 155.805 25.744 150.955 25.3492L150.292 25.2928C145.421 24.898 144.476 26.8931 144.13 31.0808L144.046 32.1313C143.707 36.2907 144.314 38.448 149.192 38.8428L149.855 38.8992Z" fill="#282725"/>
<path d="M174.037 50.0814C166.352 47.2543 164.533 43.2217 167.501 35.1354L168.08 33.5562C171.048 25.4628 175.045 23.5734 182.729 26.4004L184.224 26.9503C191.041 29.4601 193.008 32.9076 191.598 39.1116L185.542 36.8838C185.669 35.6994 185.444 34.797 184.894 34.1061C184.344 33.4152 183.272 32.8018 181.672 32.2096L181.263 32.0616C176.807 30.4189 175.433 32.1532 173.994 36.073L173.635 37.06C172.197 40.9728 172.126 43.1865 176.575 44.8291L176.984 44.9772C178.584 45.5694 179.804 45.7879 180.664 45.6187C181.531 45.4495 182.285 44.9067 182.955 43.9197L189.011 46.1475C186.078 51.7875 182.342 53.1411 175.524 50.6313L174.03 50.0814H174.037Z" fill="#282725"/>
<path d="M193.424 58.9849L188.292 55.3189L202.547 35.3604L207.679 39.0263L201.955 47.0422L202.117 47.162L215.872 44.8849L222.774 49.8128L208.808 51.9419L208.73 69.9264L201.92 65.069L201.969 53.0488L201.779 52.9148L197.246 53.641L193.417 58.999L193.424 58.9849Z" fill="#282725"/>
<path d="M222.315 86.3813L209.717 71.4635L228.463 55.6504L241.061 70.5682L236.831 74.1355L228.308 64.0399L225.312 66.5708L233.835 76.6664L229.577 80.2549L221.053 70.1593L218.029 72.7114L226.552 82.8069L222.322 86.3742L222.315 86.3813Z" fill="#282725"/>
<path d="M226.841 94.4183L224.057 88.7572L246.045 77.9072L252.271 90.5549C255.055 96.216 254.456 98.8739 250.184 100.982L249.493 101.327C246.193 102.956 244.248 102.723 242.598 100.34L242.379 100.446C243.077 103.132 243.021 104.521 238.967 106.523L234.004 108.969L231.198 103.28L235.851 100.989C237.896 99.9807 238.213 99.2123 236.831 96.3994L234.096 90.844L226.841 94.4254V94.4183ZM243.902 86.0006L239.031 88.3976L242.217 94.8624C243.07 96.6038 243.895 97.0056 245.622 96.1526L245.813 96.0609C247.73 95.1162 247.928 94.1786 246.68 91.6336L243.902 86.0006Z" fill="#282725"/>
<path d="M236.612 121.976C235.392 116.026 236.154 111.345 241.646 109.512L242.992 116.09C241.35 116.985 241.364 118.606 241.984 121.645C242.682 125.078 243.556 126.171 245.206 125.861L245.481 125.804C246.75 125.544 247.215 124.86 246.835 122.808L245.953 117.26C245.065 111.535 246.454 109.061 251.086 108.116L251.325 108.067C256.853 106.939 259.821 109.575 261.301 116.809L261.456 117.577C262.662 123.478 261.499 128.089 256.077 129.908L254.731 123.33C256.458 122.505 256.712 120.947 256.119 118.085C255.45 114.792 254.632 113.96 253.017 114.285L252.912 114.306C251.643 114.567 251.17 115.222 251.48 117.288L252.397 122.801C253.349 128.512 251.826 131.014 247.328 131.931L247.088 131.98C241.047 133.214 238.269 130.119 236.81 122.977L236.605 121.983L236.612 121.976Z" fill="#282725"/>
<path d="M229.958 186.667L238.347 186.604L240.878 178.602L243.536 186.561L251.925 186.491L245.179 191.475L247.836 199.435L241.005 194.563L234.258 199.548L236.789 191.546L229.958 186.667Z" fill="#282725"/>
<path d="M238.896 159.8L246.926 157.382L247.117 148.992L251.897 155.887L259.927 153.476L254.851 160.152L259.631 167.047L251.706 164.277L246.63 170.953L246.814 162.563L238.896 159.8Z" fill="#282725"/>
<path d="M53.4114 188.028L45.0219 188.084L42.3711 180.118L39.8331 188.112L31.4436 188.169L38.261 193.054L35.723 201.056L42.4769 196.079L49.3013 200.964L46.6505 193.005L53.4114 188.028Z" fill="#282725"/>
<path d="M44.0841 161.287L36.0118 158.989L35.7017 150.606L31.0275 157.572L22.9553 155.274L28.13 161.872L23.4558 168.838L31.3307 165.954L36.5124 172.553L36.2022 164.171L44.0841 161.287Z" fill="#282725"/>
<path d="M122.523 97.957C121.55 103.928 119.139 110.788 115.36 117.598C108.077 130.732 97.9393 139.658 90.3746 140.391C93.0536 120.841 102.627 105.719 122.516 97.957H122.523Z" fill="#282725"/>
<path d="M109.917 78.3942L103.269 92.8326C92.659 97.0062 87.0825 108.561 86.6172 108.942L80.3075 123.324L79.3769 125.439L78.4815 124.896L69.9088 119.693L63.5919 115.865L61.5898 114.645C70.7195 110.317 61.3923 100.792 61.3923 100.792C78.1431 102.71 70.0497 85.2679 70.0497 85.2679C87.428 87.3618 85.1508 69.6452 85.1508 69.6452C97.3473 75.1794 101.845 65.4434 101.845 65.4434L104.933 70.3924L108.056 75.3979L109.925 78.3942H109.917Z" fill="#F3AE13"/>
<path d="M109.917 78.3936L109.339 78.1257L102.69 92.5641L103.269 92.832L103.036 92.2328C97.5792 94.383 93.462 98.3945 90.642 101.905C89.232 103.661 88.1463 105.289 87.3849 106.509C87.0042 107.115 86.7011 107.623 86.4896 107.975C86.3838 108.152 86.2921 108.3 86.2357 108.391C86.2075 108.441 86.1793 108.476 86.1723 108.49L86.4543 108.723L86.2287 108.448C86.1723 108.497 86.1723 108.504 86.1723 108.504L86.4543 108.73L86.2287 108.455L86.1089 108.553L79.7356 123.076L79.1011 124.522L78.8263 124.36L70.2534 119.157L63.9367 115.329L61.9344 114.109L61.6031 114.659L61.8781 115.237C63.3022 114.56 64.3385 113.749 65.0435 112.826C65.7485 111.909 66.1151 110.894 66.2138 109.879C66.3337 108.68 66.108 107.489 65.7132 106.375C65.121 104.711 64.1622 103.224 63.3515 102.131C62.5407 101.045 61.871 100.361 61.8569 100.347L61.3986 100.798L61.3281 101.433C61.4409 101.447 61.5467 101.454 61.6524 101.468C63.57 101.666 65.1845 101.609 66.5451 101.341C68.5826 100.947 70.056 100.051 71.0219 98.8597C71.9877 97.6683 72.446 96.223 72.594 94.7496C72.8267 92.4302 72.3331 90.012 71.7903 88.1579C71.2474 86.3037 70.6482 85.0206 70.6411 84.9995L70.0631 85.2674L69.9855 85.9019C70.1477 85.923 70.3098 85.9371 70.4649 85.9583C73.4047 86.2544 75.8158 85.9935 77.7898 85.3238C80.7508 84.3227 82.6825 82.398 83.881 80.2689C85.0866 78.1328 85.5872 75.7922 85.7846 73.8534C86.0313 71.4212 85.7986 69.6023 85.7986 69.567L85.1642 69.6516L84.8963 70.2368C87.0747 71.2238 89.0276 71.7455 90.776 71.9217C92.8557 72.1332 94.6393 71.8583 96.1339 71.3154C98.3758 70.5047 99.9479 69.1088 100.956 67.9244C101.964 66.74 102.423 65.753 102.437 65.7178L101.859 65.4499L101.316 65.7883L104.404 70.7373L107.52 75.7428L109.388 78.7391L109.931 78.4007L110.474 78.0623L108.605 75.066L105.482 70.0605L101.767 64.1104L101.266 65.189C101.245 65.2384 100.484 66.8246 98.82 68.2628C97.9881 68.9819 96.9306 69.6728 95.6334 70.1381C94.3292 70.6034 92.7711 70.8431 90.9029 70.6527C89.3096 70.4906 87.4907 70.0112 85.418 69.0735L84.3746 68.6012L84.5226 69.7433V69.7574C84.5438 69.9266 84.7271 71.5904 84.5085 73.7336C84.3816 74.9532 84.1349 76.328 83.6555 77.6745C82.9364 79.6979 81.7309 81.6437 79.7075 82.9902C77.6771 84.3368 74.7936 85.1193 70.5918 84.6963C70.4438 84.6822 70.2887 84.6611 70.1336 84.647L68.9915 84.513L69.478 85.5564V85.5705C69.5414 85.6974 70.1124 86.9664 70.6059 88.7078C71.1065 90.4491 71.5225 92.6628 71.318 94.6439C71.2264 95.511 71.0289 96.3288 70.6764 97.055C70.1406 98.1406 69.3017 99.0289 67.8988 99.6282C66.5029 100.22 64.5218 100.495 61.7793 100.213C61.6736 100.206 61.5749 100.192 61.4692 100.178L59.6785 99.9736L60.9404 101.264H60.9474C61.0602 101.391 62.1812 102.575 63.2035 104.211C63.7181 105.028 64.1975 105.959 64.5289 106.911C64.8602 107.87 65.0223 108.843 64.9307 109.766C64.8461 110.57 64.5782 111.331 64.0213 112.057C63.4643 112.783 62.6042 113.481 61.3211 114.088L60.2495 114.595L63.2669 116.428L69.626 120.285L78.1635 125.466L79.6793 126.383L80.8989 123.598L87.2086 109.216L86.6235 108.962L87.0254 109.456C87.0818 109.414 87.1029 109.378 87.1311 109.35C87.1804 109.294 87.2087 109.251 87.251 109.195C87.3849 108.998 87.5682 108.687 87.822 108.264C88.7173 106.784 90.4799 103.922 93.1025 101.01C95.7251 98.0913 99.2077 95.1374 103.508 93.4454L103.748 93.3537L110.643 78.3654L110.46 78.0693L109.917 78.4077V78.3936Z" fill="#11100C"/>
<path d="M113.448 108.983C111.897 111.289 110.1 113.622 108.083 115.906C97.5225 127.863 84.9313 133.997 79.9681 129.611C78.4312 128.258 77.8037 126.058 77.9729 123.309C84.0993 123.288 93.5604 117.507 101.788 108.187C103.55 106.198 105.136 104.168 106.539 102.152C110.981 95.7997 113.597 89.5605 113.893 84.8934C115.634 84.8793 117.1 85.3375 118.193 86.3034C122.219 89.8566 120.012 99.2049 113.441 108.983H113.448Z" fill="#F3AE13"/>
<path d="M113.448 108.983C104.904 118.268 97.5366 120.376 97.5366 120.376L106.046 104.231L106.539 102.152C110.981 95.7997 113.597 89.5605 113.893 84.8934C115.634 84.8793 117.1 85.3375 118.193 86.3034C122.219 89.8566 120.012 99.2049 113.441 108.983H113.448Z" fill="#F3AE13"/>
<path d="M108.077 115.913L107.598 115.49C103.304 120.348 98.6794 124.232 94.4 126.813C92.2639 128.103 90.2124 129.069 88.3441 129.668C86.4759 130.267 84.7909 130.5 83.395 130.359C82.1683 130.232 81.1672 129.83 80.3917 129.139C79.7219 128.547 79.2425 127.771 78.9464 126.806C78.6503 125.84 78.5375 124.676 78.6151 123.358L77.9735 123.316V123.957C79.6091 123.957 81.4139 123.57 83.3456 122.858C89.1266 120.728 96.0426 115.674 102.275 108.624C105.842 104.584 108.733 100.396 110.812 96.4271C112.892 92.458 114.168 88.7215 114.492 85.549C114.514 85.3445 114.528 85.1471 114.542 84.9427L113.9 84.9004V85.5419C114.211 85.5419 114.507 85.556 114.796 85.5842C116.015 85.7111 117.009 86.113 117.778 86.7968C118.497 87.4313 118.99 88.2773 119.286 89.3419C119.575 90.4064 119.653 91.6895 119.505 93.1418C119.209 96.0817 117.989 99.6983 115.959 103.555C113.936 107.418 111.101 111.528 107.598 115.497L108.077 115.92L108.556 116.343C112.124 112.304 115.007 108.116 117.087 104.154C119.167 100.185 120.443 96.4483 120.767 93.2758C120.929 91.7036 120.852 90.2725 120.506 89.0105C120.161 87.7486 119.54 86.6629 118.61 85.8451C117.609 84.9568 116.333 84.4633 114.908 84.3223C114.577 84.287 114.232 84.2729 113.879 84.2729H113.28L113.245 84.8722C113.231 85.0555 113.216 85.2388 113.195 85.4291C112.899 88.369 111.68 91.9856 109.649 95.842C107.626 99.7054 104.792 103.816 101.288 107.785C97.213 112.402 92.8278 116.139 88.7318 118.712C86.6803 120.002 84.7063 120.996 82.8804 121.666C81.0544 122.336 79.3835 122.681 77.9523 122.688H77.3531L77.3179 123.288C77.2263 124.719 77.3461 126.037 77.6986 127.193C78.0511 128.349 78.6574 129.351 79.5246 130.112C80.5327 131 81.8157 131.501 83.2469 131.642C84.8825 131.804 86.7296 131.536 88.7177 130.902C91.6998 129.943 95.0133 128.159 98.4044 125.692C101.795 123.224 105.271 120.066 108.549 116.357L108.07 115.934L108.077 115.913Z" fill="#282725"/>
<path d="M109.917 78.3939L103.268 92.8323C92.6581 97.0059 87.0816 108.561 86.6163 108.942L80.3066 123.323L79.5522 123.768L78.4876 124.896L69.9149 119.693L76.6053 118.96C76.6053 118.96 81.1315 112.185 81.6391 111.642C82.1466 111.099 82.9785 107.059 82.9785 107.059L84.8961 106.932L85.2134 108.039C85.4813 107.532 90.2541 96.4348 100.195 91.5492C100.195 91.5492 109.592 81.6722 108.062 75.3906L109.931 78.3869L109.917 78.3939Z" fill="#CE7314"/>
<path d="M109.916 78.394L109.338 78.1261L102.69 92.5645L103.268 92.8324L103.036 92.2331C97.5789 94.3834 93.4617 98.3948 90.6417 101.906C89.2317 103.661 88.146 105.29 87.3846 106.509C87.0039 107.116 86.7008 107.623 86.4893 107.976C86.3836 108.152 86.2918 108.3 86.2354 108.392C86.2072 108.441 86.1791 108.476 86.172 108.49L86.454 108.723L86.2285 108.448C86.1721 108.497 86.172 108.504 86.172 108.504L86.454 108.73L86.2285 108.455L86.1086 108.554L79.82 122.886L79.1644 123.274L78.3889 124.092L71.8676 120.137L76.9789 119.58L77.1481 119.333C77.1481 119.333 77.4301 118.91 77.8601 118.269C78.5087 117.303 79.4886 115.844 80.3628 114.575C80.7999 113.94 81.2018 113.355 81.519 112.904C81.6812 112.678 81.8151 112.488 81.9208 112.347C81.9772 112.276 82.0196 112.213 82.0548 112.17C82.0901 112.128 82.1183 112.093 82.1183 112.093C82.2029 112.001 82.2522 111.917 82.3016 111.832C82.3932 111.67 82.4707 111.494 82.5412 111.296C82.8021 110.598 83.063 109.597 83.2674 108.744C83.4719 107.898 83.6129 107.207 83.6129 107.207L82.9854 107.08L83.0277 107.722L84.4307 107.63L85.044 109.773L85.7843 108.356C85.8125 108.293 85.8477 108.23 85.897 108.117C86.2777 107.306 87.6525 104.423 90.0707 101.187C92.4888 97.9507 95.9504 94.3693 100.476 92.1415L100.582 92.0921L100.66 92.0075C100.66 92.0075 102.535 90.0406 104.481 87.2981C105.454 85.9234 106.455 84.3583 107.251 82.7297C108.048 81.0941 108.654 79.4021 108.824 77.7595C108.908 76.9064 108.88 76.0675 108.683 75.2638L108.062 75.4189L107.519 75.7573L109.388 78.7535L109.931 78.4151L110.473 78.0767L106.497 71.6895L107.442 75.5669C107.597 76.2014 107.625 76.8923 107.555 77.6326C107.414 79.0567 106.864 80.6288 106.102 82.1728C104.967 84.4922 103.367 86.7412 102.056 88.405C101.4 89.2369 100.815 89.9207 100.399 90.3931C100.187 90.6328 100.018 90.8161 99.9054 90.943C99.849 91.0064 99.8067 91.0558 99.7715 91.084L99.7291 91.1333L100.194 91.5775L99.9124 90.9994C94.8082 93.5092 91.0647 97.5911 88.562 101.088C87.3071 102.836 86.3623 104.451 85.7137 105.656C85.3894 106.263 85.1357 106.763 84.9594 107.13C84.8678 107.313 84.7972 107.461 84.7479 107.574C84.6985 107.68 84.6562 107.764 84.6562 107.764L85.2203 108.06L85.8336 107.884L85.3754 106.284L82.4566 106.474L82.3579 106.953C82.3579 106.953 82.3439 107.017 82.3227 107.123C82.2381 107.51 82.0266 108.483 81.7799 109.414C81.66 109.879 81.5261 110.33 81.4062 110.676C81.3428 110.852 81.2864 111 81.237 111.099C81.2159 111.148 81.1947 111.191 81.1806 111.212L81.1665 111.233L81.3146 111.353L81.1736 111.226H81.1665L81.3146 111.353L81.1736 111.226C81.1101 111.289 81.0608 111.36 80.9903 111.444C80.7435 111.762 80.3276 112.361 79.82 113.087C78.3113 115.272 76.0694 118.621 76.0694 118.621L76.5982 118.974L76.5277 118.339L67.9619 119.27L78.5933 125.721L79.954 124.282L80.814 123.775L87.2083 109.202L86.6232 108.949L87.0251 109.442C87.0815 109.4 87.1026 109.365 87.1308 109.336C87.1801 109.28 87.2084 109.238 87.2507 109.181C87.3846 108.984 87.5679 108.674 87.8217 108.251C88.717 106.77 90.4796 103.908 93.1022 100.996C95.7248 98.0776 99.2074 95.1236 103.508 93.4316L103.748 93.34L110.643 78.3517L110.459 78.0556L109.916 78.394Z" fill="#11100C"/>
<path d="M63.3446 115.717C63.1683 115.625 63.0062 115.526 62.8511 115.442C62.1955 115.068 61.7725 114.772 61.6315 114.68L62.8582 115.42L63.3446 115.717Z" fill="#F1A700"/>
<path d="M63.3447 115.717L63.6479 115.153C63.4787 115.061 63.3165 114.97 63.1614 114.885L62.8513 115.442L63.1685 114.885C62.534 114.518 62.1251 114.236 61.9982 114.152L61.6316 114.673L61.3002 115.223L62.527 115.964L63.0134 116.26L63.3447 115.71L63.6761 115.16L63.1896 114.864L61.963 114.124L61.265 115.195C61.4131 115.301 61.8572 115.604 62.534 115.992C62.682 116.076 62.8513 116.168 63.0346 116.267L63.6691 115.16L63.3377 115.71L63.3447 115.717Z" fill="#282725"/>
<path d="M116.071 96.6462C114.915 99.4803 113.131 102.681 110.826 106.002C109.247 108.279 107.421 110.612 105.383 112.918C102.274 116.443 98.9466 119.425 95.7318 121.758C93.5463 123.345 91.4101 124.628 89.4432 125.572C87.2788 126.616 85.3049 127.25 83.6693 127.419C82.5483 127.539 81.5895 127.441 80.8352 127.116L80.7506 126.926L70.4787 120.059L70.1756 119.827L64.4369 115.364C68.8854 117.775 80.3698 122.125 83.2533 104.803C83.2533 104.803 85.7278 105.127 88.7241 104.733C93.3771 104.112 99.299 101.743 99.1933 93.6993C99.1721 91.6971 98.7703 89.3354 97.882 86.5577C97.882 86.5577 116.283 87.0653 103.303 65.6968L116.536 87.023L116.903 87.6152C116.903 87.6152 117.009 87.7491 117.185 88.0029V88.017C118.031 89.9135 117.587 92.9732 116.078 96.6603L116.071 96.6462Z" fill="#F3AE13"/>
<path d="M101.218 96.879L109.029 105.825L100.012 98.9024L100.076 95.4761L101.218 96.879Z" fill="white"/>
<path d="M114.259 98.8815C114.915 99.4737 113.124 102.674 111.362 104.846L101.569 94.7009L99.391 88.1091L104.241 86.7344L114.259 98.8815Z" fill="white"/>
<path d="M105.384 112.917L104.905 112.494C100.787 117.161 96.2683 120.884 92.1793 123.358C90.1419 124.599 88.2102 125.523 86.5041 126.108C84.798 126.693 83.3175 126.919 82.2106 126.806C81.7806 126.764 81.407 126.672 81.0968 126.531L80.843 127.116L81.4281 126.848L81.3365 126.658L81.2589 126.496L70.8531 119.537L64.8324 114.856L64.4377 115.364L64.1345 115.928C65.7771 116.816 68.3363 117.965 71.1563 118.254C72.4183 118.381 73.7296 118.339 75.0268 118C76.9725 117.507 78.869 116.344 80.413 114.243C81.9639 112.149 83.1765 109.132 83.8815 104.902L83.247 104.796L83.1624 105.43C83.1624 105.43 83.247 105.444 83.388 105.458C84.0789 105.529 86.2432 105.698 88.7953 105.367C91.0161 105.071 93.54 104.394 95.648 102.871C96.6984 102.11 97.636 101.137 98.3551 99.9101C99.0742 98.6834 99.5677 97.2029 99.744 95.4404C99.8004 94.8835 99.8285 94.2983 99.8144 93.685C99.7933 91.5982 99.3774 89.18 98.468 86.36L97.8617 86.5574L97.8405 87.199C97.8828 87.199 100.259 87.2695 102.797 86.353C104.066 85.8947 105.384 85.1827 106.449 84.0617C107.513 82.9408 108.303 81.4109 108.507 79.4088C108.676 77.7661 108.458 75.8203 107.725 73.5079C106.991 71.1955 105.744 68.5024 103.833 65.3581L102.74 66.0279L115.973 87.3541L116.354 87.9745L116.375 88.0027C116.375 88.0027 116.488 88.1507 116.636 88.3622L117.157 87.9956L116.593 88.2988V88.3129L117.165 88.0097L116.579 88.2706C116.904 88.9967 117.024 89.9978 116.897 91.2316C116.65 93.7061 115.416 97.0549 113.35 100.749C111.292 104.45 108.408 108.511 104.883 112.501L105.363 112.924L105.842 113.347C109.417 109.294 112.356 105.162 114.464 101.369C116.579 97.5766 117.877 94.1221 118.166 91.3585C118.307 89.9837 118.194 88.757 117.743 87.7489V87.7277L117.714 87.6925L117.693 87.6572L117.672 87.622C117.489 87.3611 117.376 87.2201 117.369 87.2131L116.868 87.6079L117.411 87.2695L117.045 86.6773L103.812 65.3511L102.719 66.0208C104.587 69.1017 105.793 71.7031 106.484 73.8886C107.175 76.0812 107.358 77.8507 107.217 79.2748C107.034 81.0091 106.385 82.2428 105.504 83.1734C104.185 84.5693 102.275 85.2743 100.682 85.6057C99.885 85.7749 99.1729 85.8454 98.6653 85.8806C98.4115 85.8947 98.2071 85.9018 98.0661 85.9088C97.9956 85.9088 97.9462 85.9088 97.911 85.9088H97.8757H97.8686L96.9663 85.8806L97.2413 86.7407C98.1155 89.4691 98.5032 91.7674 98.5243 93.692C98.5314 94.2631 98.5103 94.7989 98.4538 95.3065C98.2917 96.8998 97.8546 98.197 97.2342 99.2545C96.3036 100.848 94.95 101.941 93.4131 102.702C91.8832 103.463 90.1772 103.879 88.6121 104.084C86.208 104.401 84.1283 104.239 83.5009 104.175C83.4374 104.175 83.388 104.161 83.3527 104.161H83.3175H83.3105L82.6971 104.084L82.5984 104.697C82.1472 107.425 81.4775 109.59 80.6667 111.282C79.4541 113.827 77.9454 115.307 76.331 116.139C74.7165 116.971 72.9751 117.154 71.262 116.985C68.7099 116.724 66.2707 115.646 64.7197 114.807L64.0217 115.871L70.0776 120.581L80.2226 127.363L80.2367 127.391L80.3424 127.617L80.568 127.715C81.0263 127.913 81.5268 128.033 82.0626 128.089C83.4515 128.23 85.08 127.948 86.8989 127.328C89.6273 126.397 92.7786 124.691 96.0427 122.322C99.3069 119.953 102.691 116.929 105.842 113.354L105.363 112.931L105.384 112.917Z" fill="#282725"/>
<path d="M101.012 89.0534C102.309 94.8344 101.224 98.9093 99.1016 101.779C94.3499 108.208 84.4024 108.61 84.4024 108.61C80.4967 119.347 74.7227 120.532 70.3799 119.982L63.3652 115.731C67.8138 118.142 79.2982 122.491 82.1816 105.17C82.1816 105.17 82.4425 105.205 82.9078 105.24C86.5879 105.501 102.803 105.649 96.8034 86.9243C96.8034 86.9243 97.5013 86.8467 98.5376 86.5859C102.175 85.6764 109.966 82.4969 105.919 72.4577C105.094 70.4203 103.79 68.0938 101.851 65.45L102.754 65.0059L106.483 71.1111L109.373 75.8346C110.29 87.3332 101.019 89.0534 101.019 89.0534H101.012Z" fill="#CE7314"/>
<path d="M101.013 89.054C102.31 94.835 101.224 98.9099 99.1023 101.779C96.3458 103.817 92.7645 105.981 88.5838 106.46C85.1082 106.855 82.7676 105.657 82.7676 105.657L82.9015 105.234C85.4536 105.417 94.0476 105.544 97.065 99.34C98.3974 96.6116 98.6371 92.6425 96.7971 86.9179C96.7971 86.9179 97.495 86.8403 98.5313 86.5795C101.739 85.7758 108.176 83.2096 106.879 75.7366C106.709 74.7355 106.392 73.6428 105.913 72.4584C106.11 71.9719 106.293 71.5207 106.477 71.1118L109.367 75.8353C110.284 87.3338 101.013 89.054 101.013 89.054Z" fill="#F3AE13"/>
<path d="M101.012 89.0539L100.385 89.1949C100.914 91.5425 101.034 93.58 100.85 95.3566C100.54 98.3599 99.3839 100.609 97.8047 102.35C95.4359 104.952 92.0801 106.376 89.3024 107.13C87.9136 107.504 86.6728 107.715 85.7845 107.835C85.3404 107.891 84.9807 107.927 84.741 107.948C84.6212 107.955 84.5226 107.962 84.4662 107.969H84.3956H84.3745L83.9444 107.983L83.7964 108.385C81.9281 113.524 79.6581 116.358 77.395 117.86C76.267 118.614 75.1319 119.045 74.018 119.263C72.9041 119.482 71.8185 119.489 70.7892 119.383C70.6764 119.369 70.5636 119.355 70.4508 119.341L70.3732 119.975L70.7046 119.425L63.6898 115.174L63.3585 115.724L63.0554 116.288C64.698 117.176 67.2571 118.325 70.0771 118.614C71.3391 118.741 72.6504 118.699 73.9475 118.361C75.8933 117.867 77.7898 116.704 79.3338 114.603C80.8847 112.509 82.0973 109.492 82.8023 105.262L82.1679 105.156L82.0833 105.791C82.0833 105.791 82.1678 105.805 82.3159 105.819C83.2747 105.91 86.9759 106.199 90.6701 105.1C92.5172 104.543 94.3713 103.633 95.8448 102.139C97.3182 100.644 98.3898 98.5643 98.6718 95.8007C98.9186 93.3544 98.5661 90.3722 97.3958 86.7203L96.7895 86.9177L96.86 87.5522C96.9023 87.5522 99.3205 87.2843 101.887 86.0576C103.17 85.4443 104.495 84.5842 105.567 83.3716C106.631 82.159 107.435 80.5868 107.632 78.6199C107.802 76.949 107.548 75.0173 106.716 72.7755C105.884 70.5336 104.488 67.9885 102.352 65.0628L101.837 65.4435L102.119 66.0145L102.5 65.8312L108.817 76.1594L109.36 75.8281L108.718 75.8774C108.81 77.0266 108.796 78.07 108.697 79.0076C108.485 81.0662 107.886 82.6595 107.118 83.9144C105.962 85.7968 104.396 86.9248 103.113 87.5804C102.472 87.9118 101.908 88.1233 101.499 88.2431C101.294 88.3066 101.139 88.3489 101.027 88.3771C100.97 88.3912 100.935 88.3982 100.907 88.4053H100.878L100.223 88.5251L100.371 89.1737L100.998 89.0327L101.118 89.6602C101.175 89.6461 103.12 89.2865 105.214 87.7849C106.258 87.0305 107.336 85.9942 108.21 84.5771C109.085 83.1601 109.747 81.3623 109.973 79.1275C110.079 78.0982 110.093 76.9843 109.994 75.7647L109.98 75.6096L102.979 64.1533L100.871 65.1897L101.323 65.803C103.402 68.6512 104.742 71.1046 105.517 73.1985C106.293 75.2994 106.504 77.0336 106.356 78.4718C106.18 80.1638 105.517 81.461 104.601 82.5044C103.233 84.0695 101.259 85.0283 99.6166 85.5712C98.7988 85.8461 98.0655 86.0153 97.5438 86.1211C97.283 86.1704 97.0715 86.2057 96.9305 86.2268C96.86 86.2409 96.8036 86.248 96.7684 86.248H96.726H96.719L95.9435 86.3326L96.1832 87.0799C97.3183 90.6119 97.6285 93.4178 97.4029 95.6386C97.142 98.1484 96.2185 99.9109 94.9424 101.208C93.0319 103.154 90.2612 104.035 87.7655 104.395C85.2769 104.754 83.0984 104.585 82.4498 104.515C82.3793 104.515 82.33 104.5 82.3018 104.5H82.2666H82.2595L81.6462 104.423L81.5475 105.036C81.0963 107.765 80.4265 109.929 79.6158 111.621C78.4032 114.166 76.8945 115.646 75.28 116.478C73.6656 117.31 71.9242 117.494 70.211 117.324C67.6589 117.063 65.2197 115.985 63.6687 115.146L63.0342 116.253L70.1617 120.574L70.2956 120.596C70.4155 120.61 70.5424 120.624 70.6693 120.638C71.7902 120.751 73.0099 120.751 74.2718 120.497C76.1683 120.13 78.1493 119.193 79.9894 117.353C81.8364 115.512 83.5496 112.784 85.0019 108.801L84.4027 108.582L84.4309 109.224C84.4732 109.224 88.4846 109.062 92.7217 107.285C94.8367 106.397 97.0151 105.1 98.7635 103.182C100.512 101.272 101.809 98.7265 102.14 95.4553C102.338 93.5236 102.204 91.3451 101.647 88.8847L101.02 89.0257L101.012 89.0539Z" fill="#282725"/>
<path d="M82.8586 103.873C82.7247 105.163 81.5755 106.101 80.2854 105.974C78.9952 105.84 78.0576 104.691 78.1845 103.401C78.3184 102.11 79.4676 101.173 80.7577 101.307C82.0479 101.441 82.9855 102.59 82.8516 103.88L82.8586 103.873Z" fill="white"/>
<path d="M82.8592 103.873L82.2247 103.809C82.1754 104.282 81.9427 104.684 81.6043 104.959C81.2659 105.233 80.8217 105.382 80.3494 105.332C79.877 105.283 79.4752 105.05 79.2002 104.712C78.9253 104.373 78.7773 103.929 78.8267 103.457C78.876 102.985 79.1087 102.583 79.4471 102.308C79.7855 102.033 80.2295 101.885 80.7019 101.934C81.1742 101.983 81.5761 102.216 81.851 102.554C82.126 102.893 82.2741 103.337 82.2247 103.809L82.8592 103.873L83.4937 103.936C83.6629 102.294 82.4644 100.827 80.8218 100.658C79.1791 100.489 77.7127 101.687 77.5435 103.33C77.3743 104.973 78.5728 106.439 80.2155 106.608C81.8581 106.777 83.3245 105.579 83.4937 103.936L82.8592 103.873Z" fill="#11100C"/>
<path d="M67.2862 103.646C71.6783 113.446 64.875 115.561 63.5919 115.864L62.3089 115.088L61.5898 114.651C70.7195 110.322 61.3923 100.798 61.3923 100.798C70.7195 101.87 72.341 96.9345 71.9533 92.352C71.6995 89.3769 70.5926 86.5428 70.1978 85.5981L70.5997 85.8942C70.5997 85.8942 74.2938 90.2864 74.2868 96.6737C72.5736 101.933 67.2932 103.646 67.2932 103.646H67.2862Z" fill="#F3AE13"/>
<path d="M65.0223 102.632C65.0223 102.632 71.1911 112.269 62.3222 115.082H62.3011L61.5819 114.652C70.7117 110.323 61.3845 100.799 61.3845 100.799C70.7117 101.871 72.3332 96.9355 71.9455 92.353L72.3473 92.5152C72.3473 92.5152 73.9194 100.968 65.0223 102.639V102.632Z" fill="#FFF6EF"/>
<path d="M103.347 67.8536L102.726 67.6844C102.296 69.2777 101.556 70.448 100.625 71.3433C99.2365 72.6758 97.3965 73.3737 95.5212 73.698C93.6459 74.0223 91.7565 73.9589 90.3465 73.8179C89.6415 73.7474 89.0634 73.6557 88.6545 73.5782C88.45 73.5429 88.2949 73.5077 88.1892 73.4865C88.1328 73.4724 88.0976 73.4654 88.0694 73.4583H88.0411L88.0341 73.4513L87.2374 73.2609V74.0787C87.2515 74.8683 87.2163 75.6015 87.1458 76.2994C86.8426 79.2886 85.8627 81.4389 84.5866 83.0322C83.6278 84.2236 82.4928 85.0978 81.3154 85.7464C79.5529 86.7193 77.7058 87.1705 76.2958 87.3679C75.5908 87.4666 74.9987 87.5089 74.5898 87.523C74.3853 87.523 74.2232 87.5301 74.1174 87.523C74.061 87.523 74.0257 87.523 73.9975 87.523H73.9694L73.0458 87.4807L73.3349 88.362C74.1033 90.7167 74.2866 92.6977 74.1174 94.3686C73.9482 96.0253 73.4265 97.386 72.7427 98.4999C71.7134 100.178 70.2964 101.32 69.1331 102.039C68.555 102.399 68.0333 102.652 67.6667 102.814C67.4834 102.892 67.3353 102.955 67.2366 102.991C67.1873 103.012 67.152 103.026 67.1238 103.033H67.0957V103.04L67.1308 103.139L67.1027 103.04L67.1379 103.139L67.1098 103.04L66.4329 103.259L66.722 103.907C67.9346 106.607 68.2447 108.652 68.0896 110.182C67.9909 111.155 67.709 111.923 67.3283 112.558C66.7572 113.502 65.9606 114.137 65.2133 114.553C64.466 114.969 63.7751 115.173 63.4719 115.244L63.62 115.864L63.9513 115.314L61.9491 114.094L61.6178 114.644L61.8928 115.222C63.3169 114.546 64.3532 113.735 65.0582 112.811C65.7632 111.895 66.1298 110.88 66.2285 109.864C66.3484 108.666 66.1227 107.474 65.7279 106.361C65.1357 104.697 64.1769 103.209 63.3662 102.117C62.5554 101.031 61.8857 100.347 61.8716 100.333L61.4133 100.784L61.3428 101.419C61.4556 101.433 61.5614 101.44 61.6671 101.454C63.5847 101.651 65.1992 101.595 66.5598 101.327C68.5973 100.932 70.0707 100.037 71.0366 98.8453C72.0024 97.6539 72.4607 96.2086 72.6087 94.7352C72.8414 92.4157 72.3478 89.9976 71.805 88.1434C71.2621 86.2893 70.6629 85.0062 70.6558 84.985L70.0778 85.2529L70.0002 85.8874C70.1624 85.9086 70.3245 85.9227 70.4796 85.9438C73.4194 86.2399 75.8305 85.9791 77.8045 85.3093C80.7655 84.3082 82.6972 82.3836 83.8957 80.2545C85.1013 78.1183 85.6018 75.7777 85.7992 73.839C86.046 71.4068 85.8133 69.5879 85.8133 69.5526L85.1788 69.6372L84.911 70.2224C87.0894 71.2094 89.0423 71.7311 90.7907 71.9073C92.8704 72.1188 94.654 71.8439 96.1486 71.301C98.3905 70.4903 99.9626 69.0944 100.971 67.91C101.979 66.7256 102.437 65.7386 102.451 65.7033L101.873 65.4354L101.33 65.7738L102.832 68.1779L103.375 67.8395L103.918 67.5011L101.796 64.0889L101.295 65.1675C101.274 65.2169 100.513 66.8031 98.8487 68.2413C98.0168 68.9604 96.9594 69.6513 95.6622 70.1166C94.358 70.5819 92.7999 70.8216 90.9316 70.6313C89.3383 70.4691 87.5194 69.9897 85.4467 69.0521L84.4033 68.5797L84.5514 69.7218V69.7359C84.5726 69.9051 84.7559 71.5689 84.5373 73.7121C84.4104 74.9318 84.1636 76.3065 83.6842 77.653C82.9651 79.6764 81.7596 81.6222 79.7362 82.9687C77.7058 84.3153 74.8224 85.0978 70.6206 84.6748C70.4726 84.6607 70.3175 84.6396 70.1624 84.6255L69.0203 84.4915L69.5067 85.5349V85.549C69.5701 85.6759 70.1413 86.9449 70.6348 88.6863C71.1353 90.4276 71.5512 92.6413 71.3467 94.6224C71.2551 95.4895 71.0577 96.3073 70.7052 97.0335C70.1694 98.1192 69.3304 99.0075 67.9275 99.6067C66.5316 100.199 64.5506 100.474 61.8082 100.192C61.7024 100.185 61.6037 100.171 61.4979 100.157L59.7073 99.9522L60.9692 101.242H60.9762C61.089 101.369 62.21 102.554 63.2323 104.189C63.7469 105.007 64.2262 105.938 64.5576 106.889C64.8889 107.848 65.0511 108.821 64.9595 109.745C64.8749 110.548 64.607 111.31 64.05 112.036C63.4931 112.762 62.633 113.46 61.3499 114.066L60.2783 114.574L63.5213 116.541L63.775 116.477C64.2897 116.35 65.5376 115.991 66.7502 115.067C67.3565 114.602 67.9558 113.996 68.4281 113.206C68.9005 112.417 69.2529 111.451 69.3657 110.302C69.549 108.483 69.1684 106.213 67.8994 103.371L67.3142 103.632L67.5116 104.239C67.5539 104.224 69.3093 103.653 71.1775 102.159C72.1081 101.412 73.074 100.425 73.8566 99.1555C74.6391 97.8865 75.2242 96.3355 75.4146 94.4814C75.6049 92.6131 75.3864 90.4417 74.5757 87.946L73.9694 88.1434L73.9412 88.785C73.9976 88.785 77.2194 88.9401 80.6739 87.4737C82.4012 86.7405 84.1848 85.5984 85.623 83.8077C87.0612 82.024 88.1328 79.6059 88.4571 76.4052C88.5346 75.6649 88.5699 74.8754 88.5628 74.0435H87.9213L87.7732 74.6709C87.7944 74.6709 88.7743 74.9106 90.2548 75.0587C92.2359 75.2561 95.1193 75.3195 97.8124 74.4242C99.159 73.973 100.463 73.2821 101.549 72.2387C102.642 71.1953 103.509 69.7923 103.995 67.9946L104.066 67.7267L103.918 67.487L103.375 67.8254L103.347 67.8536Z" fill="#282725"/>
<path d="M61.3985 113.982C61.2787 115.153 60.2353 116.006 59.058 115.886C57.8877 115.766 57.0346 114.723 57.1544 113.545C57.2743 112.375 58.3177 111.515 59.4951 111.635C60.6654 111.755 61.5184 112.805 61.3985 113.975V113.982Z" fill="white"/>
<path d="M61.3993 113.982L60.7649 113.919C60.6803 114.737 59.9471 115.336 59.1293 115.251C58.7204 115.209 58.3679 115.005 58.1212 114.709C57.8815 114.413 57.7545 114.025 57.7897 113.616C57.832 113.2 58.0365 112.854 58.3326 112.608C58.6287 112.368 59.0165 112.234 59.4254 112.276C60.2432 112.361 60.8424 113.094 60.7578 113.912L61.3923 113.975L62.0268 114.039C62.1819 112.516 61.075 111.155 59.5452 111C58.0224 110.845 56.6618 111.952 56.5067 113.482C56.3516 115.005 57.4584 116.365 58.9883 116.52C60.5111 116.676 61.8717 115.569 62.0268 114.039L61.3923 113.975L61.3993 113.982Z" fill="#282725"/>
<path d="M60.7077 99.7556C60.5878 100.926 59.5445 101.779 58.3671 101.659C57.1898 101.539 56.3437 100.496 56.4636 99.3185C56.5834 98.1482 57.6339 97.2952 58.8042 97.415C59.9745 97.5349 60.8275 98.5783 60.7077 99.7556Z" fill="white"/>
<path d="M60.7073 99.7559L60.0728 99.6925C59.9882 100.51 59.255 101.11 58.4372 101.025C58.0213 100.983 57.6758 100.778 57.4291 100.482C57.1894 100.186 57.0554 99.7982 57.0977 99.3893C57.14 98.9804 57.3445 98.6279 57.6406 98.3812C57.9367 98.1415 58.3245 98.0075 58.7334 98.0498C59.5512 98.1344 60.1503 98.8676 60.0657 99.6854L60.7003 99.7489L61.3348 99.8123C61.4899 98.2895 60.383 96.9289 58.8532 96.7738C57.3304 96.6187 55.9698 97.7255 55.8147 99.2554C55.6596 100.778 56.7664 102.139 58.2963 102.294C59.8191 102.449 61.1797 101.342 61.3348 99.8123L60.7003 99.7489L60.7073 99.7559Z" fill="#282725"/>
<path d="M70.3596 83.5821C70.2397 84.7524 69.1963 85.6054 68.0189 85.4926C66.8486 85.3728 65.9956 84.3223 66.1155 83.152C66.2353 81.9817 67.2787 81.1287 68.456 81.2485C69.6263 81.3684 70.4794 82.4118 70.3596 83.5891V83.5821Z" fill="white"/>
<path d="M70.3597 83.5822L69.7252 83.5187C69.6829 83.9347 69.4784 84.2801 69.1823 84.5269C68.8862 84.7736 68.4984 84.9005 68.0895 84.8582C67.2717 84.7736 66.6725 84.0404 66.7571 83.2226C66.8417 82.4048 67.5749 81.8056 68.3927 81.8902C68.8016 81.9325 69.1541 82.1369 69.4009 82.433C69.6406 82.7291 69.7675 83.1169 69.7322 83.5258L70.3667 83.5892L71.0012 83.6527C71.1563 82.1299 70.0495 80.7692 68.5196 80.6141C66.9968 80.459 65.6362 81.5659 65.4811 83.0887C65.326 84.6115 66.4328 85.9721 67.9627 86.1272C69.4855 86.2823 70.8461 85.1755 71.0012 83.6456L70.3667 83.5822H70.3597Z" fill="#282725"/>
<path d="M86.6235 68.5098C86.5036 69.6801 85.4532 70.5332 84.2829 70.4204C83.1126 70.3005 82.2595 69.2571 82.3723 68.0798C82.4922 66.9095 83.5356 66.0564 84.713 66.1763C85.8833 66.2961 86.7363 67.3466 86.6164 68.5169L86.6235 68.5098Z" fill="white"/>
<path d="M86.6241 68.5093L85.9896 68.4459C85.905 69.2637 85.1718 69.8629 84.354 69.7783C83.938 69.736 83.5926 69.5316 83.3458 69.2355C83.1061 68.9394 82.9792 68.5516 83.0145 68.1427C83.0568 67.7338 83.2612 67.3813 83.5573 67.1346C83.8534 66.8949 84.2411 66.7609 84.65 66.8032C85.4678 66.8878 86.0671 67.621 85.9825 68.4388L86.617 68.5023L87.2515 68.5657C87.4066 67.0429 86.2998 65.6823 84.7699 65.5272C83.2471 65.3721 81.8865 66.4789 81.7314 68.0088C81.5763 69.5316 82.6831 70.8922 84.2129 71.0473C85.7357 71.2024 87.0964 70.0956 87.2515 68.5657L86.617 68.5023L86.6241 68.5093Z" fill="#282725"/>
<path d="M104.341 64.449C104.221 65.6193 103.177 66.4723 102 66.3525C100.83 66.2326 99.9766 65.1892 100.096 64.0119C100.216 62.8416 101.26 61.9885 102.437 62.1084C103.607 62.2282 104.46 63.2716 104.341 64.449Z" fill="white"/>
<path d="M104.34 64.4489L103.706 64.3854C103.663 64.8014 103.459 65.1468 103.163 65.3935C102.867 65.6332 102.479 65.7601 102.07 65.7249C101.654 65.6826 101.309 65.4781 101.062 65.1821C100.822 64.886 100.695 64.4982 100.731 64.0893C100.815 63.2715 101.548 62.6723 102.366 62.7569C103.184 62.8415 103.783 63.5747 103.699 64.3924L104.333 64.4559L104.968 64.5193C105.123 62.9966 104.016 61.6359 102.486 61.4808C100.963 61.3257 99.6027 62.4326 99.4476 63.9624C99.2925 65.4852 100.399 66.8458 101.929 67.0009C103.452 67.156 104.813 66.0492 104.968 64.5193L104.333 64.4559L104.34 64.4489Z" fill="#282725"/>
<path d="M62.8585 115.421L63.3449 115.717C63.1687 115.625 63.0065 115.527 62.8514 115.442V115.421H62.8585Z" fill="#F1A700"/>
<path d="M62.8584 115.42L62.527 115.97L63.0134 116.266L63.3448 115.717L63.6479 115.153C63.4787 115.061 63.3166 114.969 63.1615 114.885L62.8513 115.442L63.4646 115.625V115.604L62.8584 115.42L62.245 115.237V115.258L62.0898 115.752L62.5411 116.006C62.6891 116.09 62.8584 116.182 63.0417 116.281L63.6761 115.174L62.4847 114.455L62.245 115.244L62.8584 115.427V115.42Z" fill="#282725"/>
<path d="M89.2323 119.242C89.1971 119.608 88.8658 119.876 88.4992 119.841C88.1326 119.806 87.8647 119.474 87.9 119.108C87.9352 118.741 88.2665 118.473 88.6331 118.508C88.9997 118.544 89.2676 118.875 89.2323 119.242Z" fill="#F1A700"/>
<path d="M96.4442 113.439C96.409 113.806 96.0776 114.074 95.711 114.039C95.3444 114.003 95.0765 113.672 95.1118 113.305C95.147 112.939 95.4783 112.671 95.8449 112.706C96.2115 112.741 96.4795 113.073 96.4442 113.439Z" fill="#F1A700"/>
<path d="M107.118 100.883C107.083 101.25 106.751 101.518 106.385 101.483C106.018 101.447 105.75 101.116 105.786 100.749C105.821 100.383 106.152 100.115 106.519 100.15C106.885 100.185 107.153 100.517 107.118 100.883Z" fill="#F1A700"/>
<path d="M113.491 85.7256C113.455 86.0922 113.124 86.3601 112.757 86.3248C112.391 86.2896 112.123 85.9582 112.158 85.5916C112.193 85.225 112.525 84.9571 112.891 84.9924C113.258 85.0276 113.526 85.359 113.491 85.7256Z" fill="#F1A700"/>
<path d="M97.7273 86.057C97.5933 87.3471 96.4442 88.2848 95.154 88.1579C93.8639 88.0239 92.9262 86.8748 93.0531 85.5846C93.1871 84.2945 94.3362 83.3568 95.6264 83.4908C96.9165 83.6247 97.8542 84.7739 97.7202 86.064L97.7273 86.057Z" fill="white"/>
<path d="M97.7268 86.0569L97.0923 85.9934C97.0429 86.4658 96.8103 86.8676 96.4719 87.1426C96.1335 87.4175 95.6894 87.5656 95.217 87.5162C94.7447 87.4669 94.3428 87.2342 94.0679 86.8958C93.7929 86.5574 93.6449 86.1133 93.6942 85.6409C93.7436 85.1686 93.9762 84.7667 94.3146 84.4918C94.653 84.2168 95.0972 84.0688 95.5695 84.1181C96.0419 84.1675 96.4437 84.4001 96.7187 84.7385C96.9936 85.0769 97.1416 85.5211 97.0923 85.9934L97.7268 86.0569L98.3613 86.1203C98.5305 84.4777 97.332 83.0113 95.6893 82.8421C94.0467 82.6729 92.5803 83.8714 92.4111 85.514C92.2419 87.1567 93.4404 88.6231 95.083 88.7923C96.7257 88.9615 98.1921 87.763 98.3613 86.1203L97.7268 86.0569Z" fill="#11100C"/>
<path d="M36.1243 107.467C44.5491 109.258 47.0095 112.861 45.2681 121.01L42.7936 132.643L18.8167 127.539L21.27 116.019C23.0043 107.869 26.769 105.472 35.2008 107.27L36.1243 107.467ZM25.782 122.575L38.4579 125.276L39.4379 120.665C40.4672 115.829 38.6905 114.588 34.5098 113.699L34.1363 113.622C29.9556 112.734 27.7983 113.128 26.769 117.972L25.789 122.582L25.782 122.575Z" fill="#282725"/>
<path d="M51.7395 101.419L49.3143 107.242L26.6838 97.8165L29.1091 91.9932L51.7395 101.419Z" fill="#282725"/>
<path d="M56.1823 92.6909L52.7419 97.9783L32.1841 84.6186L39.8615 72.8028C43.3019 67.5153 45.8893 66.6764 49.8866 69.2708L50.5352 69.6938C53.6161 71.696 54.4127 73.4937 53.2071 76.1234L53.4116 76.2573C55.3644 74.2833 56.5841 73.6277 60.3699 76.0881L65.0088 79.1055L61.5544 84.4212L57.2045 81.5942C55.2939 80.3534 54.4691 80.4732 52.763 83.0888L49.3861 88.2846L56.1682 92.6909H56.1823ZM40.2351 82.3274L44.7895 85.2884L48.7163 79.2465C49.7738 77.618 49.6962 76.7085 48.0818 75.6581L47.9055 75.5453C46.1148 74.382 45.2054 74.6852 43.6615 77.0681L40.2422 82.3344L40.2351 82.3274Z" fill="#282725"/>
<path d="M76.1687 68.4599L71.572 72.7815L59.0019 59.4077L53.6228 64.4625L49.3998 59.9717L64.79 45.498L69.0129 49.9889L63.5914 55.086L76.1616 68.4599H76.1687Z" fill="#282725"/>
<path d="M95.6548 55.0577L90.1346 58.1738L85.0022 49.0864L69.9646 41.4089L76.5141 37.7077L85.2067 42.4523L85.3829 42.3536L85.813 32.4555L91.735 29.1138L90.4942 45.9421L95.6407 55.0577H95.6548Z" fill="#282725"/>
<path d="M123.114 46.0064C117.135 47.0921 112.475 46.2249 110.769 40.6978L117.375 39.4993C118.235 41.156 119.857 41.1842 122.902 40.6343C126.35 40.0069 127.457 39.1679 127.189 37.5112L127.139 37.2362C126.907 35.9602 126.23 35.4808 124.178 35.8192L118.609 36.5806C112.863 37.3349 110.424 35.8967 109.585 31.2437L109.543 31.004C108.534 25.4557 111.242 22.544 118.503 21.2257L119.272 21.0847C125.194 20.0131 129.776 21.2821 131.475 26.7388L124.869 27.9373C124.08 26.1959 122.529 25.9069 119.652 26.4286C116.346 27.0278 115.493 27.8245 115.789 29.446L115.81 29.5517C116.043 30.8278 116.691 31.3142 118.757 31.0463L124.291 30.2567C130.023 29.4319 132.483 31.0111 133.308 35.5231L133.35 35.7628C134.45 41.8258 131.292 44.5329 124.122 45.8372L123.128 46.0205L123.114 46.0064Z" fill="#282725"/>
<path d="M148.198 44.6237C139.886 43.947 136.883 40.5418 137.581 31.9549L137.715 30.3123C138.413 21.7254 141.931 18.8137 150.243 19.4905L151.857 19.6245C160.169 20.3013 163.194 23.7417 162.496 32.3286L162.362 33.9712C161.664 42.5581 158.118 45.4345 149.806 44.7577L148.191 44.6237H148.198ZM149.827 38.9203C154.677 39.3151 155.65 37.2847 155.989 33.1323L156.073 32.0818C156.412 27.8941 155.777 25.765 150.927 25.3773L150.264 25.3209C145.385 24.9261 144.441 26.9212 144.102 31.1089L144.018 32.1594C143.679 36.3118 144.286 38.4691 149.164 38.8639L149.827 38.9203Z" fill="#282725"/>
<path d="M173.994 50.0808C166.302 47.2608 164.483 43.2352 167.444 35.1489L168.022 33.5697C170.983 25.4834 174.981 23.5869 182.665 26.4069L184.16 26.9568C190.977 29.4596 192.951 32.9 191.548 39.0969L185.492 36.8762C185.619 35.6918 185.394 34.7894 184.844 34.1055C184.294 33.4217 183.222 32.8013 181.622 32.2161L181.213 32.0681C176.757 30.4325 175.383 32.1668 173.944 36.0795L173.585 37.0665C172.154 40.9793 172.083 43.193 176.539 44.8215L176.948 44.9695C178.548 45.5547 179.768 45.7803 180.628 45.6111C181.488 45.4419 182.242 44.899 182.912 43.912L188.968 46.1328C186.035 51.7728 182.306 53.1264 175.488 50.6236L173.994 50.0737V50.0808Z" fill="#282725"/>
<path d="M193.374 58.9849L188.242 55.3189L202.49 35.3745L207.622 39.0405L201.905 47.0493L202.067 47.1691L215.822 44.892L222.724 49.8199L208.758 51.942L208.687 69.9195L201.877 65.062L201.919 53.0488L201.729 52.9149L197.196 53.634L193.367 58.992L193.374 58.9849Z" fill="#282725"/>
<path d="M222.258 86.3462L209.674 71.4496L228.398 55.6294L240.983 70.526L236.753 74.1004L228.236 64.0189L225.24 66.5498L233.756 76.6313L229.505 80.2268L220.989 70.1453L217.964 72.6974L226.481 82.7789L222.251 86.3532L222.258 86.3462Z" fill="#282725"/>
<path d="M226.813 94.4191L224.021 88.7579L246.01 77.915L252.242 90.5557C255.034 96.2168 254.428 98.8676 250.155 100.976L249.464 101.314C246.165 102.942 244.219 102.71 242.569 100.327L242.351 100.433C243.049 103.119 242.993 104.508 238.939 106.503L233.976 108.949L231.17 103.267L235.816 100.976C237.86 99.9674 238.177 99.199 236.796 96.3931L234.053 90.8377L226.799 94.4191H226.813ZM243.867 86.0084L238.995 88.4125L242.182 94.8773C243.042 96.6187 243.86 97.0205 245.587 96.1675L245.777 96.0758C247.695 95.1311 247.892 94.1935 246.637 91.6484L243.86 86.0155L243.867 86.0084Z" fill="#282725"/>
<path d="M236.583 121.984C235.364 116.027 236.125 111.353 241.61 109.52L242.957 116.097C241.314 116.993 241.328 118.614 241.949 121.653C242.654 125.086 243.514 126.179 245.17 125.869L245.445 125.812C246.714 125.551 247.18 124.868 246.799 122.816L245.918 117.268C245.029 111.543 246.418 109.069 251.05 108.124L251.29 108.074C256.81 106.946 259.785 109.583 261.258 116.816L261.414 117.585C262.619 123.486 261.456 128.096 256.034 129.915L254.688 123.338C256.415 122.513 256.669 120.955 256.084 118.085C255.414 114.793 254.596 113.961 252.982 114.286L252.876 114.307C251.607 114.568 251.135 115.223 251.445 117.289L252.354 122.802C253.306 128.512 251.783 131.015 247.285 131.932L247.046 131.981C241.011 133.215 238.233 130.12 236.767 122.978L236.562 121.984H236.583Z" fill="#282725"/>
<path d="M52.7413 219.301L49.7874 216.058L62.0473 204.891L71.1911 214.923L68.4276 217.447L62.2447 210.658L60.2636 212.463L66.4465 219.252L63.6758 221.776L57.493 214.987L52.7483 219.308L52.7413 219.301Z" fill="#F3AE13"/>
<path d="M65.3326 231.659L62.0332 228.761L72.9748 216.29L76.2742 219.188L65.3326 231.659Z" fill="#F3AE13"/>
<path d="M83.1334 244.434L77.6273 240.747L78.6989 227.585L78.565 227.493L72.1495 237.088L68.6527 234.747L77.867 220.958L83.3731 224.645L82.2874 237.828L82.4214 237.92L88.8439 228.311L92.3407 230.651L83.1264 244.441L83.1334 244.434Z" fill="#F3AE13"/>
<path d="M104.933 254.078L100.357 252.175L100.484 248.636L93.6811 245.802L91.27 248.389L86.8638 246.556L99.2012 233.725L105.356 236.291L104.94 254.085L104.933 254.078ZM100.731 238.258L96.4024 242.876L100.639 244.638L100.872 238.322L100.724 238.258H100.731Z" fill="#F3AE13"/>
<path d="M121.331 257.857L108.867 255.009L112.561 238.843L116.84 239.823L114.07 251.928L122.255 253.796L121.324 257.864L121.331 257.857Z" fill="#F3AE13"/>
<path d="M145.04 259.43L131.469 259.112L131.864 242.531L145.435 242.848L145.343 246.592L136.157 246.373L136.094 249.024L145.28 249.242L145.188 253.007L136.002 252.788L135.938 255.467L145.125 255.686L145.04 259.43Z" fill="#F3AE13"/>
<path d="M164.646 249.101C165.464 254.874 163.687 257.279 157.941 258.089L149.742 259.245L147.416 242.819L155.53 241.67C161.276 240.859 163.729 242.692 164.547 248.459L164.639 249.093L164.646 249.101ZM152.316 246.083L153.549 254.762L156.799 254.303C160.212 253.824 160.599 252.4 160.19 249.538L160.155 249.277C159.746 246.415 158.978 245.131 155.566 245.618L152.316 246.076V246.083Z" fill="#F3AE13"/>
<path d="M174.022 254.607L169.785 255.764L165.429 239.76L169.666 238.604L174.022 254.607Z" fill="#F3AE13"/>
<path d="M186.304 250.258L182.222 251.879L177.639 240.338L172.866 242.235L171.33 238.357L184.992 232.929L186.529 236.806L181.721 238.717L186.304 250.258Z" fill="#F3AE13"/>
<path d="M198.084 244.526L194.207 246.592L186.395 231.963L190.273 229.897L198.084 244.526Z" fill="#F3AE13"/>
<path d="M208.56 238.195C203.829 241.558 200.741 241.135 197.364 236.39L196.716 235.481C193.339 230.729 193.945 227.655 198.676 224.293L199.592 223.637C204.323 220.274 207.439 220.704 210.816 225.456L211.464 226.365C214.841 231.117 214.207 234.184 209.476 237.547L208.56 238.202V238.195ZM206.938 234.522C209.695 232.562 209.335 231.075 207.7 228.776L207.291 228.198C205.641 225.879 204.372 225.068 201.616 227.028L201.235 227.296C198.457 229.27 198.824 230.722 200.473 233.042L200.882 233.62C202.518 235.918 203.78 236.764 206.558 234.79L206.938 234.522Z" fill="#F3AE13"/>
<path d="M231.671 216.925L227.081 221.705L214.307 218.349L214.194 218.469L222.52 226.457L219.608 229.495L207.644 218.011L212.234 213.231L225.023 216.601L225.135 216.481L216.795 208.472L219.707 205.434L231.671 216.918V216.925Z" fill="#F3AE13"/>
</svg>
