<svg width="263" height="263" viewBox="0 0 263 263" fill="none" xmlns="http://www.w3.org/2000/svg">
<path d="M131.5 263C204.125 263 263 204.125 263 131.5C263 58.8746 204.125 0 131.5 0C58.8746 0 0 58.8746 0 131.5C0 204.125 58.8746 263 131.5 263Z" fill="#3C3C3B"/>
<path d="M131.5 252.776C64.6254 252.776 10.2239 198.368 10.2239 131.5C10.2239 64.6327 64.6254 10.2246 131.5 10.2246C198.374 10.2246 252.776 64.6327 252.776 131.5C252.776 198.368 198.374 252.776 131.5 252.776Z" fill="white"/>
<path d="M131.5 13.1566C196.855 13.1566 249.843 66.138 249.843 131.5C249.843 196.862 196.862 249.843 131.5 249.843C66.1378 249.843 13.1564 196.856 13.1564 131.5C13.1564 66.1446 66.1443 13.1566 131.5 13.1566ZM131.5 7.28516C63.0081 7.29173 7.2915 63.0083 7.2915 131.5C7.2915 199.992 63.0146 255.708 131.5 255.708C199.985 255.708 255.715 199.985 255.715 131.5C255.715 63.0149 199.992 7.29173 131.5 7.29173V7.28516Z" fill="#282725"/>
<path d="M224.3 108.841C223.852 104.409 220.414 100.773 214.069 98.0184C213.01 97.5582 211.846 97.1176 210.558 96.6771C197.165 66.3137 166.814 45.1094 131.5 45.1094C83.7918 45.1094 45.1111 83.7835 45.1111 131.498C45.1111 179.213 83.7852 217.887 131.5 217.887C179.215 217.887 217.889 179.213 217.889 131.498C217.889 129.184 217.771 126.902 217.593 124.634C218.218 124.108 218.829 123.543 219.401 122.944L219.454 122.892L219.5 122.839L219.934 122.352C223.294 118.532 224.786 113.877 224.306 108.841H224.3Z" fill="#282725"/>
<path d="M162.402 66.8164C157.333 66.8164 153.013 70.0184 151.317 74.5026C151.711 75.8242 151.935 77.2246 151.935 78.6711C151.935 80.1176 151.711 81.5313 151.317 82.8594C151.462 83.2342 151.619 83.6024 151.803 83.964C158.378 84.9108 164.782 85.9299 170.858 86.9754C172.982 84.8516 174.27 81.9192 174.27 78.6843C174.27 72.1487 168.944 66.823 162.409 66.823L162.402 66.8164Z" fill="white"/>
<path d="M167.091 76.0553V72.6758C165.355 72.6889 164.033 74.0894 164.033 75.8121C164.033 77.5347 165.467 79.0601 167.196 79.0601C168.734 79.0601 170.049 77.9226 170.319 76.555C170.332 76.4761 170.431 75.6608 170.22 75.0559C169.944 74.2735 169.615 73.9316 169.615 73.8461L167.091 76.0553Z" fill="#282725"/>
<path d="M137.398 65.5469C130.159 65.5469 124.268 71.4381 124.268 78.6771C124.268 85.9162 130.159 91.8008 137.398 91.8008C144.637 91.8008 150.528 85.9096 150.528 78.6771C150.528 71.4447 144.637 65.5469 137.398 65.5469Z" fill="white"/>
<path d="M145.63 76.0732V72.332C143.71 72.3452 142.244 73.8969 142.244 75.8036C142.244 77.7104 143.828 79.4002 145.748 79.4002C147.451 79.4002 148.904 78.1378 149.207 76.6255C149.226 76.54 149.332 75.6327 149.095 74.9686C148.792 74.1007 148.424 73.7259 148.424 73.6273L145.623 76.0732H145.63Z" fill="#282725"/>
<path d="M220.493 109.204C220.144 105.752 216.633 103.306 212.55 101.531C210.953 100.834 209.269 100.262 207.652 99.7556C205.587 99.1376 203.641 98.6576 202.135 98.2697L201.886 98.2105C188.558 94.877 170.391 91.458 152.034 88.874C151.804 88.8346 151.593 88.8148 151.376 88.7754C147.964 93.9039 142.349 97.2637 136.024 97.2637C129.699 97.2637 124.182 93.9828 120.75 88.9529C112.38 90.5901 105.417 93.7527 99.96 98.4604C88.9863 107.889 83.5488 123.32 83.3384 145.629C83.2397 154.677 82.3916 168.037 81.4645 180.727C82.8124 179.898 85.2254 178.452 88.3485 176.834L86.5535 174.29C86.1656 173.731 86.3037 172.962 86.8626 172.574C87.4214 172.166 88.1907 172.304 88.5786 172.863L90.5643 175.697C92.3593 174.829 94.3055 173.922 96.3897 173.034L93.0759 171.088C92.4973 170.739 92.2869 169.99 92.6354 169.411C92.9839 168.833 93.7334 168.642 94.3318 168.971L99.171 171.824L99.3814 168.78C99.4208 168.103 100.019 167.623 100.696 167.643C101.374 167.682 101.893 168.28 101.834 168.958L101.696 171.002C103.701 170.305 105.766 169.654 107.889 169.115C108.547 168.944 109.218 169.326 109.395 170.003C109.546 170.66 109.165 171.331 108.507 171.489C106.114 172.107 103.76 172.856 101.505 173.685L101.426 174.763C101.387 175.421 100.848 175.901 100.21 175.901H100.111C99.4537 175.861 98.9737 175.302 98.9737 174.665C96.4686 175.664 94.1148 176.729 91.9911 177.768C92.2606 178.307 92.1291 178.984 91.6229 179.346C91.4125 179.497 91.1626 179.556 90.9128 179.556C90.5248 179.556 90.1435 179.385 89.9068 179.037L89.7884 178.886C84.8506 181.43 81.6486 183.534 81.5697 183.574C81.4711 183.653 81.3396 183.653 81.2212 183.692C80.9122 188.032 80.5637 192.272 80.2744 196.152C94.3318 207.316 112.137 213.99 131.474 213.99C136.53 213.99 141.481 213.529 146.287 212.662C143.513 194.593 139.502 156.215 139.055 143.525C139.634 143.677 140.232 143.854 140.81 143.986C144.959 144.952 149.549 145.564 154.177 145.564C164.704 145.564 175.296 142.421 180.635 133.472C181.312 132.335 180.944 130.869 179.807 130.211C178.689 129.514 177.223 129.902 176.546 131.02C176.467 131.158 176.375 131.27 176.296 131.388C176.006 131.289 175.678 131.217 175.277 131.158C174.619 131.059 173.232 131.947 172.114 132.644C170.398 133.722 168.471 134.919 166.289 134.919C165.96 134.919 165.592 134.899 165.25 134.82C163.054 134.412 161.679 132.407 160.483 130.652C159.963 129.882 158.977 128.436 158.517 128.278C157.919 128.16 156.222 129.205 155.124 129.895C152.908 131.243 150.417 132.788 147.681 132.249C145.715 131.861 144.4 130.724 143.362 129.797C142.415 128.968 141.797 128.449 140.909 128.271C139.62 128.041 138.766 126.785 139.022 125.497C139.252 124.208 140.508 123.373 141.797 123.61C143.993 124.037 145.387 125.247 146.504 126.233C147.392 127.002 147.931 127.45 148.608 127.581C149.516 127.772 151.232 126.693 152.619 125.845C154.763 124.517 156.998 123.123 159.464 123.61C161.758 124.07 163.165 126.135 164.421 127.969C164.921 128.719 165.789 129.974 166.197 130.165C166.913 130.283 168.34 129.396 169.589 128.6C171.457 127.423 173.561 126.095 175.954 126.444C178.577 126.831 179.905 127.772 180.971 128.548C181.898 129.205 182.397 129.554 183.903 129.626C193.7 130.145 205.929 128.199 213.523 122.893C214.681 122.124 215.719 121.236 216.627 120.289C216.778 120.118 216.936 119.941 217.087 119.77C219.73 116.759 220.868 113.215 220.48 109.204H220.493ZM95.2523 184.514C95.0419 184.665 94.792 184.744 94.5553 184.744C94.1674 184.744 93.786 184.553 93.5362 184.205L93.2469 183.797C92.859 183.238 92.997 182.469 93.5559 182.081C94.1148 181.693 94.8709 181.831 95.272 182.39L95.5613 182.798C95.9492 183.357 95.8111 184.126 95.2523 184.514ZM108.29 178.61C108.06 179.017 107.653 179.228 107.232 179.228C107.022 179.228 106.805 179.168 106.614 179.057L103.103 176.992C102.524 176.644 102.314 175.894 102.656 175.316C103.004 174.717 103.754 174.527 104.352 174.875L107.843 176.94C108.442 177.288 108.632 178.038 108.284 178.616L108.29 178.61ZM120.033 171.824C119.823 171.956 119.593 172.035 119.336 172.035C118.949 172.035 118.567 171.864 118.317 171.515L115.004 166.735C114.616 166.176 114.754 165.407 115.313 165.019C115.871 164.631 116.641 164.769 117.029 165.328L120.349 170.108C120.737 170.667 120.599 171.436 120.04 171.824H120.033Z" fill="white"/>
<path d="M179.031 137.728C179.655 136.761 180.694 135.979 181.74 135.492C181.049 135.052 180.438 134.611 179.885 134.171C179.07 133.868 178.373 133.934 177.762 134.394C176.683 135.203 176.151 136.926 176.052 137.853C176.841 138.425 177.637 138.977 178.432 139.497C178.472 138.892 178.663 138.293 179.024 137.728H179.031Z" fill="#E5D2AD"/>
<path d="M176.966 133.329C177.374 133.026 177.821 132.849 178.288 132.75C177.63 132.093 177.117 131.494 176.749 131.008C174.744 130.745 172.074 131.468 170.595 133.171C171.897 134.538 173.35 135.801 174.862 136.971C175.145 135.729 175.816 134.19 176.966 133.329Z" fill="#E5D2AD"/>
<path d="M192.141 146.063C194.732 146.563 196.086 145.708 196.691 143.216C196.928 142.256 196.862 141.428 196.527 140.783C196.816 141.967 196.467 143.242 196.073 143.801C195.882 144.064 195.521 144.13 195.251 143.939C194.988 143.749 194.929 143.387 195.113 143.124C195.369 142.769 195.665 141.664 195.343 140.816C195.126 140.251 194.673 139.902 193.956 139.751C193.397 139.626 193.016 140.014 192.759 140.461C193.035 140.33 193.384 140.251 193.857 140.277C194.179 140.297 194.429 140.573 194.41 140.902C194.39 141.224 194.1 141.474 193.785 141.454C193.325 141.428 193.147 141.579 193.055 141.697C192.555 142.368 192.989 144.255 193.279 145.07C193.351 145.274 193.305 145.498 193.167 145.655C193.055 145.78 192.891 145.853 192.726 145.853C192.68 145.853 192.641 145.853 192.595 145.839C191.168 145.517 190.754 143.308 191.181 141.362C191.372 140.487 191.714 139.804 192.154 139.324C188.472 138.719 185.546 137.634 183.252 136.404C182.252 136.615 180.845 137.364 180.135 138.469C179.721 139.107 179.629 139.744 179.839 140.395C185.507 143.834 190.885 145.839 192.135 146.083L192.141 146.063Z" fill="#E5D2AD"/>
<path d="M192.766 140.454C193.042 140.323 193.391 140.244 193.864 140.27C194.186 140.29 194.436 140.566 194.416 140.895C194.396 141.217 194.107 141.467 193.792 141.447C193.331 141.421 193.154 141.572 193.062 141.691C192.74 142.124 192.805 143.065 192.97 143.893C193.272 144.228 193.64 144.459 194.055 144.459C194.495 144.459 194.883 144.215 195.192 143.847C195.008 143.65 194.955 143.361 195.12 143.13C195.376 142.775 195.672 141.671 195.35 140.823C195.133 140.257 194.679 139.909 193.963 139.757C193.7 139.698 193.476 139.757 193.285 139.882C193.167 139.968 193.055 140.073 192.957 140.191C192.884 140.277 192.825 140.376 192.766 140.474V140.454Z" fill="#AC2535"/>
<path d="M197.151 139.318C196.29 138.404 194.982 137.97 193.719 138.161C189.616 137.655 186.434 136.504 184.001 135.202L184.021 134.979C183.89 134.966 183.738 134.979 183.594 134.979C180.188 133.072 178.36 130.902 177.689 129.975L177.532 129.752L177.262 129.706C174.685 129.245 170.97 130.192 169.155 132.815L168.846 133.263L169.214 133.664C171.923 136.609 175.395 139.2 178.827 141.317C178.866 141.396 178.879 141.481 178.925 141.567L179.083 141.475C184.698 144.9 190.142 147.057 191.885 147.392C192.424 147.497 192.93 147.55 193.404 147.55C195.817 147.55 197.362 146.202 198.013 143.539C198.427 141.843 198.118 140.35 197.151 139.318ZM179.031 137.727C178.669 138.292 178.478 138.891 178.439 139.496C177.637 138.976 176.841 138.424 176.059 137.852C176.151 136.925 176.683 135.202 177.768 134.393C178.38 133.933 179.077 133.867 179.892 134.17C180.444 134.61 181.056 135.051 181.746 135.492C180.701 135.978 179.655 136.76 179.037 137.727H179.031ZM170.595 133.164C172.074 131.468 174.744 130.738 176.749 131.001C177.117 131.487 177.624 132.086 178.288 132.743C177.821 132.842 177.374 133.019 176.966 133.322C175.815 134.183 175.145 135.722 174.862 136.964C173.35 135.794 171.897 134.532 170.595 133.164ZM196.691 143.211C196.086 145.702 194.732 146.551 192.141 146.058C190.892 145.814 185.514 143.809 179.846 140.37C179.642 139.719 179.734 139.088 180.142 138.444C180.852 137.339 182.259 136.59 183.258 136.379C185.553 137.609 188.479 138.694 192.161 139.298C191.72 139.778 191.378 140.469 191.188 141.337C190.76 143.283 191.168 145.492 192.601 145.814C192.641 145.821 192.687 145.827 192.733 145.827C192.897 145.827 193.062 145.755 193.173 145.63C193.312 145.472 193.358 145.249 193.285 145.045C192.996 144.236 192.555 142.343 193.062 141.672C193.147 141.554 193.331 141.396 193.792 141.429C194.107 141.448 194.396 141.205 194.416 140.876C194.436 140.554 194.186 140.272 193.864 140.252C193.39 140.232 193.042 140.304 192.766 140.436C193.022 139.982 193.404 139.594 193.962 139.726C194.679 139.877 195.133 140.226 195.35 140.791C195.679 141.639 195.376 142.744 195.12 143.099C194.929 143.362 194.995 143.73 195.258 143.914C195.521 144.111 195.889 144.039 196.08 143.776C196.474 143.224 196.823 141.948 196.533 140.758C196.869 141.402 196.928 142.224 196.698 143.191L196.691 143.211Z" fill="#282725"/>
<g opacity="0.68">
<path fill-rule="evenodd" clip-rule="evenodd" d="M212.123 59.7266C209.782 62.2185 206.639 64.5658 203.319 65.0523C195.817 66.1438 189.656 72.9949 187.611 75.1121C187.105 75.6775 186.618 76.2561 186.178 76.8413C181.911 82.0881 178.538 88.4856 179.55 95.5537C180.221 95.2184 181.233 95.2184 181.904 94.8831C182.239 96.7898 183.14 98.5125 184.396 99.9064C185.027 100.603 185.744 101.221 186.526 101.734C188.637 103.299 191.333 103.634 193.686 102.287C193.016 105.653 195.705 107.336 198.065 109.019C194.699 112.386 191.333 117.435 193.351 121.814C194.364 124.845 199.413 124.168 200.419 127.633C200.827 128.955 200.827 130.428 200.452 131.756C199.709 134.399 197.822 136.615 195.974 138.738C196.691 139.047 197.138 139.731 197.336 140.52C200.531 136.49 203.726 132.459 206.922 128.435C206.521 127.85 206.015 127.337 205.442 126.89C202.773 124.852 196.376 123.504 198.059 120.473C200.755 114.076 209.506 105.995 199.407 101.616C201.425 100.268 204.792 98.2495 202.78 94.8305C202.326 93.8179 201.754 92.904 201.096 92.0953C197.789 88.0714 192.227 86.855 188.301 83.7713C185.948 81.7528 189.314 78.3864 190.59 75.9339C190.997 75.02 192.01 74.0075 192.68 73.6721C199.413 71.3183 207.159 69.9704 211.196 64.2436C212.241 62.8497 212.445 61.298 212.11 59.7266H212.123ZM188.696 92.2268C190.931 91.9441 193.384 92.0624 195.468 93.1341C196.165 93.4892 196.816 93.956 197.401 94.5412C198.414 95.2118 199.42 97.2369 198.414 98.2429C195.718 100.261 191.681 100.261 189.899 97.0397C189.314 96.2375 188.86 95.317 188.591 94.3439C188.282 93.6075 188.104 92.5818 188.696 92.2202V92.2268Z" fill="#CDCBC2"/>
</g>
<path d="M33.6641 99.2882C41.5212 100.958 43.8159 104.318 42.1985 111.925L39.8906 122.781L17.5291 118.027L19.8172 107.277C21.4346 99.6696 24.9457 97.434 32.8094 99.1041L33.6707 99.2882H33.6641ZM24.0186 113.392L35.8339 115.903L36.7544 111.597C37.7143 107.08 36.0574 105.929 32.1584 105.101L31.8034 105.028C27.9044 104.2 25.8925 104.575 24.9325 109.085L24.0186 113.392Z" fill="#282725"/>
<path d="M48.254 93.5827L45.9857 99.0136L24.8865 90.1966L27.1549 84.7656L48.254 93.5827Z" fill="#282725"/>
<path d="M52.3962 85.4608L49.1876 90.3921L30.0215 77.9193L37.1882 66.8996C40.3968 61.9684 42.8164 61.1859 46.5379 63.6121L47.1428 64.0066C50.0161 65.8805 50.759 67.5505 49.6281 70.0096L49.8188 70.1345C51.6401 68.2935 52.7776 67.682 56.3083 69.9767L60.6347 72.7908L57.4129 77.7484L53.3627 75.1118C51.5809 73.9546 50.8116 74.0664 49.2205 76.5057L46.0711 81.3449L52.3962 85.4608ZM37.5301 75.7824L41.771 78.5439L45.4399 72.9092C46.4261 71.3969 46.3604 70.5422 44.8481 69.5625L44.6837 69.4573C43.0137 68.3724 42.1655 68.6551 40.719 70.8709L37.5236 75.7824H37.5301Z" fill="#282725"/>
<path d="M71.0627 62.8769L66.7692 66.9074L55.0526 54.4347L50.0359 59.1489L46.104 54.9606L60.4704 41.4688L64.4022 45.657L59.3461 50.4042L71.0627 62.8769Z" fill="#282725"/>
<path d="M89.2361 50.3979L84.0813 53.2975L79.3013 44.8157L65.2703 37.6424L71.385 34.1971L79.492 38.6286L79.6564 38.5366L80.064 29.3119L85.5936 26.1953L84.4298 41.8898L89.2296 50.3979H89.2361Z" fill="#282725"/>
<path d="M114.846 41.9465C109.263 42.9591 104.924 42.1504 103.326 36.989L109.487 35.8712C110.289 37.4164 111.801 37.4427 114.642 36.9298C117.85 36.3512 118.889 35.5622 118.639 34.0171L118.593 33.7607C118.376 32.5706 117.745 32.1169 115.825 32.4325L110.631 33.1426C105.272 33.8461 102.997 32.4983 102.208 28.1588L102.169 27.9352C101.229 22.7607 103.753 20.0452 110.532 18.8157L111.249 18.6842C116.772 17.6848 121.052 18.8683 122.63 23.9639L116.47 25.0817C115.733 23.4511 114.287 23.1815 111.604 23.668C108.52 24.2269 107.725 24.9699 108.001 26.4821L108.021 26.5808C108.238 27.7708 108.843 28.2245 110.769 27.9747L115.93 27.2383C121.282 26.469 123.577 27.9484 124.34 32.1629L124.379 32.3865C125.405 38.0476 122.459 40.5724 115.766 41.7822L114.839 41.9531L114.846 41.9465Z" fill="#282725"/>
<path d="M138.24 40.6657C130.494 40.0345 127.693 36.8522 128.344 28.8439L128.469 27.3119C129.12 19.297 132.401 16.5815 140.146 17.2127L141.652 17.3376C149.397 17.9688 152.225 21.184 151.574 29.1989L151.449 30.7309C150.798 38.7458 147.491 41.4284 139.745 40.7972L138.24 40.6723V40.6657ZM139.752 35.3466C144.269 35.7148 145.183 33.8212 145.498 29.9485L145.577 28.9688C145.899 25.0567 145.301 23.0776 140.777 22.7094L140.159 22.6568C135.616 22.2886 134.735 24.1493 134.413 28.0549L134.334 29.0346C134.018 32.9138 134.584 34.9258 139.134 35.294L139.752 35.3466Z" fill="#282725"/>
<path d="M162.311 45.7748C155.144 43.1383 153.447 39.3774 156.215 31.8358L156.755 30.363C159.523 22.8149 163.251 21.0528 170.418 23.6894L171.811 24.2023C178.169 26.543 180.004 29.7581 178.689 35.5441L173.041 33.4664C173.159 32.3618 172.949 31.5202 172.436 30.8759C171.923 30.2315 170.924 29.6595 169.431 29.1072L169.05 28.9691C164.894 27.4372 163.612 29.0546 162.271 32.7103L161.936 33.6308C160.594 37.2799 160.529 39.3445 164.678 40.8765L165.059 41.0145C166.551 41.5668 167.689 41.7707 168.491 41.6129C169.3 41.4551 170.003 40.9488 170.628 40.0283L176.276 42.106C173.541 47.366 170.056 48.6284 163.698 46.2877L162.304 45.7748H162.311Z" fill="#282725"/>
<path d="M180.392 54.0797L175.605 50.6607L188.9 32.0469L193.686 35.4659L188.348 42.9416L188.499 43.0534L201.327 40.9297L207.764 45.5256L194.738 47.5113L194.666 64.2841L188.315 59.7539L188.361 48.5435L188.183 48.4186L183.955 49.0958L180.385 54.0928L180.392 54.0797Z" fill="#282725"/>
<path d="M207.336 79.6292L195.587 65.7165L213.07 50.9688L224.819 64.8815L220.874 68.2084L212.925 58.793L210.131 61.1534L218.08 70.5688L214.108 73.9155L206.159 64.5001L203.339 66.8803L211.288 76.2957L207.343 79.6226L207.336 79.6292Z" fill="#282725"/>
<path d="M211.551 87.1252L208.954 81.8455L229.461 71.7266L235.267 83.5221C237.864 88.8018 237.305 91.2806 233.321 93.2465L232.676 93.5687C229.599 95.0875 227.784 94.8706 226.246 92.6482L226.042 92.7468C226.693 95.2519 226.64 96.5472 222.86 98.4145L218.231 100.696L215.614 95.39L219.954 93.2531C221.86 92.3129 222.156 91.5962 220.868 88.9728L218.316 83.7917L211.551 87.1318V87.1252ZM227.462 79.2747L222.919 81.5102L225.891 87.5394C226.686 89.1635 227.456 89.5382 229.067 88.7427L229.244 88.6572C231.032 87.7761 231.217 86.9017 230.053 84.5281L227.462 79.2747Z" fill="#282725"/>
<path d="M220.664 112.825C219.526 107.276 220.236 102.91 225.358 101.201L226.614 107.335C225.082 108.17 225.095 109.683 225.674 112.516C226.325 115.718 227.14 116.738 228.679 116.448L228.935 116.396C230.119 116.152 230.553 115.515 230.198 113.601L229.376 108.427C228.547 103.088 229.842 100.78 234.162 99.899L234.386 99.853C239.541 98.801 242.309 101.26 243.689 108.006L243.834 108.723C244.958 114.226 243.874 118.526 238.817 120.222L237.562 114.088C239.172 113.319 239.409 111.866 238.857 109.196C238.232 106.126 237.469 105.35 235.964 105.652L235.865 105.672C234.682 105.915 234.241 106.527 234.53 108.453L235.385 113.595C236.273 118.921 234.853 121.255 230.658 122.109L230.434 122.155C224.799 123.306 222.209 120.42 220.848 113.759L220.657 112.832L220.664 112.825Z" fill="#282725"/>
<path d="M73.1271 224.352C68.6627 221.564 68.2813 219.401 71.0757 214.923L75.7176 207.48L79.2616 209.69L74.7248 216.968C73.2389 219.348 73.469 220.197 75.3823 221.387L75.7374 221.604C77.6836 222.82 78.5186 222.61 79.9914 220.249L84.5281 212.971L88.0721 215.18L83.4301 222.623C80.6357 227.107 78.5252 227.718 74.0739 224.944L73.1337 224.359L73.1271 224.352Z" fill="#282725"/>
<path d="M99.0196 236.36L93.2665 234.098L91.6227 221.875L91.4846 221.823L87.5462 231.85L83.8905 230.41L89.5516 216.004L95.3047 218.266L96.9419 230.508L97.08 230.561L101.025 220.514L104.681 221.954L99.0196 236.36Z" fill="#282725"/>
<path d="M107.297 238.272L103.319 237.299L107.001 222.281L110.979 223.261L107.297 238.278V238.272Z" fill="#282725"/>
<path d="M121.716 240.54L116.489 239.948L112.242 223.898L116.963 224.431L119.691 235.661L119.843 235.681L125.024 225.338L129.409 225.831L121.71 240.533L121.716 240.54Z" fill="#282725"/>
<path d="M144.058 240.403L131.421 241.113L130.56 225.675L143.197 224.965L143.394 228.45L134.847 228.93L134.985 231.402L143.532 230.922L143.729 234.433L135.182 234.913L135.32 237.405L143.867 236.925L144.065 240.41L144.058 240.403Z" fill="#282725"/>
<path d="M152.521 238.969L148.523 239.863L145.137 224.76L154.066 222.755C158.063 221.854 159.641 222.617 160.299 225.549L160.404 226.023C160.91 228.291 160.457 229.455 158.701 230.119L158.734 230.27C160.535 230.231 161.397 230.467 162.021 233.248L162.784 236.661L158.773 237.562L158.057 234.366C157.741 232.966 157.307 232.657 155.328 233.097L151.403 233.978L152.521 238.962V238.969ZM149.891 227.252L150.64 230.599L155.203 229.573C156.433 229.297 156.814 228.85 156.544 227.66L156.518 227.528C156.222 226.213 155.663 225.95 153.868 226.358L149.891 227.252Z" fill="#282725"/>
<path d="M173.435 232.86C169.793 234.373 166.736 234.498 164.921 231.328L168.945 229.658C169.707 230.559 170.74 230.349 172.594 229.579C174.691 228.705 175.283 228.028 174.895 227.041L174.823 226.877C174.507 226.121 174.021 225.917 172.758 226.417L169.333 227.673C165.795 228.955 164.066 228.403 162.915 225.648L162.856 225.503C161.489 222.215 162.817 220.039 167.235 218.198L167.702 218.001C171.305 216.502 174.376 216.64 176.171 219.77L172.147 221.44C171.417 220.473 170.398 220.513 168.649 221.242C166.637 222.077 166.203 222.695 166.597 223.655L166.624 223.715C166.939 224.471 167.413 224.681 168.688 224.221L172.088 222.952C175.605 221.63 177.374 222.261 178.485 224.937L178.544 225.082C180.043 228.672 178.4 230.789 174.034 232.611L173.429 232.86H173.435Z" fill="#282725"/>
<path d="M194.876 220.973L184.139 227.68L175.934 214.556L186.671 207.85L188.518 210.808L181.26 215.345L182.568 217.443L189.833 212.906L191.694 215.891L184.435 220.428L185.757 222.545L193.016 218.008L194.87 220.973H194.876Z" fill="#282725"/>
<path d="M199.439 194.89L206.968 197.02L211.327 190.518L211.623 198.335L219.151 200.466L211.807 203.168L212.109 210.986L207.27 204.838L199.926 207.54L204.279 201.038L199.439 194.89Z" fill="#282725"/>
<path d="M214.463 173.159L222.288 173.099L224.641 165.637L227.12 173.06L234.944 172.994L228.652 177.643L231.131 185.066L224.766 180.523L218.474 185.171L220.828 177.708L214.463 173.159Z" fill="#282725"/>
<path d="M222.794 148.101L230.289 145.846L230.46 138.021L234.918 144.452L242.414 142.203L237.673 148.43L242.131 154.86L234.747 152.276L230.007 158.503L230.184 150.678L222.794 148.101Z" fill="#282725"/>
<path d="M65.1451 195.929L57.6495 198.171L53.1983 191.734L53.0142 199.559L45.5187 201.801L52.8958 204.391L52.7117 212.216L57.4589 205.996L64.8426 208.593L60.3979 202.149L65.1451 195.929Z" fill="#282725"/>
<path d="M49.8056 174.428L41.9813 174.481L39.5157 167.051L37.1487 174.507L29.3245 174.559L35.6825 179.116L33.3155 186.579L39.6143 181.937L45.9724 186.493L43.5067 179.07L49.8056 174.428Z" fill="#282725"/>
<path d="M41.1071 149.488L33.5853 147.345L33.296 139.527L28.9302 146.023L21.4084 143.88L26.2345 150.034L21.8687 156.53L29.2195 153.841L34.0456 159.995L33.7629 152.178L41.1071 149.488Z" fill="#282725"/>
</svg>
