<svg width="282" height="282" viewBox="0 0 282 282" fill="none" xmlns="http://www.w3.org/2000/svg">
<path d="M141 282C218.872 282 282 218.872 282 141C282 63.1278 218.872 0 141 0C63.1278 0 0 63.1278 0 141C0 218.872 63.1278 282 141 282Z" fill="#3C3C3B"/>
<path d="M141 271.037C69.2944 271.037 10.9628 212.698 10.9628 141C10.9628 69.3015 69.2944 10.9629 141 10.9629C212.705 10.9629 271.037 69.3015 271.037 141C271.037 212.698 212.705 271.037 141 271.037Z" fill="white"/>
<path d="M141 14.1072C211.077 14.1072 267.893 70.916 267.893 141C267.893 211.084 211.084 267.893 141 267.893C70.9159 267.893 14.1071 211.077 14.1071 141C14.1071 70.923 70.9229 14.1072 141 14.1072ZM141 7.81152C67.5601 7.81857 7.81848 67.5602 7.81848 141C7.81848 214.44 67.5671 274.181 141 274.181C214.432 274.181 274.188 214.433 274.188 141C274.188 67.5672 214.44 7.81857 141 7.81857V7.81152Z" fill="#3C3C3B"/>
<path d="M240.504 116.706C240.024 111.954 236.337 108.055 229.534 105.101C228.399 104.608 227.151 104.136 225.769 103.663C211.408 71.1063 178.866 48.3701 141 48.3701C89.8453 48.3701 48.3702 89.8382 48.3702 141C48.3702 192.162 89.8383 233.63 141 233.63C192.162 233.63 233.63 192.162 233.63 141C233.63 138.518 233.503 136.072 233.313 133.64C233.982 133.076 234.638 132.469 235.251 131.828L235.308 131.771L235.357 131.715L235.822 131.193C239.425 127.097 241.025 122.106 240.511 116.706H240.504Z" fill="#3C3C3B"/>
<path d="M174.135 71.6416C168.7 71.6416 164.068 75.0749 162.249 79.883C162.672 81.3001 162.912 82.8017 162.912 84.3527C162.912 85.9037 162.672 87.4195 162.249 88.8436C162.404 89.2454 162.573 89.6402 162.771 90.028C169.821 91.0432 176.687 92.1359 183.202 93.2569C185.479 90.9797 186.861 87.8354 186.861 84.3668C186.861 77.3591 181.15 71.6486 174.142 71.6486L174.135 71.6416Z" fill="white"/>
<path d="M179.162 81.5475V77.9238C177.3 77.9379 175.883 79.4396 175.883 81.2867C175.883 83.1338 177.42 84.7694 179.274 84.7694C180.924 84.7694 182.334 83.5497 182.623 82.0833C182.637 81.9987 182.743 81.1245 182.517 80.4759C182.221 79.637 181.869 79.2704 181.869 79.1787L179.162 81.5475Z" fill="#3C3C3B"/>
<path d="M147.323 70.2812C139.561 70.2812 133.245 76.598 133.245 84.3601C133.245 92.1221 139.561 98.4318 147.323 98.4318C155.085 98.4318 161.402 92.1151 161.402 84.3601C161.402 76.6051 155.085 70.2812 147.323 70.2812Z" fill="white"/>
<path d="M156.15 81.5691V77.5576C154.092 77.5717 152.52 79.2355 152.52 81.28C152.52 83.3245 154.219 85.1364 156.277 85.1364C158.103 85.1364 159.661 83.7828 159.986 82.1613C160.007 82.0696 160.12 81.0967 159.866 80.3847C159.541 79.4541 159.147 79.0522 159.147 78.9465L156.143 81.5691H156.15Z" fill="#3C3C3B"/>
<path d="M236.421 117.094C236.048 113.393 232.283 110.77 227.905 108.866C226.192 108.119 224.387 107.506 222.653 106.963C220.439 106.3 218.352 105.786 216.738 105.37L216.47 105.306C202.18 101.732 182.701 98.0658 163.017 95.2952C162.77 95.2529 162.545 95.2318 162.312 95.1895C158.653 100.688 152.632 104.291 145.85 104.291C139.068 104.291 133.153 100.773 129.473 95.3798C120.498 97.1352 113.033 100.526 107.181 105.574C95.4146 115.684 89.5843 132.23 89.3587 156.151C89.2529 165.851 88.3435 180.177 87.3494 193.784C88.7947 192.895 91.382 191.344 94.7307 189.61L92.8061 186.882C92.3902 186.282 92.5382 185.457 93.1375 185.042C93.7367 184.604 94.5616 184.753 94.9775 185.352L97.1066 188.39C99.0312 187.46 101.118 186.487 103.353 185.535L99.7997 183.448C99.1793 183.075 98.9537 182.271 99.3273 181.651C99.701 181.03 100.505 180.826 101.146 181.178L106.335 184.238L106.561 180.974C106.603 180.248 107.244 179.733 107.971 179.754C108.697 179.796 109.254 180.438 109.19 181.164L109.042 183.357C111.192 182.609 113.406 181.911 115.683 181.333C116.388 181.15 117.107 181.559 117.298 182.285C117.46 182.99 117.051 183.709 116.346 183.878C113.78 184.541 111.256 185.345 108.838 186.233L108.753 187.389C108.711 188.094 108.133 188.609 107.449 188.609H107.343C106.638 188.567 106.124 187.967 106.124 187.283C103.437 188.355 100.914 189.497 98.6364 190.611C98.9255 191.189 98.7845 191.915 98.2417 192.303C98.0161 192.465 97.7481 192.529 97.4803 192.529C97.0643 192.529 96.6554 192.345 96.4016 191.972L96.2747 191.81C90.9802 194.538 87.5468 196.794 87.4622 196.836C87.3565 196.921 87.2155 196.921 87.0886 196.963C86.7572 201.616 86.3836 206.163 86.0734 210.323C101.146 222.294 120.238 229.449 140.972 229.449C146.393 229.449 151.702 228.956 156.855 228.025C153.88 208.652 149.58 167.501 149.1 153.895C149.721 154.057 150.362 154.247 150.983 154.388C155.431 155.425 160.352 156.08 165.315 156.08C176.602 156.08 187.96 152.71 193.684 143.115C194.411 141.896 194.016 140.323 192.796 139.618C191.598 138.871 190.025 139.287 189.299 140.486C189.215 140.634 189.116 140.754 189.031 140.88C188.721 140.775 188.369 140.697 187.939 140.634C187.234 140.528 185.746 141.48 184.548 142.227C182.708 143.383 180.642 144.666 178.301 144.666C177.949 144.666 177.554 144.645 177.187 144.561C174.833 144.123 173.359 141.973 172.076 140.091C171.519 139.266 170.462 137.715 169.968 137.546C169.327 137.419 167.508 138.54 166.33 139.28C163.955 140.725 161.283 142.382 158.35 141.804C156.242 141.388 154.832 140.168 153.718 139.174C152.703 138.286 152.04 137.729 151.088 137.539C149.707 137.292 148.79 135.945 149.065 134.564C149.312 133.182 150.658 132.286 152.04 132.54C154.395 132.999 155.889 134.296 157.088 135.353C158.04 136.178 158.618 136.657 159.344 136.798C160.317 137.003 162.157 135.847 163.644 134.937C165.943 133.513 168.34 132.019 170.983 132.54C173.444 133.034 174.953 135.247 176.299 137.214C176.835 138.018 177.766 139.365 178.203 139.569C178.971 139.696 180.501 138.744 181.84 137.891C183.843 136.629 186.099 135.205 188.665 135.579C191.478 135.995 192.902 137.003 194.044 137.835C195.038 138.54 195.574 138.913 197.188 138.991C207.693 139.548 220.806 137.461 228.948 131.772C230.189 130.947 231.303 129.995 232.276 128.98C232.438 128.797 232.607 128.606 232.77 128.423C235.604 125.194 236.823 121.394 236.407 117.094H236.421ZM102.133 197.844C101.908 198.006 101.64 198.091 101.386 198.091C100.97 198.091 100.561 197.887 100.293 197.513L99.983 197.076C99.567 196.477 99.7151 195.652 100.314 195.236C100.914 194.82 101.724 194.968 102.154 195.567L102.465 196.004C102.881 196.604 102.732 197.428 102.133 197.844ZM116.113 191.513C115.867 191.951 115.43 192.176 114.978 192.176C114.753 192.176 114.52 192.113 114.316 191.993L110.551 189.779C109.931 189.405 109.705 188.602 110.072 187.981C110.445 187.34 111.249 187.135 111.89 187.509L115.634 189.723C116.276 190.096 116.48 190.9 116.106 191.52L116.113 191.513ZM128.705 184.238C128.479 184.379 128.232 184.463 127.957 184.463C127.541 184.463 127.132 184.28 126.865 183.906L123.311 178.781C122.895 178.182 123.044 177.357 123.643 176.941C124.242 176.525 125.067 176.673 125.483 177.272L129.043 182.398C129.459 182.997 129.311 183.822 128.712 184.238H128.705Z" fill="white"/>
<path d="M191.964 147.676C192.634 146.64 193.748 145.801 194.868 145.279C194.128 144.807 193.473 144.334 192.88 143.862C192.006 143.538 191.259 143.608 190.603 144.102C189.447 144.969 188.876 146.816 188.77 147.81C189.616 148.423 190.469 149.015 191.322 149.572C191.365 148.924 191.569 148.282 191.957 147.676H191.964Z" fill="#E5D2AD"/>
<path d="M189.751 142.96C190.188 142.636 190.667 142.445 191.168 142.34C190.463 141.635 189.913 140.993 189.518 140.471C187.368 140.189 184.505 140.965 182.919 142.791C184.315 144.257 185.873 145.611 187.495 146.866C187.798 145.533 188.517 143.884 189.751 142.96Z" fill="#E5D2AD"/>
<path d="M206.022 156.616C208.8 157.152 210.252 156.235 210.901 153.564C211.155 152.534 211.084 151.646 210.725 150.955C211.035 152.224 210.661 153.592 210.238 154.191C210.034 154.473 209.646 154.543 209.357 154.339C209.075 154.135 209.012 153.747 209.209 153.465C209.484 153.084 209.801 151.9 209.456 150.99C209.223 150.384 208.737 150.01 207.968 149.848C207.369 149.714 206.96 150.13 206.685 150.61C206.981 150.469 207.355 150.384 207.862 150.412C208.208 150.433 208.476 150.729 208.455 151.082C208.433 151.427 208.123 151.695 207.785 151.674C207.291 151.646 207.101 151.808 207.002 151.935C206.466 152.654 206.932 154.677 207.242 155.552C207.32 155.77 207.27 156.01 207.122 156.179C207.002 156.313 206.826 156.391 206.65 156.391C206.6 156.391 206.558 156.391 206.509 156.376C204.979 156.031 204.535 153.662 204.993 151.575C205.197 150.638 205.564 149.905 206.036 149.39C202.088 148.741 198.951 147.578 196.491 146.26C195.419 146.485 193.91 147.289 193.149 148.473C192.705 149.157 192.606 149.841 192.832 150.539C198.909 154.226 204.676 156.376 206.015 156.637L206.022 156.616Z" fill="#E5D2AD"/>
<path d="M206.691 150.602C206.987 150.461 207.361 150.377 207.869 150.405C208.214 150.426 208.482 150.722 208.461 151.074C208.44 151.42 208.129 151.688 207.791 151.667C207.297 151.638 207.107 151.801 207.008 151.928C206.663 152.393 206.733 153.401 206.91 154.289C207.234 154.649 207.629 154.896 208.073 154.896C208.545 154.896 208.961 154.635 209.293 154.24C209.095 154.028 209.039 153.718 209.215 153.471C209.49 153.091 209.807 151.906 209.462 150.997C209.229 150.391 208.743 150.017 207.974 149.855C207.692 149.791 207.453 149.855 207.248 149.989C207.121 150.08 207.001 150.193 206.896 150.32C206.818 150.412 206.755 150.518 206.691 150.623V150.602Z" fill="#AC2535"/>
<path d="M211.394 149.383C210.47 148.403 209.067 147.938 207.714 148.142C203.315 147.599 199.902 146.366 197.294 144.97L197.315 144.73C197.174 144.716 197.012 144.73 196.857 144.73C193.205 142.685 191.245 140.359 190.526 139.365L190.357 139.125L190.068 139.076C187.304 138.582 183.321 139.598 181.375 142.411L181.044 142.89L181.438 143.32C184.343 146.478 188.065 149.256 191.745 151.526C191.788 151.611 191.802 151.702 191.851 151.794L192.02 151.695C198.041 155.368 203.878 157.681 205.747 158.04C206.325 158.153 206.868 158.21 207.375 158.21C209.963 158.21 211.619 156.764 212.317 153.909C212.761 152.09 212.43 150.49 211.394 149.383ZM191.964 147.677C191.576 148.283 191.372 148.925 191.33 149.573C190.469 149.016 189.616 148.424 188.777 147.811C188.876 146.817 189.447 144.97 190.61 144.103C191.266 143.609 192.013 143.539 192.888 143.863C193.48 144.335 194.135 144.808 194.876 145.28C193.755 145.802 192.634 146.641 191.971 147.677H191.964ZM182.919 142.784C184.505 140.965 187.367 140.183 189.518 140.465C189.912 140.986 190.455 141.628 191.167 142.333C190.667 142.439 190.187 142.629 189.75 142.953C188.517 143.877 187.797 145.527 187.494 146.859C185.873 145.604 184.315 144.251 182.919 142.784ZM210.9 153.557C210.252 156.229 208.799 157.138 206.022 156.609C204.682 156.348 198.915 154.198 192.838 150.511C192.62 149.813 192.718 149.136 193.155 148.445C193.917 147.261 195.426 146.457 196.497 146.232C198.958 147.55 202.095 148.713 206.043 149.362C205.571 149.876 205.204 150.617 204.999 151.547C204.541 153.634 204.978 156.003 206.515 156.348C206.557 156.355 206.607 156.362 206.656 156.362C206.832 156.362 207.009 156.285 207.129 156.151C207.277 155.982 207.326 155.742 207.248 155.524C206.938 154.656 206.466 152.626 207.009 151.907C207.1 151.78 207.298 151.611 207.791 151.646C208.13 151.667 208.44 151.406 208.461 151.054C208.482 150.708 208.214 150.405 207.869 150.384C207.361 150.363 206.988 150.44 206.691 150.581C206.966 150.095 207.375 149.679 207.975 149.82C208.743 149.982 209.229 150.356 209.462 150.962C209.815 151.872 209.49 153.056 209.215 153.437C209.011 153.719 209.081 154.114 209.363 154.311C209.645 154.522 210.04 154.445 210.245 154.163C210.668 153.571 211.041 152.203 210.731 150.927C211.091 151.618 211.154 152.499 210.907 153.535L210.9 153.557Z" fill="#3C3C3B"/>
<g opacity="0.68">
<path fill-rule="evenodd" clip-rule="evenodd" d="M227.447 64.043C224.937 66.7149 221.568 69.2318 218.007 69.7535C209.963 70.9238 203.357 78.2698 201.165 80.5399C200.622 81.1462 200.1 81.7666 199.628 82.3941C195.053 88.02 191.436 94.8796 192.522 102.458C193.241 102.099 194.326 102.099 195.046 101.739C195.405 103.784 196.371 105.631 197.717 107.125C198.394 107.873 199.163 108.535 200.002 109.085C202.265 110.763 205.155 111.123 207.679 109.678C206.96 113.287 209.843 115.092 212.374 116.897C208.765 120.506 205.155 125.921 207.32 130.616C208.405 133.866 213.82 133.14 214.898 136.855C215.335 138.272 215.335 139.851 214.934 141.276C214.137 144.11 212.114 146.486 210.132 148.763C210.901 149.094 211.38 149.827 211.592 150.673C215.018 146.352 218.444 142.03 221.871 137.715C221.441 137.088 220.898 136.538 220.284 136.059C217.422 133.873 210.563 132.428 212.367 129.178C215.258 122.318 224.641 113.654 213.813 108.958C215.977 107.513 219.587 105.349 217.429 101.683C216.943 100.597 216.329 99.6172 215.624 98.7501C212.078 94.4355 206.114 93.1312 201.905 89.8248C199.381 87.6604 202.991 84.0508 204.359 81.4212C204.796 80.4412 205.881 79.3555 206.6 78.996C213.82 76.4721 222.124 75.0269 226.453 68.8863C227.574 67.3917 227.793 65.7279 227.433 64.043H227.447ZM202.328 98.8911C204.725 98.5879 207.355 98.7148 209.59 99.864C210.337 100.245 211.035 100.745 211.662 101.373C212.748 102.092 213.827 104.263 212.748 105.342C209.858 107.506 205.529 107.506 203.618 104.052C202.991 103.192 202.504 102.205 202.215 101.161C201.884 100.372 201.694 99.2718 202.328 98.884V98.8911Z" fill="#CDCBC2"/>
</g>
<path d="M36.0966 106.461C44.5213 108.252 46.9818 111.855 45.2475 120.011L42.7729 131.651L18.7959 126.554L21.2493 115.027C22.9836 106.87 26.7483 104.473 35.1801 106.264L36.1036 106.461H36.0966ZM25.7542 121.584L38.4231 124.277L39.4101 119.659C40.4394 114.816 38.6628 113.582 34.4821 112.693L34.1014 112.616C29.9208 111.728 27.7635 112.129 26.7342 116.966L25.7542 121.584Z" fill="#3C3C3B"/>
<path d="M51.7404 100.343L49.3081 106.166L26.6847 96.712L29.1169 90.8887L51.7404 100.343Z" fill="#3C3C3B"/>
<path d="M56.1822 91.6362L52.7418 96.9237L32.191 83.5499L39.8755 71.7341C43.3159 66.4466 45.9103 65.6076 49.9006 68.2091L50.5492 68.6321C53.6301 70.6413 54.4267 72.432 53.2141 75.0687L53.4186 75.2027C55.3714 73.2287 56.5911 72.573 60.3769 75.0335L65.0158 78.0509L61.5613 83.3666L57.2185 80.5395C55.308 79.2987 54.4831 79.4186 52.777 82.0341L49.4001 87.2229L56.1822 91.6362ZM40.2421 81.2586L44.7894 84.2196L48.7233 78.1778C49.7808 76.5563 49.7103 75.6398 48.0888 74.5893L47.9125 74.4765C46.1218 73.3133 45.2124 73.6164 43.6614 75.9923L40.2351 81.2586H40.2421Z" fill="#3C3C3B"/>
<path d="M76.1962 67.4186L71.5926 71.7403L59.0295 58.3664L53.6503 63.4213L49.4344 58.9304L64.8387 44.4639L69.0546 48.9547L63.6331 54.0448L76.1962 67.4186Z" fill="#3C3C3B"/>
<path d="M95.6832 54.0379L90.156 57.147L85.0306 48.0525L69.986 40.3609L76.5425 36.6667L85.2351 41.4184L85.4113 41.3197L85.8484 31.4286L91.7775 28.0869L90.5296 44.9152L95.6761 54.0379H95.6832Z" fill="#3C3C3B"/>
<path d="M123.142 44.9786C117.156 46.0643 112.503 45.1972 110.79 39.663L117.396 38.4645C118.256 40.1212 119.878 40.1494 122.923 39.5995C126.364 38.9791 127.478 38.1331 127.21 36.4764L127.16 36.2014C126.928 34.9254 126.251 34.4389 124.192 34.7773L118.623 35.5387C112.877 36.2931 110.438 34.8478 109.592 30.1948L109.55 29.9551C108.541 24.4068 111.249 21.4951 118.517 20.1768L119.286 20.0358C125.208 18.9642 129.797 20.2332 131.489 25.6969L124.883 26.8954C124.094 25.147 122.543 24.858 119.666 25.3797C116.36 25.9789 115.507 26.7756 115.803 28.3971L115.824 28.5028C116.057 29.7789 116.705 30.2653 118.771 29.9974L124.305 29.2078C130.044 28.383 132.504 29.9692 133.322 34.4883L133.364 34.728C134.464 40.798 131.306 43.5052 124.129 44.8024L123.135 44.9857L123.142 44.9786Z" fill="#3C3C3B"/>
<path d="M148.226 43.6037C139.921 42.9269 136.918 39.5147 137.616 30.9278L137.75 29.2851C138.448 20.6912 141.966 17.7796 150.27 18.4564L151.885 18.5903C160.19 19.2671 163.221 22.7145 162.523 31.3085L162.389 32.9511C161.691 41.5451 158.145 44.4215 149.84 43.7447L148.226 43.6107V43.6037ZM149.847 37.9002C154.691 38.295 155.671 36.2646 156.009 32.1122L156.094 31.0617C156.439 26.867 155.798 24.7449 150.947 24.3501L150.285 24.2937C145.413 23.8989 144.468 25.8941 144.123 30.0818L144.038 31.1322C143.7 35.2917 144.306 37.449 149.185 37.8438L149.847 37.9002Z" fill="#3C3C3B"/>
<path d="M174.037 49.0823C166.352 46.2553 164.533 42.2227 167.501 34.1364L168.08 32.5572C171.048 24.4638 175.045 22.5744 182.729 25.4014L184.224 25.9513C191.041 28.4611 193.008 31.9086 191.598 38.1126L185.542 35.8848C185.669 34.7004 185.444 33.798 184.894 33.1071C184.344 32.4162 183.272 31.8028 181.672 31.2106L181.263 31.0626C176.807 29.4199 175.433 31.1542 173.995 35.074L173.635 36.061C172.197 39.9738 172.126 42.1874 176.575 43.8301L176.984 43.9781C178.584 44.5703 179.804 44.7889 180.664 44.6197C181.531 44.4505 182.285 43.9076 182.955 42.9206L189.011 45.1484C186.078 50.7884 182.342 52.142 175.524 49.6322L174.03 49.0823H174.037Z" fill="#3C3C3B"/>
<path d="M193.423 57.9858L188.291 54.3198L202.546 34.3613L207.678 38.0273L201.954 46.0432L202.116 46.163L215.871 43.8859L222.773 48.8138L208.806 50.9429L208.729 68.9274L201.919 64.07L201.968 52.0497L201.778 51.9158L197.245 52.6419L193.416 57.9999L193.423 57.9858Z" fill="#3C3C3B"/>
<path d="M222.314 85.3823L209.716 70.4645L228.462 54.6514L241.06 69.5691L236.83 73.1364L228.307 63.0409L225.311 65.5718L233.834 75.6674L229.576 79.2558L221.052 69.1602L218.028 71.7123L226.551 81.8079L222.321 85.3752L222.314 85.3823Z" fill="#3C3C3B"/>
<path d="M226.834 93.4193L224.049 87.7581L246.038 76.9082L252.263 89.5559C255.048 95.217 254.448 97.8749 250.176 99.9828L249.485 100.328C246.186 101.957 244.24 101.724 242.59 99.3413L242.372 99.447C243.07 102.133 243.013 103.522 238.96 105.524L233.996 107.97L231.191 102.281L235.844 99.9899C237.888 98.9817 238.205 98.2133 236.824 95.4003L234.088 89.8449L226.834 93.4263V93.4193ZM243.895 85.0016L239.023 87.3986L242.21 93.8634C243.063 95.6048 243.888 96.0066 245.615 95.1536L245.805 95.0619C247.723 94.1172 247.92 93.1796 246.672 90.6345L243.895 85.0016Z" fill="#3C3C3B"/>
<path d="M236.605 120.978C235.385 115.028 236.146 110.346 241.638 108.513L242.985 115.091C241.342 115.986 241.356 117.608 241.977 120.646C242.675 124.08 243.549 125.173 245.198 124.862L245.473 124.806C246.742 124.545 247.208 123.861 246.827 121.81L245.946 116.261C245.057 110.537 246.446 108.062 251.078 107.117L251.318 107.068C256.845 105.94 259.813 108.577 261.294 115.81L261.449 116.579C262.654 122.479 261.491 127.09 256.07 128.909L254.723 122.331C256.45 121.507 256.704 119.948 256.112 117.086C255.442 113.794 254.624 112.962 253.01 113.286L252.904 113.307C251.635 113.568 251.163 114.224 251.473 116.29L252.389 121.803C253.341 127.513 251.818 130.016 247.321 130.932L247.081 130.982C241.039 132.215 238.261 129.121 236.802 121.979L236.597 120.985L236.605 120.978Z" fill="#3C3C3B"/>
<path d="M229.956 185.669L238.346 185.605L240.87 177.604L243.528 185.563L251.917 185.492L245.17 190.477L247.828 198.436L241.004 193.565L234.257 198.549L236.781 190.547L229.956 185.669Z" fill="#3C3C3B"/>
<path d="M238.889 158.802L246.926 156.384L247.109 147.994L251.889 154.889L259.926 152.478L254.843 159.154L259.623 166.049L251.705 163.279L246.622 169.955L246.813 161.565L238.889 158.802Z" fill="#3C3C3B"/>
<path d="M53.4042 187.029L45.0147 187.086L42.371 179.119L39.833 187.114L31.4435 187.17L38.2608 192.056L35.7228 200.058L42.4767 195.08L49.2941 199.966L46.6503 192.007L53.4042 187.029Z" fill="#3C3C3B"/>
<path d="M44.0764 160.288L36.0112 157.99L35.701 149.607L31.0198 156.573L22.9546 154.275L28.1293 160.873L23.4481 167.839L31.33 164.955L36.5047 171.554L36.2015 163.172L44.0764 160.288Z" fill="#3C3C3B"/>
<path d="M122.515 96.959C121.542 102.93 119.131 109.79 115.352 116.6C108.069 129.734 97.9315 138.66 90.3668 139.393C93.0458 119.843 102.62 104.721 122.508 96.959H122.515Z" fill="#3C3C3B"/>
<path d="M109.916 77.3961L103.268 91.8345C92.6577 96.0081 87.0811 107.563 86.6158 107.944L80.3061 122.326L79.3755 124.441L78.4802 123.898L69.9074 118.695L63.5906 114.867L61.5884 113.647C70.7181 109.318 61.391 99.794 61.391 99.794C78.1418 101.712 70.0484 84.2699 70.0484 84.2699C87.4266 86.3637 85.1494 68.6471 85.1494 68.6471C97.3459 74.1813 101.844 64.4453 101.844 64.4453L104.932 69.3944L108.055 74.3999L109.923 77.3961H109.916Z" fill="#F3AE13"/>
<path d="M109.917 77.3956L109.338 77.1277L102.69 91.5661L103.268 91.834L103.036 91.2347C97.5791 93.385 93.4619 97.3964 90.6419 100.907C89.2319 102.663 88.1462 104.291 87.3848 105.511C87.0041 106.117 86.701 106.625 86.4895 106.977C86.3837 107.154 86.292 107.302 86.2357 107.393C86.2075 107.443 86.1793 107.478 86.1722 107.492L86.4542 107.725L86.2286 107.45C86.1722 107.499 86.1722 107.506 86.1722 107.506L86.4542 107.732L86.2286 107.457L86.1087 107.555L79.7356 122.078L79.1011 123.524L78.8261 123.362L70.2533 118.159L63.9365 114.33L61.9343 113.111L61.603 113.661L61.8779 114.239C63.302 113.562 64.3384 112.751 65.0434 111.828C65.7484 110.911 66.115 109.896 66.2137 108.881C66.3335 107.682 66.1079 106.491 65.7131 105.377C65.1209 103.713 64.1621 102.226 63.3514 101.133C62.5406 100.047 61.8709 99.3633 61.8568 99.3492L61.3985 99.8004L61.328 100.435C61.4408 100.449 61.5466 100.456 61.6523 100.47C63.5699 100.668 65.1844 100.611 66.545 100.343C68.5825 99.9485 70.0559 99.0531 71.0218 97.8617C71.9876 96.6702 72.4459 95.225 72.5939 93.7516C72.8266 91.4321 72.3331 89.014 71.7902 87.1598C71.2474 85.3057 70.6481 84.0226 70.6411 84.0014L70.063 84.2693L69.9854 84.9038C70.1476 84.925 70.3097 84.9391 70.4648 84.9602C73.4047 85.2563 75.8158 84.9955 77.7898 84.3257C80.7508 83.3246 82.6825 81.4 83.881 79.2709C85.0865 77.1347 85.5871 74.7941 85.7845 72.8554C86.0312 70.4231 85.7985 68.6042 85.7985 68.569L85.1641 68.6536L84.8962 69.2387C87.0746 70.2257 89.0274 70.7474 90.7758 70.9237C92.8556 71.1352 94.6392 70.8602 96.1338 70.3174C98.3757 69.5066 99.9479 68.1107 100.956 66.9264C101.964 65.742 102.422 64.755 102.437 64.7197L101.858 64.4518L101.316 64.7902L104.403 69.7393L107.52 74.7448L109.388 77.741L109.931 77.4026L110.474 77.0642L108.605 74.068L105.482 69.0625L101.767 63.1123L101.266 64.191C101.245 64.2403 100.484 65.8266 98.8199 67.2648C97.988 67.9839 96.9305 68.6747 95.6333 69.14C94.329 69.6053 92.771 69.845 90.9027 69.6547C89.3094 69.4925 87.4906 69.0131 85.4179 68.0755L84.3745 67.6031L84.5225 68.7452V68.7593C84.5437 68.9285 84.727 70.5923 84.5084 72.7355C84.3815 73.9552 84.1348 75.3299 83.6554 76.6765C82.9363 78.6998 81.7307 80.6456 79.7074 81.9922C77.677 83.3387 74.7935 84.1213 70.5917 83.6983C70.4437 83.6842 70.2886 83.663 70.1335 83.6489L68.9914 83.515L69.4778 84.5584V84.5725C69.5413 84.6994 70.1123 85.9684 70.6058 87.7097C71.1064 89.4511 71.5223 91.6648 71.3179 93.6458C71.2262 94.513 71.0288 95.3308 70.6763 96.0569C70.1405 97.1426 69.3016 98.0309 67.8986 98.6301C66.5027 99.2223 64.5217 99.4973 61.7792 99.2153C61.6735 99.2082 61.5748 99.1941 61.469 99.18L59.6783 98.9756L60.9403 100.266H60.9473C61.0601 100.393 62.1811 101.577 63.2033 103.213C63.718 104.03 64.1974 104.961 64.5287 105.913C64.8601 106.872 65.0222 107.844 64.9306 108.768C64.846 109.572 64.5781 110.333 64.0211 111.059C63.4642 111.785 62.6041 112.483 61.321 113.09L60.2494 113.597L63.2668 115.43L69.6259 119.287L78.1634 124.468L79.6792 125.385L80.8988 122.6L87.2085 108.218L86.6234 107.964L87.0253 108.458C87.0816 108.416 87.1028 108.38 87.131 108.352C87.1803 108.296 87.2085 108.253 87.2509 108.197C87.3848 108 87.5681 107.689 87.8219 107.266C88.7172 105.786 90.4797 102.924 93.1023 100.012C95.7249 97.0933 99.2076 94.1393 103.508 92.4473L103.748 92.3557L110.643 77.3674L110.459 77.0713L109.917 77.4097V77.3956Z" fill="#11100C"/>
<path d="M113.442 107.985C111.891 110.29 110.093 112.624 108.077 114.908C97.5158 126.865 84.9245 132.998 79.9613 128.613C78.4244 127.259 77.7969 125.06 77.9661 122.31C84.0926 122.289 93.5537 116.508 101.781 107.188C103.544 105.2 105.13 103.17 106.533 101.153C110.974 94.8012 113.59 88.5619 113.886 83.8948C115.627 83.8807 117.094 84.339 118.186 85.3048C122.212 88.858 120.005 98.2063 113.435 107.985H113.442Z" fill="#F3AE13"/>
<path d="M113.442 107.985C104.897 117.269 97.5299 119.377 97.5299 119.377L106.039 103.233L106.533 101.153C110.974 94.8012 113.59 88.5619 113.886 83.8948C115.627 83.8807 117.094 84.339 118.186 85.3048C122.212 88.858 120.005 98.2063 113.435 107.985H113.442Z" fill="#F3AE13"/>
<path d="M108.077 114.915L107.598 114.492C103.304 119.349 98.6794 123.234 94.4 125.814C92.2639 127.104 90.2123 128.07 88.3441 128.669C86.4758 129.269 84.7909 129.501 83.395 129.36C82.1683 129.233 81.1672 128.831 80.3917 128.141C79.722 127.548 79.2426 126.773 78.9465 125.807C78.6504 124.841 78.5376 123.678 78.6151 122.36L77.9736 122.317V122.959C79.6092 122.959 81.4139 122.571 83.3456 121.859C89.1266 119.73 96.0427 114.675 102.275 107.625C105.842 103.585 108.733 99.3977 110.812 95.4286C112.892 91.4594 114.168 87.723 114.492 84.5505C114.514 84.346 114.528 84.1486 114.542 83.9442L113.9 83.9019V84.5434C114.21 84.5434 114.507 84.5575 114.796 84.5857C116.015 84.7126 117.009 85.1145 117.778 85.7983C118.497 86.4328 118.99 87.2788 119.286 88.3434C119.576 89.4079 119.653 90.691 119.505 92.1433C119.209 95.0831 117.989 98.6998 115.959 102.556C113.936 106.42 111.101 110.53 107.598 114.499L108.077 114.922L108.556 115.345C112.124 111.305 115.007 107.117 117.087 103.155C119.167 99.1862 120.443 95.4497 120.767 92.2772C120.929 90.7051 120.852 89.2739 120.506 88.012C120.161 86.7501 119.54 85.6644 118.61 84.8466C117.609 83.9583 116.333 83.4648 114.908 83.3238C114.577 83.2885 114.232 83.2744 113.879 83.2744H113.28L113.245 83.8737C113.231 84.057 113.216 84.2403 113.195 84.4306C112.899 87.3705 111.68 90.9871 109.649 94.8434C107.626 98.7068 104.792 102.817 101.288 106.786C97.213 111.404 92.8279 115.14 88.7318 117.714C86.6803 119.004 84.7063 119.998 82.8803 120.668C81.0544 121.337 79.3836 121.683 77.9524 121.69H77.3532L77.3179 122.289C77.2263 123.72 77.3461 125.039 77.6986 126.195C78.0511 127.351 78.6574 128.352 79.5246 129.113C80.5327 130.002 81.8158 130.502 83.2469 130.643C84.8825 130.805 86.7296 130.538 88.7177 129.903C91.6999 128.944 95.0134 127.161 98.4044 124.693C101.795 122.226 105.271 119.067 108.549 115.359L108.07 114.936L108.077 114.915Z" fill="#3C3C3B"/>
<path d="M109.917 77.3959L103.268 91.8342C92.6582 96.0078 87.0816 107.563 86.6163 107.943L80.3066 122.325L79.5522 122.77L78.4877 123.898L69.9149 118.695L76.6054 117.962C76.6054 117.962 81.1315 111.186 81.6391 110.644C82.1467 110.101 82.9785 106.061 82.9785 106.061L84.8961 105.934L85.2134 107.041C85.4813 106.533 90.2541 95.4368 100.195 90.5512C100.195 90.5512 109.592 80.6741 108.062 74.3926L109.931 77.3888L109.917 77.3959Z" fill="#CE7314"/>
<path d="M109.916 77.3959L109.338 77.128L102.69 91.5664L103.268 91.8343L103.036 91.2351C97.5789 93.3853 93.4617 97.3968 90.6417 100.908C89.2317 102.663 88.146 104.292 87.3846 105.511C87.0039 106.118 86.7008 106.625 86.4893 106.978C86.3835 107.154 86.2919 107.302 86.2355 107.394C86.2073 107.443 86.1791 107.478 86.172 107.492L86.454 107.725L86.2284 107.45C86.172 107.499 86.172 107.506 86.172 107.506L86.454 107.732L86.2284 107.457L86.1086 107.556L79.82 121.888L79.1643 122.276L78.3888 123.094L71.8676 119.139L76.9789 118.582L77.148 118.335C77.148 118.335 77.43 117.912 77.8601 117.271C78.5087 116.305 79.4886 114.845 80.3628 113.576C80.7999 112.942 81.2018 112.357 81.519 111.906C81.6812 111.68 81.8151 111.49 81.9209 111.349C81.9773 111.278 82.0196 111.215 82.0548 111.172C82.0901 111.13 82.1183 111.095 82.1183 111.095C82.2029 111.003 82.2522 110.919 82.3016 110.834C82.3932 110.672 82.4708 110.496 82.5413 110.298C82.8021 109.6 83.063 108.599 83.2674 107.746C83.4719 106.9 83.6129 106.209 83.6129 106.209L82.9854 106.082L83.0277 106.724L84.4307 106.632L85.044 108.775L85.7843 107.358C85.8125 107.295 85.8477 107.231 85.8971 107.119C86.2778 106.308 87.6525 103.425 90.0707 100.189C92.4888 96.9526 95.9504 93.3712 100.476 91.1434L100.582 91.0941L100.66 91.0095C100.66 91.0095 102.535 89.0425 104.481 86.3001C105.454 84.9253 106.455 83.3602 107.252 81.7317C108.048 80.0961 108.654 78.4041 108.824 76.7614C108.908 75.9084 108.88 75.0694 108.683 74.2657L108.062 74.4209L107.519 74.7593L109.388 77.7555L109.93 77.4171L110.473 77.0787L106.497 70.6914L107.442 74.5689C107.597 75.2034 107.625 75.8943 107.555 76.6345C107.414 78.0586 106.864 79.6308 106.102 81.1747C104.967 83.4942 103.367 85.7431 102.056 87.4069C101.4 88.2388 100.815 88.9227 100.399 89.395C100.187 89.6347 100.018 89.818 99.9054 89.9449C99.849 90.0084 99.8067 90.0577 99.7715 90.0859L99.7292 90.1353L100.194 90.5794L99.9125 90.0013C94.8083 92.5111 91.0647 96.5931 88.562 100.09C87.3071 101.838 86.3624 103.453 85.7138 104.658C85.3895 105.265 85.1357 105.765 84.9594 106.132C84.8678 106.315 84.7973 106.463 84.7479 106.576C84.6986 106.682 84.6563 106.766 84.6563 106.766L85.2203 107.062L85.8336 106.886L85.3754 105.286L82.4567 105.476L82.358 105.955C82.358 105.955 82.3439 106.019 82.3227 106.125C82.2381 106.512 82.0266 107.485 81.7799 108.416C81.66 108.881 81.5261 109.332 81.4062 109.678C81.3428 109.854 81.2864 110.002 81.237 110.101C81.2159 110.15 81.1947 110.192 81.1806 110.214L81.1665 110.235L81.3146 110.355L81.1736 110.228H81.1665L81.3146 110.355L81.1736 110.228C81.1101 110.291 81.0608 110.362 80.9903 110.446C80.7435 110.764 80.3276 111.363 79.82 112.089C78.3113 114.274 76.0694 117.623 76.0694 117.623L76.5982 117.976L76.5277 117.341L67.9619 118.272L78.5933 124.723L79.9539 123.284L80.814 122.777L87.2084 108.204L86.6232 107.951L87.0251 108.444C87.0815 108.402 87.1026 108.367 87.1308 108.338C87.1802 108.282 87.2084 108.24 87.2507 108.183C87.3846 107.986 87.5679 107.676 87.8217 107.253C88.7171 105.772 90.4796 102.91 93.1022 99.9982C95.7248 97.0795 99.2075 94.1256 103.508 92.4336L103.748 92.3419L110.643 77.3536L110.459 77.0575L109.916 77.3959Z" fill="#11100C"/>
<path d="M63.3368 114.718C63.1605 114.626 62.9984 114.528 62.8433 114.443C62.1877 114.069 61.7647 113.773 61.6237 113.682L62.8504 114.422L63.3368 114.718Z" fill="#F1A700"/>
<path d="M63.3369 114.718L63.6401 114.154C63.4709 114.063 63.3088 113.971 63.1537 113.886L62.8434 114.443L63.1607 113.886C62.5262 113.52 62.1173 113.238 61.9904 113.153L61.6238 113.675L61.2925 114.225L62.5192 114.965L63.0056 115.261L63.3369 114.711L63.6683 114.161L63.1819 113.865L61.9551 113.125L61.2572 114.197C61.4053 114.302 61.8494 114.605 62.5262 114.993C62.6743 115.078 62.8435 115.169 63.0268 115.268L63.6613 114.161L63.3299 114.711L63.3369 114.718Z" fill="#3C3C3B"/>
<path d="M116.064 95.6477C114.908 98.4818 113.124 101.682 110.819 105.003C109.24 107.28 107.414 109.614 105.377 111.919C102.267 115.444 98.9399 118.426 95.7251 120.76C93.5396 122.346 91.4034 123.629 89.4365 124.574C87.2721 125.617 85.2981 126.252 83.6625 126.421C82.5416 126.541 81.5828 126.442 80.8285 126.118L80.7438 125.927L70.472 119.061L70.1689 118.828L64.4302 114.365C68.8787 116.777 80.3632 121.126 83.2466 103.805C83.2466 103.805 85.7211 104.129 88.7174 103.734C93.3704 103.114 99.2924 100.745 99.1866 92.7008C99.1655 90.6986 98.7636 88.3369 97.8753 85.5592C97.8753 85.5592 116.276 86.0668 103.297 64.6982L116.53 86.0245L116.896 86.6167C116.896 86.6167 117.002 86.7506 117.178 87.0044V87.0185C118.024 88.915 117.58 91.9747 116.071 95.6618L116.064 95.6477Z" fill="#F3AE13"/>
<path d="M101.217 95.8805L109.028 104.827L100.004 97.9038L100.068 94.4775L101.217 95.8805Z" fill="white"/>
<path d="M114.259 97.8825C114.915 98.4747 113.124 101.675 111.362 103.847L101.569 93.7018L99.391 87.1101L104.241 85.7354L114.259 97.8825Z" fill="white"/>
<path d="M105.376 111.919L104.897 111.496C100.78 116.163 96.2606 119.885 92.1716 122.36C90.1341 123.601 88.2024 124.524 86.4963 125.109C84.7902 125.694 83.3097 125.92 82.2029 125.807C81.7728 125.765 81.3992 125.673 81.089 125.532L80.8352 126.117L81.4203 125.85L81.3287 125.659L81.2511 125.497L70.8454 118.539L64.8247 113.858L64.4299 114.365L64.1267 114.929C65.7694 115.817 68.3285 116.967 71.1485 117.256C72.4104 117.383 73.7218 117.34 75.0189 117.002C76.9647 116.508 78.8612 115.345 80.4051 113.244C81.9561 111.15 83.1687 108.133 83.8737 103.903L83.2392 103.797L83.1546 104.432C83.1546 104.432 83.2392 104.446 83.3802 104.46C84.0711 104.53 86.2355 104.7 88.7876 104.368C91.0083 104.072 93.5322 103.395 95.6402 101.873C96.6906 101.111 97.6283 100.138 98.3474 98.9116C99.0665 97.6849 99.56 96.2044 99.7362 94.4419C99.7926 93.8849 99.8208 93.2998 99.8067 92.6864C99.7856 90.5996 99.3696 88.1815 98.4602 85.3615L97.8539 85.5589L97.8327 86.2005C97.875 86.2005 100.251 86.271 102.789 85.3545C104.058 84.8962 105.376 84.1842 106.441 83.0632C107.505 81.9423 108.295 80.4124 108.499 78.4102C108.669 76.7676 108.45 74.8218 107.717 72.5094C106.984 70.197 105.736 67.5039 103.825 64.3596L102.732 65.0293L115.965 86.3556L116.346 86.976L116.367 87.0042C116.367 87.0042 116.48 87.1522 116.628 87.3637L117.15 86.9971L116.586 87.3003V87.3144L117.157 87.0112L116.572 87.2721C116.896 87.9982 117.016 88.9993 116.889 90.233C116.642 92.7076 115.408 96.0563 113.343 99.7505C111.284 103.452 108.401 107.513 104.876 111.503L105.355 111.926L105.834 112.349C109.409 108.295 112.349 104.164 114.457 100.371C116.572 96.578 117.869 93.1235 118.158 90.3599C118.299 88.9852 118.186 87.7585 117.735 86.7504V86.7292L117.707 86.694L117.685 86.6587L117.664 86.6235C117.481 86.3626 117.368 86.2216 117.361 86.2146L116.861 86.6094L117.403 86.271L117.037 85.6788L103.804 64.3525L102.711 65.0223C104.58 68.1031 105.785 70.7046 106.476 72.8901C107.167 75.0826 107.35 76.8522 107.209 78.2763C107.026 80.0106 106.377 81.2443 105.496 82.1749C104.178 83.5708 102.267 84.2758 100.674 84.6072C99.8772 84.7764 99.1652 84.8469 98.6576 84.8821C98.4038 84.8962 98.1993 84.9033 98.0583 84.9103C97.9878 84.9103 97.9385 84.9103 97.9032 84.9103H97.868H97.8609L96.9585 84.8821L97.2335 85.7422C98.1077 88.4706 98.4954 90.7688 98.5166 92.6935C98.5236 93.2645 98.5025 93.8003 98.4461 94.3079C98.2839 95.9012 97.8468 97.1984 97.2264 98.2559C96.2958 99.8492 94.9422 100.942 93.4053 101.703C91.8755 102.465 90.1694 102.881 88.6043 103.085C86.2002 103.402 84.1205 103.24 83.493 103.177C83.4296 103.177 83.3802 103.163 83.345 103.163H83.3097H83.3027L82.6893 103.085L82.5906 103.699C82.1394 106.427 81.4697 108.591 80.6589 110.283C79.4463 112.828 77.9376 114.309 76.3232 115.141C74.7087 115.973 72.9674 116.156 71.2543 115.987C68.7022 115.726 66.2629 114.647 64.7119 113.808L64.0139 114.873L70.0699 119.582L80.2148 126.364L80.2289 126.392L80.3346 126.618L80.5602 126.717C81.0185 126.914 81.519 127.034 82.0548 127.09C83.4437 127.231 85.0722 126.949 86.8911 126.329C89.6195 125.398 92.7708 123.692 96.035 121.323C99.2991 118.955 102.683 115.93 105.834 112.356L105.355 111.933L105.376 111.919Z" fill="#3C3C3B"/>
<path d="M101.005 88.0543C102.303 93.8353 101.217 97.9102 99.0949 100.78C94.3432 107.209 84.3957 107.611 84.3957 107.611C80.49 118.348 74.7161 119.533 70.3733 118.983L63.3585 114.732C67.8071 117.143 79.2915 121.492 82.1749 104.171C82.1749 104.171 82.4358 104.206 82.9011 104.241C86.5812 104.502 102.796 104.65 96.7966 85.9252C96.7966 85.9252 97.4946 85.8477 98.5309 85.5869C102.169 84.6774 109.959 81.4979 105.912 71.4587C105.087 69.4212 103.783 67.0947 101.844 64.451L102.747 64.0068L106.476 70.1121L109.367 74.8356C110.283 86.3342 101.013 88.0543 101.013 88.0543H101.005Z" fill="#CE7314"/>
<path d="M101.005 88.0555C102.302 93.8365 101.217 97.9114 99.0945 100.781C96.3379 102.818 92.7565 104.983 88.5759 105.462C85.1002 105.857 82.7596 104.658 82.7596 104.658L82.8936 104.235C85.4457 104.419 94.0396 104.545 97.057 98.3414C98.3895 95.6131 98.6292 91.6439 96.7891 85.9194C96.7891 85.9194 97.4871 85.8418 98.5234 85.581C101.731 84.7773 108.168 82.2111 106.871 74.7381C106.701 73.737 106.384 72.6442 105.905 71.4598C106.102 70.9734 106.285 70.5222 106.469 70.1133L109.359 74.8368C110.276 86.3353 101.005 88.0555 101.005 88.0555Z" fill="#F3AE13"/>
<path d="M101.006 88.0558L100.378 88.1968C100.907 90.5445 101.027 92.5819 100.844 94.3585C100.533 97.3618 99.3772 99.6108 97.798 101.352C95.4292 103.954 92.0734 105.378 89.2957 106.132C87.9069 106.506 86.6661 106.717 85.7778 106.837C85.3336 106.893 84.9741 106.929 84.7344 106.95C84.6145 106.957 84.5158 106.964 84.4594 106.971H84.3889H84.3678L83.9377 106.985L83.7897 107.387C81.9214 112.526 79.6513 115.36 77.3883 116.862C76.2603 117.616 75.1252 118.046 74.0113 118.265C72.8975 118.484 71.8118 118.491 70.7825 118.385C70.6697 118.371 70.5569 118.357 70.4441 118.343L70.3665 118.977L70.6979 118.427L63.6831 114.176L63.3518 114.726L63.0486 115.29C64.6913 116.178 67.2504 117.327 70.0704 117.616C71.3324 117.743 72.6436 117.701 73.9408 117.363C75.8866 116.869 77.7831 115.706 79.327 113.605C80.878 111.511 82.0906 108.494 82.7956 104.264L82.1611 104.158L82.0765 104.793C82.0765 104.793 82.1611 104.807 82.3092 104.821C83.268 104.912 86.9692 105.201 90.6634 104.102C92.5105 103.545 94.3647 102.635 95.8381 101.141C97.3116 99.646 98.3832 97.5663 98.6652 94.8027C98.9119 92.3563 98.5594 89.3742 97.3891 85.7223L96.7828 85.9197L96.8533 86.5542C96.8956 86.5542 99.3138 86.2863 101.88 85.0596C103.163 84.4462 104.488 83.5861 105.56 82.3735C106.625 81.1609 107.428 79.5888 107.626 77.6218C107.795 75.951 107.541 74.0193 106.709 71.7774C105.877 69.5355 104.481 66.9905 102.345 64.0647L101.831 64.4454L102.113 65.0165L102.493 64.8332L108.81 75.1614L109.353 74.8301L108.711 74.8794C108.803 76.0286 108.789 77.072 108.69 78.0096C108.479 80.0682 107.879 81.6615 107.111 82.9164C105.955 84.7987 104.39 85.9267 103.107 86.5824C102.465 86.9137 101.901 87.1252 101.492 87.2451C101.288 87.3085 101.133 87.3508 101.02 87.379C100.963 87.3931 100.928 87.4002 100.9 87.4072H100.872L100.216 87.5271L100.364 88.1757L100.992 88.0347L101.111 88.6621C101.168 88.648 103.114 88.2885 105.208 86.7868C106.251 86.0325 107.33 84.9961 108.204 83.5791C109.078 82.162 109.741 80.3643 109.966 78.1294C110.072 77.1001 110.086 75.9863 109.987 74.7666L109.973 74.6115L102.973 63.1553L100.865 64.1916L101.316 64.805C103.396 67.6532 104.735 70.1066 105.511 72.2004C106.286 74.3013 106.498 76.0356 106.35 77.4738C106.173 79.1658 105.511 80.463 104.594 81.5064C103.227 83.0715 101.252 84.0303 99.6099 84.5731C98.7921 84.8481 98.0589 85.0173 97.5372 85.123C97.2763 85.1724 97.0648 85.2076 96.9238 85.2288C96.8533 85.2429 96.7969 85.2499 96.7617 85.2499H96.7194H96.7123L95.9368 85.3345L96.1765 86.0818C97.3116 89.6139 97.6218 92.4198 97.3962 94.6405C97.1353 97.1503 96.2118 98.9128 94.9357 100.21C93.0252 102.156 90.2545 103.037 87.7588 103.397C85.2702 103.756 83.0917 103.587 82.4431 103.516C82.3726 103.516 82.3233 103.502 82.2951 103.502H82.2598H82.2528L81.6394 103.425L81.5407 104.038C81.0895 106.767 80.4198 108.931 79.609 110.623C78.3964 113.168 76.8877 114.648 75.2733 115.48C73.6588 116.312 71.9175 116.495 70.2044 116.326C67.6523 116.065 65.213 114.987 63.662 114.148L63.0275 115.255L70.155 119.576L70.289 119.597C70.4088 119.612 70.5357 119.626 70.6626 119.64C71.7836 119.753 73.0032 119.753 74.2651 119.499C76.1616 119.132 78.1426 118.195 79.9827 116.354C81.8298 114.514 83.5429 111.786 84.9952 107.803L84.396 107.584L84.4242 108.226C84.4665 108.226 88.4779 108.064 92.715 106.287C94.83 105.399 97.0084 104.102 98.7568 102.184C100.505 100.273 101.802 97.7284 102.134 94.4572C102.331 92.5255 102.197 90.3471 101.64 87.8866L101.013 88.0276L101.006 88.0558Z" fill="#3C3C3B"/>
<path d="M82.8519 102.875C82.718 104.165 81.5688 105.103 80.2787 104.976C78.9885 104.842 78.0509 103.693 78.1778 102.402C78.3117 101.112 79.4609 100.175 80.751 100.309C82.0412 100.443 82.9788 101.592 82.8449 102.882L82.8519 102.875Z" fill="white"/>
<path d="M82.8514 102.874L82.2169 102.811C82.1675 103.283 81.9349 103.685 81.5965 103.96C81.2581 104.235 80.8139 104.383 80.3416 104.334C79.8692 104.284 79.4674 104.052 79.1924 103.713C78.9175 103.375 78.7694 102.931 78.8188 102.458C78.8681 101.986 79.1008 101.584 79.4392 101.309C79.7776 101.034 80.2217 100.886 80.6941 100.936C81.1664 100.985 81.5683 101.218 81.8432 101.556C82.1182 101.894 82.2662 102.338 82.2169 102.811L82.8514 102.874L83.4859 102.938C83.6551 101.295 82.4566 99.8287 80.8139 99.6595C79.1713 99.4903 77.7049 100.689 77.5357 102.331C77.3665 103.974 78.565 105.44 80.2076 105.61C81.8503 105.779 83.3167 104.58 83.4859 102.938L82.8514 102.874Z" fill="#11100C"/>
<path d="M67.2783 102.648C71.6705 112.447 64.8672 114.562 63.5841 114.865L62.301 114.09L61.5819 113.653C70.7117 109.324 61.3845 99.7994 61.3845 99.7994C70.7117 100.871 72.3332 95.936 71.9454 91.3535C71.6916 88.3784 70.5848 85.5443 70.19 84.5996L70.5918 84.8957C70.5918 84.8957 74.286 89.2879 74.279 95.6751C72.5658 100.934 67.2854 102.648 67.2854 102.648H67.2783Z" fill="#F3AE13"/>
<path d="M65.0223 101.633C65.0223 101.633 71.1911 111.271 62.3222 114.084H62.301L61.5819 113.654C70.7117 109.325 61.3845 99.8004 61.3845 99.8004C70.7117 100.872 72.3332 95.937 71.9454 91.3545L72.3473 91.5166C72.3473 91.5166 73.9194 99.9696 65.0223 101.64V101.633Z" fill="#FFF6EF"/>
<path d="M103.339 66.8555L102.718 66.6863C102.288 68.2796 101.548 69.4499 100.618 70.3453C99.2287 71.6777 97.3887 72.3757 95.5134 72.7C93.6381 73.0243 91.7487 72.9608 90.3387 72.8198C89.6337 72.7493 89.0556 72.6577 88.6467 72.5801C88.4423 72.5449 88.2872 72.5096 88.1814 72.4885C88.125 72.4744 88.0898 72.4673 88.0616 72.4603H88.0334L88.0263 72.4532L87.2297 72.2629V73.0807C87.2438 73.8703 87.2085 74.6035 87.138 75.3014C86.8349 78.2906 85.8549 80.4408 84.5789 82.0341C83.6201 83.2256 82.485 84.0998 81.3077 84.7484C79.5452 85.7213 77.6981 86.1725 76.2881 86.3699C75.5831 86.4686 74.9909 86.5109 74.582 86.525C74.3775 86.525 74.2154 86.532 74.1096 86.525C74.0532 86.525 74.018 86.525 73.9898 86.525H73.9616L73.038 86.4827L73.3271 87.3639C74.0955 89.7186 74.2788 91.6997 74.1096 93.3705C73.9404 95.0273 73.4187 96.3879 72.7349 97.5018C71.7056 99.1797 70.2885 100.322 69.1253 101.041C68.5472 101.4 68.0255 101.654 67.6589 101.816C67.4756 101.894 67.3276 101.957 67.2289 101.993C67.1795 102.014 67.1442 102.028 67.116 102.035H67.0879V102.042L67.1231 102.141L67.0949 102.042L67.1302 102.141L67.102 102.042L66.4252 102.261L66.7142 102.909C67.9268 105.609 68.237 107.654 68.0819 109.184C67.9832 110.157 67.7012 110.925 67.3205 111.559C66.7494 112.504 65.9528 113.139 65.2055 113.555C64.4582 113.971 63.7673 114.175 63.4642 114.246L63.6122 114.866L63.9436 114.316L61.9414 113.096L61.61 113.646L61.885 114.224C63.3091 113.548 64.3454 112.737 65.0504 111.813C65.7554 110.897 66.122 109.882 66.2207 108.866C66.3406 107.668 66.115 106.476 65.7202 105.363C65.128 103.699 64.1692 102.211 63.3584 101.118C62.5477 100.033 61.8779 99.3489 61.8638 99.3348L61.4056 99.786L61.3351 100.421C61.4479 100.435 61.5536 100.442 61.6594 100.456C63.577 100.653 65.1914 100.597 66.5521 100.329C68.5895 99.9341 70.0629 99.0387 71.0288 97.8473C71.9946 96.6558 72.4529 95.2106 72.6009 93.7371C72.8336 91.4177 72.3401 88.9995 71.7972 87.1454C71.2544 85.2912 70.6551 84.0081 70.6481 83.987L70.07 84.2549L69.9924 84.8894C70.1546 84.9105 70.3167 84.9246 70.4718 84.9458C73.4117 85.2419 75.8228 84.981 77.7968 84.3113C80.7578 83.3102 82.6895 81.3855 83.888 79.2564C85.0935 77.1203 85.5941 74.7797 85.7915 72.841C86.0382 70.4087 85.8056 68.5898 85.8056 68.5546L85.1711 68.6392L84.9032 69.2243C87.0816 70.2113 89.0345 70.733 90.7829 70.9093C92.8626 71.1208 94.6463 70.8458 96.1409 70.303C98.3827 69.4922 99.9549 68.0963 100.963 66.9119C101.971 65.7275 102.429 64.7405 102.444 64.7053L101.865 64.4374L101.323 64.7758L102.824 67.1798L103.367 66.8414L103.91 66.503L101.788 63.0908L101.287 64.1695C101.266 64.2188 100.505 65.8051 98.841 67.2433C98.0091 67.9624 96.9516 68.6533 95.6544 69.1186C94.3502 69.5839 92.7921 69.8236 90.9239 69.6332C89.3306 69.4711 87.5117 68.9917 85.439 68.054L84.3956 67.5817L84.5436 68.7238V68.7379C84.5648 68.9071 84.7481 70.5709 84.5295 72.7141C84.4026 73.9337 84.1559 75.3085 83.6765 76.655C82.9574 78.6783 81.7518 80.6241 79.7285 81.9707C77.6981 83.3172 74.8146 84.0998 70.6128 83.6768C70.4648 83.6627 70.3097 83.6415 70.1546 83.6274L69.0125 83.4935L69.4989 84.5369V84.551C69.5624 84.6779 70.1334 85.9469 70.6269 87.6882C71.1275 89.4296 71.5434 91.6433 71.339 93.6243C71.2473 94.4915 71.0499 95.3093 70.6974 96.0354C70.1616 97.1211 69.3227 98.0094 67.9197 98.6087C66.5238 99.2009 64.5428 99.4758 61.8004 99.1938C61.6946 99.1868 61.5959 99.1727 61.4902 99.1586L59.6995 98.9541L60.9614 100.244H60.9685C61.0813 100.371 62.2022 101.556 63.2245 103.191C63.7391 104.009 64.2185 104.94 64.5499 105.891C64.8812 106.85 65.0434 107.823 64.9517 108.747C64.8671 109.55 64.5992 110.312 64.0423 111.038C63.4853 111.764 62.6252 112.462 61.3421 113.068L60.2705 113.576L63.5135 115.543L63.7673 115.479C64.282 115.352 65.5298 114.993 66.7424 114.069C67.3487 113.604 67.948 112.998 68.4203 112.208C68.8926 111.418 69.2451 110.453 69.3579 109.303C69.5412 107.485 69.1605 105.215 67.8916 102.373L67.3064 102.634L67.5038 103.241C67.5461 103.226 69.3015 102.655 71.1698 101.161C72.1004 100.413 73.0662 99.4265 73.8488 98.1575C74.6313 96.8885 75.2165 95.3375 75.4068 93.4833C75.5972 91.6151 75.3786 89.4437 74.5679 86.948L73.9616 87.1454L73.9334 87.7869C73.9898 87.7869 77.2116 87.942 80.6661 86.4756C82.3934 85.7424 84.177 84.6003 85.6152 82.8096C87.0534 81.026 88.125 78.6078 88.4493 75.4072C88.5269 74.6669 88.5621 73.8773 88.5551 73.0454H87.9135L87.7655 73.6729C87.7866 73.6729 88.7666 73.9126 90.2471 74.0606C92.2281 74.258 95.1116 74.3215 97.8046 73.4261C99.1512 72.9749 100.455 72.284 101.541 71.2406C102.634 70.1972 103.501 68.7943 103.987 66.9965L104.058 66.7286L103.91 66.4889L103.367 66.8273L103.339 66.8555Z" fill="#3C3C3B"/>
<path d="M61.3984 112.984C61.2785 114.154 60.2351 115.007 59.0578 114.887C57.8875 114.767 57.0344 113.724 57.1543 112.547C57.2741 111.376 58.3175 110.516 59.4949 110.636C60.6652 110.756 61.5182 111.806 61.3984 112.977V112.984Z" fill="white"/>
<path d="M61.3982 112.984L60.7637 112.92C60.6791 113.738 59.9459 114.338 59.1281 114.253C58.7192 114.211 58.3667 114.006 58.1199 113.71C57.8802 113.414 57.7533 113.026 57.7886 112.617C57.8309 112.201 58.0353 111.856 58.3314 111.609C58.6275 111.369 59.0153 111.236 59.4242 111.278C60.242 111.362 60.8412 112.096 60.7566 112.913L61.3911 112.977L62.0256 113.04C62.1807 111.518 61.0739 110.157 59.544 110.002C58.0212 109.847 56.6606 110.954 56.5055 112.483C56.3504 114.006 57.4572 115.367 58.9871 115.522C60.5099 115.677 61.8705 114.57 62.0256 113.04L61.3911 112.977L61.3982 112.984Z" fill="#3C3C3B"/>
<path d="M60.6997 98.7571C60.5799 99.9274 59.5365 100.78 58.3591 100.661C57.1818 100.541 56.3358 99.4974 56.4556 98.32C56.5755 97.1497 57.6259 96.2967 58.7962 96.4165C59.9665 96.5364 60.8196 97.5798 60.6997 98.7571Z" fill="white"/>
<path d="M60.7006 98.7574L60.0661 98.6939C59.9815 99.5117 59.2483 100.111 58.4305 100.026C58.0146 99.9841 57.6691 99.7796 57.4224 99.4835C57.1827 99.1874 57.0488 98.7997 57.0911 98.3908C57.1334 97.9819 57.3378 97.6294 57.6339 97.3826C57.93 97.1429 58.3178 97.009 58.7266 97.0513C59.5444 97.1359 60.1437 97.8691 60.0591 98.6869L60.6936 98.7503L61.3281 98.8138C61.4832 97.291 60.3763 95.9303 58.8465 95.7752C57.3237 95.6201 55.9631 96.727 55.808 98.2568C55.6529 99.7796 56.7597 101.14 58.2895 101.295C59.8123 101.45 61.173 100.344 61.3281 98.8138L60.6936 98.7503L60.7006 98.7574Z" fill="#3C3C3B"/>
<path d="M70.3595 82.584C70.2396 83.7543 69.1962 84.6074 68.0189 84.4946C66.8486 84.3747 65.9955 83.3243 66.1154 82.154C66.2352 80.9837 67.2786 80.1306 68.456 80.2505C69.6263 80.3703 70.4793 81.4137 70.3595 82.5911V82.584Z" fill="white"/>
<path d="M70.3595 82.5841L69.725 82.5207C69.6827 82.9366 69.4783 83.2821 69.1822 83.5288C68.8861 83.7756 68.4983 83.9025 68.0894 83.8602C67.2716 83.7756 66.6724 83.0424 66.757 82.2246C66.8416 81.4068 67.5748 80.8075 68.3926 80.8921C68.8015 80.9344 69.154 81.1389 69.4007 81.435C69.6404 81.7311 69.7673 82.1188 69.7321 82.5277L70.3666 82.5912L71.0011 82.6546C71.1562 81.1318 70.0493 79.7712 68.5195 79.6161C66.9967 79.461 65.636 80.5678 65.4809 82.0906C65.3258 83.6134 66.4327 84.9741 67.9625 85.1292C69.4853 85.2843 70.846 84.1774 71.0011 82.6476L70.3666 82.5841H70.3595Z" fill="#3C3C3B"/>
<path d="M86.6235 67.5108C86.5036 68.6811 85.4532 69.5341 84.2829 69.4213C83.1126 69.3015 82.2595 68.2581 82.3723 67.0807C82.4922 65.9104 83.5356 65.0574 84.7129 65.1772C85.8832 65.2971 86.7363 66.3475 86.6164 67.5178L86.6235 67.5108Z" fill="white"/>
<path d="M86.6229 67.5113L85.9884 67.4478C85.9038 68.2656 85.1706 68.8649 84.3528 68.7803C83.9368 68.738 83.5914 68.5335 83.3446 68.2374C83.1049 67.9413 82.978 67.5536 83.0133 67.1447C83.0556 66.7358 83.26 66.3833 83.5561 66.1365C83.8522 65.8968 84.24 65.7629 84.6489 65.8052C85.4667 65.8898 86.0659 66.623 85.9813 67.4408L86.6158 67.5042L87.2503 67.5677C87.4054 66.0449 86.2986 64.6842 84.7687 64.5291C83.2459 64.374 81.8853 65.4809 81.7302 67.0107C81.5751 68.5335 82.6819 69.8942 84.2118 70.0493C85.7346 70.2044 87.0952 69.0975 87.2503 67.5677L86.6158 67.5042L86.6229 67.5113Z" fill="#3C3C3B"/>
<path d="M104.34 63.4505C104.221 64.6208 103.177 65.4738 102 65.354C100.83 65.2341 99.9765 64.1907 100.096 63.0134C100.216 61.8431 101.26 60.99 102.437 61.1099C103.607 61.2297 104.46 62.2731 104.34 63.4505Z" fill="white"/>
<path d="M104.34 63.4503L103.706 63.3869C103.663 63.8028 103.459 64.1483 103.163 64.395C102.867 64.6347 102.479 64.7616 102.07 64.7264C101.654 64.6841 101.309 64.4796 101.062 64.1835C100.822 63.8874 100.695 63.4997 100.731 63.0908C100.815 62.273 101.548 61.6737 102.366 61.7583C103.184 61.8429 103.783 62.5761 103.699 63.3939L104.333 63.4574L104.968 63.5208C105.123 61.998 104.016 60.6374 102.486 60.4823C100.963 60.3272 99.6026 61.434 99.4475 62.9639C99.2924 64.4867 100.399 65.8473 101.929 66.0024C103.452 66.1575 104.813 65.0507 104.968 63.5208L104.333 63.4574L104.34 63.4503Z" fill="#3C3C3B"/>
<path d="M62.8507 114.423L63.3371 114.719C63.1609 114.627 62.9987 114.529 62.8436 114.444V114.423H62.8507Z" fill="#F1A700"/>
<path d="M62.8505 114.422L62.5191 114.972L63.0056 115.268L63.3369 114.718L63.6401 114.154C63.4709 114.062 63.3087 113.971 63.1536 113.886L62.8434 114.443L63.4568 114.626V114.605L62.8505 114.422L62.2371 114.239V114.26L62.082 114.753L62.5332 115.007C62.6813 115.092 62.8505 115.183 63.0338 115.282L63.6683 114.175L62.4768 113.456L62.2371 114.246L62.8505 114.429V114.422Z" fill="#3C3C3B"/>
<path d="M89.2246 118.243C89.1894 118.61 88.858 118.878 88.4914 118.842C88.1248 118.807 87.8569 118.476 87.8922 118.109C87.9274 117.743 88.2588 117.475 88.6254 117.51C88.992 117.545 89.2599 117.877 89.2246 118.243Z" fill="#F1A700"/>
<path d="M96.4374 112.441C96.4021 112.808 96.0708 113.076 95.7042 113.041C95.3376 113.005 95.0697 112.674 95.1049 112.307C95.1402 111.941 95.4715 111.673 95.8381 111.708C96.2047 111.743 96.4726 112.075 96.4374 112.441Z" fill="#F1A700"/>
<path d="M107.11 99.8847C107.075 100.251 106.744 100.519 106.377 100.484C106.01 100.449 105.743 100.117 105.778 99.7508C105.813 99.3842 106.144 99.1163 106.511 99.1516C106.878 99.1868 107.145 99.5181 107.11 99.8847Z" fill="#F1A700"/>
<path d="M113.491 84.7275C113.455 85.0941 113.124 85.362 112.757 85.3268C112.391 85.2915 112.123 84.9602 112.158 84.5936C112.193 84.227 112.525 83.9591 112.891 83.9943C113.258 84.0296 113.526 84.3609 113.491 84.7275Z" fill="#F1A700"/>
<path d="M97.7273 85.0584C97.5933 86.3486 96.4442 87.2862 95.154 87.1593C93.8639 87.0254 92.9262 85.8762 93.0531 84.5861C93.1871 83.2959 94.3362 82.3583 95.6264 82.4922C96.9165 82.6262 97.8542 83.7753 97.7202 85.0655L97.7273 85.0584Z" fill="white"/>
<path d="M97.7266 85.0579L97.0921 84.9944C97.0428 85.4668 96.8101 85.8686 96.4717 86.1436C96.1333 86.4185 95.6892 86.5666 95.2168 86.5172C94.7445 86.4679 94.3426 86.2352 94.0677 85.8968C93.7927 85.5584 93.6447 85.1143 93.694 84.6419C93.7434 84.1696 93.976 83.7677 94.3144 83.4928C94.6528 83.2178 95.097 83.0698 95.5693 83.1191C96.0417 83.1685 96.4435 83.4011 96.7185 83.7395C96.9934 84.0779 97.1415 84.5221 97.0921 84.9944L97.7266 85.0579L98.3611 85.1213C98.5303 83.4787 97.3318 82.0123 95.6892 81.8431C94.0465 81.6739 92.5801 82.8724 92.4109 84.515C92.2417 86.1577 93.4402 87.6241 95.0829 87.7933C96.7255 87.9625 98.1919 86.764 98.3611 85.1213L97.7266 85.0579Z" fill="#11100C"/>
<path d="M36.1241 106.47C44.5489 108.26 47.0093 111.863 45.268 120.013L42.7934 131.645L18.8164 126.541L21.2698 115.021C23.0041 106.872 26.7688 104.475 35.2006 106.272L36.1241 106.47ZM25.7818 121.578L38.4577 124.278L39.4376 119.667C40.4669 114.831 38.6903 113.59 34.5097 112.702L34.136 112.624C29.9554 111.736 27.7981 112.131 26.7688 116.974L25.7888 121.585L25.7818 121.578Z" fill="#3C3C3B"/>
<path d="M51.7331 100.421L49.308 106.244L26.6775 96.8184L29.1027 90.9951L51.7331 100.421Z" fill="#3C3C3B"/>
<path d="M56.1748 91.6933L52.7344 96.9808L32.1766 83.6211L39.8541 71.8053C43.2945 66.5178 45.8818 65.6788 49.8792 68.2732L50.5278 68.6962C53.6086 70.6984 54.4052 72.4962 53.1997 75.1258L53.4042 75.2598C55.357 73.2858 56.5766 72.6301 60.3625 75.0906L65.0014 78.108L61.5469 83.4237L57.197 80.5966C55.2865 79.3558 54.4617 79.4757 52.7556 82.0912L49.3786 87.2871L56.1607 91.6933H56.1748ZM40.2277 81.3298L44.782 84.2908L48.7089 78.249C49.7664 76.6204 49.6888 75.711 48.0744 74.6605L47.8981 74.5477C46.1074 73.3845 45.198 73.6876 43.654 76.0705L40.2348 81.3369L40.2277 81.3298Z" fill="#3C3C3B"/>
<path d="M76.1679 67.4618L71.5713 71.7835L59.0011 58.4096L53.622 63.4645L49.399 58.9736L64.7892 44.5L69.0121 48.9908L63.5907 54.088L76.1608 67.4618H76.1679Z" fill="#3C3C3B"/>
<path d="M95.654 54.0602L90.1339 57.1763L85.0015 48.0888L69.9639 40.4114L76.5133 36.7101L85.2059 41.4548L85.3822 41.3561L85.8122 31.4579L91.7342 28.1162L90.4934 44.9445L95.6399 54.0602H95.654Z" fill="#3C3C3B"/>
<path d="M123.114 45.0083C117.136 46.094 112.476 45.2269 110.77 39.6997L117.376 38.5012C118.236 40.158 119.857 40.1862 122.903 39.6363C126.35 39.0088 127.457 38.1699 127.189 36.5131L127.14 36.2382C126.907 34.9621 126.23 34.4827 124.179 34.8211L118.609 35.5825C112.864 36.3369 110.424 34.8987 109.585 30.2457L109.543 30.006C108.535 24.4576 111.242 21.546 118.503 20.2276L119.272 20.0866C125.194 19.015 129.776 20.284 131.475 25.7407L124.87 26.9392C124.08 25.1979 122.529 24.9088 119.653 25.4305C116.346 26.0298 115.493 26.8264 115.789 28.4479L115.81 28.5537C116.043 29.8297 116.692 30.3162 118.757 30.0483L124.292 29.2587C130.023 28.4338 132.484 30.013 133.308 34.525L133.351 34.7647C134.451 40.8277 131.292 43.5349 124.122 44.8391L123.128 45.0224L123.114 45.0083Z" fill="#3C3C3B"/>
<path d="M148.198 43.6257C139.886 42.9489 136.882 39.5438 137.58 30.9569L137.714 29.3142C138.412 20.7273 141.93 17.8157 150.242 18.4925L151.857 18.6264C160.168 19.3032 163.193 22.7436 162.495 31.3305L162.361 32.9732C161.663 41.5601 158.117 44.4365 149.805 43.7597L148.191 43.6257H148.198ZM149.826 37.9223C154.677 38.3171 155.649 36.2867 155.988 32.1342L156.072 31.0838C156.411 26.8961 155.776 24.767 150.926 24.3792L150.263 24.3228C145.385 23.928 144.44 25.9232 144.102 30.1109L144.017 31.1613C143.679 35.3138 144.285 37.4711 149.163 37.8659L149.826 37.9223Z" fill="#3C3C3B"/>
<path d="M173.994 49.0832C166.303 46.2632 164.484 42.2377 167.445 34.1514L168.023 32.5722C170.984 24.4858 174.981 22.5894 182.666 25.4094L184.16 25.9593C190.978 28.462 192.952 31.9024 191.549 38.0993L185.493 35.8786C185.62 34.6942 185.394 33.7918 184.844 33.108C184.294 32.4241 183.223 31.8037 181.622 31.2186L181.213 31.0705C176.758 29.4349 175.383 31.1692 173.945 35.082L173.585 36.069C172.154 39.9817 172.084 42.1954 176.539 43.8239L176.948 43.972C178.548 44.5571 179.768 44.7827 180.628 44.6135C181.488 44.4443 182.243 43.9015 182.912 42.9145L188.968 45.1352C186.036 50.7752 182.306 52.1288 175.489 49.6261L173.994 49.0762V49.0832Z" fill="#3C3C3B"/>
<path d="M193.375 57.9874L188.242 54.3214L202.49 34.377L207.623 38.0429L201.905 46.0517L202.067 46.1716L215.822 43.8944L222.724 48.8224L208.758 50.9444L208.687 68.9219L201.877 64.0645L201.919 52.0513L201.729 51.9173L197.196 52.6364L193.368 57.9944L193.375 57.9874Z" fill="#3C3C3B"/>
<path d="M222.25 85.3486L209.666 70.452L228.391 54.6318L240.975 69.5285L236.745 73.1028L228.229 63.0213L225.233 65.5523L233.749 75.6338L229.498 79.2292L220.982 69.1478L217.957 71.6999L226.473 81.7813L222.243 85.3557L222.25 85.3486Z" fill="#3C3C3B"/>
<path d="M226.812 93.421L224.02 87.7599L246.009 76.917L252.241 89.5576C255.033 95.2188 254.427 97.8696 250.154 99.9775L249.464 100.316C246.164 101.944 244.218 101.712 242.569 99.3289L242.35 99.4347C243.048 102.121 242.992 103.51 238.938 105.505L233.975 107.951L231.169 102.269L235.815 99.9775C237.859 98.9694 238.177 98.2009 236.795 95.395L234.052 89.8396L226.798 93.421H226.812ZM243.866 85.0104L238.994 87.4144L242.181 93.8793C243.041 95.6206 243.859 96.0225 245.586 95.1694L245.776 95.0778C247.694 94.1331 247.891 93.1954 246.636 90.6504L243.859 85.0174L243.866 85.0104Z" fill="#3C3C3B"/>
<path d="M236.577 120.987C235.357 115.029 236.119 110.355 241.604 108.522L242.95 115.1C241.308 115.995 241.322 117.617 241.942 120.655C242.647 124.089 243.507 125.181 245.164 124.871L245.439 124.815C246.708 124.554 247.173 123.87 246.792 121.818L245.911 116.27C245.023 110.546 246.412 108.071 251.044 107.126L251.283 107.077C256.803 105.949 259.779 108.586 261.252 115.819L261.407 116.587C262.613 122.488 261.449 127.099 256.028 128.918L254.681 122.34C256.409 121.515 256.662 119.957 256.077 117.088C255.408 113.796 254.59 112.964 252.975 113.288L252.87 113.309C251.601 113.57 251.128 114.226 251.438 116.291L252.348 121.804C253.3 127.515 251.777 130.018 247.279 130.934L247.039 130.983C241.004 132.217 238.227 129.122 236.76 121.981L236.556 120.987H236.577Z" fill="#3C3C3B"/>
<path d="M71.8683 236.069C67.1659 232.678 66.5596 229.619 69.9718 224.888L70.6204 223.986C74.0256 219.255 77.1346 218.839 81.844 222.23L82.7605 222.893C87.4628 226.284 88.0691 229.379 84.6569 234.11L84.0083 235.012C80.6032 239.742 77.4871 240.13 72.7848 236.739L71.8683 236.076V236.069ZM74.8222 233.348C77.5647 235.329 78.8548 234.504 80.5045 232.213L80.9204 231.635C82.5842 229.33 82.9438 227.863 80.1943 225.882L79.8207 225.614C77.0571 223.626 75.8022 224.437 74.1384 226.749L73.7224 227.327C72.0727 229.612 71.685 231.085 74.4486 233.08L74.8222 233.348Z" fill="#869F6D"/>
<path d="M90.5431 247.188C85.298 244.721 84.1347 241.844 86.6163 236.571L87.1169 235.499C89.5985 230.226 92.5594 229.288 97.8046 231.756L98.8269 232.235C103.219 234.301 104.678 236.585 103.762 240.343L99.4825 238.326C99.4402 237.234 98.7775 236.557 96.8317 235.64L96.3735 235.429C93.349 234.005 92.2915 235.027 91.079 237.6L90.7265 238.348C89.5068 240.942 89.4151 242.366 92.4396 243.79L92.9683 244.037C95.5345 245.242 96.6132 245.094 97.572 243.24L93.2926 241.224L94.8436 237.925L103.134 241.823L102.056 244.114C99.6376 249.261 96.5638 250.015 91.5724 247.668L90.5502 247.188H90.5431Z" fill="#869F6D"/>
<path d="M122.451 257.045L109.19 254.14L112.743 237.946L126.004 240.851L125.201 244.51L116.226 242.543L115.655 245.137L124.63 247.104L123.826 250.784L114.851 248.817L114.28 251.433L123.255 253.4L122.451 257.059V257.045Z" fill="#869F6D"/>
<path d="M143.693 250.614C143.404 256.437 141.205 258.461 135.41 258.172L127.14 257.763L127.965 241.195L136.15 241.604C141.945 241.893 144.011 244.156 143.714 249.98L143.686 250.621L143.693 250.614ZM132.159 245.32L131.722 254.076L135.001 254.238C138.441 254.407 139.09 253.089 139.238 250.205L139.252 249.944C139.4 247.054 138.878 245.658 135.445 245.482L132.167 245.32H132.159Z" fill="#869F6D"/>
<path d="M151.808 257.833L147.43 258.151L146.231 241.604L150.609 241.287L151.808 257.833Z" fill="#869F6D"/>
<path d="M164.695 255.929L160.38 256.733L158.117 244.522L153.07 245.46L152.308 241.357L166.768 238.671L167.529 242.774L162.439 243.719L164.702 255.929H164.695Z" fill="#869F6D"/>
<path d="M177.364 252.58L173.162 253.863L168.326 238.001L172.528 236.718L177.364 252.58Z" fill="#869F6D"/>
<path d="M188.869 248.386C183.581 250.776 180.627 249.775 178.231 244.459L177.772 243.444C175.368 238.135 176.553 235.231 181.84 232.841L182.869 232.375C188.157 229.985 191.139 231.001 193.536 236.309L193.994 237.325C196.398 242.633 195.186 245.524 189.898 247.921L188.869 248.386ZM187.981 244.473C191.061 243.077 190.991 241.547 189.828 238.981L189.532 238.333C188.361 235.745 187.269 234.702 184.188 236.098L183.765 236.288C180.663 237.691 180.74 239.193 181.918 241.78L182.214 242.429C183.377 244.995 184.456 246.066 187.558 244.664L187.981 244.473Z" fill="#869F6D"/>
<path d="M215.624 231.917L210.21 235.738L198.309 230.014L198.175 230.105L204.823 239.538L201.383 241.964L191.83 228.406L197.245 224.585L209.159 230.331L209.293 230.239L202.631 220.792L206.071 218.367L215.624 231.924V231.917Z" fill="#869F6D"/>
</svg>
