<svg width="282" height="282" viewBox="0 0 282 282" fill="none" xmlns="http://www.w3.org/2000/svg">
<path d="M141 281.999C218.872 281.999 282 218.871 282 140.999C282 63.1273 218.872 -0.000488281 141 -0.000488281C63.1278 -0.000488281 0 63.1273 0 140.999C0 218.871 63.1278 281.999 141 281.999Z" fill="#3C3C3B"/>
<path d="M141 271.036C69.2944 271.036 10.9628 212.698 10.9628 140.999C10.9628 69.3011 69.2944 10.9624 141 10.9624C212.705 10.9624 271.037 69.3011 271.037 140.999C271.037 212.698 212.705 271.036 141 271.036Z" fill="white"/>
<path d="M141 14.1072C211.077 14.1072 267.893 70.916 267.893 141C267.893 211.084 211.084 267.893 141 267.893C70.916 267.893 14.1072 211.084 14.1072 141C14.1072 70.916 70.916 14.1072 141 14.1072ZM141 7.81152C67.5602 7.81152 7.8186 67.5602 7.8186 140.993C7.8186 214.426 67.5673 274.174 141 274.174C214.433 274.174 274.188 214.426 274.188 140.993C274.188 67.5602 214.44 7.81857 141 7.81857V7.81152Z" fill="#3C3C3B"/>
<path d="M240.502 116.705C240.023 111.953 236.336 108.055 229.533 105.101C228.398 104.607 227.15 104.135 225.768 103.663C211.407 71.1058 178.864 48.3696 140.999 48.3696C89.8442 48.3696 48.3691 89.8377 48.3691 140.999C48.3691 192.161 89.8372 233.629 140.999 233.629C192.161 233.629 233.629 192.161 233.629 140.999C233.629 138.518 233.502 136.071 233.312 133.639C233.981 133.075 234.637 132.469 235.25 131.827L235.307 131.771L235.356 131.715L235.821 131.193C239.424 127.097 241.024 122.105 240.51 116.705H240.502Z" fill="#3C3C3B"/>
<path d="M174.134 71.6416C168.699 71.6416 164.067 75.0749 162.248 79.883C162.671 81.3001 162.911 82.8017 162.911 84.3527C162.911 85.9037 162.671 87.4195 162.248 88.8436C162.403 89.2454 162.572 89.6402 162.77 90.028C169.82 91.0432 176.686 92.1359 183.201 93.2569C185.478 90.9797 186.859 87.8354 186.859 84.3668C186.859 77.3591 181.149 71.6486 174.141 71.6486L174.134 71.6416Z" fill="white"/>
<path d="M179.162 81.547V77.9233C177.3 77.9374 175.883 79.4391 175.883 81.2862C175.883 83.1333 177.42 84.7689 179.274 84.7689C180.924 84.7689 182.334 83.5492 182.623 82.0828C182.637 81.9982 182.743 81.124 182.517 80.4754C182.221 79.6365 181.869 79.2699 181.869 79.1782L179.162 81.547Z" fill="#3C3C3B"/>
<path d="M147.323 70.2808C139.561 70.2808 133.245 76.5976 133.245 84.3596C133.245 92.1216 139.561 98.4314 147.323 98.4314C155.085 98.4314 161.402 92.1146 161.402 84.3596C161.402 76.6046 155.085 70.2808 147.323 70.2808Z" fill="white"/>
<path d="M156.143 81.5681V77.5566C154.084 77.5707 152.512 79.2345 152.512 81.279C152.512 83.3235 154.211 85.1354 156.27 85.1354C158.096 85.1354 159.654 83.7818 159.978 82.1603C159.999 82.0686 160.112 81.0957 159.858 80.3837C159.534 79.4531 159.139 79.0512 159.139 78.9455L156.136 81.5681H156.143Z" fill="#3C3C3B"/>
<path d="M236.421 117.093C236.048 113.392 232.283 110.769 227.905 108.866C226.192 108.119 224.387 107.505 222.653 106.962C220.439 106.3 218.352 105.785 216.738 105.369L216.47 105.306C202.18 101.731 182.701 98.0654 163.017 95.2947C162.77 95.2524 162.545 95.2313 162.312 95.189C158.653 100.688 152.632 104.29 145.85 104.29C139.068 104.29 133.153 100.773 129.473 95.3793C120.498 97.1348 113.033 100.526 107.181 105.574C95.4146 115.683 89.5843 132.23 89.3587 156.15C89.2529 165.851 88.3435 180.177 87.3494 193.783C88.7947 192.895 91.382 191.344 94.7308 189.609L92.8061 186.881C92.3901 186.282 92.5382 185.457 93.1375 185.041C93.7367 184.604 94.5616 184.752 94.9775 185.351L97.1066 188.39C99.0313 187.459 101.118 186.486 103.353 185.535L99.7997 183.448C99.1793 183.074 98.9537 182.27 99.3273 181.65C99.701 181.03 100.505 180.825 101.146 181.178L106.335 184.237L106.561 180.973C106.603 180.247 107.244 179.732 107.971 179.754C108.697 179.796 109.254 180.437 109.19 181.164L109.042 183.356C111.192 182.609 113.406 181.911 115.683 181.333C116.388 181.149 117.107 181.558 117.298 182.285C117.46 182.99 117.051 183.709 116.346 183.878C113.78 184.541 111.256 185.344 108.838 186.233L108.753 187.389C108.711 188.094 108.133 188.608 107.449 188.608H107.343C106.638 188.566 106.124 187.967 106.124 187.283C103.437 188.355 100.914 189.497 98.6364 190.611C98.9255 191.189 98.7845 191.915 98.2417 192.303C98.0161 192.465 97.7481 192.528 97.4802 192.528C97.0643 192.528 96.6554 192.345 96.4016 191.971L96.2747 191.809C90.9802 194.537 87.5468 196.793 87.4622 196.836C87.3565 196.92 87.2155 196.92 87.0886 196.963C86.7572 201.616 86.3836 206.163 86.0734 210.322C101.146 222.293 120.238 229.449 140.972 229.449C146.393 229.449 151.702 228.955 156.855 228.025C153.88 208.651 149.58 167.501 149.1 153.894C149.721 154.056 150.362 154.247 150.983 154.388C155.431 155.424 160.352 156.08 165.315 156.08C176.602 156.08 187.96 152.71 193.684 143.115C194.411 141.895 194.016 140.323 192.796 139.618C191.598 138.871 190.025 139.287 189.299 140.485C189.215 140.633 189.116 140.753 189.031 140.88C188.721 140.774 188.369 140.697 187.939 140.633C187.234 140.527 185.746 141.479 184.548 142.226C182.708 143.383 180.642 144.666 178.301 144.666C177.949 144.666 177.554 144.645 177.187 144.56C174.833 144.123 173.359 141.973 172.076 140.09C171.519 139.265 170.462 137.714 169.968 137.545C169.327 137.418 167.508 138.539 166.33 139.28C163.955 140.725 161.283 142.382 158.35 141.803C156.242 141.388 154.832 140.168 153.718 139.174C152.703 138.286 152.04 137.729 151.088 137.538C149.707 137.291 148.79 135.945 149.065 134.563C149.312 133.181 150.658 132.286 152.04 132.54C154.395 132.998 155.889 134.295 157.088 135.353C158.04 136.178 158.618 136.657 159.344 136.798C160.317 137.002 162.157 135.846 163.644 134.937C165.943 133.513 168.34 132.018 170.983 132.54C173.444 133.033 174.953 135.247 176.299 137.214C176.835 138.018 177.766 139.364 178.203 139.569C178.971 139.696 180.501 138.744 181.84 137.891C183.843 136.629 186.099 135.205 188.665 135.578C191.478 135.994 192.902 137.002 194.044 137.834C195.038 138.539 195.574 138.913 197.188 138.991C207.693 139.547 220.806 137.461 228.948 131.771C230.189 130.947 231.303 129.995 232.276 128.98C232.438 128.796 232.607 128.606 232.77 128.423C235.604 125.194 236.823 121.394 236.407 117.093H236.421ZM102.133 197.844C101.908 198.006 101.64 198.091 101.386 198.091C100.97 198.091 100.561 197.886 100.293 197.512L99.983 197.075C99.567 196.476 99.7151 195.651 100.314 195.235C100.914 194.819 101.724 194.967 102.154 195.567L102.465 196.004C102.881 196.603 102.733 197.428 102.133 197.844ZM116.113 191.513C115.867 191.95 115.43 192.176 114.978 192.176C114.753 192.176 114.52 192.112 114.316 191.992L110.551 189.779C109.931 189.405 109.705 188.601 110.072 187.981C110.445 187.339 111.249 187.135 111.89 187.509L115.634 189.722C116.276 190.096 116.48 190.9 116.106 191.52L116.113 191.513ZM128.705 184.237C128.479 184.378 128.232 184.463 127.957 184.463C127.541 184.463 127.132 184.28 126.865 183.906L123.311 178.781C122.895 178.181 123.044 177.357 123.643 176.941C124.242 176.525 125.067 176.673 125.483 177.272L129.043 182.397C129.459 182.997 129.311 183.821 128.712 184.237H128.705Z" fill="white"/>
<path d="M191.964 147.676C192.634 146.64 193.748 145.801 194.869 145.279C194.128 144.807 193.473 144.335 192.881 143.862C192.006 143.538 191.259 143.609 190.603 144.102C189.447 144.969 188.876 146.816 188.77 147.81C189.616 148.424 190.469 149.016 191.323 149.573C191.365 148.924 191.569 148.283 191.957 147.676H191.964Z" fill="#E5D2AD"/>
<path d="M189.751 142.96C190.188 142.636 190.667 142.445 191.168 142.34C190.463 141.635 189.913 140.993 189.518 140.471C187.368 140.189 184.505 140.965 182.919 142.791C184.315 144.257 185.873 145.611 187.495 146.866C187.798 145.533 188.517 143.884 189.751 142.96Z" fill="#E5D2AD"/>
<path d="M206.021 156.616C208.799 157.151 210.251 156.235 210.9 153.563C211.154 152.534 211.083 151.645 210.724 150.955C211.034 152.224 210.66 153.591 210.237 154.191C210.033 154.473 209.645 154.543 209.356 154.339C209.074 154.134 209.011 153.746 209.208 153.464C209.483 153.084 209.8 151.899 209.455 150.99C209.222 150.384 208.736 150.01 207.967 149.848C207.368 149.714 206.959 150.13 206.684 150.609C206.98 150.468 207.354 150.384 207.861 150.412C208.207 150.433 208.475 150.729 208.454 151.081C208.432 151.427 208.122 151.695 207.784 151.674C207.29 151.645 207.1 151.808 207.001 151.935C206.466 152.654 206.931 154.677 207.241 155.551C207.319 155.77 207.269 156.009 207.121 156.179C207.001 156.313 206.825 156.39 206.649 156.39C206.599 156.39 206.557 156.39 206.508 156.376C204.978 156.031 204.534 153.662 204.992 151.575C205.196 150.637 205.563 149.904 206.035 149.389C202.087 148.741 198.95 147.578 196.49 146.259C195.418 146.485 193.909 147.289 193.148 148.473C192.704 149.157 192.605 149.841 192.831 150.539C198.908 154.226 204.675 156.376 206.014 156.637L206.021 156.616Z" fill="#E5D2AD"/>
<path d="M206.691 150.602C206.987 150.461 207.361 150.377 207.869 150.405C208.214 150.426 208.482 150.722 208.461 151.074C208.44 151.42 208.129 151.688 207.791 151.667C207.298 151.638 207.107 151.801 207.009 151.928C206.663 152.393 206.734 153.401 206.91 154.289C207.234 154.649 207.629 154.896 208.073 154.896C208.545 154.896 208.961 154.635 209.293 154.24C209.095 154.028 209.039 153.718 209.215 153.471C209.49 153.091 209.807 151.906 209.462 150.997C209.229 150.391 208.743 150.017 207.974 149.855C207.692 149.791 207.453 149.855 207.248 149.989C207.121 150.08 207.001 150.193 206.896 150.32C206.818 150.412 206.755 150.518 206.691 150.623V150.602Z" fill="#AC2535"/>
<path d="M211.394 149.382C210.47 148.403 209.067 147.937 207.714 148.142C203.315 147.599 199.902 146.365 197.294 144.969L197.315 144.729C197.174 144.715 197.012 144.729 196.857 144.729C193.205 142.685 191.245 140.358 190.526 139.364L190.357 139.125L190.068 139.075C187.304 138.582 183.321 139.597 181.375 142.41L181.044 142.889L181.438 143.319C184.343 146.478 188.065 149.256 191.745 151.526C191.788 151.61 191.802 151.702 191.851 151.794L192.02 151.695C198.041 155.368 203.878 157.68 205.747 158.04C206.325 158.153 206.868 158.209 207.375 158.209C209.963 158.209 211.619 156.764 212.317 153.909C212.761 152.09 212.43 150.489 211.394 149.382ZM191.964 147.676C191.576 148.283 191.372 148.924 191.329 149.573C190.469 149.016 189.616 148.424 188.777 147.81C188.876 146.816 189.447 144.969 190.61 144.102C191.266 143.609 192.013 143.538 192.888 143.862C193.48 144.335 194.135 144.807 194.876 145.279C193.755 145.801 192.634 146.64 191.971 147.676H191.964ZM182.919 142.784C184.505 140.965 187.367 140.182 189.518 140.464C189.912 140.986 190.455 141.627 191.167 142.332C190.667 142.438 190.187 142.629 189.75 142.953C188.517 143.876 187.797 145.526 187.494 146.859C185.873 145.604 184.315 144.25 182.919 142.784ZM210.9 153.556C210.252 156.228 208.799 157.137 206.022 156.609C204.682 156.348 198.915 154.198 192.838 150.51C192.62 149.813 192.718 149.136 193.155 148.445C193.917 147.26 195.426 146.457 196.497 146.231C198.958 147.549 202.095 148.713 206.043 149.361C205.57 149.876 205.204 150.616 204.999 151.547C204.541 153.634 204.978 156.002 206.515 156.348C206.557 156.355 206.607 156.362 206.656 156.362C206.832 156.362 207.009 156.284 207.129 156.15C207.277 155.981 207.326 155.742 207.248 155.523C206.938 154.656 206.466 152.625 207.009 151.906C207.1 151.779 207.298 151.61 207.791 151.646C208.13 151.667 208.44 151.406 208.461 151.053C208.482 150.708 208.214 150.405 207.869 150.384C207.361 150.362 206.988 150.44 206.691 150.581C206.966 150.095 207.375 149.679 207.975 149.82C208.743 149.982 209.229 150.355 209.462 150.962C209.815 151.871 209.49 153.056 209.215 153.436C209.011 153.718 209.081 154.113 209.363 154.31C209.645 154.522 210.04 154.444 210.245 154.162C210.668 153.57 211.041 152.202 210.731 150.926C211.091 151.617 211.154 152.499 210.907 153.535L210.9 153.556Z" fill="#3C3C3B"/>
<g opacity="0.68">
<path fill-rule="evenodd" clip-rule="evenodd" d="M227.446 64.042C224.936 66.7139 221.566 69.2308 218.006 69.7525C209.962 70.9228 203.356 78.2689 201.164 80.539C200.621 81.1453 200.099 81.7657 199.627 82.3931C195.051 88.019 191.435 94.8786 192.52 102.457C193.24 102.098 194.325 102.098 195.044 101.738C195.404 103.783 196.37 105.63 197.716 107.124C198.393 107.872 199.162 108.534 200.001 109.084C202.264 110.762 205.154 111.122 207.678 109.677C206.959 113.286 209.842 115.091 212.373 116.896C208.764 120.505 205.154 125.92 207.318 130.615C208.404 133.865 213.819 133.139 214.897 136.854C215.334 138.271 215.334 139.851 214.932 141.275C214.136 144.109 212.112 146.485 210.131 148.762C210.9 149.093 211.379 149.826 211.591 150.672C215.017 146.351 218.443 142.029 221.87 137.714C221.44 137.087 220.897 136.537 220.283 136.058C217.421 133.872 210.561 132.427 212.366 129.177C215.257 122.317 224.64 113.653 213.811 108.957C215.976 107.512 219.585 105.348 217.428 101.682C216.942 100.596 216.328 99.6162 215.623 98.7491C212.077 94.4345 206.113 93.1302 201.904 89.8238C199.38 87.6595 202.99 84.0499 204.357 81.4202C204.795 80.4403 205.88 79.3546 206.599 78.995C213.819 76.4711 222.123 75.0259 226.452 68.8853C227.573 67.3907 227.792 65.7269 227.432 64.042H227.446ZM202.327 98.8901C204.724 98.5869 207.354 98.7138 209.589 99.863C210.336 100.244 211.034 100.744 211.661 101.372C212.747 102.091 213.826 104.262 212.747 105.341C209.856 107.505 205.528 107.505 203.617 104.051C202.99 103.191 202.503 102.204 202.214 101.16C201.883 100.371 201.693 99.2708 202.327 98.883V98.8901Z" fill="#CDCBC2"/>
</g>
<path d="M36.0961 106.463C44.5208 108.253 46.9813 111.856 45.247 120.013L42.7724 131.652L18.7954 126.555L21.2488 115.028C22.9831 106.872 26.7478 104.475 35.1796 106.265L36.1031 106.463H36.0961ZM25.7537 121.585L38.4226 124.278L39.4096 119.66C40.4389 114.817 38.6623 113.583 34.4816 112.695L34.1009 112.617C29.9203 111.729 27.763 112.131 26.7337 116.967L25.7537 121.585Z" fill="#3C3C3B"/>
<path d="M51.7405 100.344L49.3082 106.167L26.6848 96.7134L29.1171 90.8901L51.7405 100.344Z" fill="#3C3C3B"/>
<path d="M56.1751 91.6367L52.7347 96.9242L32.184 83.5504L39.8685 71.7346C43.3089 66.4471 45.9033 65.6081 49.8935 68.2096L50.5421 68.6326C53.623 70.6418 54.4196 72.4325 53.207 75.0692L53.4115 75.2032C55.3643 73.2292 56.584 72.5735 60.3698 75.034L65.0087 78.0514L61.5542 83.3671L57.2114 80.54C55.3009 79.2992 54.476 79.4191 52.7699 82.0346L49.393 87.2234L56.1751 91.6367ZM40.2351 81.2591L44.7823 84.2201L48.7162 78.1783C49.7737 76.5568 49.7032 75.6403 48.0817 74.5898L47.9054 74.477C46.1147 73.3138 45.2053 73.6169 43.6543 75.9928L40.228 81.2591H40.2351Z" fill="#3C3C3B"/>
<path d="M76.1891 67.4196L71.5855 71.7412L59.0224 58.3674L53.6432 63.4223L49.4274 58.9314L64.8316 44.4648L69.0475 48.9557L63.626 54.0458L76.1891 67.4196Z" fill="#3C3C3B"/>
<path d="M95.6761 54.0384L90.1489 57.1475L85.0236 48.053L69.9789 40.3614L76.5354 36.6672L85.228 41.4189L85.4042 41.3202L85.8413 31.4291L91.7704 28.0874L90.5225 44.9157L95.669 54.0384H95.6761Z" fill="#3C3C3B"/>
<path d="M123.143 44.9796C117.157 46.0653 112.504 45.1982 110.791 39.6639L117.397 38.4654C118.257 40.1222 119.879 40.1504 122.924 39.6005C126.365 38.9801 127.478 38.1341 127.211 36.4773L127.161 36.2024C126.929 34.9263 126.252 34.4399 124.193 34.7783L118.624 35.5397C112.878 36.294 110.439 34.8488 109.593 30.1958L109.55 29.9561C108.542 24.4078 111.249 21.4961 118.518 20.1778L119.286 20.0368C125.208 18.9652 129.798 20.2342 131.49 25.6979L124.884 26.8964C124.094 25.148 122.543 24.859 119.667 25.3807C116.361 25.9799 115.508 26.7766 115.804 28.398L115.825 28.5038C116.057 29.7798 116.706 30.2663 118.772 29.9984L124.306 29.2088C130.045 28.3839 132.505 29.9702 133.323 34.4892L133.365 34.7289C134.465 40.799 131.307 43.5062 124.13 44.8034L123.136 44.9867L123.143 44.9796Z" fill="#3C3C3B"/>
<path d="M148.227 43.6046C139.922 42.9278 136.919 39.5156 137.616 30.9288L137.75 29.2861C138.448 20.6922 141.966 17.7805 150.271 18.4573L151.886 18.5913C160.191 19.2681 163.222 22.7155 162.524 31.3095L162.39 32.9521C161.692 41.546 158.146 44.4224 149.841 43.7456L148.227 43.6117V43.6046ZM149.848 37.9012C154.692 38.296 155.671 36.2656 156.01 32.1132L156.094 31.0627C156.44 26.868 155.798 24.7459 150.948 24.3511L150.285 24.2947C145.414 23.8999 144.469 25.8951 144.124 30.0828L144.039 31.1332C143.701 35.2927 144.307 37.45 149.186 37.8448L149.848 37.9012Z" fill="#3C3C3B"/>
<path d="M174.029 49.0823C166.344 46.2553 164.525 42.2227 167.493 34.1364L168.071 32.5572C171.039 24.4638 175.037 22.5744 182.721 25.4014L184.216 25.9513C191.033 28.4611 193 31.9086 191.59 38.1126L185.534 35.8848C185.661 34.7004 185.436 33.798 184.886 33.1071C184.336 32.4162 183.264 31.8028 181.664 31.2106L181.255 31.0626C176.799 29.4199 175.425 31.1542 173.986 35.074L173.627 36.061C172.189 39.9738 172.118 42.1874 176.567 43.8301L176.976 43.9781C178.576 44.5703 179.796 44.7889 180.656 44.6197C181.523 44.4505 182.277 43.9076 182.947 42.9206L189.003 45.1484C186.07 50.7884 182.334 52.142 175.516 49.6322L174.022 49.0823H174.029Z" fill="#3C3C3B"/>
<path d="M193.416 57.9868L188.284 54.3208L202.539 34.3623L207.671 38.0283L201.947 46.0441L202.109 46.164L215.864 43.8868L222.765 48.8148L208.799 50.9439L208.722 68.9284L201.912 64.071L201.961 52.0507L201.771 51.9168L197.237 52.6429L193.409 58.0009L193.416 57.9868Z" fill="#3C3C3B"/>
<path d="M222.307 85.3837L209.709 70.466L228.455 54.6528L241.053 69.5706L236.823 73.1379L228.3 63.0423L225.304 65.5733L233.827 75.6689L229.569 79.2573L221.045 69.1617L218.021 71.7138L226.544 81.8094L222.314 85.3767L222.307 85.3837Z" fill="#3C3C3B"/>
<path d="M226.833 93.4202L224.048 87.7591L246.037 76.9092L252.262 89.5569C255.047 95.218 254.448 97.8759 250.176 99.9838L249.485 100.329C246.185 101.958 244.24 101.725 242.59 99.3422L242.371 99.448C243.069 102.134 243.013 103.523 238.959 105.525L233.996 107.971L231.19 102.282L235.843 99.9908C237.888 98.9827 238.205 98.2143 236.823 95.4013L234.088 89.8459L226.833 93.4273V93.4202ZM243.894 85.0026L239.023 87.3996L242.209 93.8644C243.062 95.6057 243.887 96.0076 245.614 95.1546L245.805 95.0629C247.722 94.1182 247.92 93.1806 246.672 90.6355L243.894 85.0026Z" fill="#3C3C3B"/>
<path d="M236.604 120.979C235.385 115.029 236.146 110.347 241.638 108.514L242.984 115.092C241.342 115.987 241.356 117.609 241.976 120.647C242.674 124.081 243.548 125.173 245.198 124.863L245.473 124.807C246.742 124.546 247.207 123.862 246.827 121.811L245.945 116.262C245.057 110.538 246.446 108.063 251.078 107.118L251.317 107.069C256.845 105.941 259.813 108.578 261.293 115.811L261.448 116.58C262.654 122.48 261.491 127.091 256.069 128.91L254.723 122.332C256.45 121.507 256.704 119.949 256.111 117.087C255.442 113.795 254.624 112.963 253.009 113.287L252.904 113.308C251.635 113.569 251.162 114.225 251.473 116.29L252.389 121.804C253.341 127.514 251.818 130.017 247.32 130.933L247.08 130.983C241.039 132.216 238.261 129.121 236.802 121.98L236.597 120.986L236.604 120.979Z" fill="#3C3C3B"/>
<path d="M229.956 185.668L238.346 185.605L240.87 177.603L243.528 185.562L251.917 185.492L245.17 190.476L247.828 198.436L241.004 193.564L234.257 198.549L236.781 190.547L229.956 185.668Z" fill="#3C3C3B"/>
<path d="M238.889 158.801L246.926 156.383L247.109 147.993L251.889 154.888L259.926 152.477L254.843 159.153L259.623 166.048L251.706 163.278L246.622 169.954L246.806 161.564L238.889 158.801Z" fill="#3C3C3B"/>
<path d="M53.4036 187.029L45.0141 187.085L42.3703 179.119L39.8253 187.113L31.4358 187.17L38.2602 192.055L35.7151 200.057L42.4761 195.08L49.2934 199.965L46.6497 192.006L53.4036 187.029Z" fill="#3C3C3B"/>
<path d="M44.0762 160.288L36.004 157.99L35.7008 149.607L31.0196 156.573L22.9474 154.275L28.1291 160.873L23.4479 167.839L31.3298 164.955L36.5045 171.554L36.1943 163.172L44.0762 160.288Z" fill="#3C3C3B"/>
<path d="M122.515 96.958C121.542 102.929 119.131 109.789 115.352 116.599C108.069 129.733 97.9315 138.659 90.3668 139.392C93.0458 119.842 102.62 104.72 122.508 96.958H122.515Z" fill="#3C3C3B"/>
<path d="M109.916 77.3952L103.268 91.8335C92.6579 96.0071 87.0814 107.562 86.6161 107.943L80.3063 122.325L79.3757 124.44L78.4804 123.897L69.9076 118.694L63.5908 114.866L61.5886 113.646C70.7184 109.318 61.3912 99.793 61.3912 99.793C78.142 101.711 70.0486 84.2689 70.0486 84.2689C87.4268 86.3627 85.1497 68.6461 85.1497 68.6461C97.3462 74.1804 101.844 64.4443 101.844 64.4443L104.932 69.3934L108.055 74.3989L109.923 77.3952H109.916Z" fill="#F3AE13"/>
<path d="M109.917 77.3946L109.339 77.1267L102.69 91.5651L103.269 91.833L103.036 91.2337C97.5792 93.384 93.462 97.3954 90.642 100.906C89.232 102.662 88.1463 104.29 87.3849 105.51C87.0042 106.116 86.7011 106.624 86.4896 106.976C86.3838 107.153 86.2922 107.301 86.2358 107.392C86.2076 107.442 86.1794 107.477 86.1723 107.491L86.4544 107.724L86.2287 107.449C86.1723 107.498 86.1723 107.505 86.1723 107.505L86.4544 107.731L86.2287 107.456L86.1089 107.554L79.7357 122.077L79.1012 123.523L78.8263 123.361L70.2534 118.158L63.9367 114.329L61.9345 113.11L61.6031 113.66L61.8781 114.238C63.3022 113.561 64.3385 112.75 65.0435 111.827C65.7485 110.91 66.1151 109.895 66.2138 108.88C66.3337 107.681 66.1081 106.49 65.7133 105.376C65.1211 103.712 64.1623 102.225 63.3515 101.132C62.5408 100.046 61.871 99.3624 61.8569 99.3483L61.3987 99.7995L61.3282 100.434C61.441 100.448 61.5467 100.455 61.6525 100.469C63.5701 100.667 65.1845 100.61 66.5452 100.342C68.5826 99.9475 70.0561 99.0522 71.0219 97.8607C71.9878 96.6693 72.446 95.224 72.5941 93.7506C72.8267 91.4311 72.3332 89.013 71.7904 87.1588C71.2475 85.3047 70.6483 84.0216 70.6412 84.0004L70.0631 84.2683L69.9856 84.9028C70.1477 84.924 70.3099 84.9381 70.465 84.9592C73.4048 85.2553 75.8159 84.9945 77.7899 84.3247C80.7509 83.3236 82.6826 81.399 83.8811 79.2699C85.0866 77.1338 85.5872 74.7932 85.7846 72.8544C86.0313 70.4222 85.7987 68.6033 85.7987 68.568L85.1642 68.6526L84.8963 69.2378C87.0747 70.2248 89.0276 70.7465 90.776 70.9227C92.8557 71.1342 94.6394 70.8593 96.134 70.3164C98.3759 69.5057 99.948 68.1098 100.956 66.9254C101.964 65.741 102.423 64.754 102.437 64.7187L101.859 64.4508L101.316 64.7892L104.404 69.7383L107.52 74.7438L109.388 77.7401L109.931 77.4017L110.474 77.0633L108.605 74.067L105.482 69.0615L101.767 63.1113L101.266 64.19C101.245 64.2393 100.484 65.8256 98.82 67.2638C97.9881 67.9829 96.9306 68.6738 95.6334 69.1391C94.3292 69.6044 92.7711 69.8441 90.9029 69.6537C89.3096 69.4916 87.4907 69.0122 85.418 68.0745L84.3746 67.6022L84.5226 68.7443V68.7584C84.5438 68.9276 84.7271 70.5914 84.5085 72.7346C84.3816 73.9542 84.1349 75.329 83.6555 76.6755C82.9364 78.6989 81.7309 80.6447 79.7075 81.9912C77.6771 83.3377 74.7936 84.1203 70.5919 83.6973C70.4438 83.6832 70.2887 83.662 70.1336 83.6479L68.9915 83.514L69.478 84.5574V84.5715C69.5414 84.6984 70.1124 85.9674 70.6059 87.7087C71.1065 89.4501 71.5225 91.6638 71.318 93.6448C71.2264 94.512 71.029 95.3298 70.6765 96.0559C70.1407 97.1416 69.3017 98.0299 67.8988 98.6292C66.5029 99.2214 64.5218 99.4963 61.7794 99.2143C61.6736 99.2073 61.5749 99.1932 61.4692 99.1791L59.6785 98.9746L60.9404 100.265H60.9475C61.0603 100.392 62.1812 101.576 63.2035 103.212C63.7181 104.029 64.1975 104.96 64.5289 105.912C64.8602 106.871 65.0224 107.844 64.9307 108.767C64.8461 109.571 64.5782 110.332 64.0213 111.058C63.4643 111.784 62.6042 112.482 61.3211 113.089L60.2495 113.596L63.2669 115.429L69.626 119.286L78.1636 124.467L79.6793 125.384L80.899 122.599L87.2087 108.217L86.6235 107.963L87.0254 108.457C87.0818 108.415 87.1029 108.379 87.1311 108.351C87.1805 108.295 87.2087 108.252 87.251 108.196C87.3849 107.999 87.5682 107.688 87.822 107.265C88.7174 105.785 90.4799 102.923 93.1025 100.011C95.7251 97.0923 99.2077 94.1383 103.508 92.4463L103.748 92.3547L110.643 77.3664L110.46 77.0703L109.917 77.4087V77.3946Z" fill="#11100C"/>
<path d="M113.442 107.984C111.891 110.29 110.093 112.623 108.077 114.907C97.5158 126.864 84.9245 132.998 79.9613 128.612C78.4244 127.259 77.7969 125.059 77.9661 122.31C84.0926 122.289 93.5537 116.508 101.781 107.188C103.544 105.199 105.13 103.169 106.533 101.153C110.974 94.8007 113.59 88.5615 113.886 83.8944C115.627 83.8803 117.094 84.3385 118.186 85.3044C122.212 88.8576 120.005 98.2058 113.435 107.984H113.442Z" fill="#F3AE13"/>
<path d="M113.442 107.984C104.897 117.269 97.5299 119.377 97.5299 119.377L106.039 103.232L106.533 101.153C110.974 94.8007 113.59 88.5615 113.886 83.8944C115.627 83.8803 117.094 84.3385 118.186 85.3044C122.212 88.8576 120.005 98.2058 113.435 107.984H113.442Z" fill="#F3AE13"/>
<path d="M108.076 114.914L107.597 114.491C103.303 119.349 98.6783 123.233 94.3989 125.814C92.2628 127.104 90.2112 128.07 88.343 128.669C86.4748 129.268 84.7898 129.501 83.3939 129.36C82.1672 129.233 81.1661 128.831 80.3906 128.14C79.7208 127.548 79.2415 126.772 78.9454 125.807C78.6493 124.841 78.5364 123.677 78.614 122.359L77.9725 122.317V122.958C79.608 122.958 81.4128 122.571 83.3445 121.859C89.1255 119.729 96.0416 114.675 102.274 107.625C105.841 103.585 108.732 99.3972 110.811 95.4281C112.891 91.459 114.167 87.7225 114.491 84.55C114.513 84.3455 114.527 84.1481 114.541 83.9437L113.899 83.9014V84.5429C114.209 84.5429 114.505 84.557 114.795 84.5852C116.014 84.7121 117.008 85.114 117.777 85.7978C118.496 86.4323 118.989 87.2783 119.285 88.3429C119.574 89.4074 119.652 90.6905 119.504 92.1428C119.208 95.0827 117.988 98.6993 115.958 102.556C113.934 106.419 111.1 110.529 107.597 114.498L108.076 114.921L108.555 115.344C112.123 111.305 115.006 107.117 117.086 103.155C119.166 99.1858 120.442 95.4493 120.766 92.2768C120.928 90.7046 120.85 89.2735 120.505 88.0115C120.16 86.7496 119.539 85.6639 118.609 84.8461C117.607 83.9578 116.331 83.4643 114.907 83.3233C114.576 83.288 114.231 83.2739 113.878 83.2739H113.279L113.244 83.8732C113.229 84.0565 113.215 84.2398 113.194 84.4301C112.898 87.37 111.678 90.9866 109.648 94.843C107.625 98.7063 104.791 102.816 101.287 106.786C97.2119 111.403 92.8268 115.14 88.7307 117.713C86.6792 119.003 84.7052 119.997 82.8793 120.667C81.0533 121.337 79.3824 121.682 77.9513 121.689H77.352L77.3168 122.289C77.2252 123.72 77.345 125.038 77.6975 126.194C78.05 127.35 78.6563 128.352 79.5235 129.113C80.5316 130.001 81.8147 130.502 83.2458 130.643C84.8814 130.805 86.7285 130.537 88.7166 129.903C91.6988 128.944 95.0123 127.16 98.4033 124.693C101.794 122.225 105.27 119.067 108.548 115.358L108.069 114.935L108.076 114.914Z" fill="#3C3C3B"/>
<path d="M109.917 77.3949L103.268 91.8333C92.6582 96.0069 87.0816 107.562 86.6163 107.943L80.3066 122.324L79.5522 122.769L78.4877 123.897L69.9149 118.694L76.6053 117.961C76.6053 117.961 81.1315 111.185 81.6391 110.643C82.1466 110.1 82.9785 106.06 82.9785 106.06L84.8961 105.933L85.2134 107.04C85.4813 106.533 90.2541 95.4358 100.195 90.5502C100.195 90.5502 109.592 80.6731 108.062 74.3916L109.931 77.3878L109.917 77.3949Z" fill="#CE7314"/>
<path d="M109.916 77.395L109.338 77.1271L102.69 91.5654L103.268 91.8333L103.036 91.2341C97.5789 93.3843 93.4617 97.3958 90.6417 100.907C89.2317 102.662 88.146 104.291 87.3846 105.51C87.0039 106.117 86.7008 106.624 86.4893 106.977C86.3836 107.153 86.2919 107.301 86.2355 107.393C86.2073 107.442 86.1791 107.477 86.172 107.491L86.4541 107.724L86.2285 107.449C86.1721 107.498 86.172 107.505 86.172 107.505L86.4541 107.731L86.2285 107.456L86.1086 107.555L79.82 121.887L79.1644 122.275L78.3889 123.093L71.8676 119.138L76.9789 118.581L77.1481 118.334C77.1481 118.334 77.4301 117.911 77.8601 117.27C78.5087 116.304 79.4887 114.845 80.3629 113.576C80.8 112.941 81.2018 112.356 81.5191 111.905C81.6812 111.679 81.8151 111.489 81.9209 111.348C81.9773 111.277 82.0196 111.214 82.0548 111.171C82.0901 111.129 82.1183 111.094 82.1183 111.094C82.2029 111.002 82.2523 110.918 82.3016 110.833C82.3933 110.671 82.4708 110.495 82.5413 110.297C82.8021 109.599 83.063 108.598 83.2675 107.745C83.4719 106.899 83.6129 106.208 83.6129 106.208L82.9854 106.081L83.0277 106.723L84.4307 106.631L85.0441 108.774L85.7843 107.357C85.8125 107.294 85.8477 107.231 85.8971 107.118C86.2778 106.307 87.6525 103.424 90.0707 100.188C92.4888 96.9516 95.9504 93.3702 100.476 91.1424L100.582 91.0931L100.66 91.0085C100.66 91.0085 102.535 89.0416 104.481 86.2991C105.454 84.9244 106.455 83.3593 107.252 81.7307C108.048 80.0951 108.654 78.4031 108.824 76.7605C108.908 75.9074 108.88 75.0685 108.683 74.2648L108.062 74.4199L107.519 74.7583L109.388 77.7545L109.931 77.4161L110.473 77.0777L106.497 70.6904L107.442 74.5679C107.597 75.2024 107.625 75.8933 107.555 76.6336C107.414 78.0577 106.864 79.6298 106.102 81.1738C104.967 83.4932 103.367 85.7422 102.056 87.406C101.4 88.2379 100.815 88.9217 100.399 89.3941C100.187 89.6338 100.018 89.8171 99.9054 89.944C99.849 90.0074 99.8067 90.0567 99.7715 90.0849L99.7292 90.1343L100.194 90.5784L99.9125 90.0004C94.8083 92.5101 91.0647 96.5921 88.562 100.089C87.3071 101.837 86.3624 103.452 85.7138 104.657C85.3895 105.264 85.1357 105.764 84.9594 106.131C84.8678 106.314 84.7973 106.462 84.7479 106.575C84.6986 106.681 84.6563 106.765 84.6563 106.765L85.2203 107.061L85.8337 106.885L85.3754 105.285L82.4567 105.475L82.358 105.954C82.358 105.954 82.3439 106.018 82.3227 106.124C82.2381 106.511 82.0267 107.484 81.7799 108.415C81.6601 108.88 81.5261 109.331 81.4062 109.677C81.3428 109.853 81.2864 110.001 81.2371 110.1C81.2159 110.149 81.1947 110.192 81.1806 110.213L81.1666 110.234L81.3146 110.354L81.1736 110.227H81.1666L81.3146 110.354L81.1736 110.227C81.1101 110.29 81.0608 110.361 80.9903 110.445C80.7436 110.763 80.3276 111.362 79.82 112.088C78.3113 114.273 76.0694 117.622 76.0694 117.622L76.5982 117.975L76.5277 117.34L67.9619 118.271L78.5933 124.722L79.954 123.283L80.8141 122.776L87.2084 108.203L86.6233 107.95L87.0251 108.443C87.0815 108.401 87.1026 108.366 87.1308 108.337C87.1802 108.281 87.2084 108.239 87.2507 108.182C87.3846 107.985 87.5679 107.675 87.8217 107.252C88.7171 105.771 90.4796 102.909 93.1022 99.9972C95.7248 97.0785 99.2075 94.1246 103.508 92.4326L103.748 92.3409L110.643 77.3527L110.459 77.0566L109.916 77.395Z" fill="#11100C"/>
<path d="M63.3368 114.718C63.1605 114.626 62.9984 114.527 62.8433 114.443C62.1877 114.069 61.7647 113.773 61.6237 113.681L62.8503 114.421L63.3368 114.718Z" fill="#F1A700"/>
<path d="M63.3369 114.718L63.6401 114.154C63.4709 114.062 63.3088 113.971 63.1537 113.886L62.8434 114.443L63.1607 113.886C62.5262 113.519 62.1173 113.237 61.9904 113.153L61.6238 113.674L61.2924 114.224L62.5191 114.965L63.0056 115.261L63.3369 114.711L63.6683 114.161L63.1818 113.865L61.9551 113.125L61.2572 114.196C61.4053 114.302 61.8494 114.605 62.5262 114.993C62.6742 115.077 62.8434 115.169 63.0267 115.268L63.6613 114.161L63.3299 114.711L63.3369 114.718Z" fill="#3C3C3B"/>
<path d="M116.064 95.6472C114.908 98.4813 113.125 101.682 110.819 105.003C109.24 107.28 107.414 109.613 105.377 111.919C102.268 115.444 98.94 118.426 95.7252 120.759C93.5397 122.346 91.4036 123.629 89.4366 124.573C87.2723 125.617 85.2983 126.251 83.6627 126.42C82.5417 126.54 81.5829 126.442 80.8286 126.117L80.744 125.927L70.4721 119.06L70.169 118.828L64.4303 114.365C68.8788 116.776 80.3633 121.126 83.2467 103.804C83.2467 103.804 85.7213 104.128 88.7175 103.734C93.3705 103.113 99.2925 100.744 99.1868 92.7003C99.1656 90.6981 98.7637 88.3364 97.8754 85.5587C97.8754 85.5587 116.276 86.0663 103.297 64.6978L116.53 86.024L116.896 86.6162C116.896 86.6162 117.002 86.7501 117.178 87.0039V87.018C118.024 88.9145 117.58 91.9742 116.071 95.6613L116.064 95.6472Z" fill="#F3AE13"/>
<path d="M101.21 95.88L109.021 104.826L100.004 97.9033L100.068 94.4771L101.21 95.88Z" fill="white"/>
<path d="M114.252 97.8825C114.907 98.4747 113.117 101.675 111.354 103.847L101.562 93.7018L99.3833 87.1101L104.234 85.7354L114.252 97.8825Z" fill="white"/>
<path d="M105.376 111.918L104.897 111.495C100.78 116.162 96.2606 119.885 92.1716 122.359C90.1341 123.6 88.2024 124.524 86.4963 125.109C84.7902 125.694 83.3097 125.92 82.2029 125.807C81.7728 125.764 81.3992 125.673 81.089 125.532L80.8352 126.117L81.4203 125.849L81.3287 125.659L81.2511 125.497L70.8454 118.538L64.8247 113.857L64.4299 114.365L64.1267 114.929C65.7693 115.817 68.3285 116.966 71.1485 117.255C72.4104 117.382 73.7217 117.34 75.0189 117.001C76.9647 116.508 78.8612 115.345 80.4051 113.244C81.9561 111.15 83.1687 108.132 83.8737 103.902L83.2392 103.797L83.1546 104.431C83.1546 104.431 83.2392 104.445 83.3802 104.459C84.0711 104.53 86.2355 104.699 88.7876 104.368C91.0083 104.072 93.5322 103.395 95.6402 101.872C96.6906 101.111 97.6283 100.138 98.3474 98.9111C99.0665 97.6844 99.5599 96.2039 99.7362 94.4414C99.7926 93.8845 99.8208 93.2993 99.8067 92.686C99.7855 90.5992 99.3696 88.181 98.4601 85.361L97.8539 85.5584L97.8327 86.2C97.875 86.2 100.251 86.2705 102.789 85.354C104.058 84.8957 105.376 84.1837 106.441 83.0627C107.505 81.9418 108.295 80.4119 108.499 78.4097C108.669 76.7671 108.45 74.8213 107.717 72.5089C106.984 70.1965 105.736 67.5034 103.825 64.3591L102.732 65.0288L115.965 86.3551L116.346 86.9755L116.367 87.0037C116.367 87.0037 116.48 87.1517 116.628 87.3632L117.15 86.9966L116.586 87.2998V87.3139L117.157 87.0107L116.572 87.2716C116.896 87.9977 117.016 88.9988 116.889 90.2326C116.642 92.7071 115.408 96.0559 113.343 99.75C111.284 103.451 108.401 107.512 104.876 111.502L105.355 111.925L105.834 112.348C109.409 108.295 112.349 104.163 114.457 100.37C116.572 96.5775 117.869 93.1231 118.158 90.3595C118.299 88.9847 118.186 87.758 117.735 86.7499V86.7287L117.707 86.6935L117.685 86.6582L117.664 86.623C117.481 86.3621 117.368 86.2211 117.361 86.2141L116.861 86.6089L117.403 86.2705L117.037 85.6783L103.804 64.3521L102.711 65.0218C104.58 68.1026 105.785 70.7041 106.476 72.8896C107.167 75.0821 107.35 76.8517 107.209 78.2758C107.026 80.0101 106.377 81.2438 105.496 82.1744C104.178 83.5703 102.267 84.2753 100.674 84.6067C99.8772 84.7759 99.1652 84.8464 98.6576 84.8816C98.4038 84.8957 98.1993 84.9028 98.0583 84.9098C97.9878 84.9098 97.9385 84.9098 97.9032 84.9098H97.8679H97.8609L96.9585 84.8816L97.2335 85.7417C98.1077 88.4701 98.4954 90.7684 98.5166 92.693C98.5236 93.2641 98.5024 93.7999 98.446 94.3075C98.2839 95.9008 97.8468 97.1979 97.2264 98.2554C96.2958 99.8487 94.9422 100.941 93.4053 101.703C91.8755 102.464 90.1694 102.88 88.6043 103.085C86.2002 103.402 84.1205 103.24 83.493 103.176C83.4296 103.176 83.3802 103.162 83.345 103.162H83.3097H83.3027L82.6893 103.085L82.5906 103.698C82.1394 106.426 81.4697 108.591 80.6589 110.283C79.4463 112.828 77.9376 114.308 76.3232 115.14C74.7087 115.972 72.9674 116.155 71.2542 115.986C68.7022 115.725 66.2629 114.647 64.7119 113.808L64.0139 114.872L70.0699 119.582L80.2148 126.364L80.2289 126.392L80.3346 126.618L80.5602 126.716C81.0185 126.914 81.519 127.034 82.0548 127.09C83.4437 127.231 85.0722 126.949 86.8911 126.329C89.6195 125.398 92.7708 123.692 96.035 121.323C99.2991 118.954 102.683 115.93 105.834 112.355L105.355 111.932L105.376 111.918Z" fill="#3C3C3B"/>
<path d="M101.005 88.0543C102.303 93.8353 101.217 97.9102 99.0949 100.78C94.3432 107.209 84.3957 107.611 84.3957 107.611C80.49 118.348 74.7161 119.533 70.3733 118.983L63.3585 114.732C67.8071 117.143 79.2915 121.492 82.175 104.171C82.175 104.171 82.4358 104.206 82.9011 104.241C86.5812 104.502 102.796 104.65 96.7966 85.9252C96.7966 85.9252 97.4946 85.8477 98.5309 85.5869C102.169 84.6774 109.959 81.4979 105.912 71.4587C105.087 69.4212 103.783 67.0947 101.844 64.451L102.747 64.0068L106.476 70.1121L109.367 74.8356C110.283 86.3342 101.013 88.0543 101.013 88.0543H101.005Z" fill="#CE7314"/>
<path d="M101.005 88.055C102.302 93.836 101.217 97.9109 99.0946 100.78C96.3381 102.818 92.7566 104.982 88.576 105.461C85.1004 105.856 82.7598 104.658 82.7598 104.658L82.8937 104.235C85.4458 104.418 94.0398 104.545 97.0572 98.341C98.3896 95.6126 98.6293 91.6435 96.7893 85.9189C96.7893 85.9189 97.4872 85.8413 98.5236 85.5805C101.731 84.7768 108.168 82.2106 106.871 74.7376C106.702 73.7365 106.384 72.6437 105.905 71.4593C106.102 70.9729 106.286 70.5217 106.469 70.1128L109.359 74.8363C110.276 86.3348 101.005 88.055 101.005 88.055Z" fill="#F3AE13"/>
<path d="M101.005 88.0549L100.377 88.1959C100.906 90.5435 101.026 92.5809 100.843 94.3575C100.532 97.3608 99.3761 99.6098 97.7969 101.351C95.4281 103.953 92.0723 105.377 89.2946 106.131C87.9058 106.505 86.665 106.716 85.7767 106.836C85.3325 106.892 84.973 106.928 84.7333 106.949C84.6135 106.956 84.5147 106.963 84.4583 106.97H84.3878H84.3667L83.9367 106.984L83.7886 107.386C81.9203 112.525 79.6502 115.359 77.3872 116.861C76.2592 117.615 75.1242 118.046 74.0103 118.264C72.8964 118.483 71.8107 118.49 70.7814 118.384C70.6686 118.37 70.5558 118.356 70.443 118.342L70.3654 118.976L70.6968 118.426L63.682 114.175L63.3507 114.725L63.0475 115.289C64.6902 116.177 67.2493 117.326 70.0693 117.615C71.3313 117.742 72.6426 117.7 73.9398 117.362C75.8856 116.868 77.782 115.705 79.3259 113.604C80.8769 111.51 82.0896 108.493 82.7946 104.263L82.16 104.157L82.0754 104.792C82.0754 104.792 82.1601 104.806 82.3081 104.82C83.2669 104.911 86.9681 105.2 90.6623 104.101C92.5094 103.544 94.3636 102.634 95.837 101.14C97.3105 99.645 98.382 97.5653 98.6641 94.8017C98.9108 92.3553 98.5583 89.3732 97.388 85.7213L96.7817 85.9187L96.8522 86.5532C96.8945 86.5532 99.3126 86.2853 101.879 85.0586C103.162 84.4453 104.487 83.5852 105.559 82.3726C106.624 81.16 107.427 79.5878 107.625 77.6209C107.794 75.95 107.54 74.0183 106.708 71.7764C105.876 69.5345 104.48 66.9895 102.344 64.0637L101.83 64.4444L102.112 65.0155L102.492 64.8322L108.809 75.1604L109.352 74.8291L108.71 74.8784C108.802 76.0276 108.788 77.071 108.689 78.0086C108.478 80.0672 107.878 81.6605 107.11 82.9154C105.954 84.7978 104.389 85.9258 103.106 86.5814C102.464 86.9128 101.9 87.1243 101.491 87.2441C101.287 87.3076 101.132 87.3499 101.019 87.3781C100.962 87.3922 100.927 87.3992 100.899 87.4063H100.871L100.215 87.5261L100.363 88.1747L100.991 88.0337L101.11 88.6612C101.167 88.6471 103.113 88.2875 105.206 86.7859C106.25 86.0315 107.329 84.9952 108.203 83.5781C109.077 82.1611 109.74 80.3633 109.965 78.1285C110.071 77.0992 110.085 75.9853 109.986 74.7656L109.972 74.6105L102.972 63.1543L100.864 64.1906L101.315 64.804C103.395 67.6522 104.734 70.1056 105.51 72.1994C106.285 74.3003 106.497 76.0346 106.349 77.4728C106.172 79.1648 105.51 80.462 104.593 81.5054C103.225 83.0705 101.251 84.0293 99.6088 84.5722C98.791 84.8471 98.0578 85.0163 97.5361 85.1221C97.2752 85.1714 97.0637 85.2067 96.9227 85.2278C96.8522 85.2419 96.7958 85.249 96.7606 85.249H96.7183H96.7112L95.9357 85.3336L96.1754 86.0809C97.3105 89.6129 97.6207 92.4188 97.3951 94.6395C97.1342 97.1493 96.2107 98.9118 94.9346 100.209C93.0241 102.155 90.2534 103.036 87.7577 103.396C85.2691 103.755 83.0907 103.586 82.4421 103.515C82.3716 103.515 82.3222 103.501 82.294 103.501H82.2588H82.2517L81.6384 103.424L81.5396 104.037C81.0884 106.766 80.4187 108.93 79.608 110.622C78.3954 113.167 76.8866 114.647 75.2722 115.479C73.6577 116.311 71.9164 116.495 70.2033 116.325C67.6512 116.064 65.2119 114.986 63.6609 114.147L63.0264 115.254L70.1539 119.575L70.2879 119.597C70.4077 119.611 70.5346 119.625 70.6615 119.639C71.7825 119.752 73.0021 119.752 74.2641 119.498C76.1605 119.131 78.1415 118.194 79.9816 116.354C81.8287 114.513 83.5419 111.785 84.9942 107.802L84.3949 107.583L84.4231 108.225C84.4654 108.225 88.4768 108.063 92.7139 106.286C94.8289 105.398 97.0073 104.101 98.7557 102.183C100.504 100.272 101.801 97.7274 102.133 94.4562C102.33 92.5245 102.196 90.3461 101.639 87.8857L101.012 88.0267L101.005 88.0549Z" fill="#3C3C3B"/>
<path d="M82.852 102.874C82.7181 104.164 81.569 105.102 80.2788 104.975C78.9887 104.841 78.051 103.692 78.1779 102.402C78.3118 101.111 79.461 100.174 80.7511 100.308C82.0413 100.442 82.9789 101.591 82.845 102.881L82.852 102.874Z" fill="white"/>
<path d="M82.8514 102.874L82.2169 102.81C82.1676 103.283 81.9349 103.685 81.5965 103.959C81.2581 104.234 80.8139 104.382 80.3416 104.333C79.8692 104.284 79.4674 104.051 79.1924 103.713C78.9175 103.374 78.7695 102.93 78.8188 102.458C78.8682 101.985 79.1008 101.584 79.4392 101.309C79.7776 101.034 80.2217 100.886 80.6941 100.935C81.1664 100.984 81.5683 101.217 81.8432 101.555C82.1182 101.894 82.2663 102.338 82.2169 102.81L82.8514 102.874L83.4859 102.937C83.6551 101.295 82.4566 99.8282 80.814 99.659C79.1713 99.4898 77.7049 100.688 77.5357 102.331C77.3665 103.974 78.565 105.44 80.2076 105.609C81.8503 105.778 83.3167 104.58 83.4859 102.937L82.8514 102.874Z" fill="#11100C"/>
<path d="M67.2783 102.647C71.6704 112.447 64.8672 114.562 63.5841 114.865L62.301 114.089L61.5819 113.652C70.7117 109.323 61.3845 99.7989 61.3845 99.7989C70.7117 100.87 72.3332 95.9355 71.9454 91.353C71.6916 88.3779 70.5847 85.5438 70.1899 84.5991L70.5918 84.8952C70.5918 84.8952 74.286 89.2874 74.279 95.6747C72.5658 100.934 67.2854 102.647 67.2854 102.647H67.2783Z" fill="#F3AE13"/>
<path d="M65.0223 101.633C65.0223 101.633 71.191 111.27 62.3222 114.083H62.301L61.5819 113.653C70.7117 109.324 61.3845 99.7999 61.3845 99.7999C70.7117 100.871 72.3332 95.9365 71.9454 91.354L72.3472 91.5162C72.3472 91.5162 73.9194 99.9691 65.0223 101.64V101.633Z" fill="#FFF6EF"/>
<path d="M103.339 66.8545L102.718 66.6853C102.288 68.2786 101.548 69.4489 100.618 70.3443C99.2288 71.6767 97.3887 72.3747 95.5134 72.699C93.6381 73.0233 91.7487 72.9598 90.3387 72.8188C89.6337 72.7483 89.0556 72.6567 88.6467 72.5791C88.4423 72.5439 88.2872 72.5086 88.1814 72.4875C88.125 72.4734 88.0898 72.4663 88.0616 72.4593H88.0334L88.0263 72.4522L87.2297 72.2619V73.0797C87.2438 73.8693 87.2085 74.6025 87.138 75.3004C86.8349 78.2896 85.8549 80.4399 84.5789 82.0332C83.6201 83.2246 82.485 84.0988 81.3077 84.7474C79.5452 85.7203 77.6981 86.1715 76.2881 86.3689C75.5831 86.4676 74.9909 86.5099 74.582 86.524C74.3776 86.524 74.2154 86.5311 74.1096 86.524C74.0532 86.524 74.018 86.524 73.9898 86.524H73.9616L73.0381 86.4817L73.3271 87.363C74.0956 89.7177 74.2788 91.6987 74.1096 93.3695C73.9404 95.0263 73.4188 96.3869 72.7349 97.5008C71.7056 99.1787 70.2886 100.321 69.1253 101.04C68.5472 101.399 68.0255 101.653 67.6589 101.815C67.4756 101.893 67.3276 101.956 67.2289 101.992C67.1795 102.013 67.1443 102.027 67.1161 102.034H67.0879V102.041L67.1231 102.14L67.0949 102.041L67.1302 102.14L67.102 102.041L66.4252 102.26L66.7142 102.908C67.9268 105.608 68.237 107.653 68.0819 109.183C67.9832 110.156 67.7012 110.924 67.3205 111.559C66.7495 112.503 65.9528 113.138 65.2055 113.554C64.4582 113.97 63.7673 114.174 63.4642 114.245L63.6122 114.865L63.9436 114.315L61.9414 113.095L61.61 113.645L61.885 114.223C63.3091 113.547 64.3454 112.736 65.0504 111.812C65.7554 110.896 66.122 109.881 66.2207 108.865C66.3406 107.667 66.115 106.475 65.7202 105.362C65.128 103.698 64.1692 102.21 63.3584 101.117C62.5477 100.032 61.8779 99.3479 61.8638 99.3338L61.4056 99.785L61.3351 100.42C61.4479 100.434 61.5536 100.441 61.6594 100.455C63.577 100.652 65.1914 100.596 66.5521 100.328C68.5895 99.9331 70.063 99.0377 71.0288 97.8463C71.9946 96.6548 72.4529 95.2096 72.601 93.7362C72.8336 91.4167 72.3401 88.9986 71.7972 87.1444C71.2544 85.2903 70.6551 84.0072 70.6481 83.986L70.07 84.2539L69.9925 84.8884C70.1546 84.9096 70.3167 84.9237 70.4718 84.9448C73.4117 85.2409 75.8228 84.9801 77.7968 84.3103C80.7578 83.3092 82.6895 81.3846 83.888 79.2555C85.0935 77.1193 85.5941 74.7787 85.7915 72.84C86.0382 70.4077 85.8056 68.5888 85.8056 68.5536L85.1711 68.6382L84.9032 69.2233C87.0816 70.2103 89.0345 70.732 90.7829 70.9083C92.8626 71.1198 94.6463 70.8448 96.1409 70.302C98.3828 69.4912 99.9549 68.0953 100.963 66.9109C101.971 65.7265 102.429 64.7395 102.444 64.7043L101.865 64.4364L101.323 64.7748L102.824 67.1788L103.367 66.8404L103.91 66.502L101.788 63.0898L101.287 64.1685C101.266 64.2178 100.505 65.8041 98.841 67.2423C98.0091 67.9614 96.9516 68.6523 95.6544 69.1176C94.3502 69.5829 92.7921 69.8226 90.9239 69.6322C89.3306 69.4701 87.5117 68.9907 85.439 68.053L84.3956 67.5807L84.5436 68.7228V68.7369C84.5648 68.9061 84.7481 70.5699 84.5295 72.7131C84.4026 73.9327 84.1559 75.3075 83.6765 76.654C82.9574 78.6774 81.7518 80.6232 79.7285 81.9697C77.6981 83.3163 74.8146 84.0988 70.6129 83.6758C70.4648 83.6617 70.3097 83.6406 70.1546 83.6265L69.0125 83.4925L69.499 84.5359V84.55C69.5624 84.6769 70.1334 85.9459 70.6269 87.6873C71.1275 89.4286 71.5435 91.6423 71.339 93.6233C71.2474 94.4905 71.0499 95.3083 70.6974 96.0344C70.1616 97.1201 69.3227 98.0084 67.9198 98.6077C66.5239 99.1999 64.5428 99.4748 61.8004 99.1928C61.6946 99.1858 61.5959 99.1717 61.4902 99.1576L59.6995 98.9531L60.9614 100.243H60.9685C61.0813 100.37 62.2022 101.555 63.2245 103.19C63.7391 104.008 64.2185 104.939 64.5499 105.89C64.8812 106.849 65.0434 107.822 64.9517 108.746C64.8671 109.549 64.5992 110.311 64.0423 111.037C63.4853 111.763 62.6252 112.461 61.3421 113.067L60.2705 113.575L63.5135 115.542L63.7673 115.478C64.282 115.351 65.5298 114.992 66.7424 114.068C67.3487 113.603 67.948 112.997 68.4203 112.207C68.8927 111.418 69.2452 110.452 69.358 109.303C69.5413 107.484 69.1606 105.214 67.8916 102.372L67.3064 102.633L67.5038 103.24C67.5461 103.225 69.3016 102.654 71.1698 101.16C72.1004 100.412 73.0662 99.4255 73.8488 98.1565C74.6313 96.8875 75.2165 95.3365 75.4068 93.4823C75.5972 91.6141 75.3787 89.4427 74.5679 86.947L73.9616 87.1444L73.9334 87.786C73.9898 87.786 77.2116 87.9411 80.6661 86.4747C82.3934 85.7415 84.1771 84.5994 85.6152 82.8087C87.0534 81.025 88.125 78.6069 88.4493 75.4062C88.5269 74.6659 88.5621 73.8763 88.5551 73.0444H87.9135L87.7655 73.6719C87.7866 73.6719 88.7666 73.9116 90.2471 74.0596C92.2281 74.257 95.1116 74.3205 97.8047 73.4251C99.1512 72.9739 100.455 72.283 101.541 71.2396C102.634 70.1962 103.501 68.7933 103.988 66.9955L104.058 66.7276L103.91 66.4879L103.367 66.8263L103.339 66.8545Z" fill="#3C3C3B"/>
<path d="M61.3985 112.983C61.2787 114.154 60.2353 115.007 59.0579 114.887C57.8876 114.767 57.0346 113.724 57.1544 112.546C57.2743 111.376 58.3177 110.516 59.495 110.636C60.6653 110.756 61.5184 111.806 61.3985 112.976V112.983Z" fill="white"/>
<path d="M61.3983 112.983L60.7638 112.92C60.6792 113.738 59.946 114.337 59.1282 114.252C58.7193 114.21 58.3668 114.006 58.12 113.71C57.8803 113.414 57.7534 113.026 57.7887 112.617C57.831 112.201 58.0355 111.855 58.3316 111.609C58.6277 111.369 59.0154 111.235 59.4243 111.277C60.2421 111.362 60.8413 112.095 60.7567 112.913L61.3912 112.976L62.0257 113.04C62.1808 111.517 61.074 110.156 59.5441 110.001C58.0213 109.846 56.6607 110.953 56.5056 112.483C56.3505 114.006 57.4573 115.366 58.9872 115.521C60.51 115.677 61.8706 114.57 62.0257 113.04L61.3912 112.976L61.3983 112.983Z" fill="#3C3C3B"/>
<path d="M60.7 98.7566C60.5801 99.9269 59.5367 100.78 58.3594 100.66C57.182 100.54 56.336 99.4969 56.4559 98.3195C56.5757 97.1492 57.6262 96.2962 58.7965 96.416C59.9668 96.5359 60.8198 97.5793 60.7 98.7566Z" fill="white"/>
<path d="M60.7008 98.7569L60.0663 98.6934C59.9817 99.5112 59.2485 100.11 58.4307 100.026C58.0147 99.9836 57.6693 99.7791 57.4225 99.483C57.1828 99.1869 57.0489 98.7992 57.0912 98.3903C57.1335 97.9814 57.3379 97.6289 57.634 97.3821C57.9301 97.1424 58.3179 97.0085 58.7268 97.0508C59.5446 97.1354 60.1438 97.8686 60.0592 98.6864L60.6937 98.7498L61.3282 98.8133C61.4833 97.2905 60.3765 95.9299 58.8466 95.7748C57.3238 95.6197 55.9632 96.7265 55.8081 98.2563C55.653 99.7791 56.7598 101.14 58.2897 101.295C59.8125 101.45 61.1731 100.343 61.3282 98.8133L60.6937 98.7498L60.7008 98.7569Z" fill="#3C3C3B"/>
<path d="M70.3585 82.5831C70.2386 83.7534 69.1952 84.6064 68.0179 84.4936C66.8476 84.3738 65.9945 83.3233 66.1144 82.153C66.2342 80.9827 67.2776 80.1297 68.455 80.2495C69.6253 80.3694 70.4783 81.4128 70.3585 82.5901V82.5831Z" fill="white"/>
<path d="M70.3586 82.5831L69.724 82.5197C69.6817 82.9356 69.4773 83.2811 69.1812 83.5278C68.8851 83.7746 68.4974 83.9015 68.0885 83.8592C67.2707 83.7746 66.6714 83.0414 66.756 82.2236C66.8406 81.4058 67.5738 80.8065 68.3916 80.8911C68.8005 80.9334 69.153 81.1379 69.3997 81.434C69.6394 81.7301 69.7663 82.1178 69.7311 82.5267L70.3656 82.5902L71.0001 82.6536C71.1552 81.1308 70.0483 79.7702 68.5185 79.6151C66.9957 79.46 65.6351 80.5668 65.48 82.0896C65.3249 83.6124 66.4317 84.9731 67.9615 85.1282C69.4843 85.2833 70.845 84.1764 71.0001 82.6466L70.3656 82.5831H70.3586Z" fill="#3C3C3B"/>
<path d="M86.6235 67.5108C86.5036 68.6811 85.4532 69.5341 84.2829 69.4213C83.1126 69.3015 82.2595 68.2581 82.3723 67.0807C82.4922 65.9104 83.5356 65.0574 84.7129 65.1772C85.8832 65.2971 86.7363 66.3475 86.6164 67.5178L86.6235 67.5108Z" fill="white"/>
<path d="M86.623 67.5103L85.9885 67.4469C85.9039 68.2647 85.1707 68.8639 84.3529 68.7793C83.9369 68.737 83.5915 68.5326 83.3448 68.2365C83.1051 67.9404 82.9782 67.5526 83.0134 67.1437C83.0557 66.7348 83.2601 66.3823 83.5562 66.1356C83.8523 65.8959 84.2401 65.7619 84.649 65.8042C85.4668 65.8888 86.066 66.622 85.9814 67.4398L86.616 67.5033L87.2504 67.5667C87.4055 66.0439 86.2987 64.6833 84.7689 64.5282C83.2461 64.3731 81.8854 65.4799 81.7303 67.0098C81.5752 68.5326 82.682 69.8932 84.2119 70.0483C85.7347 70.2034 87.0953 69.0966 87.2504 67.5667L86.616 67.5033L86.623 67.5103Z" fill="#3C3C3B"/>
<path d="M104.339 63.45C104.22 64.6203 103.176 65.4733 101.999 65.3535C100.829 65.2336 99.9755 64.1902 100.095 63.0129C100.215 61.8426 101.259 60.9895 102.436 61.1094C103.606 61.2292 104.459 62.2726 104.339 63.45Z" fill="white"/>
<path d="M104.339 63.4498L103.705 63.3864C103.662 63.8023 103.458 64.1478 103.162 64.3945C102.866 64.6342 102.478 64.7611 102.069 64.7259C101.653 64.6836 101.308 64.4791 101.061 64.183C100.821 63.8869 100.694 63.4992 100.73 63.0903C100.814 62.2725 101.547 61.6732 102.365 61.7578C103.183 61.8424 103.782 62.5756 103.698 63.3934L104.332 63.4569L104.967 63.5203C105.122 61.9975 104.015 60.6369 102.485 60.4818C100.962 60.3267 99.6016 61.4335 99.4465 62.9634C99.2914 64.4862 100.398 65.8468 101.928 66.0019C103.451 66.157 104.812 65.0502 104.967 63.5203L104.332 63.4569L104.339 63.4498Z" fill="#3C3C3B"/>
<path d="M62.8508 114.422L63.3372 114.718C63.161 114.626 62.9988 114.528 62.8438 114.443V114.422H62.8508Z" fill="#F1A700"/>
<path d="M62.8505 114.421L62.5191 114.971L63.0056 115.267L63.3369 114.718L63.6401 114.154C63.4709 114.062 63.3087 113.97 63.1536 113.886L62.8434 114.443L63.4568 114.626V114.605L62.8505 114.421L62.2371 114.238V114.259L62.082 114.753L62.5332 115.007C62.6813 115.091 62.8505 115.183 63.0338 115.282L63.6683 114.175L62.4768 113.456L62.2371 114.245L62.8505 114.428V114.421Z" fill="#3C3C3B"/>
<path d="M89.2246 118.243C89.1894 118.609 88.858 118.877 88.4914 118.842C88.1248 118.807 87.8569 118.475 87.8922 118.109C87.9274 117.742 88.2587 117.474 88.6253 117.509C88.9919 117.545 89.2599 117.876 89.2246 118.243Z" fill="#F1A700"/>
<path d="M96.4365 112.44C96.4013 112.807 96.0699 113.075 95.7033 113.04C95.3367 113.004 95.0688 112.673 95.1041 112.306C95.1393 111.94 95.4707 111.672 95.8373 111.707C96.2039 111.742 96.4718 112.074 96.4365 112.44Z" fill="#F1A700"/>
<path d="M107.11 99.8843C107.075 100.251 106.744 100.519 106.377 100.484C106.01 100.448 105.743 100.117 105.778 99.7503C105.813 99.3837 106.144 99.1158 106.511 99.1511C106.878 99.1863 107.145 99.5177 107.11 99.8843Z" fill="#F1A700"/>
<path d="M113.484 84.7265C113.449 85.0931 113.117 85.361 112.751 85.3258C112.384 85.2905 112.116 84.9592 112.152 84.5926C112.187 84.226 112.518 83.9581 112.885 83.9933C113.251 84.0286 113.519 84.3599 113.484 84.7265Z" fill="#F1A700"/>
<path d="M97.7273 85.0579C97.5933 86.3481 96.4442 87.2857 95.154 87.1588C93.8639 87.0249 92.9262 85.8757 93.0531 84.5856C93.1871 83.2954 94.3362 82.3578 95.6263 82.4917C96.9165 82.6257 97.8542 83.7748 97.7202 85.065L97.7273 85.0579Z" fill="white"/>
<path d="M97.7268 85.0579L97.0923 84.9944C97.0429 85.4668 96.8103 85.8686 96.4719 86.1436C96.1335 86.4185 95.6893 86.5666 95.217 86.5172C94.7446 86.4679 94.3428 86.2352 94.0678 85.8968C93.7929 85.5584 93.6448 85.1143 93.6942 84.6419C93.7435 84.1696 93.9762 83.7677 94.3146 83.4928C94.653 83.2178 95.0971 83.0698 95.5695 83.1191C96.0418 83.1685 96.4437 83.4011 96.7186 83.7395C96.9936 84.0779 97.1416 84.5221 97.0923 84.9944L97.7268 85.0579L98.3613 85.1213C98.5305 83.4787 97.332 82.0123 95.6893 81.8431C94.0467 81.6739 92.5803 82.8724 92.4111 84.515C92.2419 86.1577 93.4404 87.6241 95.083 87.7933C96.7257 87.9625 98.1921 86.764 98.3613 85.1213L97.7268 85.0579Z" fill="#11100C"/>
<path d="M36.1244 106.468C44.5491 108.259 47.0095 111.862 45.2682 120.011L42.7937 131.644L18.8167 126.54L21.2701 115.02C23.0044 106.87 26.769 104.473 35.2008 106.271L36.1244 106.468ZM25.782 121.576L38.4509 124.277L39.4308 119.666C40.4601 114.83 38.6835 113.589 34.5029 112.7L34.1222 112.623C29.9415 111.735 27.7842 112.129 26.7549 116.973L25.775 121.583L25.782 121.576Z" fill="#3C3C3B"/>
<path d="M51.734 100.42L49.3088 106.243L26.6783 96.8174L29.1035 90.9941L51.734 100.42Z" fill="#3C3C3B"/>
<path d="M56.1755 91.6918L52.7351 96.9793L32.1774 83.6196L39.8548 71.8038C43.2952 66.5163 45.8825 65.6774 49.8799 68.2718L50.5285 68.6948C53.6093 70.697 54.406 72.4947 53.2004 75.1244L53.4049 75.2583C55.3577 73.2843 56.5774 72.6287 60.3703 75.0891L65.0091 78.1065L61.5547 83.4222L57.2048 80.5951C55.2943 79.3543 54.4694 79.4742 52.7633 82.0897L49.3864 87.2856L56.1685 91.6918H56.1755ZM40.2284 81.3283L44.7828 84.2893L48.7096 78.2475C49.7671 76.619 49.6895 75.7095 48.0751 74.6591L47.8988 74.5463C46.1081 73.383 45.1987 73.6862 43.6547 76.0691L40.2355 81.3354L40.2284 81.3283Z" fill="#3C3C3B"/>
<path d="M76.1686 67.4608L71.572 71.7825L59.0019 58.4086L53.6227 63.4635L49.3998 58.9727L64.7899 44.499L69.0129 48.9899L63.5914 54.087L76.1615 67.4608H76.1686Z" fill="#3C3C3B"/>
<path d="M95.6482 54.0587L90.128 57.1748L84.9956 48.0874L69.958 40.4099L76.5074 36.7087L85.2001 41.4533L85.3763 41.3546L85.8064 31.4564L91.7284 28.1147L90.4876 44.9431L95.6341 54.0587H95.6482Z" fill="#3C3C3B"/>
<path d="M123.107 45.0074C117.129 46.0931 112.469 45.2259 110.763 39.6987L117.369 38.5002C118.229 40.157 119.85 40.1852 122.896 39.6353C126.343 39.0078 127.45 38.1689 127.182 36.5121L127.133 36.2372C126.9 34.9611 126.223 34.4817 124.172 34.8201L118.602 35.5815C112.857 36.3359 110.417 34.8977 109.578 30.2447L109.536 30.005C108.528 24.4567 111.235 21.545 118.497 20.2267L119.265 20.0857C125.187 19.0141 129.769 20.2831 131.469 25.7397L124.863 26.9382C124.073 25.1969 122.522 24.9079 119.646 25.4295C116.339 26.0288 115.486 26.8254 115.782 28.4469L115.803 28.5527C116.036 29.8287 116.685 30.3152 118.75 30.0473L124.285 29.2577C130.016 28.4328 132.477 30.012 133.301 34.524L133.344 34.7637C134.444 40.8267 131.285 43.5339 124.115 44.8382L123.121 45.0215L123.107 45.0074Z" fill="#3C3C3B"/>
<path d="M148.198 43.6247C139.887 42.9479 136.883 39.5428 137.581 30.9559L137.715 29.3132C138.413 20.7264 141.931 17.8147 150.243 18.4915L151.857 18.6255C160.169 19.3023 163.194 22.7427 162.496 31.3295L162.362 32.9722C161.664 41.5591 158.118 44.4355 149.813 43.7587L148.198 43.6247ZM149.82 37.9213C154.67 38.3161 155.643 36.2857 155.982 32.1332L156.066 31.0828C156.405 26.8951 155.763 24.766 150.92 24.3783L150.257 24.3219C145.378 23.9271 144.434 25.9222 144.095 30.1099L144.011 31.1603C143.672 35.3128 144.279 37.4701 149.157 37.8649L149.82 37.9213Z" fill="#3C3C3B"/>
<path d="M173.995 49.0818C166.303 46.2618 164.485 42.2362 167.446 34.1499L168.024 32.5707C170.992 24.4844 174.982 22.5879 182.674 25.4079L184.168 25.9578C190.993 28.4605 192.959 31.9009 191.556 38.0979L185.501 35.8771C185.627 34.6927 185.402 33.7903 184.852 33.1065C184.302 32.4226 183.23 31.8022 181.63 31.2171L181.221 31.069C176.766 29.4334 175.391 31.1677 173.96 35.0805L173.6 36.0675C172.169 39.9802 172.099 42.1939 176.554 43.8225L176.963 43.9705C178.563 44.5557 179.783 44.7813 180.643 44.6121C181.503 44.4429 182.258 43.9 182.927 42.913L188.99 45.1338C186.057 50.7738 182.328 52.1274 175.511 49.6246L174.016 49.0747L173.995 49.0818Z" fill="#3C3C3B"/>
<path d="M193.368 57.9859L188.235 54.3199L202.483 34.3755L207.616 38.0415L201.898 46.0503L202.06 46.1701L215.815 43.893L222.717 48.8209L208.751 50.943L208.68 68.9204L201.87 64.063L201.912 52.0498L201.722 51.9159L197.189 52.635L193.361 57.993L193.368 57.9859Z" fill="#3C3C3B"/>
<path d="M222.251 85.3472L209.667 70.4505L228.392 54.6304L240.976 69.527L236.746 73.1013L228.23 63.0199L225.234 65.5508L233.75 75.6323L229.499 79.2278L220.982 69.1463L217.958 71.6984L226.474 81.7799L222.244 85.3542L222.251 85.3472Z" fill="#3C3C3B"/>
<path d="M226.813 93.42L224.021 87.7589L246.01 76.916L252.242 89.5566C255.034 95.2178 254.428 97.8686 250.155 99.9765L249.464 100.315C246.165 101.943 244.212 101.711 242.57 99.3279L242.351 99.4337C243.049 102.12 242.993 103.509 238.939 105.504L233.976 107.95L231.17 102.268L235.816 99.9765C237.86 98.9684 238.177 98.1999 236.796 95.394L234.06 89.8386L226.806 93.42H226.813ZM243.867 85.0094L238.995 87.4134L242.182 93.8783C243.042 95.6196 243.86 96.0215 245.587 95.1684L245.777 95.0768C247.695 94.1321 247.892 93.1944 246.637 90.6494L243.86 85.0165L243.867 85.0094Z" fill="#3C3C3B"/>
<path d="M236.578 120.985C235.358 115.028 236.12 110.354 241.604 108.521L242.951 115.098C241.308 115.994 241.322 117.615 241.943 120.654C242.648 124.087 243.508 125.18 245.165 124.87L245.44 124.813C246.709 124.552 247.174 123.869 246.793 121.817L245.912 116.269C245.024 110.544 246.413 108.07 251.044 107.125L251.284 107.075C256.804 105.947 259.779 108.584 261.253 115.817L261.408 116.586C262.613 122.487 261.45 127.097 256.029 128.916L254.682 122.339C256.409 121.514 256.663 119.956 256.071 117.086C255.401 113.794 254.583 112.962 252.969 113.286L252.87 113.308C251.601 113.568 251.129 114.224 251.439 116.29L252.349 121.803C253.3 127.513 251.778 130.016 247.28 130.933L247.04 130.982C241.005 132.216 238.227 129.121 236.761 121.979L236.557 120.985H236.578Z" fill="#3C3C3B"/>
<path d="M57.2321 223.406L48.2927 213.191L60.7712 202.263L69.7106 212.479L66.8977 214.946L60.8488 208.037L58.8536 209.786L64.9025 216.695L62.0684 219.176L56.0195 212.267L54.0032 214.03L60.0521 220.939L57.2321 223.406Z" fill="#8E6CCF"/>
<path d="M75.0974 238.543L71.2411 235.434L72.3479 232.071L66.6092 227.446L63.5707 229.258L59.8553 226.262L75.2807 217.386L80.4695 221.566L75.0974 238.536V238.543ZM75.4781 222.18L70.0355 225.402L73.6099 228.278L75.598 222.278L75.4711 222.18H75.4781Z" fill="#8E6CCF"/>
<path d="M82.5421 242.772L78.6787 240.692L86.5395 226.092L95.1757 230.738C99.0461 232.817 99.7864 234.538 98.2636 237.372L98.0168 237.83C96.8395 240.023 95.6551 240.65 93.7586 239.952L93.6811 240.1C95.1687 241.334 95.7045 242.131 94.2522 244.817L92.4755 248.109L88.591 246.022L90.2548 242.934C90.988 241.581 90.847 241.024 88.9294 239.994L85.1365 237.95L82.5421 242.765V242.772ZM88.6403 231.443L86.899 234.679L91.3193 237.055C92.5108 237.696 93.1312 237.597 93.7516 236.448L93.8221 236.321C94.5059 235.052 94.238 234.446 92.4967 233.508L88.6474 231.436L88.6403 231.443Z" fill="#8E6CCF"/>
<path d="M108.88 254.052L96.7968 249.857L102.239 234.185L106.385 235.623L102.31 247.354L110.248 250.111L108.88 254.052Z" fill="#8E6CCF"/>
<path d="M117.425 255.956L113.117 254.99L114.661 248.095L110.41 237.379L115.521 238.521L117.841 244.866L117.975 244.894L122.776 240.143L127.393 241.179L118.969 249.033L117.418 255.949L117.425 255.956Z" fill="#8E6CCF"/>
<path d="M147.571 258.41L134 258.191L134.267 241.609L147.839 241.828L147.775 245.571L138.589 245.423L138.547 248.074L147.733 248.222L147.669 251.987L138.483 251.839L138.441 254.518L147.627 254.666L147.564 258.41H147.571Z" fill="#8E6CCF"/>
<path d="M166.818 247.601C167.748 253.354 166.028 255.793 160.304 256.724L152.133 258.049L149.475 241.679L157.568 240.368C163.293 239.437 165.789 241.221 166.719 246.974L166.818 247.608V247.601ZM154.431 244.838L155.834 253.488L159.077 252.959C162.475 252.409 162.835 250.978 162.376 248.13L162.334 247.876C161.869 245.021 161.072 243.759 157.674 244.309L154.431 244.838Z" fill="#8E6CCF"/>
<path d="M176.314 252.917L172.105 254.158L167.424 238.246L171.632 237.005L176.314 252.917Z" fill="#8E6CCF"/>
<path d="M188.496 248.307L184.45 250.013L179.627 238.571L174.897 240.566L173.282 236.724L186.826 231.013L188.44 234.855L183.674 236.865L188.496 248.307Z" fill="#8E6CCF"/>
<path d="M200.171 242.328L196.343 244.471L188.235 229.998L192.063 227.854L200.171 242.328Z" fill="#8E6CCF"/>
<path d="M210.506 235.793C205.853 239.247 202.751 238.895 199.275 234.214L198.613 233.318C195.137 228.637 195.68 225.549 200.34 222.095L201.242 221.425C205.902 217.971 209.025 218.33 212.501 223.011L213.164 223.907C216.639 228.588 216.068 231.669 211.408 235.13L210.499 235.8L210.506 235.793ZM208.807 232.155C211.521 230.139 211.126 228.658 209.448 226.395L209.025 225.824C207.333 223.54 206.043 222.757 203.329 224.774L202.955 225.049C200.22 227.079 200.622 228.524 202.314 230.809L202.737 231.38C204.415 233.643 205.705 234.46 208.433 232.43L208.807 232.155Z" fill="#8E6CCF"/>
<path d="M233.186 214.057L228.695 218.929L215.85 215.834L215.744 215.954L224.233 223.772L221.377 226.867L209.181 215.623L213.672 210.751L226.531 213.86L226.637 213.74L218.134 205.901L220.99 202.806L233.186 214.05V214.057Z" fill="#8E6CCF"/>
</svg>
