<svg width="73" height="73" viewBox="0 0 73 73" fill="none" xmlns="http://www.w3.org/2000/svg">
<g id="Frame" clip-path="url(#clip0_87_35027)">
<g id="Group">
<g id="Layer 1">
<path id="Vector" d="M36.5 71.7865C55.9886 71.7865 71.7873 55.9878 71.7873 36.4991C71.7873 17.0105 55.9886 1.21179 36.5 1.21179C17.0113 1.21179 1.21265 17.0105 1.21265 36.4991C1.21265 55.9878 17.0113 71.7865 36.5 71.7865Z" fill="url(#paint0_linear_87_35027)"/>
<path id="Vector_2" d="M36.5 73C16.3741 73 0 56.6259 0 36.5C0 16.3741 16.3741 0 36.5 0C56.6259 0 73 16.3741 73 36.5C73 56.6259 56.6259 73 36.5 73ZM36.5 2.42623C17.7114 2.42533 2.42533 17.7114 2.42533 36.5C2.42533 55.2886 17.7114 70.5747 36.5 70.5747C55.2886 70.5747 70.5747 55.2886 70.5747 36.5C70.5747 17.7114 55.2886 2.42533 36.5 2.42533V2.42623Z" fill="#49C00F"/>
<path id="Vector_3" d="M55.7292 18.8139C53.6262 16.6648 49.2035 16.2693 47.1538 18.8139C43.626 23.1923 40.0982 27.5707 36.5703 31.9491C34.8909 34.034 33.2105 36.1189 31.531 38.2038C30.935 38.9442 30.2253 40.054 29.4515 41.0851C29.3007 40.9298 29.149 40.7736 28.9973 40.6183C27.8569 39.4463 26.7173 38.2752 25.5769 37.1031C20.124 31.4994 11.5523 40.0793 17.0007 45.6785C19.8143 48.5688 22.6875 52.6104 26.5015 54.1355C30.684 55.8078 34.3942 53.7951 37.0832 50.5327C43.3831 42.8892 49.516 35.1022 55.7301 27.3892C57.7996 24.8203 58.1942 21.3322 55.7301 18.8139H55.7292Z" fill="white"/>
<path id="Vector_4" opacity="0.5" d="M46.9065 4.36128C38.9235 0.944514 16.9737 0.118314 5.81323 21.8858C16.31 9.28959 27.6809 2.92469 46.9065 4.36128Z" fill="#BDDE23"/>
<path id="Vector_5" opacity="0.5" d="M29.177 69.6157C47.7191 68.2757 60.5438 57.4277 69.4162 44.343C67.9823 52.4985 62.4716 59.9885 55.7942 64.5971C49.1169 69.2058 38.7474 72.014 29.0876 69.6157" fill="#15A208"/>
</g>
</g>
</g>
<defs>
<linearGradient id="paint0_linear_87_35027" x1="36.5" y1="1.21179" x2="36.5" y2="71.7865" gradientUnits="userSpaceOnUse">
<stop stop-color="#60C514"/>
<stop offset="1" stop-color="#4CA807"/>
</linearGradient>
<clipPath id="clip0_87_35027">
<rect width="73" height="73" fill="white"/>
</clipPath>
</defs>
</svg>
