<svg width="197" height="249" viewBox="0 0 197 249" fill="none" xmlns="http://www.w3.org/2000/svg">
<path d="M242.026 64.6865L241.881 64.5416H238.403L234.952 64.5548L234.807 61.0508L234.689 57.5468L234.544 57.4019H231.079H227.615L227.483 53.9111L227.351 50.4071L227.206 50.2621H223.755H220.277L220.146 46.7582L220.027 43.2542L219.882 43.1225H216.418H212.953L212.821 39.6185L212.69 36.1145L212.545 35.9696L209.08 35.9827L205.616 35.9696L205.497 32.4787L205.352 28.9616L205.208 28.8298H201.756H198.292L198.16 25.3258L198.028 21.8219L197.883 21.6901H194.419H190.954L190.823 18.1862L190.691 14.6822L190.559 14.5372H187.095L183.63 14.5504L183.485 11.0332L183.367 7.52924L183.222 7.39754H179.757H176.293L176.161 3.89355L176.03 0.38955L175.885 0.257812H172.433H169.074L0.0131836 178.606L0.0922379 180.911L0.223955 184.428L0.355692 184.56H3.83334L7.29782 184.547L7.42954 188.064L7.54809 191.568L7.67982 191.686L7.69299 191.7H11.1706L14.6351 191.686L14.7537 195.204L14.8854 198.708L15.0303 198.853H18.4948L21.9592 198.839L22.091 202.343L22.2227 205.847L22.2754 205.913L22.3544 205.992H25.8321L29.2966 205.979L29.4283 209.496L29.5469 213L29.6918 213.145L33.1562 213.132H36.6339L36.7524 216.636L36.871 220.14L37.0159 220.285L40.4935 220.272H43.958L44.0897 223.789L44.2083 227.293L44.3532 227.425H47.8176L51.2953 227.411L51.4271 230.929L51.5456 234.433L51.6246 234.512L51.6905 234.564H55.155H58.6194L58.7512 238.068L58.8697 241.572L58.9488 241.651L59.0146 241.717L62.4791 241.704H65.9568L66.0885 245.221L66.2071 248.725L66.3519 248.857H69.8164H71.7924L73.7024 246.894L242.197 69.6L242.144 68.1905L242.026 64.6865Z" fill="#BC9E8F"/>
</svg>
