<svg width="269" height="261" viewBox="0 0 269 261" fill="none" xmlns="http://www.w3.org/2000/svg">
<path d="M266.349 -14.8828C266.753 -10.404 267.156 -5.82992 267.584 -1.18436C262.978 17.0405 260.652 35.9087 260.652 54.9197V136.134C260.652 147.879 251.251 157.384 239.666 157.384C233.874 157.384 228.628 155.002 224.829 151.166C221.031 147.331 218.681 142.018 218.681 136.134V34.9319C218.681 15.4682 200.33 1.57915 181.79 6.725C181.6 6.79647 181.386 6.84412 181.197 6.89177C168.496 10.3938 159.594 21.9243 159.594 35.2416V137.515C159.594 145.806 152.971 152.524 144.757 152.524C140.674 152.524 136.947 150.833 134.264 148.117C131.582 145.401 129.92 141.661 129.92 137.515V114.764C129.92 111.238 127.095 108.403 123.605 108.427H123.439C119.997 108.451 117.219 111.286 117.219 114.764V231.975C117.219 246.984 105.207 259.134 90.3939 259.134C82.9873 259.134 76.2691 256.084 71.4263 251.177C66.5835 246.269 63.5686 239.48 63.5686 231.975V59.9226C63.5686 53.8715 59.6754 48.5351 53.978 46.7483L53.6931 46.653C44.8858 43.8657 35.9599 50.5124 35.9599 59.8512V58.6123C35.9599 73.6211 23.9478 85.771 9.13452 85.771C1.72788 85.771 -4.99033 82.7216 -9.83313 77.814C-14.6759 72.9064 -17.6908 66.1167 -17.6908 58.6123V54.6815C-17.6671 30.8581 -21.5128 7.4397 -28.8008 -14.8828" fill="#E20D44"/>
<path d="M266.349 -14.8828C266.753 -10.404 267.156 -5.82992 267.584 -1.18436C262.978 17.0405 260.652 35.9087 260.652 54.9197V136.134C260.652 147.879 251.251 157.384 239.666 157.384C233.874 157.384 228.628 155.002 224.829 151.166C221.031 147.331 218.681 142.018 218.681 136.134V34.9319C218.681 15.4682 200.33 1.57915 181.79 6.725C181.6 6.79647 181.386 6.84412 181.197 6.89177C168.496 10.3938 159.594 21.9243 159.594 35.2416V137.515C159.594 145.806 152.971 152.524 144.757 152.524C140.674 152.524 136.947 150.833 134.264 148.117C131.582 145.401 129.92 141.661 129.92 137.515V114.764C129.92 111.238 127.095 108.403 123.605 108.427H123.439C119.997 108.451 117.219 111.286 117.219 114.764V231.975C117.219 246.984 105.207 259.134 90.3939 259.134C82.9873 259.134 76.2691 256.084 71.4263 251.177C66.5835 246.269 63.5686 239.48 63.5686 231.975V59.9226C63.5686 53.8715 59.6754 48.5351 53.9779 46.7483L53.6931 46.653C44.8858 43.8657 35.9599 50.5124 35.9599 59.8512V58.6123C35.9599 73.6211 23.9478 85.771 9.13452 85.771C1.72788 85.771 -4.99033 82.7216 -9.83313 77.814C-14.6759 72.9064 -17.6908 66.1167 -17.6908 58.6123V54.6815C-17.6671 30.8581 -21.5128 7.4397 -28.8008 -14.8828" stroke="#1B1B1B" stroke-width="2.41672" stroke-miterlimit="10" stroke-linecap="round"/>
</svg>
