<svg width="32" height="33" viewBox="0 0 32 33" fill="none" xmlns="http://www.w3.org/2000/svg">
<path d="M16 0.269531C7.16342 0.269531 0 7.43295 0 16.2695C0 25.1061 7.16342 32.2695 16 32.2695C24.8366 32.2695 32 25.1061 32 16.2695C32 7.43295 24.8366 0.269531 16 0.269531ZM23.4163 11.1508C23.1755 13.6808 22.1336 19.8204 21.6034 22.654C21.3791 23.853 20.9374 24.2551 20.5099 24.2944C19.5809 24.3799 18.8752 23.6804 17.9753 23.0904C16.5671 22.1673 15.7715 21.5927 14.4046 20.6919C12.8249 19.6509 13.849 19.079 14.7492 18.1435C14.9848 17.8988 19.0787 14.1751 19.1579 13.8373C19.1678 13.7951 19.1773 13.6373 19.0835 13.5545C18.9897 13.4717 18.8519 13.4997 18.7522 13.5222C18.611 13.5543 16.3614 15.0413 12.0033 17.983C11.3648 18.4215 10.7864 18.6351 10.2682 18.6239C9.6969 18.6116 8.598 18.3009 7.78103 18.0353C6.77903 17.7097 5.98265 17.5375 6.052 16.9843C6.08813 16.6961 6.4849 16.4015 7.24232 16.1004C11.9067 14.0683 15.0169 12.7285 16.5732 12.0811C21.0165 10.2329 21.9398 9.91185 22.5416 9.90114C22.674 9.89895 22.9699 9.93172 23.1616 10.0873C23.2891 10.1981 23.3704 10.3527 23.3894 10.5206C23.4218 10.729 23.4309 10.9404 23.4163 11.1508Z" fill="#69C1ED"/>
</svg>
