<svg width="182" height="27" viewBox="0 0 182 27" fill="none" xmlns="http://www.w3.org/2000/svg">
<rect width="182" height="27" fill=""/>
<g id="1572725842" clip-path="url(#clip0_0_1)">
<rect width="1440" height="22955" transform="translate(-253 -22741)" fill="#3C3C3B"/>
<g id="Frame">
<g id="Group">
<path id="Vector" d="M77.3492 8.74279C76.6883 8.29537 75.9003 8.07166 75.0107 8.07166C74.2481 8.07166 73.5872 8.2208 73.028 8.49422C72.4688 8.76764 72.0366 9.16535 71.6808 9.63762C71.3249 10.1099 71.0707 10.6567 70.8928 11.2782C70.7148 11.8996 70.6386 12.521 70.6386 13.1921C70.6386 13.913 70.7148 14.5841 70.8928 15.2304C71.0707 15.8766 71.3249 16.4235 71.6808 16.9206C72.0366 17.3929 72.4942 17.7906 73.0534 18.064C73.6126 18.3374 74.2735 18.4866 75.0361 18.4866C75.5953 18.4866 76.1037 18.3871 76.5612 18.2131C77.0188 18.0392 77.3746 17.7657 77.7051 17.4426C78.0355 17.1195 78.2643 16.7218 78.4676 16.2743C78.6456 15.8269 78.7473 15.3546 78.7981 14.8327H80.5266C80.3487 16.4235 79.7894 17.6663 78.8489 18.5611C77.9084 19.456 76.5866 19.8785 74.9344 19.8785C73.9431 19.8785 73.0534 19.7045 72.3162 19.3814C71.5791 19.0583 70.9436 18.586 70.4607 17.9894C69.9777 17.3929 69.5964 16.6969 69.3422 15.9015C69.088 15.1061 68.9609 14.2361 68.9609 13.3164C68.9609 12.3967 69.088 11.5267 69.3676 10.7313C69.6218 9.91105 70.0285 9.21506 70.5369 8.6185C71.0453 8.02194 71.6808 7.54967 72.4433 7.20168C73.2059 6.85368 74.0956 6.67969 75.0869 6.67969C75.7732 6.67969 76.4087 6.77911 77.0188 6.95311C77.6288 7.12711 78.1626 7.40053 78.6202 7.72366C79.1031 8.07166 79.4844 8.49422 79.7894 9.01621C80.0945 9.5382 80.2978 10.1348 80.3995 10.8059H78.671C78.4676 9.91104 78.0609 9.23992 77.4 8.7925L77.3492 8.74279Z" fill="white"/>
<path id="Vector_2" d="M82.2797 10.7824C82.5339 9.98703 82.9152 9.29105 83.449 8.66963C83.9574 8.04822 84.6183 7.57594 85.3808 7.2031C86.1434 6.83025 87.0585 6.65625 88.0753 6.65625C89.092 6.65625 90.0071 6.83025 90.7697 7.2031C91.5322 7.57594 92.1931 8.04822 92.7015 8.66963C93.2099 9.29105 93.6166 9.98703 93.8708 10.7824C94.125 11.5779 94.2521 12.3981 94.2521 13.2681C94.2521 14.1381 94.125 14.9584 93.8708 15.7538C93.6166 16.5492 93.2099 17.2452 92.7015 17.8666C92.1931 18.488 91.5322 18.9603 90.7697 19.3331C90.0071 19.6811 89.092 19.88 88.0753 19.88C87.0585 19.88 86.1434 19.706 85.3808 19.3331C84.6183 18.9851 83.9574 18.488 83.449 17.8666C82.9406 17.2452 82.5339 16.5492 82.2797 15.7538C82.0255 14.9584 81.8984 14.1381 81.8984 13.2681C81.8984 12.3981 82.0255 11.5779 82.2797 10.7824ZM83.8557 15.1572C84.0336 15.7786 84.2878 16.3255 84.6437 16.8226C84.9996 17.3197 85.4825 17.7174 86.0417 18.0157C86.6009 18.314 87.2873 18.4631 88.0753 18.4631C88.8632 18.4631 89.5241 18.314 90.1088 18.0157C90.6934 17.7174 91.1509 17.3197 91.5068 16.8226C91.8627 16.3255 92.1423 15.7786 92.2948 15.1572C92.4473 14.5358 92.549 13.9144 92.549 13.2681C92.549 12.6218 92.4727 12.0004 92.2948 11.379C92.1169 10.7576 91.8627 10.2107 91.5068 9.71361C91.1509 9.21648 90.668 8.81877 90.1088 8.52049C89.5496 8.22222 88.8632 8.07308 88.0753 8.07308C87.2873 8.07308 86.6264 8.22222 86.0417 8.52049C85.4571 8.81877 84.9996 9.21648 84.6437 9.71361C84.2878 10.2107 84.0082 10.7576 83.8557 11.379C83.7032 12.0004 83.6015 12.6218 83.6015 13.2681C83.6015 13.9144 83.6778 14.5358 83.8557 15.1572Z" fill="white"/>
<path id="Vector_3" d="M98.1935 6.95312L105.006 17.194H105.031V6.95312H106.658V19.5803H104.777L98.0155 9.43878H97.9901V19.5803H96.3633V6.95312H98.1935Z" fill="white"/>
<path id="Vector_4" d="M115.91 8.66892C115.326 8.27121 114.614 8.0475 113.724 8.0475C113.369 8.0475 113.013 8.07236 112.657 8.14693C112.301 8.2215 111.996 8.34578 111.716 8.49492C111.437 8.66892 111.233 8.89263 111.055 9.16605C110.903 9.43947 110.801 9.78746 110.801 10.21C110.801 10.6077 110.928 10.906 111.157 11.1546C111.386 11.4031 111.716 11.602 112.098 11.7511C112.479 11.9003 112.936 12.0246 113.419 12.124C113.902 12.2234 114.411 12.3228 114.919 12.4471C115.427 12.5714 115.936 12.6957 116.444 12.8697C116.953 13.0437 117.385 13.2425 117.766 13.516C118.147 13.7894 118.478 14.1374 118.707 14.5351C118.935 14.9576 119.062 15.4548 119.062 16.101C119.062 16.7722 118.91 17.3439 118.605 17.8161C118.3 18.2884 117.893 18.6861 117.41 18.9844C116.927 19.2827 116.393 19.5064 115.783 19.6307C115.199 19.755 114.589 19.8295 114.004 19.8295C113.292 19.8295 112.606 19.7301 111.945 19.5561C111.31 19.3821 110.725 19.1087 110.242 18.7607C109.759 18.4127 109.378 17.9404 109.073 17.3687C108.793 16.797 108.641 16.1508 108.641 15.3802H110.267C110.267 15.9022 110.369 16.3745 110.572 16.7473C110.776 17.1202 111.055 17.4433 111.411 17.6919C111.767 17.9404 112.148 18.1144 112.606 18.2387C113.064 18.363 113.521 18.4127 114.029 18.4127C114.411 18.4127 114.817 18.3878 115.199 18.3133C115.58 18.2387 115.936 18.1144 116.266 17.9404C116.571 17.7664 116.826 17.5427 117.029 17.2444C117.232 16.9462 117.309 16.5733 117.309 16.101C117.309 15.6536 117.181 15.3056 116.953 15.0322C116.724 14.7588 116.393 14.5351 116.012 14.3611C115.631 14.1871 115.173 14.0628 114.69 13.9385C114.207 13.8391 113.699 13.7148 113.191 13.6154C112.682 13.516 112.174 13.3668 111.691 13.2177C111.208 13.0685 110.75 12.8697 110.369 12.6211C109.988 12.3725 109.657 12.0743 109.429 11.6766C109.2 11.3037 109.073 10.8066 109.073 10.2349C109.073 9.58861 109.2 9.04177 109.479 8.56949C109.759 8.09722 110.09 7.72437 110.547 7.42609C110.979 7.12781 111.488 6.9041 112.047 6.75496C112.606 6.60582 113.191 6.53125 113.775 6.53125C114.436 6.53125 115.046 6.60582 115.631 6.75496C116.19 6.9041 116.698 7.15267 117.131 7.4758C117.563 7.79894 117.893 8.2215 118.147 8.71863C118.402 9.21576 118.529 9.81232 118.554 10.5083H116.927C116.826 9.58861 116.495 8.94234 115.91 8.54463V8.66892Z" fill="white"/>
<path id="Vector_5" d="M130.17 18.6606C129.281 19.4808 128.035 19.8786 126.408 19.8786C124.781 19.8786 123.434 19.4808 122.519 18.7103C121.604 17.9397 121.121 16.6969 121.121 15.0315V6.95312H122.85V15.0315C122.85 16.1749 123.155 17.02 123.765 17.6166C124.375 18.2132 125.264 18.4866 126.434 18.4866C127.603 18.4866 128.366 18.1883 128.95 17.6166C129.535 17.02 129.814 16.1749 129.814 15.0315V6.95312H131.543V15.0315C131.543 16.6472 131.111 17.8652 130.221 18.6606H130.17Z" fill="white"/>
<path id="Vector_6" d="M135.965 6.95312V18.1634H142.803V19.5803H134.236V6.95312H135.965Z" fill="white"/>
<path id="Vector_7" d="M141.277 8.36995V6.95312H151.623V8.36995H147.327V19.5803H145.599V8.36995H141.303H141.277Z" fill="white"/>
<path id="Vector_8" d="M154.826 6.95312V19.5803H153.098V6.95312H154.826Z" fill="white"/>
<path id="Vector_9" d="M159.529 6.95312L166.342 17.194H166.367V6.95312H167.994V19.5803H166.113L159.351 9.43878H159.326V19.5803H157.699V6.95312H159.529Z" fill="white"/>
<path id="Vector_10" d="M178.568 19.434C177.831 19.7322 177.068 19.8565 176.306 19.8565C175.34 19.8565 174.476 19.6825 173.713 19.3345C172.95 18.9865 172.315 18.5143 171.781 17.9177C171.247 17.3211 170.841 16.65 170.561 15.8795C170.281 15.1089 170.154 14.3135 170.154 13.4932C170.154 12.5735 170.281 11.7036 170.536 10.8584C170.79 10.0133 171.171 9.29247 171.705 8.67105C172.239 8.04964 172.849 7.55251 173.637 7.17966C174.399 6.80681 175.289 6.63281 176.331 6.63281C177.043 6.63281 177.704 6.70738 178.314 6.88138C178.924 7.05537 179.483 7.30394 179.966 7.62708C180.449 7.97507 180.856 8.39763 181.186 8.91962C181.517 9.44161 181.745 10.0879 181.872 10.8336H180.144C180.068 10.3613 179.89 9.93874 179.661 9.59075C179.432 9.24276 179.153 8.94448 178.822 8.72077C178.492 8.49706 178.11 8.32306 177.678 8.22363C177.246 8.12421 176.789 8.04964 176.306 8.04964C175.518 8.04964 174.857 8.19878 174.298 8.52191C173.738 8.82019 173.281 9.24276 172.925 9.73989C172.569 10.237 172.315 10.8087 172.137 11.455C171.959 12.1013 171.883 12.7475 171.883 13.4187C171.883 14.0898 171.984 14.7112 172.162 15.3326C172.34 15.954 172.645 16.476 173.027 16.9483C173.408 17.4206 173.865 17.7934 174.399 18.0668C174.958 18.3403 175.594 18.4894 176.306 18.4894C176.992 18.4894 177.577 18.39 178.085 18.1663C178.593 17.9426 179.051 17.6691 179.407 17.2963C179.763 16.9234 180.042 16.476 180.22 15.9789C180.398 15.4818 180.474 14.9349 180.449 14.3632H176.331V12.9464H182V19.608H180.907L180.449 18.042C179.941 18.7131 179.305 19.1854 178.568 19.4588V19.434Z" fill="white"/>
</g>
<g id="Group_2">
<path id="Vector_11" d="M54.7517 14.3135C54.345 13.3938 53.7858 12.5984 53.0995 11.9521C52.4132 11.3307 51.6252 10.8336 50.7355 10.5353C50.3796 10.411 50.0492 10.3116 49.6933 10.237L54.345 4.71886V0.269531H40.7713L38.3819 6.30968L45.7026 6.11083L41.178 11.5047V15.3078H44.152C44.9146 15.3078 45.6263 15.3575 46.2872 15.4569C46.8718 15.5563 47.3802 15.7055 47.7615 15.9043C48.0919 16.0783 48.3715 16.3269 48.5495 16.6252C48.7274 16.9235 48.8291 17.2963 48.8291 17.7686C48.8291 18.1414 48.7528 18.4646 48.5749 18.7628C48.397 19.086 48.1428 19.3843 47.8123 19.6577C47.4819 19.9311 47.0498 20.13 46.5414 20.2791C45.6771 20.5277 44.6095 20.5774 43.5419 20.4282C43.1098 20.3785 42.6777 20.2791 42.271 20.1797C41.8389 20.0802 41.4576 19.956 41.1271 19.8565C40.7713 19.7322 40.5679 19.6577 40.4662 19.608L39.3478 19.0114L37.4668 24.7284L38.3819 25.0764C39.3986 25.4741 40.4662 25.7724 41.5847 25.9713C42.6777 26.1701 43.7707 26.2447 44.8637 26.2447C46.1601 26.2447 47.4565 26.0707 48.6766 25.7227C49.9475 25.3747 51.066 24.803 52.0573 24.0821C53.0486 23.3365 53.862 22.4168 54.4721 21.3231C55.0822 20.2045 55.4126 18.912 55.4126 17.4703C55.4126 16.2772 55.2093 15.2083 54.8025 14.2887L54.7517 14.3135Z" fill="#ED6C1F"/>
<path id="Vector_12" d="M33.7302 0.269531L27.0958 16.6997L23.3592 25.8967L19.6481 16.6997L12.9883 0.269531H20.4615L23.3592 7.45309L26.2824 0.269531H33.7302Z" fill="white"/>
<path id="Vector_13" d="M7.47318 0.269531H0L10.3709 25.8718L14.0821 16.65L7.47318 0.269531Z" fill="white"/>
<path id="Vector_14" d="M36.6288 0.269531L26.2578 25.8967H27.7321L38.1031 0.269531H36.6288Z" fill="#727271"/>
</g>
</g>
</g>
<defs>
<clipPath id="clip0_0_1">
<rect width="1440" height="22955" fill="white" transform="translate(-253 -22741)"/>
</clipPath>
</defs>
</svg>
